  0
SECTION
  2
HEADER
  9
$ACADVER
  1
AC1018
  9
$ACADMAINTVER
 70
     0
  9
$DWGCODEPAGE
  3
ANSI_1252
  9
$INSBASE
 10
0.0
 20
0.0
 30
0.0
  9
$EXTMIN
 10
-319.5430535917511
 20
511.3082584786063
 30
0.0
  9
$EXTMAX
 10
643.6096657504154
 20
1011.437249509583
 30
0.0
  9
$LIMMIN
 10
0.0
 20
0.0
  9
$LIMMAX
 10
420.0
 20
297.0
  9
$ORTHOMODE
 70
     0
  9
$REGENMODE
 70
     1
  9
$FILLMODE
 70
     1
  9
$QTEXTMODE
 70
     0
  9
$MIRRTEXT
 70
     0
  9
$LTSCALE
 40
1.0
  9
$ATTMODE
 70
     1
  9
$TEXTSIZE
 40
2.5
  9
$TRACEWID
 40
1.0
  9
$TEXTSTYLE
  7
Standard
  9
$CLAYER
  8
0
  9
$CELTYPE
  6
ByLayer
  9
$CECOLOR
 62
     1
  9
$CELTSCALE
 40
1.0
  9
$DISPSILH
 70
     0
  9
$DIMSCALE
 40
1.0
  9
$DIMASZ
 40
2.5
  9
$DIMEXO
 40
0.625
  9
$DIMDLI
 40
3.75
  9
$DIMRND
 40
0.0
  9
$DIMDLE
 40
0.0
  9
$DIMEXE
 40
1.25
  9
$DIMTP
 40
0.0
  9
$DIMTM
 40
0.0
  9
$DIMTXT
 40
2.5
  9
$DIMCEN
 40
2.5
  9
$DIMTSZ
 40
0.0
  9
$DIMTOL
 70
     0
  9
$DIMLIM
 70
     0
  9
$DIMTIH
 70
     0
  9
$DIMTOH
 70
     0
  9
$DIMSE1
 70
     0
  9
$DIMSE2
 70
     0
  9
$DIMTAD
 70
     1
  9
$DIMZIN
 70
     8
  9
$DIMBLK
  1

  9
$DIMASO
 70
     1
  9
$DIMSHO
 70
     1
  9
$DIMPOST
  1

  9
$DIMAPOST
  1

  9
$DIMALT
 70
     0
  9
$DIMALTD
 70
     3
  9
$DIMALTF
 40
0.03937007874016
  9
$DIMLFAC
 40
1.0
  9
$DIMTOFL
 70
     1
  9
$DIMTVP
 40
0.0
  9
$DIMTIX
 70
     0
  9
$DIMSOXD
 70
     0
  9
$DIMSAH
 70
     0
  9
$DIMBLK1
  1

  9
$DIMBLK2
  1

  9
$DIMSTYLE
  2
ISO-25
  9
$DIMCLRD
 70
     0
  9
$DIMCLRE
 70
     0
  9
$DIMCLRT
 70
     0
  9
$DIMTFAC
 40
1.0
  9
$DIMGAP
 40
0.625
  9
$DIMJUST
 70
     0
  9
$DIMSD1
 70
     0
  9
$DIMSD2
 70
     0
  9
$DIMTOLJ
 70
     0
  9
$DIMTZIN
 70
     8
  9
$DIMALTZ
 70
     0
  9
$DIMALTTZ
 70
     0
  9
$DIMUPT
 70
     0
  9
$DIMDEC
 70
     2
  9
$DIMTDEC
 70
     2
  9
$DIMALTU
 70
     2
  9
$DIMALTTD
 70
     3
  9
$DIMTXSTY
  7
Standard
  9
$DIMAUNIT
 70
     0
  9
$DIMADEC
 70
     0
  9
$DIMALTRND
 40
0.0
  9
$DIMAZIN
 70
     0
  9
$DIMDSEP
 70
    44
  9
$DIMATFIT
 70
     3
  9
$DIMFRAC
 70
     0
  9
$DIMLDRBLK
  1

  9
$DIMLUNIT
 70
     2
  9
$DIMLWD
 70
    -2
  9
$DIMLWE
 70
    -2
  9
$DIMTMOVE
 70
     0
  9
$LUNITS
 70
     2
  9
$LUPREC
 70
     4
  9
$SKETCHINC
 40
1.0
  9
$FILLETRAD
 40
1.0
  9
$AUNITS
 70
     0
  9
$AUPREC
 70
     0
  9
$MENU
  1
.
  9
$ELEVATION
 40
0.0
  9
$PELEVATION
 40
0.0
  9
$THICKNESS
 40
0.0
  9
$LIMCHECK
 70
     0
  9
$CHAMFERA
 40
0.0
  9
$CHAMFERB
 40
0.0
  9
$CHAMFERC
 40
0.0
  9
$CHAMFERD
 40
0.0
  9
$SKPOLY
 70
     0
  9
$TDCREATE
 40
2455344.484066841
  9
$TDUCREATE
 40
2455344.067400174
  9
$TDUPDATE
 40
2455345.014505741
  9
$TDUUPDATE
 40
2455344.597839074
  9
$TDINDWG
 40
0.0970835069
  9
$TDUSRTIMER
 40
0.0970816898
  9
$USRTIMER
 70
     1
  9
$ANGBASE
 50
0.0
  9
$ANGDIR
 70
     0
  9
$PDMODE
 70
     0
  9
$PDSIZE
 40
0.0
  9
$PLINEWID
 40
0.0
  9
$SPLFRAME
 70
     0
  9
$SPLINETYPE
 70
     6
  9
$SPLINESEGS
 70
     8
  9
$HANDSEED
  5
5D8
  9
$SURFTAB1
 70
     6
  9
$SURFTAB2
 70
     6
  9
$SURFTYPE
 70
     6
  9
$SURFU
 70
     6
  9
$SURFV
 70
     6
  9
$UCSBASE
  2

  9
$UCSNAME
  2

  9
$UCSORG
 10
0.0
 20
0.0
 30
0.0
  9
$UCSXDIR
 10
1.0
 20
0.0
 30
0.0
  9
$UCSYDIR
 10
0.0
 20
1.0
 30
0.0
  9
$UCSORTHOREF
  2

  9
$UCSORTHOVIEW
 70
     0
  9
$UCSORGTOP
 10
0.0
 20
0.0
 30
0.0
  9
$UCSORGBOTTOM
 10
0.0
 20
0.0
 30
0.0
  9
$UCSORGLEFT
 10
0.0
 20
0.0
 30
0.0
  9
$UCSORGRIGHT
 10
0.0
 20
0.0
 30
0.0
  9
$UCSORGFRONT
 10
0.0
 20
0.0
 30
0.0
  9
$UCSORGBACK
 10
0.0
 20
0.0
 30
0.0
  9
$PUCSBASE
  2

  9
$PUCSNAME
  2

  9
$PUCSORG
 10
0.0
 20
0.0
 30
0.0
  9
$PUCSXDIR
 10
1.0
 20
0.0
 30
0.0
  9
$PUCSYDIR
 10
0.0
 20
1.0
 30
0.0
  9
$PUCSORTHOREF
  2

  9
$PUCSORTHOVIEW
 70
     0
  9
$PUCSORGTOP
 10
0.0
 20
0.0
 30
0.0
  9
$PUCSORGBOTTOM
 10
0.0
 20
0.0
 30
0.0
  9
$PUCSORGLEFT
 10
0.0
 20
0.0
 30
0.0
  9
$PUCSORGRIGHT
 10
0.0
 20
0.0
 30
0.0
  9
$PUCSORGFRONT
 10
0.0
 20
0.0
 30
0.0
  9
$PUCSORGBACK
 10
0.0
 20
0.0
 30
0.0
  9
$USERI1
 70
     0
  9
$USERI2
 70
     0
  9
$USERI3
 70
     0
  9
$USERI4
 70
     0
  9
$USERI5
 70
     0
  9
$USERR1
 40
0.0
  9
$USERR2
 40
0.0
  9
$USERR3
 40
0.0
  9
$USERR4
 40
0.0
  9
$USERR5
 40
0.0
  9
$WORLDVIEW
 70
     1
  9
$SHADEDGE
 70
     3
  9
$SHADEDIF
 70
    70
  9
$TILEMODE
 70
     1
  9
$MAXACTVP
 70
    64
  9
$PINSBASE
 10
0.0
 20
0.0
 30
0.0
  9
$PLIMCHECK
 70
     0
  9
$PEXTMIN
 10
0.0
 20
0.0
 30
0.0
  9
$PEXTMAX
 10
0.0
 20
0.0
 30
0.0
  9
$PLIMMIN
 10
0.0
 20
0.0
  9
$PLIMMAX
 10
12.0
 20
9.0
  9
$UNITMODE
 70
     0
  9
$VISRETAIN
 70
     1
  9
$PLINEGEN
 70
     0
  9
$PSLTSCALE
 70
     1
  9
$TREEDEPTH
 70
  3020
  9
$CMLSTYLE
  2
Standard
  9
$CMLJUST
 70
     0
  9
$CMLSCALE
 40
20.0
  9
$PROXYGRAPHICS
 70
     1
  9
$MEASUREMENT
 70
     1
  9
$CELWEIGHT
370
    -1
  9
$ENDCAPS
280
     0
  9
$JOINSTYLE
280
     0
  9
$LWDISPLAY
290
     0
  9
$INSUNITS
 70
     4
  9
$HYPERLINKBASE
  1

  9
$STYLESHEET
  1

  9
$XEDIT
290
     1
  9
$CEPSNTYPE
380
     0
  9
$PSTYLEMODE
290
     1
  9
$FINGERPRINTGUID
  2
{FDEAD578-A652-11D2-9A35-0060089B3A3F}
  9
$VERSIONGUID
  2
{8B752A0C-FF1D-4EDA-942E-C702F4208468}
  9
$EXTNAMES
290
     1
  9
$PSVPSCALE
 40
0.0
  9
$OLESTARTUP
290
     0
  9
$SORTENTS
280
   127
  9
$INDEXCTL
280
     0
  9
$HIDETEXT
280
     1
  9
$XCLIPFRAME
290
     0
  9
$HALOGAP
280
     0
  9
$OBSCOLOR
 70
   257
  9
$OBSLTYPE
280
     0
  9
$INTERSECTIONDISPLAY
280
     0
  9
$INTERSECTIONCOLOR
 70
   257
  9
$DIMASSOC
280
     2
  9
$PROJECTNAME
  1

  0
ENDSEC
  0
SECTION
  2
CLASSES
  0
CLASS
  1
ACDBDICTIONARYWDFLT
  2
AcDbDictionaryWithDefault
  3
ObjectDBX Classes
 90
        0
 91
        1
280
     0
281
     0
  0
CLASS
  1
DICTIONARYVAR
  2
AcDbDictionaryVar
  3
ObjectDBX Classes
 90
        0
 91
        2
280
     0
281
     0
  0
CLASS
  1
DIMASSOC
  2
AcDbDimAssoc
  3
"AcDbDimAssoc|Product Desc:     AcDim ARX App For Dimension|Company:          Autodesk, Inc.|WEB Address:      www.autodesk.com"
 90
        0
 91
        0
280
     0
281
     0
  0
CLASS
  1
RASTERVARIABLES
  2
AcDbRasterVariables
  3
ISM
 90
        0
 91
        1
280
     0
281
     0
  0
CLASS
  1
IMAGEDEF
  2
AcDbRasterImageDef
  3
ISM
 90
        0
 91
        1
280
     0
281
     0
  0
CLASS
  1
IMAGEDEF_REACTOR
  2
AcDbRasterImageDefReactor
  3
ISM
 90
        1
 91
        1
280
     0
281
     0
  0
CLASS
  1
IMAGE
  2
AcDbRasterImage
  3
ISM
 90
      127
 91
        1
280
     0
281
     1
  0
ENDSEC
  0
SECTION
  2
TABLES
  0
TABLE
  2
VPORT
  5
8
330
0
100
AcDbSymbolTable
 70
    14
  0
VPORT
  5
5D7
330
8
100
AcDbSymbolTableRecord
100
AcDbViewportTableRecord
  2
*Active
 70
     0
 10
0.0
 20
0.0
 11
1.0
 21
1.0
 12
-197.422813407145
 22
917.4329966371537
 13
0.0
 23
0.0
 14
10.0
 24
10.0
 15
10.0
 25
10.0
 16
0.0
 26
0.0
 36
1.0
 17
0.0
 27
0.0
 37
0.0
 40
146.2655736425627
 41
1.975155279503105
 42
50.0
 43
0.0
 44
0.0
 50
0.0
 51
0.0
 71
     0
 72
  1000
 73
     1
 74
     3
 75
     0
 76
     0
 77
     0
 78
     0
281
     0
 65
     1
110
0.0
120
0.0
130
0.0
111
1.0
121
0.0
131
0.0
112
0.0
122
1.0
132
0.0
 79
     0
146
0.0
  0
ENDTAB
  0
TABLE
  2
LTYPE
  5
5
330
0
100
AcDbSymbolTable
 70
     1
  0
LTYPE
  5
14
330
5
100
AcDbSymbolTableRecord
100
AcDbLinetypeTableRecord
  2
ByBlock
 70
     0
  3

 72
    65
 73
     0
 40
0.0
  0
LTYPE
  5
15
330
5
100
AcDbSymbolTableRecord
100
AcDbLinetypeTableRecord
  2
ByLayer
 70
     0
  3

 72
    65
 73
     0
 40
0.0
  0
LTYPE
  5
16
330
5
100
AcDbSymbolTableRecord
100
AcDbLinetypeTableRecord
  2
Continuous
 70
     0
  3
Solid line
 72
    65
 73
     0
 40
0.0
  0
ENDTAB
  0
TABLE
  2
LAYER
  5
2
330
0
100
AcDbSymbolTable
 70
     2
  0
LAYER
  5
10
330
2
100
AcDbSymbolTableRecord
100
AcDbLayerTableRecord
  2
0
 70
     0
 62
     7
  6
Continuous
370
    -3
390
F
  0
LAYER
  5
C1
330
2
100
AcDbSymbolTableRecord
100
AcDbLayerTableRecord
  2
Defpoints
 70
     0
 62
     7
  6
Continuous
290
     0
370
    -3
390
F
  0
ENDTAB
  0
TABLE
  2
STYLE
  5
3
330
0
100
AcDbSymbolTable
 70
     1
  0
STYLE
  5
11
330
3
100
AcDbSymbolTableRecord
100
AcDbTextStyleTableRecord
  2
Standard
 70
     0
 40
0.0
 41
1.0
 50
0.0
 71
     0
 42
2.5
  3
txt
  4

  0
ENDTAB
  0
TABLE
  2
VIEW
  5
6
330
0
100
AcDbSymbolTable
 70
     0
  0
ENDTAB
  0
TABLE
  2
UCS
  5
7
330
0
100
AcDbSymbolTable
 70
     0
  0
ENDTAB
  0
TABLE
  2
APPID
  5
9
330
0
100
AcDbSymbolTable
 70
     2
  0
APPID
  5
12
330
9
100
AcDbSymbolTableRecord
100
AcDbRegAppTableRecord
  2
ACAD
 70
     0
  0
APPID
  5
176
330
9
100
AcDbSymbolTableRecord
100
AcDbRegAppTableRecord
  2
DCO15
 70
     0
  0
ENDTAB
  0
TABLE
  2
DIMSTYLE
  5
A
330
0
100
AcDbSymbolTable
 70
     1
100
AcDbDimStyleTable
 71
     1
340
27
  0
DIMSTYLE
105
27
330
A
100
AcDbSymbolTableRecord
100
AcDbDimStyleTableRecord
  2
ISO-25
 70
     0
 41
2.5
 42
0.625
 43
3.75
 44
1.25
 73
     0
 74
     0
 77
     1
 78
     8
140
2.5
141
2.5
143
0.03937007874016
147
0.625
171
     3
172
     1
271
     2
272
     2
274
     3
278
    44
283
     0
284
     8
340
11
  0
ENDTAB
  0
TABLE
  2
BLOCK_RECORD
  5
1
330
0
100
AcDbSymbolTable
 70
     4
  0
BLOCK_RECORD
  5
1F
330
1
100
AcDbSymbolTableRecord
100
AcDbBlockTableRecord
  2
*Model_Space
340
22
  0
BLOCK_RECORD
  5
50
330
1
100
AcDbSymbolTableRecord
100
AcDbBlockTableRecord
  2
*Paper_Space
340
51
  0
BLOCK_RECORD
  5
55
330
1
100
AcDbSymbolTableRecord
100
AcDbBlockTableRecord
  2
*Paper_Space0
340
56
  0
BLOCK_RECORD
  5
4E6
330
1
100
AcDbSymbolTableRecord
100
AcDbBlockTableRecord
  2
A$C7BF546FB
340
0
  0
BLOCK_RECORD
  5
5B9
330
1
100
AcDbSymbolTableRecord
100
AcDbBlockTableRecord
  2
*D2
340
0
  0
BLOCK_RECORD
  5
5C6
330
1
100
AcDbSymbolTableRecord
100
AcDbBlockTableRecord
  2
*D3
340
0
  0
ENDTAB
  0
ENDSEC
  0
SECTION
  2
BLOCKS
  0
BLOCK
  5
20
330
1F
100
AcDbEntity
  8
0
100
AcDbBlockBegin
  2
*Model_Space
 70
     0
 10
0.0
 20
0.0
 30
0.0
  3
*Model_Space
  1

  0
ENDBLK
  5
21
330
1F
100
AcDbEntity
  8
0
100
AcDbBlockEnd
  0
BLOCK
  5
52
330
50
100
AcDbEntity
 67
     1
  8
0
100
AcDbBlockBegin
  2
*Paper_Space
 70
     0
 10
0.0
 20
0.0
 30
0.0
  3
*Paper_Space
  1

  0
ENDBLK
  5
53
330
50
100
AcDbEntity
 67
     1
  8
0
100
AcDbBlockEnd
  0
BLOCK
  5
57
330
55
100
AcDbEntity
  8
0
100
AcDbBlockBegin
  2
*Paper_Space0
 70
     0
 10
0.0
 20
0.0
 30
0.0
  3
*Paper_Space0
  1

  0
ENDBLK
  5
58
330
55
100
AcDbEntity
  8
0
100
AcDbBlockEnd
  0
BLOCK
  5
4EC
330
4E6
100
AcDbEntity
  8
0
 62
     1
100
AcDbBlockBegin
  2
A$C7BF546FB
 70
     0
 10
0.0
 20
0.0
 30
0.0
  3
A$C7BF546FB
  1

  0
ARC
  5
4E7
330
4E6
100
AcDbEntity
  8
0
 62
     1
100
AcDbCircle
 10
13.15628338900717
 20
17.42971684281133
 30
0.0
 40
17.42978623892205
100
AcDbArc
 50
268.933457915488
 51
270.1629200159177
  0
ARC
  5
4E8
330
4E6
100
AcDbEntity
  8
0
 62
     1
100
AcDbCircle
 10
14.43370239407034
 20
14.34872105653426
 30
0.0
 40
14.43492509959568
100
AcDbArc
 50
94.87956636961948
 51
263.6287397476964
  0
ARC
  5
4E9
330
4E6
100
AcDbEntity
  8
0
 62
     1
100
AcDbCircle
 10
22.1740634625072
 20
15.28355371999396
 30
0.0
 40
16.4649280516583
100
AcDbArc
 50
148.7454279440384
 51
223.8410097439965
  0
ARC
  5
4EA
330
4E6
100
AcDbEntity
  8
0
 62
     1
100
AcDbCircle
 10
13.20404665323292
 20
20.67421678779806
 30
0.0
 40
6.0
100
AcDbArc
 50
89.98282937158837
 51
148.3090391403363
  0
ARC
  5
4EB
330
4E6
100
AcDbEntity
  8
0
 62
     1
100
AcDbCircle
 10
14.62608091667852
 20
8.034920841012308
 30
0.0
 40
6.0
100
AcDbArc
 50
223.8410097439965
 51
256.3077914368031
  0
ENDBLK
  5
4ED
330
4E6
100
AcDbEntity
  8
0
 62
     1
100
AcDbBlockEnd
  0
BLOCK
  5
5C3
330
5B9
100
AcDbEntity
  8
0
 62
     1
100
AcDbBlockBegin
  2
*D2
 70
     1
 10
0.0
 20
0.0
 30
0.0
  3
*D2
  1

  0
LINE
  5
5BA
330
5B9
100
AcDbEntity
  8
0
 62
     0
370
    -2
100
AcDbLine
 10
-292.6994890276419
 20
962.9026583638479
 30
0.0
 11
-317.2513869250843
 21
962.9026583638479
 31
0.0
  0
LINE
  5
5BB
330
5B9
100
AcDbEntity
  8
0
 62
     0
370
    -2
100
AcDbLine
 10
-288.4770957321821
 20
993.8352941049982
 30
0.0
 11
-317.2513869250843
 21
993.8352941049982
 31
0.0
  0
LINE
  5
5BC
330
5B9
100
AcDbEntity
  8
0
 62
     0
370
    -2
100
AcDbLine
 10
-316.0013869250843
 20
965.4026583638479
 30
0.0
 11
-316.0013869250843
 21
991.3352941049982
 31
0.0
  0
SOLID
  5
5BD
330
5B9
100
AcDbEntity
  8
0
 62
     0
100
AcDbTrace
 10
-316.4180535917509
 20
965.4026583638479
 30
0.0
 11
-315.5847202584176
 21
965.4026583638479
 31
0.0
 12
-316.0013869250843
 22
962.9026583638479
 32
0.0
 13
-316.0013869250843
 23
962.9026583638479
 33
0.0
  0
SOLID
  5
5BE
330
5B9
100
AcDbEntity
  8
0
 62
     0
100
AcDbTrace
 10
-316.4180535917509
 20
991.3352941049982
 30
0.0
 11
-315.5847202584176
 21
991.3352941049982
 31
0.0
 12
-316.0013869250843
 22
993.8352941049982
 32
0.0
 13
-316.0013869250843
 23
993.8352941049982
 33
0.0
  0
MTEXT
  5
5BF
330
5B9
100
AcDbEntity
  8
0
 62
     0
100
AcDbMText
 10
-318.0847202584177
 20
978.3689762344229
 30
0.0
 40
2.5
 41
0.0
 71
     5
 72
     1
  1
30,93
 11
0.0000000000000001
 21
1.0
 31
0.0
 73
     1
 44
1.0
  0
POINT
  5
5C0
330
5B9
100
AcDbEntity
  8
Defpoints
 62
     0
100
AcDbPoint
 10
-292.0744890276419
 20
962.9026583638479
 30
0.0
  0
POINT
  5
5C1
330
5B9
100
AcDbEntity
  8
Defpoints
 62
     0
100
AcDbPoint
 10
-287.8520957321821
 20
993.8352941049982
 30
0.0
  0
POINT
  5
5C2
330
5B9
100
AcDbEntity
  8
Defpoints
 62
     0
100
AcDbPoint
 10
-316.0013869250843
 20
993.8352941049982
 30
0.0
  0
ENDBLK
  5
5C4
330
5B9
100
AcDbEntity
  8
0
 62
     1
100
AcDbBlockEnd
  0
BLOCK
  5
5D0
330
5C6
100
AcDbEntity
  8
0
 62
     1
100
AcDbBlockBegin
  2
*D3
 70
     1
 10
0.0
 20
0.0
 30
0.0
  3
*D3
  1

  0
LINE
  5
5C7
330
5C6
100
AcDbEntity
  8
0
 62
     0
370
    -2
100
AcDbLine
 10
-276.5923777211197
 20
1001.490438473957
 30
0.0
 11
-276.5923777211197
 21
1009.145582842916
 31
0.0
  0
LINE
  5
5C8
330
5C6
100
AcDbEntity
  8
0
 62
     0
370
    -2
100
AcDbLine
 10
-39.43459667267644
 20
1001.490438473957
 30
0.0
 11
-39.43459667267644
 21
1009.145582842916
 31
0.0
  0
LINE
  5
5C9
330
5C6
100
AcDbEntity
  8
0
 62
     0
370
    -2
100
AcDbLine
 10
-274.0923777211197
 20
1007.895582842915
 30
0.0
 11
-41.93459667267643
 21
1007.895582842915
 31
0.0
  0
SOLID
  5
5CA
330
5C6
100
AcDbEntity
  8
0
 62
     0
100
AcDbTrace
 10
-274.0923777211197
 20
1008.312249509582
 30
0.0
 11
-274.0923777211197
 21
1007.478916176249
 31
0.0
 12
-276.5923777211197
 22
1007.895582842915
 32
0.0
 13
-276.5923777211197
 23
1007.895582842915
 33
0.0
  0
SOLID
  5
5CB
330
5C6
100
AcDbEntity
  8
0
 62
     0
100
AcDbTrace
 10
-41.93459667267643
 20
1008.312249509582
 30
0.0
 11
-41.93459667267643
 21
1007.478916176249
 31
0.0
 12
-39.43459667267644
 22
1007.895582842915
 32
0.0
 13
-39.43459667267644
 23
1007.895582842915
 33
0.0
  0
MTEXT
  5
5CC
330
5C6
100
AcDbEntity
  8
0
 62
     0
100
AcDbMText
 10
-158.013487196898
 20
1009.978916176249
 30
0.0
 40
2.5
 41
0.0
 71
     5
 72
     1
  1
237,16
 73
     1
 44
1.0
  0
POINT
  5
5CD
330
5C6
100
AcDbEntity
  8
Defpoints
 62
     0
100
AcDbPoint
 10
-276.5923777211197
 20
1000.865438473957
 30
0.0
  0
POINT
  5
5CE
330
5C6
100
AcDbEntity
  8
Defpoints
 62
     0
100
AcDbPoint
 10
-39.43459667267644
 20
1000.865438473957
 30
0.0
  0
POINT
  5
5CF
330
5C6
100
AcDbEntity
  8
Defpoints
 62
     0
100
AcDbPoint
 10
-39.43459667267644
 20
1007.895582842915
 30
0.0
  0
ENDBLK
  5
5D1
330
5C6
100
AcDbEntity
  8
0
 62
     1
100
AcDbBlockEnd
  0
ENDSEC
  0
SECTION
  2
ENTITIES
  0
LWPOLYLINE
  5
2F0
330
1F
100
AcDbEntity
  8
0
 62
     1
100
AcDbPolyline
 90
       15
 70
     0
 43
0.0
 10
-49.02094134770322
 20
975.8515690733476
 10
-49.02094134770322
 20
969.3820786522755
 42
-0.1584168636777723
 10
-49.40305610385507
 20
968.2063034451298
 10
-49.78835237622843
 20
967.6761296927031
 42
-0.126836945292882
 10
-50.78543401396473
 20
967.0470362445136
 42
-0.1343611795104146
 10
-54.40641074600626
 20
966.8897635161298
 42
-0.1407582805099933
 10
-58.49969009692177
 20
969.1440110256069
 42
-0.0918400417460681
 10
-61.07110879124139
 20
972.8661424026416
 42
-0.0685307371228726
 10
-62.3485051196858
 20
978.0149416431683
 42
-0.0474018554772561
 10
-62.21822026629616
 20
983.7216713941723
 42
-0.150034019267609
 10
-60.07370174175139
 20
988.7249004025191
 42
-0.1601885241161458
 10
-55.14077495939091
 20
991.5558171173909
 42
-0.1192394497130257
 10
-50.52271658961399
 20
991.3985443890068
 42
-0.1274450559755792
 10
-46.90173985757247
 20
989.30156707326
 42
-0.3298463758194456
 10
-46.07729165817909
 20
984.8282885330265
 42
3.854471359773924
  0
LWPOLYLINE
  5
2F1
330
1F
100
AcDbEntity
  8
0
 62
     1
100
AcDbPolyline
 90
        8
 70
     0
 43
0.0
 10
-43.48927195810211
 20
992.3402746997165
 10
-45.58207003919597
 20
992.8986513092475
 42
0.1662898390633061
 10
-60.79422343978058
 20
991.8499560770962
 42
0.1650343288373758
 10
-66.73740853272284
 20
986.5791259334439
 42
0.2069828396647538
 10
-68.01389871459196
 20
975.0174449514695
 42
0.1288611036455019
 10
-64.91505765670808
 20
969.5465292435271
 42
0.0809220817655211
 10
-61.63773576158928
 20
966.8120256866798
 42
0.2528799123597174
 10
-43.44349403390242
 20
966.79737254249
 42
0.2528799123597174
  0
LINE
  5
2F3
330
1F
100
AcDbEntity
  8
0
 62
     1
100
AcDbLine
 10
-53.5138864078026
 20
975.8515690733476
 30
0.0
 11
-49.02094134770322
 21
975.8515690733476
 31
0.0
  0
LINE
  5
2F4
330
1F
100
AcDbEntity
  8
0
 62
     1
100
AcDbLine
 10
-53.5138864078026
 20
978.018363425684
 30
0.0
 11
-53.5138864078026
 21
975.8515690733476
 31
0.0
  0
LINE
  5
2F5
330
1F
100
AcDbEntity
  8
0
 62
     1
100
AcDbLine
 10
-40.96463245491759
 20
978.018363425684
 30
0.0
 11
-53.5138864078026
 21
978.018363425684
 31
0.0
  0
LINE
  5
2F6
330
1F
100
AcDbEntity
  8
0
 62
     1
100
AcDbLine
 10
-40.96463245491759
 20
975.5420270230141
 30
0.0
 11
-40.96463245491759
 21
978.018363425684
 31
0.0
  0
LINE
  5
2F7
330
1F
100
AcDbEntity
  8
0
 62
     1
100
AcDbLine
 10
-43.44349403390242
 20
975.5420270230141
 30
0.0
 11
-40.96463245491759
 21
975.5420270230141
 31
0.0
  0
LINE
  5
2F8
330
1F
100
AcDbEntity
  8
0
 62
     1
100
AcDbLine
 10
-43.44349403390242
 20
966.79737254249
 30
0.0
 11
-43.44349403390242
 21
975.5420270230141
 31
0.0
  0
LINE
  5
2F9
330
1F
100
AcDbEntity
  8
0
 62
     1
100
AcDbLine
 10
-43.90828214444082
 20
984.8282885330265
 30
0.0
 11
-46.07729165817909
 21
984.8282885330265
 31
0.0
  0
LINE
  5
2FA
330
1F
100
AcDbEntity
  8
0
 62
     1
100
AcDbLine
 10
-43.48927195810211
 20
992.3402746997165
 30
0.0
 11
-43.90828214444082
 21
984.8282885330265
 31
0.0
  0
LINE
  5
2FD
330
1F
100
AcDbEntity
  8
0
 62
     1
100
AcDbLine
 10
-100.8394088313824
 20
965.7718026848289
 30
0.0
 11
-87.72612118950741
 21
965.7718026848289
 31
0.0
  0
LINE
  5
2FE
330
1F
100
AcDbEntity
  8
0
 62
     1
100
AcDbLine
 10
-101.184495480019
 20
992.6022403876492
 30
0.0
 11
-80.09772518115743
 21
992.6022403876492
 31
0.0
  0
ARC
  5
2FF
330
1F
100
AcDbEntity
  8
0
 62
     1
100
AcDbCircle
 10
-85.00572457355525
 20
988.5696365844749
 30
0.0
 40
2.0
100
AcDbArc
 50
15.20060468066845
 51
89.99999999999836
  0
ARC
  5
300
330
1F
100
AcDbEntity
  8
0
 62
     1
100
AcDbCircle
 10
-85.86565614706415
 20
981.5381316547949
 30
0.0
 40
2.0
100
AcDbArc
 50
270.0
 51
339.4247123698848
  0
ARC
  5
301
330
1F
100
AcDbEntity
  8
0
 62
     1
100
AcDbCircle
 10
-86.02838863494469
 20
975.5559082513567
 30
0.0
 40
2.0
100
AcDbArc
 50
26.58844689085965
 51
90.0
  0
ARC
  5
302
330
1F
100
AcDbEntity
  8
0
 62
     1
100
AcDbCircle
 10
-89.69461764883453
 20
969.300055516995
 30
0.0
 40
2.0
100
AcDbArc
 50
180.0
 51
270.0
  0
ARC
  5
303
330
1F
100
AcDbEntity
  8
0
 62
     1
100
AcDbCircle
 10
-99.3022731860192
 20
969.3000555169948
 30
0.0
 40
2.0
100
AcDbArc
 50
270.0
 51
0.0
  0
ARC
  5
304
330
1F
100
AcDbEntity
  8
0
 62
     1
100
AcDbCircle
 10
-99.3022731860192
 20
988.5696365844749
 30
0.0
 40
2.0
100
AcDbArc
 50
0.0
 51
90.00000000000161
  0
LINE
  5
305
330
1F
100
AcDbEntity
  8
0
 62
     1
100
AcDbLine
 10
-101.184495480019
 20
992.6022403876492
 30
0.0
 11
-101.184495480019
 21
990.569636584475
 31
0.0
  0
LINE
  5
306
330
1F
100
AcDbEntity
  8
0
 62
     1
100
AcDbLine
 10
-99.3022731860193
 20
990.5696365844748
 30
0.0
 11
-101.184495480019
 21
990.5696365844748
 31
0.0
  0
LINE
  5
307
330
1F
100
AcDbEntity
  8
0
 62
     1
100
AcDbLine
 10
-91.69461764883454
 20
977.5559082513566
 30
0.0
 11
-91.69461764883454
 21
969.300055516995
 31
0.0
  0
LINE
  5
308
330
1F
100
AcDbEntity
  8
0
 62
     1
100
AcDbLine
 10
-100.8394088313826
 20
967.3000555169949
 30
0.0
 11
-100.8394088313826
 21
965.7718026848289
 31
0.0
  0
LINE
  5
309
330
1F
100
AcDbEntity
  8
0
 62
     1
100
AcDbLine
 10
-99.3022731860192
 20
967.3000555169947
 30
0.0
 11
-100.8394088313826
 21
967.3000555169949
 31
0.0
  0
LINE
  5
30A
330
1F
100
AcDbEntity
  8
0
 62
     1
100
AcDbLine
 10
-87.72612118950746
 20
967.3000555169949
 30
0.0
 11
-89.69461764883453
 21
967.300055516995
 31
0.0
  0
LINE
  5
30B
330
1F
100
AcDbEntity
  8
0
 62
     1
100
AcDbLine
 10
-87.72612118950746
 20
965.7718026848289
 30
0.0
 11
-87.72612118950746
 21
967.3000555169949
 31
0.0
  0
LINE
  5
30C
330
1F
100
AcDbEntity
  8
0
 62
     1
100
AcDbLine
 10
-83.15372559823391
 20
983.0716594488702
 30
0.0
 11
-83.99323374252572
 21
980.8352558912472
 31
0.0
  0
LINE
  5
30D
330
1F
100
AcDbEntity
  8
0
 62
     1
100
AcDbLine
 10
-82.03219148699554
 20
983.0716594488702
 30
0.0
 11
-83.15372559823391
 21
983.0716594488702
 31
0.0
  0
LINE
  5
30E
330
1F
100
AcDbEntity
  8
0
 62
     1
100
AcDbLine
 10
-83.06745143290754
 20
974.1085612182571
 30
0.0
 11
-84.23989962552241
 21
976.4510658146804
 31
0.0
  0
LINE
  5
30F
330
1F
100
AcDbEntity
  8
0
 62
     1
100
AcDbLine
 10
-82.03219148699554
 20
974.1085612182571
 30
0.0
 11
-83.06745143290754
 21
974.1085612182571
 31
0.0
  0
LINE
  5
310
330
1F
100
AcDbEntity
  8
0
 62
     1
100
AcDbLine
 10
-82.03219148699554
 20
983.0716594488702
 30
0.0
 11
-82.03219148699554
 21
974.1085612182571
 31
0.0
  0
LINE
  5
311
330
1F
100
AcDbEntity
  8
0
 62
     1
100
AcDbLine
 10
-82.11846565232281
 20
985.5709851607382
 30
0.0
 11
-83.07569711883354
 21
989.0940353106561
 31
0.0
  0
LINE
  5
312
330
1F
100
AcDbEntity
  8
0
 62
     1
100
AcDbLine
 10
-80.39303240913705
 20
985.7433517519973
 30
0.0
 11
-82.11846565232281
 21
985.5709851607382
 31
0.0
  0
LINE
  5
313
330
1F
100
AcDbEntity
  8
0
 62
     1
100
AcDbLine
 10
-80.09772518115756
 20
992.6022403876491
 30
0.0
 11
-80.39303240913705
 21
985.7433517519973
 31
0.0
  0
LINE
  5
314
330
1F
100
AcDbEntity
  8
0
 62
     1
100
AcDbLine
 10
-91.69461764883449
 20
990.569636584475
 30
0.0
 11
-85.00572457355525
 21
990.5696365844748
 31
0.0
  0
LINE
  5
315
330
1F
100
AcDbEntity
  8
0
 62
     1
100
AcDbLine
 10
-91.69461764883454
 20
979.5381316547949
 30
0.0
 11
-85.86565614706415
 21
979.5381316547947
 31
0.0
  0
LINE
  5
316
330
1F
100
AcDbEntity
  8
0
 62
     1
100
AcDbLine
 10
-91.69461764883454
 20
977.5559082513566
 30
0.0
 11
-86.02838863494469
 21
977.5559082513566
 31
0.0
  0
LINE
  5
317
330
1F
100
AcDbEntity
  8
0
 62
     1
100
AcDbLine
 10
-91.69461764883449
 20
990.569636584475
 30
0.0
 11
-91.69461764883454
 21
979.5381316547951
 31
0.0
  0
LINE
  5
318
330
1F
100
AcDbEntity
  8
0
 62
     1
100
AcDbLine
 10
-97.30227318601919
 20
988.5696365844749
 30
0.0
 11
-97.30227318601919
 21
969.3000555169948
 31
0.0
  0
LINE
  5
319
330
1F
100
AcDbEntity
  8
0
 62
     1
100
AcDbLine
 10
-133.1665934016955
 20
967.5047009233187
 30
0.0
 11
-133.1665934016955
 21
965.7718026848289
 31
0.0
  0
ARC
  5
31A
330
1F
100
AcDbEntity
  8
0
 62
     1
100
AcDbCircle
 10
-122.2373850026033
 20
969.504700923319
 30
0.0
 40
2.0
100
AcDbArc
 50
180.0
 51
269.9999999999984
  0
ARC
  5
31B
330
1F
100
AcDbEntity
  8
0
 62
     1
100
AcDbCircle
 10
-131.4185308641181
 20
969.5047009233187
 30
0.0
 40
2.0
100
AcDbArc
 50
270.0000000000017
 51
0.0
  0
ARC
  5
31C
330
1F
100
AcDbEntity
  8
0
 62
     1
100
AcDbCircle
 10
-115.825212196273
 20
969.5047009233187
 30
0.0
 40
2.0
100
AcDbArc
 50
269.9999999999984
 51
316.8407408626972
  0
ARC
  5
31D
330
1F
100
AcDbEntity
  8
0
 62
     1
100
AcDbCircle
 10
-118.405262829538
 20
975.8564243998105
 30
0.0
 40
2.0
100
AcDbArc
 50
16.71536094971953
 51
90.0
  0
ARC
  5
31E
330
1F
100
AcDbEntity
  8
0
 62
     1
100
AcDbCircle
 10
-118.3581154345178
 20
981.7285449805071
 30
0.0
 40
2.0
100
AcDbArc
 50
270.0
 51
339.8447792828882
  0
ARC
  5
31F
330
1F
100
AcDbEntity
  8
0
 62
     1
100
AcDbCircle
 10
-117.4308467228179
 20
988.5207659261894
 30
0.0
 40
2.0
100
AcDbArc
 50
11.64518283554306
 51
90.0
  0
ARC
  5
320
330
1F
100
AcDbEntity
  8
0
 62
     1
100
AcDbCircle
 10
-131.418530864118
 20
988.5722574164168
 30
0.0
 40
2.0
100
AcDbArc
 50
0.0
 51
89.99999999999836
  0
LINE
  5
321
330
1F
100
AcDbEntity
  8
0
 62
     1
100
AcDbLine
 10
-131.418530864118
 20
990.5722574164167
 30
0.0
 11
-133.1665934016956
 21
990.5722574164167
 31
0.0
  0
LINE
  5
322
330
1F
100
AcDbEntity
  8
0
 62
     1
100
AcDbLine
 10
-124.2373850026033
 20
977.8564243998102
 30
0.0
 11
-124.2373850026033
 21
969.504700923319
 31
0.0
  0
LINE
  5
323
330
1F
100
AcDbEntity
  8
0
 62
     1
100
AcDbLine
 10
-122.2373850026033
 20
967.5047009233189
 30
0.0
 11
-115.825212196273
 21
967.5047009233187
 31
0.0
  0
LINE
  5
324
330
1F
100
AcDbEntity
  8
0
 62
     1
100
AcDbLine
 10
-111.7199016366896
 20
973.0196488727957
 30
0.0
 11
-110.5276348101556
 21
972.7384288887401
 31
0.0
  0
ARC
  5
325
330
1F
100
AcDbEntity
  8
0
 62
     1
100
AcDbCircle
 10
-121.0075776086306
 20
972.3399199916743
 30
0.0
 40
10.48751688438924
100
AcDbArc
 50
321.2238355698072
 51
2.177672405785298
  0
ARC
  5
326
330
1F
100
AcDbEntity
  8
0
 62
     1
100
AcDbCircle
 10
-122.3473878002693
 20
975.6207099614199
 30
0.0
 40
10.94115994508046
100
AcDbArc
 50
316.8407408626972
 51
346.2472950798639
  0
LINE
  5
327
330
1F
100
AcDbEntity
  8
0
 62
     1
100
AcDbLine
 10
-116.1900724932156
 20
975.4336807152974
 30
0.0
 11
-116.4897719909127
 21
976.4316590016402
 31
0.0
  0
LINE
  5
328
330
1F
100
AcDbEntity
  8
0
 62
     1
100
AcDbLine
 10
-114.4262757074721
 20
975.4336807152974
 30
0.0
 11
-116.1900724932156
 21
975.4336807152974
 31
0.0
  0
LINE
  5
329
330
1F
100
AcDbEntity
  8
0
 62
     1
100
AcDbLine
 10
-114.2058017350464
 20
983.0322861380556
 30
0.0
 11
-114.4262757074721
 21
975.4336807152974
 31
0.0
  0
LINE
  5
32A
330
1F
100
AcDbEntity
  8
0
 62
     1
100
AcDbLine
 10
-115.7491245483634
 20
983.0322861380556
 30
0.0
 11
-114.2058017350464
 21
983.0322861380556
 31
0.0
  0
LINE
  5
32B
330
1F
100
AcDbEntity
  8
0
 62
     1
100
AcDbLine
 10
-116.4805902294989
 20
981.0394157440653
 30
0.0
 11
-115.7491245483634
 21
983.0322861380556
 31
0.0
  0
LINE
  5
32C
330
1F
100
AcDbEntity
  8
0
 62
     1
100
AcDbLine
 10
-114.7569891692783
 20
985.4550298225683
 30
0.0
 11
-115.47201396853
 21
988.9244666082905
 31
0.0
  0
LINE
  5
32D
330
1F
100
AcDbEntity
  8
0
 62
     1
100
AcDbLine
 10
-113.3239058453418
 20
985.3449067225977
 30
0.0
 11
-114.7569891692783
 21
985.4550298225683
 31
0.0
  0
LINE
  5
32E
330
1F
100
AcDbEntity
  8
0
 62
     1
100
AcDbLine
 10
-112.9203094846946
 20
992.6022403876491
 30
0.0
 11
-113.3239058453418
 21
985.3449067225977
 31
0.0
  0
LINE
  5
32F
330
1F
100
AcDbEntity
  8
0
 62
     1
100
AcDbLine
 10
-124.2373850026033
 20
990.5207659261892
 30
0.0
 11
-117.4308467228179
 21
990.5207659261895
 31
0.0
  0
LINE
  5
330
330
1F
100
AcDbEntity
  8
0
 62
     1
100
AcDbLine
 10
-124.2373850026033
 20
979.728544980507
 30
0.0
 11
-118.3581154345178
 21
979.7285449805071
 31
0.0
  0
LINE
  5
331
330
1F
100
AcDbEntity
  8
0
 62
     1
100
AcDbLine
 10
-124.2373850026033
 20
977.8564243998102
 30
0.0
 11
-118.4052628295381
 21
977.8564243998104
 31
0.0
  0
LINE
  5
332
330
1F
100
AcDbEntity
  8
0
 62
     1
100
AcDbLine
 10
-124.2373850026033
 20
990.5207659261893
 30
0.0
 11
-124.2373850026033
 21
979.7285449805071
 31
0.0
  0
LINE
  5
333
330
1F
100
AcDbEntity
  8
0
 62
     1
100
AcDbLine
 10
-133.1665934016955
 20
967.5047009233187
 30
0.0
 11
-131.418530864118
 21
967.5047009233187
 31
0.0
  0
LINE
  5
334
330
1F
100
AcDbEntity
  8
0
 62
     1
100
AcDbLine
 10
-129.418530864118
 20
988.5722574164168
 30
0.0
 11
-129.4185308641181
 21
969.5047009233187
 31
0.0
  0
LINE
  5
335
330
1F
100
AcDbEntity
  8
0
 62
     1
100
AcDbLine
 10
-133.1665934016955
 20
992.6022403876491
 30
0.0
 11
-133.1665934016956
 21
990.5722574164165
 31
0.0
  0
LINE
  5
336
330
1F
100
AcDbEntity
  8
0
 62
     1
100
AcDbLine
 10
-133.1665934016955
 20
965.7718026848289
 30
0.0
 11
-112.8315244383127
 21
965.7718026848289
 31
0.0
  0
LINE
  5
337
330
1F
100
AcDbEntity
  8
0
 62
     1
100
AcDbLine
 10
-133.1665934016956
 20
992.6022403876491
 30
0.0
 11
-112.9203094846945
 21
992.6022403876492
 31
0.0
  0
ARC
  5
338
330
1F
100
AcDbEntity
  8
0
 62
     1
100
AcDbCircle
 10
-156.1838372865698
 20
986.602240387649
 30
0.0
 40
6.0
100
AcDbArc
 50
75.34601091223381
 51
90.0
  0
ARC
  5
339
330
1F
100
AcDbEntity
  8
0
 62
     1
100
AcDbCircle
 10
-156.2284256848072
 20
971.7718026848288
 30
0.0
 40
6.0
100
AcDbArc
 50
270.0
 51
284.3094652931458
  0
ARC
  5
33A
330
1F
100
AcDbEntity
  8
0
 62
     1
100
AcDbCircle
 10
-157.105014749653
 20
970.5001208040556
 30
0.0
 40
3.0
100
AcDbArc
 50
270.0000000000017
 51
308.3884186362205
  0
ARC
  5
33B
330
1F
100
AcDbEntity
  8
0
 62
     1
100
AcDbCircle
 10
-158.7987765703723
 20
987.5706022875405
 30
0.0
 40
3.0
100
AcDbArc
 50
62.94445480436177
 51
89.99999999999674
  0
ARC
  5
33C
330
1F
100
AcDbEntity
  8
0
 62
     1
100
AcDbCircle
 10
-161.0034468803005
 20
988.5706022875405
 30
0.0
 40
2.0
100
AcDbArc
 50
90.0
 51
180.0
  0
ARC
  5
33D
330
1F
100
AcDbEntity
  8
0
 62
     1
100
AcDbCircle
 10
-170.5778703679625
 20
969.5001208040556
 30
0.0
 40
2.0
100
AcDbArc
 50
270.0
 51
0.0
  0
ARC
  5
33E
330
1F
100
AcDbEntity
  8
0
 62
     1
100
AcDbCircle
 10
-170.5778703679625
 20
988.5706022875403
 30
0.0
 40
2.0
100
AcDbArc
 50
0.0
 51
90.00000000000161
  0
ARC
  5
33F
330
1F
100
AcDbEntity
  8
0
 62
     1
100
AcDbCircle
 10
-160.0034468803005
 20
970.5001208040556
 30
0.0
 40
3.0
100
AcDbArc
 50
180.0
 51
270.0
  0
LINE
  5
340
330
1F
100
AcDbEntity
  8
0
 62
     1
100
AcDbLine
 10
-172.55960357615
 20
990.5706022875405
 30
0.0
 11
-172.55960357615
 21
992.6022403876492
 31
0.0
  0
LINE
  5
341
330
1F
100
AcDbEntity
  8
0
 62
     1
100
AcDbLine
 10
-168.5778703679625
 20
988.5706022875403
 30
0.0
 11
-168.5778703679625
 21
969.5001208040556
 31
0.0
  0
LINE
  5
342
330
1F
100
AcDbEntity
  8
0
 62
     1
100
AcDbLine
 10
-170.5778703679625
 20
967.5001208040557
 30
0.0
 11
-172.55960357615
 21
967.5001208040557
 31
0.0
  0
LINE
  5
343
330
1F
100
AcDbEntity
  8
0
 62
     1
100
AcDbLine
 10
-170.5778703679626
 20
990.5706022875405
 30
0.0
 11
-172.55960357615
 21
990.5706022875405
 31
0.0
  0
LINE
  5
344
330
1F
100
AcDbEntity
  8
0
 62
     1
100
AcDbLine
 10
-172.55960357615
 20
965.7718026848291
 30
0.0
 11
-172.55960357615
 21
967.5001208040557
 31
0.0
  0
LINE
  5
345
330
1F
100
AcDbEntity
  8
0
 62
     1
100
AcDbLine
 10
-157.1050147496529
 20
967.5001208040558
 30
0.0
 11
-160.0034468803005
 21
967.5001208040557
 31
0.0
  0
LINE
  5
346
330
1F
100
AcDbEntity
  8
0
 62
     1
100
AcDbLine
 10
-158.7987765703721
 20
990.5706022875405
 30
0.0
 11
-161.0034468803005
 21
990.5706022875405
 31
0.0
  0
ARC
  5
347
330
1F
100
AcDbEntity
  8
0
 62
     1
100
AcDbCircle
 10
-163.4360481984847
 20
978.4912147273471
 30
0.0
 40
13.19507560644042
100
AcDbArc
 50
308.3884186362205
 51
62.94445480436177
  0
ARC
  5
348
330
1F
100
AcDbEntity
  8
0
 62
     1
100
AcDbCircle
 10
-158.12131464428
 20
979.1927796231602
 30
0.0
 40
13.65858520433939
100
AcDbArc
 50
284.3094652931458
 51
75.34601091223381
  0
LINE
  5
349
330
1F
100
AcDbEntity
  8
0
 62
     1
100
AcDbLine
 10
-163.0034468803005
 20
988.5706022875405
 30
0.0
 11
-163.0034468803005
 21
970.5001208040556
 31
0.0
  0
LINE
  5
34A
330
1F
100
AcDbEntity
  8
0
 62
     1
100
AcDbLine
 10
-172.55960357615
 20
965.7718026848289
 30
0.0
 11
-156.2284256848072
 21
965.7718026848289
 31
0.0
  0
LINE
  5
34B
330
1F
100
AcDbEntity
  8
0
 62
     1
100
AcDbLine
 10
-172.55960357615
 20
992.6022403876492
 30
0.0
 11
-156.1838372865698
 21
992.6022403876492
 31
0.0
  0
ARC
  5
34C
330
1F
100
AcDbEntity
  8
0
 62
     1
100
AcDbCircle
 10
-193.6058052582589
 20
979.5192060661134
 30
0.0
 40
13.71925119097108
100
AcDbArc
 50
128.751061771782
 51
179.9615351366272
  0
ARC
  5
34D
330
1F
100
AcDbEntity
  8
0
 62
     1
100
AcDbCircle
 10
-194.1500615165562
 20
978.3509378713757
 30
0.0
 40
13.22750413063715
100
AcDbArc
 50
174.8929167684756
 51
237.8253064859804
  0
ARC
  5
34E
330
1F
100
AcDbEntity
  8
0
 62
     1
100
AcDbCircle
 10
-192.1907720983995
 20
980.4830754646976
 30
0.0
 40
16.0840388414082
100
AcDbArc
 50
235.9618018368956
 51
297.6664897625077
  0
ARC
  5
34F
330
1F
100
AcDbEntity
  8
0
 62
     1
100
AcDbCircle
 10
-191.5372466714986
 20
978.5712155954929
 30
0.0
 40
15.78632851553342
100
AcDbArc
 50
57.81161618835234
 51
132.4550674117625
  0
LWPOLYLINE
  5
350
330
1F
100
AcDbEntity
  8
0
 62
     1
100
AcDbPolyline
 90
        9
 70
     0
 43
0.0
 10
-185.0159549766076
 20
984.8691142004202
 10
-185.3854775447571
 20
987.3608460897573
 42
0.2946250872333538
 10
-188.684096387552
 20
991.1198110545836
 42
0.2373177518694951
 10
-196.970796801741
 20
989.9435872553979
 42
0.1373725030387421
 10
-200.3756600788511
 20
984.9106318282776
 42
0.111461252634387
 10
-201.2415857609658
 20
976.0929847011205
 42
0.125477708914228
 10
-199.6104518375796
 20
971.3277571419915
 42
0.161805990323267
 10
-195.43295091855
 20
967.5735547914966
 42
0.4652744555362401
 10
-183.630056356913
 20
972.5469965493806
 42
0.7671632833809916
  0
LINE
  5
351
330
1F
100
AcDbEntity
  8
0
 62
     1
100
AcDbLine
 10
-183.6537813769037
 20
985.0419877224219
 30
0.0
 11
-183.1277951603311
 21
991.9312041165085
 31
0.0
  0
LINE
  5
352
330
1F
100
AcDbEntity
  8
0
 62
     1
100
AcDbLine
 10
-182.0597744314109
 20
972.3181654773044
 30
0.0
 11
-184.7225647337441
 21
966.2379996765372
 31
0.0
  0
ARC
  5
356
330
1F
100
AcDbEntity
  8
0
 62
     1
100
AcDbCircle
 10
-225.6505747405237
 20
974.9138494374498
 30
0.0
 40
5.757656810692121
100
AcDbArc
 50
31.8323213932362
 51
89.90126147894232
  0
ARC
  5
357
330
1F
100
AcDbEntity
  8
0
 62
     1
100
AcDbCircle
 10
-227.5825545685955
 20
974.3036802252218
 30
0.0
 40
7.737094005739685
100
AcDbArc
 50
344.1628112477321
 51
28.12263985582941
  0
ARC
  5
358
330
1F
100
AcDbEntity
  8
0
 62
     1
100
AcDbCircle
 10
-229.4156713625453
 20
975.5302132264937
 30
0.0
 40
9.858813227811531
100
AcDbArc
 50
264.462043451225
 51
340.2094583448076
  0
ARC
  5
35A
330
1F
100
AcDbEntity
  8
0
 62
     1
100
AcDbCircle
 10
-227.2846170078548
 20
986.6022403876494
 30
0.0
 40
6.0
100
AcDbArc
 50
69.61575344166917
 51
90.0
  0
ARC
  5
35B
330
1F
100
AcDbEntity
  8
0
 62
     1
100
AcDbCircle
 10
-228.7400649731882
 20
982.6853627600314
 30
0.0
 40
10.17854749040415
100
AcDbArc
 50
66.01136580412134
 51
69.61575344166917
  0
ARC
  5
35C
330
1F
100
AcDbEntity
  8
0
 62
     1
100
AcDbCircle
 10
-227.1329520393684
 20
986.2969254375098
 30
0.0
 40
6.225549013879671
100
AcDbArc
 50
13.3341008947956
 51
66.01136580412134
  0
ARC
  5
35D
330
1F
100
AcDbEntity
  8
0
 62
     1
100
AcDbCircle
 10
-226.8871675445554
 20
986.48392193799
 30
0.0
 40
5.944583693031202
100
AcDbArc
 50
282.1041396020386
 51
12.12661575540983
  0
ARC
  5
35F
330
1F
100
AcDbEntity
  8
0
 62
     1
100
AcDbCircle
 10
-232.6338206926025
 20
977.7852537777942
 30
0.0
 40
1.0
100
AcDbArc
 50
90.0
 51
180.0
  0
ARC
  5
360
330
1F
100
AcDbEntity
  8
0
 62
     1
100
AcDbCircle
 10
-232.6338206926025
 20
982.0200572333797
 30
0.0
 40
1.0
100
AcDbArc
 50
180.0
 51
270.0
  0
ARC
  5
361
330
1F
100
AcDbEntity
  8
0
 62
     1
100
AcDbCircle
 10
-232.6338206926025
 20
990.164314096793
 30
0.0
 40
1.0
100
AcDbArc
 50
89.99999999999511
 51
180.0
  0
LINE
  5
362
330
1F
100
AcDbEntity
  8
0
 62
     1
100
AcDbLine
 10
-233.6338206926025
 20
982.0200572333797
 30
0.0
 11
-233.6338206926025
 21
990.164314096793
 31
0.0
  0
ARC
  5
363
330
1F
100
AcDbEntity
  8
0
 62
     1
100
AcDbCircle
 10
-230.7701953743531
 20
988.1643140967929
 30
0.0
 40
3.0
100
AcDbArc
 50
59.65250595302192
 51
89.99999999999511
  0
ARC
  5
364
330
1F
100
AcDbEntity
  8
0
 62
     1
100
AcDbCircle
 10
-229.9986995409212
 20
984.0200572333797
 30
0.0
 40
3.0
100
AcDbArc
 50
270.0
 51
321.4384570534472
  0
ARC
  5
365
330
1F
100
AcDbEntity
  8
0
 62
     1
100
AcDbCircle
 10
-229.8182674859339
 20
975.7852537777939
 30
0.0
 40
3.0
100
AcDbArc
 50
62.69594932517574
 51
90.0
  0
ARC
  5
366
330
1F
100
AcDbEntity
  8
0
 62
     1
100
AcDbCircle
 10
-229.4544627959478
 20
970.3224856378499
 30
0.0
 40
3.0
100
AcDbArc
 50
270.0000000000033
 51
304.924267458853
  0
LINE
  5
368
330
1F
100
AcDbEntity
  8
0
 62
     1
100
AcDbLine
 10
-229.4544627959477
 20
967.3224856378498
 30
0.0
 11
-231.6338206926025
 21
967.3224856378499
 31
0.0
  0
LINE
  5
369
330
1F
100
AcDbEntity
  8
0
 62
     1
100
AcDbLine
 10
-229.8182674859339
 20
978.785253777794
 30
0.0
 11
-232.6338206926025
 21
978.7852537777942
 31
0.0
  0
LINE
  5
36A
330
1F
100
AcDbEntity
  8
0
 62
     1
100
AcDbLine
 10
-229.9986995409212
 20
981.0200572333798
 30
0.0
 11
-232.6338206926025
 21
981.0200572333798
 31
0.0
  0
ARC
  5
36B
330
1F
100
AcDbEntity
  8
0
 62
     1
100
AcDbCircle
 10
-241.891578735469
 20
970.3224856378499
 30
0.0
 40
3.0
100
AcDbArc
 50
270.0
 51
0.0
  0
ARC
  5
36C
330
1F
100
AcDbEntity
  8
0
 62
     1
100
AcDbCircle
 10
-241.891578735469
 20
988.1643140967929
 30
0.0
 40
3.0
100
AcDbArc
 50
0.0
 51
90.00000000000325
  0
LINE
  5
36D
330
1F
100
AcDbEntity
  8
0
 62
     1
100
AcDbLine
 10
-232.6338206926024
 20
991.164314096793
 30
0.0
 11
-230.7701953743528
 21
991.1643140967928
 31
0.0
  0
LINE
  5
36E
330
1F
100
AcDbEntity
  8
0
 62
     1
100
AcDbLine
 10
-242.7810409401341
 20
967.3224856378499
 30
0.0
 11
-242.7810409401341
 21
965.7174161540822
 31
0.0
  0
LINE
  5
36F
330
1F
100
AcDbEntity
  8
0
 62
     1
100
AcDbLine
 10
-233.6338206926026
 20
969.3224856378499
 30
0.0
 11
-233.6338206926025
 21
977.7852537777942
 31
0.0
  0
LINE
  5
370
330
1F
100
AcDbEntity
  8
0
 62
     1
100
AcDbLine
 10
-238.891578735469
 20
988.1643140967929
 30
0.0
 11
-238.891578735469
 21
970.3224856378499
 31
0.0
  0
ARC
  5
371
330
1F
100
AcDbEntity
  8
0
 62
     1
100
AcDbCircle
 10
-232.1789367949804
 20
985.7581231075455
 30
0.0
 40
5.788244513473818
100
AcDbArc
 50
321.4384570534472
 51
59.65250595302192
  0
ARC
  5
372
330
1F
100
AcDbEntity
  8
0
 62
     1
100
AcDbCircle
 10
-231.2849621010614
 20
972.9440778787301
 30
0.0
 40
6.197416704698579
100
AcDbArc
 50
304.924267458853
 51
62.69594932517574
  0
LINE
  5
373
330
1F
100
AcDbEntity
  8
0
 62
     1
100
AcDbLine
 10
-242.7810409401341
 20
967.3224856378499
 30
0.0
 11
-241.891578735469
 21
967.3224856378499
 31
0.0
  0
LINE
  5
374
330
1F
100
AcDbEntity
  8
0
 62
     1
100
AcDbLine
 10
-242.7810409401341
 20
991.164314096793
 30
0.0
 11
-241.8915787354692
 21
991.164314096793
 31
0.0
  0
LINE
  5
375
330
1F
100
AcDbEntity
  8
0
 62
     1
100
AcDbLine
 10
-242.7810409401341
 20
965.7174161540822
 30
0.0
 11
-230.3670975953916
 21
965.7174161540824
 31
0.0
  0
LINE
  5
376
330
1F
100
AcDbEntity
  8
0
 62
     1
100
AcDbLine
 10
-242.7810409401341
 20
992.6022403876492
 30
0.0
 11
-242.7810409401341
 21
991.164314096793
 31
0.0
  0
LINE
  5
377
330
1F
100
AcDbEntity
  8
0
 62
     1
100
AcDbLine
 10
-242.7810409401341
 20
992.6022403876492
 30
0.0
 11
-227.2846170078548
 21
992.6022403876492
 31
0.0
  0
ARC
  5
378
330
1F
100
AcDbEntity
  8
0
 62
     1
100
AcDbCircle
 10
-277.9322387822745
 20
970.3598157504352
 30
0.0
 40
3.0
100
AcDbArc
 50
269.9999999999984
 51
340.394017351257
  0
ARC
  5
379
330
1F
100
AcDbEntity
  8
0
 62
     1
100
AcDbCircle
 10
-252.0173882252521
 20
970.359815750435
 30
0.0
 40
3.0
100
AcDbArc
 50
199.4635443456681
 51
270.0
  0
ARC
  5
37A
330
1F
100
AcDbEntity
  8
0
 62
     1
100
AcDbCircle
 10
-262.488038108016
 20
969.3598157504352
 30
0.0
 40
2.0
100
AcDbArc
 50
270.0000000000017
 51
19.46354434566811
  0
ARC
  5
37B
330
1F
100
AcDbEntity
  8
0
 62
     1
100
AcDbCircle
 10
-270.3410466953709
 20
969.359815750435
 30
0.0
 40
2.0
100
AcDbArc
 50
160.394017351257
 51
269.9999999999968
  0
LINE
  5
37C
330
1F
100
AcDbEntity
  8
0
 62
     1
100
AcDbLine
 10
-263.3071986837931
 20
965.7174161540822
 30
0.0
 11
-250.4364431968743
 21
965.7174161540822
 31
0.0
  0
LINE
  5
37D
330
1F
100
AcDbEntity
  8
0
 62
     1
100
AcDbLine
 10
-269.223725612967
 20
967.3598157504349
 30
0.0
 11
-270.3410466953711
 21
967.3598157504351
 31
0.0
  0
LINE
  5
37E
330
1F
100
AcDbEntity
  8
0
 62
     1
100
AcDbLine
 10
-270.1728065199857
 20
975.7924977281552
 30
0.0
 11
-272.2250915370361
 21
970.0309156197503
 31
0.0
  0
LINE
  5
37F
330
1F
100
AcDbEntity
  8
0
 62
     1
100
AcDbLine
 10
-262.6401452359472
 20
975.7924977281552
 30
0.0
 11
-260.6023307240991
 21
970.0262297825812
 31
0.0
  0
LINE
  5
380
330
1F
100
AcDbEntity
  8
0
 62
     1
100
AcDbLine
 10
-269.3647010610076
 20
978.061171872083
 30
0.0
 11
-263.441900745193
 21
978.0611718720832
 31
0.0
  0
LINE
  5
381
330
1F
100
AcDbEntity
  8
0
 62
     1
100
AcDbLine
 10
-270.1728065199857
 20
975.7924977281552
 30
0.0
 11
-262.6401452359472
 21
975.7924977281552
 31
0.0
  0
LINE
  5
382
330
1F
100
AcDbEntity
  8
0
 62
     1
100
AcDbLine
 10
-263.3071986837931
 20
965.7174161540822
 30
0.0
 11
-263.3071986837931
 21
967.3598157504351
 31
0.0
  0
LINE
  5
383
330
1F
100
AcDbEntity
  8
0
 62
     1
100
AcDbLine
 10
-269.223725612967
 20
965.7174161540822
 30
0.0
 11
-269.223725612967
 21
967.3598157504351
 31
0.0
  0
LINE
  5
384
330
1F
100
AcDbEntity
  8
0
 62
     1
100
AcDbLine
 10
-277.9322387822745
 20
967.3598157504351
 30
0.0
 11
-279.3923058679543
 21
967.3598157504351
 31
0.0
  0
LINE
  5
385
330
1F
100
AcDbEntity
  8
0
 62
     1
100
AcDbLine
 10
-262.4880381080159
 20
967.3598157504351
 30
0.0
 11
-263.3071986837931
 21
967.3598157504351
 31
0.0
  0
LINE
  5
386
330
1F
100
AcDbEntity
  8
0
 62
     1
100
AcDbLine
 10
-266.3916199303259
 20
986.4077957118807
 30
0.0
 11
-263.4419007451929
 21
978.061171872083
 31
0.0
  0
LINE
  5
387
330
1F
100
AcDbEntity
  8
0
 62
     1
100
AcDbLine
 10
-266.3916199303259
 20
986.4077957118807
 30
0.0
 11
-269.3647010610076
 21
978.0611718720832
 31
0.0
  0
LINE
  5
388
330
1F
100
AcDbEntity
  8
0
 62
     1
100
AcDbLine
 10
-266.8248129904359
 20
992.6022403876492
 30
0.0
 11
-275.1061715197768
 21
969.3531659464621
 31
0.0
  0
LINE
  5
389
330
1F
100
AcDbEntity
  8
0
 62
     1
100
AcDbLine
 10
-279.3923058679543
 20
965.7174161540822
 30
0.0
 11
-279.3923058679543
 21
967.3598157504351
 31
0.0
  0
LINE
  5
38A
330
1F
100
AcDbEntity
  8
0
 62
     1
100
AcDbLine
 10
-250.4364431968743
 20
967.3598157504351
 30
0.0
 11
-252.0173882252521
 21
967.3598157504351
 31
0.0
  0
LINE
  5
38B
330
1F
100
AcDbEntity
  8
0
 62
     1
100
AcDbLine
 10
-263.0597503991439
 20
992.6022403876492
 30
0.0
 11
-254.8459493011273
 21
969.3601947022157
 31
0.0
  0
LINE
  5
38C
330
1F
100
AcDbEntity
  8
0
 62
     1
100
AcDbLine
 10
-266.8248129904359
 20
992.6022403876492
 30
0.0
 11
-263.0597503991439
 21
992.6022403876492
 31
0.0
  0
LINE
  5
38D
330
1F
100
AcDbEntity
  8
0
 62
     1
100
AcDbLine
 10
-250.4364431968743
 20
965.7174161540822
 30
0.0
 11
-250.4364431968743
 21
967.3598157504351
 31
0.0
  0
LINE
  5
38E
330
1F
100
AcDbEntity
  8
0
 62
     1
100
AcDbLine
 10
-279.3923058679543
 20
965.7174161540822
 30
0.0
 11
-269.223725612967
 21
965.7174161540822
 31
0.0
  0
LINE
  5
38F
330
1F
100
AcDbEntity
  8
0
 62
     1
100
AcDbLine
 10
-185.0159549766076
 20
984.8691142004202
 30
0.0
 11
-183.6537813769037
 21
985.0419877224219
 31
0.0
  0
LINE
  5
390
330
1F
100
AcDbEntity
  8
0
 62
     1
100
AcDbLine
 10
-183.630056356913
 20
972.5469965493806
 30
0.0
 11
-182.0597744314109
 21
972.3181654773044
 31
0.0
  0
ARC
  5
395
330
1F
100
AcDbEntity
  8
0
 62
     1
100
AcDbCircle
 10
-231.6338206926026
 20
969.3224856378499
 30
0.0
 40
2.0
100
AcDbArc
 50
179.9999999999997
 51
270.0000000000015
  0
LINE
  5
397
330
1F
100
AcDbEntity
  8
0
 62
     1
100
AcDbLine
 10
-151.4702435672079
 20
937.7067440831977
 30
0.0
 11
-138.7003003695063
 21
937.7067440831977
 31
0.0
  0
LINE
  5
398
330
1F
100
AcDbEntity
  8
0
 62
     1
100
AcDbLine
 10
-45.65289465573914
 20
937.7067440831977
 30
0.0
 11
-45.65289465573914
 21
936.5390417898032
 31
0.0
  0
LINE
  5
39A
330
1F
100
AcDbEntity
  8
0
 62
     1
100
AcDbLine
 10
-273.262105516108
 20
911.4403126607163
 30
0.0
 11
-273.262105516108
 21
912.824236123953
 31
0.0
  0
LINE
  5
39B
330
1F
100
AcDbEntity
  8
0
 62
     1
100
AcDbLine
 10
-261.0134669410081
 20
912.824236123953
 30
0.0
 11
-261.0134669410081
 21
911.4403126607163
 31
0.0
  0
LINE
  5
39C
330
1F
100
AcDbEntity
  8
0
 62
     1
100
AcDbLine
 10
-255.8375426865523
 20
912.824236123953
 30
0.0
 11
-255.8375426865523
 21
911.4403126607163
 31
0.0
  0
LINE
  5
39D
330
1F
100
AcDbEntity
  8
0
 62
     1
100
AcDbLine
 10
-243.6589026827742
 20
937.7067440831977
 30
0.0
 11
-243.6589026827742
 21
936.5390417898032
 31
0.0
  0
LINE
  5
39E
330
1F
100
AcDbEntity
  8
0
 62
     1
100
AcDbLine
 10
-233.3070541738625
 20
937.7067440831975
 30
0.0
 11
-233.3070541738625
 21
936.5390417898032
 31
0.0
  0
LINE
  5
39F
330
1F
100
AcDbEntity
  8
0
 62
     1
100
AcDbLine
 10
-221.0269207473684
 20
937.7067440831975
 30
0.0
 11
-221.0269207473684
 21
936.5390417898034
 31
0.0
  0
LINE
  5
3A0
330
1F
100
AcDbEntity
  8
0
 62
     1
100
AcDbLine
 10
-269.842984197865
 20
934.539041789803
 30
0.0
 11
-269.842984197865
 21
914.8242361239528
 31
0.0
  0
LINE
  5
3A1
330
1F
100
AcDbEntity
  8
0
 62
     1
100
AcDbLine
 10
-264.3625946942648
 20
934.5390417898034
 30
0.0
 11
-264.3625946942648
 21
926.7955875816044
 31
0.0
  0
LINE
  5
3A2
330
1F
100
AcDbEntity
  8
0
 62
     1
100
AcDbLine
 10
-252.0824612677707
 20
934.5390417898034
 30
0.0
 11
-252.0824612677707
 21
926.7955875816042
 31
0.0
  0
LINE
  5
3A3
330
1F
100
AcDbEntity
  8
0
 62
     1
100
AcDbLine
 10
-246.906537013314
 20
934.539041789803
 30
0.0
 11
-246.906537013314
 21
914.8242361239532
 31
0.0
  0
LINE
  5
3A4
330
1F
100
AcDbEntity
  8
0
 62
     1
100
AcDbLine
 10
-229.8564380042244
 20
934.5390417898034
 30
0.0
 11
-229.8564380042244
 21
914.8242361239528
 31
0.0
  0
LINE
  5
3A5
330
1F
100
AcDbEntity
  8
0
 62
     1
100
AcDbLine
 10
-224.5790253333871
 20
934.5390417898034
 30
0.0
 11
-224.5790253333871
 21
914.8242361239526
 31
0.0
  0
LINE
  5
3A6
330
1F
100
AcDbEntity
  8
0
 62
     1
100
AcDbLine
 10
-206.4817012385301
 20
934.539041789803
 30
0.0
 11
-206.2786743424217
 21
908.744297820537
 31
0.0
  0
LINE
  5
3A7
330
1F
100
AcDbEntity
  8
0
 62
     1
100
AcDbLine
 10
-201.2042885676929
 20
934.5390417898032
 30
0.0
 11
-201.1977903452953
 21
911.8635972965268
 31
0.0
  0
ARC
  5
3AA
330
1F
100
AcDbEntity
  8
0
 62
     1
100
AcDbCircle
 10
-210.1243881245146
 20
908.8171570985476
 30
0.0
 40
3.995604713688697
100
AcDbArc
 50
204.7995943830675
 51
316.5638793376519
  0
ARC
  5
3AB
330
1F
100
AcDbEntity
  8
0
 62
     1
100
AcDbCircle
 10
-209.9640784766803
 20
908.5417939381303
 30
0.0
 40
3.690963486029072
100
AcDbArc
 50
317.9569560836672
 51
3.145099284797646
  0
ARC
  5
3AC
330
1F
100
AcDbEntity
  8
0
 62
     1
100
AcDbCircle
 10
-212.1952690569194
 20
904.7625921197214
 30
0.0
 40
2.84249507194564
100
AcDbArc
 50
123.1953061349057
 51
257.9885158601444
  0
ARC
  5
3AD
330
1F
100
AcDbEntity
  8
0
 62
     1
100
AcDbCircle
 10
-211.3416924239704
 20
912.0495044829095
 30
0.0
 40
10.14560549517373
100
AcDbArc
 50
299.0004092930119
 51
358.950058393732
  0
LINE
  5
3AE
330
1F
100
AcDbEntity
  8
0
 62
     1
100
AcDbLine
 10
-151.4702435672079
 20
936.5390417898028
 30
0.0
 11
-149.9242867601615
 21
936.539041789803
 31
0.0
  0
LINE
  5
3AF
330
1F
100
AcDbEntity
  8
0
 62
     1
100
AcDbLine
 10
-121.1457881109836
 20
912.7479278391982
 30
0.0
 11
-118.9067588231323
 21
912.7479278391984
 31
0.0
  0
LINE
  5
3B0
330
1F
100
AcDbEntity
  8
0
 62
     1
100
AcDbLine
 10
-49.6035885889878
 20
910.8593446826205
 30
0.0
 11
-53.41815007638416
 21
910.8593446826205
 31
0.0
  0
LINE
  5
3B1
330
1F
100
AcDbEntity
  8
0
 62
     1
100
AcDbLine
 10
-187.7506352507726
 20
912.8242361239529
 30
0.0
 11
-187.7506352507726
 21
911.4403126607165
 31
0.0
  0
LINE
  5
3B2
330
1F
100
AcDbEntity
  8
0
 62
     1
100
AcDbLine
 10
-175.5467332822627
 20
937.7067440831975
 30
0.0
 11
-175.5467332822627
 21
936.5390417898026
 31
0.0
  0
LINE
  5
3B3
330
1F
100
AcDbEntity
  8
0
 62
     1
100
AcDbLine
 10
-172.5533256324779
 20
937.7067440831975
 30
0.0
 11
-172.5533256324779
 21
936.539041789803
 31
0.0
  0
LINE
  5
3B4
330
1F
100
AcDbEntity
  8
0
 62
     1
100
AcDbLine
 10
-161.5007404601429
 20
937.7067440831977
 30
0.0
 11
-161.5007404601429
 21
936.5390417898028
 31
0.0
  0
LINE
  5
3B5
330
1F
100
AcDbEntity
  8
0
 62
     1
100
AcDbLine
 10
-158.9678555237597
 20
912.5722489063667
 30
0.0
 11
-158.9678555237597
 21
911.4403126607165
 31
0.0
  0
LINE
  5
3B6
330
1F
100
AcDbEntity
  8
0
 62
     1
100
AcDbLine
 10
-210.137907547627
 20
937.7067440831975
 30
0.0
 11
-210.137907547627
 21
936.5390417898032
 31
0.0
  0
LINE
  5
3B7
330
1F
100
AcDbEntity
  8
0
 62
     1
100
AcDbLine
 10
-197.369376136302
 20
937.7067440831975
 30
0.0
 11
-197.369376136302
 21
936.5390417898032
 31
0.0
  0
LINE
  5
3B8
330
1F
100
AcDbEntity
  8
0
 62
     1
100
AcDbLine
 10
-164.619600177314
 20
935.8842920056842
 30
0.0
 11
-172.9931975558977
 21
926.672142227555
 31
0.0
  0
LINE
  5
3BA
330
1F
100
AcDbEntity
  8
0
 62
     1
100
AcDbLine
 10
-168.7182794181147
 20
934.8559026584256
 30
0.0
 11
-177.1006017459536
 21
926.9630589770375
 31
0.0
  0
LINE
  5
3BB
330
1F
100
AcDbEntity
  8
0
 62
     1
100
AcDbLine
 10
-177.0094231588173
 20
922.7092387488822
 30
0.0
 11
-167.8710706621059
 21
911.4403126607166
 31
0.0
  0
LINE
  5
3BC
330
1F
100
AcDbEntity
  8
0
 62
     1
100
AcDbLine
 10
-184.2628770842367
 20
934.539041789803
 30
0.0
 11
-184.2628770842367
 21
914.8242361239528
 31
0.0
  0
LINE
  5
3BD
330
1F
100
AcDbEntity
  8
0
 62
     1
100
AcDbLine
 10
-178.7861321922746
 20
934.5390417898029
 30
0.0
 11
-178.7861321922745
 21
927.6911029366766
 31
0.0
  0
LINE
  5
3BE
330
1F
100
AcDbEntity
  8
0
 62
     1
100
AcDbLine
 10
-151.1911153778164
 20
912.8242361239529
 30
0.0
 11
-151.1911153778164
 21
911.4403126607163
 31
0.0
  0
LINE
  5
3BF
330
1F
100
AcDbEntity
  8
0
 62
     1
100
AcDbLine
 10
-138.7003003695063
 20
937.7067440831977
 30
0.0
 11
-138.7003003695063
 21
936.5390417898028
 31
0.0
  0
LINE
  5
3C0
330
1F
100
AcDbEntity
  8
0
 62
     1
100
AcDbLine
 10
-147.9242867601615
 20
934.539041789803
 30
0.0
 11
-147.9242867601615
 21
914.8242361239528
 31
0.0
  0
LINE
  5
3C1
330
1F
100
AcDbEntity
  8
0
 62
     1
100
AcDbLine
 10
-142.6397100244139
 20
934.5390417898029
 30
0.0
 11
-142.6397100244139
 21
914.824236123953
 31
0.0
  0
LINE
  5
3C2
330
1F
100
AcDbEntity
  8
0
 62
     1
100
AcDbLine
 10
-119.6287185166629
 20
937.7067440831977
 30
0.0
 11
-119.6287185166629
 21
936.5390417898028
 31
0.0
  0
LINE
  5
3C3
330
1F
100
AcDbEntity
  8
0
 62
     1
100
AcDbLine
 10
-84.96893243467912
 20
937.7067440831975
 30
0.0
 11
-84.96893243467907
 21
936.539041789803
 31
0.0
  0
LINE
  5
3C4
330
1F
100
AcDbEntity
  8
0
 62
     1
100
AcDbLine
 10
-84.81628929066392
 20
912.7479278391986
 30
0.0
 11
-84.81628929066397
 21
910.8593446826203
 31
0.0
  0
LINE
  5
3C5
330
1F
100
AcDbEntity
  8
0
 62
     1
100
AcDbLine
 10
-121.1457881109836
 20
912.7479278391982
 30
0.0
 11
-121.1457881109836
 21
910.8593446826203
 31
0.0
  0
LINE
  5
3C9
330
1F
100
AcDbEntity
  8
0
 62
     1
100
AcDbLine
 10
-110.016882182809
 20
937.7067440831975
 30
0.0
 11
-103.1250000377985
 21
922.4070775365035
 31
0.0
  0
LINE
  5
3CA
330
1F
100
AcDbEntity
  8
0
 62
     1
100
AcDbLine
 10
-101.3030281082606
 20
922.4036377693213
 30
0.0
 11
-94.33997034116066
 21
937.7067440831977
 31
0.0
  0
LINE
  5
3CB
330
1F
100
AcDbEntity
  8
0
 62
     1
100
AcDbLine
 10
-115.2882477075381
 20
934.3753553572922
 30
0.0
 11
-116.9134683897504
 21
914.5842414066876
 31
0.0
  0
LINE
  5
3CC
330
1F
100
AcDbEntity
  8
0
 62
     1
100
AcDbLine
 10
-114.2019595924043
 20
914.8165874304847
 30
0.0
 11
-113.5992792837333
 21
932.3618437540215
 31
0.0
  0
LINE
  5
3CD
330
1F
100
AcDbEntity
  8
0
 62
     1
100
AcDbLine
 10
-113.5992792837333
 20
932.3618437540215
 30
0.0
 11
-104.7778886616256
 21
910.8593446826207
 31
0.0
  0
LINE
  5
3CF
330
1F
100
AcDbEntity
  8
0
 62
     1
100
AcDbLine
 10
-103.4802418500596
 20
910.8593446826203
 30
0.0
 11
-94.26473469614029
 21
931.7786199341187
 31
0.0
  0
LINE
  5
3D0
330
1F
100
AcDbEntity
  8
0
 62
     1
100
AcDbLine
 10
-94.26473469614029
 20
931.7786199341187
 30
0.0
 11
-94.26473469614029
 21
914.7479278391985
 31
0.0
  0
LINE
  5
3D1
330
1F
100
AcDbEntity
  8
0
 62
     1
100
AcDbLine
 10
-88.69262519184252
 20
914.6847608518724
 30
0.0
 11
-89.31800970757899
 21
934.4758748024764
 31
0.0
  0
LINE
  5
3D2
330
1F
100
AcDbEntity
  8
0
 62
     1
100
AcDbLine
 10
-76.02710807222496
 20
937.7067440831975
 30
0.0
 11
-76.02710807222496
 21
936.5390417898032
 31
0.0
  0
LINE
  5
3D3
330
1F
100
AcDbEntity
  8
0
 62
     1
100
AcDbLine
 10
-56.69488642391752
 20
937.7067440831977
 30
0.0
 11
-56.69488642391752
 21
936.539041789803
 31
0.0
  0
LINE
  5
3D4
330
1F
100
AcDbEntity
  8
0
 62
     1
100
AcDbLine
 10
-76.02710807222502
 20
912.7479278391987
 30
0.0
 11
-76.02710807222502
 21
910.8593446826205
 31
0.0
  0
LINE
  5
3D5
330
1F
100
AcDbEntity
  8
0
 62
     1
100
AcDbLine
 10
-64.79922108516888
 20
912.7479278391989
 30
0.0
 11
-64.79922108516894
 21
910.8593446826205
 31
0.0
  0
LINE
  5
3D6
330
1F
100
AcDbEntity
  8
0
 62
     1
100
AcDbLine
 10
-71.80609709859982
 20
934.539041789803
 30
0.0
 11
-71.80609709859982
 21
914.7479278391989
 31
0.0
  0
LINE
  5
3D7
330
1F
100
AcDbEntity
  8
0
 62
     1
100
AcDbLine
 10
-69.69559161178676
 20
928.9720941448846
 30
0.0
 11
-69.69559161178672
 21
914.7479278391987
 31
0.0
  0
LINE
  5
3D8
330
1F
100
AcDbEntity
  8
0
 62
     1
100
AcDbLine
 10
-67.90466355504839
 20
929.5840032958736
 30
0.0
 11
-53.41815007638422
 21
910.8593446826205
 31
0.0
  0
LINE
  5
3D9
330
1F
100
AcDbEntity
  8
0
 62
     1
100
AcDbLine
 10
-49.6035885889878
 20
910.8593446826203
 30
0.0
 11
-49.60358858898776
 21
934.539041789803
 31
0.0
  0
LINE
  5
3DA
330
1F
100
AcDbEntity
  8
0
 62
     1
100
AcDbLine
 10
-51.96735453396377
 20
934.539041789803
 30
0.0
 11
-51.96735453396377
 21
921.3427680627095
 31
0.0
  0
LINE
  5
3DB
330
1F
100
AcDbEntity
  8
0
 62
     1
100
AcDbLine
 10
-53.74852719964123
 20
920.7184530249294
 30
0.0
 11
-67.3256095014957
 21
937.7067440831975
 31
0.0
  0
LINE
  5
3DE
330
1F
100
AcDbEntity
  8
0
 62
     1
100
AcDbLine
 10
-56.69488642391752
 20
937.7067440831977
 30
0.0
 11
-45.65289465573914
 21
937.7067440831977
 31
0.0
  0
LINE
  5
3DF
330
1F
100
AcDbEntity
  8
0
 62
     1
100
AcDbLine
 10
-56.69488642391752
 20
936.539041789803
 30
0.0
 11
-53.96735453396377
 21
936.539041789803
 31
0.0
  0
LINE
  5
3E1
330
1F
100
AcDbEntity
  8
0
 62
     1
100
AcDbLine
 10
-64.79922108516894
 20
910.8593446826205
 30
0.0
 11
-76.02710807222502
 21
910.8593446826203
 31
0.0
  0
LINE
  5
3E2
330
1F
100
AcDbEntity
  8
0
 62
     1
100
AcDbLine
 10
-84.81628929066397
 20
910.8593446826205
 30
0.0
 11
-97.40540868650715
 21
910.8593446826205
 31
0.0
  0
LINE
  5
3E3
330
1F
100
AcDbEntity
  8
0
 62
     1
100
AcDbLine
 10
-76.02710807222507
 20
912.7479278391987
 30
0.0
 11
-73.80609709859976
 21
912.7479278391989
 31
0.0
  0
LINE
  5
3E4
330
1F
100
AcDbEntity
  8
0
 62
     1
100
AcDbLine
 10
-67.69559161178673
 20
912.7479278391987
 30
0.0
 11
-64.79922108516888
 21
912.7479278391987
 31
0.0
  0
LINE
  5
3E5
330
1F
100
AcDbEntity
  8
0
 62
     1
100
AcDbLine
 10
-76.02710807222496
 20
936.5390417898032
 30
0.0
 11
-73.80609709859982
 21
936.5390417898032
 31
0.0
  0
LINE
  5
3E6
330
1F
100
AcDbEntity
  8
0
 62
     1
100
AcDbLine
 10
-76.02710807222507
 20
937.7067440831975
 30
0.0
 11
-67.32560950149576
 21
937.7067440831977
 31
0.0
  0
LINE
  5
3E7
330
1F
100
AcDbEntity
  8
0
 62
     1
100
AcDbLine
 10
-47.60358858898776
 20
936.5390417898032
 30
0.0
 11
-45.65289465573914
 21
936.5390417898032
 31
0.0
  0
LINE
  5
3E8
330
1F
100
AcDbEntity
  8
0
 62
     1
100
AcDbLine
 10
-87.31900747353519
 20
936.5390417898028
 30
0.0
 11
-84.96893243467912
 21
936.539041789803
 31
0.0
  0
LINE
  5
3E9
330
1F
100
AcDbEntity
  8
0
 62
     1
100
AcDbLine
 10
-94.33997034116073
 20
937.7067440831975
 30
0.0
 11
-84.96893243467912
 21
937.7067440831977
 31
0.0
  0
LINE
  5
3EA
330
1F
100
AcDbEntity
  8
0
 62
     1
100
AcDbLine
 10
-86.69362295779867
 20
912.7479278391989
 30
0.0
 11
-84.81628929066387
 21
912.7479278391987
 31
0.0
  0
LINE
  5
3EB
330
1F
100
AcDbEntity
  8
0
 62
     1
100
AcDbLine
 10
-97.40540868650715
 20
912.7479278391986
 30
0.0
 11
-96.26473469614023
 21
912.7479278391986
 31
0.0
  0
LINE
  5
3EC
330
1F
100
AcDbEntity
  8
0
 62
     1
100
AcDbLine
 10
-97.40540868650715
 20
910.8593446826205
 30
0.0
 11
-97.40540868650709
 21
912.7479278391986
 31
0.0
  0
LINE
  5
3ED
330
1F
100
AcDbEntity
  8
0
 62
     1
100
AcDbLine
 10
-109.7411975355007
 20
912.7479278391982
 30
0.0
 11
-109.7411975355007
 21
910.8593446826203
 31
0.0
  0
LINE
  5
3EE
330
1F
100
AcDbEntity
  8
0
 62
     1
100
AcDbLine
 10
-103.4802418500595
 20
910.8593446826207
 30
0.0
 11
-104.7778886616255
 21
910.8593446826205
 31
0.0
  0
LINE
  5
3EF
330
1F
100
AcDbEntity
  8
0
 62
     1
100
AcDbLine
 10
-109.7411975355007
 20
910.8593446826203
 30
0.0
 11
-121.1457881109837
 21
910.8593446826203
 31
0.0
  0
LINE
  5
3F0
330
1F
100
AcDbEntity
  8
0
 62
     1
100
AcDbLine
 10
-112.2031384747142
 20
912.7479278391986
 30
0.0
 11
-109.7411975355007
 21
912.7479278391984
 31
0.0
  0
LINE
  5
3F1
330
1F
100
AcDbEntity
  8
0
 62
     1
100
AcDbLine
 10
-119.6287185166629
 20
936.539041789803
 30
0.0
 11
-117.28153814092
 21
936.539041789803
 31
0.0
  0
LINE
  5
3F2
330
1F
100
AcDbEntity
  8
0
 62
     1
100
AcDbLine
 10
-119.6287185166629
 20
937.7067440831977
 30
0.0
 11
-110.016882182809
 21
937.7067440831977
 31
0.0
  0
LINE
  5
3F4
330
1F
100
AcDbEntity
  8
0
 62
     1
100
AcDbLine
 10
-151.1911153778164
 20
911.4403126607163
 30
0.0
 11
-132.9180978589432
 21
911.4403126607163
 31
0.0
  0
LINE
  5
3F5
330
1F
100
AcDbEntity
  8
0
 62
     1
100
AcDbLine
 10
-175.5467332822627
 20
911.4403126607163
 30
0.0
 11
-187.7506352507725
 21
911.4403126607163
 31
0.0
  0
LINE
  5
3F6
330
1F
100
AcDbEntity
  8
0
 62
     1
100
AcDbLine
 10
-151.1911153778164
 20
912.8242361239529
 30
0.0
 11
-149.9242867601615
 21
912.8242361239529
 31
0.0
  0
ARC
  5
3F7
330
1F
100
AcDbEntity
  8
0
 62
     1
100
AcDbCircle
 10
-139.8972002848115
 20
920.8557976516248
 30
0.0
 40
9.899226634600131
100
AcDbArc
 50
310.220632234439
 51
355.3982562854868
  0
ARC
  5
3F8
330
1F
100
AcDbEntity
  8
0
 62
     1
100
AcDbCircle
 10
-140.6891704553369
 20
919.5876015044488
 30
0.0
 40
11.9085180237351
100
AcDbArc
 50
321.6543231808253
 51
0.2792953543480845
  0
LINE
  5
3F9
330
1F
100
AcDbEntity
  8
0
 62
     1
100
AcDbLine
 10
-130.029884428386
 20
920.0615900259306
 30
0.0
 11
-128.7807939161531
 21
919.6456508165876
 31
0.0
  0
LINE
  5
3FB
330
1F
100
AcDbEntity
  8
0
 62
     1
100
AcDbLine
 10
-140.639710024414
 20
912.824236123953
 30
0.0
 11
-134.7964114279078
 21
912.8242361239527
 31
0.0
  0
LINE
  5
3FD
330
1F
100
AcDbEntity
  8
0
 62
     1
100
AcDbLine
 10
-151.4702435672079
 20
937.7067440831977
 30
0.0
 11
-151.4702435672079
 21
936.5390417898028
 31
0.0
  0
LINE
  5
3FE
330
1F
100
AcDbEntity
  8
0
 62
     1
100
AcDbLine
 10
-140.6397100244139
 20
936.5390417898028
 30
0.0
 11
-138.7003003695063
 21
936.5390417898028
 31
0.0
  0
LINE
  5
400
330
1F
100
AcDbEntity
  8
0
 62
     1
100
AcDbLine
 10
-167.8710706621059
 20
911.4403126607165
 30
0.0
 11
-158.9678555237597
 21
911.4403126607163
 31
0.0
  0
ARC
  5
401
330
1F
100
AcDbEntity
  8
0
 62
     1
100
AcDbCircle
 10
-126.633967737445
 20
955.368475942909
 30
0.0
 40
55.25542723254342
100
AcDbArc
 50
212.7728024290246
 51
228.8606445535869
  0
ARC
  5
402
330
1F
100
AcDbEntity
  8
0
 62
     1
100
AcDbCircle
 10
-158.4835570213367
 20
921.6349474491495
 30
0.0
 40
9.075629450170966
100
AcDbArc
 50
240.2567200813123
 51
266.9410996334363
  0
LINE
  5
403
330
1F
100
AcDbEntity
  8
0
 62
     1
100
AcDbLine
 10
-175.5467332822627
 20
912.8242361239529
 30
0.0
 11
-175.5467332822627
 21
911.4403126607163
 31
0.0
  0
LINE
  5
404
330
1F
100
AcDbEntity
  8
0
 62
     1
100
AcDbLine
 10
-161.5007404601429
 20
937.7067440831977
 30
0.0
 11
-172.5533256324779
 21
937.7067440831977
 31
0.0
  0
LINE
  5
405
330
1F
100
AcDbEntity
  8
0
 62
     1
100
AcDbLine
 10
-161.5007404601429
 20
936.5390417898028
 30
0.0
 11
-163.1396333342155
 21
936.5390417898028
 31
0.0
  0
LINE
  5
406
330
1F
100
AcDbEntity
  8
0
 62
     1
100
AcDbLine
 10
-175.5467332822627
 20
912.8242361239529
 30
0.0
 11
-176.7861321922746
 21
912.8242361239527
 31
0.0
  0
LINE
  5
407
330
1F
100
AcDbEntity
  8
0
 62
     1
100
AcDbLine
 10
-186.2628770842366
 20
912.8242361239529
 30
0.0
 11
-187.7506352507725
 21
912.8242361239529
 31
0.0
  0
LINE
  5
408
330
1F
100
AcDbEntity
  8
0
 62
     1
100
AcDbLine
 10
-169.4485676674936
 20
936.5390417898032
 30
0.0
 11
-172.5533256324779
 21
936.539041789803
 31
0.0
  0
LINE
  5
409
330
1F
100
AcDbEntity
  8
0
 62
     1
100
AcDbLine
 10
-175.5467332822627
 20
937.7067440831977
 30
0.0
 11
-187.8743267614054
 21
937.7067440831977
 31
0.0
  0
LINE
  5
40A
330
1F
100
AcDbEntity
  8
0
 62
     1
100
AcDbLine
 10
-175.5467332822628
 20
936.539041789803
 30
0.0
 11
-176.7861321922745
 21
936.5390417898028
 31
0.0
  0
LINE
  5
40B
330
1F
100
AcDbEntity
  8
0
 62
     1
100
AcDbLine
 10
-186.2628770842367
 20
936.539041789803
 30
0.0
 11
-187.8743267614054
 21
936.539041789803
 31
0.0
  0
LINE
  5
40C
330
1F
100
AcDbEntity
  8
0
 62
     1
100
AcDbLine
 10
-187.8743267614054
 20
937.7067440831975
 30
0.0
 11
-187.8743267614054
 21
936.539041789803
 31
0.0
  0
LINE
  5
40D
330
1F
100
AcDbEntity
  8
0
 62
     1
100
AcDbLine
 10
-197.369376136302
 20
937.7067440831975
 30
0.0
 11
-210.137907547627
 21
937.7067440831975
 31
0.0
  0
LINE
  5
40E
330
1F
100
AcDbEntity
  8
0
 62
     1
100
AcDbLine
 10
-197.369376136302
 20
936.5390417898032
 30
0.0
 11
-199.2042885676928
 21
936.5390417898032
 31
0.0
  0
LINE
  5
40F
330
1F
100
AcDbEntity
  8
0
 62
     1
100
AcDbLine
 10
-208.48170123853
 20
936.5390417898032
 30
0.0
 11
-210.137907547627
 21
936.5390417898032
 31
0.0
  0
LINE
  5
411
330
1F
100
AcDbEntity
  8
0
 62
     1
100
AcDbLine
 10
-221.0269207473684
 20
911.4403126607165
 30
0.0
 11
-233.3070541738625
 21
911.4403126607165
 31
0.0
  0
LINE
  5
412
330
1F
100
AcDbEntity
  8
0
 62
     1
100
AcDbLine
 10
-221.0269207473684
 20
937.7067440831975
 30
0.0
 11
-233.3070541738625
 21
937.7067440831977
 31
0.0
  0
LINE
  5
413
330
1F
100
AcDbEntity
  8
0
 62
     1
100
AcDbLine
 10
-221.0269207473684
 20
936.5390417898032
 30
0.0
 11
-222.5790253333871
 21
936.5390417898034
 31
0.0
  0
LINE
  5
414
330
1F
100
AcDbEntity
  8
0
 62
     1
100
AcDbLine
 10
-221.0269207473684
 20
912.8242361239527
 30
0.0
 11
-222.5790253333871
 21
912.8242361239527
 31
0.0
  0
LINE
  5
416
330
1F
100
AcDbEntity
  8
0
 62
     1
100
AcDbLine
 10
-231.8564380042245
 20
912.8242361239527
 30
0.0
 11
-233.3070541738625
 21
912.8242361239529
 31
0.0
  0
LINE
  5
417
330
1F
100
AcDbEntity
  8
0
 62
     1
100
AcDbLine
 10
-243.6589026827742
 20
912.824236123953
 30
0.0
 11
-244.906537013314
 21
912.824236123953
 31
0.0
  0
LINE
  5
418
330
1F
100
AcDbEntity
  8
0
 62
     1
100
AcDbLine
 10
-243.6589026827742
 20
911.4403126607165
 30
0.0
 11
-255.8375426865523
 21
911.4403126607165
 31
0.0
  0
LINE
  5
419
330
1F
100
AcDbEntity
  8
0
 62
     1
100
AcDbLine
 10
-261.0134669410081
 20
911.4403126607163
 30
0.0
 11
-273.262105516108
 21
911.4403126607165
 31
0.0
  0
LINE
  5
41A
330
1F
100
AcDbEntity
  8
0
 62
     1
100
AcDbLine
 10
-261.0134669410081
 20
912.824236123953
 30
0.0
 11
-262.3625946942648
 21
912.824236123953
 31
0.0
  0
LINE
  5
41B
330
1F
100
AcDbEntity
  8
0
 62
     1
100
AcDbLine
 10
-273.262105516108
 20
936.5390417898032
 30
0.0
 11
-273.262105516108
 21
937.7067440831975
 31
0.0
  0
LINE
  5
41C
330
1F
100
AcDbEntity
  8
0
 62
     1
100
AcDbLine
 10
-243.6589026827742
 20
936.5390417898032
 30
0.0
 11
-244.906537013314
 21
936.5390417898032
 31
0.0
  0
LINE
  5
41D
330
1F
100
AcDbEntity
  8
0
 62
     1
100
AcDbLine
 10
-243.6589026827742
 20
937.7067440831977
 30
0.0
 11
-255.8375426865523
 21
937.7067440831977
 31
0.0
  0
LINE
  5
41E
330
1F
100
AcDbEntity
  8
0
 62
     1
100
AcDbLine
 10
-233.3070541738625
 20
912.8242361239529
 30
0.0
 11
-233.3070541738625
 21
911.4403126607163
 31
0.0
  0
LINE
  5
41F
330
1F
100
AcDbEntity
  8
0
 62
     1
100
AcDbLine
 10
-221.0269207473684
 20
912.8242361239527
 30
0.0
 11
-221.0269207473684
 21
911.4403126607165
 31
0.0
  0
LINE
  5
420
330
1F
100
AcDbEntity
  8
0
 62
     1
100
AcDbLine
 10
-231.8564380042244
 20
936.5390417898034
 30
0.0
 11
-233.3070541738625
 21
936.5390417898032
 31
0.0
  0
LINE
  5
421
330
1F
100
AcDbEntity
  8
0
 62
     1
100
AcDbLine
 10
-254.0824612677706
 20
936.5390417898035
 30
0.0
 11
-255.8375426865523
 21
936.5390417898034
 31
0.0
  0
LINE
  5
422
330
1F
100
AcDbEntity
  8
0
 62
     1
100
AcDbLine
 10
-254.0824612677707
 20
912.824236123953
 30
0.0
 11
-255.8375426865523
 21
912.824236123953
 31
0.0
  0
LINE
  5
423
330
1F
100
AcDbEntity
  8
0
 62
     1
100
AcDbLine
 10
-271.8429841978649
 20
912.8242361239529
 30
0.0
 11
-273.262105516108
 21
912.824236123953
 31
0.0
  0
LINE
  5
425
330
1F
100
AcDbEntity
  8
0
 62
     1
100
AcDbLine
 10
-263.3625946942648
 20
923.4822446207539
 30
0.0
 11
-253.0824612677707
 21
923.4822446207537
 31
0.0
  0
LINE
  5
426
330
1F
100
AcDbEntity
  8
0
 62
     1
100
AcDbLine
 10
-253.0824612677707
 20
925.7955875816042
 30
0.0
 11
-263.3625946942648
 21
925.7955875816044
 31
0.0
  0
LINE
  5
427
330
1F
100
AcDbEntity
  8
0
 62
     1
100
AcDbLine
 10
-264.3625946942648
 20
922.4822446207539
 30
0.0
 11
-264.3625946942648
 21
914.824236123953
 31
0.0
  0
LINE
  5
428
330
1F
100
AcDbEntity
  8
0
 62
     1
100
AcDbLine
 10
-252.0824612677707
 20
922.4822446207538
 30
0.0
 11
-252.0824612677707
 21
914.824236123953
 31
0.0
  0
LINE
  5
429
330
1F
100
AcDbEntity
  8
0
 62
     1
100
AcDbLine
 10
-243.6589026827742
 20
911.4403126607165
 30
0.0
 11
-243.6589026827742
 21
912.824236123953
 31
0.0
  0
LINE
  5
42A
330
1F
100
AcDbEntity
  8
0
 62
     1
100
AcDbLine
 10
-271.8429841978651
 20
936.5390417898032
 30
0.0
 11
-273.262105516108
 21
936.5390417898032
 31
0.0
  0
LINE
  5
42B
330
1F
100
AcDbEntity
  8
0
 62
     1
100
AcDbLine
 10
-261.0134669410081
 20
936.5390417898032
 30
0.0
 11
-261.0134669410081
 21
937.7067440831975
 31
0.0
  0
LINE
  5
42C
330
1F
100
AcDbEntity
  8
0
 62
     1
100
AcDbLine
 10
-255.8375426865523
 20
936.5390417898032
 30
0.0
 11
-255.8375426865523
 21
937.7067440831977
 31
0.0
  0
LINE
  5
42D
330
1F
100
AcDbEntity
  8
0
 62
     1
100
AcDbLine
 10
-261.0134669410081
 20
936.5390417898034
 30
0.0
 11
-262.3625946942648
 21
936.5390417898034
 31
0.0
  0
LINE
  5
42E
330
1F
100
AcDbEntity
  8
0
 62
     1
100
AcDbLine
 10
-261.0134669410081
 20
937.7067440831975
 30
0.0
 11
-273.262105516108
 21
937.7067440831975
 31
0.0
  0
ARC
  5
430
330
1F
100
AcDbEntity
  8
0
 62
     1
100
AcDbCircle
 10
-271.842984197865
 20
934.539041789803
 30
0.0
 40
2.0
100
AcDbArc
 50
0.0
 51
90.00000000000193
  0
ARC
  5
431
330
1F
100
AcDbEntity
  8
0
 62
     1
100
AcDbCircle
 10
-262.3625946942648
 20
934.5390417898034
 30
0.0
 40
2.0
100
AcDbArc
 50
90.00000000000193
 51
180.0
  0
ARC
  5
432
330
1F
100
AcDbEntity
  8
0
 62
     1
100
AcDbCircle
 10
-254.0824612677707
 20
934.5390417898034
 30
0.0
 40
2.0
100
AcDbArc
 50
0.0
 51
89.99999999999653
  0
ARC
  5
433
330
1F
100
AcDbEntity
  8
0
 62
     1
100
AcDbCircle
 10
-244.906537013314
 20
934.539041789803
 30
0.0
 40
2.0
100
AcDbArc
 50
90.00000000000202
 51
180.0
  0
ARC
  5
434
330
1F
100
AcDbEntity
  8
0
 62
     1
100
AcDbCircle
 10
-244.906537013314
 20
914.8242361239532
 30
0.0
 40
2.0
100
AcDbArc
 50
180.0000000000001
 51
270.0
  0
ARC
  5
435
330
1F
100
AcDbEntity
  8
0
 62
     1
100
AcDbCircle
 10
-254.0824612677707
 20
914.824236123953
 30
0.0
 40
2.0
100
AcDbArc
 50
270.0
 51
0.0
  0
ARC
  5
436
330
1F
100
AcDbEntity
  8
0
 62
     1
100
AcDbCircle
 10
-262.3625946942648
 20
914.824236123953
 30
0.0
 40
2.0
100
AcDbArc
 50
180.0
 51
269.9999999999981
  0
ARC
  5
437
330
1F
100
AcDbEntity
  8
0
 62
     1
100
AcDbCircle
 10
-271.842984197865
 20
914.8242361239528
 30
0.0
 40
2.0
100
AcDbArc
 50
270.0000000000019
 51
0.0
  0
ARC
  5
43C
330
1F
100
AcDbEntity
  8
0
 62
     1
100
AcDbCircle
 10
-263.3625946942648
 20
926.7955875816044
 30
0.0
 40
1.0
100
AcDbArc
 50
180.0
 51
269.9999999999995
  0
ARC
  5
43D
330
1F
100
AcDbEntity
  8
0
 62
     1
100
AcDbCircle
 10
-263.3625946942648
 20
922.4822446207539
 30
0.0
 40
1.0
100
AcDbArc
 50
90.00000000000055
 51
180.0
  0
ARC
  5
43E
330
1F
100
AcDbEntity
  8
0
 62
     1
100
AcDbCircle
 10
-253.0824612677707
 20
922.4822446207538
 30
0.0
 40
1.0
100
AcDbArc
 50
359.9999999999998
 51
90.00000000000062
  0
ARC
  5
43F
330
1F
100
AcDbEntity
  8
0
 62
     1
100
AcDbCircle
 10
-253.0824612677707
 20
926.7955875816042
 30
0.0
 40
1.0
100
AcDbArc
 50
269.9999999999994
 51
0.0000000000001781
  0
ARC
  5
440
330
1F
100
AcDbEntity
  8
0
 62
     1
100
AcDbCircle
 10
-231.8564380042244
 20
934.5390417898034
 30
0.0
 40
2.0
100
AcDbArc
 50
0.0
 51
90.0
  0
ARC
  5
441
330
1F
100
AcDbEntity
  8
0
 62
     1
100
AcDbCircle
 10
-222.5790253333871
 20
934.5390417898034
 30
0.0
 40
2.0
100
AcDbArc
 50
89.99999999999817
 51
180.0
  0
ARC
  5
442
330
1F
100
AcDbEntity
  8
0
 62
     1
100
AcDbCircle
 10
-222.5790253333871
 20
914.8242361239526
 30
0.0
 40
2.0
100
AcDbArc
 50
180.0
 51
270.0
  0
ARC
  5
443
330
1F
100
AcDbEntity
  8
0
 62
     1
100
AcDbCircle
 10
-231.8564380042244
 20
914.8242361239528
 30
0.0
 40
2.0
100
AcDbArc
 50
269.9999999999962
 51
0.0
  0
ARC
  5
444
330
1F
100
AcDbEntity
  8
0
 62
     1
100
AcDbCircle
 10
-208.4817012385301
 20
934.539041789803
 30
0.0
 40
2.0
100
AcDbArc
 50
0.0
 51
89.99999999999642
  0
ARC
  5
445
330
1F
100
AcDbEntity
  8
0
 62
     1
100
AcDbCircle
 10
-199.2042885676928
 20
934.5390417898032
 30
0.0
 40
2.0
100
AcDbArc
 50
89.99999999999829
 51
180.0
  0
ARC
  5
446
330
1F
100
AcDbEntity
  8
0
 62
     1
100
AcDbCircle
 10
-186.2628770842366
 20
914.8242361239528
 30
0.0
 40
2.0
100
AcDbArc
 50
270.0
 51
0.0
  0
ARC
  5
447
330
1F
100
AcDbEntity
  8
0
 62
     1
100
AcDbCircle
 10
-176.7861321922746
 20
914.8242361239528
 30
0.0
 40
2.0
100
AcDbArc
 50
180.0
 51
270.0
  0
ARC
  5
448
330
1F
100
AcDbEntity
  8
0
 62
     1
100
AcDbCircle
 10
-176.7861321922746
 20
934.5390417898029
 30
0.0
 40
2.0
100
AcDbArc
 50
89.99999999999799
 51
180.0000000000001
  0
ARC
  5
449
330
1F
100
AcDbEntity
  8
0
 62
     1
100
AcDbCircle
 10
-186.2628770842366
 20
934.539041789803
 30
0.0
 40
2.0
100
AcDbArc
 50
0.0
 51
90.00000000000184
  0
ARC
  5
44A
330
1F
100
AcDbEntity
  8
0
 62
     1
100
AcDbCircle
 10
-163.1396333342155
 20
934.5390417898029
 30
0.0
 40
2.0
100
AcDbArc
 50
90.0
 51
137.73000336008
  0
ARC
  5
44B
330
1F
100
AcDbEntity
  8
0
 62
     1
100
AcDbCircle
 10
-169.4485676674936
 20
935.5390417898032
 30
0.0
 40
1.0
100
AcDbArc
 50
316.9105644601659
 51
90.0
  0
ARC
  5
44D
330
1F
100
AcDbEntity
  8
0
 62
     1
100
AcDbCircle
 10
-172.2532141343484
 20
925.9995171196143
 30
0.0
 40
1.0
100
AcDbArc
 50
137.7300033600824
 51
212.7728024290247
  0
ARC
  5
44E
330
1F
100
AcDbEntity
  8
0
 62
     1
100
AcDbCircle
 10
-149.9242867601615
 20
934.539041789803
 30
0.0
 40
2.0
100
AcDbArc
 50
0.0
 51
90.0
  0
ARC
  5
44F
330
1F
100
AcDbEntity
  8
0
 62
     1
100
AcDbCircle
 10
-140.6397100244139
 20
934.5390417898029
 30
0.0
 40
2.0
100
AcDbArc
 50
90.0
 51
180.0
  0
ARC
  5
450
330
1F
100
AcDbEntity
  8
0
 62
     1
100
AcDbCircle
 10
-140.6397100244139
 20
914.824236123953
 30
0.0
 40
2.0
100
AcDbArc
 50
180.0
 51
269.9999999999993
  0
ARC
  5
451
330
1F
100
AcDbEntity
  8
0
 62
     1
100
AcDbCircle
 10
-149.9242867601615
 20
914.8242361239528
 30
0.0
 40
2.0
100
AcDbArc
 50
270.0
 51
0.0000000000000763
  0
ARC
  5
452
330
1F
100
AcDbEntity
  8
0
 62
     1
100
AcDbCircle
 10
-134.7964114279077
 20
914.8242361239528
 30
0.0
 40
2.0
100
AcDbArc
 50
269.9999999999984
 51
310.220632234439
  0
ARC
  5
453
330
1F
100
AcDbEntity
  8
0
 62
     1
100
AcDbCircle
 10
-132.9180978589432
 20
913.4403126607164
 30
0.0
 40
2.0
100
AcDbArc
 50
270.0
 51
321.6543231808247
  0
ARC
  5
454
330
1F
100
AcDbEntity
  8
0
 62
     1
100
AcDbCircle
 10
-118.9067588231323
 20
914.7479278391983
 30
0.0
 40
2.0
100
AcDbArc
 50
270.0
 51
355.3054782506752
  0
ARC
  5
455
330
1F
100
AcDbEntity
  8
0
 62
     1
100
AcDbCircle
 10
-112.2031384747141
 20
914.7479278391985
 30
0.0
 40
2.0
100
AcDbArc
 50
178.032661039392
 51
269.9999999999986
  0
ARC
  5
456
330
1F
100
AcDbEntity
  8
0
 62
     1
100
AcDbCircle
 10
-96.2647346961403
 20
914.7479278391985
 30
0.0
 40
2.0
100
AcDbArc
 50
270.0000000000021
 51
0.0
  0
ARC
  5
457
330
1F
100
AcDbEntity
  8
0
 62
     1
100
AcDbCircle
 10
-86.69362295779873
 20
914.7479278391989
 30
0.0
 40
2.0
100
AcDbArc
 50
181.8099018756042
 51
270.0000000000017
  0
ARC
  5
458
330
1F
100
AcDbEntity
  8
0
 62
     1
100
AcDbCircle
 10
-87.31900747353519
 20
934.5390417898029
 30
0.0
 40
2.0
100
AcDbArc
 50
90.0
 51
181.8099018756041
  0
ARC
  5
459
330
1F
100
AcDbEntity
  8
0
 62
     1
100
AcDbCircle
 10
-117.2815381409201
 20
934.539041789803
 30
0.0
 40
2.0
100
AcDbArc
 50
355.3054782506752
 51
89.99999999999856
  0
ARC
  5
45A
330
1F
100
AcDbEntity
  8
0
 62
     1
100
AcDbCircle
 10
-102.2132354256789
 20
922.8177906871165
 30
0.0
 40
1.0
100
AcDbArc
 50
204.2496416827069
 51
335.5340169953473
  0
ARC
  5
45B
330
1F
100
AcDbEntity
  8
0
 62
     1
100
AcDbCircle
 10
-52.96735453396377
 20
921.3427680627095
 30
0.0
 40
1.0
100
AcDbArc
 50
218.6319306898131
 51
0.0
  0
ARC
  5
45C
330
1F
100
AcDbEntity
  8
0
 62
     1
100
AcDbCircle
 10
-68.69559161178677
 20
928.9720941448846
 30
0.0
 40
1.0
100
AcDbArc
 50
37.72767539601554
 51
180.0000000000001
  0
ARC
  5
45D
330
1F
100
AcDbEntity
  8
0
 62
     1
100
AcDbCircle
 10
-73.80609709859982
 20
914.7479278391989
 30
0.0
 40
2.0
100
AcDbArc
 50
270.0000000000015
 51
0.0
  0
ARC
  5
45E
330
1F
100
AcDbEntity
  8
0
 62
     1
100
AcDbCircle
 10
-67.69559161178673
 20
914.7479278391987
 30
0.0
 40
2.0
100
AcDbArc
 50
180.0000000000002
 51
270.0
  0
ARC
  5
45F
330
1F
100
AcDbEntity
  8
0
 62
     1
100
AcDbCircle
 10
-53.96735453396377
 20
934.539041789803
 30
0.0
 40
2.0
100
AcDbArc
 50
0.0
 51
90.0
  0
ARC
  5
460
330
1F
100
AcDbEntity
  8
0
 62
     1
100
AcDbCircle
 10
-47.60358858898776
 20
934.539041789803
 30
0.0
 40
2.0
100
AcDbArc
 50
90.0
 51
179.9999999999998
  0
ARC
  5
461
330
1F
100
AcDbEntity
  8
0
 62
     1
100
AcDbCircle
 10
-73.80609709859982
 20
934.539041789803
 30
0.0
 40
2.0
100
AcDbArc
 50
0.0
 51
90.0
  0
ARC
  5
464
330
1F
100
AcDbEntity
  8
0
 62
     1
100
AcDbCircle
 10
-211.027964811695
 20
910.1661846904981
 30
0.0
 40
8.370723649391356
100
AcDbArc
 50
257.8706641906401
 51
303.3762329629973
  0
LINE
  5
467
330
1F
100
AcDbEntity
  8
0
 62
     1
100
AcDbLine
 10
-34.07286329700902
 20
874.5573386579046
 30
0.0
 11
-44.94009894094551
 21
874.5573386579042
 31
0.0
  0
LINE
  5
468
330
1F
100
AcDbEntity
  8
0
 62
     1
100
AcDbLine
 10
-235.5970279546823
 20
848.0312674474371
 30
0.0
 11
-222.8965226188198
 21
848.0312674474372
 31
0.0
  0
LINE
  5
46A
330
1F
100
AcDbEntity
  8
0
 62
     1
100
AcDbLine
 10
-235.927921644537
 20
874.5573386579044
 30
0.0
 11
-235.927921644537
 21
872.8956399593485
 31
0.0
  0
LINE
  5
46C
330
1F
100
AcDbEntity
  8
0
 62
     1
100
AcDbLine
 10
-226.7034496394194
 20
870.8956399593482
 30
0.0
 11
-226.7034496394195
 21
851.6210250695902
 31
0.0
  0
LINE
  5
46D
330
1F
100
AcDbEntity
  8
0
 62
     1
100
AcDbLine
 10
-222.8965226188198
 20
849.6210250695899
 30
0.0
 11
-222.8965226188198
 21
848.0312674474371
 31
0.0
  0
LINE
  5
46F
330
1F
100
AcDbEntity
  8
0
 62
     1
100
AcDbLine
 10
-79.50278716205186
 20
849.62102506959
 30
0.0
 11
-82.02619576860378
 21
849.6210250695899
 31
0.0
  0
ARC
  5
470
330
1F
100
AcDbEntity
  8
0
 62
     1
100
AcDbCircle
 10
-224.1973971291405
 20
866.6007058316665
 30
0.0
 40
6.298321874243388
100
AcDbArc
 50
261.7645659346223
 51
88.12068262308438
  0
ARC
  5
471
330
1F
100
AcDbEntity
  8
0
 62
     1
100
AcDbCircle
 10
-221.7536208922819
 20
866.6354495742773
 30
0.0
 40
8.253251645784366
100
AcDbArc
 50
257.961814769821
 51
73.70926516274437
  0
LINE
  5
473
330
1F
100
AcDbEntity
  8
0
 62
     1
100
AcDbLine
 10
-224.7034496394193
 20
872.8956399593483
 30
0.0
 11
-223.990847474839
 21
872.8956399593483
 31
0.0
  0
LINE
  5
474
330
1F
100
AcDbEntity
  8
0
 62
     1
100
AcDbLine
 10
-233.8281540838911
 20
872.8956399593482
 30
0.0
 11
-235.927921644537
 21
872.8956399593483
 31
0.0
  0
LINE
  5
475
330
1F
100
AcDbEntity
  8
0
 62
     1
100
AcDbLine
 10
-231.8281540838911
 20
870.8956399593482
 30
0.0
 11
-231.8281540838912
 21
851.62102506959
 31
0.0
  0
LINE
  5
476
330
1F
100
AcDbEntity
  8
0
 62
     1
100
AcDbLine
 10
-235.5970279546823
 20
849.62102506959
 30
0.0
 11
-235.5970279546823
 21
848.0312674474371
 31
0.0
  0
ARC
  5
479
330
1F
100
AcDbEntity
  8
0
 62
     1
100
AcDbCircle
 10
-187.3845943041086
 20
861.5426605797972
 30
0.0
 40
14.43492509959568
100
AcDbArc
 50
96.73052390595538
 51
263.6287397476985
  0
ARC
  5
47B
330
1F
100
AcDbEntity
  8
0
 62
     1
100
AcDbCircle
 10
-188.2076070201278
 20
861.5400802891839
 30
0.0
 40
14.36432041061625
100
AcDbArc
 50
289.8740516926978
 51
93.46738028144589
  0
LINE
  5
47C
330
1F
100
AcDbEntity
  8
0
 62
     1
100
AcDbLine
 10
-195.4812608937324
 20
849.6210250695899
 30
0.0
 11
-195.5234928409316
 21
849.6210250695899
 31
0.0
  0
LINE
  5
47D
330
1F
100
AcDbEntity
  8
0
 62
     1
100
AcDbLine
 10
-162.5786756116045
 20
848.0312674474372
 30
0.0
 11
-150.08528234094
 21
848.0312674474372
 31
0.0
  0
ARC
  5
47F
330
1F
100
AcDbEntity
  8
0
 62
     1
100
AcDbCircle
 10
-196.3596485994602
 20
860.5970253576407
 30
0.0
 40
16.62351259554954
100
AcDbArc
 50
329.6480804615961
 51
43.06452609490768
  0
ARC
  5
481
330
1F
100
AcDbEntity
  8
0
 62
     1
100
AcDbCircle
 10
-179.6442332356718
 20
862.477493243257
 30
0.0
 40
16.4649280516583
100
AcDbArc
 50
148.7454279440389
 51
223.8410097439982
  0
LINE
  5
482
330
1F
100
AcDbEntity
  8
0
 62
     1
100
AcDbLine
 10
-219.4384889143254
 20
874.5573386579042
 30
0.0
 11
-235.927921644537
 21
874.5573386579044
 31
0.0
  0
LINE
  5
483
330
1F
100
AcDbEntity
  8
0
 62
     1
100
AcDbLine
 10
-152.5431777211839
 20
872.8956399593485
 30
0.0
 11
-151.2370177643198
 21
872.8956399593485
 31
0.0
  0
ARC
  5
486
330
1F
100
AcDbEntity
  8
0
 62
     1
100
AcDbCircle
 10
-188.6142500449462
 20
867.8681563110608
 30
0.0
 40
6.0
100
AcDbArc
 50
42.84054421564721
 51
148.3090391403339
  0
ARC
  5
488
330
1F
100
AcDbEntity
  8
0
 62
     1
100
AcDbCircle
 10
-187.1922157815004
 20
855.2288603642754
 30
0.0
 40
6.0
100
AcDbArc
 50
223.8410097439984
 51
329.6480804615963
  0
ARC
  5
48A
330
1F
100
AcDbEntity
  8
0
 62
     1
100
AcDbCircle
 10
-199.1656831343048
 20
822.9541821562651
 30
0.0
 40
26.2930746984038
100
AcDbArc
 50
51.02910291319941
 51
67.22301562325599
  0
ARC
  5
48B
330
1F
100
AcDbEntity
  8
0
 62
     1
100
AcDbCircle
 10
-173.3609066076305
 20
855.4786325480547
 30
0.0
 40
15.22792322892984
100
AcDbArc
 50
232.5084538526277
 51
307.2231960848223
  0
ARC
  5
48C
330
1F
100
AcDbEntity
  8
0
 62
     1
100
AcDbCircle
 10
-183.8838443869586
 20
836.2085417057697
 30
0.0
 40
11.83595446303765
100
AcDbArc
 50
52.81391642184923
 51
87.29083547416847
  0
ARC
  5
48D
330
1F
100
AcDbEntity
  8
0
 62
     1
100
AcDbCircle
 10
-169.8004428585088
 20
855.7646060367343
 30
0.0
 40
12.27066625026342
100
AcDbArc
 50
235.6160560627598
 51
292.9091911573753
  0
LINE
  5
48E
330
1F
100
AcDbEntity
  8
0
 62
     1
100
AcDbLine
 10
-165.0238195266024
 20
844.4618134716005
 30
0.0
 11
-164.1492078538399
 21
843.352864451328
 31
0.0
  0
LINE
  5
490
330
1F
100
AcDbEntity
  8
0
 62
     1
100
AcDbLine
 10
-162.5786756116044
 20
848.0312674474372
 30
0.0
 11
-162.5786756116044
 21
849.6210250695899
 31
0.0
  0
LINE
  5
491
330
1F
100
AcDbEntity
  8
0
 62
     1
100
AcDbLine
 10
-150.08528234094
 20
849.6210250695897
 30
0.0
 11
-150.08528234094
 21
848.0312674474372
 31
0.0
  0
LINE
  5
492
330
1F
100
AcDbEntity
  8
0
 62
     1
100
AcDbLine
 10
-134.7690572552851
 20
849.2923510927292
 30
0.0
 11
-134.7690572552851
 21
848.0312674474374
 31
0.0
  0
LINE
  5
493
330
1F
100
AcDbEntity
  8
0
 62
     1
100
AcDbLine
 10
-162.8185391181973
 20
874.5573386579044
 30
0.0
 11
-162.8185391181974
 21
872.8956399593483
 31
0.0
  0
LINE
  5
495
330
1F
100
AcDbEntity
  8
0
 62
     1
100
AcDbLine
 10
-159.1083945593922
 20
870.8956399593482
 30
0.0
 11
-159.1083945593923
 21
851.6210250695898
 31
0.0
  0
LINE
  5
496
330
1F
100
AcDbEntity
  8
0
 62
     1
100
AcDbLine
 10
-153.5431777211838
 20
871.8956399593485
 30
0.0
 11
-153.5431777211838
 21
862.586727319138
 31
0.0
  0
LINE
  5
497
330
1F
100
AcDbEntity
  8
0
 62
     1
100
AcDbLine
 10
-152.5431777211838
 20
861.586727319138
 30
0.0
 11
-150.3752814406029
 21
861.586727319138
 31
0.0
  0
LINE
  5
498
330
1F
100
AcDbEntity
  8
0
 62
     1
100
AcDbLine
 10
-152.5431777211838
 20
859.5650748425038
 30
0.0
 11
-151.5752313508726
 21
859.5650748425036
 31
0.0
  0
ARC
  5
499
330
1F
100
AcDbEntity
  8
0
 62
     1
100
AcDbCircle
 10
-132.8652993465577
 20
864.930074873779
 30
0.0
 40
18.76296488394927
100
AcDbArc
 50
198.7879781717642
 51
243.5153281116694
  0
ARC
  5
49A
330
1F
100
AcDbEntity
  8
0
 62
     1
100
AcDbCircle
 10
-152.7566622732476
 20
866.8723219336984
 30
0.0
 40
6.300744978372594
100
AcDbArc
 50
316.1757884030095
 51
69.30798439229294
  0
ARC
  5
49B
330
1F
100
AcDbEntity
  8
0
 62
     1
100
AcDbCircle
 10
-147.8568691922041
 20
867.8148119330433
 30
0.0
 40
6.757492894452767
100
AcDbArc
 50
293.482464941261
 51
86.18600297814516
  0
ARC
  5
49C
330
1F
100
AcDbEntity
  8
0
 62
     1
100
AcDbCircle
 10
-163.4529313650869
 20
844.1162435569774
 30
0.0
 40
23.9844801879251
100
AcDbArc
 50
27.79899899634758
 51
41.58676468227525
  0
ARC
  5
49D
330
1F
100
AcDbEntity
  8
0
 62
     1
100
AcDbCircle
 10
-132.5532112785361
 20
859.6900591336108
 30
0.0
 40
10.63119494206038
100
AcDbArc
 50
204.3784094251126
 51
257.9697149763717
  0
LINE
  5
49E
330
1F
100
AcDbEntity
  8
0
 62
     1
100
AcDbLine
 10
-94.39253183873292
 20
872.895639959348
 30
0.0
 11
-91.18446768702192
 21
872.8956399593482
 31
0.0
  0
LINE
  5
49F
330
1F
100
AcDbEntity
  8
0
 62
     1
100
AcDbLine
 10
-153.5431777211839
 20
858.5650748425038
 30
0.0
 11
-153.5431777211838
 21
851.6210250695898
 31
0.0
  0
LINE
  5
4A0
330
1F
100
AcDbEntity
  8
0
 62
     1
100
AcDbLine
 10
-161.1083945593923
 20
872.8956399593483
 30
0.0
 11
-162.8185391181973
 21
872.8956399593483
 31
0.0
  0
ARC
  5
4AD
330
1F
100
AcDbEntity
  8
0
 62
     1
100
AcDbCircle
 10
-258.6792941623983
 20
855.4672297897864
 30
0.0
 40
6.166729873073297
100
AcDbArc
 50
271.3878723813159
 51
313.8436230916392
  0
ARC
  5
4AE
330
1F
100
AcDbEntity
  8
0
 62
     1
100
AcDbCircle
 10
-258.4304226773091
 20
866.853535130329
 30
0.0
 40
7.26692884270882
100
AcDbArc
 50
34.27519613956775
 51
88.16400500113637
  0
ARC
  5
4AF
330
1F
100
AcDbEntity
  8
0
 62
     1
100
AcDbCircle
 10
-266.8716902171346
 20
862.3212663329642
 30
0.0
 40
16.82499588053353
100
AcDbArc
 50
317.8000470973056
 51
30.83828219066716
  0
ARC
  5
4B2
330
1F
100
AcDbEntity
  8
0
 62
     1
100
AcDbCircle
 10
-258.7934795329447
 20
861.4949758938886
 30
0.0
 40
14.46491184800408
100
AcDbArc
 50
276.4895646138685
 51
88.6687921195036
  0
ARC
  5
4B5
330
1F
100
AcDbEntity
  8
0
 62
     1
100
AcDbCircle
 10
-116.4752944202411
 20
864.0306235086088
 30
0.0
 40
11.9073114746404
100
AcDbArc
 50
59.49964008558318
 51
123.1194879769093
  0
ARC
  5
4B6
330
1F
100
AcDbEntity
  8
0
 62
     1
100
AcDbCircle
 10
-118.6087389232752
 20
867.4804864946027
 30
0.0
 40
7.85286473839774
100
AcDbArc
 50
123.8354776172353
 51
229.107306198894
  0
ARC
  5
4B7
330
1F
100
AcDbEntity
  8
0
 62
     1
100
AcDbCircle
 10
-103.5871996826481
 20
886.3945352961355
 30
0.0
 40
32.00093242483734
100
AcDbArc
 50
230.9457598875066
 51
245.3760114211044
  0
ARC
  5
4B8
330
1F
100
AcDbEntity
  8
0
 62
     1
100
AcDbCircle
 10
-118.5192193765588
 20
853.1877540325833
 30
0.0
 40
4.415450243742606
100
AcDbArc
 50
296.2590675076641
 51
68.77591981363519
  0
ARC
  5
4B9
330
1F
100
AcDbEntity
  8
0
 62
     1
100
AcDbCircle
 10
-118.9707246443085
 20
855.6217431152584
 30
0.0
 40
6.831147784622032
100
AcDbArc
 50
181.9489451713741
 51
290.613919370777
  0
ARC
  5
4BA
330
1F
100
AcDbEntity
  8
0
 62
     1
100
AcDbCircle
 10
-121.2183057751304
 20
853.4223208405178
 30
0.0
 40
6.19133627750462
100
AcDbArc
 50
164.8475595377375
 51
164.8846927314355
  0
ARC
  5
4BB
330
1F
100
AcDbEntity
  8
0
 62
     1
100
AcDbCircle
 10
-118.540861009835
 20
856.098278804029
 30
0.0
 40
9.490086489811321
100
AcDbArc
 50
248.142637418153
 51
334.0165162396747
  0
ARC
  5
4BC
330
1F
100
AcDbEntity
  8
0
 62
     1
100
AcDbCircle
 10
-117.3240278345548
 20
855.163315591187
 30
0.0
 40
7.992543342547071
100
AcDbArc
 50
336.2203327067056
 51
53.1611287718718
  0
ARC
  5
4BD
330
1F
100
AcDbEntity
  8
0
 62
     1
100
AcDbCircle
 10
-131.3180177751054
 20
834.2267929368016
 30
0.0
 40
33.16650486503074
100
AcDbArc
 50
55.49929237429669
 51
68.57785954818615
  0
ARC
  5
4BE
330
1F
100
AcDbEntity
  8
0
 62
     1
100
AcDbCircle
 10
-117.021700924876
 20
869.3593663552192
 30
0.0
 40
4.784296578011555
100
AcDbArc
 50
133.7440698720596
 51
242.8564657982741
  0
ARC
  5
4BF
330
1F
100
AcDbEntity
  8
0
 62
     1
100
AcDbCircle
 10
-117.3998020581882
 20
868.7541779861764
 30
0.0
 40
5.008057109863417
100
AcDbArc
 50
5.68868082469935
 51
125.8062527207139
  0
LINE
  5
4C0
330
1F
100
AcDbEntity
  8
0
 62
     1
100
AcDbLine
 10
-98.21873166404239
 20
874.5573386579041
 30
0.0
 11
-99.03261690888516
 21
867.5955548425134
 31
0.0
  0
LINE
  5
4C1
330
1F
100
AcDbEntity
  8
0
 62
     1
100
AcDbLine
 10
-73.36613666492455
 20
874.5573386579041
 30
0.0
 11
-74.4788201837614
 21
867.5955548425136
 31
0.0
  0
LINE
  5
4C2
330
1F
100
AcDbEntity
  8
0
 62
     1
100
AcDbLine
 10
-74.4788201837614
 20
867.5955548425136
 30
0.0
 11
-76.40604505741679
 21
867.5955548425134
 31
0.0
  0
LINE
  5
4C3
330
1F
100
AcDbEntity
  8
0
 62
     1
100
AcDbLine
 10
-89.18446768702189
 20
870.8956399593482
 30
0.0
 11
-89.18446768702192
 21
851.6210250695898
 31
0.0
  0
LINE
  5
4C4
330
1F
100
AcDbEntity
  8
0
 62
     1
100
AcDbLine
 10
-94.58072573653362
 20
849.6210250695899
 30
0.0
 11
-94.58072573653362
 21
848.0312674474374
 31
0.0
  0
LINE
  5
4C5
330
1F
100
AcDbEntity
  8
0
 62
     1
100
AcDbLine
 10
-79.50278716205184
 20
849.62102506959
 30
0.0
 11
-79.50278716205184
 21
848.0312674474372
 31
0.0
  0
LINE
  5
4C7
330
1F
100
AcDbEntity
  8
0
 62
     1
100
AcDbLine
 10
-63.67911498815512
 20
874.5573386579042
 30
0.0
 11
-63.6791149881551
 21
872.8956399593482
 31
0.0
  0
LINE
  5
4C8
330
1F
100
AcDbEntity
  8
0
 62
     1
100
AcDbLine
 10
-51.07033070973784
 20
874.5573386579044
 30
0.0
 11
-51.07033070973784
 21
872.8956399593482
 31
0.0
  0
LINE
  5
4C9
330
1F
100
AcDbEntity
  8
0
 62
     1
100
AcDbLine
 10
-44.94009894094552
 20
874.5573386579044
 30
0.0
 11
-44.94009894094552
 21
872.8956399593485
 31
0.0
  0
LINE
  5
4CA
330
1F
100
AcDbEntity
  8
0
 62
     1
100
AcDbLine
 10
-34.07286329700901
 20
874.5573386579046
 30
0.0
 11
-34.07286329700901
 21
872.8956399593485
 31
0.0
  0
LINE
  5
4CB
330
1F
100
AcDbEntity
  8
0
 62
     1
100
AcDbLine
 10
-37.4862874064006
 20
870.8956399593484
 30
0.0
 11
-37.48628740640061
 21
856.8549470504366
 31
0.0
  0
LINE
  5
4CC
330
1F
100
AcDbEntity
  8
0
 62
     1
100
AcDbLine
 10
-40.48174264706495
 20
870.8956399593485
 30
0.0
 11
-40.48174264706495
 21
856.7157666802732
 31
0.0
  0
LINE
  5
4CD
330
1F
100
AcDbEntity
  8
0
 62
     1
100
AcDbLine
 10
-54.62308111292941
 20
870.8956399593482
 30
0.0
 11
-54.62308111292941
 21
856.6461752278646
 31
0.0
  0
LINE
  5
4CE
330
1F
100
AcDbEntity
  8
0
 62
     1
100
AcDbLine
 10
-60.05670143806539
 20
870.8956399593482
 30
0.0
 11
-60.05670143806537
 21
855.3935417577759
 31
0.0
  0
ARC
  5
4CF
330
1F
100
AcDbEntity
  8
0
 62
     1
100
AcDbCircle
 10
-48.20955183759548
 20
856.2053616759268
 30
0.0
 40
6.428660385580925
100
AcDbArc
 50
176.0681403574645
 51
275.6550794039451
  0
ARC
  5
4D0
330
1F
100
AcDbEntity
  8
0
 62
     1
100
AcDbCircle
 10
-46.58296659254363
 20
855.8849115485243
 30
0.0
 40
6.157536348478583
100
AcDbArc
 50
260.7186091234867
 51
7.754748248510016
  0
ARC
  5
4D1
330
1F
100
AcDbEntity
  8
0
 62
     1
100
AcDbCircle
 10
-47.94581059427042
 20
857.4221522944203
 30
0.0
 40
10.47489126943038
100
AcDbArc
 50
267.8304606176764
 51
356.8959707256991
  0
ARC
  5
4D2
330
1F
100
AcDbEntity
  8
0
 62
     1
100
AcDbCircle
 10
-50.11053301347146
 20
856.7492026507572
 30
0.0
 40
10.03813143902508
100
AcDbArc
 50
187.7615759165666
 51
282.4536605028045
  0
LINE
  5
4D3
330
1F
100
AcDbEntity
  8
0
 62
     1
100
AcDbLine
 10
-233.8281540838912
 20
849.62102506959
 30
0.0
 11
-235.5970279546823
 21
849.6210250695899
 31
0.0
  0
LINE
  5
4D4
330
1F
100
AcDbEntity
  8
0
 62
     1
100
AcDbLine
 10
-222.8965226188198
 20
849.62102506959
 30
0.0
 11
-224.7034496394194
 21
849.62102506959
 31
0.0
  0
LINE
  5
4D5
330
1F
100
AcDbEntity
  8
0
 62
     1
100
AcDbLine
 10
-192.4648815256884
 20
848.0312674474371
 30
0.0
 11
-192.4228461982323
 21
848.0312674474371
 31
0.0
  0
ARC
  5
4E1
330
1F
100
AcDbEntity
  8
0
 62
     1
100
AcDbCircle
 10
-258.314329488521
 20
859.3008624096134
 30
0.0
 40
12.23282937640935
100
AcDbArc
 50
264.5788479391971
 51
275.4211520608145
  0
ARC
  5
4E2
330
1F
100
AcDbEntity
  8
0
 62
     1
100
AcDbCircle
 10
-257.8329237899301
 20
861.4996528445871
 30
0.0
 40
14.46981387140049
100
AcDbArc
 50
92.47362102193568
 51
263.5036540386131
  0
ARC
  5
4E3
330
1F
100
AcDbEntity
  8
0
 62
     1
100
AcDbCircle
 10
-249.7562561211022
 20
862.3211085968815
 30
0.0
 40
16.82568862445493
100
AcDbArc
 50
149.1625005944671
 51
222.1937930569005
  0
ARC
  5
4E4
330
1F
100
AcDbEntity
  8
0
 62
     1
100
AcDbCircle
 10
-258.0992506138604
 20
866.6574985174337
 30
0.0
 40
7.459883166545303
100
AcDbArc
 50
90.75539560803155
 51
144.9087386164701
  0
ARC
  5
4E5
330
1F
100
AcDbEntity
  8
0
 62
     1
100
AcDbCircle
 10
-257.7448484209677
 20
855.8158170089617
 30
0.0
 40
6.560651151760691
100
AcDbArc
 50
226.9662430782508
 51
263.1271984091264
  0
LINE
  5
4FB
330
1F
100
AcDbEntity
  8
0
 62
     1
100
AcDbLine
 10
-161.1083945593923
 20
849.6210250695899
 30
0.0
 11
-162.5786756116044
 21
849.6210250695899
 31
0.0
  0
LINE
  5
4FC
330
1F
100
AcDbEntity
  8
0
 62
     1
100
AcDbLine
 10
-150.08528234094
 20
849.6210250695897
 30
0.0
 11
-151.5431777211838
 21
849.6210250695897
 31
0.0
  0
LINE
  5
4FD
330
1F
100
AcDbEntity
  8
0
 62
     1
100
AcDbLine
 10
-140.7868423710236
 20
848.0312674474372
 30
0.0
 11
-134.7690572552851
 21
848.0312674474372
 31
0.0
  0
LINE
  5
4FE
330
1F
100
AcDbEntity
  8
0
 62
     1
100
AcDbLine
 10
-147.4073766081543
 20
874.5573386579042
 30
0.0
 11
-162.8185391181973
 21
874.5573386579042
 31
0.0
  0
LINE
  5
4FF
330
1F
100
AcDbEntity
  8
0
 62
     1
100
AcDbLine
 10
-82.02619576860394
 20
872.8956399593482
 30
0.0
 11
-78.53375522193406
 21
872.8956399593483
 31
0.0
  0
LINE
  5
500
330
1F
100
AcDbEntity
  8
0
 62
     1
100
AcDbLine
 10
-84.0261957686039
 20
870.8956399593482
 30
0.0
 11
-84.02619576860388
 21
851.6210250695898
 31
0.0
  0
LINE
  5
501
330
1F
100
AcDbEntity
  8
0
 62
     1
100
AcDbLine
 10
-73.36613666492453
 20
874.5573386579041
 30
0.0
 11
-98.21873166404238
 21
874.5573386579041
 31
0.0
  0
LINE
  5
502
330
1F
100
AcDbEntity
  8
0
 62
     1
100
AcDbLine
 10
-63.67911498815509
 20
872.8956399593483
 30
0.0
 11
-62.05670143806533
 21
872.8956399593482
 31
0.0
  0
LINE
  5
503
330
1F
100
AcDbEntity
  8
0
 62
     1
100
AcDbLine
 10
-97.63129484625531
 20
867.5955548425136
 30
0.0
 11
-99.03261690888518
 21
867.5955548425136
 31
0.0
  0
LINE
  5
504
330
1F
100
AcDbEntity
  8
0
 62
     1
100
AcDbLine
 10
-97.6312948462553
 20
867.5955548425136
 30
0.0
 11
-96.28544835430215
 21
871.5412923930035
 31
0.0
  0
LINE
  5
505
330
1F
100
AcDbEntity
  8
0
 62
     1
100
AcDbLine
 10
-76.40604505741681
 20
867.5955548425136
 30
0.0
 11
-76.53521711914982
 21
870.9720955132315
 31
0.0
  0
LINE
  5
506
330
1F
100
AcDbEntity
  8
0
 62
     1
100
AcDbLine
 10
-94.58072573653362
 20
848.0312674474374
 30
0.0
 11
-79.50278716205184
 21
848.0312674474372
 31
0.0
  0
LINE
  5
507
330
1F
100
AcDbEntity
  8
0
 62
     1
100
AcDbLine
 10
-91.18446768702192
 20
849.6210250695899
 30
0.0
 11
-94.58072573653364
 21
849.6210250695899
 31
0.0
  0
LINE
  5
509
330
1F
100
AcDbEntity
  8
0
 62
     1
100
AcDbLine
 10
-52.62308111292941
 20
872.8956399593483
 30
0.0
 11
-51.07033070973784
 21
872.8956399593482
 31
0.0
  0
LINE
  5
50A
330
1F
100
AcDbEntity
  8
0
 62
     1
100
AcDbLine
 10
-44.94009894094552
 20
872.8956399593483
 30
0.0
 11
-42.48174264706499
 21
872.8956399593485
 31
0.0
  0
LINE
  5
50B
330
1F
100
AcDbEntity
  8
0
 62
     1
100
AcDbLine
 10
-51.07033070973784
 20
874.5573386579044
 30
0.0
 11
-63.67911498815509
 21
874.5573386579042
 31
0.0
  0
LINE
  5
50C
330
1F
100
AcDbEntity
  8
0
 62
     1
100
AcDbLine
 10
-35.48628740640059
 20
872.8956399593483
 30
0.0
 11
-34.07286329700901
 21
872.8956399593485
 31
0.0
  0
ARC
  5
50E
330
1F
100
AcDbEntity
  8
0
 62
     1
100
AcDbCircle
 10
-35.48628740640059
 20
870.8956399593484
 30
0.0
 40
2.0
100
AcDbArc
 50
90.0
 51
180.0
  0
ARC
  5
50F
330
1F
100
AcDbEntity
  8
0
 62
     1
100
AcDbCircle
 10
-42.48174264706494
 20
870.8956399593485
 30
0.0
 40
2.0
100
AcDbArc
 50
0.0
 51
90.00000000000142
  0
ARC
  5
510
330
1F
100
AcDbEntity
  8
0
 62
     1
100
AcDbCircle
 10
-52.62308111292941
 20
870.8956399593482
 30
0.0
 40
2.0
100
AcDbArc
 50
90.0
 51
180.0
  0
ARC
  5
511
330
1F
100
AcDbEntity
  8
0
 62
     1
100
AcDbCircle
 10
-62.05670143806539
 20
870.8956399593482
 30
0.0
 40
2.0
100
AcDbArc
 50
0.0
 51
89.9999999999982
  0
ARC
  5
512
330
1F
100
AcDbEntity
  8
0
 62
     1
100
AcDbCircle
 10
-78.53375522193406
 20
870.8956399593484
 30
0.0
 40
2.0
100
AcDbArc
 50
2.190824098210304
 51
90.0
  0
ARC
  5
513
330
1F
100
AcDbEntity
  8
0
 62
     1
100
AcDbCircle
 10
-82.0261957686039
 20
870.8956399593482
 30
0.0
 40
2.0
100
AcDbArc
 50
90.00000000000119
 51
180.0
  0
ARC
  5
514
330
1F
100
AcDbEntity
  8
0
 62
     1
100
AcDbCircle
 10
-91.1844676870219
 20
870.8956399593482
 30
0.0
 40
2.0
100
AcDbArc
 50
0.0
 51
90.00000000000103
  0
ARC
  5
515
330
1F
100
AcDbEntity
  8
0
 62
     1
100
AcDbCircle
 10
-94.39253183873288
 20
870.895639959348
 30
0.0
 40
2.0
100
AcDbArc
 50
90.0000000000014
 51
161.1660711073176
  0
ARC
  5
516
330
1F
100
AcDbEntity
  8
0
 62
     1
100
AcDbCircle
 10
-82.02619576860389
 20
851.6210250695898
 30
0.0
 40
2.0
100
AcDbArc
 50
180.0
 51
270.0000000000029
  0
ARC
  5
517
330
1F
100
AcDbEntity
  8
0
 62
     1
100
AcDbCircle
 10
-91.18446768702192
 20
851.6210250695898
 30
0.0
 40
2.0
100
AcDbArc
 50
270.0
 51
359.9999999999999
  0
ARC
  5
518
330
1F
100
AcDbEntity
  8
0
 62
     1
100
AcDbCircle
 10
-161.1083945593923
 20
851.6210250695898
 30
0.0
 40
2.0
100
AcDbArc
 50
270.0
 51
360.0
  0
ARC
  5
519
330
1F
100
AcDbEntity
  8
0
 62
     1
100
AcDbCircle
 10
-151.5431777211838
 20
851.6210250695898
 30
0.0
 40
2.0
100
AcDbArc
 50
180.0000000000001
 51
270.0
  0
ARC
  5
51A
330
1F
100
AcDbEntity
  8
0
 62
     1
100
AcDbCircle
 10
-161.1083945593922
 20
870.8956399593482
 30
0.0
 40
2.0
100
AcDbArc
 50
359.9999999999999
 51
90.00000000000175
  0
ARC
  5
51C
330
1F
100
AcDbEntity
  8
0
 62
     1
100
AcDbCircle
 10
-151.2370177643198
 20
870.8956399593485
 30
0.0
 40
2.0
100
AcDbArc
 50
69.30798439229292
 51
90.0
  0
ARC
  5
51E
330
1F
100
AcDbEntity
  8
0
 62
     1
100
AcDbCircle
 10
-150.3752814406029
 20
864.5867273191377
 30
0.0
 40
3.0
100
AcDbArc
 50
270.0
 51
316.1757884030094
  0
ARC
  5
51F
330
1F
100
AcDbEntity
  8
0
 62
     1
100
AcDbCircle
 10
-152.5431777211838
 20
862.586727319138
 30
0.0
 40
1.0
100
AcDbArc
 50
180.0
 51
270.0
  0
ARC
  5
520
330
1F
100
AcDbEntity
  8
0
 62
     1
100
AcDbCircle
 10
-152.5431777211838
 20
871.8956399593485
 30
0.0
 40
1.0
100
AcDbArc
 50
90.00000000000282
 51
180.0
  0
ARC
  5
521
330
1F
100
AcDbEntity
  8
0
 62
     1
100
AcDbCircle
 10
-152.5431777211839
 20
858.5650748425038
 30
0.0
 40
1.0
100
AcDbArc
 50
89.99999999999758
 51
180.0000000000002
  0
ARC
  5
522
330
1F
100
AcDbEntity
  8
0
 62
     1
100
AcDbCircle
 10
-151.5752313508727
 20
858.5650748425038
 30
0.0
 40
1.0
100
AcDbArc
 50
18.78797817176601
 51
89.99999999999674
  0
ARC
  5
523
330
1F
100
AcDbEntity
  8
0
 62
     1
100
AcDbCircle
 10
-144.7657534954468
 20
860.6997785700334
 30
0.0
 40
1.0
100
AcDbArc
 50
113.482464941262
 51
221.5867646822776
  0
ARC
  5
524
330
1F
100
AcDbEntity
  8
0
 62
     1
100
AcDbCircle
 10
-140.7868423710236
 20
849.0312674474374
 30
0.0
 40
1.0
100
AcDbArc
 50
243.515328111669
 51
270.0
  0
ARC
  5
525
330
1F
100
AcDbEntity
  8
0
 62
     1
100
AcDbCircle
 10
-233.8281540838911
 20
870.8956399593482
 30
0.0
 40
2.0
100
AcDbArc
 50
0.0
 51
90.0
  0
ARC
  5
526
330
1F
100
AcDbEntity
  8
0
 62
     1
100
AcDbCircle
 10
-233.8281540838912
 20
851.62102506959
 30
0.0
 40
2.0
100
AcDbArc
 50
270.0
 51
359.9999999999999
  0
ARC
  5
527
330
1F
100
AcDbEntity
  8
0
 62
     1
100
AcDbCircle
 10
-224.7034496394195
 20
851.6210250695902
 30
0.0
 40
2.0
100
AcDbArc
 50
179.9999999999999
 51
270.0000000000017
  0
ARC
  5
528
330
1F
100
AcDbEntity
  8
0
 62
     1
100
AcDbCircle
 10
-224.7034496394194
 20
870.8956399593482
 30
0.0
 40
2.0
100
AcDbArc
 50
89.9999999999976
 51
179.9999999999999
  0
LINE
  5
52C
330
1F
100
AcDbEntity
  8
0
 62
     1
100
AcDbLine
 10
-223.4749482628099
 20
858.5636966783992
 30
0.0
 11
-225.0995752082977
 21
860.3673332978722
 31
0.0
  0
LINE
  5
52D
330
1F
100
AcDbEntity
  8
0
 62
     1
100
AcDbLine
 10
-110.4318125990698
 20
874.2902723345324
 30
0.0
 11
-111.1207381283739
 21
869.0102400019734
 31
0.0
  0
LINE
  5
52E
330
1F
100
AcDbEntity
  8
0
 62
     1
100
AcDbLine
 10
-111.1207381283739
 20
869.0102400019734
 30
0.0
 11
-112.4164087689919
 21
869.2505924711054
 31
0.0
  0
LINE
  5
52F
330
1F
100
AcDbEntity
  8
0
 62
     1
100
AcDbLine
 10
-125.7979208033525
 20
855.3894229454886
 30
0.0
 11
-128.1145961510033
 21
854.8048594857217
 31
0.0
  0
LINE
  5
530
330
1F
100
AcDbEntity
  8
0
 62
     1
100
AcDbLine
 10
-128.1145961510033
 20
854.8048594857217
 30
0.0
 11
-128.1145961510033
 21
853.7254971829032
 31
0.0
  0
LINE
  5
531
330
1F
100
AcDbEntity
  8
0
 62
     1
100
AcDbLine
 10
-128.1145961510033
 20
853.7254971829032
 30
0.0
 11
-127.4022146527387
 21
853.7254971829032
 31
0.0
  0
ARC
  5
532
330
1F
100
AcDbEntity
  8
0
 62
     1
100
AcDbCircle
 10
-119.3744881009664
 20
854.9489907218346
 30
0.0
 40
8.120426714762947
100
AcDbArc
 50
188.6656764141659
 51
250.5834255854835
  0
LINE
  5
536
330
1F
100
AcDbEntity
  8
0
 62
     1
100
AcDbLine
 10
-244.5293908824269
 20
824.9859970986015
 30
0.0
 11
-231.3129490388301
 21
824.9859970986015
 31
0.0
  0
LINE
  5
537
330
1F
100
AcDbEntity
  8
0
 62
     1
100
AcDbLine
 10
-74.00214596704046
 20
798.5569934342041
 30
0.0
 11
-94.14386295035502
 21
798.5569934342039
 31
0.0
  0
LINE
  5
538
330
1F
100
AcDbEntity
  8
0
 62
     1
100
AcDbLine
 10
-244.5063516839273
 20
822.8994973883493
 30
0.0
 11
-242.5905794176318
 21
822.8994973883491
 31
0.0
  0
LINE
  5
539
330
1F
100
AcDbEntity
  8
0
 62
     1
100
AcDbLine
 10
-77.43829611214232
 20
800.1798266859927
 30
0.0
 11
-85.17567930525903
 21
800.1798266859925
 31
0.0
  0
LINE
  5
53A
330
1F
100
AcDbEntity
  8
0
 62
     1
100
AcDbLine
 10
-244.5063516839273
 20
824.9859970986015
 30
0.0
 11
-244.5063516839273
 21
822.8994973883493
 31
0.0
  0
LINE
  5
53B
330
1F
100
AcDbEntity
  8
0
 62
     1
100
AcDbLine
 10
-231.3129490388301
 20
824.9859970986015
 30
0.0
 11
-231.3129490388301
 21
822.8994973883496
 31
0.0
  0
LINE
  5
53C
330
1F
100
AcDbEntity
  8
0
 62
     1
100
AcDbLine
 10
-225.1234525116001
 20
824.9859970986015
 30
0.0
 11
-225.1234525116001
 21
822.8994973883493
 31
0.0
  0
LINE
  5
53D
330
1F
100
AcDbEntity
  8
0
 62
     1
100
AcDbLine
 10
-214.861918257192
 20
824.9859970986014
 30
0.0
 11
-214.861918257192
 21
822.8994973883493
 31
0.0
  0
LINE
  5
53E
330
1F
100
AcDbEntity
  8
0
 62
     1
100
AcDbLine
 10
-209.9754734958783
 20
824.9859970986015
 30
0.0
 11
-209.9754734958783
 21
822.8994973883493
 31
0.0
  0
LINE
  5
53F
330
1F
100
AcDbEntity
  8
0
 62
     1
100
AcDbLine
 10
-197.5964804414184
 20
824.9859970986015
 30
0.0
 11
-197.5964804414184
 21
822.8994973883494
 31
0.0
  0
LINE
  5
540
330
1F
100
AcDbEntity
  8
0
 62
     1
100
AcDbLine
 10
-180.1681601962173
 20
824.9859970986015
 30
0.0
 11
-180.1681601962173
 21
822.8994973883493
 31
0.0
  0
LINE
  5
541
330
1F
100
AcDbEntity
  8
0
 62
     1
100
AcDbLine
 10
-168.6035741758924
 20
824.9859970986012
 30
0.0
 11
-168.6035741758924
 21
822.8994973883496
 31
0.0
  0
LINE
  5
542
330
1F
100
AcDbEntity
  8
0
 62
     1
100
AcDbLine
 10
-163.1852874638621
 20
824.9859970986014
 30
0.0
 11
-163.1852874638621
 21
822.8994973883493
 31
0.0
  0
LINE
  5
543
330
1F
100
AcDbEntity
  8
0
 62
     1
100
AcDbLine
 10
-136.3098425548901
 20
824.9859970986015
 30
0.0
 11
-136.3098425548901
 21
822.8994973883493
 31
0.0
  0
LINE
  5
544
330
1F
100
AcDbEntity
  8
0
 62
     1
100
AcDbLine
 10
-150.4805321070485
 20
824.9859970986015
 30
0.0
 11
-150.4805321070485
 21
822.8994973883493
 31
0.0
  0
LINE
  5
545
330
1F
100
AcDbEntity
  8
0
 62
     1
100
AcDbLine
 10
-146.0827320775165
 20
824.9859970986015
 30
0.0
 11
-146.0827320775165
 21
822.8994973883493
 31
0.0
  0
LINE
  5
548
330
1F
100
AcDbEntity
  8
0
 62
     1
100
AcDbLine
 10
-129.4363819655891
 20
824.9859970986015
 30
0.0
 11
-129.4363819655891
 21
822.8994973883493
 31
0.0
  0
LINE
  5
549
330
1F
100
AcDbEntity
  8
0
 62
     1
100
AcDbLine
 10
-117.2202687840549
 20
824.9859970986015
 30
0.0
 11
-117.2202687840549
 21
822.8994973883489
 31
0.0
  0
LINE
  5
54A
330
1F
100
AcDbEntity
  8
0
 62
     1
100
AcDbLine
 10
-111.84517929096
 20
824.9859970986015
 30
0.0
 11
-111.84517929096
 21
822.8994973883491
 31
0.0
  0
LINE
  5
54B
330
1F
100
AcDbEntity
  8
0
 62
     1
100
AcDbLine
 10
-102.5609345001148
 20
824.9859970986015
 30
0.0
 11
-102.5609345001148
 21
822.8994973883491
 31
0.0
  0
LINE
  5
54E
330
1F
100
AcDbEntity
  8
0
 62
     1
100
AcDbLine
 10
-240.7337040415691
 20
821.6424737256383
 30
0.0
 11
-231.4966998717682
 21
798.556993434204
 31
0.0
  0
LINE
  5
54F
330
1F
100
AcDbEntity
  8
0
 62
     1
100
AcDbLine
 10
-228.3784562755855
 20
798.556993434204
 30
0.0
 11
-218.4835514009352
 21
821.6861542188455
 31
0.0
  0
LINE
  5
550
330
1F
100
AcDbEntity
  8
0
 62
     1
100
AcDbLine
 10
-221.5678802645575
 20
821.5374825826648
 30
0.0
 11
-227.9655723334335
 21
805.0637043733315
 31
0.0
  0
LINE
  5
551
330
1F
100
AcDbEntity
  8
0
 62
     1
100
AcDbLine
 10
-227.9655723334335
 20
805.0637043733315
 30
0.0
 11
-234.2344642009355
 21
821.543962791083
 31
0.0
  0
LINE
  5
552
330
1F
100
AcDbEntity
  8
0
 62
     1
100
AcDbLine
 10
-205.9840293060657
 20
821.4768493776722
 30
0.0
 11
-199.0734102621304
 21
798.5569934342039
 31
0.0
  0
LINE
  5
553
330
1F
100
AcDbEntity
  8
0
 62
     1
100
AcDbLine
 10
-196.2013117737142
 20
798.556993434204
 30
0.0
 11
-189.9432150762704
 21
816.0982086429912
 31
0.0
  0
LINE
  5
554
330
1F
100
AcDbEntity
  8
0
 62
     1
100
AcDbLine
 10
-189.9432150762704
 20
816.0982086429912
 30
0.0
 11
-183.5845949380966
 21
798.556993434204
 31
0.0
  0
LINE
  5
555
330
1F
100
AcDbEntity
  8
0
 62
     1
100
AcDbLine
 10
-180.3454115539519
 20
798.556993434204
 30
0.0
 11
-172.6035200997656
 21
821.5380032510172
 31
0.0
  0
LINE
  5
556
330
1F
100
AcDbEntity
  8
0
 62
     1
100
AcDbLine
 10
-175.6115082677411
 20
821.6205245944658
 30
0.0
 11
-180.2065793124016
 21
805.8030604837215
 31
0.0
  0
LINE
  5
557
330
1F
100
AcDbEntity
  8
0
 62
     1
100
AcDbLine
 10
-180.2065793124016
 20
805.8030604837215
 30
0.0
 11
-186.601579309998
 21
822.8994973883493
 31
0.0
  0
LINE
  5
558
330
1F
100
AcDbEntity
  8
0
 62
     1
100
AcDbLine
 10
-189.8399834817284
 20
822.8994973883494
 30
0.0
 11
-195.506943759211
 21
806.4466944361186
 31
0.0
  0
LINE
  5
559
330
1F
100
AcDbEntity
  8
0
 62
     1
100
AcDbLine
 10
-195.506943759211
 20
806.4466944361186
 30
0.0
 11
-199.9638286361564
 21
821.6176311579515
 31
0.0
  0
LINE
  5
55B
330
1F
100
AcDbEntity
  8
0
 62
     1
100
AcDbLine
 10
-151.4635776155097
 20
821.4002232172532
 30
0.0
 11
-148.3056093057514
 21
815.9198618662255
 31
0.0
  0
LINE
  5
55C
330
1F
100
AcDbEntity
  8
0
 62
     1
100
AcDbLine
 10
-158.5523105373892
 20
821.9465840401086
 30
0.0
 11
-151.8781161377654
 21
811.085195831308
 31
0.0
  0
LINE
  5
55D
330
1F
100
AcDbEntity
  8
0
 62
     1
100
AcDbLine
 10
-139.981841598777
 20
822.1249728787562
 30
0.0
 11
-146.8079829508279
 21
813.3208701130651
 31
0.0
  0
LINE
  5
55E
330
1F
100
AcDbEntity
  8
0
 62
     1
100
AcDbLine
 10
-144.3261855909081
 20
821.3052076688677
 30
0.0
 11
-148.3056093057514
 21
815.9198618662255
 31
0.0
  0
LINE
  5
55F
330
1F
100
AcDbEntity
  8
0
 62
     1
100
AcDbLine
 10
-125.5214517239254
 20
821.9033246111488
 30
0.0
 11
-118.5566420006198
 21
809.9012838848686
 31
0.0
  0
LINE
  5
560
330
1F
100
AcDbEntity
  8
0
 62
     1
100
AcDbLine
 10
-118.5566420006198
 20
809.9012838848686
 30
0.0
 11
-118.5566420006198
 21
798.5569934342042
 31
0.0
  0
LINE
  5
561
330
1F
100
AcDbEntity
  8
0
 62
     1
100
AcDbLine
 10
-107.2587391778045
 20
821.8106922778826
 30
0.0
 11
-113.0954418414062
 21
810.406434906727
 31
0.0
  0
LINE
  5
562
330
1F
100
AcDbEntity
  8
0
 62
     1
100
AcDbLine
 10
-113.0954418414062
 20
810.406434906727
 30
0.0
 11
-113.0954418414062
 21
798.5569934342041
 31
0.0
  0
LINE
  5
563
330
1F
100
AcDbEntity
  8
0
 62
     1
100
AcDbLine
 10
-110.0356425337272
 20
821.4423236992912
 30
0.0
 11
-114.410174266216
 21
812.9321887216887
 31
0.0
  0
LINE
  5
564
330
1F
100
AcDbEntity
  8
0
 62
     1
100
AcDbLine
 10
-114.410174266216
 20
812.9321887216887
 30
0.0
 11
-118.7132833801959
 21
821.4485195832391
 31
0.0
  0
LINE
  5
565
330
1F
100
AcDbEntity
  8
0
 62
     1
100
AcDbLine
 10
-93.23483212840665
 20
824.9859970986015
 30
0.0
 11
-94.8517967777534
 21
817.5745574176151
 31
0.0
  0
LINE
  5
566
330
1F
100
AcDbEntity
  8
0
 62
     1
100
AcDbLine
 10
-94.8517967777534
 20
817.5745574176151
 30
0.0
 11
-93.03139587251463
 21
817.5745574176151
 31
0.0
  0
LINE
  5
567
330
1F
100
AcDbEntity
  8
0
 62
     1
100
AcDbLine
 10
-93.03139587251463
 20
817.5745574176151
 30
0.0
 11
-90.95713868865159
 21
821.78359172552
 31
0.0
  0
LINE
  5
568
330
1F
100
AcDbEntity
  8
0
 62
     1
100
AcDbLine
 10
-72.37182905804536
 20
824.9859970986012
 30
0.0
 11
-86.03825348028818
 21
801.6857573063079
 31
0.0
  0
LINE
  5
569
330
1F
100
AcDbEntity
  8
0
 62
     1
100
AcDbLine
 10
-80.64517849538646
 20
821.3691094531531
 30
0.0
 11
-94.14386295035502
 21
799.793245331192
 31
0.0
  0
LINE
  5
56A
330
1F
100
AcDbEntity
  8
0
 62
     1
100
AcDbLine
 10
-94.14386295035502
 20
799.793245331192
 30
0.0
 11
-94.14386295035502
 21
798.5569934342039
 31
0.0
  0
LINE
  5
56B
330
1F
100
AcDbEntity
  8
0
 62
     1
100
AcDbLine
 10
-74.00214596704043
 20
798.5569934342042
 30
0.0
 11
-70.68092675523167
 21
806.4612375253918
 31
0.0
  0
LINE
  5
56C
330
1F
100
AcDbEntity
  8
0
 62
     1
100
AcDbLine
 10
-70.68092675523167
 20
806.4612375253918
 30
0.0
 11
-72.90586091091199
 21
806.4612375253918
 31
0.0
  0
LINE
  5
56D
330
1F
100
AcDbEntity
  8
0
 62
     1
100
AcDbLine
 10
-72.90586091091199
 20
806.4612375253918
 30
0.0
 11
-75.67111533640548
 21
801.2433054070747
 31
0.0
  0
LINE
  5
56E
330
1F
100
AcDbEntity
  8
0
 62
     1
100
AcDbLine
 10
-228.3784562755855
 20
798.556993434204
 30
0.0
 11
-231.4966998717682
 21
798.556993434204
 31
0.0
  0
LINE
  5
56F
330
1F
100
AcDbEntity
  8
0
 62
     1
100
AcDbLine
 10
-233.2998010797272
 20
822.8994973883493
 30
0.0
 11
-231.3129490388301
 21
822.8994973883494
 31
0.0
  0
LINE
  5
570
330
1F
100
AcDbEntity
  8
0
 62
     1
100
AcDbLine
 10
-225.1234525116001
 20
822.8994973883493
 30
0.0
 11
-222.5000526093871
 21
822.8994973883494
 31
0.0
  0
LINE
  5
571
330
1F
100
AcDbEntity
  8
0
 62
     1
100
AcDbLine
 10
-225.1234525116001
 20
824.9859970986015
 30
0.0
 11
-214.861918257192
 21
824.9859970986015
 31
0.0
  0
LINE
  5
572
330
1F
100
AcDbEntity
  8
0
 62
     1
100
AcDbLine
 10
-216.6447553189745
 20
822.8994973883494
 30
0.0
 11
-214.8619182571919
 21
822.8994973883493
 31
0.0
  0
LINE
  5
573
330
1F
100
AcDbEntity
  8
0
 62
     1
100
AcDbLine
 10
-209.9754734958783
 20
822.8994973883493
 30
0.0
 11
-207.8988830029379
 21
822.8994973883493
 31
0.0
  0
LINE
  5
574
330
1F
100
AcDbEntity
  8
0
 62
     1
100
AcDbLine
 10
-209.9754734958783
 20
824.9859970986014
 30
0.0
 11
-197.5964804414184
 21
824.9859970986015
 31
0.0
  0
LINE
  5
57C
330
1F
100
AcDbEntity
  8
0
 62
     1
100
AcDbLine
 10
-189.8399834817284
 20
822.8994973883493
 30
0.0
 11
-186.601579309998
 21
822.8994973883493
 31
0.0
  0
LINE
  5
57D
330
1F
100
AcDbEntity
  8
0
 62
     1
100
AcDbLine
 10
-199.0043749227543
 20
822.8994973883496
 30
0.0
 11
-197.5964804414184
 21
822.8994973883493
 31
0.0
  0
LINE
  5
57E
330
1F
100
AcDbEntity
  8
0
 62
     1
100
AcDbLine
 10
-180.1681601962173
 20
824.9859970986015
 30
0.0
 11
-168.6035741758924
 21
824.9859970986014
 31
0.0
  0
LINE
  5
57F
330
1F
100
AcDbEntity
  8
0
 62
     1
100
AcDbLine
 10
-180.1681601962173
 20
822.8994973883493
 30
0.0
 11
-176.5718072734017
 21
822.8994973883494
 31
0.0
  0
LINE
  5
580
330
1F
100
AcDbEntity
  8
0
 62
     1
100
AcDbLine
 10
-170.7081810104891
 20
822.8994973883496
 30
0.0
 11
-168.6035741758924
 21
822.8994973883494
 31
0.0
  0
LINE
  5
581
330
1F
100
AcDbEntity
  8
0
 62
     1
100
AcDbLine
 10
-163.1852874638621
 20
822.8994973883494
 30
0.0
 11
-160.2563086429361
 21
822.8994973883493
 31
0.0
  0
LINE
  5
582
330
1F
100
AcDbEntity
  8
0
 62
     1
100
AcDbLine
 10
-163.1852874638621
 20
824.9859970986015
 30
0.0
 11
-150.4805321070485
 21
824.9859970986014
 31
0.0
  0
LINE
  5
583
330
1F
100
AcDbEntity
  8
0
 62
     1
100
AcDbLine
 10
-196.2013117737141
 20
798.556993434204
 30
0.0
 11
-199.0734102621304
 21
798.556993434204
 31
0.0
  0
LINE
  5
584
330
1F
100
AcDbEntity
  8
0
 62
     1
100
AcDbLine
 10
-180.3454115539519
 20
798.556993434204
 30
0.0
 11
-183.5845949380966
 21
798.556993434204
 31
0.0
  0
LINE
  5
585
330
1F
100
AcDbEntity
  8
0
 62
     1
100
AcDbLine
 10
-160.9453961318319
 20
800.1798266859925
 30
0.0
 11
-163.1852874638621
 21
800.1798266859927
 31
0.0
  0
LINE
  5
586
330
1F
100
AcDbEntity
  8
0
 62
     1
100
AcDbLine
 10
-158.2549539592638
 20
798.556993434204
 30
0.0
 11
-163.1852874638621
 21
798.556993434204
 31
0.0
  0
LINE
  5
588
330
1F
100
AcDbEntity
  8
0
 62
     1
100
AcDbLine
 10
-136.3098425548901
 20
798.556993434204
 30
0.0
 11
-144.1796841630796
 21
798.5569934342041
 31
0.0
  0
LINE
  5
589
330
1F
100
AcDbEntity
  8
0
 62
     1
100
AcDbLine
 10
-136.3098425548901
 20
800.1798266859925
 30
0.0
 11
-138.0798542616876
 21
800.1798266859925
 31
0.0
  0
LINE
  5
58B
330
1F
100
AcDbEntity
  8
0
 62
     1
100
AcDbLine
 10
-163.1852874638621
 20
800.1798266859927
 30
0.0
 11
-163.1852874638621
 21
798.5569934342041
 31
0.0
  0
LINE
  5
58C
330
1F
100
AcDbEntity
  8
0
 62
     1
100
AcDbLine
 10
-136.3098425548901
 20
800.1798266859925
 30
0.0
 11
-136.3098425548901
 21
798.5569934342041
 31
0.0
  0
LINE
  5
58D
330
1F
100
AcDbEntity
  8
0
 62
     1
100
AcDbLine
 10
-150.4028340779143
 20
808.684365077798
 30
0.0
 11
-158.2549539592639
 21
798.5569934342039
 31
0.0
  0
LINE
  5
58E
330
1F
100
AcDbEntity
  8
0
 62
     1
100
AcDbLine
 10
-150.4028340779144
 20
808.684365077798
 30
0.0
 11
-144.1796841630796
 21
798.5569934342041
 31
0.0
  0
LINE
  5
58F
330
1F
100
AcDbEntity
  8
0
 62
     1
100
AcDbLine
 10
-151.8781161377654
 20
811.0851958313082
 30
0.0
 11
-159.3368940593203
 21
800.9912472470293
 31
0.0
  0
LINE
  5
590
330
1F
100
AcDbEntity
  8
0
 62
     1
100
AcDbLine
 10
-146.8079829508278
 20
813.3208701130651
 30
0.0
 11
-139.8127423735705
 21
801.1812783438003
 31
0.0
  0
LINE
  5
591
330
1F
100
AcDbEntity
  8
0
 62
     1
100
AcDbLine
 10
-150.5971335595682
 20
822.8994973883493
 30
0.0
 11
-150.4805321070485
 21
822.8994973883493
 31
0.0
  0
LINE
  5
592
330
1F
100
AcDbEntity
  8
0
 62
     1
100
AcDbLine
 10
-146.0827320775165
 20
824.9859970986015
 30
0.0
 11
-136.3098425548901
 21
824.9859970986015
 31
0.0
  0
LINE
  5
593
330
1F
100
AcDbEntity
  8
0
 62
     1
100
AcDbLine
 10
-146.0827320775165
 20
822.8994973883493
 30
0.0
 11
-145.1304366271638
 21
822.8994973883493
 31
0.0
  0
LINE
  5
594
330
1F
100
AcDbEntity
  8
0
 62
     1
100
AcDbLine
 10
-129.4363819655891
 20
824.9859970986015
 30
0.0
 11
-117.2202687840549
 21
824.9859970986015
 31
0.0
  0
LINE
  5
595
330
1F
100
AcDbEntity
  8
0
 62
     1
100
AcDbLine
 10
-129.4363819655891
 20
822.8994973883491
 30
0.0
 11
-127.2512872382929
 21
822.8994973883493
 31
0.0
  0
LINE
  5
596
330
1F
100
AcDbEntity
  8
0
 62
     1
100
AcDbLine
 10
-138.4012689739314
 20
822.8994973883493
 30
0.0
 11
-136.3098425548901
 21
822.8994973883493
 31
0.0
  0
LINE
  5
598
330
1F
100
AcDbEntity
  8
0
 62
     1
100
AcDbLine
 10
-117.8207482160156
 20
822.8994973883491
 30
0.0
 11
-117.2202687840549
 21
822.8994973883489
 31
0.0
  0
LINE
  5
599
330
1F
100
AcDbEntity
  8
0
 62
     1
100
AcDbLine
 10
-111.84517929096
 20
822.8994973883489
 30
0.0
 11
-110.9250199665606
 21
822.8994973883489
 31
0.0
  0
LINE
  5
59A
330
1F
100
AcDbEntity
  8
0
 62
     1
100
AcDbLine
 10
-111.84517929096
 20
824.9859970986015
 30
0.0
 11
-102.5609345001148
 21
824.9859970986015
 31
0.0
  0
LINE
  5
59B
330
1F
100
AcDbEntity
  8
0
 62
     1
100
AcDbLine
 10
-105.4783673421231
 20
822.8994973883489
 30
0.0
 11
-102.5609345001148
 21
822.8994973883491
 31
0.0
  0
LINE
  5
59C
330
1F
100
AcDbEntity
  8
0
 62
     1
100
AcDbLine
 10
-89.16315507585499
 20
822.8994973883493
 30
0.0
 11
-81.49293355328836
 21
822.8994973883493
 31
0.0
  0
LINE
  5
59D
330
1F
100
AcDbEntity
  8
0
 62
     1
100
AcDbLine
 10
-93.23483212840669
 20
824.9859970986015
 30
0.0
 11
-72.37182905804534
 21
824.9859970986015
 31
0.0
  0
LINE
  5
59E
330
1F
100
AcDbEntity
  8
0
 62
     1
100
AcDbLine
 10
-113.0954418414062
 20
798.5569934342041
 30
0.0
 11
-118.5566420006198
 21
798.5569934342041
 31
0.0
  0
ARC
  5
5A0
330
1F
100
AcDbEntity
  8
0
 62
     1
100
AcDbCircle
 10
-242.5905794176319
 20
820.8994973883491
 30
0.0
 40
2.0
100
AcDbArc
 50
21.80742580766353
 51
89.99999999999801
  0
ARC
  5
5A2
330
1F
100
AcDbEntity
  8
0
 62
     1
100
AcDbCircle
 10
-233.2998010797272
 20
821.8994973883493
 30
0.0
 40
1.0
100
AcDbArc
 50
90.0000000000019
 51
200.8262121625315
  0
ARC
  5
5A3
330
1F
100
AcDbEntity
  8
0
 62
     1
100
AcDbCircle
 10
-222.5000526093871
 20
821.8994973883495
 30
0.0
 40
1.0
100
AcDbArc
 50
338.7760161985239
 51
90.00000000000161
  0
ARC
  5
5A4
330
1F
100
AcDbEntity
  8
0
 62
     1
100
AcDbCircle
 10
-199.0043749227542
 20
821.8994973883495
 30
0.0
 40
1.0
100
AcDbArc
 50
90.00000000000238
 51
196.3716187955287
  0
ARC
  5
5A5
330
1F
100
AcDbEntity
  8
0
 62
     1
100
AcDbCircle
 10
-176.5718072734017
 20
821.8994973883495
 30
0.0
 40
1.0
100
AcDbArc
 50
343.8010925890097
 51
90.0
  0
ARC
  5
5A6
330
1F
100
AcDbEntity
  8
0
 62
     1
100
AcDbCircle
 10
-150.5971335595682
 20
821.8994973883493
 30
0.0
 40
1.0
100
AcDbArc
 50
90.0
 51
209.9519911532368
  0
ARC
  5
5A7
330
1F
100
AcDbEntity
  8
0
 62
     1
100
AcDbCircle
 10
-145.1304366271638
 20
821.8994973883493
 30
0.0
 40
1.0
100
AcDbArc
 50
323.5379856397624
 51
90.0
  0
ARC
  5
5A8
330
1F
100
AcDbEntity
  8
0
 62
     1
100
AcDbCircle
 10
-117.8207482160157
 20
821.8994973883491
 30
0.0
 40
1.0
100
AcDbArc
 50
89.99999999999706
 51
206.8064362339335
  0
ARC
  5
5A9
330
1F
100
AcDbEntity
  8
0
 62
     1
100
AcDbCircle
 10
-110.9250199665606
 20
821.8994973883489
 30
0.0
 40
1.0
100
AcDbArc
 50
332.7951193412388
 51
90.00000000000254
  0
ARC
  5
5AA
330
1F
100
AcDbEntity
  8
0
 62
     1
100
AcDbCircle
 10
-216.6447553189745
 20
820.8994973883495
 30
0.0
 40
2.0
100
AcDbArc
 50
90.0
 51
156.8382376906255
  0
ARC
  5
5AB
330
1F
100
AcDbEntity
  8
0
 62
     1
100
AcDbCircle
 10
-207.8988830029379
 20
820.8994973883493
 30
0.0
 40
2.0
100
AcDbArc
 50
16.77870635035525
 51
90.0
  0
ARC
  5
5AC
330
1F
100
AcDbEntity
  8
0
 62
     1
100
AcDbCircle
 10
-170.7081810104891
 20
820.8994973883497
 30
0.0
 40
2.0
100
AcDbArc
 50
90.0
 51
161.3822486373235
  0
ARC
  5
5AD
330
1F
100
AcDbEntity
  8
0
 62
     1
100
AcDbCircle
 10
-160.2563086429361
 20
820.8994973883493
 30
0.0
 40
2.0
100
AcDbArc
 50
31.57023233676932
 51
90.0
  0
ARC
  5
5AE
330
1F
100
AcDbEntity
  8
0
 62
     1
100
AcDbCircle
 10
-160.9453961318319
 20
802.1798266859926
 30
0.0
 40
2.0
100
AcDbArc
 50
270.0
 51
323.5379856397634
  0
ARC
  5
5AF
330
1F
100
AcDbEntity
  8
0
 62
     1
100
AcDbCircle
 10
-138.0798542616876
 20
802.1798266859926
 30
0.0
 40
2.0
100
AcDbArc
 50
209.9519911532364
 51
270.0
  0
ARC
  5
5B0
330
1F
100
AcDbEntity
  8
0
 62
     1
100
AcDbCircle
 10
-138.4012689739313
 20
820.8994973883491
 30
0.0
 40
2.0
100
AcDbArc
 50
90.00000000000211
 51
142.2122758869961
  0
ARC
  5
5B1
330
1F
100
AcDbEntity
  8
0
 62
     1
100
AcDbCircle
 10
-127.2512872382929
 20
820.8994973883493
 30
0.0
 40
2.0
100
AcDbArc
 50
30.12668447426009
 51
90.00000000000193
  0
ARC
  5
5B2
330
1F
100
AcDbEntity
  8
0
 62
     1
100
AcDbCircle
 10
-105.4783673421231
 20
820.8994973883489
 30
0.0
 40
2.0
100
AcDbArc
 50
90.0
 51
152.8966185339432
  0
ARC
  5
5B3
330
1F
100
AcDbEntity
  8
0
 62
     1
100
AcDbCircle
 10
-89.16315507585499
 20
820.8994973883493
 30
0.0
 40
2.0
100
AcDbArc
 50
90.00000000000062
 51
153.7654283334283
  0
ARC
  5
5B4
330
1F
100
AcDbEntity
  8
0
 62
     1
100
AcDbCircle
 10
-77.43829611214232
 20
802.1798266859926
 30
0.0
 40
2.0
100
AcDbArc
 50
270.0000000000006
 51
332.078550006665
  0
ARC
  5
5B5
330
1F
100
AcDbEntity
  8
0
 62
     1
100
AcDbCircle
 10
-85.17567930525904
 20
801.1798266859925
 30
0.0
 40
1.0
100
AcDbArc
 50
149.6068514826786
 51
270.0000000000007
  0
ARC
  5
5B6
330
1F
100
AcDbEntity
  8
0
 62
     1
100
AcDbCircle
 10
-81.49293355328836
 20
821.8994973883493
 30
0.0
 40
1.0
100
AcDbArc
 50
327.9683302069414
 51
89.99999999999932
  0
LINE
  5
5D2
330
1F
100
AcDbEntity
  8
0
 62
     1
100
AcDbLine
 10
-178.7861321922746
 20
922.0793791793385
 30
0.0
 11
-178.7861321922746
 21
914.8242361239528
 31
0.0
  0
ARC
  5
5D3
330
1F
100
AcDbEntity
  8
0
 62
     1
100
AcDbCircle
 10
-177.7861321922746
 20
927.6911029366766
 30
0.0
 40
1.0
100
AcDbArc
 50
180.0
 51
313.2773380357186
  0
ARC
  5
5D4
330
1F
100
AcDbEntity
  8
0
 62
     1
100
AcDbCircle
 10
-177.7861321922746
 20
922.0793791793385
 30
0.0
 40
1.0
100
AcDbArc
 50
39.03976259170633
 51
179.9999999999998
  0
ENDSEC
  0
SECTION
  2
OBJECTS
  0
DICTIONARY
  5
C
330
0
100
AcDbDictionary
281
     1
  3
ACAD_COLOR
350
6B
  3
ACAD_GROUP
350
D
  3
ACAD_IMAGE_DICT
350
17E
  3
ACAD_IMAGE_VARS
350
17F
  3
ACAD_LAYOUT
350
1A
  3
ACAD_MATERIAL
350
6A
  3
ACAD_MLINESTYLE
350
17
  3
ACAD_PLOTSETTINGS
350
19
  3
ACAD_PLOTSTYLENAME
350
E
  3
AcDbVariableDictionary
350
5E
  3
ASE_INDEX_DICTIONARY
350
175
  0
DICTIONARY
  5
6B
102
{ACAD_REACTORS
330
C
102
}
330
C
100
AcDbDictionary
281
     1
  0
DICTIONARY
  5
D
102
{ACAD_REACTORS
330
C
102
}
330
C
100
AcDbDictionary
281
     1
  0
DICTIONARY
  5
17E
102
{ACAD_REACTORS
330
C
102
}
330
C
100
AcDbDictionary
281
     1
  3
a
350
180
  0
RASTERVARIABLES
  5
17F
102
{ACAD_REACTORS
330
C
102
}
330
C
100
AcDbRasterVariables
 90
        0
 70
     1
 71
     1
 72
     1
  0
DICTIONARY
  5
1A
102
{ACAD_REACTORS
330
C
102
}
330
C
100
AcDbDictionary
281
     1
  3
Layout1
350
51
  3
Layout2
350
56
  3
Model
350
22
  0
DICTIONARY
  5
6A
102
{ACAD_REACTORS
330
C
102
}
330
C
100
AcDbDictionary
281
     1
  0
DICTIONARY
  5
17
102
{ACAD_REACTORS
330
C
102
}
330
C
100
AcDbDictionary
281
     1
  3
Standard
350
18
  0
DICTIONARY
  5
19
102
{ACAD_REACTORS
330
C
102
}
330
C
100
AcDbDictionary
281
     1
  0
ACDBDICTIONARYWDFLT
  5
E
102
{ACAD_REACTORS
330
C
102
}
330
C
100
AcDbDictionary
281
     1
  3
Normal
350
F
100
AcDbDictionaryWithDefault
340
F
  0
DICTIONARY
  5
5E
102
{ACAD_REACTORS
330
C
102
}
330
C
100
AcDbDictionary
281
     1
  3
DIMASSOC
350
5F
  3
HIDETEXT
350
63
  0
DICTIONARY
  5
175
102
{ACAD_REACTORS
330
C
102
}
330
C
100
AcDbDictionary
281
     1
  3
ASEBlockHierarchyIndexRecord
350
177
1001
DCO15
1040
1688369251.187
  0
IMAGEDEF
  5
180
102
{ACAD_REACTORS
330
17E
330
181
102
}
330
17E
100
AcDbRasterImageDef
 90
        0
  1
C:\Documents and Settings\perkele\Desktop\a.bmp
 10
1287.0
 20
855.0
 11
0.0007770007770008
 21
0.0007770007770008
280
     1
281
     0
  0
LAYOUT
  5
51
102
{ACAD_REACTORS
330
1A
102
}
330
1A
100
AcDbPlotSettings
  1

  2
None
  4

  6

 40
0.0
 41
0.0
 42
0.0
 43
0.0
 44
0.0
 45
0.0
 46
0.0
 47
0.0
 48
0.0
 49
0.0
140
0.0
141
0.0
142
1.0
143
1.0
 70
   688
 72
     0
 73
     0
 74
     5
  7

 75
    16
147
1.0
 76
     0
 77
     2
 78
   300
148
0.0
149
0.0
100
AcDbLayout
  1
Layout1
 70
     1
 71
     1
 10
0.0
 20
0.0
 11
12.0
 21
9.0
 12
0.0
 22
0.0
 32
0.0
 14
0.0
 24
0.0
 34
0.0
 15
0.0
 25
0.0
 35
0.0
146
0.0
 13
0.0
 23
0.0
 33
0.0
 16
1.0
 26
0.0
 36
0.0
 17
0.0
 27
1.0
 37
0.0
 76
     0
330
50
  0
LAYOUT
  5
56
102
{ACAD_REACTORS
330
1A
102
}
330
1A
100
AcDbPlotSettings
  1

  2
None
  4

  6

 40
0.0
 41
0.0
 42
0.0
 43
0.0
 44
0.0
 45
0.0
 46
0.0
 47
0.0
 48
0.0
 49
0.0
140
0.0
141
0.0
142
1.0
143
1.0
 70
   688
 72
     0
 73
     0
 74
     5
  7

 75
    16
147
1.0
 76
     0
 77
     2
 78
   300
148
0.0
149
0.0
100
AcDbLayout
  1
Layout2
 70
     1
 71
     2
 10
0.0
 20
0.0
 11
12.0
 21
9.0
 12
0.0
 22
0.0
 32
0.0
 14
0.0
 24
0.0
 34
0.0
 15
0.0
 25
0.0
 35
0.0
146
0.0
 13
0.0
 23
0.0
 33
0.0
 16
1.0
 26
0.0
 36
0.0
 17
0.0
 27
1.0
 37
0.0
 76
     0
330
55
  0
LAYOUT
  5
22
102
{ACAD_REACTORS
330
1A
102
}
330
1A
100
AcDbPlotSettings
  1

  2
none_device
  4
ANSI_A_(8.50_x_11.00_Inches)
  6

 40
6.349999904632568
 41
19.04999923706055
 42
6.350006103515625
 43
19.04998779296875
 44
215.8999938964844
 45
279.3999938964844
 46
0.0
 47
0.0
 48
0.0
 49
0.0
140
0.0
141
0.0
142
1.0
143
78.436453180766
 70
 11952
 72
     0
 73
     1
 74
     0
  7

 75
     0
147
0.0127491741332998
 76
     0
 77
     2
 78
   300
148
0.0
149
0.0
100
AcDbLayout
  1
Model
 70
     1
 71
     0
 10
0.0
 20
0.0
 11
12.0
 21
9.0
 12
0.0
 22
0.0
 32
0.0
 14
0.0
 24
0.0
 34
0.0
 15
0.0
 25
0.0
 35
0.0
146
0.0
 13
0.0
 23
0.0
 33
0.0
 16
1.0
 26
0.0
 36
0.0
 17
0.0
 27
1.0
 37
0.0
 76
     0
330
1F
  0
MLINESTYLE
  5
18
102
{ACAD_REACTORS
330
17
102
}
330
17
100
AcDbMlineStyle
  2
STANDARD
 70
     0
  3

 62
   256
 51
90.0
 52
90.0
 71
     2
 49
0.5
 62
   256
  6
BYLAYER
 49
-0.5
 62
   256
  6
BYLAYER
  0
ACDBPLACEHOLDER
  5
F
102
{ACAD_REACTORS
330
E
102
}
330
E
  0
DICTIONARYVAR
  5
5F
102
{ACAD_REACTORS
330
5E
102
}
330
5E
100
DictionaryVariables
280
     0
  1
2
  0
DICTIONARYVAR
  5
63
102
{ACAD_REACTORS
330
5E
102
}
330
5E
100
DictionaryVariables
280
     0
  1
1
  0
XRECORD
  5
177
102
{ACAD_REACTORS
330
175
102
}
330
175
100
AcDbXrecord
280
     1
  0
ENDSEC
  0
EOF
