G04 #@! TF.GenerationSoftware,KiCad,Pcbnew,(5.1.5)-3*
G04 #@! TF.CreationDate,2020-08-03T18:05:54+02:00*
G04 #@! TF.ProjectId,MK7 Gripper,4d4b3720-4772-4697-9070-65722e6b6963,rev?*
G04 #@! TF.SameCoordinates,Original*
G04 #@! TF.FileFunction,Legend,Bot*
G04 #@! TF.FilePolarity,Positive*
%FSLAX46Y46*%
G04 Gerber Fmt 4.6, Leading zero omitted, Abs format (unit mm)*
G04 Created by KiCad (PCBNEW (5.1.5)-3) date 2020-08-03 18:05:54*
%MOMM*%
%LPD*%
G04 APERTURE LIST*
%ADD10C,0.300000*%
%ADD11C,0.120000*%
%ADD12C,0.150000*%
G04 APERTURE END LIST*
D10*
X103060428Y-121344428D02*
X101917571Y-121344428D01*
X100520428Y-121392142D02*
X99377571Y-121392142D01*
X99949000Y-121963571D02*
X99949000Y-120820714D01*
D11*
X97039000Y-122739000D02*
X99539000Y-122739000D01*
X97039000Y-125239000D02*
X97039000Y-122739000D01*
X104059000Y-124539000D02*
X104059000Y-123039000D01*
X105059000Y-124539000D02*
X104059000Y-124539000D01*
X98339000Y-124539000D02*
X98339000Y-123039000D01*
X97339000Y-124539000D02*
X98339000Y-124539000D01*
X104559000Y-125349000D02*
X105059000Y-125349000D01*
X104559000Y-126559000D02*
X104559000Y-125349000D01*
X97839000Y-126559000D02*
X104559000Y-126559000D01*
X97839000Y-125349000D02*
X97839000Y-126559000D01*
X97339000Y-125349000D02*
X97839000Y-125349000D01*
X105059000Y-127059000D02*
X97339000Y-127059000D01*
X105059000Y-123039000D02*
X105059000Y-127059000D01*
X97339000Y-123039000D02*
X105059000Y-123039000D01*
X97339000Y-127059000D02*
X97339000Y-123039000D01*
D12*
X106632333Y-125817380D02*
X106632333Y-126531666D01*
X106679952Y-126674523D01*
X106775190Y-126769761D01*
X106918047Y-126817380D01*
X107013285Y-126817380D01*
X105727571Y-126150714D02*
X105727571Y-126817380D01*
X105965666Y-125769761D02*
X106203761Y-126484047D01*
X105584714Y-126484047D01*
M02*
