G04 #@! TF.GenerationSoftware,KiCad,Pcbnew,(5.1.5)-3*
G04 #@! TF.CreationDate,2020-08-03T18:05:54+02:00*
G04 #@! TF.ProjectId,MK7 Gripper,4d4b3720-4772-4697-9070-65722e6b6963,rev?*
G04 #@! TF.SameCoordinates,Original*
G04 #@! TF.FileFunction,Soldermask,Top*
G04 #@! TF.FilePolarity,Negative*
%FSLAX46Y46*%
G04 Gerber Fmt 4.6, Leading zero omitted, Abs format (unit mm)*
G04 Created by KiCad (PCBNEW (5.1.5)-3) date 2020-08-03 18:05:54*
%MOMM*%
%LPD*%
G04 APERTURE LIST*
%ADD10C,0.100000*%
G04 APERTURE END LIST*
D10*
G36*
X175552632Y-121707677D02*
G01*
X175858005Y-121834167D01*
X176289868Y-122013050D01*
X176953362Y-122456383D01*
X177517617Y-123020638D01*
X177960950Y-123684132D01*
X178136582Y-124108146D01*
X178266323Y-124421368D01*
X178422000Y-125204010D01*
X178422000Y-126001990D01*
X178266323Y-126784632D01*
X178202095Y-126939691D01*
X177960950Y-127521868D01*
X177517617Y-128185362D01*
X176953362Y-128749617D01*
X176289868Y-129192950D01*
X175858005Y-129371833D01*
X175552632Y-129498323D01*
X174769990Y-129654000D01*
X173972010Y-129654000D01*
X173189368Y-129498323D01*
X172883995Y-129371833D01*
X172452132Y-129192950D01*
X171788638Y-128749617D01*
X171224383Y-128185362D01*
X170781050Y-127521868D01*
X170539905Y-126939691D01*
X170475677Y-126784632D01*
X170320000Y-126001990D01*
X170320000Y-125204010D01*
X170475677Y-124421368D01*
X170605418Y-124108146D01*
X170781050Y-123684132D01*
X171224383Y-123020638D01*
X171788638Y-122456383D01*
X172452132Y-122013050D01*
X172883995Y-121834167D01*
X173189368Y-121707677D01*
X173972010Y-121552000D01*
X174769990Y-121552000D01*
X175552632Y-121707677D01*
G37*
G36*
X158007499Y-126732445D02*
G01*
X158044995Y-126743820D01*
X158079554Y-126762292D01*
X158109847Y-126787153D01*
X158134708Y-126817446D01*
X158153180Y-126852005D01*
X158164555Y-126889501D01*
X158169000Y-126934638D01*
X158169000Y-127573362D01*
X158164555Y-127618499D01*
X158153180Y-127655995D01*
X158134708Y-127690554D01*
X158109847Y-127720847D01*
X158079554Y-127745708D01*
X158044995Y-127764180D01*
X158007499Y-127775555D01*
X157962362Y-127780000D01*
X157223638Y-127780000D01*
X157178501Y-127775555D01*
X157141005Y-127764180D01*
X157106446Y-127745708D01*
X157076153Y-127720847D01*
X157051292Y-127690554D01*
X157032820Y-127655995D01*
X157021445Y-127618499D01*
X157017000Y-127573362D01*
X157017000Y-126934638D01*
X157021445Y-126889501D01*
X157032820Y-126852005D01*
X157051292Y-126817446D01*
X157076153Y-126787153D01*
X157106446Y-126762292D01*
X157141005Y-126743820D01*
X157178501Y-126732445D01*
X157223638Y-126728000D01*
X157962362Y-126728000D01*
X158007499Y-126732445D01*
G37*
G36*
X156257499Y-126732445D02*
G01*
X156294995Y-126743820D01*
X156329554Y-126762292D01*
X156359847Y-126787153D01*
X156384708Y-126817446D01*
X156403180Y-126852005D01*
X156414555Y-126889501D01*
X156419000Y-126934638D01*
X156419000Y-127573362D01*
X156414555Y-127618499D01*
X156403180Y-127655995D01*
X156384708Y-127690554D01*
X156359847Y-127720847D01*
X156329554Y-127745708D01*
X156294995Y-127764180D01*
X156257499Y-127775555D01*
X156212362Y-127780000D01*
X155473638Y-127780000D01*
X155428501Y-127775555D01*
X155391005Y-127764180D01*
X155356446Y-127745708D01*
X155326153Y-127720847D01*
X155301292Y-127690554D01*
X155282820Y-127655995D01*
X155271445Y-127618499D01*
X155267000Y-127573362D01*
X155267000Y-126934638D01*
X155271445Y-126889501D01*
X155282820Y-126852005D01*
X155301292Y-126817446D01*
X155326153Y-126787153D01*
X155356446Y-126762292D01*
X155391005Y-126743820D01*
X155428501Y-126732445D01*
X155473638Y-126728000D01*
X156212362Y-126728000D01*
X156257499Y-126732445D01*
G37*
G36*
X152008000Y-127691000D02*
G01*
X150846000Y-127691000D01*
X150846000Y-125039000D01*
X152008000Y-125039000D01*
X152008000Y-127691000D01*
G37*
G36*
X154208000Y-127691000D02*
G01*
X153046000Y-127691000D01*
X153046000Y-125039000D01*
X154208000Y-125039000D01*
X154208000Y-127691000D01*
G37*
G36*
X133633564Y-125354389D02*
G01*
X133824833Y-125433615D01*
X133824835Y-125433616D01*
X133996973Y-125548635D01*
X134143365Y-125695027D01*
X134257606Y-125866000D01*
X134258385Y-125867167D01*
X134337611Y-126058436D01*
X134378000Y-126261484D01*
X134378000Y-126468516D01*
X134337611Y-126671564D01*
X134282327Y-126805031D01*
X134258384Y-126862835D01*
X134143365Y-127034973D01*
X133996973Y-127181365D01*
X133824835Y-127296384D01*
X133824834Y-127296385D01*
X133824833Y-127296385D01*
X133633564Y-127375611D01*
X133430516Y-127416000D01*
X133223484Y-127416000D01*
X133020436Y-127375611D01*
X132829167Y-127296385D01*
X132829166Y-127296385D01*
X132829165Y-127296384D01*
X132657027Y-127181365D01*
X132510635Y-127034973D01*
X132395616Y-126862835D01*
X132371673Y-126805031D01*
X132316389Y-126671564D01*
X132276000Y-126468516D01*
X132276000Y-126261484D01*
X132316389Y-126058436D01*
X132395615Y-125867167D01*
X132396395Y-125866000D01*
X132510635Y-125695027D01*
X132657027Y-125548635D01*
X132829165Y-125433616D01*
X132829167Y-125433615D01*
X133020436Y-125354389D01*
X133223484Y-125314000D01*
X133430516Y-125314000D01*
X133633564Y-125354389D01*
G37*
G36*
X140133564Y-125354389D02*
G01*
X140324833Y-125433615D01*
X140324835Y-125433616D01*
X140496973Y-125548635D01*
X140643365Y-125695027D01*
X140757606Y-125866000D01*
X140758385Y-125867167D01*
X140837611Y-126058436D01*
X140878000Y-126261484D01*
X140878000Y-126468516D01*
X140837611Y-126671564D01*
X140782327Y-126805031D01*
X140758384Y-126862835D01*
X140643365Y-127034973D01*
X140496973Y-127181365D01*
X140324835Y-127296384D01*
X140324834Y-127296385D01*
X140324833Y-127296385D01*
X140133564Y-127375611D01*
X139930516Y-127416000D01*
X139723484Y-127416000D01*
X139520436Y-127375611D01*
X139329167Y-127296385D01*
X139329166Y-127296385D01*
X139329165Y-127296384D01*
X139157027Y-127181365D01*
X139010635Y-127034973D01*
X138895616Y-126862835D01*
X138871673Y-126805031D01*
X138816389Y-126671564D01*
X138776000Y-126468516D01*
X138776000Y-126261484D01*
X138816389Y-126058436D01*
X138895615Y-125867167D01*
X138896395Y-125866000D01*
X139010635Y-125695027D01*
X139157027Y-125548635D01*
X139329165Y-125433616D01*
X139329167Y-125433615D01*
X139520436Y-125354389D01*
X139723484Y-125314000D01*
X139930516Y-125314000D01*
X140133564Y-125354389D01*
G37*
G36*
X102625626Y-124311037D02*
G01*
X102795465Y-124362557D01*
X102795467Y-124362558D01*
X102951989Y-124446221D01*
X103089186Y-124558814D01*
X103149247Y-124632000D01*
X103201778Y-124696009D01*
X103285443Y-124852534D01*
X103336963Y-125022373D01*
X103342343Y-125077000D01*
X103350000Y-125154740D01*
X103350000Y-125543259D01*
X103347139Y-125572309D01*
X103336963Y-125675626D01*
X103285443Y-125845466D01*
X103201778Y-126001991D01*
X103193469Y-126012115D01*
X103089186Y-126139186D01*
X102994250Y-126217097D01*
X102951991Y-126251778D01*
X102795466Y-126335443D01*
X102625627Y-126386963D01*
X102449000Y-126404359D01*
X102272374Y-126386963D01*
X102102535Y-126335443D01*
X101946010Y-126251778D01*
X101808815Y-126139185D01*
X101696222Y-126001991D01*
X101628372Y-125875053D01*
X101612558Y-125845468D01*
X101593912Y-125784000D01*
X101561037Y-125675627D01*
X101550861Y-125572309D01*
X101548000Y-125543260D01*
X101548000Y-125154741D01*
X101561037Y-125022376D01*
X101561037Y-125022374D01*
X101612557Y-124852535D01*
X101638418Y-124804153D01*
X101696221Y-124696011D01*
X101808814Y-124558814D01*
X101926585Y-124462163D01*
X101946009Y-124446222D01*
X102102534Y-124362557D01*
X102272373Y-124311037D01*
X102449000Y-124293641D01*
X102625626Y-124311037D01*
G37*
G36*
X100707600Y-124301989D02*
G01*
X100740652Y-124312015D01*
X100771103Y-124328292D01*
X100797799Y-124350201D01*
X100819708Y-124376897D01*
X100835985Y-124407348D01*
X100846011Y-124440400D01*
X100850000Y-124480903D01*
X100850000Y-126217097D01*
X100846011Y-126257600D01*
X100835985Y-126290652D01*
X100819708Y-126321103D01*
X100797799Y-126347799D01*
X100771103Y-126369708D01*
X100740652Y-126385985D01*
X100707600Y-126396011D01*
X100667097Y-126400000D01*
X99230903Y-126400000D01*
X99190400Y-126396011D01*
X99157348Y-126385985D01*
X99126897Y-126369708D01*
X99100201Y-126347799D01*
X99078292Y-126321103D01*
X99062015Y-126290652D01*
X99051989Y-126257600D01*
X99048000Y-126217097D01*
X99048000Y-124480903D01*
X99051989Y-124440400D01*
X99062015Y-124407348D01*
X99078292Y-124376897D01*
X99100201Y-124350201D01*
X99126897Y-124328292D01*
X99157348Y-124312015D01*
X99190400Y-124301989D01*
X99230903Y-124298000D01*
X100667097Y-124298000D01*
X100707600Y-124301989D01*
G37*
G36*
X125728393Y-123844304D02*
G01*
X125965101Y-123942352D01*
X125965103Y-123942353D01*
X126178135Y-124084696D01*
X126359304Y-124265865D01*
X126501647Y-124478897D01*
X126501648Y-124478899D01*
X126599696Y-124715607D01*
X126649680Y-124966893D01*
X126649680Y-125223107D01*
X126599696Y-125474393D01*
X126501648Y-125711101D01*
X126501647Y-125711103D01*
X126359304Y-125924135D01*
X126178135Y-126105304D01*
X125965103Y-126247647D01*
X125965102Y-126247648D01*
X125965101Y-126247648D01*
X125728393Y-126345696D01*
X125477107Y-126395680D01*
X125220893Y-126395680D01*
X124969607Y-126345696D01*
X124732899Y-126247648D01*
X124732898Y-126247648D01*
X124732897Y-126247647D01*
X124519865Y-126105304D01*
X124338696Y-125924135D01*
X124196353Y-125711103D01*
X124196352Y-125711101D01*
X124098304Y-125474393D01*
X124048320Y-125223107D01*
X124048320Y-124966893D01*
X124098304Y-124715607D01*
X124196352Y-124478899D01*
X124196353Y-124478897D01*
X124338696Y-124265865D01*
X124519865Y-124084696D01*
X124732897Y-123942353D01*
X124732899Y-123942352D01*
X124969607Y-123844304D01*
X125220893Y-123794320D01*
X125477107Y-123794320D01*
X125728393Y-123844304D01*
G37*
G36*
X128903393Y-123844304D02*
G01*
X129140101Y-123942352D01*
X129140103Y-123942353D01*
X129353135Y-124084696D01*
X129534304Y-124265865D01*
X129676647Y-124478897D01*
X129676648Y-124478899D01*
X129774696Y-124715607D01*
X129824680Y-124966893D01*
X129824680Y-125223107D01*
X129774696Y-125474393D01*
X129676648Y-125711101D01*
X129676647Y-125711103D01*
X129534304Y-125924135D01*
X129353135Y-126105304D01*
X129140103Y-126247647D01*
X129140102Y-126247648D01*
X129140101Y-126247648D01*
X128903393Y-126345696D01*
X128652107Y-126395680D01*
X128395893Y-126395680D01*
X128144607Y-126345696D01*
X127907899Y-126247648D01*
X127907898Y-126247648D01*
X127907897Y-126247647D01*
X127694865Y-126105304D01*
X127513696Y-125924135D01*
X127371353Y-125711103D01*
X127371352Y-125711101D01*
X127273304Y-125474393D01*
X127223320Y-125223107D01*
X127223320Y-124966893D01*
X127273304Y-124715607D01*
X127371352Y-124478899D01*
X127371353Y-124478897D01*
X127513696Y-124265865D01*
X127694865Y-124084696D01*
X127907897Y-123942353D01*
X127907899Y-123942352D01*
X128144607Y-123844304D01*
X128395893Y-123794320D01*
X128652107Y-123794320D01*
X128903393Y-123844304D01*
G37*
G36*
X123474680Y-126395680D02*
G01*
X120873320Y-126395680D01*
X120873320Y-123794320D01*
X123474680Y-123794320D01*
X123474680Y-126395680D01*
G37*
G36*
X157908499Y-125081445D02*
G01*
X157945995Y-125092820D01*
X157980554Y-125111292D01*
X158010847Y-125136153D01*
X158035708Y-125166446D01*
X158054180Y-125201005D01*
X158065555Y-125238501D01*
X158070000Y-125283638D01*
X158070000Y-125922362D01*
X158065555Y-125967499D01*
X158054180Y-126004995D01*
X158035708Y-126039554D01*
X158010847Y-126069847D01*
X157980554Y-126094708D01*
X157945995Y-126113180D01*
X157908499Y-126124555D01*
X157863362Y-126129000D01*
X157124638Y-126129000D01*
X157079501Y-126124555D01*
X157042005Y-126113180D01*
X157007446Y-126094708D01*
X156977153Y-126069847D01*
X156952292Y-126039554D01*
X156933820Y-126004995D01*
X156922445Y-125967499D01*
X156918000Y-125922362D01*
X156918000Y-125283638D01*
X156922445Y-125238501D01*
X156933820Y-125201005D01*
X156952292Y-125166446D01*
X156977153Y-125136153D01*
X157007446Y-125111292D01*
X157042005Y-125092820D01*
X157079501Y-125081445D01*
X157124638Y-125077000D01*
X157863362Y-125077000D01*
X157908499Y-125081445D01*
G37*
G36*
X159658499Y-125081445D02*
G01*
X159695995Y-125092820D01*
X159730554Y-125111292D01*
X159760847Y-125136153D01*
X159785708Y-125166446D01*
X159804180Y-125201005D01*
X159815555Y-125238501D01*
X159820000Y-125283638D01*
X159820000Y-125922362D01*
X159815555Y-125967499D01*
X159804180Y-126004995D01*
X159785708Y-126039554D01*
X159760847Y-126069847D01*
X159730554Y-126094708D01*
X159695995Y-126113180D01*
X159658499Y-126124555D01*
X159613362Y-126129000D01*
X158874638Y-126129000D01*
X158829501Y-126124555D01*
X158792005Y-126113180D01*
X158757446Y-126094708D01*
X158727153Y-126069847D01*
X158702292Y-126039554D01*
X158683820Y-126004995D01*
X158672445Y-125967499D01*
X158668000Y-125922362D01*
X158668000Y-125283638D01*
X158672445Y-125238501D01*
X158683820Y-125201005D01*
X158702292Y-125166446D01*
X158727153Y-125136153D01*
X158757446Y-125111292D01*
X158792005Y-125092820D01*
X158829501Y-125081445D01*
X158874638Y-125077000D01*
X159613362Y-125077000D01*
X159658499Y-125081445D01*
G37*
G36*
X110952862Y-124060898D02*
G01*
X110965114Y-124061500D01*
X112178000Y-124061500D01*
X112178000Y-126063500D01*
X110965114Y-126063500D01*
X110952862Y-126064102D01*
X110927000Y-126066649D01*
X110901138Y-126064102D01*
X110888886Y-126063500D01*
X110815594Y-126063500D01*
X110798836Y-126054543D01*
X110787299Y-126050415D01*
X110702307Y-126024632D01*
X110676664Y-126016854D01*
X110563575Y-125956406D01*
X110464447Y-125875054D01*
X110383094Y-125775924D01*
X110322646Y-125662835D01*
X110310152Y-125621646D01*
X110285420Y-125540117D01*
X110276000Y-125444472D01*
X110276000Y-124680527D01*
X110285420Y-124584882D01*
X110322645Y-124462168D01*
X110368908Y-124375617D01*
X110383095Y-124349075D01*
X110464447Y-124249946D01*
X110563576Y-124168594D01*
X110676666Y-124108146D01*
X110694695Y-124102677D01*
X110787290Y-124074588D01*
X110809925Y-124065212D01*
X110815481Y-124061500D01*
X110888886Y-124061500D01*
X110901138Y-124060898D01*
X110927000Y-124058351D01*
X110952862Y-124060898D01*
G37*
G36*
X117952862Y-124060898D02*
G01*
X117965114Y-124061500D01*
X118038406Y-124061500D01*
X118055164Y-124070457D01*
X118066707Y-124074587D01*
X118159305Y-124102677D01*
X118177334Y-124108146D01*
X118290424Y-124168594D01*
X118389554Y-124249947D01*
X118470906Y-124349075D01*
X118531354Y-124462164D01*
X118536430Y-124478897D01*
X118568580Y-124584882D01*
X118578000Y-124680527D01*
X118578000Y-125444473D01*
X118568580Y-125540118D01*
X118565996Y-125548635D01*
X118531354Y-125662836D01*
X118470906Y-125775925D01*
X118389554Y-125875054D01*
X118290425Y-125956406D01*
X118177336Y-126016854D01*
X118151693Y-126024632D01*
X118066708Y-126050413D01*
X118044075Y-126059787D01*
X118038518Y-126063500D01*
X117965114Y-126063500D01*
X117952862Y-126064102D01*
X117927000Y-126066649D01*
X117901138Y-126064102D01*
X117888886Y-126063500D01*
X116676000Y-126063500D01*
X116676000Y-124061500D01*
X117888886Y-124061500D01*
X117901138Y-124060898D01*
X117927000Y-124058351D01*
X117952862Y-124060898D01*
G37*
G36*
X114228000Y-126063500D02*
G01*
X112626000Y-126063500D01*
X112626000Y-124061500D01*
X114228000Y-124061500D01*
X114228000Y-126063500D01*
G37*
G36*
X116228000Y-126063500D02*
G01*
X114626000Y-126063500D01*
X114626000Y-124061500D01*
X116228000Y-124061500D01*
X116228000Y-126063500D01*
G37*
G36*
X145017499Y-124749445D02*
G01*
X145054995Y-124760820D01*
X145089554Y-124779292D01*
X145119847Y-124804153D01*
X145144708Y-124834446D01*
X145163180Y-124869005D01*
X145174555Y-124906501D01*
X145179000Y-124951638D01*
X145179000Y-125690362D01*
X145174555Y-125735499D01*
X145163180Y-125772995D01*
X145144708Y-125807554D01*
X145119847Y-125837847D01*
X145089554Y-125862708D01*
X145054995Y-125881180D01*
X145017499Y-125892555D01*
X144972362Y-125897000D01*
X144333638Y-125897000D01*
X144288501Y-125892555D01*
X144251005Y-125881180D01*
X144216446Y-125862708D01*
X144186153Y-125837847D01*
X144161292Y-125807554D01*
X144142820Y-125772995D01*
X144131445Y-125735499D01*
X144127000Y-125690362D01*
X144127000Y-124951638D01*
X144131445Y-124906501D01*
X144142820Y-124869005D01*
X144161292Y-124834446D01*
X144186153Y-124804153D01*
X144216446Y-124779292D01*
X144251005Y-124760820D01*
X144288501Y-124749445D01*
X144333638Y-124745000D01*
X144972362Y-124745000D01*
X145017499Y-124749445D01*
G37*
G36*
X149335499Y-124636445D02*
G01*
X149372995Y-124647820D01*
X149407554Y-124666292D01*
X149437847Y-124691153D01*
X149462708Y-124721446D01*
X149481180Y-124756005D01*
X149492555Y-124793501D01*
X149497000Y-124838638D01*
X149497000Y-125577362D01*
X149492555Y-125622499D01*
X149481180Y-125659995D01*
X149462708Y-125694554D01*
X149437847Y-125724847D01*
X149407554Y-125749708D01*
X149372995Y-125768180D01*
X149335499Y-125779555D01*
X149290362Y-125784000D01*
X148651638Y-125784000D01*
X148606501Y-125779555D01*
X148569005Y-125768180D01*
X148534446Y-125749708D01*
X148504153Y-125724847D01*
X148479292Y-125694554D01*
X148460820Y-125659995D01*
X148449445Y-125622499D01*
X148445000Y-125577362D01*
X148445000Y-124838638D01*
X148449445Y-124793501D01*
X148460820Y-124756005D01*
X148479292Y-124721446D01*
X148504153Y-124691153D01*
X148534446Y-124666292D01*
X148569005Y-124647820D01*
X148606501Y-124636445D01*
X148651638Y-124632000D01*
X149290362Y-124632000D01*
X149335499Y-124636445D01*
G37*
G36*
X145017499Y-122999445D02*
G01*
X145054995Y-123010820D01*
X145089554Y-123029292D01*
X145119847Y-123054153D01*
X145144708Y-123084446D01*
X145163180Y-123119005D01*
X145174555Y-123156501D01*
X145179000Y-123201638D01*
X145179000Y-123940362D01*
X145174555Y-123985499D01*
X145163180Y-124022995D01*
X145144708Y-124057554D01*
X145119847Y-124087847D01*
X145089554Y-124112708D01*
X145054995Y-124131180D01*
X145017499Y-124142555D01*
X144972362Y-124147000D01*
X144333638Y-124147000D01*
X144288501Y-124142555D01*
X144251005Y-124131180D01*
X144216446Y-124112708D01*
X144186153Y-124087847D01*
X144161292Y-124057554D01*
X144142820Y-124022995D01*
X144131445Y-123985499D01*
X144127000Y-123940362D01*
X144127000Y-123201638D01*
X144131445Y-123156501D01*
X144142820Y-123119005D01*
X144161292Y-123084446D01*
X144186153Y-123054153D01*
X144216446Y-123029292D01*
X144251005Y-123010820D01*
X144288501Y-122999445D01*
X144333638Y-122995000D01*
X144972362Y-122995000D01*
X145017499Y-122999445D01*
G37*
G36*
X149335499Y-122886445D02*
G01*
X149372995Y-122897820D01*
X149407554Y-122916292D01*
X149437847Y-122941153D01*
X149462708Y-122971446D01*
X149481180Y-123006005D01*
X149492555Y-123043501D01*
X149497000Y-123088638D01*
X149497000Y-123827362D01*
X149492555Y-123872499D01*
X149481180Y-123909995D01*
X149462708Y-123944554D01*
X149437847Y-123974847D01*
X149407554Y-123999708D01*
X149372995Y-124018180D01*
X149335499Y-124029555D01*
X149290362Y-124034000D01*
X148651638Y-124034000D01*
X148606501Y-124029555D01*
X148569005Y-124018180D01*
X148534446Y-123999708D01*
X148504153Y-123974847D01*
X148479292Y-123944554D01*
X148460820Y-123909995D01*
X148449445Y-123872499D01*
X148445000Y-123827362D01*
X148445000Y-123088638D01*
X148449445Y-123043501D01*
X148460820Y-123006005D01*
X148479292Y-122971446D01*
X148504153Y-122941153D01*
X148534446Y-122916292D01*
X148569005Y-122897820D01*
X148606501Y-122886445D01*
X148651638Y-122882000D01*
X149290362Y-122882000D01*
X149335499Y-122886445D01*
G37*
G36*
X154451499Y-122541445D02*
G01*
X154488995Y-122552820D01*
X154523554Y-122571292D01*
X154553847Y-122596153D01*
X154578708Y-122626446D01*
X154597180Y-122661005D01*
X154608555Y-122698501D01*
X154613000Y-122743638D01*
X154613000Y-123382362D01*
X154608555Y-123427499D01*
X154597180Y-123464995D01*
X154578708Y-123499554D01*
X154553847Y-123529847D01*
X154523554Y-123554708D01*
X154488995Y-123573180D01*
X154451499Y-123584555D01*
X154406362Y-123589000D01*
X153667638Y-123589000D01*
X153622501Y-123584555D01*
X153585005Y-123573180D01*
X153550446Y-123554708D01*
X153520153Y-123529847D01*
X153495292Y-123499554D01*
X153476820Y-123464995D01*
X153465445Y-123427499D01*
X153461000Y-123382362D01*
X153461000Y-122743638D01*
X153465445Y-122698501D01*
X153476820Y-122661005D01*
X153495292Y-122626446D01*
X153520153Y-122596153D01*
X153550446Y-122571292D01*
X153585005Y-122552820D01*
X153622501Y-122541445D01*
X153667638Y-122537000D01*
X154406362Y-122537000D01*
X154451499Y-122541445D01*
G37*
G36*
X152701499Y-122541445D02*
G01*
X152738995Y-122552820D01*
X152773554Y-122571292D01*
X152803847Y-122596153D01*
X152828708Y-122626446D01*
X152847180Y-122661005D01*
X152858555Y-122698501D01*
X152863000Y-122743638D01*
X152863000Y-123382362D01*
X152858555Y-123427499D01*
X152847180Y-123464995D01*
X152828708Y-123499554D01*
X152803847Y-123529847D01*
X152773554Y-123554708D01*
X152738995Y-123573180D01*
X152701499Y-123584555D01*
X152656362Y-123589000D01*
X151917638Y-123589000D01*
X151872501Y-123584555D01*
X151835005Y-123573180D01*
X151800446Y-123554708D01*
X151770153Y-123529847D01*
X151745292Y-123499554D01*
X151726820Y-123464995D01*
X151715445Y-123427499D01*
X151711000Y-123382362D01*
X151711000Y-122743638D01*
X151715445Y-122698501D01*
X151726820Y-122661005D01*
X151745292Y-122626446D01*
X151770153Y-122596153D01*
X151800446Y-122571292D01*
X151835005Y-122552820D01*
X151872501Y-122541445D01*
X151917638Y-122537000D01*
X152656362Y-122537000D01*
X152701499Y-122541445D01*
G37*
G36*
X112153348Y-121616320D02*
G01*
X112153350Y-121616321D01*
X112153351Y-121616321D01*
X112294574Y-121674817D01*
X112294577Y-121674819D01*
X112421669Y-121759739D01*
X112529761Y-121867831D01*
X112586375Y-121952560D01*
X112614683Y-121994926D01*
X112635517Y-122045225D01*
X112647068Y-122066836D01*
X112662614Y-122085778D01*
X112681556Y-122101323D01*
X112703166Y-122112874D01*
X112726615Y-122119987D01*
X112751001Y-122122389D01*
X112775387Y-122119987D01*
X112798836Y-122112874D01*
X112820447Y-122101323D01*
X112839389Y-122085777D01*
X112854934Y-122066835D01*
X112866485Y-122045225D01*
X112873598Y-122021776D01*
X112876000Y-121997390D01*
X112876000Y-121636500D01*
X115978000Y-121636500D01*
X115978000Y-121997390D01*
X115980402Y-122021776D01*
X115987515Y-122045225D01*
X115999066Y-122066836D01*
X116014611Y-122085778D01*
X116033553Y-122101323D01*
X116055164Y-122112874D01*
X116078613Y-122119987D01*
X116102999Y-122122389D01*
X116127385Y-122119987D01*
X116150834Y-122112874D01*
X116172445Y-122101323D01*
X116191387Y-122085778D01*
X116206932Y-122066836D01*
X116218483Y-122045225D01*
X116239317Y-121994926D01*
X116267625Y-121952560D01*
X116324239Y-121867831D01*
X116432331Y-121759739D01*
X116559423Y-121674819D01*
X116559426Y-121674817D01*
X116700649Y-121616321D01*
X116700650Y-121616321D01*
X116700652Y-121616320D01*
X116850569Y-121586500D01*
X117003431Y-121586500D01*
X117153348Y-121616320D01*
X117153350Y-121616321D01*
X117153351Y-121616321D01*
X117294574Y-121674817D01*
X117294577Y-121674819D01*
X117421669Y-121759739D01*
X117529761Y-121867831D01*
X117597035Y-121968514D01*
X117614683Y-121994926D01*
X117667479Y-122122389D01*
X117673180Y-122136152D01*
X117703000Y-122286069D01*
X117703000Y-122438931D01*
X117674677Y-122581323D01*
X117673179Y-122588851D01*
X117614683Y-122730074D01*
X117614682Y-122730075D01*
X117614681Y-122730077D01*
X117529761Y-122857169D01*
X117421669Y-122965261D01*
X117310827Y-123039323D01*
X117294574Y-123050183D01*
X117153351Y-123108679D01*
X117153350Y-123108679D01*
X117153348Y-123108680D01*
X117003431Y-123138500D01*
X116850569Y-123138500D01*
X116700652Y-123108680D01*
X116700650Y-123108679D01*
X116700649Y-123108679D01*
X116559426Y-123050183D01*
X116543173Y-123039323D01*
X116432331Y-122965261D01*
X116324239Y-122857169D01*
X116239318Y-122730075D01*
X116239317Y-122730074D01*
X116218481Y-122679772D01*
X116206932Y-122658164D01*
X116191386Y-122639222D01*
X116172444Y-122623677D01*
X116150834Y-122612126D01*
X116127385Y-122605013D01*
X116102999Y-122602611D01*
X116078613Y-122605013D01*
X116055164Y-122612126D01*
X116033553Y-122623677D01*
X116014611Y-122639223D01*
X115999066Y-122658165D01*
X115987515Y-122679775D01*
X115980402Y-122703224D01*
X115978000Y-122727610D01*
X115978000Y-123088500D01*
X112876000Y-123088500D01*
X112876000Y-122727610D01*
X112873598Y-122703224D01*
X112866485Y-122679775D01*
X112854934Y-122658164D01*
X112839389Y-122639222D01*
X112820447Y-122623677D01*
X112798836Y-122612126D01*
X112775387Y-122605013D01*
X112751001Y-122602611D01*
X112726615Y-122605013D01*
X112703166Y-122612126D01*
X112681555Y-122623677D01*
X112662613Y-122639222D01*
X112647068Y-122658164D01*
X112635519Y-122679772D01*
X112614683Y-122730074D01*
X112614682Y-122730075D01*
X112529761Y-122857169D01*
X112421669Y-122965261D01*
X112310827Y-123039323D01*
X112294574Y-123050183D01*
X112153351Y-123108679D01*
X112153350Y-123108679D01*
X112153348Y-123108680D01*
X112003431Y-123138500D01*
X111850569Y-123138500D01*
X111700652Y-123108680D01*
X111700650Y-123108679D01*
X111700649Y-123108679D01*
X111559426Y-123050183D01*
X111543173Y-123039323D01*
X111432331Y-122965261D01*
X111324239Y-122857169D01*
X111239319Y-122730077D01*
X111239318Y-122730075D01*
X111239317Y-122730074D01*
X111180821Y-122588851D01*
X111179324Y-122581323D01*
X111151000Y-122438931D01*
X111151000Y-122286069D01*
X111180820Y-122136152D01*
X111186521Y-122122389D01*
X111239317Y-121994926D01*
X111256965Y-121968514D01*
X111324239Y-121867831D01*
X111432331Y-121759739D01*
X111559423Y-121674819D01*
X111559426Y-121674817D01*
X111700649Y-121616321D01*
X111700650Y-121616321D01*
X111700652Y-121616320D01*
X111850569Y-121586500D01*
X112003431Y-121586500D01*
X112153348Y-121616320D01*
G37*
G36*
X140133564Y-120854389D02*
G01*
X140324833Y-120933615D01*
X140324835Y-120933616D01*
X140496973Y-121048635D01*
X140643365Y-121195027D01*
X140758385Y-121367167D01*
X140837611Y-121558436D01*
X140878000Y-121761484D01*
X140878000Y-121968516D01*
X140837611Y-122171564D01*
X140758385Y-122362833D01*
X140758384Y-122362835D01*
X140643365Y-122534973D01*
X140496973Y-122681365D01*
X140324835Y-122796384D01*
X140324834Y-122796385D01*
X140324833Y-122796385D01*
X140133564Y-122875611D01*
X139930516Y-122916000D01*
X139723484Y-122916000D01*
X139520436Y-122875611D01*
X139329167Y-122796385D01*
X139329166Y-122796385D01*
X139329165Y-122796384D01*
X139157027Y-122681365D01*
X139010635Y-122534973D01*
X138895616Y-122362835D01*
X138895615Y-122362833D01*
X138816389Y-122171564D01*
X138776000Y-121968516D01*
X138776000Y-121761484D01*
X138816389Y-121558436D01*
X138895615Y-121367167D01*
X139010635Y-121195027D01*
X139157027Y-121048635D01*
X139329165Y-120933616D01*
X139329167Y-120933615D01*
X139520436Y-120854389D01*
X139723484Y-120814000D01*
X139930516Y-120814000D01*
X140133564Y-120854389D01*
G37*
G36*
X133633564Y-120854389D02*
G01*
X133824833Y-120933615D01*
X133824835Y-120933616D01*
X133996973Y-121048635D01*
X134143365Y-121195027D01*
X134258385Y-121367167D01*
X134337611Y-121558436D01*
X134378000Y-121761484D01*
X134378000Y-121968516D01*
X134337611Y-122171564D01*
X134258385Y-122362833D01*
X134258384Y-122362835D01*
X134143365Y-122534973D01*
X133996973Y-122681365D01*
X133824835Y-122796384D01*
X133824834Y-122796385D01*
X133824833Y-122796385D01*
X133633564Y-122875611D01*
X133430516Y-122916000D01*
X133223484Y-122916000D01*
X133020436Y-122875611D01*
X132829167Y-122796385D01*
X132829166Y-122796385D01*
X132829165Y-122796384D01*
X132657027Y-122681365D01*
X132510635Y-122534973D01*
X132395616Y-122362835D01*
X132395615Y-122362833D01*
X132316389Y-122171564D01*
X132276000Y-121968516D01*
X132276000Y-121761484D01*
X132316389Y-121558436D01*
X132395615Y-121367167D01*
X132510635Y-121195027D01*
X132657027Y-121048635D01*
X132829165Y-120933616D01*
X132829167Y-120933615D01*
X133020436Y-120854389D01*
X133223484Y-120814000D01*
X133430516Y-120814000D01*
X133633564Y-120854389D01*
G37*
G36*
X149886642Y-118482781D02*
G01*
X150032414Y-118543162D01*
X150032416Y-118543163D01*
X150163608Y-118630822D01*
X150275178Y-118742392D01*
X150362837Y-118873584D01*
X150362838Y-118873586D01*
X150423219Y-119019358D01*
X150454000Y-119174107D01*
X150454000Y-119331893D01*
X150423219Y-119486642D01*
X150362838Y-119632414D01*
X150362837Y-119632416D01*
X150275178Y-119763608D01*
X150163608Y-119875178D01*
X150032416Y-119962837D01*
X150032415Y-119962838D01*
X150032414Y-119962838D01*
X149886642Y-120023219D01*
X149731893Y-120054000D01*
X149574107Y-120054000D01*
X149419358Y-120023219D01*
X149273586Y-119962838D01*
X149273585Y-119962838D01*
X149273584Y-119962837D01*
X149142392Y-119875178D01*
X149030822Y-119763608D01*
X148943163Y-119632416D01*
X148943162Y-119632414D01*
X148882781Y-119486642D01*
X148852000Y-119331893D01*
X148852000Y-119174107D01*
X148882781Y-119019358D01*
X148943162Y-118873586D01*
X148943163Y-118873584D01*
X149030822Y-118742392D01*
X149142392Y-118630822D01*
X149273584Y-118543163D01*
X149273586Y-118543162D01*
X149419358Y-118482781D01*
X149574107Y-118452000D01*
X149731893Y-118452000D01*
X149886642Y-118482781D01*
G37*
G36*
X144886642Y-118482781D02*
G01*
X145032414Y-118543162D01*
X145032416Y-118543163D01*
X145163608Y-118630822D01*
X145275178Y-118742392D01*
X145362837Y-118873584D01*
X145362838Y-118873586D01*
X145423219Y-119019358D01*
X145454000Y-119174107D01*
X145454000Y-119331893D01*
X145423219Y-119486642D01*
X145362838Y-119632414D01*
X145362837Y-119632416D01*
X145275178Y-119763608D01*
X145163608Y-119875178D01*
X145032416Y-119962837D01*
X145032415Y-119962838D01*
X145032414Y-119962838D01*
X144886642Y-120023219D01*
X144731893Y-120054000D01*
X144574107Y-120054000D01*
X144419358Y-120023219D01*
X144273586Y-119962838D01*
X144273585Y-119962838D01*
X144273584Y-119962837D01*
X144142392Y-119875178D01*
X144030822Y-119763608D01*
X143943163Y-119632416D01*
X143943162Y-119632414D01*
X143882781Y-119486642D01*
X143852000Y-119331893D01*
X143852000Y-119174107D01*
X143882781Y-119019358D01*
X143943162Y-118873586D01*
X143943163Y-118873584D01*
X144030822Y-118742392D01*
X144142392Y-118630822D01*
X144273584Y-118543163D01*
X144273586Y-118543162D01*
X144419358Y-118482781D01*
X144574107Y-118452000D01*
X144731893Y-118452000D01*
X144886642Y-118482781D01*
G37*
G36*
X137143499Y-116889445D02*
G01*
X137180995Y-116900820D01*
X137215554Y-116919292D01*
X137245847Y-116944153D01*
X137270708Y-116974446D01*
X137289180Y-117009005D01*
X137300555Y-117046501D01*
X137305000Y-117091638D01*
X137305000Y-117830362D01*
X137300555Y-117875499D01*
X137289180Y-117912995D01*
X137270708Y-117947554D01*
X137245847Y-117977847D01*
X137215554Y-118002708D01*
X137180995Y-118021180D01*
X137143499Y-118032555D01*
X137098362Y-118037000D01*
X136459638Y-118037000D01*
X136414501Y-118032555D01*
X136377005Y-118021180D01*
X136342446Y-118002708D01*
X136312153Y-117977847D01*
X136287292Y-117947554D01*
X136268820Y-117912995D01*
X136257445Y-117875499D01*
X136253000Y-117830362D01*
X136253000Y-117091638D01*
X136257445Y-117046501D01*
X136268820Y-117009005D01*
X136287292Y-116974446D01*
X136312153Y-116944153D01*
X136342446Y-116919292D01*
X136377005Y-116900820D01*
X136414501Y-116889445D01*
X136459638Y-116885000D01*
X137098362Y-116885000D01*
X137143499Y-116889445D01*
G37*
G36*
X140608499Y-116699445D02*
G01*
X140645995Y-116710820D01*
X140680554Y-116729292D01*
X140710847Y-116754153D01*
X140735708Y-116784446D01*
X140754180Y-116819005D01*
X140765555Y-116856501D01*
X140770000Y-116901638D01*
X140770000Y-117540362D01*
X140765555Y-117585499D01*
X140754180Y-117622995D01*
X140735708Y-117657554D01*
X140710847Y-117687847D01*
X140680554Y-117712708D01*
X140645995Y-117731180D01*
X140608499Y-117742555D01*
X140563362Y-117747000D01*
X139824638Y-117747000D01*
X139779501Y-117742555D01*
X139742005Y-117731180D01*
X139707446Y-117712708D01*
X139677153Y-117687847D01*
X139652292Y-117657554D01*
X139633820Y-117622995D01*
X139622445Y-117585499D01*
X139618000Y-117540362D01*
X139618000Y-116901638D01*
X139622445Y-116856501D01*
X139633820Y-116819005D01*
X139652292Y-116784446D01*
X139677153Y-116754153D01*
X139707446Y-116729292D01*
X139742005Y-116710820D01*
X139779501Y-116699445D01*
X139824638Y-116695000D01*
X140563362Y-116695000D01*
X140608499Y-116699445D01*
G37*
G36*
X138858499Y-116699445D02*
G01*
X138895995Y-116710820D01*
X138930554Y-116729292D01*
X138960847Y-116754153D01*
X138985708Y-116784446D01*
X139004180Y-116819005D01*
X139015555Y-116856501D01*
X139020000Y-116901638D01*
X139020000Y-117540362D01*
X139015555Y-117585499D01*
X139004180Y-117622995D01*
X138985708Y-117657554D01*
X138960847Y-117687847D01*
X138930554Y-117712708D01*
X138895995Y-117731180D01*
X138858499Y-117742555D01*
X138813362Y-117747000D01*
X138074638Y-117747000D01*
X138029501Y-117742555D01*
X137992005Y-117731180D01*
X137957446Y-117712708D01*
X137927153Y-117687847D01*
X137902292Y-117657554D01*
X137883820Y-117622995D01*
X137872445Y-117585499D01*
X137868000Y-117540362D01*
X137868000Y-116901638D01*
X137872445Y-116856501D01*
X137883820Y-116819005D01*
X137902292Y-116784446D01*
X137927153Y-116754153D01*
X137957446Y-116729292D01*
X137992005Y-116710820D01*
X138029501Y-116699445D01*
X138074638Y-116695000D01*
X138813362Y-116695000D01*
X138858499Y-116699445D01*
G37*
G36*
X137143499Y-115139445D02*
G01*
X137180995Y-115150820D01*
X137215554Y-115169292D01*
X137245847Y-115194153D01*
X137270708Y-115224446D01*
X137289180Y-115259005D01*
X137300555Y-115296501D01*
X137305000Y-115341638D01*
X137305000Y-116080362D01*
X137300555Y-116125499D01*
X137289180Y-116162995D01*
X137270708Y-116197554D01*
X137245847Y-116227847D01*
X137215554Y-116252708D01*
X137180995Y-116271180D01*
X137143499Y-116282555D01*
X137098362Y-116287000D01*
X136459638Y-116287000D01*
X136414501Y-116282555D01*
X136377005Y-116271180D01*
X136342446Y-116252708D01*
X136312153Y-116227847D01*
X136287292Y-116197554D01*
X136268820Y-116162995D01*
X136257445Y-116125499D01*
X136253000Y-116080362D01*
X136253000Y-115341638D01*
X136257445Y-115296501D01*
X136268820Y-115259005D01*
X136287292Y-115224446D01*
X136312153Y-115194153D01*
X136342446Y-115169292D01*
X136377005Y-115150820D01*
X136414501Y-115139445D01*
X136459638Y-115135000D01*
X137098362Y-115135000D01*
X137143499Y-115139445D01*
G37*
G36*
X138858499Y-114921445D02*
G01*
X138895995Y-114932820D01*
X138930554Y-114951292D01*
X138960847Y-114976153D01*
X138985708Y-115006446D01*
X139004180Y-115041005D01*
X139015555Y-115078501D01*
X139020000Y-115123638D01*
X139020000Y-115762362D01*
X139015555Y-115807499D01*
X139004180Y-115844995D01*
X138985708Y-115879554D01*
X138960847Y-115909847D01*
X138930554Y-115934708D01*
X138895995Y-115953180D01*
X138858499Y-115964555D01*
X138813362Y-115969000D01*
X138074638Y-115969000D01*
X138029501Y-115964555D01*
X137992005Y-115953180D01*
X137957446Y-115934708D01*
X137927153Y-115909847D01*
X137902292Y-115879554D01*
X137883820Y-115844995D01*
X137872445Y-115807499D01*
X137868000Y-115762362D01*
X137868000Y-115123638D01*
X137872445Y-115078501D01*
X137883820Y-115041005D01*
X137902292Y-115006446D01*
X137927153Y-114976153D01*
X137957446Y-114951292D01*
X137992005Y-114932820D01*
X138029501Y-114921445D01*
X138074638Y-114917000D01*
X138813362Y-114917000D01*
X138858499Y-114921445D01*
G37*
G36*
X140608499Y-114921445D02*
G01*
X140645995Y-114932820D01*
X140680554Y-114951292D01*
X140710847Y-114976153D01*
X140735708Y-115006446D01*
X140754180Y-115041005D01*
X140765555Y-115078501D01*
X140770000Y-115123638D01*
X140770000Y-115762362D01*
X140765555Y-115807499D01*
X140754180Y-115844995D01*
X140735708Y-115879554D01*
X140710847Y-115909847D01*
X140680554Y-115934708D01*
X140645995Y-115953180D01*
X140608499Y-115964555D01*
X140563362Y-115969000D01*
X139824638Y-115969000D01*
X139779501Y-115964555D01*
X139742005Y-115953180D01*
X139707446Y-115934708D01*
X139677153Y-115909847D01*
X139652292Y-115879554D01*
X139633820Y-115844995D01*
X139622445Y-115807499D01*
X139618000Y-115762362D01*
X139618000Y-115123638D01*
X139622445Y-115078501D01*
X139633820Y-115041005D01*
X139652292Y-115006446D01*
X139677153Y-114976153D01*
X139707446Y-114951292D01*
X139742005Y-114932820D01*
X139779501Y-114921445D01*
X139824638Y-114917000D01*
X140563362Y-114917000D01*
X140608499Y-114921445D01*
G37*
G36*
X119259604Y-112869347D02*
G01*
X119296144Y-112880432D01*
X119329821Y-112898433D01*
X119359341Y-112922659D01*
X119383567Y-112952179D01*
X119401568Y-112985856D01*
X119412653Y-113022396D01*
X119417000Y-113066538D01*
X119417000Y-114015462D01*
X119412653Y-114059604D01*
X119401568Y-114096144D01*
X119383567Y-114129821D01*
X119359341Y-114159341D01*
X119329821Y-114183567D01*
X119296144Y-114201568D01*
X119259604Y-114212653D01*
X119215462Y-114217000D01*
X117766538Y-114217000D01*
X117722396Y-114212653D01*
X117685856Y-114201568D01*
X117652179Y-114183567D01*
X117622659Y-114159341D01*
X117598433Y-114129821D01*
X117580432Y-114096144D01*
X117569347Y-114059604D01*
X117565000Y-114015462D01*
X117565000Y-113066538D01*
X117569347Y-113022396D01*
X117580432Y-112985856D01*
X117598433Y-112952179D01*
X117622659Y-112922659D01*
X117652179Y-112898433D01*
X117685856Y-112880432D01*
X117722396Y-112869347D01*
X117766538Y-112865000D01*
X119215462Y-112865000D01*
X119259604Y-112869347D01*
G37*
G36*
X143080000Y-114094000D02*
G01*
X136828000Y-114094000D01*
X136828000Y-112492000D01*
X143080000Y-112492000D01*
X143080000Y-114094000D01*
G37*
G36*
X96793499Y-111492445D02*
G01*
X96830995Y-111503820D01*
X96865554Y-111522292D01*
X96895847Y-111547153D01*
X96920708Y-111577446D01*
X96939180Y-111612005D01*
X96950555Y-111649501D01*
X96955000Y-111694638D01*
X96955000Y-112333362D01*
X96950555Y-112378499D01*
X96939180Y-112415995D01*
X96920708Y-112450554D01*
X96895847Y-112480847D01*
X96865554Y-112505708D01*
X96830995Y-112524180D01*
X96793499Y-112535555D01*
X96748362Y-112540000D01*
X96009638Y-112540000D01*
X95964501Y-112535555D01*
X95927005Y-112524180D01*
X95892446Y-112505708D01*
X95862153Y-112480847D01*
X95837292Y-112450554D01*
X95818820Y-112415995D01*
X95807445Y-112378499D01*
X95803000Y-112333362D01*
X95803000Y-111694638D01*
X95807445Y-111649501D01*
X95818820Y-111612005D01*
X95837292Y-111577446D01*
X95862153Y-111547153D01*
X95892446Y-111522292D01*
X95927005Y-111503820D01*
X95964501Y-111492445D01*
X96009638Y-111488000D01*
X96748362Y-111488000D01*
X96793499Y-111492445D01*
G37*
G36*
X95043499Y-111492445D02*
G01*
X95080995Y-111503820D01*
X95115554Y-111522292D01*
X95145847Y-111547153D01*
X95170708Y-111577446D01*
X95189180Y-111612005D01*
X95200555Y-111649501D01*
X95205000Y-111694638D01*
X95205000Y-112333362D01*
X95200555Y-112378499D01*
X95189180Y-112415995D01*
X95170708Y-112450554D01*
X95145847Y-112480847D01*
X95115554Y-112505708D01*
X95080995Y-112524180D01*
X95043499Y-112535555D01*
X94998362Y-112540000D01*
X94259638Y-112540000D01*
X94214501Y-112535555D01*
X94177005Y-112524180D01*
X94142446Y-112505708D01*
X94112153Y-112480847D01*
X94087292Y-112450554D01*
X94068820Y-112415995D01*
X94057445Y-112378499D01*
X94053000Y-112333362D01*
X94053000Y-111694638D01*
X94057445Y-111649501D01*
X94068820Y-111612005D01*
X94087292Y-111577446D01*
X94112153Y-111547153D01*
X94142446Y-111522292D01*
X94177005Y-111503820D01*
X94214501Y-111492445D01*
X94259638Y-111488000D01*
X94998362Y-111488000D01*
X95043499Y-111492445D01*
G37*
G36*
X136555000Y-112219000D02*
G01*
X134953000Y-112219000D01*
X134953000Y-105967000D01*
X136555000Y-105967000D01*
X136555000Y-112219000D01*
G37*
G36*
X144955000Y-112219000D02*
G01*
X143353000Y-112219000D01*
X143353000Y-105967000D01*
X144955000Y-105967000D01*
X144955000Y-112219000D01*
G37*
G36*
X91169499Y-110793445D02*
G01*
X91206995Y-110804820D01*
X91241554Y-110823292D01*
X91271847Y-110848153D01*
X91296708Y-110878446D01*
X91315180Y-110913005D01*
X91326555Y-110950501D01*
X91331000Y-110995638D01*
X91331000Y-111734362D01*
X91326555Y-111779499D01*
X91315180Y-111816995D01*
X91296708Y-111851554D01*
X91271847Y-111881847D01*
X91241554Y-111906708D01*
X91206995Y-111925180D01*
X91169499Y-111936555D01*
X91124362Y-111941000D01*
X90485638Y-111941000D01*
X90440501Y-111936555D01*
X90403005Y-111925180D01*
X90368446Y-111906708D01*
X90338153Y-111881847D01*
X90313292Y-111851554D01*
X90294820Y-111816995D01*
X90283445Y-111779499D01*
X90279000Y-111734362D01*
X90279000Y-110995638D01*
X90283445Y-110950501D01*
X90294820Y-110913005D01*
X90313292Y-110878446D01*
X90338153Y-110848153D01*
X90368446Y-110823292D01*
X90403005Y-110804820D01*
X90440501Y-110793445D01*
X90485638Y-110789000D01*
X91124362Y-110789000D01*
X91169499Y-110793445D01*
G37*
G36*
X92820499Y-110793445D02*
G01*
X92857995Y-110804820D01*
X92892554Y-110823292D01*
X92922847Y-110848153D01*
X92947708Y-110878446D01*
X92966180Y-110913005D01*
X92977555Y-110950501D01*
X92982000Y-110995638D01*
X92982000Y-111734362D01*
X92977555Y-111779499D01*
X92966180Y-111816995D01*
X92947708Y-111851554D01*
X92922847Y-111881847D01*
X92892554Y-111906708D01*
X92857995Y-111925180D01*
X92820499Y-111936555D01*
X92775362Y-111941000D01*
X92136638Y-111941000D01*
X92091501Y-111936555D01*
X92054005Y-111925180D01*
X92019446Y-111906708D01*
X91989153Y-111881847D01*
X91964292Y-111851554D01*
X91945820Y-111816995D01*
X91934445Y-111779499D01*
X91930000Y-111734362D01*
X91930000Y-110995638D01*
X91934445Y-110950501D01*
X91945820Y-110913005D01*
X91964292Y-110878446D01*
X91989153Y-110848153D01*
X92019446Y-110823292D01*
X92054005Y-110804820D01*
X92091501Y-110793445D01*
X92136638Y-110789000D01*
X92775362Y-110789000D01*
X92820499Y-110793445D01*
G37*
G36*
X119259604Y-110069347D02*
G01*
X119296144Y-110080432D01*
X119329821Y-110098433D01*
X119359341Y-110122659D01*
X119383567Y-110152179D01*
X119401568Y-110185856D01*
X119412653Y-110222396D01*
X119417000Y-110266538D01*
X119417000Y-111215462D01*
X119412653Y-111259604D01*
X119401568Y-111296144D01*
X119383567Y-111329821D01*
X119359341Y-111359341D01*
X119329821Y-111383567D01*
X119296144Y-111401568D01*
X119259604Y-111412653D01*
X119215462Y-111417000D01*
X117766538Y-111417000D01*
X117722396Y-111412653D01*
X117685856Y-111401568D01*
X117652179Y-111383567D01*
X117622659Y-111359341D01*
X117598433Y-111329821D01*
X117580432Y-111296144D01*
X117569347Y-111259604D01*
X117565000Y-111215462D01*
X117565000Y-110266538D01*
X117569347Y-110222396D01*
X117580432Y-110185856D01*
X117598433Y-110152179D01*
X117622659Y-110122659D01*
X117652179Y-110098433D01*
X117685856Y-110080432D01*
X117722396Y-110069347D01*
X117766538Y-110065000D01*
X119215462Y-110065000D01*
X119259604Y-110069347D01*
G37*
G36*
X100209604Y-109821347D02*
G01*
X100246144Y-109832432D01*
X100279821Y-109850433D01*
X100309341Y-109874659D01*
X100333567Y-109904179D01*
X100351568Y-109937856D01*
X100362653Y-109974396D01*
X100367000Y-110018538D01*
X100367000Y-110967462D01*
X100362653Y-111011604D01*
X100351568Y-111048144D01*
X100333567Y-111081821D01*
X100309341Y-111111341D01*
X100279821Y-111135567D01*
X100246144Y-111153568D01*
X100209604Y-111164653D01*
X100165462Y-111169000D01*
X98716538Y-111169000D01*
X98672396Y-111164653D01*
X98635856Y-111153568D01*
X98602179Y-111135567D01*
X98572659Y-111111341D01*
X98548433Y-111081821D01*
X98530432Y-111048144D01*
X98519347Y-111011604D01*
X98515000Y-110967462D01*
X98515000Y-110018538D01*
X98519347Y-109974396D01*
X98530432Y-109937856D01*
X98548433Y-109904179D01*
X98572659Y-109874659D01*
X98602179Y-109850433D01*
X98635856Y-109832432D01*
X98672396Y-109821347D01*
X98716538Y-109817000D01*
X100165462Y-109817000D01*
X100209604Y-109821347D01*
G37*
G36*
X97185000Y-110546000D02*
G01*
X96023000Y-110546000D01*
X96023000Y-109794000D01*
X97185000Y-109794000D01*
X97185000Y-110546000D01*
G37*
G36*
X94985000Y-110546000D02*
G01*
X93823000Y-110546000D01*
X93823000Y-107894000D01*
X94985000Y-107894000D01*
X94985000Y-110546000D01*
G37*
G36*
X91169499Y-109043445D02*
G01*
X91206995Y-109054820D01*
X91241554Y-109073292D01*
X91271847Y-109098153D01*
X91296708Y-109128446D01*
X91315180Y-109163005D01*
X91326555Y-109200501D01*
X91331000Y-109245638D01*
X91331000Y-109984362D01*
X91326555Y-110029499D01*
X91315180Y-110066995D01*
X91296708Y-110101554D01*
X91271847Y-110131847D01*
X91241554Y-110156708D01*
X91206995Y-110175180D01*
X91169499Y-110186555D01*
X91124362Y-110191000D01*
X90485638Y-110191000D01*
X90440501Y-110186555D01*
X90403005Y-110175180D01*
X90368446Y-110156708D01*
X90338153Y-110131847D01*
X90313292Y-110101554D01*
X90294820Y-110066995D01*
X90283445Y-110029499D01*
X90279000Y-109984362D01*
X90279000Y-109245638D01*
X90283445Y-109200501D01*
X90294820Y-109163005D01*
X90313292Y-109128446D01*
X90338153Y-109098153D01*
X90368446Y-109073292D01*
X90403005Y-109054820D01*
X90440501Y-109043445D01*
X90485638Y-109039000D01*
X91124362Y-109039000D01*
X91169499Y-109043445D01*
G37*
G36*
X92820499Y-109043445D02*
G01*
X92857995Y-109054820D01*
X92892554Y-109073292D01*
X92922847Y-109098153D01*
X92947708Y-109128446D01*
X92966180Y-109163005D01*
X92977555Y-109200501D01*
X92982000Y-109245638D01*
X92982000Y-109984362D01*
X92977555Y-110029499D01*
X92966180Y-110066995D01*
X92947708Y-110101554D01*
X92922847Y-110131847D01*
X92892554Y-110156708D01*
X92857995Y-110175180D01*
X92820499Y-110186555D01*
X92775362Y-110191000D01*
X92136638Y-110191000D01*
X92091501Y-110186555D01*
X92054005Y-110175180D01*
X92019446Y-110156708D01*
X91989153Y-110131847D01*
X91964292Y-110101554D01*
X91945820Y-110066995D01*
X91934445Y-110029499D01*
X91930000Y-109984362D01*
X91930000Y-109245638D01*
X91934445Y-109200501D01*
X91945820Y-109163005D01*
X91964292Y-109128446D01*
X91989153Y-109098153D01*
X92019446Y-109073292D01*
X92054005Y-109054820D01*
X92091501Y-109043445D01*
X92136638Y-109039000D01*
X92775362Y-109039000D01*
X92820499Y-109043445D01*
G37*
G36*
X106409499Y-108634445D02*
G01*
X106446995Y-108645820D01*
X106481554Y-108664292D01*
X106511847Y-108689153D01*
X106536708Y-108719446D01*
X106555180Y-108754005D01*
X106566555Y-108791501D01*
X106571000Y-108836638D01*
X106571000Y-109575362D01*
X106566555Y-109620499D01*
X106555180Y-109657995D01*
X106536708Y-109692554D01*
X106511847Y-109722847D01*
X106481554Y-109747708D01*
X106446995Y-109766180D01*
X106409499Y-109777555D01*
X106364362Y-109782000D01*
X105725638Y-109782000D01*
X105680501Y-109777555D01*
X105643005Y-109766180D01*
X105608446Y-109747708D01*
X105578153Y-109722847D01*
X105553292Y-109692554D01*
X105534820Y-109657995D01*
X105523445Y-109620499D01*
X105519000Y-109575362D01*
X105519000Y-108836638D01*
X105523445Y-108791501D01*
X105534820Y-108754005D01*
X105553292Y-108719446D01*
X105578153Y-108689153D01*
X105608446Y-108664292D01*
X105643005Y-108645820D01*
X105680501Y-108634445D01*
X105725638Y-108630000D01*
X106364362Y-108630000D01*
X106409499Y-108634445D01*
G37*
G36*
X118855499Y-108126445D02*
G01*
X118892995Y-108137820D01*
X118927554Y-108156292D01*
X118957847Y-108181153D01*
X118982708Y-108211446D01*
X119001180Y-108246005D01*
X119012555Y-108283501D01*
X119017000Y-108328638D01*
X119017000Y-109067362D01*
X119012555Y-109112499D01*
X119001180Y-109149995D01*
X118982708Y-109184554D01*
X118957847Y-109214847D01*
X118927554Y-109239708D01*
X118892995Y-109258180D01*
X118855499Y-109269555D01*
X118810362Y-109274000D01*
X118171638Y-109274000D01*
X118126501Y-109269555D01*
X118089005Y-109258180D01*
X118054446Y-109239708D01*
X118024153Y-109214847D01*
X117999292Y-109184554D01*
X117980820Y-109149995D01*
X117969445Y-109112499D01*
X117965000Y-109067362D01*
X117965000Y-108328638D01*
X117969445Y-108283501D01*
X117980820Y-108246005D01*
X117999292Y-108211446D01*
X118024153Y-108181153D01*
X118054446Y-108156292D01*
X118089005Y-108137820D01*
X118126501Y-108126445D01*
X118171638Y-108122000D01*
X118810362Y-108122000D01*
X118855499Y-108126445D01*
G37*
G36*
X112505499Y-107872445D02*
G01*
X112542995Y-107883820D01*
X112577554Y-107902292D01*
X112607847Y-107927153D01*
X112632708Y-107957446D01*
X112651180Y-107992005D01*
X112662555Y-108029501D01*
X112667000Y-108074638D01*
X112667000Y-108813362D01*
X112662555Y-108858499D01*
X112651180Y-108895995D01*
X112632708Y-108930554D01*
X112607847Y-108960847D01*
X112577554Y-108985708D01*
X112542995Y-109004180D01*
X112505499Y-109015555D01*
X112460362Y-109020000D01*
X111821638Y-109020000D01*
X111776501Y-109015555D01*
X111739005Y-109004180D01*
X111704446Y-108985708D01*
X111674153Y-108960847D01*
X111649292Y-108930554D01*
X111630820Y-108895995D01*
X111619445Y-108858499D01*
X111615000Y-108813362D01*
X111615000Y-108074638D01*
X111619445Y-108029501D01*
X111630820Y-107992005D01*
X111649292Y-107957446D01*
X111674153Y-107927153D01*
X111704446Y-107902292D01*
X111739005Y-107883820D01*
X111776501Y-107872445D01*
X111821638Y-107868000D01*
X112460362Y-107868000D01*
X112505499Y-107872445D01*
G37*
G36*
X114029499Y-107872445D02*
G01*
X114066995Y-107883820D01*
X114101554Y-107902292D01*
X114131847Y-107927153D01*
X114156708Y-107957446D01*
X114175180Y-107992005D01*
X114186555Y-108029501D01*
X114191000Y-108074638D01*
X114191000Y-108813362D01*
X114186555Y-108858499D01*
X114175180Y-108895995D01*
X114156708Y-108930554D01*
X114131847Y-108960847D01*
X114101554Y-108985708D01*
X114066995Y-109004180D01*
X114029499Y-109015555D01*
X113984362Y-109020000D01*
X113345638Y-109020000D01*
X113300501Y-109015555D01*
X113263005Y-109004180D01*
X113228446Y-108985708D01*
X113198153Y-108960847D01*
X113173292Y-108930554D01*
X113154820Y-108895995D01*
X113143445Y-108858499D01*
X113139000Y-108813362D01*
X113139000Y-108074638D01*
X113143445Y-108029501D01*
X113154820Y-107992005D01*
X113173292Y-107957446D01*
X113198153Y-107927153D01*
X113228446Y-107902292D01*
X113263005Y-107883820D01*
X113300501Y-107872445D01*
X113345638Y-107868000D01*
X113984362Y-107868000D01*
X114029499Y-107872445D01*
G37*
G36*
X115553499Y-107872445D02*
G01*
X115590995Y-107883820D01*
X115625554Y-107902292D01*
X115655847Y-107927153D01*
X115680708Y-107957446D01*
X115699180Y-107992005D01*
X115710555Y-108029501D01*
X115715000Y-108074638D01*
X115715000Y-108813362D01*
X115710555Y-108858499D01*
X115699180Y-108895995D01*
X115680708Y-108930554D01*
X115655847Y-108960847D01*
X115625554Y-108985708D01*
X115590995Y-109004180D01*
X115553499Y-109015555D01*
X115508362Y-109020000D01*
X114869638Y-109020000D01*
X114824501Y-109015555D01*
X114787005Y-109004180D01*
X114752446Y-108985708D01*
X114722153Y-108960847D01*
X114697292Y-108930554D01*
X114678820Y-108895995D01*
X114667445Y-108858499D01*
X114663000Y-108813362D01*
X114663000Y-108074638D01*
X114667445Y-108029501D01*
X114678820Y-107992005D01*
X114697292Y-107957446D01*
X114722153Y-107927153D01*
X114752446Y-107902292D01*
X114787005Y-107883820D01*
X114824501Y-107872445D01*
X114869638Y-107868000D01*
X115508362Y-107868000D01*
X115553499Y-107872445D01*
G37*
G36*
X110774000Y-108895000D02*
G01*
X109612000Y-108895000D01*
X109612000Y-108143000D01*
X110774000Y-108143000D01*
X110774000Y-108895000D01*
G37*
G36*
X108574000Y-108895000D02*
G01*
X107412000Y-108895000D01*
X107412000Y-106243000D01*
X108574000Y-106243000D01*
X108574000Y-108895000D01*
G37*
G36*
X130575499Y-107682445D02*
G01*
X130612995Y-107693820D01*
X130647554Y-107712292D01*
X130677847Y-107737153D01*
X130702708Y-107767446D01*
X130721180Y-107802005D01*
X130732555Y-107839501D01*
X130737000Y-107884638D01*
X130737000Y-108523362D01*
X130732555Y-108568499D01*
X130721180Y-108605995D01*
X130702708Y-108640554D01*
X130677847Y-108670847D01*
X130647554Y-108695708D01*
X130612995Y-108714180D01*
X130575499Y-108725555D01*
X130530362Y-108730000D01*
X129791638Y-108730000D01*
X129746501Y-108725555D01*
X129709005Y-108714180D01*
X129674446Y-108695708D01*
X129644153Y-108670847D01*
X129619292Y-108640554D01*
X129600820Y-108605995D01*
X129589445Y-108568499D01*
X129585000Y-108523362D01*
X129585000Y-107884638D01*
X129589445Y-107839501D01*
X129600820Y-107802005D01*
X129619292Y-107767446D01*
X129644153Y-107737153D01*
X129674446Y-107712292D01*
X129709005Y-107693820D01*
X129746501Y-107682445D01*
X129791638Y-107678000D01*
X130530362Y-107678000D01*
X130575499Y-107682445D01*
G37*
G36*
X128825499Y-107682445D02*
G01*
X128862995Y-107693820D01*
X128897554Y-107712292D01*
X128927847Y-107737153D01*
X128952708Y-107767446D01*
X128971180Y-107802005D01*
X128982555Y-107839501D01*
X128987000Y-107884638D01*
X128987000Y-108523362D01*
X128982555Y-108568499D01*
X128971180Y-108605995D01*
X128952708Y-108640554D01*
X128927847Y-108670847D01*
X128897554Y-108695708D01*
X128862995Y-108714180D01*
X128825499Y-108725555D01*
X128780362Y-108730000D01*
X128041638Y-108730000D01*
X127996501Y-108725555D01*
X127959005Y-108714180D01*
X127924446Y-108695708D01*
X127894153Y-108670847D01*
X127869292Y-108640554D01*
X127850820Y-108605995D01*
X127839445Y-108568499D01*
X127835000Y-108523362D01*
X127835000Y-107884638D01*
X127839445Y-107839501D01*
X127850820Y-107802005D01*
X127869292Y-107767446D01*
X127894153Y-107737153D01*
X127924446Y-107712292D01*
X127959005Y-107693820D01*
X127996501Y-107682445D01*
X128041638Y-107678000D01*
X128780362Y-107678000D01*
X128825499Y-107682445D01*
G37*
G36*
X97185000Y-108646000D02*
G01*
X96023000Y-108646000D01*
X96023000Y-107894000D01*
X97185000Y-107894000D01*
X97185000Y-108646000D01*
G37*
G36*
X100209604Y-107021347D02*
G01*
X100246144Y-107032432D01*
X100279821Y-107050433D01*
X100309341Y-107074659D01*
X100333567Y-107104179D01*
X100351568Y-107137856D01*
X100362653Y-107174396D01*
X100367000Y-107218538D01*
X100367000Y-108167462D01*
X100362653Y-108211604D01*
X100351568Y-108248144D01*
X100333567Y-108281821D01*
X100309341Y-108311341D01*
X100279821Y-108335567D01*
X100246144Y-108353568D01*
X100209604Y-108364653D01*
X100165462Y-108369000D01*
X98716538Y-108369000D01*
X98672396Y-108364653D01*
X98635856Y-108353568D01*
X98602179Y-108335567D01*
X98572659Y-108311341D01*
X98548433Y-108281821D01*
X98530432Y-108248144D01*
X98519347Y-108211604D01*
X98515000Y-108167462D01*
X98515000Y-107218538D01*
X98519347Y-107174396D01*
X98530432Y-107137856D01*
X98548433Y-107104179D01*
X98572659Y-107074659D01*
X98602179Y-107050433D01*
X98635856Y-107032432D01*
X98672396Y-107021347D01*
X98716538Y-107017000D01*
X100165462Y-107017000D01*
X100209604Y-107021347D01*
G37*
G36*
X106409499Y-106884445D02*
G01*
X106446995Y-106895820D01*
X106481554Y-106914292D01*
X106511847Y-106939153D01*
X106536708Y-106969446D01*
X106555180Y-107004005D01*
X106566555Y-107041501D01*
X106571000Y-107086638D01*
X106571000Y-107825362D01*
X106566555Y-107870499D01*
X106555180Y-107907995D01*
X106536708Y-107942554D01*
X106511847Y-107972847D01*
X106481554Y-107997708D01*
X106446995Y-108016180D01*
X106409499Y-108027555D01*
X106364362Y-108032000D01*
X105725638Y-108032000D01*
X105680501Y-108027555D01*
X105643005Y-108016180D01*
X105608446Y-107997708D01*
X105578153Y-107972847D01*
X105553292Y-107942554D01*
X105534820Y-107907995D01*
X105523445Y-107870499D01*
X105519000Y-107825362D01*
X105519000Y-107086638D01*
X105523445Y-107041501D01*
X105534820Y-107004005D01*
X105553292Y-106969446D01*
X105578153Y-106939153D01*
X105608446Y-106914292D01*
X105643005Y-106895820D01*
X105680501Y-106884445D01*
X105725638Y-106880000D01*
X106364362Y-106880000D01*
X106409499Y-106884445D01*
G37*
G36*
X118855499Y-106376445D02*
G01*
X118892995Y-106387820D01*
X118927554Y-106406292D01*
X118957847Y-106431153D01*
X118982708Y-106461446D01*
X119001180Y-106496005D01*
X119012555Y-106533501D01*
X119017000Y-106578638D01*
X119017000Y-107317362D01*
X119012555Y-107362499D01*
X119001180Y-107399995D01*
X118982708Y-107434554D01*
X118957847Y-107464847D01*
X118927554Y-107489708D01*
X118892995Y-107508180D01*
X118855499Y-107519555D01*
X118810362Y-107524000D01*
X118171638Y-107524000D01*
X118126501Y-107519555D01*
X118089005Y-107508180D01*
X118054446Y-107489708D01*
X118024153Y-107464847D01*
X117999292Y-107434554D01*
X117980820Y-107399995D01*
X117969445Y-107362499D01*
X117965000Y-107317362D01*
X117965000Y-106578638D01*
X117969445Y-106533501D01*
X117980820Y-106496005D01*
X117999292Y-106461446D01*
X118024153Y-106431153D01*
X118054446Y-106406292D01*
X118089005Y-106387820D01*
X118126501Y-106376445D01*
X118171638Y-106372000D01*
X118810362Y-106372000D01*
X118855499Y-106376445D01*
G37*
G36*
X112505499Y-106122445D02*
G01*
X112542995Y-106133820D01*
X112577554Y-106152292D01*
X112607847Y-106177153D01*
X112632708Y-106207446D01*
X112651180Y-106242005D01*
X112662555Y-106279501D01*
X112667000Y-106324638D01*
X112667000Y-107063362D01*
X112662555Y-107108499D01*
X112651180Y-107145995D01*
X112632708Y-107180554D01*
X112607847Y-107210847D01*
X112577554Y-107235708D01*
X112542995Y-107254180D01*
X112505499Y-107265555D01*
X112460362Y-107270000D01*
X111821638Y-107270000D01*
X111776501Y-107265555D01*
X111739005Y-107254180D01*
X111704446Y-107235708D01*
X111674153Y-107210847D01*
X111649292Y-107180554D01*
X111630820Y-107145995D01*
X111619445Y-107108499D01*
X111615000Y-107063362D01*
X111615000Y-106324638D01*
X111619445Y-106279501D01*
X111630820Y-106242005D01*
X111649292Y-106207446D01*
X111674153Y-106177153D01*
X111704446Y-106152292D01*
X111739005Y-106133820D01*
X111776501Y-106122445D01*
X111821638Y-106118000D01*
X112460362Y-106118000D01*
X112505499Y-106122445D01*
G37*
G36*
X114029499Y-106122445D02*
G01*
X114066995Y-106133820D01*
X114101554Y-106152292D01*
X114131847Y-106177153D01*
X114156708Y-106207446D01*
X114175180Y-106242005D01*
X114186555Y-106279501D01*
X114191000Y-106324638D01*
X114191000Y-107063362D01*
X114186555Y-107108499D01*
X114175180Y-107145995D01*
X114156708Y-107180554D01*
X114131847Y-107210847D01*
X114101554Y-107235708D01*
X114066995Y-107254180D01*
X114029499Y-107265555D01*
X113984362Y-107270000D01*
X113345638Y-107270000D01*
X113300501Y-107265555D01*
X113263005Y-107254180D01*
X113228446Y-107235708D01*
X113198153Y-107210847D01*
X113173292Y-107180554D01*
X113154820Y-107145995D01*
X113143445Y-107108499D01*
X113139000Y-107063362D01*
X113139000Y-106324638D01*
X113143445Y-106279501D01*
X113154820Y-106242005D01*
X113173292Y-106207446D01*
X113198153Y-106177153D01*
X113228446Y-106152292D01*
X113263005Y-106133820D01*
X113300501Y-106122445D01*
X113345638Y-106118000D01*
X113984362Y-106118000D01*
X114029499Y-106122445D01*
G37*
G36*
X115553499Y-106122445D02*
G01*
X115590995Y-106133820D01*
X115625554Y-106152292D01*
X115655847Y-106177153D01*
X115680708Y-106207446D01*
X115699180Y-106242005D01*
X115710555Y-106279501D01*
X115715000Y-106324638D01*
X115715000Y-107063362D01*
X115710555Y-107108499D01*
X115699180Y-107145995D01*
X115680708Y-107180554D01*
X115655847Y-107210847D01*
X115625554Y-107235708D01*
X115590995Y-107254180D01*
X115553499Y-107265555D01*
X115508362Y-107270000D01*
X114869638Y-107270000D01*
X114824501Y-107265555D01*
X114787005Y-107254180D01*
X114752446Y-107235708D01*
X114722153Y-107210847D01*
X114697292Y-107180554D01*
X114678820Y-107145995D01*
X114667445Y-107108499D01*
X114663000Y-107063362D01*
X114663000Y-106324638D01*
X114667445Y-106279501D01*
X114678820Y-106242005D01*
X114697292Y-106207446D01*
X114722153Y-106177153D01*
X114752446Y-106152292D01*
X114787005Y-106133820D01*
X114824501Y-106122445D01*
X114869638Y-106118000D01*
X115508362Y-106118000D01*
X115553499Y-106122445D01*
G37*
G36*
X110774000Y-106995000D02*
G01*
X109612000Y-106995000D01*
X109612000Y-106243000D01*
X110774000Y-106243000D01*
X110774000Y-106995000D01*
G37*
G36*
X94916499Y-105777445D02*
G01*
X94953995Y-105788820D01*
X94988554Y-105807292D01*
X95018847Y-105832153D01*
X95043708Y-105862446D01*
X95062180Y-105897005D01*
X95073555Y-105934501D01*
X95078000Y-105979638D01*
X95078000Y-106618362D01*
X95073555Y-106663499D01*
X95062180Y-106700995D01*
X95043708Y-106735554D01*
X95018847Y-106765847D01*
X94988554Y-106790708D01*
X94953995Y-106809180D01*
X94916499Y-106820555D01*
X94871362Y-106825000D01*
X94132638Y-106825000D01*
X94087501Y-106820555D01*
X94050005Y-106809180D01*
X94015446Y-106790708D01*
X93985153Y-106765847D01*
X93960292Y-106735554D01*
X93941820Y-106700995D01*
X93930445Y-106663499D01*
X93926000Y-106618362D01*
X93926000Y-105979638D01*
X93930445Y-105934501D01*
X93941820Y-105897005D01*
X93960292Y-105862446D01*
X93985153Y-105832153D01*
X94015446Y-105807292D01*
X94050005Y-105788820D01*
X94087501Y-105777445D01*
X94132638Y-105773000D01*
X94871362Y-105773000D01*
X94916499Y-105777445D01*
G37*
G36*
X96666499Y-105777445D02*
G01*
X96703995Y-105788820D01*
X96738554Y-105807292D01*
X96768847Y-105832153D01*
X96793708Y-105862446D01*
X96812180Y-105897005D01*
X96823555Y-105934501D01*
X96828000Y-105979638D01*
X96828000Y-106618362D01*
X96823555Y-106663499D01*
X96812180Y-106700995D01*
X96793708Y-106735554D01*
X96768847Y-106765847D01*
X96738554Y-106790708D01*
X96703995Y-106809180D01*
X96666499Y-106820555D01*
X96621362Y-106825000D01*
X95882638Y-106825000D01*
X95837501Y-106820555D01*
X95800005Y-106809180D01*
X95765446Y-106790708D01*
X95735153Y-106765847D01*
X95710292Y-106735554D01*
X95691820Y-106700995D01*
X95680445Y-106663499D01*
X95676000Y-106618362D01*
X95676000Y-105979638D01*
X95680445Y-105934501D01*
X95691820Y-105897005D01*
X95710292Y-105862446D01*
X95735153Y-105832153D01*
X95765446Y-105807292D01*
X95800005Y-105788820D01*
X95837501Y-105777445D01*
X95882638Y-105773000D01*
X96621362Y-105773000D01*
X96666499Y-105777445D01*
G37*
G36*
X98472499Y-105015445D02*
G01*
X98509995Y-105026820D01*
X98544554Y-105045292D01*
X98574847Y-105070153D01*
X98599708Y-105100446D01*
X98618180Y-105135005D01*
X98629555Y-105172501D01*
X98634000Y-105217638D01*
X98634000Y-105856362D01*
X98629555Y-105901499D01*
X98618180Y-105938995D01*
X98599708Y-105973554D01*
X98574847Y-106003847D01*
X98544554Y-106028708D01*
X98509995Y-106047180D01*
X98472499Y-106058555D01*
X98427362Y-106063000D01*
X97688638Y-106063000D01*
X97643501Y-106058555D01*
X97606005Y-106047180D01*
X97571446Y-106028708D01*
X97541153Y-106003847D01*
X97516292Y-105973554D01*
X97497820Y-105938995D01*
X97486445Y-105901499D01*
X97482000Y-105856362D01*
X97482000Y-105217638D01*
X97486445Y-105172501D01*
X97497820Y-105135005D01*
X97516292Y-105100446D01*
X97541153Y-105070153D01*
X97571446Y-105045292D01*
X97606005Y-105026820D01*
X97643501Y-105015445D01*
X97688638Y-105011000D01*
X98427362Y-105011000D01*
X98472499Y-105015445D01*
G37*
G36*
X100222499Y-105015445D02*
G01*
X100259995Y-105026820D01*
X100294554Y-105045292D01*
X100324847Y-105070153D01*
X100349708Y-105100446D01*
X100368180Y-105135005D01*
X100379555Y-105172501D01*
X100384000Y-105217638D01*
X100384000Y-105856362D01*
X100379555Y-105901499D01*
X100368180Y-105938995D01*
X100349708Y-105973554D01*
X100324847Y-106003847D01*
X100294554Y-106028708D01*
X100259995Y-106047180D01*
X100222499Y-106058555D01*
X100177362Y-106063000D01*
X99438638Y-106063000D01*
X99393501Y-106058555D01*
X99356005Y-106047180D01*
X99321446Y-106028708D01*
X99291153Y-106003847D01*
X99266292Y-105973554D01*
X99247820Y-105938995D01*
X99236445Y-105901499D01*
X99232000Y-105856362D01*
X99232000Y-105217638D01*
X99236445Y-105172501D01*
X99247820Y-105135005D01*
X99266292Y-105100446D01*
X99291153Y-105070153D01*
X99321446Y-105045292D01*
X99356005Y-105026820D01*
X99393501Y-105015445D01*
X99438638Y-105011000D01*
X100177362Y-105011000D01*
X100222499Y-105015445D01*
G37*
G36*
X143080000Y-105694000D02*
G01*
X136828000Y-105694000D01*
X136828000Y-104092000D01*
X143080000Y-104092000D01*
X143080000Y-105694000D01*
G37*
G36*
X140699499Y-102030445D02*
G01*
X140736995Y-102041820D01*
X140771554Y-102060292D01*
X140801847Y-102085153D01*
X140826708Y-102115446D01*
X140845180Y-102150005D01*
X140856555Y-102187501D01*
X140861000Y-102232638D01*
X140861000Y-102971362D01*
X140856555Y-103016499D01*
X140845180Y-103053995D01*
X140826708Y-103088554D01*
X140801847Y-103118847D01*
X140771554Y-103143708D01*
X140736995Y-103162180D01*
X140699499Y-103173555D01*
X140654362Y-103178000D01*
X140015638Y-103178000D01*
X139970501Y-103173555D01*
X139933005Y-103162180D01*
X139898446Y-103143708D01*
X139868153Y-103118847D01*
X139843292Y-103088554D01*
X139824820Y-103053995D01*
X139813445Y-103016499D01*
X139809000Y-102971362D01*
X139809000Y-102232638D01*
X139813445Y-102187501D01*
X139824820Y-102150005D01*
X139843292Y-102115446D01*
X139868153Y-102085153D01*
X139898446Y-102060292D01*
X139933005Y-102041820D01*
X139970501Y-102030445D01*
X140015638Y-102026000D01*
X140654362Y-102026000D01*
X140699499Y-102030445D01*
G37*
G36*
X142985499Y-102030445D02*
G01*
X143022995Y-102041820D01*
X143057554Y-102060292D01*
X143087847Y-102085153D01*
X143112708Y-102115446D01*
X143131180Y-102150005D01*
X143142555Y-102187501D01*
X143147000Y-102232638D01*
X143147000Y-102971362D01*
X143142555Y-103016499D01*
X143131180Y-103053995D01*
X143112708Y-103088554D01*
X143087847Y-103118847D01*
X143057554Y-103143708D01*
X143022995Y-103162180D01*
X142985499Y-103173555D01*
X142940362Y-103178000D01*
X142301638Y-103178000D01*
X142256501Y-103173555D01*
X142219005Y-103162180D01*
X142184446Y-103143708D01*
X142154153Y-103118847D01*
X142129292Y-103088554D01*
X142110820Y-103053995D01*
X142099445Y-103016499D01*
X142095000Y-102971362D01*
X142095000Y-102232638D01*
X142099445Y-102187501D01*
X142110820Y-102150005D01*
X142129292Y-102115446D01*
X142154153Y-102085153D01*
X142184446Y-102060292D01*
X142219005Y-102041820D01*
X142256501Y-102030445D01*
X142301638Y-102026000D01*
X142940362Y-102026000D01*
X142985499Y-102030445D01*
G37*
G36*
X140699499Y-100280445D02*
G01*
X140736995Y-100291820D01*
X140771554Y-100310292D01*
X140801847Y-100335153D01*
X140826708Y-100365446D01*
X140845180Y-100400005D01*
X140856555Y-100437501D01*
X140861000Y-100482638D01*
X140861000Y-101221362D01*
X140856555Y-101266499D01*
X140845180Y-101303995D01*
X140826708Y-101338554D01*
X140801847Y-101368847D01*
X140771554Y-101393708D01*
X140736995Y-101412180D01*
X140699499Y-101423555D01*
X140654362Y-101428000D01*
X140015638Y-101428000D01*
X139970501Y-101423555D01*
X139933005Y-101412180D01*
X139898446Y-101393708D01*
X139868153Y-101368847D01*
X139843292Y-101338554D01*
X139824820Y-101303995D01*
X139813445Y-101266499D01*
X139809000Y-101221362D01*
X139809000Y-100482638D01*
X139813445Y-100437501D01*
X139824820Y-100400005D01*
X139843292Y-100365446D01*
X139868153Y-100335153D01*
X139898446Y-100310292D01*
X139933005Y-100291820D01*
X139970501Y-100280445D01*
X140015638Y-100276000D01*
X140654362Y-100276000D01*
X140699499Y-100280445D01*
G37*
G36*
X142985499Y-100280445D02*
G01*
X143022995Y-100291820D01*
X143057554Y-100310292D01*
X143087847Y-100335153D01*
X143112708Y-100365446D01*
X143131180Y-100400005D01*
X143142555Y-100437501D01*
X143147000Y-100482638D01*
X143147000Y-101221362D01*
X143142555Y-101266499D01*
X143131180Y-101303995D01*
X143112708Y-101338554D01*
X143087847Y-101368847D01*
X143057554Y-101393708D01*
X143022995Y-101412180D01*
X142985499Y-101423555D01*
X142940362Y-101428000D01*
X142301638Y-101428000D01*
X142256501Y-101423555D01*
X142219005Y-101412180D01*
X142184446Y-101393708D01*
X142154153Y-101368847D01*
X142129292Y-101338554D01*
X142110820Y-101303995D01*
X142099445Y-101266499D01*
X142095000Y-101221362D01*
X142095000Y-100482638D01*
X142099445Y-100437501D01*
X142110820Y-100400005D01*
X142129292Y-100365446D01*
X142154153Y-100335153D01*
X142184446Y-100310292D01*
X142219005Y-100291820D01*
X142256501Y-100280445D01*
X142301638Y-100276000D01*
X142940362Y-100276000D01*
X142985499Y-100280445D01*
G37*
G36*
X175552632Y-89195677D02*
G01*
X175858005Y-89322167D01*
X176289868Y-89501050D01*
X176953362Y-89944383D01*
X177517617Y-90508638D01*
X177960950Y-91172132D01*
X178081275Y-91462624D01*
X178266323Y-91909368D01*
X178422000Y-92692010D01*
X178422000Y-93489990D01*
X178266323Y-94272632D01*
X178257204Y-94294646D01*
X177960950Y-95009868D01*
X177517617Y-95673362D01*
X176953362Y-96237617D01*
X176289868Y-96680950D01*
X175858005Y-96859833D01*
X175552632Y-96986323D01*
X174769990Y-97142000D01*
X173972010Y-97142000D01*
X173189368Y-96986323D01*
X172883995Y-96859833D01*
X172452132Y-96680950D01*
X171788638Y-96237617D01*
X171224383Y-95673362D01*
X170781050Y-95009868D01*
X170484796Y-94294646D01*
X170475677Y-94272632D01*
X170320000Y-93489990D01*
X170320000Y-92692010D01*
X170475677Y-91909368D01*
X170660725Y-91462624D01*
X170781050Y-91172132D01*
X171224383Y-90508638D01*
X171788638Y-89944383D01*
X172452132Y-89501050D01*
X172883995Y-89322167D01*
X173189368Y-89195677D01*
X173972010Y-89040000D01*
X174769990Y-89040000D01*
X175552632Y-89195677D01*
G37*
G36*
X139940512Y-93972927D02*
G01*
X140089812Y-94002624D01*
X140253784Y-94070544D01*
X140401354Y-94169147D01*
X140526853Y-94294646D01*
X140625456Y-94442216D01*
X140693376Y-94606188D01*
X140728000Y-94780259D01*
X140728000Y-94957741D01*
X140693376Y-95131812D01*
X140625456Y-95295784D01*
X140526853Y-95443354D01*
X140401354Y-95568853D01*
X140253784Y-95667456D01*
X140089812Y-95735376D01*
X139940512Y-95765073D01*
X139915742Y-95770000D01*
X139738258Y-95770000D01*
X139713488Y-95765073D01*
X139564188Y-95735376D01*
X139400216Y-95667456D01*
X139252646Y-95568853D01*
X139127147Y-95443354D01*
X139028544Y-95295784D01*
X138960624Y-95131812D01*
X138926000Y-94957741D01*
X138926000Y-94780259D01*
X138960624Y-94606188D01*
X139028544Y-94442216D01*
X139127147Y-94294646D01*
X139252646Y-94169147D01*
X139400216Y-94070544D01*
X139564188Y-94002624D01*
X139713488Y-93972927D01*
X139738258Y-93968000D01*
X139915742Y-93968000D01*
X139940512Y-93972927D01*
G37*
G36*
X138188000Y-95770000D02*
G01*
X136386000Y-95770000D01*
X136386000Y-93968000D01*
X138188000Y-93968000D01*
X138188000Y-95770000D01*
G37*
G36*
X142480512Y-93972927D02*
G01*
X142629812Y-94002624D01*
X142793784Y-94070544D01*
X142941354Y-94169147D01*
X143066853Y-94294646D01*
X143165456Y-94442216D01*
X143233376Y-94606188D01*
X143268000Y-94780259D01*
X143268000Y-94957741D01*
X143233376Y-95131812D01*
X143165456Y-95295784D01*
X143066853Y-95443354D01*
X142941354Y-95568853D01*
X142793784Y-95667456D01*
X142629812Y-95735376D01*
X142480512Y-95765073D01*
X142455742Y-95770000D01*
X142278258Y-95770000D01*
X142253488Y-95765073D01*
X142104188Y-95735376D01*
X141940216Y-95667456D01*
X141792646Y-95568853D01*
X141667147Y-95443354D01*
X141568544Y-95295784D01*
X141500624Y-95131812D01*
X141466000Y-94957741D01*
X141466000Y-94780259D01*
X141500624Y-94606188D01*
X141568544Y-94442216D01*
X141667147Y-94294646D01*
X141792646Y-94169147D01*
X141940216Y-94070544D01*
X142104188Y-94002624D01*
X142253488Y-93972927D01*
X142278258Y-93968000D01*
X142455742Y-93968000D01*
X142480512Y-93972927D01*
G37*
G36*
X149636000Y-94290000D02*
G01*
X148474000Y-94290000D01*
X148474000Y-91638000D01*
X149636000Y-91638000D01*
X149636000Y-94290000D01*
G37*
G36*
X147436000Y-94290000D02*
G01*
X146274000Y-94290000D01*
X146274000Y-91638000D01*
X147436000Y-91638000D01*
X147436000Y-94290000D01*
G37*
G36*
X110756000Y-94119000D02*
G01*
X108954000Y-94119000D01*
X108954000Y-92317000D01*
X110756000Y-92317000D01*
X110756000Y-94119000D01*
G37*
G36*
X115048512Y-92321927D02*
G01*
X115197812Y-92351624D01*
X115361784Y-92419544D01*
X115509354Y-92518147D01*
X115634853Y-92643646D01*
X115733456Y-92791216D01*
X115801376Y-92955188D01*
X115831073Y-93104488D01*
X115835642Y-93127456D01*
X115836000Y-93129259D01*
X115836000Y-93306741D01*
X115801376Y-93480812D01*
X115733456Y-93644784D01*
X115634853Y-93792354D01*
X115509354Y-93917853D01*
X115361784Y-94016456D01*
X115197812Y-94084376D01*
X115048512Y-94114073D01*
X115023742Y-94119000D01*
X114846258Y-94119000D01*
X114821488Y-94114073D01*
X114672188Y-94084376D01*
X114508216Y-94016456D01*
X114360646Y-93917853D01*
X114235147Y-93792354D01*
X114136544Y-93644784D01*
X114068624Y-93480812D01*
X114034000Y-93306741D01*
X114034000Y-93129259D01*
X114034359Y-93127456D01*
X114038927Y-93104488D01*
X114068624Y-92955188D01*
X114136544Y-92791216D01*
X114235147Y-92643646D01*
X114360646Y-92518147D01*
X114508216Y-92419544D01*
X114672188Y-92351624D01*
X114821488Y-92321927D01*
X114846258Y-92317000D01*
X115023742Y-92317000D01*
X115048512Y-92321927D01*
G37*
G36*
X112508512Y-92321927D02*
G01*
X112657812Y-92351624D01*
X112821784Y-92419544D01*
X112969354Y-92518147D01*
X113094853Y-92643646D01*
X113193456Y-92791216D01*
X113261376Y-92955188D01*
X113291073Y-93104488D01*
X113295642Y-93127456D01*
X113296000Y-93129259D01*
X113296000Y-93306741D01*
X113261376Y-93480812D01*
X113193456Y-93644784D01*
X113094853Y-93792354D01*
X112969354Y-93917853D01*
X112821784Y-94016456D01*
X112657812Y-94084376D01*
X112508512Y-94114073D01*
X112483742Y-94119000D01*
X112306258Y-94119000D01*
X112281488Y-94114073D01*
X112132188Y-94084376D01*
X111968216Y-94016456D01*
X111820646Y-93917853D01*
X111695147Y-93792354D01*
X111596544Y-93644784D01*
X111528624Y-93480812D01*
X111494000Y-93306741D01*
X111494000Y-93129259D01*
X111494359Y-93127456D01*
X111498927Y-93104488D01*
X111528624Y-92955188D01*
X111596544Y-92791216D01*
X111695147Y-92643646D01*
X111820646Y-92518147D01*
X111968216Y-92419544D01*
X112132188Y-92351624D01*
X112281488Y-92321927D01*
X112306258Y-92317000D01*
X112483742Y-92317000D01*
X112508512Y-92321927D01*
G37*
G36*
X117588512Y-92321927D02*
G01*
X117737812Y-92351624D01*
X117901784Y-92419544D01*
X118049354Y-92518147D01*
X118174853Y-92643646D01*
X118273456Y-92791216D01*
X118341376Y-92955188D01*
X118371073Y-93104488D01*
X118375642Y-93127456D01*
X118376000Y-93129259D01*
X118376000Y-93306741D01*
X118341376Y-93480812D01*
X118273456Y-93644784D01*
X118174853Y-93792354D01*
X118049354Y-93917853D01*
X117901784Y-94016456D01*
X117737812Y-94084376D01*
X117588512Y-94114073D01*
X117563742Y-94119000D01*
X117386258Y-94119000D01*
X117361488Y-94114073D01*
X117212188Y-94084376D01*
X117048216Y-94016456D01*
X116900646Y-93917853D01*
X116775147Y-93792354D01*
X116676544Y-93644784D01*
X116608624Y-93480812D01*
X116574000Y-93306741D01*
X116574000Y-93129259D01*
X116574359Y-93127456D01*
X116578927Y-93104488D01*
X116608624Y-92955188D01*
X116676544Y-92791216D01*
X116775147Y-92643646D01*
X116900646Y-92518147D01*
X117048216Y-92419544D01*
X117212188Y-92351624D01*
X117361488Y-92321927D01*
X117386258Y-92317000D01*
X117563742Y-92317000D01*
X117588512Y-92321927D01*
G37*
G36*
X153068499Y-92569445D02*
G01*
X153105995Y-92580820D01*
X153140554Y-92599292D01*
X153170847Y-92624153D01*
X153195708Y-92654446D01*
X153214180Y-92689005D01*
X153225555Y-92726501D01*
X153230000Y-92771638D01*
X153230000Y-93410362D01*
X153225555Y-93455499D01*
X153214180Y-93492995D01*
X153195708Y-93527554D01*
X153170847Y-93557847D01*
X153140554Y-93582708D01*
X153105995Y-93601180D01*
X153068499Y-93612555D01*
X153023362Y-93617000D01*
X152284638Y-93617000D01*
X152239501Y-93612555D01*
X152202005Y-93601180D01*
X152167446Y-93582708D01*
X152137153Y-93557847D01*
X152112292Y-93527554D01*
X152093820Y-93492995D01*
X152082445Y-93455499D01*
X152078000Y-93410362D01*
X152078000Y-92771638D01*
X152082445Y-92726501D01*
X152093820Y-92689005D01*
X152112292Y-92654446D01*
X152137153Y-92624153D01*
X152167446Y-92599292D01*
X152202005Y-92580820D01*
X152239501Y-92569445D01*
X152284638Y-92565000D01*
X153023362Y-92565000D01*
X153068499Y-92569445D01*
G37*
G36*
X154818499Y-92569445D02*
G01*
X154855995Y-92580820D01*
X154890554Y-92599292D01*
X154920847Y-92624153D01*
X154945708Y-92654446D01*
X154964180Y-92689005D01*
X154975555Y-92726501D01*
X154980000Y-92771638D01*
X154980000Y-93410362D01*
X154975555Y-93455499D01*
X154964180Y-93492995D01*
X154945708Y-93527554D01*
X154920847Y-93557847D01*
X154890554Y-93582708D01*
X154855995Y-93601180D01*
X154818499Y-93612555D01*
X154773362Y-93617000D01*
X154034638Y-93617000D01*
X153989501Y-93612555D01*
X153952005Y-93601180D01*
X153917446Y-93582708D01*
X153887153Y-93557847D01*
X153862292Y-93527554D01*
X153843820Y-93492995D01*
X153832445Y-93455499D01*
X153828000Y-93410362D01*
X153828000Y-92771638D01*
X153832445Y-92726501D01*
X153843820Y-92689005D01*
X153862292Y-92654446D01*
X153887153Y-92624153D01*
X153917446Y-92599292D01*
X153952005Y-92580820D01*
X153989501Y-92569445D01*
X154034638Y-92565000D01*
X154773362Y-92565000D01*
X154818499Y-92569445D01*
G37*
G36*
X137400512Y-91432927D02*
G01*
X137549812Y-91462624D01*
X137713784Y-91530544D01*
X137861354Y-91629147D01*
X137986853Y-91754646D01*
X138085456Y-91902216D01*
X138153376Y-92066188D01*
X138183073Y-92215488D01*
X138188000Y-92240258D01*
X138188000Y-92417742D01*
X138183073Y-92442512D01*
X138153376Y-92591812D01*
X138085456Y-92755784D01*
X137986853Y-92903354D01*
X137861354Y-93028853D01*
X137713784Y-93127456D01*
X137549812Y-93195376D01*
X137400512Y-93225073D01*
X137375742Y-93230000D01*
X137198258Y-93230000D01*
X137173488Y-93225073D01*
X137024188Y-93195376D01*
X136860216Y-93127456D01*
X136712646Y-93028853D01*
X136587147Y-92903354D01*
X136488544Y-92755784D01*
X136420624Y-92591812D01*
X136390927Y-92442512D01*
X136386000Y-92417742D01*
X136386000Y-92240258D01*
X136390927Y-92215488D01*
X136420624Y-92066188D01*
X136488544Y-91902216D01*
X136587147Y-91754646D01*
X136712646Y-91629147D01*
X136860216Y-91530544D01*
X137024188Y-91462624D01*
X137173488Y-91432927D01*
X137198258Y-91428000D01*
X137375742Y-91428000D01*
X137400512Y-91432927D01*
G37*
G36*
X142480512Y-91432927D02*
G01*
X142629812Y-91462624D01*
X142793784Y-91530544D01*
X142941354Y-91629147D01*
X143066853Y-91754646D01*
X143165456Y-91902216D01*
X143233376Y-92066188D01*
X143263073Y-92215488D01*
X143268000Y-92240258D01*
X143268000Y-92417742D01*
X143263073Y-92442512D01*
X143233376Y-92591812D01*
X143165456Y-92755784D01*
X143066853Y-92903354D01*
X142941354Y-93028853D01*
X142793784Y-93127456D01*
X142629812Y-93195376D01*
X142480512Y-93225073D01*
X142455742Y-93230000D01*
X142278258Y-93230000D01*
X142253488Y-93225073D01*
X142104188Y-93195376D01*
X141940216Y-93127456D01*
X141792646Y-93028853D01*
X141667147Y-92903354D01*
X141568544Y-92755784D01*
X141500624Y-92591812D01*
X141470927Y-92442512D01*
X141466000Y-92417742D01*
X141466000Y-92240258D01*
X141470927Y-92215488D01*
X141500624Y-92066188D01*
X141568544Y-91902216D01*
X141667147Y-91754646D01*
X141792646Y-91629147D01*
X141940216Y-91530544D01*
X142104188Y-91462624D01*
X142253488Y-91432927D01*
X142278258Y-91428000D01*
X142455742Y-91428000D01*
X142480512Y-91432927D01*
G37*
G36*
X139940512Y-91432927D02*
G01*
X140089812Y-91462624D01*
X140253784Y-91530544D01*
X140401354Y-91629147D01*
X140526853Y-91754646D01*
X140625456Y-91902216D01*
X140693376Y-92066188D01*
X140723073Y-92215488D01*
X140728000Y-92240258D01*
X140728000Y-92417742D01*
X140723073Y-92442512D01*
X140693376Y-92591812D01*
X140625456Y-92755784D01*
X140526853Y-92903354D01*
X140401354Y-93028853D01*
X140253784Y-93127456D01*
X140089812Y-93195376D01*
X139940512Y-93225073D01*
X139915742Y-93230000D01*
X139738258Y-93230000D01*
X139713488Y-93225073D01*
X139564188Y-93195376D01*
X139400216Y-93127456D01*
X139252646Y-93028853D01*
X139127147Y-92903354D01*
X139028544Y-92755784D01*
X138960624Y-92591812D01*
X138930927Y-92442512D01*
X138926000Y-92417742D01*
X138926000Y-92240258D01*
X138930927Y-92215488D01*
X138960624Y-92066188D01*
X139028544Y-91902216D01*
X139127147Y-91754646D01*
X139252646Y-91629147D01*
X139400216Y-91530544D01*
X139564188Y-91462624D01*
X139713488Y-91432927D01*
X139738258Y-91428000D01*
X139915742Y-91428000D01*
X139940512Y-91432927D01*
G37*
G36*
X153054499Y-90918445D02*
G01*
X153091995Y-90929820D01*
X153126554Y-90948292D01*
X153156847Y-90973153D01*
X153181708Y-91003446D01*
X153200180Y-91038005D01*
X153211555Y-91075501D01*
X153216000Y-91120638D01*
X153216000Y-91759362D01*
X153211555Y-91804499D01*
X153200180Y-91841995D01*
X153181708Y-91876554D01*
X153156847Y-91906847D01*
X153126554Y-91931708D01*
X153091995Y-91950180D01*
X153054499Y-91961555D01*
X153009362Y-91966000D01*
X152270638Y-91966000D01*
X152225501Y-91961555D01*
X152188005Y-91950180D01*
X152153446Y-91931708D01*
X152123153Y-91906847D01*
X152098292Y-91876554D01*
X152079820Y-91841995D01*
X152068445Y-91804499D01*
X152064000Y-91759362D01*
X152064000Y-91120638D01*
X152068445Y-91075501D01*
X152079820Y-91038005D01*
X152098292Y-91003446D01*
X152123153Y-90973153D01*
X152153446Y-90948292D01*
X152188005Y-90929820D01*
X152225501Y-90918445D01*
X152270638Y-90914000D01*
X153009362Y-90914000D01*
X153054499Y-90918445D01*
G37*
G36*
X151304499Y-90918445D02*
G01*
X151341995Y-90929820D01*
X151376554Y-90948292D01*
X151406847Y-90973153D01*
X151431708Y-91003446D01*
X151450180Y-91038005D01*
X151461555Y-91075501D01*
X151466000Y-91120638D01*
X151466000Y-91759362D01*
X151461555Y-91804499D01*
X151450180Y-91841995D01*
X151431708Y-91876554D01*
X151406847Y-91906847D01*
X151376554Y-91931708D01*
X151341995Y-91950180D01*
X151304499Y-91961555D01*
X151259362Y-91966000D01*
X150520638Y-91966000D01*
X150475501Y-91961555D01*
X150438005Y-91950180D01*
X150403446Y-91931708D01*
X150373153Y-91906847D01*
X150348292Y-91876554D01*
X150329820Y-91841995D01*
X150318445Y-91804499D01*
X150314000Y-91759362D01*
X150314000Y-91120638D01*
X150318445Y-91075501D01*
X150329820Y-91038005D01*
X150348292Y-91003446D01*
X150373153Y-90973153D01*
X150403446Y-90948292D01*
X150438005Y-90929820D01*
X150475501Y-90918445D01*
X150520638Y-90914000D01*
X151259362Y-90914000D01*
X151304499Y-90918445D01*
G37*
G36*
X147621499Y-89775445D02*
G01*
X147658995Y-89786820D01*
X147693554Y-89805292D01*
X147723847Y-89830153D01*
X147748708Y-89860446D01*
X147767180Y-89895005D01*
X147778555Y-89932501D01*
X147783000Y-89977638D01*
X147783000Y-90616362D01*
X147778555Y-90661499D01*
X147767180Y-90698995D01*
X147748708Y-90733554D01*
X147723847Y-90763847D01*
X147693554Y-90788708D01*
X147658995Y-90807180D01*
X147621499Y-90818555D01*
X147576362Y-90823000D01*
X146837638Y-90823000D01*
X146792501Y-90818555D01*
X146755005Y-90807180D01*
X146720446Y-90788708D01*
X146690153Y-90763847D01*
X146665292Y-90733554D01*
X146646820Y-90698995D01*
X146635445Y-90661499D01*
X146631000Y-90616362D01*
X146631000Y-89977638D01*
X146635445Y-89932501D01*
X146646820Y-89895005D01*
X146665292Y-89860446D01*
X146690153Y-89830153D01*
X146720446Y-89805292D01*
X146755005Y-89786820D01*
X146792501Y-89775445D01*
X146837638Y-89771000D01*
X147576362Y-89771000D01*
X147621499Y-89775445D01*
G37*
G36*
X149371499Y-89775445D02*
G01*
X149408995Y-89786820D01*
X149443554Y-89805292D01*
X149473847Y-89830153D01*
X149498708Y-89860446D01*
X149517180Y-89895005D01*
X149528555Y-89932501D01*
X149533000Y-89977638D01*
X149533000Y-90616362D01*
X149528555Y-90661499D01*
X149517180Y-90698995D01*
X149498708Y-90733554D01*
X149473847Y-90763847D01*
X149443554Y-90788708D01*
X149408995Y-90807180D01*
X149371499Y-90818555D01*
X149326362Y-90823000D01*
X148587638Y-90823000D01*
X148542501Y-90818555D01*
X148505005Y-90807180D01*
X148470446Y-90788708D01*
X148440153Y-90763847D01*
X148415292Y-90733554D01*
X148396820Y-90698995D01*
X148385445Y-90661499D01*
X148381000Y-90616362D01*
X148381000Y-89977638D01*
X148385445Y-89932501D01*
X148396820Y-89895005D01*
X148415292Y-89860446D01*
X148440153Y-89830153D01*
X148470446Y-89805292D01*
X148505005Y-89786820D01*
X148542501Y-89775445D01*
X148587638Y-89771000D01*
X149326362Y-89771000D01*
X149371499Y-89775445D01*
G37*
M02*
