G04 #@! TF.GenerationSoftware,KiCad,Pcbnew,(5.1.5)-3*
G04 #@! TF.CreationDate,2020-08-03T18:05:54+02:00*
G04 #@! TF.ProjectId,MK7 Gripper,4d4b3720-4772-4697-9070-65722e6b6963,rev?*
G04 #@! TF.SameCoordinates,Original*
G04 #@! TF.FileFunction,Soldermask,Bot*
G04 #@! TF.FilePolarity,Negative*
%FSLAX46Y46*%
G04 Gerber Fmt 4.6, Leading zero omitted, Abs format (unit mm)*
G04 Created by KiCad (PCBNEW (5.1.5)-3) date 2020-08-03 18:05:54*
%MOMM*%
%LPD*%
G04 APERTURE LIST*
%ADD10C,0.100000*%
G04 APERTURE END LIST*
D10*
G36*
X140133564Y-125354389D02*
G01*
X140324833Y-125433615D01*
X140324835Y-125433616D01*
X140496973Y-125548635D01*
X140643365Y-125695027D01*
X140743887Y-125845468D01*
X140758385Y-125867167D01*
X140837611Y-126058436D01*
X140878000Y-126261484D01*
X140878000Y-126468516D01*
X140837611Y-126671564D01*
X140758385Y-126862833D01*
X140758384Y-126862835D01*
X140643365Y-127034973D01*
X140496973Y-127181365D01*
X140324835Y-127296384D01*
X140324834Y-127296385D01*
X140324833Y-127296385D01*
X140133564Y-127375611D01*
X139930516Y-127416000D01*
X139723484Y-127416000D01*
X139520436Y-127375611D01*
X139329167Y-127296385D01*
X139329166Y-127296385D01*
X139329165Y-127296384D01*
X139157027Y-127181365D01*
X139010635Y-127034973D01*
X138895616Y-126862835D01*
X138895615Y-126862833D01*
X138816389Y-126671564D01*
X138776000Y-126468516D01*
X138776000Y-126261484D01*
X138816389Y-126058436D01*
X138895615Y-125867167D01*
X138910114Y-125845468D01*
X139010635Y-125695027D01*
X139157027Y-125548635D01*
X139329165Y-125433616D01*
X139329167Y-125433615D01*
X139520436Y-125354389D01*
X139723484Y-125314000D01*
X139930516Y-125314000D01*
X140133564Y-125354389D01*
G37*
G36*
X133633564Y-125354389D02*
G01*
X133824833Y-125433615D01*
X133824835Y-125433616D01*
X133996973Y-125548635D01*
X134143365Y-125695027D01*
X134243887Y-125845468D01*
X134258385Y-125867167D01*
X134337611Y-126058436D01*
X134378000Y-126261484D01*
X134378000Y-126468516D01*
X134337611Y-126671564D01*
X134258385Y-126862833D01*
X134258384Y-126862835D01*
X134143365Y-127034973D01*
X133996973Y-127181365D01*
X133824835Y-127296384D01*
X133824834Y-127296385D01*
X133824833Y-127296385D01*
X133633564Y-127375611D01*
X133430516Y-127416000D01*
X133223484Y-127416000D01*
X133020436Y-127375611D01*
X132829167Y-127296385D01*
X132829166Y-127296385D01*
X132829165Y-127296384D01*
X132657027Y-127181365D01*
X132510635Y-127034973D01*
X132395616Y-126862835D01*
X132395615Y-126862833D01*
X132316389Y-126671564D01*
X132276000Y-126468516D01*
X132276000Y-126261484D01*
X132316389Y-126058436D01*
X132395615Y-125867167D01*
X132410114Y-125845468D01*
X132510635Y-125695027D01*
X132657027Y-125548635D01*
X132829165Y-125433616D01*
X132829167Y-125433615D01*
X133020436Y-125354389D01*
X133223484Y-125314000D01*
X133430516Y-125314000D01*
X133633564Y-125354389D01*
G37*
G36*
X102625626Y-124311037D02*
G01*
X102795465Y-124362557D01*
X102795467Y-124362558D01*
X102951989Y-124446221D01*
X103089186Y-124558814D01*
X103172448Y-124660271D01*
X103201778Y-124696009D01*
X103285443Y-124852534D01*
X103336963Y-125022373D01*
X103336963Y-125022375D01*
X103350000Y-125154740D01*
X103350000Y-125543259D01*
X103343482Y-125609441D01*
X103336963Y-125675626D01*
X103285443Y-125845466D01*
X103201778Y-126001991D01*
X103189580Y-126016854D01*
X103089186Y-126139186D01*
X102994250Y-126217097D01*
X102951991Y-126251778D01*
X102795466Y-126335443D01*
X102625627Y-126386963D01*
X102449000Y-126404359D01*
X102272374Y-126386963D01*
X102102535Y-126335443D01*
X101946010Y-126251778D01*
X101808815Y-126139185D01*
X101696222Y-126001991D01*
X101628372Y-125875053D01*
X101612558Y-125845468D01*
X101612557Y-125845466D01*
X101561037Y-125675627D01*
X101554519Y-125609443D01*
X101548000Y-125543260D01*
X101548000Y-125154741D01*
X101561037Y-125022376D01*
X101561037Y-125022374D01*
X101612557Y-124852535D01*
X101685747Y-124715607D01*
X101696221Y-124696011D01*
X101808814Y-124558814D01*
X101926585Y-124462163D01*
X101946009Y-124446222D01*
X102102534Y-124362557D01*
X102272373Y-124311037D01*
X102449000Y-124293641D01*
X102625626Y-124311037D01*
G37*
G36*
X100707600Y-124301989D02*
G01*
X100740652Y-124312015D01*
X100771103Y-124328292D01*
X100797799Y-124350201D01*
X100819708Y-124376897D01*
X100835985Y-124407348D01*
X100846011Y-124440400D01*
X100850000Y-124480903D01*
X100850000Y-126217097D01*
X100846011Y-126257600D01*
X100835985Y-126290652D01*
X100819708Y-126321103D01*
X100797799Y-126347799D01*
X100771103Y-126369708D01*
X100740652Y-126385985D01*
X100707600Y-126396011D01*
X100667097Y-126400000D01*
X99230903Y-126400000D01*
X99190400Y-126396011D01*
X99157348Y-126385985D01*
X99126897Y-126369708D01*
X99100201Y-126347799D01*
X99078292Y-126321103D01*
X99062015Y-126290652D01*
X99051989Y-126257600D01*
X99048000Y-126217097D01*
X99048000Y-124480903D01*
X99051989Y-124440400D01*
X99062015Y-124407348D01*
X99078292Y-124376897D01*
X99100201Y-124350201D01*
X99126897Y-124328292D01*
X99157348Y-124312015D01*
X99190400Y-124301989D01*
X99230903Y-124298000D01*
X100667097Y-124298000D01*
X100707600Y-124301989D01*
G37*
G36*
X128903393Y-123844304D02*
G01*
X129140101Y-123942352D01*
X129140103Y-123942353D01*
X129353135Y-124084696D01*
X129534304Y-124265865D01*
X129676647Y-124478897D01*
X129676648Y-124478899D01*
X129774696Y-124715607D01*
X129824680Y-124966893D01*
X129824680Y-125223107D01*
X129774696Y-125474393D01*
X129691342Y-125675626D01*
X129676647Y-125711103D01*
X129534304Y-125924135D01*
X129353135Y-126105304D01*
X129140103Y-126247647D01*
X129140102Y-126247648D01*
X129140101Y-126247648D01*
X128903393Y-126345696D01*
X128652107Y-126395680D01*
X128395893Y-126395680D01*
X128144607Y-126345696D01*
X127907899Y-126247648D01*
X127907898Y-126247648D01*
X127907897Y-126247647D01*
X127694865Y-126105304D01*
X127513696Y-125924135D01*
X127371353Y-125711103D01*
X127356658Y-125675626D01*
X127273304Y-125474393D01*
X127223320Y-125223107D01*
X127223320Y-124966893D01*
X127273304Y-124715607D01*
X127371352Y-124478899D01*
X127371353Y-124478897D01*
X127513696Y-124265865D01*
X127694865Y-124084696D01*
X127907897Y-123942353D01*
X127907899Y-123942352D01*
X128144607Y-123844304D01*
X128395893Y-123794320D01*
X128652107Y-123794320D01*
X128903393Y-123844304D01*
G37*
G36*
X123474680Y-126395680D02*
G01*
X120873320Y-126395680D01*
X120873320Y-123794320D01*
X123474680Y-123794320D01*
X123474680Y-126395680D01*
G37*
G36*
X125728393Y-123844304D02*
G01*
X125965101Y-123942352D01*
X125965103Y-123942353D01*
X126178135Y-124084696D01*
X126359304Y-124265865D01*
X126501647Y-124478897D01*
X126501648Y-124478899D01*
X126599696Y-124715607D01*
X126649680Y-124966893D01*
X126649680Y-125223107D01*
X126599696Y-125474393D01*
X126516342Y-125675626D01*
X126501647Y-125711103D01*
X126359304Y-125924135D01*
X126178135Y-126105304D01*
X125965103Y-126247647D01*
X125965102Y-126247648D01*
X125965101Y-126247648D01*
X125728393Y-126345696D01*
X125477107Y-126395680D01*
X125220893Y-126395680D01*
X124969607Y-126345696D01*
X124732899Y-126247648D01*
X124732898Y-126247648D01*
X124732897Y-126247647D01*
X124519865Y-126105304D01*
X124338696Y-125924135D01*
X124196353Y-125711103D01*
X124181658Y-125675626D01*
X124098304Y-125474393D01*
X124048320Y-125223107D01*
X124048320Y-124966893D01*
X124098304Y-124715607D01*
X124196352Y-124478899D01*
X124196353Y-124478897D01*
X124338696Y-124265865D01*
X124519865Y-124084696D01*
X124732897Y-123942353D01*
X124732899Y-123942352D01*
X124969607Y-123844304D01*
X125220893Y-123794320D01*
X125477107Y-123794320D01*
X125728393Y-123844304D01*
G37*
G36*
X111054618Y-124070920D02*
G01*
X111145404Y-124098460D01*
X111177336Y-124108146D01*
X111290425Y-124168594D01*
X111389554Y-124249946D01*
X111470906Y-124349075D01*
X111531354Y-124462164D01*
X111536430Y-124478897D01*
X111568580Y-124584882D01*
X111578000Y-124680527D01*
X111578000Y-125444473D01*
X111568580Y-125540118D01*
X111565996Y-125548635D01*
X111531354Y-125662836D01*
X111470906Y-125775925D01*
X111389554Y-125875053D01*
X111290424Y-125956406D01*
X111177335Y-126016854D01*
X111145403Y-126026540D01*
X111054617Y-126054080D01*
X110927000Y-126066649D01*
X110799382Y-126054080D01*
X110708596Y-126026540D01*
X110676664Y-126016854D01*
X110563575Y-125956406D01*
X110464447Y-125875054D01*
X110383094Y-125775924D01*
X110322646Y-125662835D01*
X110288004Y-125548635D01*
X110285420Y-125540117D01*
X110276000Y-125444472D01*
X110276000Y-124680527D01*
X110285420Y-124584882D01*
X110322645Y-124462168D01*
X110368908Y-124375617D01*
X110383095Y-124349075D01*
X110464447Y-124249946D01*
X110563576Y-124168594D01*
X110676665Y-124108146D01*
X110708597Y-124098460D01*
X110799383Y-124070920D01*
X110927000Y-124058351D01*
X111054618Y-124070920D01*
G37*
G36*
X118054617Y-124070920D02*
G01*
X118145403Y-124098460D01*
X118177335Y-124108146D01*
X118290424Y-124168594D01*
X118389554Y-124249947D01*
X118470906Y-124349075D01*
X118531354Y-124462164D01*
X118536430Y-124478897D01*
X118568580Y-124584882D01*
X118578000Y-124680527D01*
X118578000Y-125444473D01*
X118568580Y-125540118D01*
X118565996Y-125548635D01*
X118531354Y-125662836D01*
X118470906Y-125775925D01*
X118389554Y-125875054D01*
X118290425Y-125956406D01*
X118177336Y-126016854D01*
X118145404Y-126026540D01*
X118054618Y-126054080D01*
X117927000Y-126066649D01*
X117799383Y-126054080D01*
X117708597Y-126026540D01*
X117676665Y-126016854D01*
X117563576Y-125956406D01*
X117464447Y-125875054D01*
X117383095Y-125775925D01*
X117322648Y-125662837D01*
X117322645Y-125662832D01*
X117285420Y-125540118D01*
X117276000Y-125444473D01*
X117276000Y-124680528D01*
X117285420Y-124584883D01*
X117317570Y-124478899D01*
X117322646Y-124462165D01*
X117383094Y-124349076D01*
X117464447Y-124249946D01*
X117563575Y-124168594D01*
X117676664Y-124108146D01*
X117708596Y-124098460D01*
X117799382Y-124070920D01*
X117927000Y-124058351D01*
X118054617Y-124070920D01*
G37*
G36*
X117153348Y-121616320D02*
G01*
X117153350Y-121616321D01*
X117153351Y-121616321D01*
X117294574Y-121674817D01*
X117294577Y-121674819D01*
X117421669Y-121759739D01*
X117529761Y-121867831D01*
X117597035Y-121968514D01*
X117614683Y-121994926D01*
X117673179Y-122136149D01*
X117673180Y-122136152D01*
X117680224Y-122171565D01*
X117703000Y-122286071D01*
X117703000Y-122438929D01*
X117673179Y-122588851D01*
X117614683Y-122730074D01*
X117614681Y-122730077D01*
X117529761Y-122857169D01*
X117421669Y-122965261D01*
X117294577Y-123050181D01*
X117294574Y-123050183D01*
X117153351Y-123108679D01*
X117153350Y-123108679D01*
X117153348Y-123108680D01*
X117003431Y-123138500D01*
X116850569Y-123138500D01*
X116700652Y-123108680D01*
X116700650Y-123108679D01*
X116700649Y-123108679D01*
X116559426Y-123050183D01*
X116559423Y-123050181D01*
X116432331Y-122965261D01*
X116324239Y-122857169D01*
X116239319Y-122730077D01*
X116239317Y-122730074D01*
X116180821Y-122588851D01*
X116151000Y-122438929D01*
X116151000Y-122286071D01*
X116173776Y-122171565D01*
X116180820Y-122136152D01*
X116180821Y-122136149D01*
X116239317Y-121994926D01*
X116256965Y-121968514D01*
X116324239Y-121867831D01*
X116432331Y-121759739D01*
X116559423Y-121674819D01*
X116559426Y-121674817D01*
X116700649Y-121616321D01*
X116700650Y-121616321D01*
X116700652Y-121616320D01*
X116850569Y-121586500D01*
X117003431Y-121586500D01*
X117153348Y-121616320D01*
G37*
G36*
X112153348Y-121616320D02*
G01*
X112153350Y-121616321D01*
X112153351Y-121616321D01*
X112294574Y-121674817D01*
X112294577Y-121674819D01*
X112421669Y-121759739D01*
X112529761Y-121867831D01*
X112597035Y-121968514D01*
X112614683Y-121994926D01*
X112673179Y-122136149D01*
X112673180Y-122136152D01*
X112680224Y-122171565D01*
X112703000Y-122286071D01*
X112703000Y-122438929D01*
X112673179Y-122588851D01*
X112614683Y-122730074D01*
X112614681Y-122730077D01*
X112529761Y-122857169D01*
X112421669Y-122965261D01*
X112294577Y-123050181D01*
X112294574Y-123050183D01*
X112153351Y-123108679D01*
X112153350Y-123108679D01*
X112153348Y-123108680D01*
X112003431Y-123138500D01*
X111850569Y-123138500D01*
X111700652Y-123108680D01*
X111700650Y-123108679D01*
X111700649Y-123108679D01*
X111559426Y-123050183D01*
X111559423Y-123050181D01*
X111432331Y-122965261D01*
X111324239Y-122857169D01*
X111239319Y-122730077D01*
X111239317Y-122730074D01*
X111180821Y-122588851D01*
X111151000Y-122438929D01*
X111151000Y-122286071D01*
X111173776Y-122171565D01*
X111180820Y-122136152D01*
X111180821Y-122136149D01*
X111239317Y-121994926D01*
X111256965Y-121968514D01*
X111324239Y-121867831D01*
X111432331Y-121759739D01*
X111559423Y-121674819D01*
X111559426Y-121674817D01*
X111700649Y-121616321D01*
X111700650Y-121616321D01*
X111700652Y-121616320D01*
X111850569Y-121586500D01*
X112003431Y-121586500D01*
X112153348Y-121616320D01*
G37*
G36*
X133633564Y-120854389D02*
G01*
X133824833Y-120933615D01*
X133824835Y-120933616D01*
X133996973Y-121048635D01*
X134143365Y-121195027D01*
X134258385Y-121367167D01*
X134337611Y-121558436D01*
X134378000Y-121761484D01*
X134378000Y-121968516D01*
X134337611Y-122171564D01*
X134258385Y-122362833D01*
X134258384Y-122362835D01*
X134143365Y-122534973D01*
X133996973Y-122681365D01*
X133824835Y-122796384D01*
X133824834Y-122796385D01*
X133824833Y-122796385D01*
X133633564Y-122875611D01*
X133430516Y-122916000D01*
X133223484Y-122916000D01*
X133020436Y-122875611D01*
X132829167Y-122796385D01*
X132829166Y-122796385D01*
X132829165Y-122796384D01*
X132657027Y-122681365D01*
X132510635Y-122534973D01*
X132395616Y-122362835D01*
X132395615Y-122362833D01*
X132316389Y-122171564D01*
X132276000Y-121968516D01*
X132276000Y-121761484D01*
X132316389Y-121558436D01*
X132395615Y-121367167D01*
X132510635Y-121195027D01*
X132657027Y-121048635D01*
X132829165Y-120933616D01*
X132829167Y-120933615D01*
X133020436Y-120854389D01*
X133223484Y-120814000D01*
X133430516Y-120814000D01*
X133633564Y-120854389D01*
G37*
G36*
X140133564Y-120854389D02*
G01*
X140324833Y-120933615D01*
X140324835Y-120933616D01*
X140496973Y-121048635D01*
X140643365Y-121195027D01*
X140758385Y-121367167D01*
X140837611Y-121558436D01*
X140878000Y-121761484D01*
X140878000Y-121968516D01*
X140837611Y-122171564D01*
X140758385Y-122362833D01*
X140758384Y-122362835D01*
X140643365Y-122534973D01*
X140496973Y-122681365D01*
X140324835Y-122796384D01*
X140324834Y-122796385D01*
X140324833Y-122796385D01*
X140133564Y-122875611D01*
X139930516Y-122916000D01*
X139723484Y-122916000D01*
X139520436Y-122875611D01*
X139329167Y-122796385D01*
X139329166Y-122796385D01*
X139329165Y-122796384D01*
X139157027Y-122681365D01*
X139010635Y-122534973D01*
X138895616Y-122362835D01*
X138895615Y-122362833D01*
X138816389Y-122171564D01*
X138776000Y-121968516D01*
X138776000Y-121761484D01*
X138816389Y-121558436D01*
X138895615Y-121367167D01*
X139010635Y-121195027D01*
X139157027Y-121048635D01*
X139329165Y-120933616D01*
X139329167Y-120933615D01*
X139520436Y-120854389D01*
X139723484Y-120814000D01*
X139930516Y-120814000D01*
X140133564Y-120854389D01*
G37*
G36*
X149886642Y-118482781D02*
G01*
X150032414Y-118543162D01*
X150032416Y-118543163D01*
X150163608Y-118630822D01*
X150275178Y-118742392D01*
X150362837Y-118873584D01*
X150362838Y-118873586D01*
X150423219Y-119019358D01*
X150454000Y-119174107D01*
X150454000Y-119331893D01*
X150423219Y-119486642D01*
X150362838Y-119632414D01*
X150362837Y-119632416D01*
X150275178Y-119763608D01*
X150163608Y-119875178D01*
X150032416Y-119962837D01*
X150032415Y-119962838D01*
X150032414Y-119962838D01*
X149886642Y-120023219D01*
X149731893Y-120054000D01*
X149574107Y-120054000D01*
X149419358Y-120023219D01*
X149273586Y-119962838D01*
X149273585Y-119962838D01*
X149273584Y-119962837D01*
X149142392Y-119875178D01*
X149030822Y-119763608D01*
X148943163Y-119632416D01*
X148943162Y-119632414D01*
X148882781Y-119486642D01*
X148852000Y-119331893D01*
X148852000Y-119174107D01*
X148882781Y-119019358D01*
X148943162Y-118873586D01*
X148943163Y-118873584D01*
X149030822Y-118742392D01*
X149142392Y-118630822D01*
X149273584Y-118543163D01*
X149273586Y-118543162D01*
X149419358Y-118482781D01*
X149574107Y-118452000D01*
X149731893Y-118452000D01*
X149886642Y-118482781D01*
G37*
G36*
X144886642Y-118482781D02*
G01*
X145032414Y-118543162D01*
X145032416Y-118543163D01*
X145163608Y-118630822D01*
X145275178Y-118742392D01*
X145362837Y-118873584D01*
X145362838Y-118873586D01*
X145423219Y-119019358D01*
X145454000Y-119174107D01*
X145454000Y-119331893D01*
X145423219Y-119486642D01*
X145362838Y-119632414D01*
X145362837Y-119632416D01*
X145275178Y-119763608D01*
X145163608Y-119875178D01*
X145032416Y-119962837D01*
X145032415Y-119962838D01*
X145032414Y-119962838D01*
X144886642Y-120023219D01*
X144731893Y-120054000D01*
X144574107Y-120054000D01*
X144419358Y-120023219D01*
X144273586Y-119962838D01*
X144273585Y-119962838D01*
X144273584Y-119962837D01*
X144142392Y-119875178D01*
X144030822Y-119763608D01*
X143943163Y-119632416D01*
X143943162Y-119632414D01*
X143882781Y-119486642D01*
X143852000Y-119331893D01*
X143852000Y-119174107D01*
X143882781Y-119019358D01*
X143943162Y-118873586D01*
X143943163Y-118873584D01*
X144030822Y-118742392D01*
X144142392Y-118630822D01*
X144273584Y-118543163D01*
X144273586Y-118543162D01*
X144419358Y-118482781D01*
X144574107Y-118452000D01*
X144731893Y-118452000D01*
X144886642Y-118482781D01*
G37*
G36*
X142480512Y-93972927D02*
G01*
X142629812Y-94002624D01*
X142793784Y-94070544D01*
X142941354Y-94169147D01*
X143066853Y-94294646D01*
X143165456Y-94442216D01*
X143233376Y-94606188D01*
X143268000Y-94780259D01*
X143268000Y-94957741D01*
X143233376Y-95131812D01*
X143165456Y-95295784D01*
X143066853Y-95443354D01*
X142941354Y-95568853D01*
X142793784Y-95667456D01*
X142629812Y-95735376D01*
X142480512Y-95765073D01*
X142455742Y-95770000D01*
X142278258Y-95770000D01*
X142253488Y-95765073D01*
X142104188Y-95735376D01*
X141940216Y-95667456D01*
X141792646Y-95568853D01*
X141667147Y-95443354D01*
X141568544Y-95295784D01*
X141500624Y-95131812D01*
X141466000Y-94957741D01*
X141466000Y-94780259D01*
X141500624Y-94606188D01*
X141568544Y-94442216D01*
X141667147Y-94294646D01*
X141792646Y-94169147D01*
X141940216Y-94070544D01*
X142104188Y-94002624D01*
X142253488Y-93972927D01*
X142278258Y-93968000D01*
X142455742Y-93968000D01*
X142480512Y-93972927D01*
G37*
G36*
X139940512Y-93972927D02*
G01*
X140089812Y-94002624D01*
X140253784Y-94070544D01*
X140401354Y-94169147D01*
X140526853Y-94294646D01*
X140625456Y-94442216D01*
X140693376Y-94606188D01*
X140728000Y-94780259D01*
X140728000Y-94957741D01*
X140693376Y-95131812D01*
X140625456Y-95295784D01*
X140526853Y-95443354D01*
X140401354Y-95568853D01*
X140253784Y-95667456D01*
X140089812Y-95735376D01*
X139940512Y-95765073D01*
X139915742Y-95770000D01*
X139738258Y-95770000D01*
X139713488Y-95765073D01*
X139564188Y-95735376D01*
X139400216Y-95667456D01*
X139252646Y-95568853D01*
X139127147Y-95443354D01*
X139028544Y-95295784D01*
X138960624Y-95131812D01*
X138926000Y-94957741D01*
X138926000Y-94780259D01*
X138960624Y-94606188D01*
X139028544Y-94442216D01*
X139127147Y-94294646D01*
X139252646Y-94169147D01*
X139400216Y-94070544D01*
X139564188Y-94002624D01*
X139713488Y-93972927D01*
X139738258Y-93968000D01*
X139915742Y-93968000D01*
X139940512Y-93972927D01*
G37*
G36*
X138188000Y-95770000D02*
G01*
X136386000Y-95770000D01*
X136386000Y-93968000D01*
X138188000Y-93968000D01*
X138188000Y-95770000D01*
G37*
G36*
X117588512Y-92321927D02*
G01*
X117737812Y-92351624D01*
X117901784Y-92419544D01*
X118049354Y-92518147D01*
X118174853Y-92643646D01*
X118273456Y-92791216D01*
X118341376Y-92955188D01*
X118371073Y-93104488D01*
X118375642Y-93127456D01*
X118376000Y-93129259D01*
X118376000Y-93306741D01*
X118341376Y-93480812D01*
X118273456Y-93644784D01*
X118174853Y-93792354D01*
X118049354Y-93917853D01*
X117901784Y-94016456D01*
X117737812Y-94084376D01*
X117588512Y-94114073D01*
X117563742Y-94119000D01*
X117386258Y-94119000D01*
X117361488Y-94114073D01*
X117212188Y-94084376D01*
X117048216Y-94016456D01*
X116900646Y-93917853D01*
X116775147Y-93792354D01*
X116676544Y-93644784D01*
X116608624Y-93480812D01*
X116574000Y-93306741D01*
X116574000Y-93129259D01*
X116574359Y-93127456D01*
X116578927Y-93104488D01*
X116608624Y-92955188D01*
X116676544Y-92791216D01*
X116775147Y-92643646D01*
X116900646Y-92518147D01*
X117048216Y-92419544D01*
X117212188Y-92351624D01*
X117361488Y-92321927D01*
X117386258Y-92317000D01*
X117563742Y-92317000D01*
X117588512Y-92321927D01*
G37*
G36*
X115048512Y-92321927D02*
G01*
X115197812Y-92351624D01*
X115361784Y-92419544D01*
X115509354Y-92518147D01*
X115634853Y-92643646D01*
X115733456Y-92791216D01*
X115801376Y-92955188D01*
X115831073Y-93104488D01*
X115835642Y-93127456D01*
X115836000Y-93129259D01*
X115836000Y-93306741D01*
X115801376Y-93480812D01*
X115733456Y-93644784D01*
X115634853Y-93792354D01*
X115509354Y-93917853D01*
X115361784Y-94016456D01*
X115197812Y-94084376D01*
X115048512Y-94114073D01*
X115023742Y-94119000D01*
X114846258Y-94119000D01*
X114821488Y-94114073D01*
X114672188Y-94084376D01*
X114508216Y-94016456D01*
X114360646Y-93917853D01*
X114235147Y-93792354D01*
X114136544Y-93644784D01*
X114068624Y-93480812D01*
X114034000Y-93306741D01*
X114034000Y-93129259D01*
X114034359Y-93127456D01*
X114038927Y-93104488D01*
X114068624Y-92955188D01*
X114136544Y-92791216D01*
X114235147Y-92643646D01*
X114360646Y-92518147D01*
X114508216Y-92419544D01*
X114672188Y-92351624D01*
X114821488Y-92321927D01*
X114846258Y-92317000D01*
X115023742Y-92317000D01*
X115048512Y-92321927D01*
G37*
G36*
X112508512Y-92321927D02*
G01*
X112657812Y-92351624D01*
X112821784Y-92419544D01*
X112969354Y-92518147D01*
X113094853Y-92643646D01*
X113193456Y-92791216D01*
X113261376Y-92955188D01*
X113291073Y-93104488D01*
X113295642Y-93127456D01*
X113296000Y-93129259D01*
X113296000Y-93306741D01*
X113261376Y-93480812D01*
X113193456Y-93644784D01*
X113094853Y-93792354D01*
X112969354Y-93917853D01*
X112821784Y-94016456D01*
X112657812Y-94084376D01*
X112508512Y-94114073D01*
X112483742Y-94119000D01*
X112306258Y-94119000D01*
X112281488Y-94114073D01*
X112132188Y-94084376D01*
X111968216Y-94016456D01*
X111820646Y-93917853D01*
X111695147Y-93792354D01*
X111596544Y-93644784D01*
X111528624Y-93480812D01*
X111494000Y-93306741D01*
X111494000Y-93129259D01*
X111494359Y-93127456D01*
X111498927Y-93104488D01*
X111528624Y-92955188D01*
X111596544Y-92791216D01*
X111695147Y-92643646D01*
X111820646Y-92518147D01*
X111968216Y-92419544D01*
X112132188Y-92351624D01*
X112281488Y-92321927D01*
X112306258Y-92317000D01*
X112483742Y-92317000D01*
X112508512Y-92321927D01*
G37*
G36*
X110756000Y-94119000D02*
G01*
X108954000Y-94119000D01*
X108954000Y-92317000D01*
X110756000Y-92317000D01*
X110756000Y-94119000D01*
G37*
G36*
X139940512Y-91432927D02*
G01*
X140089812Y-91462624D01*
X140253784Y-91530544D01*
X140401354Y-91629147D01*
X140526853Y-91754646D01*
X140625456Y-91902216D01*
X140693376Y-92066188D01*
X140723073Y-92215488D01*
X140728000Y-92240258D01*
X140728000Y-92417742D01*
X140723073Y-92442512D01*
X140693376Y-92591812D01*
X140625456Y-92755784D01*
X140526853Y-92903354D01*
X140401354Y-93028853D01*
X140253784Y-93127456D01*
X140089812Y-93195376D01*
X139940512Y-93225073D01*
X139915742Y-93230000D01*
X139738258Y-93230000D01*
X139713488Y-93225073D01*
X139564188Y-93195376D01*
X139400216Y-93127456D01*
X139252646Y-93028853D01*
X139127147Y-92903354D01*
X139028544Y-92755784D01*
X138960624Y-92591812D01*
X138930927Y-92442512D01*
X138926000Y-92417742D01*
X138926000Y-92240258D01*
X138930927Y-92215488D01*
X138960624Y-92066188D01*
X139028544Y-91902216D01*
X139127147Y-91754646D01*
X139252646Y-91629147D01*
X139400216Y-91530544D01*
X139564188Y-91462624D01*
X139713488Y-91432927D01*
X139738258Y-91428000D01*
X139915742Y-91428000D01*
X139940512Y-91432927D01*
G37*
G36*
X137400512Y-91432927D02*
G01*
X137549812Y-91462624D01*
X137713784Y-91530544D01*
X137861354Y-91629147D01*
X137986853Y-91754646D01*
X138085456Y-91902216D01*
X138153376Y-92066188D01*
X138183073Y-92215488D01*
X138188000Y-92240258D01*
X138188000Y-92417742D01*
X138183073Y-92442512D01*
X138153376Y-92591812D01*
X138085456Y-92755784D01*
X137986853Y-92903354D01*
X137861354Y-93028853D01*
X137713784Y-93127456D01*
X137549812Y-93195376D01*
X137400512Y-93225073D01*
X137375742Y-93230000D01*
X137198258Y-93230000D01*
X137173488Y-93225073D01*
X137024188Y-93195376D01*
X136860216Y-93127456D01*
X136712646Y-93028853D01*
X136587147Y-92903354D01*
X136488544Y-92755784D01*
X136420624Y-92591812D01*
X136390927Y-92442512D01*
X136386000Y-92417742D01*
X136386000Y-92240258D01*
X136390927Y-92215488D01*
X136420624Y-92066188D01*
X136488544Y-91902216D01*
X136587147Y-91754646D01*
X136712646Y-91629147D01*
X136860216Y-91530544D01*
X137024188Y-91462624D01*
X137173488Y-91432927D01*
X137198258Y-91428000D01*
X137375742Y-91428000D01*
X137400512Y-91432927D01*
G37*
G36*
X142480512Y-91432927D02*
G01*
X142629812Y-91462624D01*
X142793784Y-91530544D01*
X142941354Y-91629147D01*
X143066853Y-91754646D01*
X143165456Y-91902216D01*
X143233376Y-92066188D01*
X143263073Y-92215488D01*
X143268000Y-92240258D01*
X143268000Y-92417742D01*
X143263073Y-92442512D01*
X143233376Y-92591812D01*
X143165456Y-92755784D01*
X143066853Y-92903354D01*
X142941354Y-93028853D01*
X142793784Y-93127456D01*
X142629812Y-93195376D01*
X142480512Y-93225073D01*
X142455742Y-93230000D01*
X142278258Y-93230000D01*
X142253488Y-93225073D01*
X142104188Y-93195376D01*
X141940216Y-93127456D01*
X141792646Y-93028853D01*
X141667147Y-92903354D01*
X141568544Y-92755784D01*
X141500624Y-92591812D01*
X141470927Y-92442512D01*
X141466000Y-92417742D01*
X141466000Y-92240258D01*
X141470927Y-92215488D01*
X141500624Y-92066188D01*
X141568544Y-91902216D01*
X141667147Y-91754646D01*
X141792646Y-91629147D01*
X141940216Y-91530544D01*
X142104188Y-91462624D01*
X142253488Y-91432927D01*
X142278258Y-91428000D01*
X142455742Y-91428000D01*
X142480512Y-91432927D01*
G37*
M02*
