M48
; DRILL file {KiCad (5.1.5)-3} date 08/03/20 18:05:56
; FORMAT={-:-/ absolute / inch / decimal}
; #@! TF.CreationDate,2020-08-03T18:05:56+02:00
; #@! TF.GenerationSoftware,Kicad,Pcbnew,(5.1.5)-3
; #@! TF.FileFunction,Plated,1,2,PTH
FMAT,2
INCH
T1C0.0157
T2C0.0236
T3C0.0315
T4C0.0335
T5C0.0394
T6C0.0394
T7C0.0433
%
G90
G05
T1
X3.58Y-4.2
X3.7256Y-4.485
X3.945Y-4.465
X3.945Y-4.645
X4.175Y-4.145
X4.535Y-4.395
X5.385Y-4.705
X5.415Y-4.315
X5.455Y-3.975
X5.4943Y-4.1943
X5.555Y-4.685
X5.6706Y-4.0394
X5.695Y-4.985
X5.715Y-3.615
X5.755Y-4.455
X5.815Y-4.345
X5.815Y-3.795
X5.865Y-4.995
X5.96Y-4.89
X6.405Y-4.865
X6.405Y-5.025
T3
X5.695Y-4.695
X5.8919Y-4.695
T4
X4.4066Y-4.8174
X4.6034Y-4.8174
T5
X5.405Y-3.635
X5.405Y-3.735
X5.505Y-3.635
X5.505Y-3.735
X5.605Y-3.635
X5.605Y-3.735
X4.325Y-3.67
X4.425Y-3.67
X4.525Y-3.67
X4.625Y-3.67
X3.935Y-4.935
X4.0334Y-4.935
T6
X4.81Y-4.925
X4.935Y-4.925
X5.06Y-4.925
T7
X5.2491Y-4.7978
X5.2491Y-4.975
X5.505Y-4.7978
X5.505Y-4.975
T2
G00X4.3672Y-4.9375
M15
G01X4.3672Y-4.9099
M16
G05
G00X4.6428Y-4.9099
M15
G01X4.6428Y-4.9375
M16
G05
T0
M30
