G04 #@! TF.GenerationSoftware,KiCad,Pcbnew,(5.1.5)-3*
G04 #@! TF.CreationDate,2020-08-30T19:55:31+02:00*
G04 #@! TF.ProjectId,Drone_PCB,44726f6e-655f-4504-9342-2e6b69636164,rev?*
G04 #@! TF.SameCoordinates,Original*
G04 #@! TF.FileFunction,Paste,Bot*
G04 #@! TF.FilePolarity,Positive*
%FSLAX46Y46*%
G04 Gerber Fmt 4.6, Leading zero omitted, Abs format (unit mm)*
G04 Created by KiCad (PCBNEW (5.1.5)-3) date 2020-08-30 19:55:31*
%MOMM*%
%LPD*%
G04 APERTURE LIST*
%ADD10R,0.998220X0.899160*%
%ADD11R,0.797560X0.899160*%
%ADD12C,0.100000*%
%ADD13R,0.900000X0.800000*%
G04 APERTURE END LIST*
D10*
X56606440Y-45194220D03*
X56606440Y-49293780D03*
X58201560Y-49293780D03*
X58201560Y-45194220D03*
D11*
X66294000Y-67901820D03*
X67243960Y-65803780D03*
X65344040Y-65803780D03*
X62611000Y-67901820D03*
X63560960Y-65803780D03*
X61661040Y-65803780D03*
D12*
G36*
X65856779Y-63661144D02*
G01*
X65879834Y-63664563D01*
X65902443Y-63670227D01*
X65924387Y-63678079D01*
X65945457Y-63688044D01*
X65965448Y-63700026D01*
X65984168Y-63713910D01*
X66001438Y-63729562D01*
X66017090Y-63746832D01*
X66030974Y-63765552D01*
X66042956Y-63785543D01*
X66052921Y-63806613D01*
X66060773Y-63828557D01*
X66066437Y-63851166D01*
X66069856Y-63874221D01*
X66071000Y-63897500D01*
X66071000Y-64372500D01*
X66069856Y-64395779D01*
X66066437Y-64418834D01*
X66060773Y-64441443D01*
X66052921Y-64463387D01*
X66042956Y-64484457D01*
X66030974Y-64504448D01*
X66017090Y-64523168D01*
X66001438Y-64540438D01*
X65984168Y-64556090D01*
X65965448Y-64569974D01*
X65945457Y-64581956D01*
X65924387Y-64591921D01*
X65902443Y-64599773D01*
X65879834Y-64605437D01*
X65856779Y-64608856D01*
X65833500Y-64610000D01*
X65258500Y-64610000D01*
X65235221Y-64608856D01*
X65212166Y-64605437D01*
X65189557Y-64599773D01*
X65167613Y-64591921D01*
X65146543Y-64581956D01*
X65126552Y-64569974D01*
X65107832Y-64556090D01*
X65090562Y-64540438D01*
X65074910Y-64523168D01*
X65061026Y-64504448D01*
X65049044Y-64484457D01*
X65039079Y-64463387D01*
X65031227Y-64441443D01*
X65025563Y-64418834D01*
X65022144Y-64395779D01*
X65021000Y-64372500D01*
X65021000Y-63897500D01*
X65022144Y-63874221D01*
X65025563Y-63851166D01*
X65031227Y-63828557D01*
X65039079Y-63806613D01*
X65049044Y-63785543D01*
X65061026Y-63765552D01*
X65074910Y-63746832D01*
X65090562Y-63729562D01*
X65107832Y-63713910D01*
X65126552Y-63700026D01*
X65146543Y-63688044D01*
X65167613Y-63678079D01*
X65189557Y-63670227D01*
X65212166Y-63664563D01*
X65235221Y-63661144D01*
X65258500Y-63660000D01*
X65833500Y-63660000D01*
X65856779Y-63661144D01*
G37*
G36*
X67606779Y-63661144D02*
G01*
X67629834Y-63664563D01*
X67652443Y-63670227D01*
X67674387Y-63678079D01*
X67695457Y-63688044D01*
X67715448Y-63700026D01*
X67734168Y-63713910D01*
X67751438Y-63729562D01*
X67767090Y-63746832D01*
X67780974Y-63765552D01*
X67792956Y-63785543D01*
X67802921Y-63806613D01*
X67810773Y-63828557D01*
X67816437Y-63851166D01*
X67819856Y-63874221D01*
X67821000Y-63897500D01*
X67821000Y-64372500D01*
X67819856Y-64395779D01*
X67816437Y-64418834D01*
X67810773Y-64441443D01*
X67802921Y-64463387D01*
X67792956Y-64484457D01*
X67780974Y-64504448D01*
X67767090Y-64523168D01*
X67751438Y-64540438D01*
X67734168Y-64556090D01*
X67715448Y-64569974D01*
X67695457Y-64581956D01*
X67674387Y-64591921D01*
X67652443Y-64599773D01*
X67629834Y-64605437D01*
X67606779Y-64608856D01*
X67583500Y-64610000D01*
X67008500Y-64610000D01*
X66985221Y-64608856D01*
X66962166Y-64605437D01*
X66939557Y-64599773D01*
X66917613Y-64591921D01*
X66896543Y-64581956D01*
X66876552Y-64569974D01*
X66857832Y-64556090D01*
X66840562Y-64540438D01*
X66824910Y-64523168D01*
X66811026Y-64504448D01*
X66799044Y-64484457D01*
X66789079Y-64463387D01*
X66781227Y-64441443D01*
X66775563Y-64418834D01*
X66772144Y-64395779D01*
X66771000Y-64372500D01*
X66771000Y-63897500D01*
X66772144Y-63874221D01*
X66775563Y-63851166D01*
X66781227Y-63828557D01*
X66789079Y-63806613D01*
X66799044Y-63785543D01*
X66811026Y-63765552D01*
X66824910Y-63746832D01*
X66840562Y-63729562D01*
X66857832Y-63713910D01*
X66876552Y-63700026D01*
X66896543Y-63688044D01*
X66917613Y-63678079D01*
X66939557Y-63670227D01*
X66962166Y-63664563D01*
X66985221Y-63661144D01*
X67008500Y-63660000D01*
X67583500Y-63660000D01*
X67606779Y-63661144D01*
G37*
G36*
X81101505Y-54260204D02*
G01*
X81125773Y-54263804D01*
X81149572Y-54269765D01*
X81172671Y-54278030D01*
X81194850Y-54288520D01*
X81215893Y-54301132D01*
X81235599Y-54315747D01*
X81253777Y-54332223D01*
X81270253Y-54350401D01*
X81284868Y-54370107D01*
X81297480Y-54391150D01*
X81307970Y-54413329D01*
X81316235Y-54436428D01*
X81322196Y-54460227D01*
X81325796Y-54484495D01*
X81327000Y-54508999D01*
X81327000Y-57759001D01*
X81325796Y-57783505D01*
X81322196Y-57807773D01*
X81316235Y-57831572D01*
X81307970Y-57854671D01*
X81297480Y-57876850D01*
X81284868Y-57897893D01*
X81270253Y-57917599D01*
X81253777Y-57935777D01*
X81235599Y-57952253D01*
X81215893Y-57966868D01*
X81194850Y-57979480D01*
X81172671Y-57989970D01*
X81149572Y-57998235D01*
X81125773Y-58004196D01*
X81101505Y-58007796D01*
X81077001Y-58009000D01*
X79726999Y-58009000D01*
X79702495Y-58007796D01*
X79678227Y-58004196D01*
X79654428Y-57998235D01*
X79631329Y-57989970D01*
X79609150Y-57979480D01*
X79588107Y-57966868D01*
X79568401Y-57952253D01*
X79550223Y-57935777D01*
X79533747Y-57917599D01*
X79519132Y-57897893D01*
X79506520Y-57876850D01*
X79496030Y-57854671D01*
X79487765Y-57831572D01*
X79481804Y-57807773D01*
X79478204Y-57783505D01*
X79477000Y-57759001D01*
X79477000Y-54508999D01*
X79478204Y-54484495D01*
X79481804Y-54460227D01*
X79487765Y-54436428D01*
X79496030Y-54413329D01*
X79506520Y-54391150D01*
X79519132Y-54370107D01*
X79533747Y-54350401D01*
X79550223Y-54332223D01*
X79568401Y-54315747D01*
X79588107Y-54301132D01*
X79609150Y-54288520D01*
X79631329Y-54278030D01*
X79654428Y-54269765D01*
X79678227Y-54263804D01*
X79702495Y-54260204D01*
X79726999Y-54259000D01*
X81077001Y-54259000D01*
X81101505Y-54260204D01*
G37*
G36*
X85651505Y-54260204D02*
G01*
X85675773Y-54263804D01*
X85699572Y-54269765D01*
X85722671Y-54278030D01*
X85744850Y-54288520D01*
X85765893Y-54301132D01*
X85785599Y-54315747D01*
X85803777Y-54332223D01*
X85820253Y-54350401D01*
X85834868Y-54370107D01*
X85847480Y-54391150D01*
X85857970Y-54413329D01*
X85866235Y-54436428D01*
X85872196Y-54460227D01*
X85875796Y-54484495D01*
X85877000Y-54508999D01*
X85877000Y-57759001D01*
X85875796Y-57783505D01*
X85872196Y-57807773D01*
X85866235Y-57831572D01*
X85857970Y-57854671D01*
X85847480Y-57876850D01*
X85834868Y-57897893D01*
X85820253Y-57917599D01*
X85803777Y-57935777D01*
X85785599Y-57952253D01*
X85765893Y-57966868D01*
X85744850Y-57979480D01*
X85722671Y-57989970D01*
X85699572Y-57998235D01*
X85675773Y-58004196D01*
X85651505Y-58007796D01*
X85627001Y-58009000D01*
X84276999Y-58009000D01*
X84252495Y-58007796D01*
X84228227Y-58004196D01*
X84204428Y-57998235D01*
X84181329Y-57989970D01*
X84159150Y-57979480D01*
X84138107Y-57966868D01*
X84118401Y-57952253D01*
X84100223Y-57935777D01*
X84083747Y-57917599D01*
X84069132Y-57897893D01*
X84056520Y-57876850D01*
X84046030Y-57854671D01*
X84037765Y-57831572D01*
X84031804Y-57807773D01*
X84028204Y-57783505D01*
X84027000Y-57759001D01*
X84027000Y-54508999D01*
X84028204Y-54484495D01*
X84031804Y-54460227D01*
X84037765Y-54436428D01*
X84046030Y-54413329D01*
X84056520Y-54391150D01*
X84069132Y-54370107D01*
X84083747Y-54350401D01*
X84100223Y-54332223D01*
X84118401Y-54315747D01*
X84138107Y-54301132D01*
X84159150Y-54288520D01*
X84181329Y-54278030D01*
X84204428Y-54269765D01*
X84228227Y-54263804D01*
X84252495Y-54260204D01*
X84276999Y-54259000D01*
X85627001Y-54259000D01*
X85651505Y-54260204D01*
G37*
D13*
X83550000Y-51308000D03*
X81550000Y-50358000D03*
X81550000Y-52258000D03*
D12*
G36*
X73984779Y-51596144D02*
G01*
X74007834Y-51599563D01*
X74030443Y-51605227D01*
X74052387Y-51613079D01*
X74073457Y-51623044D01*
X74093448Y-51635026D01*
X74112168Y-51648910D01*
X74129438Y-51664562D01*
X74145090Y-51681832D01*
X74158974Y-51700552D01*
X74170956Y-51720543D01*
X74180921Y-51741613D01*
X74188773Y-51763557D01*
X74194437Y-51786166D01*
X74197856Y-51809221D01*
X74199000Y-51832500D01*
X74199000Y-52307500D01*
X74197856Y-52330779D01*
X74194437Y-52353834D01*
X74188773Y-52376443D01*
X74180921Y-52398387D01*
X74170956Y-52419457D01*
X74158974Y-52439448D01*
X74145090Y-52458168D01*
X74129438Y-52475438D01*
X74112168Y-52491090D01*
X74093448Y-52504974D01*
X74073457Y-52516956D01*
X74052387Y-52526921D01*
X74030443Y-52534773D01*
X74007834Y-52540437D01*
X73984779Y-52543856D01*
X73961500Y-52545000D01*
X73386500Y-52545000D01*
X73363221Y-52543856D01*
X73340166Y-52540437D01*
X73317557Y-52534773D01*
X73295613Y-52526921D01*
X73274543Y-52516956D01*
X73254552Y-52504974D01*
X73235832Y-52491090D01*
X73218562Y-52475438D01*
X73202910Y-52458168D01*
X73189026Y-52439448D01*
X73177044Y-52419457D01*
X73167079Y-52398387D01*
X73159227Y-52376443D01*
X73153563Y-52353834D01*
X73150144Y-52330779D01*
X73149000Y-52307500D01*
X73149000Y-51832500D01*
X73150144Y-51809221D01*
X73153563Y-51786166D01*
X73159227Y-51763557D01*
X73167079Y-51741613D01*
X73177044Y-51720543D01*
X73189026Y-51700552D01*
X73202910Y-51681832D01*
X73218562Y-51664562D01*
X73235832Y-51648910D01*
X73254552Y-51635026D01*
X73274543Y-51623044D01*
X73295613Y-51613079D01*
X73317557Y-51605227D01*
X73340166Y-51599563D01*
X73363221Y-51596144D01*
X73386500Y-51595000D01*
X73961500Y-51595000D01*
X73984779Y-51596144D01*
G37*
G36*
X75734779Y-51596144D02*
G01*
X75757834Y-51599563D01*
X75780443Y-51605227D01*
X75802387Y-51613079D01*
X75823457Y-51623044D01*
X75843448Y-51635026D01*
X75862168Y-51648910D01*
X75879438Y-51664562D01*
X75895090Y-51681832D01*
X75908974Y-51700552D01*
X75920956Y-51720543D01*
X75930921Y-51741613D01*
X75938773Y-51763557D01*
X75944437Y-51786166D01*
X75947856Y-51809221D01*
X75949000Y-51832500D01*
X75949000Y-52307500D01*
X75947856Y-52330779D01*
X75944437Y-52353834D01*
X75938773Y-52376443D01*
X75930921Y-52398387D01*
X75920956Y-52419457D01*
X75908974Y-52439448D01*
X75895090Y-52458168D01*
X75879438Y-52475438D01*
X75862168Y-52491090D01*
X75843448Y-52504974D01*
X75823457Y-52516956D01*
X75802387Y-52526921D01*
X75780443Y-52534773D01*
X75757834Y-52540437D01*
X75734779Y-52543856D01*
X75711500Y-52545000D01*
X75136500Y-52545000D01*
X75113221Y-52543856D01*
X75090166Y-52540437D01*
X75067557Y-52534773D01*
X75045613Y-52526921D01*
X75024543Y-52516956D01*
X75004552Y-52504974D01*
X74985832Y-52491090D01*
X74968562Y-52475438D01*
X74952910Y-52458168D01*
X74939026Y-52439448D01*
X74927044Y-52419457D01*
X74917079Y-52398387D01*
X74909227Y-52376443D01*
X74903563Y-52353834D01*
X74900144Y-52330779D01*
X74899000Y-52307500D01*
X74899000Y-51832500D01*
X74900144Y-51809221D01*
X74903563Y-51786166D01*
X74909227Y-51763557D01*
X74917079Y-51741613D01*
X74927044Y-51720543D01*
X74939026Y-51700552D01*
X74952910Y-51681832D01*
X74968562Y-51664562D01*
X74985832Y-51648910D01*
X75004552Y-51635026D01*
X75024543Y-51623044D01*
X75045613Y-51613079D01*
X75067557Y-51605227D01*
X75090166Y-51599563D01*
X75113221Y-51596144D01*
X75136500Y-51595000D01*
X75711500Y-51595000D01*
X75734779Y-51596144D01*
G37*
G36*
X75734779Y-49945144D02*
G01*
X75757834Y-49948563D01*
X75780443Y-49954227D01*
X75802387Y-49962079D01*
X75823457Y-49972044D01*
X75843448Y-49984026D01*
X75862168Y-49997910D01*
X75879438Y-50013562D01*
X75895090Y-50030832D01*
X75908974Y-50049552D01*
X75920956Y-50069543D01*
X75930921Y-50090613D01*
X75938773Y-50112557D01*
X75944437Y-50135166D01*
X75947856Y-50158221D01*
X75949000Y-50181500D01*
X75949000Y-50656500D01*
X75947856Y-50679779D01*
X75944437Y-50702834D01*
X75938773Y-50725443D01*
X75930921Y-50747387D01*
X75920956Y-50768457D01*
X75908974Y-50788448D01*
X75895090Y-50807168D01*
X75879438Y-50824438D01*
X75862168Y-50840090D01*
X75843448Y-50853974D01*
X75823457Y-50865956D01*
X75802387Y-50875921D01*
X75780443Y-50883773D01*
X75757834Y-50889437D01*
X75734779Y-50892856D01*
X75711500Y-50894000D01*
X75136500Y-50894000D01*
X75113221Y-50892856D01*
X75090166Y-50889437D01*
X75067557Y-50883773D01*
X75045613Y-50875921D01*
X75024543Y-50865956D01*
X75004552Y-50853974D01*
X74985832Y-50840090D01*
X74968562Y-50824438D01*
X74952910Y-50807168D01*
X74939026Y-50788448D01*
X74927044Y-50768457D01*
X74917079Y-50747387D01*
X74909227Y-50725443D01*
X74903563Y-50702834D01*
X74900144Y-50679779D01*
X74899000Y-50656500D01*
X74899000Y-50181500D01*
X74900144Y-50158221D01*
X74903563Y-50135166D01*
X74909227Y-50112557D01*
X74917079Y-50090613D01*
X74927044Y-50069543D01*
X74939026Y-50049552D01*
X74952910Y-50030832D01*
X74968562Y-50013562D01*
X74985832Y-49997910D01*
X75004552Y-49984026D01*
X75024543Y-49972044D01*
X75045613Y-49962079D01*
X75067557Y-49954227D01*
X75090166Y-49948563D01*
X75113221Y-49945144D01*
X75136500Y-49944000D01*
X75711500Y-49944000D01*
X75734779Y-49945144D01*
G37*
G36*
X73984779Y-49945144D02*
G01*
X74007834Y-49948563D01*
X74030443Y-49954227D01*
X74052387Y-49962079D01*
X74073457Y-49972044D01*
X74093448Y-49984026D01*
X74112168Y-49997910D01*
X74129438Y-50013562D01*
X74145090Y-50030832D01*
X74158974Y-50049552D01*
X74170956Y-50069543D01*
X74180921Y-50090613D01*
X74188773Y-50112557D01*
X74194437Y-50135166D01*
X74197856Y-50158221D01*
X74199000Y-50181500D01*
X74199000Y-50656500D01*
X74197856Y-50679779D01*
X74194437Y-50702834D01*
X74188773Y-50725443D01*
X74180921Y-50747387D01*
X74170956Y-50768457D01*
X74158974Y-50788448D01*
X74145090Y-50807168D01*
X74129438Y-50824438D01*
X74112168Y-50840090D01*
X74093448Y-50853974D01*
X74073457Y-50865956D01*
X74052387Y-50875921D01*
X74030443Y-50883773D01*
X74007834Y-50889437D01*
X73984779Y-50892856D01*
X73961500Y-50894000D01*
X73386500Y-50894000D01*
X73363221Y-50892856D01*
X73340166Y-50889437D01*
X73317557Y-50883773D01*
X73295613Y-50875921D01*
X73274543Y-50865956D01*
X73254552Y-50853974D01*
X73235832Y-50840090D01*
X73218562Y-50824438D01*
X73202910Y-50807168D01*
X73189026Y-50788448D01*
X73177044Y-50768457D01*
X73167079Y-50747387D01*
X73159227Y-50725443D01*
X73153563Y-50702834D01*
X73150144Y-50679779D01*
X73149000Y-50656500D01*
X73149000Y-50181500D01*
X73150144Y-50158221D01*
X73153563Y-50135166D01*
X73159227Y-50112557D01*
X73167079Y-50090613D01*
X73177044Y-50069543D01*
X73189026Y-50049552D01*
X73202910Y-50030832D01*
X73218562Y-50013562D01*
X73235832Y-49997910D01*
X73254552Y-49984026D01*
X73274543Y-49972044D01*
X73295613Y-49962079D01*
X73317557Y-49954227D01*
X73340166Y-49948563D01*
X73363221Y-49945144D01*
X73386500Y-49944000D01*
X73961500Y-49944000D01*
X73984779Y-49945144D01*
G37*
G36*
X80143779Y-49909144D02*
G01*
X80166834Y-49912563D01*
X80189443Y-49918227D01*
X80211387Y-49926079D01*
X80232457Y-49936044D01*
X80252448Y-49948026D01*
X80271168Y-49961910D01*
X80288438Y-49977562D01*
X80304090Y-49994832D01*
X80317974Y-50013552D01*
X80329956Y-50033543D01*
X80339921Y-50054613D01*
X80347773Y-50076557D01*
X80353437Y-50099166D01*
X80356856Y-50122221D01*
X80358000Y-50145500D01*
X80358000Y-50720500D01*
X80356856Y-50743779D01*
X80353437Y-50766834D01*
X80347773Y-50789443D01*
X80339921Y-50811387D01*
X80329956Y-50832457D01*
X80317974Y-50852448D01*
X80304090Y-50871168D01*
X80288438Y-50888438D01*
X80271168Y-50904090D01*
X80252448Y-50917974D01*
X80232457Y-50929956D01*
X80211387Y-50939921D01*
X80189443Y-50947773D01*
X80166834Y-50953437D01*
X80143779Y-50956856D01*
X80120500Y-50958000D01*
X79645500Y-50958000D01*
X79622221Y-50956856D01*
X79599166Y-50953437D01*
X79576557Y-50947773D01*
X79554613Y-50939921D01*
X79533543Y-50929956D01*
X79513552Y-50917974D01*
X79494832Y-50904090D01*
X79477562Y-50888438D01*
X79461910Y-50871168D01*
X79448026Y-50852448D01*
X79436044Y-50832457D01*
X79426079Y-50811387D01*
X79418227Y-50789443D01*
X79412563Y-50766834D01*
X79409144Y-50743779D01*
X79408000Y-50720500D01*
X79408000Y-50145500D01*
X79409144Y-50122221D01*
X79412563Y-50099166D01*
X79418227Y-50076557D01*
X79426079Y-50054613D01*
X79436044Y-50033543D01*
X79448026Y-50013552D01*
X79461910Y-49994832D01*
X79477562Y-49977562D01*
X79494832Y-49961910D01*
X79513552Y-49948026D01*
X79533543Y-49936044D01*
X79554613Y-49926079D01*
X79576557Y-49918227D01*
X79599166Y-49912563D01*
X79622221Y-49909144D01*
X79645500Y-49908000D01*
X80120500Y-49908000D01*
X80143779Y-49909144D01*
G37*
G36*
X80143779Y-51659144D02*
G01*
X80166834Y-51662563D01*
X80189443Y-51668227D01*
X80211387Y-51676079D01*
X80232457Y-51686044D01*
X80252448Y-51698026D01*
X80271168Y-51711910D01*
X80288438Y-51727562D01*
X80304090Y-51744832D01*
X80317974Y-51763552D01*
X80329956Y-51783543D01*
X80339921Y-51804613D01*
X80347773Y-51826557D01*
X80353437Y-51849166D01*
X80356856Y-51872221D01*
X80358000Y-51895500D01*
X80358000Y-52470500D01*
X80356856Y-52493779D01*
X80353437Y-52516834D01*
X80347773Y-52539443D01*
X80339921Y-52561387D01*
X80329956Y-52582457D01*
X80317974Y-52602448D01*
X80304090Y-52621168D01*
X80288438Y-52638438D01*
X80271168Y-52654090D01*
X80252448Y-52667974D01*
X80232457Y-52679956D01*
X80211387Y-52689921D01*
X80189443Y-52697773D01*
X80166834Y-52703437D01*
X80143779Y-52706856D01*
X80120500Y-52708000D01*
X79645500Y-52708000D01*
X79622221Y-52706856D01*
X79599166Y-52703437D01*
X79576557Y-52697773D01*
X79554613Y-52689921D01*
X79533543Y-52679956D01*
X79513552Y-52667974D01*
X79494832Y-52654090D01*
X79477562Y-52638438D01*
X79461910Y-52621168D01*
X79448026Y-52602448D01*
X79436044Y-52582457D01*
X79426079Y-52561387D01*
X79418227Y-52539443D01*
X79412563Y-52516834D01*
X79409144Y-52493779D01*
X79408000Y-52470500D01*
X79408000Y-51895500D01*
X79409144Y-51872221D01*
X79412563Y-51849166D01*
X79418227Y-51826557D01*
X79426079Y-51804613D01*
X79436044Y-51783543D01*
X79448026Y-51763552D01*
X79461910Y-51744832D01*
X79477562Y-51727562D01*
X79494832Y-51711910D01*
X79513552Y-51698026D01*
X79533543Y-51686044D01*
X79554613Y-51676079D01*
X79576557Y-51668227D01*
X79599166Y-51662563D01*
X79622221Y-51659144D01*
X79645500Y-51658000D01*
X80120500Y-51658000D01*
X80143779Y-51659144D01*
G37*
G36*
X65665779Y-55723144D02*
G01*
X65688834Y-55726563D01*
X65711443Y-55732227D01*
X65733387Y-55740079D01*
X65754457Y-55750044D01*
X65774448Y-55762026D01*
X65793168Y-55775910D01*
X65810438Y-55791562D01*
X65826090Y-55808832D01*
X65839974Y-55827552D01*
X65851956Y-55847543D01*
X65861921Y-55868613D01*
X65869773Y-55890557D01*
X65875437Y-55913166D01*
X65878856Y-55936221D01*
X65880000Y-55959500D01*
X65880000Y-56534500D01*
X65878856Y-56557779D01*
X65875437Y-56580834D01*
X65869773Y-56603443D01*
X65861921Y-56625387D01*
X65851956Y-56646457D01*
X65839974Y-56666448D01*
X65826090Y-56685168D01*
X65810438Y-56702438D01*
X65793168Y-56718090D01*
X65774448Y-56731974D01*
X65754457Y-56743956D01*
X65733387Y-56753921D01*
X65711443Y-56761773D01*
X65688834Y-56767437D01*
X65665779Y-56770856D01*
X65642500Y-56772000D01*
X65167500Y-56772000D01*
X65144221Y-56770856D01*
X65121166Y-56767437D01*
X65098557Y-56761773D01*
X65076613Y-56753921D01*
X65055543Y-56743956D01*
X65035552Y-56731974D01*
X65016832Y-56718090D01*
X64999562Y-56702438D01*
X64983910Y-56685168D01*
X64970026Y-56666448D01*
X64958044Y-56646457D01*
X64948079Y-56625387D01*
X64940227Y-56603443D01*
X64934563Y-56580834D01*
X64931144Y-56557779D01*
X64930000Y-56534500D01*
X64930000Y-55959500D01*
X64931144Y-55936221D01*
X64934563Y-55913166D01*
X64940227Y-55890557D01*
X64948079Y-55868613D01*
X64958044Y-55847543D01*
X64970026Y-55827552D01*
X64983910Y-55808832D01*
X64999562Y-55791562D01*
X65016832Y-55775910D01*
X65035552Y-55762026D01*
X65055543Y-55750044D01*
X65076613Y-55740079D01*
X65098557Y-55732227D01*
X65121166Y-55726563D01*
X65144221Y-55723144D01*
X65167500Y-55722000D01*
X65642500Y-55722000D01*
X65665779Y-55723144D01*
G37*
G36*
X65665779Y-53973144D02*
G01*
X65688834Y-53976563D01*
X65711443Y-53982227D01*
X65733387Y-53990079D01*
X65754457Y-54000044D01*
X65774448Y-54012026D01*
X65793168Y-54025910D01*
X65810438Y-54041562D01*
X65826090Y-54058832D01*
X65839974Y-54077552D01*
X65851956Y-54097543D01*
X65861921Y-54118613D01*
X65869773Y-54140557D01*
X65875437Y-54163166D01*
X65878856Y-54186221D01*
X65880000Y-54209500D01*
X65880000Y-54784500D01*
X65878856Y-54807779D01*
X65875437Y-54830834D01*
X65869773Y-54853443D01*
X65861921Y-54875387D01*
X65851956Y-54896457D01*
X65839974Y-54916448D01*
X65826090Y-54935168D01*
X65810438Y-54952438D01*
X65793168Y-54968090D01*
X65774448Y-54981974D01*
X65754457Y-54993956D01*
X65733387Y-55003921D01*
X65711443Y-55011773D01*
X65688834Y-55017437D01*
X65665779Y-55020856D01*
X65642500Y-55022000D01*
X65167500Y-55022000D01*
X65144221Y-55020856D01*
X65121166Y-55017437D01*
X65098557Y-55011773D01*
X65076613Y-55003921D01*
X65055543Y-54993956D01*
X65035552Y-54981974D01*
X65016832Y-54968090D01*
X64999562Y-54952438D01*
X64983910Y-54935168D01*
X64970026Y-54916448D01*
X64958044Y-54896457D01*
X64948079Y-54875387D01*
X64940227Y-54853443D01*
X64934563Y-54830834D01*
X64931144Y-54807779D01*
X64930000Y-54784500D01*
X64930000Y-54209500D01*
X64931144Y-54186221D01*
X64934563Y-54163166D01*
X64940227Y-54140557D01*
X64948079Y-54118613D01*
X64958044Y-54097543D01*
X64970026Y-54077552D01*
X64983910Y-54058832D01*
X64999562Y-54041562D01*
X65016832Y-54025910D01*
X65035552Y-54012026D01*
X65055543Y-54000044D01*
X65076613Y-53990079D01*
X65098557Y-53982227D01*
X65121166Y-53976563D01*
X65144221Y-53973144D01*
X65167500Y-53972000D01*
X65642500Y-53972000D01*
X65665779Y-53973144D01*
G37*
G36*
X75734779Y-53120144D02*
G01*
X75757834Y-53123563D01*
X75780443Y-53129227D01*
X75802387Y-53137079D01*
X75823457Y-53147044D01*
X75843448Y-53159026D01*
X75862168Y-53172910D01*
X75879438Y-53188562D01*
X75895090Y-53205832D01*
X75908974Y-53224552D01*
X75920956Y-53244543D01*
X75930921Y-53265613D01*
X75938773Y-53287557D01*
X75944437Y-53310166D01*
X75947856Y-53333221D01*
X75949000Y-53356500D01*
X75949000Y-53831500D01*
X75947856Y-53854779D01*
X75944437Y-53877834D01*
X75938773Y-53900443D01*
X75930921Y-53922387D01*
X75920956Y-53943457D01*
X75908974Y-53963448D01*
X75895090Y-53982168D01*
X75879438Y-53999438D01*
X75862168Y-54015090D01*
X75843448Y-54028974D01*
X75823457Y-54040956D01*
X75802387Y-54050921D01*
X75780443Y-54058773D01*
X75757834Y-54064437D01*
X75734779Y-54067856D01*
X75711500Y-54069000D01*
X75136500Y-54069000D01*
X75113221Y-54067856D01*
X75090166Y-54064437D01*
X75067557Y-54058773D01*
X75045613Y-54050921D01*
X75024543Y-54040956D01*
X75004552Y-54028974D01*
X74985832Y-54015090D01*
X74968562Y-53999438D01*
X74952910Y-53982168D01*
X74939026Y-53963448D01*
X74927044Y-53943457D01*
X74917079Y-53922387D01*
X74909227Y-53900443D01*
X74903563Y-53877834D01*
X74900144Y-53854779D01*
X74899000Y-53831500D01*
X74899000Y-53356500D01*
X74900144Y-53333221D01*
X74903563Y-53310166D01*
X74909227Y-53287557D01*
X74917079Y-53265613D01*
X74927044Y-53244543D01*
X74939026Y-53224552D01*
X74952910Y-53205832D01*
X74968562Y-53188562D01*
X74985832Y-53172910D01*
X75004552Y-53159026D01*
X75024543Y-53147044D01*
X75045613Y-53137079D01*
X75067557Y-53129227D01*
X75090166Y-53123563D01*
X75113221Y-53120144D01*
X75136500Y-53119000D01*
X75711500Y-53119000D01*
X75734779Y-53120144D01*
G37*
G36*
X73984779Y-53120144D02*
G01*
X74007834Y-53123563D01*
X74030443Y-53129227D01*
X74052387Y-53137079D01*
X74073457Y-53147044D01*
X74093448Y-53159026D01*
X74112168Y-53172910D01*
X74129438Y-53188562D01*
X74145090Y-53205832D01*
X74158974Y-53224552D01*
X74170956Y-53244543D01*
X74180921Y-53265613D01*
X74188773Y-53287557D01*
X74194437Y-53310166D01*
X74197856Y-53333221D01*
X74199000Y-53356500D01*
X74199000Y-53831500D01*
X74197856Y-53854779D01*
X74194437Y-53877834D01*
X74188773Y-53900443D01*
X74180921Y-53922387D01*
X74170956Y-53943457D01*
X74158974Y-53963448D01*
X74145090Y-53982168D01*
X74129438Y-53999438D01*
X74112168Y-54015090D01*
X74093448Y-54028974D01*
X74073457Y-54040956D01*
X74052387Y-54050921D01*
X74030443Y-54058773D01*
X74007834Y-54064437D01*
X73984779Y-54067856D01*
X73961500Y-54069000D01*
X73386500Y-54069000D01*
X73363221Y-54067856D01*
X73340166Y-54064437D01*
X73317557Y-54058773D01*
X73295613Y-54050921D01*
X73274543Y-54040956D01*
X73254552Y-54028974D01*
X73235832Y-54015090D01*
X73218562Y-53999438D01*
X73202910Y-53982168D01*
X73189026Y-53963448D01*
X73177044Y-53943457D01*
X73167079Y-53922387D01*
X73159227Y-53900443D01*
X73153563Y-53877834D01*
X73150144Y-53854779D01*
X73149000Y-53831500D01*
X73149000Y-53356500D01*
X73150144Y-53333221D01*
X73153563Y-53310166D01*
X73159227Y-53287557D01*
X73167079Y-53265613D01*
X73177044Y-53244543D01*
X73189026Y-53224552D01*
X73202910Y-53205832D01*
X73218562Y-53188562D01*
X73235832Y-53172910D01*
X73254552Y-53159026D01*
X73274543Y-53147044D01*
X73295613Y-53137079D01*
X73317557Y-53129227D01*
X73340166Y-53123563D01*
X73363221Y-53120144D01*
X73386500Y-53119000D01*
X73961500Y-53119000D01*
X73984779Y-53120144D01*
G37*
G36*
X62363779Y-59307144D02*
G01*
X62386834Y-59310563D01*
X62409443Y-59316227D01*
X62431387Y-59324079D01*
X62452457Y-59334044D01*
X62472448Y-59346026D01*
X62491168Y-59359910D01*
X62508438Y-59375562D01*
X62524090Y-59392832D01*
X62537974Y-59411552D01*
X62549956Y-59431543D01*
X62559921Y-59452613D01*
X62567773Y-59474557D01*
X62573437Y-59497166D01*
X62576856Y-59520221D01*
X62578000Y-59543500D01*
X62578000Y-60118500D01*
X62576856Y-60141779D01*
X62573437Y-60164834D01*
X62567773Y-60187443D01*
X62559921Y-60209387D01*
X62549956Y-60230457D01*
X62537974Y-60250448D01*
X62524090Y-60269168D01*
X62508438Y-60286438D01*
X62491168Y-60302090D01*
X62472448Y-60315974D01*
X62452457Y-60327956D01*
X62431387Y-60337921D01*
X62409443Y-60345773D01*
X62386834Y-60351437D01*
X62363779Y-60354856D01*
X62340500Y-60356000D01*
X61865500Y-60356000D01*
X61842221Y-60354856D01*
X61819166Y-60351437D01*
X61796557Y-60345773D01*
X61774613Y-60337921D01*
X61753543Y-60327956D01*
X61733552Y-60315974D01*
X61714832Y-60302090D01*
X61697562Y-60286438D01*
X61681910Y-60269168D01*
X61668026Y-60250448D01*
X61656044Y-60230457D01*
X61646079Y-60209387D01*
X61638227Y-60187443D01*
X61632563Y-60164834D01*
X61629144Y-60141779D01*
X61628000Y-60118500D01*
X61628000Y-59543500D01*
X61629144Y-59520221D01*
X61632563Y-59497166D01*
X61638227Y-59474557D01*
X61646079Y-59452613D01*
X61656044Y-59431543D01*
X61668026Y-59411552D01*
X61681910Y-59392832D01*
X61697562Y-59375562D01*
X61714832Y-59359910D01*
X61733552Y-59346026D01*
X61753543Y-59334044D01*
X61774613Y-59324079D01*
X61796557Y-59316227D01*
X61819166Y-59310563D01*
X61842221Y-59307144D01*
X61865500Y-59306000D01*
X62340500Y-59306000D01*
X62363779Y-59307144D01*
G37*
G36*
X62363779Y-61057144D02*
G01*
X62386834Y-61060563D01*
X62409443Y-61066227D01*
X62431387Y-61074079D01*
X62452457Y-61084044D01*
X62472448Y-61096026D01*
X62491168Y-61109910D01*
X62508438Y-61125562D01*
X62524090Y-61142832D01*
X62537974Y-61161552D01*
X62549956Y-61181543D01*
X62559921Y-61202613D01*
X62567773Y-61224557D01*
X62573437Y-61247166D01*
X62576856Y-61270221D01*
X62578000Y-61293500D01*
X62578000Y-61868500D01*
X62576856Y-61891779D01*
X62573437Y-61914834D01*
X62567773Y-61937443D01*
X62559921Y-61959387D01*
X62549956Y-61980457D01*
X62537974Y-62000448D01*
X62524090Y-62019168D01*
X62508438Y-62036438D01*
X62491168Y-62052090D01*
X62472448Y-62065974D01*
X62452457Y-62077956D01*
X62431387Y-62087921D01*
X62409443Y-62095773D01*
X62386834Y-62101437D01*
X62363779Y-62104856D01*
X62340500Y-62106000D01*
X61865500Y-62106000D01*
X61842221Y-62104856D01*
X61819166Y-62101437D01*
X61796557Y-62095773D01*
X61774613Y-62087921D01*
X61753543Y-62077956D01*
X61733552Y-62065974D01*
X61714832Y-62052090D01*
X61697562Y-62036438D01*
X61681910Y-62019168D01*
X61668026Y-62000448D01*
X61656044Y-61980457D01*
X61646079Y-61959387D01*
X61638227Y-61937443D01*
X61632563Y-61914834D01*
X61629144Y-61891779D01*
X61628000Y-61868500D01*
X61628000Y-61293500D01*
X61629144Y-61270221D01*
X61632563Y-61247166D01*
X61638227Y-61224557D01*
X61646079Y-61202613D01*
X61656044Y-61181543D01*
X61668026Y-61161552D01*
X61681910Y-61142832D01*
X61697562Y-61125562D01*
X61714832Y-61109910D01*
X61733552Y-61096026D01*
X61753543Y-61084044D01*
X61774613Y-61074079D01*
X61796557Y-61066227D01*
X61819166Y-61060563D01*
X61842221Y-61057144D01*
X61865500Y-61056000D01*
X62340500Y-61056000D01*
X62363779Y-61057144D01*
G37*
G36*
X63887779Y-59307144D02*
G01*
X63910834Y-59310563D01*
X63933443Y-59316227D01*
X63955387Y-59324079D01*
X63976457Y-59334044D01*
X63996448Y-59346026D01*
X64015168Y-59359910D01*
X64032438Y-59375562D01*
X64048090Y-59392832D01*
X64061974Y-59411552D01*
X64073956Y-59431543D01*
X64083921Y-59452613D01*
X64091773Y-59474557D01*
X64097437Y-59497166D01*
X64100856Y-59520221D01*
X64102000Y-59543500D01*
X64102000Y-60118500D01*
X64100856Y-60141779D01*
X64097437Y-60164834D01*
X64091773Y-60187443D01*
X64083921Y-60209387D01*
X64073956Y-60230457D01*
X64061974Y-60250448D01*
X64048090Y-60269168D01*
X64032438Y-60286438D01*
X64015168Y-60302090D01*
X63996448Y-60315974D01*
X63976457Y-60327956D01*
X63955387Y-60337921D01*
X63933443Y-60345773D01*
X63910834Y-60351437D01*
X63887779Y-60354856D01*
X63864500Y-60356000D01*
X63389500Y-60356000D01*
X63366221Y-60354856D01*
X63343166Y-60351437D01*
X63320557Y-60345773D01*
X63298613Y-60337921D01*
X63277543Y-60327956D01*
X63257552Y-60315974D01*
X63238832Y-60302090D01*
X63221562Y-60286438D01*
X63205910Y-60269168D01*
X63192026Y-60250448D01*
X63180044Y-60230457D01*
X63170079Y-60209387D01*
X63162227Y-60187443D01*
X63156563Y-60164834D01*
X63153144Y-60141779D01*
X63152000Y-60118500D01*
X63152000Y-59543500D01*
X63153144Y-59520221D01*
X63156563Y-59497166D01*
X63162227Y-59474557D01*
X63170079Y-59452613D01*
X63180044Y-59431543D01*
X63192026Y-59411552D01*
X63205910Y-59392832D01*
X63221562Y-59375562D01*
X63238832Y-59359910D01*
X63257552Y-59346026D01*
X63277543Y-59334044D01*
X63298613Y-59324079D01*
X63320557Y-59316227D01*
X63343166Y-59310563D01*
X63366221Y-59307144D01*
X63389500Y-59306000D01*
X63864500Y-59306000D01*
X63887779Y-59307144D01*
G37*
G36*
X63887779Y-61057144D02*
G01*
X63910834Y-61060563D01*
X63933443Y-61066227D01*
X63955387Y-61074079D01*
X63976457Y-61084044D01*
X63996448Y-61096026D01*
X64015168Y-61109910D01*
X64032438Y-61125562D01*
X64048090Y-61142832D01*
X64061974Y-61161552D01*
X64073956Y-61181543D01*
X64083921Y-61202613D01*
X64091773Y-61224557D01*
X64097437Y-61247166D01*
X64100856Y-61270221D01*
X64102000Y-61293500D01*
X64102000Y-61868500D01*
X64100856Y-61891779D01*
X64097437Y-61914834D01*
X64091773Y-61937443D01*
X64083921Y-61959387D01*
X64073956Y-61980457D01*
X64061974Y-62000448D01*
X64048090Y-62019168D01*
X64032438Y-62036438D01*
X64015168Y-62052090D01*
X63996448Y-62065974D01*
X63976457Y-62077956D01*
X63955387Y-62087921D01*
X63933443Y-62095773D01*
X63910834Y-62101437D01*
X63887779Y-62104856D01*
X63864500Y-62106000D01*
X63389500Y-62106000D01*
X63366221Y-62104856D01*
X63343166Y-62101437D01*
X63320557Y-62095773D01*
X63298613Y-62087921D01*
X63277543Y-62077956D01*
X63257552Y-62065974D01*
X63238832Y-62052090D01*
X63221562Y-62036438D01*
X63205910Y-62019168D01*
X63192026Y-62000448D01*
X63180044Y-61980457D01*
X63170079Y-61959387D01*
X63162227Y-61937443D01*
X63156563Y-61914834D01*
X63153144Y-61891779D01*
X63152000Y-61868500D01*
X63152000Y-61293500D01*
X63153144Y-61270221D01*
X63156563Y-61247166D01*
X63162227Y-61224557D01*
X63170079Y-61202613D01*
X63180044Y-61181543D01*
X63192026Y-61161552D01*
X63205910Y-61142832D01*
X63221562Y-61125562D01*
X63238832Y-61109910D01*
X63257552Y-61096026D01*
X63277543Y-61084044D01*
X63298613Y-61074079D01*
X63320557Y-61066227D01*
X63343166Y-61060563D01*
X63366221Y-61057144D01*
X63389500Y-61056000D01*
X63864500Y-61056000D01*
X63887779Y-61057144D01*
G37*
G36*
X67352779Y-59978144D02*
G01*
X67375834Y-59981563D01*
X67398443Y-59987227D01*
X67420387Y-59995079D01*
X67441457Y-60005044D01*
X67461448Y-60017026D01*
X67480168Y-60030910D01*
X67497438Y-60046562D01*
X67513090Y-60063832D01*
X67526974Y-60082552D01*
X67538956Y-60102543D01*
X67548921Y-60123613D01*
X67556773Y-60145557D01*
X67562437Y-60168166D01*
X67565856Y-60191221D01*
X67567000Y-60214500D01*
X67567000Y-60689500D01*
X67565856Y-60712779D01*
X67562437Y-60735834D01*
X67556773Y-60758443D01*
X67548921Y-60780387D01*
X67538956Y-60801457D01*
X67526974Y-60821448D01*
X67513090Y-60840168D01*
X67497438Y-60857438D01*
X67480168Y-60873090D01*
X67461448Y-60886974D01*
X67441457Y-60898956D01*
X67420387Y-60908921D01*
X67398443Y-60916773D01*
X67375834Y-60922437D01*
X67352779Y-60925856D01*
X67329500Y-60927000D01*
X66754500Y-60927000D01*
X66731221Y-60925856D01*
X66708166Y-60922437D01*
X66685557Y-60916773D01*
X66663613Y-60908921D01*
X66642543Y-60898956D01*
X66622552Y-60886974D01*
X66603832Y-60873090D01*
X66586562Y-60857438D01*
X66570910Y-60840168D01*
X66557026Y-60821448D01*
X66545044Y-60801457D01*
X66535079Y-60780387D01*
X66527227Y-60758443D01*
X66521563Y-60735834D01*
X66518144Y-60712779D01*
X66517000Y-60689500D01*
X66517000Y-60214500D01*
X66518144Y-60191221D01*
X66521563Y-60168166D01*
X66527227Y-60145557D01*
X66535079Y-60123613D01*
X66545044Y-60102543D01*
X66557026Y-60082552D01*
X66570910Y-60063832D01*
X66586562Y-60046562D01*
X66603832Y-60030910D01*
X66622552Y-60017026D01*
X66642543Y-60005044D01*
X66663613Y-59995079D01*
X66685557Y-59987227D01*
X66708166Y-59981563D01*
X66731221Y-59978144D01*
X66754500Y-59977000D01*
X67329500Y-59977000D01*
X67352779Y-59978144D01*
G37*
G36*
X65602779Y-59978144D02*
G01*
X65625834Y-59981563D01*
X65648443Y-59987227D01*
X65670387Y-59995079D01*
X65691457Y-60005044D01*
X65711448Y-60017026D01*
X65730168Y-60030910D01*
X65747438Y-60046562D01*
X65763090Y-60063832D01*
X65776974Y-60082552D01*
X65788956Y-60102543D01*
X65798921Y-60123613D01*
X65806773Y-60145557D01*
X65812437Y-60168166D01*
X65815856Y-60191221D01*
X65817000Y-60214500D01*
X65817000Y-60689500D01*
X65815856Y-60712779D01*
X65812437Y-60735834D01*
X65806773Y-60758443D01*
X65798921Y-60780387D01*
X65788956Y-60801457D01*
X65776974Y-60821448D01*
X65763090Y-60840168D01*
X65747438Y-60857438D01*
X65730168Y-60873090D01*
X65711448Y-60886974D01*
X65691457Y-60898956D01*
X65670387Y-60908921D01*
X65648443Y-60916773D01*
X65625834Y-60922437D01*
X65602779Y-60925856D01*
X65579500Y-60927000D01*
X65004500Y-60927000D01*
X64981221Y-60925856D01*
X64958166Y-60922437D01*
X64935557Y-60916773D01*
X64913613Y-60908921D01*
X64892543Y-60898956D01*
X64872552Y-60886974D01*
X64853832Y-60873090D01*
X64836562Y-60857438D01*
X64820910Y-60840168D01*
X64807026Y-60821448D01*
X64795044Y-60801457D01*
X64785079Y-60780387D01*
X64777227Y-60758443D01*
X64771563Y-60735834D01*
X64768144Y-60712779D01*
X64767000Y-60689500D01*
X64767000Y-60214500D01*
X64768144Y-60191221D01*
X64771563Y-60168166D01*
X64777227Y-60145557D01*
X64785079Y-60123613D01*
X64795044Y-60102543D01*
X64807026Y-60082552D01*
X64820910Y-60063832D01*
X64836562Y-60046562D01*
X64853832Y-60030910D01*
X64872552Y-60017026D01*
X64892543Y-60005044D01*
X64913613Y-59995079D01*
X64935557Y-59987227D01*
X64958166Y-59981563D01*
X64981221Y-59978144D01*
X65004500Y-59977000D01*
X65579500Y-59977000D01*
X65602779Y-59978144D01*
G37*
G36*
X67763351Y-52688361D02*
G01*
X67770632Y-52689441D01*
X67777771Y-52691229D01*
X67784701Y-52693709D01*
X67791355Y-52696856D01*
X67797668Y-52700640D01*
X67803579Y-52705024D01*
X67809033Y-52709967D01*
X67813976Y-52715421D01*
X67818360Y-52721332D01*
X67822144Y-52727645D01*
X67825291Y-52734299D01*
X67827771Y-52741229D01*
X67829559Y-52748368D01*
X67830639Y-52755649D01*
X67831000Y-52763000D01*
X67831000Y-52913000D01*
X67830639Y-52920351D01*
X67829559Y-52927632D01*
X67827771Y-52934771D01*
X67825291Y-52941701D01*
X67822144Y-52948355D01*
X67818360Y-52954668D01*
X67813976Y-52960579D01*
X67809033Y-52966033D01*
X67803579Y-52970976D01*
X67797668Y-52975360D01*
X67791355Y-52979144D01*
X67784701Y-52982291D01*
X67777771Y-52984771D01*
X67770632Y-52986559D01*
X67763351Y-52987639D01*
X67756000Y-52988000D01*
X67056000Y-52988000D01*
X67048649Y-52987639D01*
X67041368Y-52986559D01*
X67034229Y-52984771D01*
X67027299Y-52982291D01*
X67020645Y-52979144D01*
X67014332Y-52975360D01*
X67008421Y-52970976D01*
X67002967Y-52966033D01*
X66998024Y-52960579D01*
X66993640Y-52954668D01*
X66989856Y-52948355D01*
X66986709Y-52941701D01*
X66984229Y-52934771D01*
X66982441Y-52927632D01*
X66981361Y-52920351D01*
X66981000Y-52913000D01*
X66981000Y-52763000D01*
X66981361Y-52755649D01*
X66982441Y-52748368D01*
X66984229Y-52741229D01*
X66986709Y-52734299D01*
X66989856Y-52727645D01*
X66993640Y-52721332D01*
X66998024Y-52715421D01*
X67002967Y-52709967D01*
X67008421Y-52705024D01*
X67014332Y-52700640D01*
X67020645Y-52696856D01*
X67027299Y-52693709D01*
X67034229Y-52691229D01*
X67041368Y-52689441D01*
X67048649Y-52688361D01*
X67056000Y-52688000D01*
X67756000Y-52688000D01*
X67763351Y-52688361D01*
G37*
G36*
X67763351Y-53188361D02*
G01*
X67770632Y-53189441D01*
X67777771Y-53191229D01*
X67784701Y-53193709D01*
X67791355Y-53196856D01*
X67797668Y-53200640D01*
X67803579Y-53205024D01*
X67809033Y-53209967D01*
X67813976Y-53215421D01*
X67818360Y-53221332D01*
X67822144Y-53227645D01*
X67825291Y-53234299D01*
X67827771Y-53241229D01*
X67829559Y-53248368D01*
X67830639Y-53255649D01*
X67831000Y-53263000D01*
X67831000Y-53413000D01*
X67830639Y-53420351D01*
X67829559Y-53427632D01*
X67827771Y-53434771D01*
X67825291Y-53441701D01*
X67822144Y-53448355D01*
X67818360Y-53454668D01*
X67813976Y-53460579D01*
X67809033Y-53466033D01*
X67803579Y-53470976D01*
X67797668Y-53475360D01*
X67791355Y-53479144D01*
X67784701Y-53482291D01*
X67777771Y-53484771D01*
X67770632Y-53486559D01*
X67763351Y-53487639D01*
X67756000Y-53488000D01*
X67056000Y-53488000D01*
X67048649Y-53487639D01*
X67041368Y-53486559D01*
X67034229Y-53484771D01*
X67027299Y-53482291D01*
X67020645Y-53479144D01*
X67014332Y-53475360D01*
X67008421Y-53470976D01*
X67002967Y-53466033D01*
X66998024Y-53460579D01*
X66993640Y-53454668D01*
X66989856Y-53448355D01*
X66986709Y-53441701D01*
X66984229Y-53434771D01*
X66982441Y-53427632D01*
X66981361Y-53420351D01*
X66981000Y-53413000D01*
X66981000Y-53263000D01*
X66981361Y-53255649D01*
X66982441Y-53248368D01*
X66984229Y-53241229D01*
X66986709Y-53234299D01*
X66989856Y-53227645D01*
X66993640Y-53221332D01*
X66998024Y-53215421D01*
X67002967Y-53209967D01*
X67008421Y-53205024D01*
X67014332Y-53200640D01*
X67020645Y-53196856D01*
X67027299Y-53193709D01*
X67034229Y-53191229D01*
X67041368Y-53189441D01*
X67048649Y-53188361D01*
X67056000Y-53188000D01*
X67756000Y-53188000D01*
X67763351Y-53188361D01*
G37*
G36*
X67763351Y-53688361D02*
G01*
X67770632Y-53689441D01*
X67777771Y-53691229D01*
X67784701Y-53693709D01*
X67791355Y-53696856D01*
X67797668Y-53700640D01*
X67803579Y-53705024D01*
X67809033Y-53709967D01*
X67813976Y-53715421D01*
X67818360Y-53721332D01*
X67822144Y-53727645D01*
X67825291Y-53734299D01*
X67827771Y-53741229D01*
X67829559Y-53748368D01*
X67830639Y-53755649D01*
X67831000Y-53763000D01*
X67831000Y-53913000D01*
X67830639Y-53920351D01*
X67829559Y-53927632D01*
X67827771Y-53934771D01*
X67825291Y-53941701D01*
X67822144Y-53948355D01*
X67818360Y-53954668D01*
X67813976Y-53960579D01*
X67809033Y-53966033D01*
X67803579Y-53970976D01*
X67797668Y-53975360D01*
X67791355Y-53979144D01*
X67784701Y-53982291D01*
X67777771Y-53984771D01*
X67770632Y-53986559D01*
X67763351Y-53987639D01*
X67756000Y-53988000D01*
X67056000Y-53988000D01*
X67048649Y-53987639D01*
X67041368Y-53986559D01*
X67034229Y-53984771D01*
X67027299Y-53982291D01*
X67020645Y-53979144D01*
X67014332Y-53975360D01*
X67008421Y-53970976D01*
X67002967Y-53966033D01*
X66998024Y-53960579D01*
X66993640Y-53954668D01*
X66989856Y-53948355D01*
X66986709Y-53941701D01*
X66984229Y-53934771D01*
X66982441Y-53927632D01*
X66981361Y-53920351D01*
X66981000Y-53913000D01*
X66981000Y-53763000D01*
X66981361Y-53755649D01*
X66982441Y-53748368D01*
X66984229Y-53741229D01*
X66986709Y-53734299D01*
X66989856Y-53727645D01*
X66993640Y-53721332D01*
X66998024Y-53715421D01*
X67002967Y-53709967D01*
X67008421Y-53705024D01*
X67014332Y-53700640D01*
X67020645Y-53696856D01*
X67027299Y-53693709D01*
X67034229Y-53691229D01*
X67041368Y-53689441D01*
X67048649Y-53688361D01*
X67056000Y-53688000D01*
X67756000Y-53688000D01*
X67763351Y-53688361D01*
G37*
G36*
X67763351Y-54188361D02*
G01*
X67770632Y-54189441D01*
X67777771Y-54191229D01*
X67784701Y-54193709D01*
X67791355Y-54196856D01*
X67797668Y-54200640D01*
X67803579Y-54205024D01*
X67809033Y-54209967D01*
X67813976Y-54215421D01*
X67818360Y-54221332D01*
X67822144Y-54227645D01*
X67825291Y-54234299D01*
X67827771Y-54241229D01*
X67829559Y-54248368D01*
X67830639Y-54255649D01*
X67831000Y-54263000D01*
X67831000Y-54413000D01*
X67830639Y-54420351D01*
X67829559Y-54427632D01*
X67827771Y-54434771D01*
X67825291Y-54441701D01*
X67822144Y-54448355D01*
X67818360Y-54454668D01*
X67813976Y-54460579D01*
X67809033Y-54466033D01*
X67803579Y-54470976D01*
X67797668Y-54475360D01*
X67791355Y-54479144D01*
X67784701Y-54482291D01*
X67777771Y-54484771D01*
X67770632Y-54486559D01*
X67763351Y-54487639D01*
X67756000Y-54488000D01*
X67056000Y-54488000D01*
X67048649Y-54487639D01*
X67041368Y-54486559D01*
X67034229Y-54484771D01*
X67027299Y-54482291D01*
X67020645Y-54479144D01*
X67014332Y-54475360D01*
X67008421Y-54470976D01*
X67002967Y-54466033D01*
X66998024Y-54460579D01*
X66993640Y-54454668D01*
X66989856Y-54448355D01*
X66986709Y-54441701D01*
X66984229Y-54434771D01*
X66982441Y-54427632D01*
X66981361Y-54420351D01*
X66981000Y-54413000D01*
X66981000Y-54263000D01*
X66981361Y-54255649D01*
X66982441Y-54248368D01*
X66984229Y-54241229D01*
X66986709Y-54234299D01*
X66989856Y-54227645D01*
X66993640Y-54221332D01*
X66998024Y-54215421D01*
X67002967Y-54209967D01*
X67008421Y-54205024D01*
X67014332Y-54200640D01*
X67020645Y-54196856D01*
X67027299Y-54193709D01*
X67034229Y-54191229D01*
X67041368Y-54189441D01*
X67048649Y-54188361D01*
X67056000Y-54188000D01*
X67756000Y-54188000D01*
X67763351Y-54188361D01*
G37*
G36*
X67763351Y-54688361D02*
G01*
X67770632Y-54689441D01*
X67777771Y-54691229D01*
X67784701Y-54693709D01*
X67791355Y-54696856D01*
X67797668Y-54700640D01*
X67803579Y-54705024D01*
X67809033Y-54709967D01*
X67813976Y-54715421D01*
X67818360Y-54721332D01*
X67822144Y-54727645D01*
X67825291Y-54734299D01*
X67827771Y-54741229D01*
X67829559Y-54748368D01*
X67830639Y-54755649D01*
X67831000Y-54763000D01*
X67831000Y-54913000D01*
X67830639Y-54920351D01*
X67829559Y-54927632D01*
X67827771Y-54934771D01*
X67825291Y-54941701D01*
X67822144Y-54948355D01*
X67818360Y-54954668D01*
X67813976Y-54960579D01*
X67809033Y-54966033D01*
X67803579Y-54970976D01*
X67797668Y-54975360D01*
X67791355Y-54979144D01*
X67784701Y-54982291D01*
X67777771Y-54984771D01*
X67770632Y-54986559D01*
X67763351Y-54987639D01*
X67756000Y-54988000D01*
X67056000Y-54988000D01*
X67048649Y-54987639D01*
X67041368Y-54986559D01*
X67034229Y-54984771D01*
X67027299Y-54982291D01*
X67020645Y-54979144D01*
X67014332Y-54975360D01*
X67008421Y-54970976D01*
X67002967Y-54966033D01*
X66998024Y-54960579D01*
X66993640Y-54954668D01*
X66989856Y-54948355D01*
X66986709Y-54941701D01*
X66984229Y-54934771D01*
X66982441Y-54927632D01*
X66981361Y-54920351D01*
X66981000Y-54913000D01*
X66981000Y-54763000D01*
X66981361Y-54755649D01*
X66982441Y-54748368D01*
X66984229Y-54741229D01*
X66986709Y-54734299D01*
X66989856Y-54727645D01*
X66993640Y-54721332D01*
X66998024Y-54715421D01*
X67002967Y-54709967D01*
X67008421Y-54705024D01*
X67014332Y-54700640D01*
X67020645Y-54696856D01*
X67027299Y-54693709D01*
X67034229Y-54691229D01*
X67041368Y-54689441D01*
X67048649Y-54688361D01*
X67056000Y-54688000D01*
X67756000Y-54688000D01*
X67763351Y-54688361D01*
G37*
G36*
X67763351Y-55188361D02*
G01*
X67770632Y-55189441D01*
X67777771Y-55191229D01*
X67784701Y-55193709D01*
X67791355Y-55196856D01*
X67797668Y-55200640D01*
X67803579Y-55205024D01*
X67809033Y-55209967D01*
X67813976Y-55215421D01*
X67818360Y-55221332D01*
X67822144Y-55227645D01*
X67825291Y-55234299D01*
X67827771Y-55241229D01*
X67829559Y-55248368D01*
X67830639Y-55255649D01*
X67831000Y-55263000D01*
X67831000Y-55413000D01*
X67830639Y-55420351D01*
X67829559Y-55427632D01*
X67827771Y-55434771D01*
X67825291Y-55441701D01*
X67822144Y-55448355D01*
X67818360Y-55454668D01*
X67813976Y-55460579D01*
X67809033Y-55466033D01*
X67803579Y-55470976D01*
X67797668Y-55475360D01*
X67791355Y-55479144D01*
X67784701Y-55482291D01*
X67777771Y-55484771D01*
X67770632Y-55486559D01*
X67763351Y-55487639D01*
X67756000Y-55488000D01*
X67056000Y-55488000D01*
X67048649Y-55487639D01*
X67041368Y-55486559D01*
X67034229Y-55484771D01*
X67027299Y-55482291D01*
X67020645Y-55479144D01*
X67014332Y-55475360D01*
X67008421Y-55470976D01*
X67002967Y-55466033D01*
X66998024Y-55460579D01*
X66993640Y-55454668D01*
X66989856Y-55448355D01*
X66986709Y-55441701D01*
X66984229Y-55434771D01*
X66982441Y-55427632D01*
X66981361Y-55420351D01*
X66981000Y-55413000D01*
X66981000Y-55263000D01*
X66981361Y-55255649D01*
X66982441Y-55248368D01*
X66984229Y-55241229D01*
X66986709Y-55234299D01*
X66989856Y-55227645D01*
X66993640Y-55221332D01*
X66998024Y-55215421D01*
X67002967Y-55209967D01*
X67008421Y-55205024D01*
X67014332Y-55200640D01*
X67020645Y-55196856D01*
X67027299Y-55193709D01*
X67034229Y-55191229D01*
X67041368Y-55189441D01*
X67048649Y-55188361D01*
X67056000Y-55188000D01*
X67756000Y-55188000D01*
X67763351Y-55188361D01*
G37*
G36*
X68188351Y-55613361D02*
G01*
X68195632Y-55614441D01*
X68202771Y-55616229D01*
X68209701Y-55618709D01*
X68216355Y-55621856D01*
X68222668Y-55625640D01*
X68228579Y-55630024D01*
X68234033Y-55634967D01*
X68238976Y-55640421D01*
X68243360Y-55646332D01*
X68247144Y-55652645D01*
X68250291Y-55659299D01*
X68252771Y-55666229D01*
X68254559Y-55673368D01*
X68255639Y-55680649D01*
X68256000Y-55688000D01*
X68256000Y-56388000D01*
X68255639Y-56395351D01*
X68254559Y-56402632D01*
X68252771Y-56409771D01*
X68250291Y-56416701D01*
X68247144Y-56423355D01*
X68243360Y-56429668D01*
X68238976Y-56435579D01*
X68234033Y-56441033D01*
X68228579Y-56445976D01*
X68222668Y-56450360D01*
X68216355Y-56454144D01*
X68209701Y-56457291D01*
X68202771Y-56459771D01*
X68195632Y-56461559D01*
X68188351Y-56462639D01*
X68181000Y-56463000D01*
X68031000Y-56463000D01*
X68023649Y-56462639D01*
X68016368Y-56461559D01*
X68009229Y-56459771D01*
X68002299Y-56457291D01*
X67995645Y-56454144D01*
X67989332Y-56450360D01*
X67983421Y-56445976D01*
X67977967Y-56441033D01*
X67973024Y-56435579D01*
X67968640Y-56429668D01*
X67964856Y-56423355D01*
X67961709Y-56416701D01*
X67959229Y-56409771D01*
X67957441Y-56402632D01*
X67956361Y-56395351D01*
X67956000Y-56388000D01*
X67956000Y-55688000D01*
X67956361Y-55680649D01*
X67957441Y-55673368D01*
X67959229Y-55666229D01*
X67961709Y-55659299D01*
X67964856Y-55652645D01*
X67968640Y-55646332D01*
X67973024Y-55640421D01*
X67977967Y-55634967D01*
X67983421Y-55630024D01*
X67989332Y-55625640D01*
X67995645Y-55621856D01*
X68002299Y-55618709D01*
X68009229Y-55616229D01*
X68016368Y-55614441D01*
X68023649Y-55613361D01*
X68031000Y-55613000D01*
X68181000Y-55613000D01*
X68188351Y-55613361D01*
G37*
G36*
X68688351Y-55613361D02*
G01*
X68695632Y-55614441D01*
X68702771Y-55616229D01*
X68709701Y-55618709D01*
X68716355Y-55621856D01*
X68722668Y-55625640D01*
X68728579Y-55630024D01*
X68734033Y-55634967D01*
X68738976Y-55640421D01*
X68743360Y-55646332D01*
X68747144Y-55652645D01*
X68750291Y-55659299D01*
X68752771Y-55666229D01*
X68754559Y-55673368D01*
X68755639Y-55680649D01*
X68756000Y-55688000D01*
X68756000Y-56388000D01*
X68755639Y-56395351D01*
X68754559Y-56402632D01*
X68752771Y-56409771D01*
X68750291Y-56416701D01*
X68747144Y-56423355D01*
X68743360Y-56429668D01*
X68738976Y-56435579D01*
X68734033Y-56441033D01*
X68728579Y-56445976D01*
X68722668Y-56450360D01*
X68716355Y-56454144D01*
X68709701Y-56457291D01*
X68702771Y-56459771D01*
X68695632Y-56461559D01*
X68688351Y-56462639D01*
X68681000Y-56463000D01*
X68531000Y-56463000D01*
X68523649Y-56462639D01*
X68516368Y-56461559D01*
X68509229Y-56459771D01*
X68502299Y-56457291D01*
X68495645Y-56454144D01*
X68489332Y-56450360D01*
X68483421Y-56445976D01*
X68477967Y-56441033D01*
X68473024Y-56435579D01*
X68468640Y-56429668D01*
X68464856Y-56423355D01*
X68461709Y-56416701D01*
X68459229Y-56409771D01*
X68457441Y-56402632D01*
X68456361Y-56395351D01*
X68456000Y-56388000D01*
X68456000Y-55688000D01*
X68456361Y-55680649D01*
X68457441Y-55673368D01*
X68459229Y-55666229D01*
X68461709Y-55659299D01*
X68464856Y-55652645D01*
X68468640Y-55646332D01*
X68473024Y-55640421D01*
X68477967Y-55634967D01*
X68483421Y-55630024D01*
X68489332Y-55625640D01*
X68495645Y-55621856D01*
X68502299Y-55618709D01*
X68509229Y-55616229D01*
X68516368Y-55614441D01*
X68523649Y-55613361D01*
X68531000Y-55613000D01*
X68681000Y-55613000D01*
X68688351Y-55613361D01*
G37*
G36*
X69188351Y-55613361D02*
G01*
X69195632Y-55614441D01*
X69202771Y-55616229D01*
X69209701Y-55618709D01*
X69216355Y-55621856D01*
X69222668Y-55625640D01*
X69228579Y-55630024D01*
X69234033Y-55634967D01*
X69238976Y-55640421D01*
X69243360Y-55646332D01*
X69247144Y-55652645D01*
X69250291Y-55659299D01*
X69252771Y-55666229D01*
X69254559Y-55673368D01*
X69255639Y-55680649D01*
X69256000Y-55688000D01*
X69256000Y-56388000D01*
X69255639Y-56395351D01*
X69254559Y-56402632D01*
X69252771Y-56409771D01*
X69250291Y-56416701D01*
X69247144Y-56423355D01*
X69243360Y-56429668D01*
X69238976Y-56435579D01*
X69234033Y-56441033D01*
X69228579Y-56445976D01*
X69222668Y-56450360D01*
X69216355Y-56454144D01*
X69209701Y-56457291D01*
X69202771Y-56459771D01*
X69195632Y-56461559D01*
X69188351Y-56462639D01*
X69181000Y-56463000D01*
X69031000Y-56463000D01*
X69023649Y-56462639D01*
X69016368Y-56461559D01*
X69009229Y-56459771D01*
X69002299Y-56457291D01*
X68995645Y-56454144D01*
X68989332Y-56450360D01*
X68983421Y-56445976D01*
X68977967Y-56441033D01*
X68973024Y-56435579D01*
X68968640Y-56429668D01*
X68964856Y-56423355D01*
X68961709Y-56416701D01*
X68959229Y-56409771D01*
X68957441Y-56402632D01*
X68956361Y-56395351D01*
X68956000Y-56388000D01*
X68956000Y-55688000D01*
X68956361Y-55680649D01*
X68957441Y-55673368D01*
X68959229Y-55666229D01*
X68961709Y-55659299D01*
X68964856Y-55652645D01*
X68968640Y-55646332D01*
X68973024Y-55640421D01*
X68977967Y-55634967D01*
X68983421Y-55630024D01*
X68989332Y-55625640D01*
X68995645Y-55621856D01*
X69002299Y-55618709D01*
X69009229Y-55616229D01*
X69016368Y-55614441D01*
X69023649Y-55613361D01*
X69031000Y-55613000D01*
X69181000Y-55613000D01*
X69188351Y-55613361D01*
G37*
G36*
X69688351Y-55613361D02*
G01*
X69695632Y-55614441D01*
X69702771Y-55616229D01*
X69709701Y-55618709D01*
X69716355Y-55621856D01*
X69722668Y-55625640D01*
X69728579Y-55630024D01*
X69734033Y-55634967D01*
X69738976Y-55640421D01*
X69743360Y-55646332D01*
X69747144Y-55652645D01*
X69750291Y-55659299D01*
X69752771Y-55666229D01*
X69754559Y-55673368D01*
X69755639Y-55680649D01*
X69756000Y-55688000D01*
X69756000Y-56388000D01*
X69755639Y-56395351D01*
X69754559Y-56402632D01*
X69752771Y-56409771D01*
X69750291Y-56416701D01*
X69747144Y-56423355D01*
X69743360Y-56429668D01*
X69738976Y-56435579D01*
X69734033Y-56441033D01*
X69728579Y-56445976D01*
X69722668Y-56450360D01*
X69716355Y-56454144D01*
X69709701Y-56457291D01*
X69702771Y-56459771D01*
X69695632Y-56461559D01*
X69688351Y-56462639D01*
X69681000Y-56463000D01*
X69531000Y-56463000D01*
X69523649Y-56462639D01*
X69516368Y-56461559D01*
X69509229Y-56459771D01*
X69502299Y-56457291D01*
X69495645Y-56454144D01*
X69489332Y-56450360D01*
X69483421Y-56445976D01*
X69477967Y-56441033D01*
X69473024Y-56435579D01*
X69468640Y-56429668D01*
X69464856Y-56423355D01*
X69461709Y-56416701D01*
X69459229Y-56409771D01*
X69457441Y-56402632D01*
X69456361Y-56395351D01*
X69456000Y-56388000D01*
X69456000Y-55688000D01*
X69456361Y-55680649D01*
X69457441Y-55673368D01*
X69459229Y-55666229D01*
X69461709Y-55659299D01*
X69464856Y-55652645D01*
X69468640Y-55646332D01*
X69473024Y-55640421D01*
X69477967Y-55634967D01*
X69483421Y-55630024D01*
X69489332Y-55625640D01*
X69495645Y-55621856D01*
X69502299Y-55618709D01*
X69509229Y-55616229D01*
X69516368Y-55614441D01*
X69523649Y-55613361D01*
X69531000Y-55613000D01*
X69681000Y-55613000D01*
X69688351Y-55613361D01*
G37*
G36*
X70188351Y-55613361D02*
G01*
X70195632Y-55614441D01*
X70202771Y-55616229D01*
X70209701Y-55618709D01*
X70216355Y-55621856D01*
X70222668Y-55625640D01*
X70228579Y-55630024D01*
X70234033Y-55634967D01*
X70238976Y-55640421D01*
X70243360Y-55646332D01*
X70247144Y-55652645D01*
X70250291Y-55659299D01*
X70252771Y-55666229D01*
X70254559Y-55673368D01*
X70255639Y-55680649D01*
X70256000Y-55688000D01*
X70256000Y-56388000D01*
X70255639Y-56395351D01*
X70254559Y-56402632D01*
X70252771Y-56409771D01*
X70250291Y-56416701D01*
X70247144Y-56423355D01*
X70243360Y-56429668D01*
X70238976Y-56435579D01*
X70234033Y-56441033D01*
X70228579Y-56445976D01*
X70222668Y-56450360D01*
X70216355Y-56454144D01*
X70209701Y-56457291D01*
X70202771Y-56459771D01*
X70195632Y-56461559D01*
X70188351Y-56462639D01*
X70181000Y-56463000D01*
X70031000Y-56463000D01*
X70023649Y-56462639D01*
X70016368Y-56461559D01*
X70009229Y-56459771D01*
X70002299Y-56457291D01*
X69995645Y-56454144D01*
X69989332Y-56450360D01*
X69983421Y-56445976D01*
X69977967Y-56441033D01*
X69973024Y-56435579D01*
X69968640Y-56429668D01*
X69964856Y-56423355D01*
X69961709Y-56416701D01*
X69959229Y-56409771D01*
X69957441Y-56402632D01*
X69956361Y-56395351D01*
X69956000Y-56388000D01*
X69956000Y-55688000D01*
X69956361Y-55680649D01*
X69957441Y-55673368D01*
X69959229Y-55666229D01*
X69961709Y-55659299D01*
X69964856Y-55652645D01*
X69968640Y-55646332D01*
X69973024Y-55640421D01*
X69977967Y-55634967D01*
X69983421Y-55630024D01*
X69989332Y-55625640D01*
X69995645Y-55621856D01*
X70002299Y-55618709D01*
X70009229Y-55616229D01*
X70016368Y-55614441D01*
X70023649Y-55613361D01*
X70031000Y-55613000D01*
X70181000Y-55613000D01*
X70188351Y-55613361D01*
G37*
G36*
X70688351Y-55613361D02*
G01*
X70695632Y-55614441D01*
X70702771Y-55616229D01*
X70709701Y-55618709D01*
X70716355Y-55621856D01*
X70722668Y-55625640D01*
X70728579Y-55630024D01*
X70734033Y-55634967D01*
X70738976Y-55640421D01*
X70743360Y-55646332D01*
X70747144Y-55652645D01*
X70750291Y-55659299D01*
X70752771Y-55666229D01*
X70754559Y-55673368D01*
X70755639Y-55680649D01*
X70756000Y-55688000D01*
X70756000Y-56388000D01*
X70755639Y-56395351D01*
X70754559Y-56402632D01*
X70752771Y-56409771D01*
X70750291Y-56416701D01*
X70747144Y-56423355D01*
X70743360Y-56429668D01*
X70738976Y-56435579D01*
X70734033Y-56441033D01*
X70728579Y-56445976D01*
X70722668Y-56450360D01*
X70716355Y-56454144D01*
X70709701Y-56457291D01*
X70702771Y-56459771D01*
X70695632Y-56461559D01*
X70688351Y-56462639D01*
X70681000Y-56463000D01*
X70531000Y-56463000D01*
X70523649Y-56462639D01*
X70516368Y-56461559D01*
X70509229Y-56459771D01*
X70502299Y-56457291D01*
X70495645Y-56454144D01*
X70489332Y-56450360D01*
X70483421Y-56445976D01*
X70477967Y-56441033D01*
X70473024Y-56435579D01*
X70468640Y-56429668D01*
X70464856Y-56423355D01*
X70461709Y-56416701D01*
X70459229Y-56409771D01*
X70457441Y-56402632D01*
X70456361Y-56395351D01*
X70456000Y-56388000D01*
X70456000Y-55688000D01*
X70456361Y-55680649D01*
X70457441Y-55673368D01*
X70459229Y-55666229D01*
X70461709Y-55659299D01*
X70464856Y-55652645D01*
X70468640Y-55646332D01*
X70473024Y-55640421D01*
X70477967Y-55634967D01*
X70483421Y-55630024D01*
X70489332Y-55625640D01*
X70495645Y-55621856D01*
X70502299Y-55618709D01*
X70509229Y-55616229D01*
X70516368Y-55614441D01*
X70523649Y-55613361D01*
X70531000Y-55613000D01*
X70681000Y-55613000D01*
X70688351Y-55613361D01*
G37*
G36*
X71663351Y-55188361D02*
G01*
X71670632Y-55189441D01*
X71677771Y-55191229D01*
X71684701Y-55193709D01*
X71691355Y-55196856D01*
X71697668Y-55200640D01*
X71703579Y-55205024D01*
X71709033Y-55209967D01*
X71713976Y-55215421D01*
X71718360Y-55221332D01*
X71722144Y-55227645D01*
X71725291Y-55234299D01*
X71727771Y-55241229D01*
X71729559Y-55248368D01*
X71730639Y-55255649D01*
X71731000Y-55263000D01*
X71731000Y-55413000D01*
X71730639Y-55420351D01*
X71729559Y-55427632D01*
X71727771Y-55434771D01*
X71725291Y-55441701D01*
X71722144Y-55448355D01*
X71718360Y-55454668D01*
X71713976Y-55460579D01*
X71709033Y-55466033D01*
X71703579Y-55470976D01*
X71697668Y-55475360D01*
X71691355Y-55479144D01*
X71684701Y-55482291D01*
X71677771Y-55484771D01*
X71670632Y-55486559D01*
X71663351Y-55487639D01*
X71656000Y-55488000D01*
X70956000Y-55488000D01*
X70948649Y-55487639D01*
X70941368Y-55486559D01*
X70934229Y-55484771D01*
X70927299Y-55482291D01*
X70920645Y-55479144D01*
X70914332Y-55475360D01*
X70908421Y-55470976D01*
X70902967Y-55466033D01*
X70898024Y-55460579D01*
X70893640Y-55454668D01*
X70889856Y-55448355D01*
X70886709Y-55441701D01*
X70884229Y-55434771D01*
X70882441Y-55427632D01*
X70881361Y-55420351D01*
X70881000Y-55413000D01*
X70881000Y-55263000D01*
X70881361Y-55255649D01*
X70882441Y-55248368D01*
X70884229Y-55241229D01*
X70886709Y-55234299D01*
X70889856Y-55227645D01*
X70893640Y-55221332D01*
X70898024Y-55215421D01*
X70902967Y-55209967D01*
X70908421Y-55205024D01*
X70914332Y-55200640D01*
X70920645Y-55196856D01*
X70927299Y-55193709D01*
X70934229Y-55191229D01*
X70941368Y-55189441D01*
X70948649Y-55188361D01*
X70956000Y-55188000D01*
X71656000Y-55188000D01*
X71663351Y-55188361D01*
G37*
G36*
X71663351Y-54688361D02*
G01*
X71670632Y-54689441D01*
X71677771Y-54691229D01*
X71684701Y-54693709D01*
X71691355Y-54696856D01*
X71697668Y-54700640D01*
X71703579Y-54705024D01*
X71709033Y-54709967D01*
X71713976Y-54715421D01*
X71718360Y-54721332D01*
X71722144Y-54727645D01*
X71725291Y-54734299D01*
X71727771Y-54741229D01*
X71729559Y-54748368D01*
X71730639Y-54755649D01*
X71731000Y-54763000D01*
X71731000Y-54913000D01*
X71730639Y-54920351D01*
X71729559Y-54927632D01*
X71727771Y-54934771D01*
X71725291Y-54941701D01*
X71722144Y-54948355D01*
X71718360Y-54954668D01*
X71713976Y-54960579D01*
X71709033Y-54966033D01*
X71703579Y-54970976D01*
X71697668Y-54975360D01*
X71691355Y-54979144D01*
X71684701Y-54982291D01*
X71677771Y-54984771D01*
X71670632Y-54986559D01*
X71663351Y-54987639D01*
X71656000Y-54988000D01*
X70956000Y-54988000D01*
X70948649Y-54987639D01*
X70941368Y-54986559D01*
X70934229Y-54984771D01*
X70927299Y-54982291D01*
X70920645Y-54979144D01*
X70914332Y-54975360D01*
X70908421Y-54970976D01*
X70902967Y-54966033D01*
X70898024Y-54960579D01*
X70893640Y-54954668D01*
X70889856Y-54948355D01*
X70886709Y-54941701D01*
X70884229Y-54934771D01*
X70882441Y-54927632D01*
X70881361Y-54920351D01*
X70881000Y-54913000D01*
X70881000Y-54763000D01*
X70881361Y-54755649D01*
X70882441Y-54748368D01*
X70884229Y-54741229D01*
X70886709Y-54734299D01*
X70889856Y-54727645D01*
X70893640Y-54721332D01*
X70898024Y-54715421D01*
X70902967Y-54709967D01*
X70908421Y-54705024D01*
X70914332Y-54700640D01*
X70920645Y-54696856D01*
X70927299Y-54693709D01*
X70934229Y-54691229D01*
X70941368Y-54689441D01*
X70948649Y-54688361D01*
X70956000Y-54688000D01*
X71656000Y-54688000D01*
X71663351Y-54688361D01*
G37*
G36*
X71663351Y-54188361D02*
G01*
X71670632Y-54189441D01*
X71677771Y-54191229D01*
X71684701Y-54193709D01*
X71691355Y-54196856D01*
X71697668Y-54200640D01*
X71703579Y-54205024D01*
X71709033Y-54209967D01*
X71713976Y-54215421D01*
X71718360Y-54221332D01*
X71722144Y-54227645D01*
X71725291Y-54234299D01*
X71727771Y-54241229D01*
X71729559Y-54248368D01*
X71730639Y-54255649D01*
X71731000Y-54263000D01*
X71731000Y-54413000D01*
X71730639Y-54420351D01*
X71729559Y-54427632D01*
X71727771Y-54434771D01*
X71725291Y-54441701D01*
X71722144Y-54448355D01*
X71718360Y-54454668D01*
X71713976Y-54460579D01*
X71709033Y-54466033D01*
X71703579Y-54470976D01*
X71697668Y-54475360D01*
X71691355Y-54479144D01*
X71684701Y-54482291D01*
X71677771Y-54484771D01*
X71670632Y-54486559D01*
X71663351Y-54487639D01*
X71656000Y-54488000D01*
X70956000Y-54488000D01*
X70948649Y-54487639D01*
X70941368Y-54486559D01*
X70934229Y-54484771D01*
X70927299Y-54482291D01*
X70920645Y-54479144D01*
X70914332Y-54475360D01*
X70908421Y-54470976D01*
X70902967Y-54466033D01*
X70898024Y-54460579D01*
X70893640Y-54454668D01*
X70889856Y-54448355D01*
X70886709Y-54441701D01*
X70884229Y-54434771D01*
X70882441Y-54427632D01*
X70881361Y-54420351D01*
X70881000Y-54413000D01*
X70881000Y-54263000D01*
X70881361Y-54255649D01*
X70882441Y-54248368D01*
X70884229Y-54241229D01*
X70886709Y-54234299D01*
X70889856Y-54227645D01*
X70893640Y-54221332D01*
X70898024Y-54215421D01*
X70902967Y-54209967D01*
X70908421Y-54205024D01*
X70914332Y-54200640D01*
X70920645Y-54196856D01*
X70927299Y-54193709D01*
X70934229Y-54191229D01*
X70941368Y-54189441D01*
X70948649Y-54188361D01*
X70956000Y-54188000D01*
X71656000Y-54188000D01*
X71663351Y-54188361D01*
G37*
G36*
X71663351Y-53688361D02*
G01*
X71670632Y-53689441D01*
X71677771Y-53691229D01*
X71684701Y-53693709D01*
X71691355Y-53696856D01*
X71697668Y-53700640D01*
X71703579Y-53705024D01*
X71709033Y-53709967D01*
X71713976Y-53715421D01*
X71718360Y-53721332D01*
X71722144Y-53727645D01*
X71725291Y-53734299D01*
X71727771Y-53741229D01*
X71729559Y-53748368D01*
X71730639Y-53755649D01*
X71731000Y-53763000D01*
X71731000Y-53913000D01*
X71730639Y-53920351D01*
X71729559Y-53927632D01*
X71727771Y-53934771D01*
X71725291Y-53941701D01*
X71722144Y-53948355D01*
X71718360Y-53954668D01*
X71713976Y-53960579D01*
X71709033Y-53966033D01*
X71703579Y-53970976D01*
X71697668Y-53975360D01*
X71691355Y-53979144D01*
X71684701Y-53982291D01*
X71677771Y-53984771D01*
X71670632Y-53986559D01*
X71663351Y-53987639D01*
X71656000Y-53988000D01*
X70956000Y-53988000D01*
X70948649Y-53987639D01*
X70941368Y-53986559D01*
X70934229Y-53984771D01*
X70927299Y-53982291D01*
X70920645Y-53979144D01*
X70914332Y-53975360D01*
X70908421Y-53970976D01*
X70902967Y-53966033D01*
X70898024Y-53960579D01*
X70893640Y-53954668D01*
X70889856Y-53948355D01*
X70886709Y-53941701D01*
X70884229Y-53934771D01*
X70882441Y-53927632D01*
X70881361Y-53920351D01*
X70881000Y-53913000D01*
X70881000Y-53763000D01*
X70881361Y-53755649D01*
X70882441Y-53748368D01*
X70884229Y-53741229D01*
X70886709Y-53734299D01*
X70889856Y-53727645D01*
X70893640Y-53721332D01*
X70898024Y-53715421D01*
X70902967Y-53709967D01*
X70908421Y-53705024D01*
X70914332Y-53700640D01*
X70920645Y-53696856D01*
X70927299Y-53693709D01*
X70934229Y-53691229D01*
X70941368Y-53689441D01*
X70948649Y-53688361D01*
X70956000Y-53688000D01*
X71656000Y-53688000D01*
X71663351Y-53688361D01*
G37*
G36*
X71663351Y-53188361D02*
G01*
X71670632Y-53189441D01*
X71677771Y-53191229D01*
X71684701Y-53193709D01*
X71691355Y-53196856D01*
X71697668Y-53200640D01*
X71703579Y-53205024D01*
X71709033Y-53209967D01*
X71713976Y-53215421D01*
X71718360Y-53221332D01*
X71722144Y-53227645D01*
X71725291Y-53234299D01*
X71727771Y-53241229D01*
X71729559Y-53248368D01*
X71730639Y-53255649D01*
X71731000Y-53263000D01*
X71731000Y-53413000D01*
X71730639Y-53420351D01*
X71729559Y-53427632D01*
X71727771Y-53434771D01*
X71725291Y-53441701D01*
X71722144Y-53448355D01*
X71718360Y-53454668D01*
X71713976Y-53460579D01*
X71709033Y-53466033D01*
X71703579Y-53470976D01*
X71697668Y-53475360D01*
X71691355Y-53479144D01*
X71684701Y-53482291D01*
X71677771Y-53484771D01*
X71670632Y-53486559D01*
X71663351Y-53487639D01*
X71656000Y-53488000D01*
X70956000Y-53488000D01*
X70948649Y-53487639D01*
X70941368Y-53486559D01*
X70934229Y-53484771D01*
X70927299Y-53482291D01*
X70920645Y-53479144D01*
X70914332Y-53475360D01*
X70908421Y-53470976D01*
X70902967Y-53466033D01*
X70898024Y-53460579D01*
X70893640Y-53454668D01*
X70889856Y-53448355D01*
X70886709Y-53441701D01*
X70884229Y-53434771D01*
X70882441Y-53427632D01*
X70881361Y-53420351D01*
X70881000Y-53413000D01*
X70881000Y-53263000D01*
X70881361Y-53255649D01*
X70882441Y-53248368D01*
X70884229Y-53241229D01*
X70886709Y-53234299D01*
X70889856Y-53227645D01*
X70893640Y-53221332D01*
X70898024Y-53215421D01*
X70902967Y-53209967D01*
X70908421Y-53205024D01*
X70914332Y-53200640D01*
X70920645Y-53196856D01*
X70927299Y-53193709D01*
X70934229Y-53191229D01*
X70941368Y-53189441D01*
X70948649Y-53188361D01*
X70956000Y-53188000D01*
X71656000Y-53188000D01*
X71663351Y-53188361D01*
G37*
G36*
X71663351Y-52688361D02*
G01*
X71670632Y-52689441D01*
X71677771Y-52691229D01*
X71684701Y-52693709D01*
X71691355Y-52696856D01*
X71697668Y-52700640D01*
X71703579Y-52705024D01*
X71709033Y-52709967D01*
X71713976Y-52715421D01*
X71718360Y-52721332D01*
X71722144Y-52727645D01*
X71725291Y-52734299D01*
X71727771Y-52741229D01*
X71729559Y-52748368D01*
X71730639Y-52755649D01*
X71731000Y-52763000D01*
X71731000Y-52913000D01*
X71730639Y-52920351D01*
X71729559Y-52927632D01*
X71727771Y-52934771D01*
X71725291Y-52941701D01*
X71722144Y-52948355D01*
X71718360Y-52954668D01*
X71713976Y-52960579D01*
X71709033Y-52966033D01*
X71703579Y-52970976D01*
X71697668Y-52975360D01*
X71691355Y-52979144D01*
X71684701Y-52982291D01*
X71677771Y-52984771D01*
X71670632Y-52986559D01*
X71663351Y-52987639D01*
X71656000Y-52988000D01*
X70956000Y-52988000D01*
X70948649Y-52987639D01*
X70941368Y-52986559D01*
X70934229Y-52984771D01*
X70927299Y-52982291D01*
X70920645Y-52979144D01*
X70914332Y-52975360D01*
X70908421Y-52970976D01*
X70902967Y-52966033D01*
X70898024Y-52960579D01*
X70893640Y-52954668D01*
X70889856Y-52948355D01*
X70886709Y-52941701D01*
X70884229Y-52934771D01*
X70882441Y-52927632D01*
X70881361Y-52920351D01*
X70881000Y-52913000D01*
X70881000Y-52763000D01*
X70881361Y-52755649D01*
X70882441Y-52748368D01*
X70884229Y-52741229D01*
X70886709Y-52734299D01*
X70889856Y-52727645D01*
X70893640Y-52721332D01*
X70898024Y-52715421D01*
X70902967Y-52709967D01*
X70908421Y-52705024D01*
X70914332Y-52700640D01*
X70920645Y-52696856D01*
X70927299Y-52693709D01*
X70934229Y-52691229D01*
X70941368Y-52689441D01*
X70948649Y-52688361D01*
X70956000Y-52688000D01*
X71656000Y-52688000D01*
X71663351Y-52688361D01*
G37*
G36*
X70688351Y-51713361D02*
G01*
X70695632Y-51714441D01*
X70702771Y-51716229D01*
X70709701Y-51718709D01*
X70716355Y-51721856D01*
X70722668Y-51725640D01*
X70728579Y-51730024D01*
X70734033Y-51734967D01*
X70738976Y-51740421D01*
X70743360Y-51746332D01*
X70747144Y-51752645D01*
X70750291Y-51759299D01*
X70752771Y-51766229D01*
X70754559Y-51773368D01*
X70755639Y-51780649D01*
X70756000Y-51788000D01*
X70756000Y-52488000D01*
X70755639Y-52495351D01*
X70754559Y-52502632D01*
X70752771Y-52509771D01*
X70750291Y-52516701D01*
X70747144Y-52523355D01*
X70743360Y-52529668D01*
X70738976Y-52535579D01*
X70734033Y-52541033D01*
X70728579Y-52545976D01*
X70722668Y-52550360D01*
X70716355Y-52554144D01*
X70709701Y-52557291D01*
X70702771Y-52559771D01*
X70695632Y-52561559D01*
X70688351Y-52562639D01*
X70681000Y-52563000D01*
X70531000Y-52563000D01*
X70523649Y-52562639D01*
X70516368Y-52561559D01*
X70509229Y-52559771D01*
X70502299Y-52557291D01*
X70495645Y-52554144D01*
X70489332Y-52550360D01*
X70483421Y-52545976D01*
X70477967Y-52541033D01*
X70473024Y-52535579D01*
X70468640Y-52529668D01*
X70464856Y-52523355D01*
X70461709Y-52516701D01*
X70459229Y-52509771D01*
X70457441Y-52502632D01*
X70456361Y-52495351D01*
X70456000Y-52488000D01*
X70456000Y-51788000D01*
X70456361Y-51780649D01*
X70457441Y-51773368D01*
X70459229Y-51766229D01*
X70461709Y-51759299D01*
X70464856Y-51752645D01*
X70468640Y-51746332D01*
X70473024Y-51740421D01*
X70477967Y-51734967D01*
X70483421Y-51730024D01*
X70489332Y-51725640D01*
X70495645Y-51721856D01*
X70502299Y-51718709D01*
X70509229Y-51716229D01*
X70516368Y-51714441D01*
X70523649Y-51713361D01*
X70531000Y-51713000D01*
X70681000Y-51713000D01*
X70688351Y-51713361D01*
G37*
G36*
X70188351Y-51713361D02*
G01*
X70195632Y-51714441D01*
X70202771Y-51716229D01*
X70209701Y-51718709D01*
X70216355Y-51721856D01*
X70222668Y-51725640D01*
X70228579Y-51730024D01*
X70234033Y-51734967D01*
X70238976Y-51740421D01*
X70243360Y-51746332D01*
X70247144Y-51752645D01*
X70250291Y-51759299D01*
X70252771Y-51766229D01*
X70254559Y-51773368D01*
X70255639Y-51780649D01*
X70256000Y-51788000D01*
X70256000Y-52488000D01*
X70255639Y-52495351D01*
X70254559Y-52502632D01*
X70252771Y-52509771D01*
X70250291Y-52516701D01*
X70247144Y-52523355D01*
X70243360Y-52529668D01*
X70238976Y-52535579D01*
X70234033Y-52541033D01*
X70228579Y-52545976D01*
X70222668Y-52550360D01*
X70216355Y-52554144D01*
X70209701Y-52557291D01*
X70202771Y-52559771D01*
X70195632Y-52561559D01*
X70188351Y-52562639D01*
X70181000Y-52563000D01*
X70031000Y-52563000D01*
X70023649Y-52562639D01*
X70016368Y-52561559D01*
X70009229Y-52559771D01*
X70002299Y-52557291D01*
X69995645Y-52554144D01*
X69989332Y-52550360D01*
X69983421Y-52545976D01*
X69977967Y-52541033D01*
X69973024Y-52535579D01*
X69968640Y-52529668D01*
X69964856Y-52523355D01*
X69961709Y-52516701D01*
X69959229Y-52509771D01*
X69957441Y-52502632D01*
X69956361Y-52495351D01*
X69956000Y-52488000D01*
X69956000Y-51788000D01*
X69956361Y-51780649D01*
X69957441Y-51773368D01*
X69959229Y-51766229D01*
X69961709Y-51759299D01*
X69964856Y-51752645D01*
X69968640Y-51746332D01*
X69973024Y-51740421D01*
X69977967Y-51734967D01*
X69983421Y-51730024D01*
X69989332Y-51725640D01*
X69995645Y-51721856D01*
X70002299Y-51718709D01*
X70009229Y-51716229D01*
X70016368Y-51714441D01*
X70023649Y-51713361D01*
X70031000Y-51713000D01*
X70181000Y-51713000D01*
X70188351Y-51713361D01*
G37*
G36*
X69688351Y-51713361D02*
G01*
X69695632Y-51714441D01*
X69702771Y-51716229D01*
X69709701Y-51718709D01*
X69716355Y-51721856D01*
X69722668Y-51725640D01*
X69728579Y-51730024D01*
X69734033Y-51734967D01*
X69738976Y-51740421D01*
X69743360Y-51746332D01*
X69747144Y-51752645D01*
X69750291Y-51759299D01*
X69752771Y-51766229D01*
X69754559Y-51773368D01*
X69755639Y-51780649D01*
X69756000Y-51788000D01*
X69756000Y-52488000D01*
X69755639Y-52495351D01*
X69754559Y-52502632D01*
X69752771Y-52509771D01*
X69750291Y-52516701D01*
X69747144Y-52523355D01*
X69743360Y-52529668D01*
X69738976Y-52535579D01*
X69734033Y-52541033D01*
X69728579Y-52545976D01*
X69722668Y-52550360D01*
X69716355Y-52554144D01*
X69709701Y-52557291D01*
X69702771Y-52559771D01*
X69695632Y-52561559D01*
X69688351Y-52562639D01*
X69681000Y-52563000D01*
X69531000Y-52563000D01*
X69523649Y-52562639D01*
X69516368Y-52561559D01*
X69509229Y-52559771D01*
X69502299Y-52557291D01*
X69495645Y-52554144D01*
X69489332Y-52550360D01*
X69483421Y-52545976D01*
X69477967Y-52541033D01*
X69473024Y-52535579D01*
X69468640Y-52529668D01*
X69464856Y-52523355D01*
X69461709Y-52516701D01*
X69459229Y-52509771D01*
X69457441Y-52502632D01*
X69456361Y-52495351D01*
X69456000Y-52488000D01*
X69456000Y-51788000D01*
X69456361Y-51780649D01*
X69457441Y-51773368D01*
X69459229Y-51766229D01*
X69461709Y-51759299D01*
X69464856Y-51752645D01*
X69468640Y-51746332D01*
X69473024Y-51740421D01*
X69477967Y-51734967D01*
X69483421Y-51730024D01*
X69489332Y-51725640D01*
X69495645Y-51721856D01*
X69502299Y-51718709D01*
X69509229Y-51716229D01*
X69516368Y-51714441D01*
X69523649Y-51713361D01*
X69531000Y-51713000D01*
X69681000Y-51713000D01*
X69688351Y-51713361D01*
G37*
G36*
X69188351Y-51713361D02*
G01*
X69195632Y-51714441D01*
X69202771Y-51716229D01*
X69209701Y-51718709D01*
X69216355Y-51721856D01*
X69222668Y-51725640D01*
X69228579Y-51730024D01*
X69234033Y-51734967D01*
X69238976Y-51740421D01*
X69243360Y-51746332D01*
X69247144Y-51752645D01*
X69250291Y-51759299D01*
X69252771Y-51766229D01*
X69254559Y-51773368D01*
X69255639Y-51780649D01*
X69256000Y-51788000D01*
X69256000Y-52488000D01*
X69255639Y-52495351D01*
X69254559Y-52502632D01*
X69252771Y-52509771D01*
X69250291Y-52516701D01*
X69247144Y-52523355D01*
X69243360Y-52529668D01*
X69238976Y-52535579D01*
X69234033Y-52541033D01*
X69228579Y-52545976D01*
X69222668Y-52550360D01*
X69216355Y-52554144D01*
X69209701Y-52557291D01*
X69202771Y-52559771D01*
X69195632Y-52561559D01*
X69188351Y-52562639D01*
X69181000Y-52563000D01*
X69031000Y-52563000D01*
X69023649Y-52562639D01*
X69016368Y-52561559D01*
X69009229Y-52559771D01*
X69002299Y-52557291D01*
X68995645Y-52554144D01*
X68989332Y-52550360D01*
X68983421Y-52545976D01*
X68977967Y-52541033D01*
X68973024Y-52535579D01*
X68968640Y-52529668D01*
X68964856Y-52523355D01*
X68961709Y-52516701D01*
X68959229Y-52509771D01*
X68957441Y-52502632D01*
X68956361Y-52495351D01*
X68956000Y-52488000D01*
X68956000Y-51788000D01*
X68956361Y-51780649D01*
X68957441Y-51773368D01*
X68959229Y-51766229D01*
X68961709Y-51759299D01*
X68964856Y-51752645D01*
X68968640Y-51746332D01*
X68973024Y-51740421D01*
X68977967Y-51734967D01*
X68983421Y-51730024D01*
X68989332Y-51725640D01*
X68995645Y-51721856D01*
X69002299Y-51718709D01*
X69009229Y-51716229D01*
X69016368Y-51714441D01*
X69023649Y-51713361D01*
X69031000Y-51713000D01*
X69181000Y-51713000D01*
X69188351Y-51713361D01*
G37*
G36*
X68688351Y-51713361D02*
G01*
X68695632Y-51714441D01*
X68702771Y-51716229D01*
X68709701Y-51718709D01*
X68716355Y-51721856D01*
X68722668Y-51725640D01*
X68728579Y-51730024D01*
X68734033Y-51734967D01*
X68738976Y-51740421D01*
X68743360Y-51746332D01*
X68747144Y-51752645D01*
X68750291Y-51759299D01*
X68752771Y-51766229D01*
X68754559Y-51773368D01*
X68755639Y-51780649D01*
X68756000Y-51788000D01*
X68756000Y-52488000D01*
X68755639Y-52495351D01*
X68754559Y-52502632D01*
X68752771Y-52509771D01*
X68750291Y-52516701D01*
X68747144Y-52523355D01*
X68743360Y-52529668D01*
X68738976Y-52535579D01*
X68734033Y-52541033D01*
X68728579Y-52545976D01*
X68722668Y-52550360D01*
X68716355Y-52554144D01*
X68709701Y-52557291D01*
X68702771Y-52559771D01*
X68695632Y-52561559D01*
X68688351Y-52562639D01*
X68681000Y-52563000D01*
X68531000Y-52563000D01*
X68523649Y-52562639D01*
X68516368Y-52561559D01*
X68509229Y-52559771D01*
X68502299Y-52557291D01*
X68495645Y-52554144D01*
X68489332Y-52550360D01*
X68483421Y-52545976D01*
X68477967Y-52541033D01*
X68473024Y-52535579D01*
X68468640Y-52529668D01*
X68464856Y-52523355D01*
X68461709Y-52516701D01*
X68459229Y-52509771D01*
X68457441Y-52502632D01*
X68456361Y-52495351D01*
X68456000Y-52488000D01*
X68456000Y-51788000D01*
X68456361Y-51780649D01*
X68457441Y-51773368D01*
X68459229Y-51766229D01*
X68461709Y-51759299D01*
X68464856Y-51752645D01*
X68468640Y-51746332D01*
X68473024Y-51740421D01*
X68477967Y-51734967D01*
X68483421Y-51730024D01*
X68489332Y-51725640D01*
X68495645Y-51721856D01*
X68502299Y-51718709D01*
X68509229Y-51716229D01*
X68516368Y-51714441D01*
X68523649Y-51713361D01*
X68531000Y-51713000D01*
X68681000Y-51713000D01*
X68688351Y-51713361D01*
G37*
G36*
X68188351Y-51713361D02*
G01*
X68195632Y-51714441D01*
X68202771Y-51716229D01*
X68209701Y-51718709D01*
X68216355Y-51721856D01*
X68222668Y-51725640D01*
X68228579Y-51730024D01*
X68234033Y-51734967D01*
X68238976Y-51740421D01*
X68243360Y-51746332D01*
X68247144Y-51752645D01*
X68250291Y-51759299D01*
X68252771Y-51766229D01*
X68254559Y-51773368D01*
X68255639Y-51780649D01*
X68256000Y-51788000D01*
X68256000Y-52488000D01*
X68255639Y-52495351D01*
X68254559Y-52502632D01*
X68252771Y-52509771D01*
X68250291Y-52516701D01*
X68247144Y-52523355D01*
X68243360Y-52529668D01*
X68238976Y-52535579D01*
X68234033Y-52541033D01*
X68228579Y-52545976D01*
X68222668Y-52550360D01*
X68216355Y-52554144D01*
X68209701Y-52557291D01*
X68202771Y-52559771D01*
X68195632Y-52561559D01*
X68188351Y-52562639D01*
X68181000Y-52563000D01*
X68031000Y-52563000D01*
X68023649Y-52562639D01*
X68016368Y-52561559D01*
X68009229Y-52559771D01*
X68002299Y-52557291D01*
X67995645Y-52554144D01*
X67989332Y-52550360D01*
X67983421Y-52545976D01*
X67977967Y-52541033D01*
X67973024Y-52535579D01*
X67968640Y-52529668D01*
X67964856Y-52523355D01*
X67961709Y-52516701D01*
X67959229Y-52509771D01*
X67957441Y-52502632D01*
X67956361Y-52495351D01*
X67956000Y-52488000D01*
X67956000Y-51788000D01*
X67956361Y-51780649D01*
X67957441Y-51773368D01*
X67959229Y-51766229D01*
X67961709Y-51759299D01*
X67964856Y-51752645D01*
X67968640Y-51746332D01*
X67973024Y-51740421D01*
X67977967Y-51734967D01*
X67983421Y-51730024D01*
X67989332Y-51725640D01*
X67995645Y-51721856D01*
X68002299Y-51718709D01*
X68009229Y-51716229D01*
X68016368Y-51714441D01*
X68023649Y-51713361D01*
X68031000Y-51713000D01*
X68181000Y-51713000D01*
X68188351Y-51713361D01*
G37*
G36*
X73085505Y-64769204D02*
G01*
X73109773Y-64772804D01*
X73133572Y-64778765D01*
X73156671Y-64787030D01*
X73178850Y-64797520D01*
X73199893Y-64810132D01*
X73219599Y-64824747D01*
X73237777Y-64841223D01*
X73254253Y-64859401D01*
X73268868Y-64879107D01*
X73281480Y-64900150D01*
X73291970Y-64922329D01*
X73300235Y-64945428D01*
X73306196Y-64969227D01*
X73309796Y-64993495D01*
X73311000Y-65017999D01*
X73311000Y-65568001D01*
X73309796Y-65592505D01*
X73306196Y-65616773D01*
X73300235Y-65640572D01*
X73291970Y-65663671D01*
X73281480Y-65685850D01*
X73268868Y-65706893D01*
X73254253Y-65726599D01*
X73237777Y-65744777D01*
X73219599Y-65761253D01*
X73199893Y-65775868D01*
X73178850Y-65788480D01*
X73156671Y-65798970D01*
X73133572Y-65807235D01*
X73109773Y-65813196D01*
X73085505Y-65816796D01*
X73061001Y-65818000D01*
X72510999Y-65818000D01*
X72486495Y-65816796D01*
X72462227Y-65813196D01*
X72438428Y-65807235D01*
X72415329Y-65798970D01*
X72393150Y-65788480D01*
X72372107Y-65775868D01*
X72352401Y-65761253D01*
X72334223Y-65744777D01*
X72317747Y-65726599D01*
X72303132Y-65706893D01*
X72290520Y-65685850D01*
X72280030Y-65663671D01*
X72271765Y-65640572D01*
X72265804Y-65616773D01*
X72262204Y-65592505D01*
X72261000Y-65568001D01*
X72261000Y-65017999D01*
X72262204Y-64993495D01*
X72265804Y-64969227D01*
X72271765Y-64945428D01*
X72280030Y-64922329D01*
X72290520Y-64900150D01*
X72303132Y-64879107D01*
X72317747Y-64859401D01*
X72334223Y-64841223D01*
X72352401Y-64824747D01*
X72372107Y-64810132D01*
X72393150Y-64797520D01*
X72415329Y-64787030D01*
X72438428Y-64778765D01*
X72462227Y-64772804D01*
X72486495Y-64769204D01*
X72510999Y-64768000D01*
X73061001Y-64768000D01*
X73085505Y-64769204D01*
G37*
G36*
X71785505Y-64769204D02*
G01*
X71809773Y-64772804D01*
X71833572Y-64778765D01*
X71856671Y-64787030D01*
X71878850Y-64797520D01*
X71899893Y-64810132D01*
X71919599Y-64824747D01*
X71937777Y-64841223D01*
X71954253Y-64859401D01*
X71968868Y-64879107D01*
X71981480Y-64900150D01*
X71991970Y-64922329D01*
X72000235Y-64945428D01*
X72006196Y-64969227D01*
X72009796Y-64993495D01*
X72011000Y-65017999D01*
X72011000Y-65568001D01*
X72009796Y-65592505D01*
X72006196Y-65616773D01*
X72000235Y-65640572D01*
X71991970Y-65663671D01*
X71981480Y-65685850D01*
X71968868Y-65706893D01*
X71954253Y-65726599D01*
X71937777Y-65744777D01*
X71919599Y-65761253D01*
X71899893Y-65775868D01*
X71878850Y-65788480D01*
X71856671Y-65798970D01*
X71833572Y-65807235D01*
X71809773Y-65813196D01*
X71785505Y-65816796D01*
X71761001Y-65818000D01*
X71210999Y-65818000D01*
X71186495Y-65816796D01*
X71162227Y-65813196D01*
X71138428Y-65807235D01*
X71115329Y-65798970D01*
X71093150Y-65788480D01*
X71072107Y-65775868D01*
X71052401Y-65761253D01*
X71034223Y-65744777D01*
X71017747Y-65726599D01*
X71003132Y-65706893D01*
X70990520Y-65685850D01*
X70980030Y-65663671D01*
X70971765Y-65640572D01*
X70965804Y-65616773D01*
X70962204Y-65592505D01*
X70961000Y-65568001D01*
X70961000Y-65017999D01*
X70962204Y-64993495D01*
X70965804Y-64969227D01*
X70971765Y-64945428D01*
X70980030Y-64922329D01*
X70990520Y-64900150D01*
X71003132Y-64879107D01*
X71017747Y-64859401D01*
X71034223Y-64841223D01*
X71052401Y-64824747D01*
X71072107Y-64810132D01*
X71093150Y-64797520D01*
X71115329Y-64787030D01*
X71138428Y-64778765D01*
X71162227Y-64772804D01*
X71186495Y-64769204D01*
X71210999Y-64768000D01*
X71761001Y-64768000D01*
X71785505Y-64769204D01*
G37*
G36*
X73085505Y-63469204D02*
G01*
X73109773Y-63472804D01*
X73133572Y-63478765D01*
X73156671Y-63487030D01*
X73178850Y-63497520D01*
X73199893Y-63510132D01*
X73219599Y-63524747D01*
X73237777Y-63541223D01*
X73254253Y-63559401D01*
X73268868Y-63579107D01*
X73281480Y-63600150D01*
X73291970Y-63622329D01*
X73300235Y-63645428D01*
X73306196Y-63669227D01*
X73309796Y-63693495D01*
X73311000Y-63717999D01*
X73311000Y-64268001D01*
X73309796Y-64292505D01*
X73306196Y-64316773D01*
X73300235Y-64340572D01*
X73291970Y-64363671D01*
X73281480Y-64385850D01*
X73268868Y-64406893D01*
X73254253Y-64426599D01*
X73237777Y-64444777D01*
X73219599Y-64461253D01*
X73199893Y-64475868D01*
X73178850Y-64488480D01*
X73156671Y-64498970D01*
X73133572Y-64507235D01*
X73109773Y-64513196D01*
X73085505Y-64516796D01*
X73061001Y-64518000D01*
X72510999Y-64518000D01*
X72486495Y-64516796D01*
X72462227Y-64513196D01*
X72438428Y-64507235D01*
X72415329Y-64498970D01*
X72393150Y-64488480D01*
X72372107Y-64475868D01*
X72352401Y-64461253D01*
X72334223Y-64444777D01*
X72317747Y-64426599D01*
X72303132Y-64406893D01*
X72290520Y-64385850D01*
X72280030Y-64363671D01*
X72271765Y-64340572D01*
X72265804Y-64316773D01*
X72262204Y-64292505D01*
X72261000Y-64268001D01*
X72261000Y-63717999D01*
X72262204Y-63693495D01*
X72265804Y-63669227D01*
X72271765Y-63645428D01*
X72280030Y-63622329D01*
X72290520Y-63600150D01*
X72303132Y-63579107D01*
X72317747Y-63559401D01*
X72334223Y-63541223D01*
X72352401Y-63524747D01*
X72372107Y-63510132D01*
X72393150Y-63497520D01*
X72415329Y-63487030D01*
X72438428Y-63478765D01*
X72462227Y-63472804D01*
X72486495Y-63469204D01*
X72510999Y-63468000D01*
X73061001Y-63468000D01*
X73085505Y-63469204D01*
G37*
G36*
X71785505Y-63469204D02*
G01*
X71809773Y-63472804D01*
X71833572Y-63478765D01*
X71856671Y-63487030D01*
X71878850Y-63497520D01*
X71899893Y-63510132D01*
X71919599Y-63524747D01*
X71937777Y-63541223D01*
X71954253Y-63559401D01*
X71968868Y-63579107D01*
X71981480Y-63600150D01*
X71991970Y-63622329D01*
X72000235Y-63645428D01*
X72006196Y-63669227D01*
X72009796Y-63693495D01*
X72011000Y-63717999D01*
X72011000Y-64268001D01*
X72009796Y-64292505D01*
X72006196Y-64316773D01*
X72000235Y-64340572D01*
X71991970Y-64363671D01*
X71981480Y-64385850D01*
X71968868Y-64406893D01*
X71954253Y-64426599D01*
X71937777Y-64444777D01*
X71919599Y-64461253D01*
X71899893Y-64475868D01*
X71878850Y-64488480D01*
X71856671Y-64498970D01*
X71833572Y-64507235D01*
X71809773Y-64513196D01*
X71785505Y-64516796D01*
X71761001Y-64518000D01*
X71210999Y-64518000D01*
X71186495Y-64516796D01*
X71162227Y-64513196D01*
X71138428Y-64507235D01*
X71115329Y-64498970D01*
X71093150Y-64488480D01*
X71072107Y-64475868D01*
X71052401Y-64461253D01*
X71034223Y-64444777D01*
X71017747Y-64426599D01*
X71003132Y-64406893D01*
X70990520Y-64385850D01*
X70980030Y-64363671D01*
X70971765Y-64340572D01*
X70965804Y-64316773D01*
X70962204Y-64292505D01*
X70961000Y-64268001D01*
X70961000Y-63717999D01*
X70962204Y-63693495D01*
X70965804Y-63669227D01*
X70971765Y-63645428D01*
X70980030Y-63622329D01*
X70990520Y-63600150D01*
X71003132Y-63579107D01*
X71017747Y-63559401D01*
X71034223Y-63541223D01*
X71052401Y-63524747D01*
X71072107Y-63510132D01*
X71093150Y-63497520D01*
X71115329Y-63487030D01*
X71138428Y-63478765D01*
X71162227Y-63472804D01*
X71186495Y-63469204D01*
X71210999Y-63468000D01*
X71761001Y-63468000D01*
X71785505Y-63469204D01*
G37*
G36*
X73454626Y-66168301D02*
G01*
X73460693Y-66169201D01*
X73466643Y-66170691D01*
X73472418Y-66172758D01*
X73477962Y-66175380D01*
X73483223Y-66178533D01*
X73488150Y-66182187D01*
X73492694Y-66186306D01*
X73496813Y-66190850D01*
X73500467Y-66195777D01*
X73503620Y-66201038D01*
X73506242Y-66206582D01*
X73508309Y-66212357D01*
X73509799Y-66218307D01*
X73510699Y-66224374D01*
X73511000Y-66230500D01*
X73511000Y-66930500D01*
X73510699Y-66936626D01*
X73509799Y-66942693D01*
X73508309Y-66948643D01*
X73506242Y-66954418D01*
X73503620Y-66959962D01*
X73500467Y-66965223D01*
X73496813Y-66970150D01*
X73492694Y-66974694D01*
X73488150Y-66978813D01*
X73483223Y-66982467D01*
X73477962Y-66985620D01*
X73472418Y-66988242D01*
X73466643Y-66990309D01*
X73460693Y-66991799D01*
X73454626Y-66992699D01*
X73448500Y-66993000D01*
X73323500Y-66993000D01*
X73317374Y-66992699D01*
X73311307Y-66991799D01*
X73305357Y-66990309D01*
X73299582Y-66988242D01*
X73294038Y-66985620D01*
X73288777Y-66982467D01*
X73283850Y-66978813D01*
X73279306Y-66974694D01*
X73275187Y-66970150D01*
X73271533Y-66965223D01*
X73268380Y-66959962D01*
X73265758Y-66954418D01*
X73263691Y-66948643D01*
X73262201Y-66942693D01*
X73261301Y-66936626D01*
X73261000Y-66930500D01*
X73261000Y-66230500D01*
X73261301Y-66224374D01*
X73262201Y-66218307D01*
X73263691Y-66212357D01*
X73265758Y-66206582D01*
X73268380Y-66201038D01*
X73271533Y-66195777D01*
X73275187Y-66190850D01*
X73279306Y-66186306D01*
X73283850Y-66182187D01*
X73288777Y-66178533D01*
X73294038Y-66175380D01*
X73299582Y-66172758D01*
X73305357Y-66170691D01*
X73311307Y-66169201D01*
X73317374Y-66168301D01*
X73323500Y-66168000D01*
X73448500Y-66168000D01*
X73454626Y-66168301D01*
G37*
G36*
X72954626Y-66168301D02*
G01*
X72960693Y-66169201D01*
X72966643Y-66170691D01*
X72972418Y-66172758D01*
X72977962Y-66175380D01*
X72983223Y-66178533D01*
X72988150Y-66182187D01*
X72992694Y-66186306D01*
X72996813Y-66190850D01*
X73000467Y-66195777D01*
X73003620Y-66201038D01*
X73006242Y-66206582D01*
X73008309Y-66212357D01*
X73009799Y-66218307D01*
X73010699Y-66224374D01*
X73011000Y-66230500D01*
X73011000Y-66930500D01*
X73010699Y-66936626D01*
X73009799Y-66942693D01*
X73008309Y-66948643D01*
X73006242Y-66954418D01*
X73003620Y-66959962D01*
X73000467Y-66965223D01*
X72996813Y-66970150D01*
X72992694Y-66974694D01*
X72988150Y-66978813D01*
X72983223Y-66982467D01*
X72977962Y-66985620D01*
X72972418Y-66988242D01*
X72966643Y-66990309D01*
X72960693Y-66991799D01*
X72954626Y-66992699D01*
X72948500Y-66993000D01*
X72823500Y-66993000D01*
X72817374Y-66992699D01*
X72811307Y-66991799D01*
X72805357Y-66990309D01*
X72799582Y-66988242D01*
X72794038Y-66985620D01*
X72788777Y-66982467D01*
X72783850Y-66978813D01*
X72779306Y-66974694D01*
X72775187Y-66970150D01*
X72771533Y-66965223D01*
X72768380Y-66959962D01*
X72765758Y-66954418D01*
X72763691Y-66948643D01*
X72762201Y-66942693D01*
X72761301Y-66936626D01*
X72761000Y-66930500D01*
X72761000Y-66230500D01*
X72761301Y-66224374D01*
X72762201Y-66218307D01*
X72763691Y-66212357D01*
X72765758Y-66206582D01*
X72768380Y-66201038D01*
X72771533Y-66195777D01*
X72775187Y-66190850D01*
X72779306Y-66186306D01*
X72783850Y-66182187D01*
X72788777Y-66178533D01*
X72794038Y-66175380D01*
X72799582Y-66172758D01*
X72805357Y-66170691D01*
X72811307Y-66169201D01*
X72817374Y-66168301D01*
X72823500Y-66168000D01*
X72948500Y-66168000D01*
X72954626Y-66168301D01*
G37*
G36*
X72454626Y-66168301D02*
G01*
X72460693Y-66169201D01*
X72466643Y-66170691D01*
X72472418Y-66172758D01*
X72477962Y-66175380D01*
X72483223Y-66178533D01*
X72488150Y-66182187D01*
X72492694Y-66186306D01*
X72496813Y-66190850D01*
X72500467Y-66195777D01*
X72503620Y-66201038D01*
X72506242Y-66206582D01*
X72508309Y-66212357D01*
X72509799Y-66218307D01*
X72510699Y-66224374D01*
X72511000Y-66230500D01*
X72511000Y-66930500D01*
X72510699Y-66936626D01*
X72509799Y-66942693D01*
X72508309Y-66948643D01*
X72506242Y-66954418D01*
X72503620Y-66959962D01*
X72500467Y-66965223D01*
X72496813Y-66970150D01*
X72492694Y-66974694D01*
X72488150Y-66978813D01*
X72483223Y-66982467D01*
X72477962Y-66985620D01*
X72472418Y-66988242D01*
X72466643Y-66990309D01*
X72460693Y-66991799D01*
X72454626Y-66992699D01*
X72448500Y-66993000D01*
X72323500Y-66993000D01*
X72317374Y-66992699D01*
X72311307Y-66991799D01*
X72305357Y-66990309D01*
X72299582Y-66988242D01*
X72294038Y-66985620D01*
X72288777Y-66982467D01*
X72283850Y-66978813D01*
X72279306Y-66974694D01*
X72275187Y-66970150D01*
X72271533Y-66965223D01*
X72268380Y-66959962D01*
X72265758Y-66954418D01*
X72263691Y-66948643D01*
X72262201Y-66942693D01*
X72261301Y-66936626D01*
X72261000Y-66930500D01*
X72261000Y-66230500D01*
X72261301Y-66224374D01*
X72262201Y-66218307D01*
X72263691Y-66212357D01*
X72265758Y-66206582D01*
X72268380Y-66201038D01*
X72271533Y-66195777D01*
X72275187Y-66190850D01*
X72279306Y-66186306D01*
X72283850Y-66182187D01*
X72288777Y-66178533D01*
X72294038Y-66175380D01*
X72299582Y-66172758D01*
X72305357Y-66170691D01*
X72311307Y-66169201D01*
X72317374Y-66168301D01*
X72323500Y-66168000D01*
X72448500Y-66168000D01*
X72454626Y-66168301D01*
G37*
G36*
X71954626Y-66168301D02*
G01*
X71960693Y-66169201D01*
X71966643Y-66170691D01*
X71972418Y-66172758D01*
X71977962Y-66175380D01*
X71983223Y-66178533D01*
X71988150Y-66182187D01*
X71992694Y-66186306D01*
X71996813Y-66190850D01*
X72000467Y-66195777D01*
X72003620Y-66201038D01*
X72006242Y-66206582D01*
X72008309Y-66212357D01*
X72009799Y-66218307D01*
X72010699Y-66224374D01*
X72011000Y-66230500D01*
X72011000Y-66930500D01*
X72010699Y-66936626D01*
X72009799Y-66942693D01*
X72008309Y-66948643D01*
X72006242Y-66954418D01*
X72003620Y-66959962D01*
X72000467Y-66965223D01*
X71996813Y-66970150D01*
X71992694Y-66974694D01*
X71988150Y-66978813D01*
X71983223Y-66982467D01*
X71977962Y-66985620D01*
X71972418Y-66988242D01*
X71966643Y-66990309D01*
X71960693Y-66991799D01*
X71954626Y-66992699D01*
X71948500Y-66993000D01*
X71823500Y-66993000D01*
X71817374Y-66992699D01*
X71811307Y-66991799D01*
X71805357Y-66990309D01*
X71799582Y-66988242D01*
X71794038Y-66985620D01*
X71788777Y-66982467D01*
X71783850Y-66978813D01*
X71779306Y-66974694D01*
X71775187Y-66970150D01*
X71771533Y-66965223D01*
X71768380Y-66959962D01*
X71765758Y-66954418D01*
X71763691Y-66948643D01*
X71762201Y-66942693D01*
X71761301Y-66936626D01*
X71761000Y-66930500D01*
X71761000Y-66230500D01*
X71761301Y-66224374D01*
X71762201Y-66218307D01*
X71763691Y-66212357D01*
X71765758Y-66206582D01*
X71768380Y-66201038D01*
X71771533Y-66195777D01*
X71775187Y-66190850D01*
X71779306Y-66186306D01*
X71783850Y-66182187D01*
X71788777Y-66178533D01*
X71794038Y-66175380D01*
X71799582Y-66172758D01*
X71805357Y-66170691D01*
X71811307Y-66169201D01*
X71817374Y-66168301D01*
X71823500Y-66168000D01*
X71948500Y-66168000D01*
X71954626Y-66168301D01*
G37*
G36*
X71454626Y-66168301D02*
G01*
X71460693Y-66169201D01*
X71466643Y-66170691D01*
X71472418Y-66172758D01*
X71477962Y-66175380D01*
X71483223Y-66178533D01*
X71488150Y-66182187D01*
X71492694Y-66186306D01*
X71496813Y-66190850D01*
X71500467Y-66195777D01*
X71503620Y-66201038D01*
X71506242Y-66206582D01*
X71508309Y-66212357D01*
X71509799Y-66218307D01*
X71510699Y-66224374D01*
X71511000Y-66230500D01*
X71511000Y-66930500D01*
X71510699Y-66936626D01*
X71509799Y-66942693D01*
X71508309Y-66948643D01*
X71506242Y-66954418D01*
X71503620Y-66959962D01*
X71500467Y-66965223D01*
X71496813Y-66970150D01*
X71492694Y-66974694D01*
X71488150Y-66978813D01*
X71483223Y-66982467D01*
X71477962Y-66985620D01*
X71472418Y-66988242D01*
X71466643Y-66990309D01*
X71460693Y-66991799D01*
X71454626Y-66992699D01*
X71448500Y-66993000D01*
X71323500Y-66993000D01*
X71317374Y-66992699D01*
X71311307Y-66991799D01*
X71305357Y-66990309D01*
X71299582Y-66988242D01*
X71294038Y-66985620D01*
X71288777Y-66982467D01*
X71283850Y-66978813D01*
X71279306Y-66974694D01*
X71275187Y-66970150D01*
X71271533Y-66965223D01*
X71268380Y-66959962D01*
X71265758Y-66954418D01*
X71263691Y-66948643D01*
X71262201Y-66942693D01*
X71261301Y-66936626D01*
X71261000Y-66930500D01*
X71261000Y-66230500D01*
X71261301Y-66224374D01*
X71262201Y-66218307D01*
X71263691Y-66212357D01*
X71265758Y-66206582D01*
X71268380Y-66201038D01*
X71271533Y-66195777D01*
X71275187Y-66190850D01*
X71279306Y-66186306D01*
X71283850Y-66182187D01*
X71288777Y-66178533D01*
X71294038Y-66175380D01*
X71299582Y-66172758D01*
X71305357Y-66170691D01*
X71311307Y-66169201D01*
X71317374Y-66168301D01*
X71323500Y-66168000D01*
X71448500Y-66168000D01*
X71454626Y-66168301D01*
G37*
G36*
X70954626Y-66168301D02*
G01*
X70960693Y-66169201D01*
X70966643Y-66170691D01*
X70972418Y-66172758D01*
X70977962Y-66175380D01*
X70983223Y-66178533D01*
X70988150Y-66182187D01*
X70992694Y-66186306D01*
X70996813Y-66190850D01*
X71000467Y-66195777D01*
X71003620Y-66201038D01*
X71006242Y-66206582D01*
X71008309Y-66212357D01*
X71009799Y-66218307D01*
X71010699Y-66224374D01*
X71011000Y-66230500D01*
X71011000Y-66930500D01*
X71010699Y-66936626D01*
X71009799Y-66942693D01*
X71008309Y-66948643D01*
X71006242Y-66954418D01*
X71003620Y-66959962D01*
X71000467Y-66965223D01*
X70996813Y-66970150D01*
X70992694Y-66974694D01*
X70988150Y-66978813D01*
X70983223Y-66982467D01*
X70977962Y-66985620D01*
X70972418Y-66988242D01*
X70966643Y-66990309D01*
X70960693Y-66991799D01*
X70954626Y-66992699D01*
X70948500Y-66993000D01*
X70823500Y-66993000D01*
X70817374Y-66992699D01*
X70811307Y-66991799D01*
X70805357Y-66990309D01*
X70799582Y-66988242D01*
X70794038Y-66985620D01*
X70788777Y-66982467D01*
X70783850Y-66978813D01*
X70779306Y-66974694D01*
X70775187Y-66970150D01*
X70771533Y-66965223D01*
X70768380Y-66959962D01*
X70765758Y-66954418D01*
X70763691Y-66948643D01*
X70762201Y-66942693D01*
X70761301Y-66936626D01*
X70761000Y-66930500D01*
X70761000Y-66230500D01*
X70761301Y-66224374D01*
X70762201Y-66218307D01*
X70763691Y-66212357D01*
X70765758Y-66206582D01*
X70768380Y-66201038D01*
X70771533Y-66195777D01*
X70775187Y-66190850D01*
X70779306Y-66186306D01*
X70783850Y-66182187D01*
X70788777Y-66178533D01*
X70794038Y-66175380D01*
X70799582Y-66172758D01*
X70805357Y-66170691D01*
X70811307Y-66169201D01*
X70817374Y-66168301D01*
X70823500Y-66168000D01*
X70948500Y-66168000D01*
X70954626Y-66168301D01*
G37*
G36*
X70554626Y-65768301D02*
G01*
X70560693Y-65769201D01*
X70566643Y-65770691D01*
X70572418Y-65772758D01*
X70577962Y-65775380D01*
X70583223Y-65778533D01*
X70588150Y-65782187D01*
X70592694Y-65786306D01*
X70596813Y-65790850D01*
X70600467Y-65795777D01*
X70603620Y-65801038D01*
X70606242Y-65806582D01*
X70608309Y-65812357D01*
X70609799Y-65818307D01*
X70610699Y-65824374D01*
X70611000Y-65830500D01*
X70611000Y-65955500D01*
X70610699Y-65961626D01*
X70609799Y-65967693D01*
X70608309Y-65973643D01*
X70606242Y-65979418D01*
X70603620Y-65984962D01*
X70600467Y-65990223D01*
X70596813Y-65995150D01*
X70592694Y-65999694D01*
X70588150Y-66003813D01*
X70583223Y-66007467D01*
X70577962Y-66010620D01*
X70572418Y-66013242D01*
X70566643Y-66015309D01*
X70560693Y-66016799D01*
X70554626Y-66017699D01*
X70548500Y-66018000D01*
X69848500Y-66018000D01*
X69842374Y-66017699D01*
X69836307Y-66016799D01*
X69830357Y-66015309D01*
X69824582Y-66013242D01*
X69819038Y-66010620D01*
X69813777Y-66007467D01*
X69808850Y-66003813D01*
X69804306Y-65999694D01*
X69800187Y-65995150D01*
X69796533Y-65990223D01*
X69793380Y-65984962D01*
X69790758Y-65979418D01*
X69788691Y-65973643D01*
X69787201Y-65967693D01*
X69786301Y-65961626D01*
X69786000Y-65955500D01*
X69786000Y-65830500D01*
X69786301Y-65824374D01*
X69787201Y-65818307D01*
X69788691Y-65812357D01*
X69790758Y-65806582D01*
X69793380Y-65801038D01*
X69796533Y-65795777D01*
X69800187Y-65790850D01*
X69804306Y-65786306D01*
X69808850Y-65782187D01*
X69813777Y-65778533D01*
X69819038Y-65775380D01*
X69824582Y-65772758D01*
X69830357Y-65770691D01*
X69836307Y-65769201D01*
X69842374Y-65768301D01*
X69848500Y-65768000D01*
X70548500Y-65768000D01*
X70554626Y-65768301D01*
G37*
G36*
X70554626Y-65268301D02*
G01*
X70560693Y-65269201D01*
X70566643Y-65270691D01*
X70572418Y-65272758D01*
X70577962Y-65275380D01*
X70583223Y-65278533D01*
X70588150Y-65282187D01*
X70592694Y-65286306D01*
X70596813Y-65290850D01*
X70600467Y-65295777D01*
X70603620Y-65301038D01*
X70606242Y-65306582D01*
X70608309Y-65312357D01*
X70609799Y-65318307D01*
X70610699Y-65324374D01*
X70611000Y-65330500D01*
X70611000Y-65455500D01*
X70610699Y-65461626D01*
X70609799Y-65467693D01*
X70608309Y-65473643D01*
X70606242Y-65479418D01*
X70603620Y-65484962D01*
X70600467Y-65490223D01*
X70596813Y-65495150D01*
X70592694Y-65499694D01*
X70588150Y-65503813D01*
X70583223Y-65507467D01*
X70577962Y-65510620D01*
X70572418Y-65513242D01*
X70566643Y-65515309D01*
X70560693Y-65516799D01*
X70554626Y-65517699D01*
X70548500Y-65518000D01*
X69848500Y-65518000D01*
X69842374Y-65517699D01*
X69836307Y-65516799D01*
X69830357Y-65515309D01*
X69824582Y-65513242D01*
X69819038Y-65510620D01*
X69813777Y-65507467D01*
X69808850Y-65503813D01*
X69804306Y-65499694D01*
X69800187Y-65495150D01*
X69796533Y-65490223D01*
X69793380Y-65484962D01*
X69790758Y-65479418D01*
X69788691Y-65473643D01*
X69787201Y-65467693D01*
X69786301Y-65461626D01*
X69786000Y-65455500D01*
X69786000Y-65330500D01*
X69786301Y-65324374D01*
X69787201Y-65318307D01*
X69788691Y-65312357D01*
X69790758Y-65306582D01*
X69793380Y-65301038D01*
X69796533Y-65295777D01*
X69800187Y-65290850D01*
X69804306Y-65286306D01*
X69808850Y-65282187D01*
X69813777Y-65278533D01*
X69819038Y-65275380D01*
X69824582Y-65272758D01*
X69830357Y-65270691D01*
X69836307Y-65269201D01*
X69842374Y-65268301D01*
X69848500Y-65268000D01*
X70548500Y-65268000D01*
X70554626Y-65268301D01*
G37*
G36*
X70554626Y-64768301D02*
G01*
X70560693Y-64769201D01*
X70566643Y-64770691D01*
X70572418Y-64772758D01*
X70577962Y-64775380D01*
X70583223Y-64778533D01*
X70588150Y-64782187D01*
X70592694Y-64786306D01*
X70596813Y-64790850D01*
X70600467Y-64795777D01*
X70603620Y-64801038D01*
X70606242Y-64806582D01*
X70608309Y-64812357D01*
X70609799Y-64818307D01*
X70610699Y-64824374D01*
X70611000Y-64830500D01*
X70611000Y-64955500D01*
X70610699Y-64961626D01*
X70609799Y-64967693D01*
X70608309Y-64973643D01*
X70606242Y-64979418D01*
X70603620Y-64984962D01*
X70600467Y-64990223D01*
X70596813Y-64995150D01*
X70592694Y-64999694D01*
X70588150Y-65003813D01*
X70583223Y-65007467D01*
X70577962Y-65010620D01*
X70572418Y-65013242D01*
X70566643Y-65015309D01*
X70560693Y-65016799D01*
X70554626Y-65017699D01*
X70548500Y-65018000D01*
X69848500Y-65018000D01*
X69842374Y-65017699D01*
X69836307Y-65016799D01*
X69830357Y-65015309D01*
X69824582Y-65013242D01*
X69819038Y-65010620D01*
X69813777Y-65007467D01*
X69808850Y-65003813D01*
X69804306Y-64999694D01*
X69800187Y-64995150D01*
X69796533Y-64990223D01*
X69793380Y-64984962D01*
X69790758Y-64979418D01*
X69788691Y-64973643D01*
X69787201Y-64967693D01*
X69786301Y-64961626D01*
X69786000Y-64955500D01*
X69786000Y-64830500D01*
X69786301Y-64824374D01*
X69787201Y-64818307D01*
X69788691Y-64812357D01*
X69790758Y-64806582D01*
X69793380Y-64801038D01*
X69796533Y-64795777D01*
X69800187Y-64790850D01*
X69804306Y-64786306D01*
X69808850Y-64782187D01*
X69813777Y-64778533D01*
X69819038Y-64775380D01*
X69824582Y-64772758D01*
X69830357Y-64770691D01*
X69836307Y-64769201D01*
X69842374Y-64768301D01*
X69848500Y-64768000D01*
X70548500Y-64768000D01*
X70554626Y-64768301D01*
G37*
G36*
X70554626Y-64268301D02*
G01*
X70560693Y-64269201D01*
X70566643Y-64270691D01*
X70572418Y-64272758D01*
X70577962Y-64275380D01*
X70583223Y-64278533D01*
X70588150Y-64282187D01*
X70592694Y-64286306D01*
X70596813Y-64290850D01*
X70600467Y-64295777D01*
X70603620Y-64301038D01*
X70606242Y-64306582D01*
X70608309Y-64312357D01*
X70609799Y-64318307D01*
X70610699Y-64324374D01*
X70611000Y-64330500D01*
X70611000Y-64455500D01*
X70610699Y-64461626D01*
X70609799Y-64467693D01*
X70608309Y-64473643D01*
X70606242Y-64479418D01*
X70603620Y-64484962D01*
X70600467Y-64490223D01*
X70596813Y-64495150D01*
X70592694Y-64499694D01*
X70588150Y-64503813D01*
X70583223Y-64507467D01*
X70577962Y-64510620D01*
X70572418Y-64513242D01*
X70566643Y-64515309D01*
X70560693Y-64516799D01*
X70554626Y-64517699D01*
X70548500Y-64518000D01*
X69848500Y-64518000D01*
X69842374Y-64517699D01*
X69836307Y-64516799D01*
X69830357Y-64515309D01*
X69824582Y-64513242D01*
X69819038Y-64510620D01*
X69813777Y-64507467D01*
X69808850Y-64503813D01*
X69804306Y-64499694D01*
X69800187Y-64495150D01*
X69796533Y-64490223D01*
X69793380Y-64484962D01*
X69790758Y-64479418D01*
X69788691Y-64473643D01*
X69787201Y-64467693D01*
X69786301Y-64461626D01*
X69786000Y-64455500D01*
X69786000Y-64330500D01*
X69786301Y-64324374D01*
X69787201Y-64318307D01*
X69788691Y-64312357D01*
X69790758Y-64306582D01*
X69793380Y-64301038D01*
X69796533Y-64295777D01*
X69800187Y-64290850D01*
X69804306Y-64286306D01*
X69808850Y-64282187D01*
X69813777Y-64278533D01*
X69819038Y-64275380D01*
X69824582Y-64272758D01*
X69830357Y-64270691D01*
X69836307Y-64269201D01*
X69842374Y-64268301D01*
X69848500Y-64268000D01*
X70548500Y-64268000D01*
X70554626Y-64268301D01*
G37*
G36*
X70554626Y-63768301D02*
G01*
X70560693Y-63769201D01*
X70566643Y-63770691D01*
X70572418Y-63772758D01*
X70577962Y-63775380D01*
X70583223Y-63778533D01*
X70588150Y-63782187D01*
X70592694Y-63786306D01*
X70596813Y-63790850D01*
X70600467Y-63795777D01*
X70603620Y-63801038D01*
X70606242Y-63806582D01*
X70608309Y-63812357D01*
X70609799Y-63818307D01*
X70610699Y-63824374D01*
X70611000Y-63830500D01*
X70611000Y-63955500D01*
X70610699Y-63961626D01*
X70609799Y-63967693D01*
X70608309Y-63973643D01*
X70606242Y-63979418D01*
X70603620Y-63984962D01*
X70600467Y-63990223D01*
X70596813Y-63995150D01*
X70592694Y-63999694D01*
X70588150Y-64003813D01*
X70583223Y-64007467D01*
X70577962Y-64010620D01*
X70572418Y-64013242D01*
X70566643Y-64015309D01*
X70560693Y-64016799D01*
X70554626Y-64017699D01*
X70548500Y-64018000D01*
X69848500Y-64018000D01*
X69842374Y-64017699D01*
X69836307Y-64016799D01*
X69830357Y-64015309D01*
X69824582Y-64013242D01*
X69819038Y-64010620D01*
X69813777Y-64007467D01*
X69808850Y-64003813D01*
X69804306Y-63999694D01*
X69800187Y-63995150D01*
X69796533Y-63990223D01*
X69793380Y-63984962D01*
X69790758Y-63979418D01*
X69788691Y-63973643D01*
X69787201Y-63967693D01*
X69786301Y-63961626D01*
X69786000Y-63955500D01*
X69786000Y-63830500D01*
X69786301Y-63824374D01*
X69787201Y-63818307D01*
X69788691Y-63812357D01*
X69790758Y-63806582D01*
X69793380Y-63801038D01*
X69796533Y-63795777D01*
X69800187Y-63790850D01*
X69804306Y-63786306D01*
X69808850Y-63782187D01*
X69813777Y-63778533D01*
X69819038Y-63775380D01*
X69824582Y-63772758D01*
X69830357Y-63770691D01*
X69836307Y-63769201D01*
X69842374Y-63768301D01*
X69848500Y-63768000D01*
X70548500Y-63768000D01*
X70554626Y-63768301D01*
G37*
G36*
X70554626Y-63268301D02*
G01*
X70560693Y-63269201D01*
X70566643Y-63270691D01*
X70572418Y-63272758D01*
X70577962Y-63275380D01*
X70583223Y-63278533D01*
X70588150Y-63282187D01*
X70592694Y-63286306D01*
X70596813Y-63290850D01*
X70600467Y-63295777D01*
X70603620Y-63301038D01*
X70606242Y-63306582D01*
X70608309Y-63312357D01*
X70609799Y-63318307D01*
X70610699Y-63324374D01*
X70611000Y-63330500D01*
X70611000Y-63455500D01*
X70610699Y-63461626D01*
X70609799Y-63467693D01*
X70608309Y-63473643D01*
X70606242Y-63479418D01*
X70603620Y-63484962D01*
X70600467Y-63490223D01*
X70596813Y-63495150D01*
X70592694Y-63499694D01*
X70588150Y-63503813D01*
X70583223Y-63507467D01*
X70577962Y-63510620D01*
X70572418Y-63513242D01*
X70566643Y-63515309D01*
X70560693Y-63516799D01*
X70554626Y-63517699D01*
X70548500Y-63518000D01*
X69848500Y-63518000D01*
X69842374Y-63517699D01*
X69836307Y-63516799D01*
X69830357Y-63515309D01*
X69824582Y-63513242D01*
X69819038Y-63510620D01*
X69813777Y-63507467D01*
X69808850Y-63503813D01*
X69804306Y-63499694D01*
X69800187Y-63495150D01*
X69796533Y-63490223D01*
X69793380Y-63484962D01*
X69790758Y-63479418D01*
X69788691Y-63473643D01*
X69787201Y-63467693D01*
X69786301Y-63461626D01*
X69786000Y-63455500D01*
X69786000Y-63330500D01*
X69786301Y-63324374D01*
X69787201Y-63318307D01*
X69788691Y-63312357D01*
X69790758Y-63306582D01*
X69793380Y-63301038D01*
X69796533Y-63295777D01*
X69800187Y-63290850D01*
X69804306Y-63286306D01*
X69808850Y-63282187D01*
X69813777Y-63278533D01*
X69819038Y-63275380D01*
X69824582Y-63272758D01*
X69830357Y-63270691D01*
X69836307Y-63269201D01*
X69842374Y-63268301D01*
X69848500Y-63268000D01*
X70548500Y-63268000D01*
X70554626Y-63268301D01*
G37*
G36*
X70954626Y-62293301D02*
G01*
X70960693Y-62294201D01*
X70966643Y-62295691D01*
X70972418Y-62297758D01*
X70977962Y-62300380D01*
X70983223Y-62303533D01*
X70988150Y-62307187D01*
X70992694Y-62311306D01*
X70996813Y-62315850D01*
X71000467Y-62320777D01*
X71003620Y-62326038D01*
X71006242Y-62331582D01*
X71008309Y-62337357D01*
X71009799Y-62343307D01*
X71010699Y-62349374D01*
X71011000Y-62355500D01*
X71011000Y-63055500D01*
X71010699Y-63061626D01*
X71009799Y-63067693D01*
X71008309Y-63073643D01*
X71006242Y-63079418D01*
X71003620Y-63084962D01*
X71000467Y-63090223D01*
X70996813Y-63095150D01*
X70992694Y-63099694D01*
X70988150Y-63103813D01*
X70983223Y-63107467D01*
X70977962Y-63110620D01*
X70972418Y-63113242D01*
X70966643Y-63115309D01*
X70960693Y-63116799D01*
X70954626Y-63117699D01*
X70948500Y-63118000D01*
X70823500Y-63118000D01*
X70817374Y-63117699D01*
X70811307Y-63116799D01*
X70805357Y-63115309D01*
X70799582Y-63113242D01*
X70794038Y-63110620D01*
X70788777Y-63107467D01*
X70783850Y-63103813D01*
X70779306Y-63099694D01*
X70775187Y-63095150D01*
X70771533Y-63090223D01*
X70768380Y-63084962D01*
X70765758Y-63079418D01*
X70763691Y-63073643D01*
X70762201Y-63067693D01*
X70761301Y-63061626D01*
X70761000Y-63055500D01*
X70761000Y-62355500D01*
X70761301Y-62349374D01*
X70762201Y-62343307D01*
X70763691Y-62337357D01*
X70765758Y-62331582D01*
X70768380Y-62326038D01*
X70771533Y-62320777D01*
X70775187Y-62315850D01*
X70779306Y-62311306D01*
X70783850Y-62307187D01*
X70788777Y-62303533D01*
X70794038Y-62300380D01*
X70799582Y-62297758D01*
X70805357Y-62295691D01*
X70811307Y-62294201D01*
X70817374Y-62293301D01*
X70823500Y-62293000D01*
X70948500Y-62293000D01*
X70954626Y-62293301D01*
G37*
G36*
X71454626Y-62293301D02*
G01*
X71460693Y-62294201D01*
X71466643Y-62295691D01*
X71472418Y-62297758D01*
X71477962Y-62300380D01*
X71483223Y-62303533D01*
X71488150Y-62307187D01*
X71492694Y-62311306D01*
X71496813Y-62315850D01*
X71500467Y-62320777D01*
X71503620Y-62326038D01*
X71506242Y-62331582D01*
X71508309Y-62337357D01*
X71509799Y-62343307D01*
X71510699Y-62349374D01*
X71511000Y-62355500D01*
X71511000Y-63055500D01*
X71510699Y-63061626D01*
X71509799Y-63067693D01*
X71508309Y-63073643D01*
X71506242Y-63079418D01*
X71503620Y-63084962D01*
X71500467Y-63090223D01*
X71496813Y-63095150D01*
X71492694Y-63099694D01*
X71488150Y-63103813D01*
X71483223Y-63107467D01*
X71477962Y-63110620D01*
X71472418Y-63113242D01*
X71466643Y-63115309D01*
X71460693Y-63116799D01*
X71454626Y-63117699D01*
X71448500Y-63118000D01*
X71323500Y-63118000D01*
X71317374Y-63117699D01*
X71311307Y-63116799D01*
X71305357Y-63115309D01*
X71299582Y-63113242D01*
X71294038Y-63110620D01*
X71288777Y-63107467D01*
X71283850Y-63103813D01*
X71279306Y-63099694D01*
X71275187Y-63095150D01*
X71271533Y-63090223D01*
X71268380Y-63084962D01*
X71265758Y-63079418D01*
X71263691Y-63073643D01*
X71262201Y-63067693D01*
X71261301Y-63061626D01*
X71261000Y-63055500D01*
X71261000Y-62355500D01*
X71261301Y-62349374D01*
X71262201Y-62343307D01*
X71263691Y-62337357D01*
X71265758Y-62331582D01*
X71268380Y-62326038D01*
X71271533Y-62320777D01*
X71275187Y-62315850D01*
X71279306Y-62311306D01*
X71283850Y-62307187D01*
X71288777Y-62303533D01*
X71294038Y-62300380D01*
X71299582Y-62297758D01*
X71305357Y-62295691D01*
X71311307Y-62294201D01*
X71317374Y-62293301D01*
X71323500Y-62293000D01*
X71448500Y-62293000D01*
X71454626Y-62293301D01*
G37*
G36*
X71954626Y-62293301D02*
G01*
X71960693Y-62294201D01*
X71966643Y-62295691D01*
X71972418Y-62297758D01*
X71977962Y-62300380D01*
X71983223Y-62303533D01*
X71988150Y-62307187D01*
X71992694Y-62311306D01*
X71996813Y-62315850D01*
X72000467Y-62320777D01*
X72003620Y-62326038D01*
X72006242Y-62331582D01*
X72008309Y-62337357D01*
X72009799Y-62343307D01*
X72010699Y-62349374D01*
X72011000Y-62355500D01*
X72011000Y-63055500D01*
X72010699Y-63061626D01*
X72009799Y-63067693D01*
X72008309Y-63073643D01*
X72006242Y-63079418D01*
X72003620Y-63084962D01*
X72000467Y-63090223D01*
X71996813Y-63095150D01*
X71992694Y-63099694D01*
X71988150Y-63103813D01*
X71983223Y-63107467D01*
X71977962Y-63110620D01*
X71972418Y-63113242D01*
X71966643Y-63115309D01*
X71960693Y-63116799D01*
X71954626Y-63117699D01*
X71948500Y-63118000D01*
X71823500Y-63118000D01*
X71817374Y-63117699D01*
X71811307Y-63116799D01*
X71805357Y-63115309D01*
X71799582Y-63113242D01*
X71794038Y-63110620D01*
X71788777Y-63107467D01*
X71783850Y-63103813D01*
X71779306Y-63099694D01*
X71775187Y-63095150D01*
X71771533Y-63090223D01*
X71768380Y-63084962D01*
X71765758Y-63079418D01*
X71763691Y-63073643D01*
X71762201Y-63067693D01*
X71761301Y-63061626D01*
X71761000Y-63055500D01*
X71761000Y-62355500D01*
X71761301Y-62349374D01*
X71762201Y-62343307D01*
X71763691Y-62337357D01*
X71765758Y-62331582D01*
X71768380Y-62326038D01*
X71771533Y-62320777D01*
X71775187Y-62315850D01*
X71779306Y-62311306D01*
X71783850Y-62307187D01*
X71788777Y-62303533D01*
X71794038Y-62300380D01*
X71799582Y-62297758D01*
X71805357Y-62295691D01*
X71811307Y-62294201D01*
X71817374Y-62293301D01*
X71823500Y-62293000D01*
X71948500Y-62293000D01*
X71954626Y-62293301D01*
G37*
G36*
X72454626Y-62293301D02*
G01*
X72460693Y-62294201D01*
X72466643Y-62295691D01*
X72472418Y-62297758D01*
X72477962Y-62300380D01*
X72483223Y-62303533D01*
X72488150Y-62307187D01*
X72492694Y-62311306D01*
X72496813Y-62315850D01*
X72500467Y-62320777D01*
X72503620Y-62326038D01*
X72506242Y-62331582D01*
X72508309Y-62337357D01*
X72509799Y-62343307D01*
X72510699Y-62349374D01*
X72511000Y-62355500D01*
X72511000Y-63055500D01*
X72510699Y-63061626D01*
X72509799Y-63067693D01*
X72508309Y-63073643D01*
X72506242Y-63079418D01*
X72503620Y-63084962D01*
X72500467Y-63090223D01*
X72496813Y-63095150D01*
X72492694Y-63099694D01*
X72488150Y-63103813D01*
X72483223Y-63107467D01*
X72477962Y-63110620D01*
X72472418Y-63113242D01*
X72466643Y-63115309D01*
X72460693Y-63116799D01*
X72454626Y-63117699D01*
X72448500Y-63118000D01*
X72323500Y-63118000D01*
X72317374Y-63117699D01*
X72311307Y-63116799D01*
X72305357Y-63115309D01*
X72299582Y-63113242D01*
X72294038Y-63110620D01*
X72288777Y-63107467D01*
X72283850Y-63103813D01*
X72279306Y-63099694D01*
X72275187Y-63095150D01*
X72271533Y-63090223D01*
X72268380Y-63084962D01*
X72265758Y-63079418D01*
X72263691Y-63073643D01*
X72262201Y-63067693D01*
X72261301Y-63061626D01*
X72261000Y-63055500D01*
X72261000Y-62355500D01*
X72261301Y-62349374D01*
X72262201Y-62343307D01*
X72263691Y-62337357D01*
X72265758Y-62331582D01*
X72268380Y-62326038D01*
X72271533Y-62320777D01*
X72275187Y-62315850D01*
X72279306Y-62311306D01*
X72283850Y-62307187D01*
X72288777Y-62303533D01*
X72294038Y-62300380D01*
X72299582Y-62297758D01*
X72305357Y-62295691D01*
X72311307Y-62294201D01*
X72317374Y-62293301D01*
X72323500Y-62293000D01*
X72448500Y-62293000D01*
X72454626Y-62293301D01*
G37*
G36*
X72954626Y-62293301D02*
G01*
X72960693Y-62294201D01*
X72966643Y-62295691D01*
X72972418Y-62297758D01*
X72977962Y-62300380D01*
X72983223Y-62303533D01*
X72988150Y-62307187D01*
X72992694Y-62311306D01*
X72996813Y-62315850D01*
X73000467Y-62320777D01*
X73003620Y-62326038D01*
X73006242Y-62331582D01*
X73008309Y-62337357D01*
X73009799Y-62343307D01*
X73010699Y-62349374D01*
X73011000Y-62355500D01*
X73011000Y-63055500D01*
X73010699Y-63061626D01*
X73009799Y-63067693D01*
X73008309Y-63073643D01*
X73006242Y-63079418D01*
X73003620Y-63084962D01*
X73000467Y-63090223D01*
X72996813Y-63095150D01*
X72992694Y-63099694D01*
X72988150Y-63103813D01*
X72983223Y-63107467D01*
X72977962Y-63110620D01*
X72972418Y-63113242D01*
X72966643Y-63115309D01*
X72960693Y-63116799D01*
X72954626Y-63117699D01*
X72948500Y-63118000D01*
X72823500Y-63118000D01*
X72817374Y-63117699D01*
X72811307Y-63116799D01*
X72805357Y-63115309D01*
X72799582Y-63113242D01*
X72794038Y-63110620D01*
X72788777Y-63107467D01*
X72783850Y-63103813D01*
X72779306Y-63099694D01*
X72775187Y-63095150D01*
X72771533Y-63090223D01*
X72768380Y-63084962D01*
X72765758Y-63079418D01*
X72763691Y-63073643D01*
X72762201Y-63067693D01*
X72761301Y-63061626D01*
X72761000Y-63055500D01*
X72761000Y-62355500D01*
X72761301Y-62349374D01*
X72762201Y-62343307D01*
X72763691Y-62337357D01*
X72765758Y-62331582D01*
X72768380Y-62326038D01*
X72771533Y-62320777D01*
X72775187Y-62315850D01*
X72779306Y-62311306D01*
X72783850Y-62307187D01*
X72788777Y-62303533D01*
X72794038Y-62300380D01*
X72799582Y-62297758D01*
X72805357Y-62295691D01*
X72811307Y-62294201D01*
X72817374Y-62293301D01*
X72823500Y-62293000D01*
X72948500Y-62293000D01*
X72954626Y-62293301D01*
G37*
G36*
X73454626Y-62293301D02*
G01*
X73460693Y-62294201D01*
X73466643Y-62295691D01*
X73472418Y-62297758D01*
X73477962Y-62300380D01*
X73483223Y-62303533D01*
X73488150Y-62307187D01*
X73492694Y-62311306D01*
X73496813Y-62315850D01*
X73500467Y-62320777D01*
X73503620Y-62326038D01*
X73506242Y-62331582D01*
X73508309Y-62337357D01*
X73509799Y-62343307D01*
X73510699Y-62349374D01*
X73511000Y-62355500D01*
X73511000Y-63055500D01*
X73510699Y-63061626D01*
X73509799Y-63067693D01*
X73508309Y-63073643D01*
X73506242Y-63079418D01*
X73503620Y-63084962D01*
X73500467Y-63090223D01*
X73496813Y-63095150D01*
X73492694Y-63099694D01*
X73488150Y-63103813D01*
X73483223Y-63107467D01*
X73477962Y-63110620D01*
X73472418Y-63113242D01*
X73466643Y-63115309D01*
X73460693Y-63116799D01*
X73454626Y-63117699D01*
X73448500Y-63118000D01*
X73323500Y-63118000D01*
X73317374Y-63117699D01*
X73311307Y-63116799D01*
X73305357Y-63115309D01*
X73299582Y-63113242D01*
X73294038Y-63110620D01*
X73288777Y-63107467D01*
X73283850Y-63103813D01*
X73279306Y-63099694D01*
X73275187Y-63095150D01*
X73271533Y-63090223D01*
X73268380Y-63084962D01*
X73265758Y-63079418D01*
X73263691Y-63073643D01*
X73262201Y-63067693D01*
X73261301Y-63061626D01*
X73261000Y-63055500D01*
X73261000Y-62355500D01*
X73261301Y-62349374D01*
X73262201Y-62343307D01*
X73263691Y-62337357D01*
X73265758Y-62331582D01*
X73268380Y-62326038D01*
X73271533Y-62320777D01*
X73275187Y-62315850D01*
X73279306Y-62311306D01*
X73283850Y-62307187D01*
X73288777Y-62303533D01*
X73294038Y-62300380D01*
X73299582Y-62297758D01*
X73305357Y-62295691D01*
X73311307Y-62294201D01*
X73317374Y-62293301D01*
X73323500Y-62293000D01*
X73448500Y-62293000D01*
X73454626Y-62293301D01*
G37*
G36*
X74429626Y-63268301D02*
G01*
X74435693Y-63269201D01*
X74441643Y-63270691D01*
X74447418Y-63272758D01*
X74452962Y-63275380D01*
X74458223Y-63278533D01*
X74463150Y-63282187D01*
X74467694Y-63286306D01*
X74471813Y-63290850D01*
X74475467Y-63295777D01*
X74478620Y-63301038D01*
X74481242Y-63306582D01*
X74483309Y-63312357D01*
X74484799Y-63318307D01*
X74485699Y-63324374D01*
X74486000Y-63330500D01*
X74486000Y-63455500D01*
X74485699Y-63461626D01*
X74484799Y-63467693D01*
X74483309Y-63473643D01*
X74481242Y-63479418D01*
X74478620Y-63484962D01*
X74475467Y-63490223D01*
X74471813Y-63495150D01*
X74467694Y-63499694D01*
X74463150Y-63503813D01*
X74458223Y-63507467D01*
X74452962Y-63510620D01*
X74447418Y-63513242D01*
X74441643Y-63515309D01*
X74435693Y-63516799D01*
X74429626Y-63517699D01*
X74423500Y-63518000D01*
X73723500Y-63518000D01*
X73717374Y-63517699D01*
X73711307Y-63516799D01*
X73705357Y-63515309D01*
X73699582Y-63513242D01*
X73694038Y-63510620D01*
X73688777Y-63507467D01*
X73683850Y-63503813D01*
X73679306Y-63499694D01*
X73675187Y-63495150D01*
X73671533Y-63490223D01*
X73668380Y-63484962D01*
X73665758Y-63479418D01*
X73663691Y-63473643D01*
X73662201Y-63467693D01*
X73661301Y-63461626D01*
X73661000Y-63455500D01*
X73661000Y-63330500D01*
X73661301Y-63324374D01*
X73662201Y-63318307D01*
X73663691Y-63312357D01*
X73665758Y-63306582D01*
X73668380Y-63301038D01*
X73671533Y-63295777D01*
X73675187Y-63290850D01*
X73679306Y-63286306D01*
X73683850Y-63282187D01*
X73688777Y-63278533D01*
X73694038Y-63275380D01*
X73699582Y-63272758D01*
X73705357Y-63270691D01*
X73711307Y-63269201D01*
X73717374Y-63268301D01*
X73723500Y-63268000D01*
X74423500Y-63268000D01*
X74429626Y-63268301D01*
G37*
G36*
X74429626Y-63768301D02*
G01*
X74435693Y-63769201D01*
X74441643Y-63770691D01*
X74447418Y-63772758D01*
X74452962Y-63775380D01*
X74458223Y-63778533D01*
X74463150Y-63782187D01*
X74467694Y-63786306D01*
X74471813Y-63790850D01*
X74475467Y-63795777D01*
X74478620Y-63801038D01*
X74481242Y-63806582D01*
X74483309Y-63812357D01*
X74484799Y-63818307D01*
X74485699Y-63824374D01*
X74486000Y-63830500D01*
X74486000Y-63955500D01*
X74485699Y-63961626D01*
X74484799Y-63967693D01*
X74483309Y-63973643D01*
X74481242Y-63979418D01*
X74478620Y-63984962D01*
X74475467Y-63990223D01*
X74471813Y-63995150D01*
X74467694Y-63999694D01*
X74463150Y-64003813D01*
X74458223Y-64007467D01*
X74452962Y-64010620D01*
X74447418Y-64013242D01*
X74441643Y-64015309D01*
X74435693Y-64016799D01*
X74429626Y-64017699D01*
X74423500Y-64018000D01*
X73723500Y-64018000D01*
X73717374Y-64017699D01*
X73711307Y-64016799D01*
X73705357Y-64015309D01*
X73699582Y-64013242D01*
X73694038Y-64010620D01*
X73688777Y-64007467D01*
X73683850Y-64003813D01*
X73679306Y-63999694D01*
X73675187Y-63995150D01*
X73671533Y-63990223D01*
X73668380Y-63984962D01*
X73665758Y-63979418D01*
X73663691Y-63973643D01*
X73662201Y-63967693D01*
X73661301Y-63961626D01*
X73661000Y-63955500D01*
X73661000Y-63830500D01*
X73661301Y-63824374D01*
X73662201Y-63818307D01*
X73663691Y-63812357D01*
X73665758Y-63806582D01*
X73668380Y-63801038D01*
X73671533Y-63795777D01*
X73675187Y-63790850D01*
X73679306Y-63786306D01*
X73683850Y-63782187D01*
X73688777Y-63778533D01*
X73694038Y-63775380D01*
X73699582Y-63772758D01*
X73705357Y-63770691D01*
X73711307Y-63769201D01*
X73717374Y-63768301D01*
X73723500Y-63768000D01*
X74423500Y-63768000D01*
X74429626Y-63768301D01*
G37*
G36*
X74429626Y-64268301D02*
G01*
X74435693Y-64269201D01*
X74441643Y-64270691D01*
X74447418Y-64272758D01*
X74452962Y-64275380D01*
X74458223Y-64278533D01*
X74463150Y-64282187D01*
X74467694Y-64286306D01*
X74471813Y-64290850D01*
X74475467Y-64295777D01*
X74478620Y-64301038D01*
X74481242Y-64306582D01*
X74483309Y-64312357D01*
X74484799Y-64318307D01*
X74485699Y-64324374D01*
X74486000Y-64330500D01*
X74486000Y-64455500D01*
X74485699Y-64461626D01*
X74484799Y-64467693D01*
X74483309Y-64473643D01*
X74481242Y-64479418D01*
X74478620Y-64484962D01*
X74475467Y-64490223D01*
X74471813Y-64495150D01*
X74467694Y-64499694D01*
X74463150Y-64503813D01*
X74458223Y-64507467D01*
X74452962Y-64510620D01*
X74447418Y-64513242D01*
X74441643Y-64515309D01*
X74435693Y-64516799D01*
X74429626Y-64517699D01*
X74423500Y-64518000D01*
X73723500Y-64518000D01*
X73717374Y-64517699D01*
X73711307Y-64516799D01*
X73705357Y-64515309D01*
X73699582Y-64513242D01*
X73694038Y-64510620D01*
X73688777Y-64507467D01*
X73683850Y-64503813D01*
X73679306Y-64499694D01*
X73675187Y-64495150D01*
X73671533Y-64490223D01*
X73668380Y-64484962D01*
X73665758Y-64479418D01*
X73663691Y-64473643D01*
X73662201Y-64467693D01*
X73661301Y-64461626D01*
X73661000Y-64455500D01*
X73661000Y-64330500D01*
X73661301Y-64324374D01*
X73662201Y-64318307D01*
X73663691Y-64312357D01*
X73665758Y-64306582D01*
X73668380Y-64301038D01*
X73671533Y-64295777D01*
X73675187Y-64290850D01*
X73679306Y-64286306D01*
X73683850Y-64282187D01*
X73688777Y-64278533D01*
X73694038Y-64275380D01*
X73699582Y-64272758D01*
X73705357Y-64270691D01*
X73711307Y-64269201D01*
X73717374Y-64268301D01*
X73723500Y-64268000D01*
X74423500Y-64268000D01*
X74429626Y-64268301D01*
G37*
G36*
X74429626Y-64768301D02*
G01*
X74435693Y-64769201D01*
X74441643Y-64770691D01*
X74447418Y-64772758D01*
X74452962Y-64775380D01*
X74458223Y-64778533D01*
X74463150Y-64782187D01*
X74467694Y-64786306D01*
X74471813Y-64790850D01*
X74475467Y-64795777D01*
X74478620Y-64801038D01*
X74481242Y-64806582D01*
X74483309Y-64812357D01*
X74484799Y-64818307D01*
X74485699Y-64824374D01*
X74486000Y-64830500D01*
X74486000Y-64955500D01*
X74485699Y-64961626D01*
X74484799Y-64967693D01*
X74483309Y-64973643D01*
X74481242Y-64979418D01*
X74478620Y-64984962D01*
X74475467Y-64990223D01*
X74471813Y-64995150D01*
X74467694Y-64999694D01*
X74463150Y-65003813D01*
X74458223Y-65007467D01*
X74452962Y-65010620D01*
X74447418Y-65013242D01*
X74441643Y-65015309D01*
X74435693Y-65016799D01*
X74429626Y-65017699D01*
X74423500Y-65018000D01*
X73723500Y-65018000D01*
X73717374Y-65017699D01*
X73711307Y-65016799D01*
X73705357Y-65015309D01*
X73699582Y-65013242D01*
X73694038Y-65010620D01*
X73688777Y-65007467D01*
X73683850Y-65003813D01*
X73679306Y-64999694D01*
X73675187Y-64995150D01*
X73671533Y-64990223D01*
X73668380Y-64984962D01*
X73665758Y-64979418D01*
X73663691Y-64973643D01*
X73662201Y-64967693D01*
X73661301Y-64961626D01*
X73661000Y-64955500D01*
X73661000Y-64830500D01*
X73661301Y-64824374D01*
X73662201Y-64818307D01*
X73663691Y-64812357D01*
X73665758Y-64806582D01*
X73668380Y-64801038D01*
X73671533Y-64795777D01*
X73675187Y-64790850D01*
X73679306Y-64786306D01*
X73683850Y-64782187D01*
X73688777Y-64778533D01*
X73694038Y-64775380D01*
X73699582Y-64772758D01*
X73705357Y-64770691D01*
X73711307Y-64769201D01*
X73717374Y-64768301D01*
X73723500Y-64768000D01*
X74423500Y-64768000D01*
X74429626Y-64768301D01*
G37*
G36*
X74429626Y-65268301D02*
G01*
X74435693Y-65269201D01*
X74441643Y-65270691D01*
X74447418Y-65272758D01*
X74452962Y-65275380D01*
X74458223Y-65278533D01*
X74463150Y-65282187D01*
X74467694Y-65286306D01*
X74471813Y-65290850D01*
X74475467Y-65295777D01*
X74478620Y-65301038D01*
X74481242Y-65306582D01*
X74483309Y-65312357D01*
X74484799Y-65318307D01*
X74485699Y-65324374D01*
X74486000Y-65330500D01*
X74486000Y-65455500D01*
X74485699Y-65461626D01*
X74484799Y-65467693D01*
X74483309Y-65473643D01*
X74481242Y-65479418D01*
X74478620Y-65484962D01*
X74475467Y-65490223D01*
X74471813Y-65495150D01*
X74467694Y-65499694D01*
X74463150Y-65503813D01*
X74458223Y-65507467D01*
X74452962Y-65510620D01*
X74447418Y-65513242D01*
X74441643Y-65515309D01*
X74435693Y-65516799D01*
X74429626Y-65517699D01*
X74423500Y-65518000D01*
X73723500Y-65518000D01*
X73717374Y-65517699D01*
X73711307Y-65516799D01*
X73705357Y-65515309D01*
X73699582Y-65513242D01*
X73694038Y-65510620D01*
X73688777Y-65507467D01*
X73683850Y-65503813D01*
X73679306Y-65499694D01*
X73675187Y-65495150D01*
X73671533Y-65490223D01*
X73668380Y-65484962D01*
X73665758Y-65479418D01*
X73663691Y-65473643D01*
X73662201Y-65467693D01*
X73661301Y-65461626D01*
X73661000Y-65455500D01*
X73661000Y-65330500D01*
X73661301Y-65324374D01*
X73662201Y-65318307D01*
X73663691Y-65312357D01*
X73665758Y-65306582D01*
X73668380Y-65301038D01*
X73671533Y-65295777D01*
X73675187Y-65290850D01*
X73679306Y-65286306D01*
X73683850Y-65282187D01*
X73688777Y-65278533D01*
X73694038Y-65275380D01*
X73699582Y-65272758D01*
X73705357Y-65270691D01*
X73711307Y-65269201D01*
X73717374Y-65268301D01*
X73723500Y-65268000D01*
X74423500Y-65268000D01*
X74429626Y-65268301D01*
G37*
G36*
X74429626Y-65768301D02*
G01*
X74435693Y-65769201D01*
X74441643Y-65770691D01*
X74447418Y-65772758D01*
X74452962Y-65775380D01*
X74458223Y-65778533D01*
X74463150Y-65782187D01*
X74467694Y-65786306D01*
X74471813Y-65790850D01*
X74475467Y-65795777D01*
X74478620Y-65801038D01*
X74481242Y-65806582D01*
X74483309Y-65812357D01*
X74484799Y-65818307D01*
X74485699Y-65824374D01*
X74486000Y-65830500D01*
X74486000Y-65955500D01*
X74485699Y-65961626D01*
X74484799Y-65967693D01*
X74483309Y-65973643D01*
X74481242Y-65979418D01*
X74478620Y-65984962D01*
X74475467Y-65990223D01*
X74471813Y-65995150D01*
X74467694Y-65999694D01*
X74463150Y-66003813D01*
X74458223Y-66007467D01*
X74452962Y-66010620D01*
X74447418Y-66013242D01*
X74441643Y-66015309D01*
X74435693Y-66016799D01*
X74429626Y-66017699D01*
X74423500Y-66018000D01*
X73723500Y-66018000D01*
X73717374Y-66017699D01*
X73711307Y-66016799D01*
X73705357Y-66015309D01*
X73699582Y-66013242D01*
X73694038Y-66010620D01*
X73688777Y-66007467D01*
X73683850Y-66003813D01*
X73679306Y-65999694D01*
X73675187Y-65995150D01*
X73671533Y-65990223D01*
X73668380Y-65984962D01*
X73665758Y-65979418D01*
X73663691Y-65973643D01*
X73662201Y-65967693D01*
X73661301Y-65961626D01*
X73661000Y-65955500D01*
X73661000Y-65830500D01*
X73661301Y-65824374D01*
X73662201Y-65818307D01*
X73663691Y-65812357D01*
X73665758Y-65806582D01*
X73668380Y-65801038D01*
X73671533Y-65795777D01*
X73675187Y-65790850D01*
X73679306Y-65786306D01*
X73683850Y-65782187D01*
X73688777Y-65778533D01*
X73694038Y-65775380D01*
X73699582Y-65772758D01*
X73705357Y-65770691D01*
X73711307Y-65769201D01*
X73717374Y-65768301D01*
X73723500Y-65768000D01*
X74423500Y-65768000D01*
X74429626Y-65768301D01*
G37*
G36*
X76079779Y-60803144D02*
G01*
X76102834Y-60806563D01*
X76125443Y-60812227D01*
X76147387Y-60820079D01*
X76168457Y-60830044D01*
X76188448Y-60842026D01*
X76207168Y-60855910D01*
X76224438Y-60871562D01*
X76240090Y-60888832D01*
X76253974Y-60907552D01*
X76265956Y-60927543D01*
X76275921Y-60948613D01*
X76283773Y-60970557D01*
X76289437Y-60993166D01*
X76292856Y-61016221D01*
X76294000Y-61039500D01*
X76294000Y-61614500D01*
X76292856Y-61637779D01*
X76289437Y-61660834D01*
X76283773Y-61683443D01*
X76275921Y-61705387D01*
X76265956Y-61726457D01*
X76253974Y-61746448D01*
X76240090Y-61765168D01*
X76224438Y-61782438D01*
X76207168Y-61798090D01*
X76188448Y-61811974D01*
X76168457Y-61823956D01*
X76147387Y-61833921D01*
X76125443Y-61841773D01*
X76102834Y-61847437D01*
X76079779Y-61850856D01*
X76056500Y-61852000D01*
X75581500Y-61852000D01*
X75558221Y-61850856D01*
X75535166Y-61847437D01*
X75512557Y-61841773D01*
X75490613Y-61833921D01*
X75469543Y-61823956D01*
X75449552Y-61811974D01*
X75430832Y-61798090D01*
X75413562Y-61782438D01*
X75397910Y-61765168D01*
X75384026Y-61746448D01*
X75372044Y-61726457D01*
X75362079Y-61705387D01*
X75354227Y-61683443D01*
X75348563Y-61660834D01*
X75345144Y-61637779D01*
X75344000Y-61614500D01*
X75344000Y-61039500D01*
X75345144Y-61016221D01*
X75348563Y-60993166D01*
X75354227Y-60970557D01*
X75362079Y-60948613D01*
X75372044Y-60927543D01*
X75384026Y-60907552D01*
X75397910Y-60888832D01*
X75413562Y-60871562D01*
X75430832Y-60855910D01*
X75449552Y-60842026D01*
X75469543Y-60830044D01*
X75490613Y-60820079D01*
X75512557Y-60812227D01*
X75535166Y-60806563D01*
X75558221Y-60803144D01*
X75581500Y-60802000D01*
X76056500Y-60802000D01*
X76079779Y-60803144D01*
G37*
G36*
X76079779Y-59053144D02*
G01*
X76102834Y-59056563D01*
X76125443Y-59062227D01*
X76147387Y-59070079D01*
X76168457Y-59080044D01*
X76188448Y-59092026D01*
X76207168Y-59105910D01*
X76224438Y-59121562D01*
X76240090Y-59138832D01*
X76253974Y-59157552D01*
X76265956Y-59177543D01*
X76275921Y-59198613D01*
X76283773Y-59220557D01*
X76289437Y-59243166D01*
X76292856Y-59266221D01*
X76294000Y-59289500D01*
X76294000Y-59864500D01*
X76292856Y-59887779D01*
X76289437Y-59910834D01*
X76283773Y-59933443D01*
X76275921Y-59955387D01*
X76265956Y-59976457D01*
X76253974Y-59996448D01*
X76240090Y-60015168D01*
X76224438Y-60032438D01*
X76207168Y-60048090D01*
X76188448Y-60061974D01*
X76168457Y-60073956D01*
X76147387Y-60083921D01*
X76125443Y-60091773D01*
X76102834Y-60097437D01*
X76079779Y-60100856D01*
X76056500Y-60102000D01*
X75581500Y-60102000D01*
X75558221Y-60100856D01*
X75535166Y-60097437D01*
X75512557Y-60091773D01*
X75490613Y-60083921D01*
X75469543Y-60073956D01*
X75449552Y-60061974D01*
X75430832Y-60048090D01*
X75413562Y-60032438D01*
X75397910Y-60015168D01*
X75384026Y-59996448D01*
X75372044Y-59976457D01*
X75362079Y-59955387D01*
X75354227Y-59933443D01*
X75348563Y-59910834D01*
X75345144Y-59887779D01*
X75344000Y-59864500D01*
X75344000Y-59289500D01*
X75345144Y-59266221D01*
X75348563Y-59243166D01*
X75354227Y-59220557D01*
X75362079Y-59198613D01*
X75372044Y-59177543D01*
X75384026Y-59157552D01*
X75397910Y-59138832D01*
X75413562Y-59121562D01*
X75430832Y-59105910D01*
X75449552Y-59092026D01*
X75469543Y-59080044D01*
X75490613Y-59070079D01*
X75512557Y-59062227D01*
X75535166Y-59056563D01*
X75558221Y-59053144D01*
X75581500Y-59052000D01*
X76056500Y-59052000D01*
X76079779Y-59053144D01*
G37*
G36*
X77603779Y-60803144D02*
G01*
X77626834Y-60806563D01*
X77649443Y-60812227D01*
X77671387Y-60820079D01*
X77692457Y-60830044D01*
X77712448Y-60842026D01*
X77731168Y-60855910D01*
X77748438Y-60871562D01*
X77764090Y-60888832D01*
X77777974Y-60907552D01*
X77789956Y-60927543D01*
X77799921Y-60948613D01*
X77807773Y-60970557D01*
X77813437Y-60993166D01*
X77816856Y-61016221D01*
X77818000Y-61039500D01*
X77818000Y-61614500D01*
X77816856Y-61637779D01*
X77813437Y-61660834D01*
X77807773Y-61683443D01*
X77799921Y-61705387D01*
X77789956Y-61726457D01*
X77777974Y-61746448D01*
X77764090Y-61765168D01*
X77748438Y-61782438D01*
X77731168Y-61798090D01*
X77712448Y-61811974D01*
X77692457Y-61823956D01*
X77671387Y-61833921D01*
X77649443Y-61841773D01*
X77626834Y-61847437D01*
X77603779Y-61850856D01*
X77580500Y-61852000D01*
X77105500Y-61852000D01*
X77082221Y-61850856D01*
X77059166Y-61847437D01*
X77036557Y-61841773D01*
X77014613Y-61833921D01*
X76993543Y-61823956D01*
X76973552Y-61811974D01*
X76954832Y-61798090D01*
X76937562Y-61782438D01*
X76921910Y-61765168D01*
X76908026Y-61746448D01*
X76896044Y-61726457D01*
X76886079Y-61705387D01*
X76878227Y-61683443D01*
X76872563Y-61660834D01*
X76869144Y-61637779D01*
X76868000Y-61614500D01*
X76868000Y-61039500D01*
X76869144Y-61016221D01*
X76872563Y-60993166D01*
X76878227Y-60970557D01*
X76886079Y-60948613D01*
X76896044Y-60927543D01*
X76908026Y-60907552D01*
X76921910Y-60888832D01*
X76937562Y-60871562D01*
X76954832Y-60855910D01*
X76973552Y-60842026D01*
X76993543Y-60830044D01*
X77014613Y-60820079D01*
X77036557Y-60812227D01*
X77059166Y-60806563D01*
X77082221Y-60803144D01*
X77105500Y-60802000D01*
X77580500Y-60802000D01*
X77603779Y-60803144D01*
G37*
G36*
X77603779Y-59053144D02*
G01*
X77626834Y-59056563D01*
X77649443Y-59062227D01*
X77671387Y-59070079D01*
X77692457Y-59080044D01*
X77712448Y-59092026D01*
X77731168Y-59105910D01*
X77748438Y-59121562D01*
X77764090Y-59138832D01*
X77777974Y-59157552D01*
X77789956Y-59177543D01*
X77799921Y-59198613D01*
X77807773Y-59220557D01*
X77813437Y-59243166D01*
X77816856Y-59266221D01*
X77818000Y-59289500D01*
X77818000Y-59864500D01*
X77816856Y-59887779D01*
X77813437Y-59910834D01*
X77807773Y-59933443D01*
X77799921Y-59955387D01*
X77789956Y-59976457D01*
X77777974Y-59996448D01*
X77764090Y-60015168D01*
X77748438Y-60032438D01*
X77731168Y-60048090D01*
X77712448Y-60061974D01*
X77692457Y-60073956D01*
X77671387Y-60083921D01*
X77649443Y-60091773D01*
X77626834Y-60097437D01*
X77603779Y-60100856D01*
X77580500Y-60102000D01*
X77105500Y-60102000D01*
X77082221Y-60100856D01*
X77059166Y-60097437D01*
X77036557Y-60091773D01*
X77014613Y-60083921D01*
X76993543Y-60073956D01*
X76973552Y-60061974D01*
X76954832Y-60048090D01*
X76937562Y-60032438D01*
X76921910Y-60015168D01*
X76908026Y-59996448D01*
X76896044Y-59976457D01*
X76886079Y-59955387D01*
X76878227Y-59933443D01*
X76872563Y-59910834D01*
X76869144Y-59887779D01*
X76868000Y-59864500D01*
X76868000Y-59289500D01*
X76869144Y-59266221D01*
X76872563Y-59243166D01*
X76878227Y-59220557D01*
X76886079Y-59198613D01*
X76896044Y-59177543D01*
X76908026Y-59157552D01*
X76921910Y-59138832D01*
X76937562Y-59121562D01*
X76954832Y-59105910D01*
X76973552Y-59092026D01*
X76993543Y-59080044D01*
X77014613Y-59070079D01*
X77036557Y-59062227D01*
X77059166Y-59056563D01*
X77082221Y-59053144D01*
X77105500Y-59052000D01*
X77580500Y-59052000D01*
X77603779Y-59053144D01*
G37*
G36*
X62173779Y-63661144D02*
G01*
X62196834Y-63664563D01*
X62219443Y-63670227D01*
X62241387Y-63678079D01*
X62262457Y-63688044D01*
X62282448Y-63700026D01*
X62301168Y-63713910D01*
X62318438Y-63729562D01*
X62334090Y-63746832D01*
X62347974Y-63765552D01*
X62359956Y-63785543D01*
X62369921Y-63806613D01*
X62377773Y-63828557D01*
X62383437Y-63851166D01*
X62386856Y-63874221D01*
X62388000Y-63897500D01*
X62388000Y-64372500D01*
X62386856Y-64395779D01*
X62383437Y-64418834D01*
X62377773Y-64441443D01*
X62369921Y-64463387D01*
X62359956Y-64484457D01*
X62347974Y-64504448D01*
X62334090Y-64523168D01*
X62318438Y-64540438D01*
X62301168Y-64556090D01*
X62282448Y-64569974D01*
X62262457Y-64581956D01*
X62241387Y-64591921D01*
X62219443Y-64599773D01*
X62196834Y-64605437D01*
X62173779Y-64608856D01*
X62150500Y-64610000D01*
X61575500Y-64610000D01*
X61552221Y-64608856D01*
X61529166Y-64605437D01*
X61506557Y-64599773D01*
X61484613Y-64591921D01*
X61463543Y-64581956D01*
X61443552Y-64569974D01*
X61424832Y-64556090D01*
X61407562Y-64540438D01*
X61391910Y-64523168D01*
X61378026Y-64504448D01*
X61366044Y-64484457D01*
X61356079Y-64463387D01*
X61348227Y-64441443D01*
X61342563Y-64418834D01*
X61339144Y-64395779D01*
X61338000Y-64372500D01*
X61338000Y-63897500D01*
X61339144Y-63874221D01*
X61342563Y-63851166D01*
X61348227Y-63828557D01*
X61356079Y-63806613D01*
X61366044Y-63785543D01*
X61378026Y-63765552D01*
X61391910Y-63746832D01*
X61407562Y-63729562D01*
X61424832Y-63713910D01*
X61443552Y-63700026D01*
X61463543Y-63688044D01*
X61484613Y-63678079D01*
X61506557Y-63670227D01*
X61529166Y-63664563D01*
X61552221Y-63661144D01*
X61575500Y-63660000D01*
X62150500Y-63660000D01*
X62173779Y-63661144D01*
G37*
G36*
X63923779Y-63661144D02*
G01*
X63946834Y-63664563D01*
X63969443Y-63670227D01*
X63991387Y-63678079D01*
X64012457Y-63688044D01*
X64032448Y-63700026D01*
X64051168Y-63713910D01*
X64068438Y-63729562D01*
X64084090Y-63746832D01*
X64097974Y-63765552D01*
X64109956Y-63785543D01*
X64119921Y-63806613D01*
X64127773Y-63828557D01*
X64133437Y-63851166D01*
X64136856Y-63874221D01*
X64138000Y-63897500D01*
X64138000Y-64372500D01*
X64136856Y-64395779D01*
X64133437Y-64418834D01*
X64127773Y-64441443D01*
X64119921Y-64463387D01*
X64109956Y-64484457D01*
X64097974Y-64504448D01*
X64084090Y-64523168D01*
X64068438Y-64540438D01*
X64051168Y-64556090D01*
X64032448Y-64569974D01*
X64012457Y-64581956D01*
X63991387Y-64591921D01*
X63969443Y-64599773D01*
X63946834Y-64605437D01*
X63923779Y-64608856D01*
X63900500Y-64610000D01*
X63325500Y-64610000D01*
X63302221Y-64608856D01*
X63279166Y-64605437D01*
X63256557Y-64599773D01*
X63234613Y-64591921D01*
X63213543Y-64581956D01*
X63193552Y-64569974D01*
X63174832Y-64556090D01*
X63157562Y-64540438D01*
X63141910Y-64523168D01*
X63128026Y-64504448D01*
X63116044Y-64484457D01*
X63106079Y-64463387D01*
X63098227Y-64441443D01*
X63092563Y-64418834D01*
X63089144Y-64395779D01*
X63088000Y-64372500D01*
X63088000Y-63897500D01*
X63089144Y-63874221D01*
X63092563Y-63851166D01*
X63098227Y-63828557D01*
X63106079Y-63806613D01*
X63116044Y-63785543D01*
X63128026Y-63765552D01*
X63141910Y-63746832D01*
X63157562Y-63729562D01*
X63174832Y-63713910D01*
X63193552Y-63700026D01*
X63213543Y-63688044D01*
X63234613Y-63678079D01*
X63256557Y-63670227D01*
X63279166Y-63664563D01*
X63302221Y-63661144D01*
X63325500Y-63660000D01*
X63900500Y-63660000D01*
X63923779Y-63661144D01*
G37*
M02*
