M48
; DRILL file {KiCad (5.1.5)-3} date 08/30/20 19:55:34
; FORMAT={-:-/ absolute / inch / decimal}
; #@! TF.CreationDate,2020-08-30T19:55:34+02:00
; #@! TF.GenerationSoftware,Kicad,Pcbnew,(5.1.5)-3
; #@! TF.FileFunction,Plated,1,2,PTH
FMAT,2
INCH
T1C0.0157
T2C0.0394
T3C0.0472
%
G90
G05
T1
X2.26Y-2.415
X2.31Y-2.01
X2.32Y-2.64
X2.455Y-1.59
X2.46Y-1.695
X2.46Y-2.095
X2.49Y-2.215
X2.505Y-1.645
X2.555Y-2.685
X2.59Y-2.445
X2.605Y-2.045
X2.682Y-2.741
X2.71Y-2.606
X2.745Y-2.6244
X2.8289Y-2.6765
X2.8419Y-2.3735
X2.85Y-2.4306
X2.8693Y-2.6766
X2.8824Y-2.1875
X2.91Y-1.7
X2.91Y-2.67
X2.92Y-1.84
X2.95Y-1.59
X2.9575Y-2.1575
X3.07Y-2.705
X3.13Y-1.745
X3.13Y-1.795
X3.1439Y-2.1089
X3.2Y-1.62
X3.2106Y-2.1026
T2
X2.309Y-2.887
X2.409Y-2.887
T3
X3.255Y-1.715
X3.255Y-1.865
X2.115Y-1.7323
X2.115Y-1.8823
X3.25Y-2.5665
X3.25Y-2.7165
X2.145Y-2.5665
X2.145Y-2.7165
T0
M30
