G04 #@! TF.GenerationSoftware,KiCad,Pcbnew,(5.1.5)-3*
G04 #@! TF.CreationDate,2020-08-30T19:55:30+02:00*
G04 #@! TF.ProjectId,Drone_PCB,44726f6e-655f-4504-9342-2e6b69636164,rev?*
G04 #@! TF.SameCoordinates,Original*
G04 #@! TF.FileFunction,Copper,L1,Top*
G04 #@! TF.FilePolarity,Positive*
%FSLAX46Y46*%
G04 Gerber Fmt 4.6, Leading zero omitted, Abs format (unit mm)*
G04 Created by KiCad (PCBNEW (5.1.5)-3) date 2020-08-30 19:55:30*
%MOMM*%
%LPD*%
G04 APERTURE LIST*
%ADD10C,0.100000*%
%ADD11R,1.175000X1.900000*%
%ADD12R,2.375000X1.900000*%
%ADD13R,1.475000X2.100000*%
%ADD14R,0.450000X1.380000*%
%ADD15O,1.700000X1.700000*%
%ADD16R,1.700000X1.700000*%
%ADD17R,0.900000X0.800000*%
%ADD18R,0.800000X0.900000*%
%ADD19C,2.999740*%
%ADD20R,2.999740X2.999740*%
%ADD21R,0.450000X1.450000*%
%ADD22R,2.000000X0.900000*%
%ADD23R,0.900000X2.000000*%
%ADD24R,5.000000X5.000000*%
%ADD25C,0.800000*%
%ADD26C,0.250000*%
%ADD27C,0.200000*%
%ADD28C,1.000000*%
%ADD29C,0.500000*%
%ADD30C,0.254000*%
G04 APERTURE END LIST*
G04 #@! TA.AperFunction,SMDPad,CuDef*
D10*
G36*
X60577505Y-68280204D02*
G01*
X60601773Y-68283804D01*
X60625572Y-68289765D01*
X60648671Y-68298030D01*
X60670850Y-68308520D01*
X60691893Y-68321132D01*
X60711599Y-68335747D01*
X60729777Y-68352223D01*
X60746253Y-68370401D01*
X60760868Y-68390107D01*
X60773480Y-68411150D01*
X60783970Y-68433329D01*
X60792235Y-68456428D01*
X60798196Y-68480227D01*
X60801796Y-68504495D01*
X60803000Y-68528999D01*
X60803000Y-69879001D01*
X60801796Y-69903505D01*
X60798196Y-69927773D01*
X60792235Y-69951572D01*
X60783970Y-69974671D01*
X60773480Y-69996850D01*
X60760868Y-70017893D01*
X60746253Y-70037599D01*
X60729777Y-70055777D01*
X60711599Y-70072253D01*
X60691893Y-70086868D01*
X60670850Y-70099480D01*
X60648671Y-70109970D01*
X60625572Y-70118235D01*
X60601773Y-70124196D01*
X60577505Y-70127796D01*
X60553001Y-70129000D01*
X57302999Y-70129000D01*
X57278495Y-70127796D01*
X57254227Y-70124196D01*
X57230428Y-70118235D01*
X57207329Y-70109970D01*
X57185150Y-70099480D01*
X57164107Y-70086868D01*
X57144401Y-70072253D01*
X57126223Y-70055777D01*
X57109747Y-70037599D01*
X57095132Y-70017893D01*
X57082520Y-69996850D01*
X57072030Y-69974671D01*
X57063765Y-69951572D01*
X57057804Y-69927773D01*
X57054204Y-69903505D01*
X57053000Y-69879001D01*
X57053000Y-68528999D01*
X57054204Y-68504495D01*
X57057804Y-68480227D01*
X57063765Y-68456428D01*
X57072030Y-68433329D01*
X57082520Y-68411150D01*
X57095132Y-68390107D01*
X57109747Y-68370401D01*
X57126223Y-68352223D01*
X57144401Y-68335747D01*
X57164107Y-68321132D01*
X57185150Y-68308520D01*
X57207329Y-68298030D01*
X57230428Y-68289765D01*
X57254227Y-68283804D01*
X57278495Y-68280204D01*
X57302999Y-68279000D01*
X60553001Y-68279000D01*
X60577505Y-68280204D01*
G37*
G04 #@! TD.AperFunction*
G04 #@! TA.AperFunction,SMDPad,CuDef*
G36*
X60577505Y-63730204D02*
G01*
X60601773Y-63733804D01*
X60625572Y-63739765D01*
X60648671Y-63748030D01*
X60670850Y-63758520D01*
X60691893Y-63771132D01*
X60711599Y-63785747D01*
X60729777Y-63802223D01*
X60746253Y-63820401D01*
X60760868Y-63840107D01*
X60773480Y-63861150D01*
X60783970Y-63883329D01*
X60792235Y-63906428D01*
X60798196Y-63930227D01*
X60801796Y-63954495D01*
X60803000Y-63978999D01*
X60803000Y-65329001D01*
X60801796Y-65353505D01*
X60798196Y-65377773D01*
X60792235Y-65401572D01*
X60783970Y-65424671D01*
X60773480Y-65446850D01*
X60760868Y-65467893D01*
X60746253Y-65487599D01*
X60729777Y-65505777D01*
X60711599Y-65522253D01*
X60691893Y-65536868D01*
X60670850Y-65549480D01*
X60648671Y-65559970D01*
X60625572Y-65568235D01*
X60601773Y-65574196D01*
X60577505Y-65577796D01*
X60553001Y-65579000D01*
X57302999Y-65579000D01*
X57278495Y-65577796D01*
X57254227Y-65574196D01*
X57230428Y-65568235D01*
X57207329Y-65559970D01*
X57185150Y-65549480D01*
X57164107Y-65536868D01*
X57144401Y-65522253D01*
X57126223Y-65505777D01*
X57109747Y-65487599D01*
X57095132Y-65467893D01*
X57082520Y-65446850D01*
X57072030Y-65424671D01*
X57063765Y-65401572D01*
X57057804Y-65377773D01*
X57054204Y-65353505D01*
X57053000Y-65329001D01*
X57053000Y-63978999D01*
X57054204Y-63954495D01*
X57057804Y-63930227D01*
X57063765Y-63906428D01*
X57072030Y-63883329D01*
X57082520Y-63861150D01*
X57095132Y-63840107D01*
X57109747Y-63820401D01*
X57126223Y-63802223D01*
X57144401Y-63785747D01*
X57164107Y-63771132D01*
X57185150Y-63758520D01*
X57207329Y-63748030D01*
X57230428Y-63739765D01*
X57254227Y-63733804D01*
X57278495Y-63730204D01*
X57302999Y-63729000D01*
X60553001Y-63729000D01*
X60577505Y-63730204D01*
G37*
G04 #@! TD.AperFunction*
D11*
X70574000Y-73660000D03*
X68894000Y-73660000D03*
D12*
X72644000Y-73660000D03*
X66824000Y-73660000D03*
D13*
X72196500Y-71360000D03*
X67271500Y-71360000D03*
D14*
X71034000Y-71000000D03*
X70384000Y-71000000D03*
X69734000Y-71000000D03*
X69084000Y-71000000D03*
X68434000Y-71000000D03*
D15*
X61188600Y-73329800D03*
D16*
X58648600Y-73329800D03*
G04 #@! TA.AperFunction,SMDPad,CuDef*
D10*
G36*
X85651505Y-54260204D02*
G01*
X85675773Y-54263804D01*
X85699572Y-54269765D01*
X85722671Y-54278030D01*
X85744850Y-54288520D01*
X85765893Y-54301132D01*
X85785599Y-54315747D01*
X85803777Y-54332223D01*
X85820253Y-54350401D01*
X85834868Y-54370107D01*
X85847480Y-54391150D01*
X85857970Y-54413329D01*
X85866235Y-54436428D01*
X85872196Y-54460227D01*
X85875796Y-54484495D01*
X85877000Y-54508999D01*
X85877000Y-57759001D01*
X85875796Y-57783505D01*
X85872196Y-57807773D01*
X85866235Y-57831572D01*
X85857970Y-57854671D01*
X85847480Y-57876850D01*
X85834868Y-57897893D01*
X85820253Y-57917599D01*
X85803777Y-57935777D01*
X85785599Y-57952253D01*
X85765893Y-57966868D01*
X85744850Y-57979480D01*
X85722671Y-57989970D01*
X85699572Y-57998235D01*
X85675773Y-58004196D01*
X85651505Y-58007796D01*
X85627001Y-58009000D01*
X84276999Y-58009000D01*
X84252495Y-58007796D01*
X84228227Y-58004196D01*
X84204428Y-57998235D01*
X84181329Y-57989970D01*
X84159150Y-57979480D01*
X84138107Y-57966868D01*
X84118401Y-57952253D01*
X84100223Y-57935777D01*
X84083747Y-57917599D01*
X84069132Y-57897893D01*
X84056520Y-57876850D01*
X84046030Y-57854671D01*
X84037765Y-57831572D01*
X84031804Y-57807773D01*
X84028204Y-57783505D01*
X84027000Y-57759001D01*
X84027000Y-54508999D01*
X84028204Y-54484495D01*
X84031804Y-54460227D01*
X84037765Y-54436428D01*
X84046030Y-54413329D01*
X84056520Y-54391150D01*
X84069132Y-54370107D01*
X84083747Y-54350401D01*
X84100223Y-54332223D01*
X84118401Y-54315747D01*
X84138107Y-54301132D01*
X84159150Y-54288520D01*
X84181329Y-54278030D01*
X84204428Y-54269765D01*
X84228227Y-54263804D01*
X84252495Y-54260204D01*
X84276999Y-54259000D01*
X85627001Y-54259000D01*
X85651505Y-54260204D01*
G37*
G04 #@! TD.AperFunction*
G04 #@! TA.AperFunction,SMDPad,CuDef*
G36*
X81101505Y-54260204D02*
G01*
X81125773Y-54263804D01*
X81149572Y-54269765D01*
X81172671Y-54278030D01*
X81194850Y-54288520D01*
X81215893Y-54301132D01*
X81235599Y-54315747D01*
X81253777Y-54332223D01*
X81270253Y-54350401D01*
X81284868Y-54370107D01*
X81297480Y-54391150D01*
X81307970Y-54413329D01*
X81316235Y-54436428D01*
X81322196Y-54460227D01*
X81325796Y-54484495D01*
X81327000Y-54508999D01*
X81327000Y-57759001D01*
X81325796Y-57783505D01*
X81322196Y-57807773D01*
X81316235Y-57831572D01*
X81307970Y-57854671D01*
X81297480Y-57876850D01*
X81284868Y-57897893D01*
X81270253Y-57917599D01*
X81253777Y-57935777D01*
X81235599Y-57952253D01*
X81215893Y-57966868D01*
X81194850Y-57979480D01*
X81172671Y-57989970D01*
X81149572Y-57998235D01*
X81125773Y-58004196D01*
X81101505Y-58007796D01*
X81077001Y-58009000D01*
X79726999Y-58009000D01*
X79702495Y-58007796D01*
X79678227Y-58004196D01*
X79654428Y-57998235D01*
X79631329Y-57989970D01*
X79609150Y-57979480D01*
X79588107Y-57966868D01*
X79568401Y-57952253D01*
X79550223Y-57935777D01*
X79533747Y-57917599D01*
X79519132Y-57897893D01*
X79506520Y-57876850D01*
X79496030Y-57854671D01*
X79487765Y-57831572D01*
X79481804Y-57807773D01*
X79478204Y-57783505D01*
X79477000Y-57759001D01*
X79477000Y-54508999D01*
X79478204Y-54484495D01*
X79481804Y-54460227D01*
X79487765Y-54436428D01*
X79496030Y-54413329D01*
X79506520Y-54391150D01*
X79519132Y-54370107D01*
X79533747Y-54350401D01*
X79550223Y-54332223D01*
X79568401Y-54315747D01*
X79588107Y-54301132D01*
X79609150Y-54288520D01*
X79631329Y-54278030D01*
X79654428Y-54269765D01*
X79678227Y-54263804D01*
X79702495Y-54260204D01*
X79726999Y-54259000D01*
X81077001Y-54259000D01*
X81101505Y-54260204D01*
G37*
G04 #@! TD.AperFunction*
G04 #@! TA.AperFunction,SMDPad,CuDef*
G36*
X57457505Y-55657204D02*
G01*
X57481773Y-55660804D01*
X57505572Y-55666765D01*
X57528671Y-55675030D01*
X57550850Y-55685520D01*
X57571893Y-55698132D01*
X57591599Y-55712747D01*
X57609777Y-55729223D01*
X57626253Y-55747401D01*
X57640868Y-55767107D01*
X57653480Y-55788150D01*
X57663970Y-55810329D01*
X57672235Y-55833428D01*
X57678196Y-55857227D01*
X57681796Y-55881495D01*
X57683000Y-55905999D01*
X57683000Y-59156001D01*
X57681796Y-59180505D01*
X57678196Y-59204773D01*
X57672235Y-59228572D01*
X57663970Y-59251671D01*
X57653480Y-59273850D01*
X57640868Y-59294893D01*
X57626253Y-59314599D01*
X57609777Y-59332777D01*
X57591599Y-59349253D01*
X57571893Y-59363868D01*
X57550850Y-59376480D01*
X57528671Y-59386970D01*
X57505572Y-59395235D01*
X57481773Y-59401196D01*
X57457505Y-59404796D01*
X57433001Y-59406000D01*
X56082999Y-59406000D01*
X56058495Y-59404796D01*
X56034227Y-59401196D01*
X56010428Y-59395235D01*
X55987329Y-59386970D01*
X55965150Y-59376480D01*
X55944107Y-59363868D01*
X55924401Y-59349253D01*
X55906223Y-59332777D01*
X55889747Y-59314599D01*
X55875132Y-59294893D01*
X55862520Y-59273850D01*
X55852030Y-59251671D01*
X55843765Y-59228572D01*
X55837804Y-59204773D01*
X55834204Y-59180505D01*
X55833000Y-59156001D01*
X55833000Y-55905999D01*
X55834204Y-55881495D01*
X55837804Y-55857227D01*
X55843765Y-55833428D01*
X55852030Y-55810329D01*
X55862520Y-55788150D01*
X55875132Y-55767107D01*
X55889747Y-55747401D01*
X55906223Y-55729223D01*
X55924401Y-55712747D01*
X55944107Y-55698132D01*
X55965150Y-55685520D01*
X55987329Y-55675030D01*
X56010428Y-55666765D01*
X56034227Y-55660804D01*
X56058495Y-55657204D01*
X56082999Y-55656000D01*
X57433001Y-55656000D01*
X57457505Y-55657204D01*
G37*
G04 #@! TD.AperFunction*
G04 #@! TA.AperFunction,SMDPad,CuDef*
G36*
X52907505Y-55657204D02*
G01*
X52931773Y-55660804D01*
X52955572Y-55666765D01*
X52978671Y-55675030D01*
X53000850Y-55685520D01*
X53021893Y-55698132D01*
X53041599Y-55712747D01*
X53059777Y-55729223D01*
X53076253Y-55747401D01*
X53090868Y-55767107D01*
X53103480Y-55788150D01*
X53113970Y-55810329D01*
X53122235Y-55833428D01*
X53128196Y-55857227D01*
X53131796Y-55881495D01*
X53133000Y-55905999D01*
X53133000Y-59156001D01*
X53131796Y-59180505D01*
X53128196Y-59204773D01*
X53122235Y-59228572D01*
X53113970Y-59251671D01*
X53103480Y-59273850D01*
X53090868Y-59294893D01*
X53076253Y-59314599D01*
X53059777Y-59332777D01*
X53041599Y-59349253D01*
X53021893Y-59363868D01*
X53000850Y-59376480D01*
X52978671Y-59386970D01*
X52955572Y-59395235D01*
X52931773Y-59401196D01*
X52907505Y-59404796D01*
X52883001Y-59406000D01*
X51532999Y-59406000D01*
X51508495Y-59404796D01*
X51484227Y-59401196D01*
X51460428Y-59395235D01*
X51437329Y-59386970D01*
X51415150Y-59376480D01*
X51394107Y-59363868D01*
X51374401Y-59349253D01*
X51356223Y-59332777D01*
X51339747Y-59314599D01*
X51325132Y-59294893D01*
X51312520Y-59273850D01*
X51302030Y-59251671D01*
X51293765Y-59228572D01*
X51287804Y-59204773D01*
X51284204Y-59180505D01*
X51283000Y-59156001D01*
X51283000Y-55905999D01*
X51284204Y-55881495D01*
X51287804Y-55857227D01*
X51293765Y-55833428D01*
X51302030Y-55810329D01*
X51312520Y-55788150D01*
X51325132Y-55767107D01*
X51339747Y-55747401D01*
X51356223Y-55729223D01*
X51374401Y-55712747D01*
X51394107Y-55698132D01*
X51415150Y-55685520D01*
X51437329Y-55675030D01*
X51460428Y-55666765D01*
X51484227Y-55660804D01*
X51508495Y-55657204D01*
X51532999Y-55656000D01*
X52883001Y-55656000D01*
X52907505Y-55657204D01*
G37*
G04 #@! TD.AperFunction*
D17*
X83550000Y-51308000D03*
X81550000Y-52258000D03*
X81550000Y-50358000D03*
D18*
X59563000Y-62468000D03*
X58613000Y-60468000D03*
X60513000Y-60468000D03*
D17*
X53991000Y-52324000D03*
X55991000Y-51374000D03*
X55991000Y-53274000D03*
G04 #@! TA.AperFunction,SMDPad,CuDef*
D10*
G36*
X80143779Y-51659144D02*
G01*
X80166834Y-51662563D01*
X80189443Y-51668227D01*
X80211387Y-51676079D01*
X80232457Y-51686044D01*
X80252448Y-51698026D01*
X80271168Y-51711910D01*
X80288438Y-51727562D01*
X80304090Y-51744832D01*
X80317974Y-51763552D01*
X80329956Y-51783543D01*
X80339921Y-51804613D01*
X80347773Y-51826557D01*
X80353437Y-51849166D01*
X80356856Y-51872221D01*
X80358000Y-51895500D01*
X80358000Y-52470500D01*
X80356856Y-52493779D01*
X80353437Y-52516834D01*
X80347773Y-52539443D01*
X80339921Y-52561387D01*
X80329956Y-52582457D01*
X80317974Y-52602448D01*
X80304090Y-52621168D01*
X80288438Y-52638438D01*
X80271168Y-52654090D01*
X80252448Y-52667974D01*
X80232457Y-52679956D01*
X80211387Y-52689921D01*
X80189443Y-52697773D01*
X80166834Y-52703437D01*
X80143779Y-52706856D01*
X80120500Y-52708000D01*
X79645500Y-52708000D01*
X79622221Y-52706856D01*
X79599166Y-52703437D01*
X79576557Y-52697773D01*
X79554613Y-52689921D01*
X79533543Y-52679956D01*
X79513552Y-52667974D01*
X79494832Y-52654090D01*
X79477562Y-52638438D01*
X79461910Y-52621168D01*
X79448026Y-52602448D01*
X79436044Y-52582457D01*
X79426079Y-52561387D01*
X79418227Y-52539443D01*
X79412563Y-52516834D01*
X79409144Y-52493779D01*
X79408000Y-52470500D01*
X79408000Y-51895500D01*
X79409144Y-51872221D01*
X79412563Y-51849166D01*
X79418227Y-51826557D01*
X79426079Y-51804613D01*
X79436044Y-51783543D01*
X79448026Y-51763552D01*
X79461910Y-51744832D01*
X79477562Y-51727562D01*
X79494832Y-51711910D01*
X79513552Y-51698026D01*
X79533543Y-51686044D01*
X79554613Y-51676079D01*
X79576557Y-51668227D01*
X79599166Y-51662563D01*
X79622221Y-51659144D01*
X79645500Y-51658000D01*
X80120500Y-51658000D01*
X80143779Y-51659144D01*
G37*
G04 #@! TD.AperFunction*
G04 #@! TA.AperFunction,SMDPad,CuDef*
G36*
X80143779Y-49909144D02*
G01*
X80166834Y-49912563D01*
X80189443Y-49918227D01*
X80211387Y-49926079D01*
X80232457Y-49936044D01*
X80252448Y-49948026D01*
X80271168Y-49961910D01*
X80288438Y-49977562D01*
X80304090Y-49994832D01*
X80317974Y-50013552D01*
X80329956Y-50033543D01*
X80339921Y-50054613D01*
X80347773Y-50076557D01*
X80353437Y-50099166D01*
X80356856Y-50122221D01*
X80358000Y-50145500D01*
X80358000Y-50720500D01*
X80356856Y-50743779D01*
X80353437Y-50766834D01*
X80347773Y-50789443D01*
X80339921Y-50811387D01*
X80329956Y-50832457D01*
X80317974Y-50852448D01*
X80304090Y-50871168D01*
X80288438Y-50888438D01*
X80271168Y-50904090D01*
X80252448Y-50917974D01*
X80232457Y-50929956D01*
X80211387Y-50939921D01*
X80189443Y-50947773D01*
X80166834Y-50953437D01*
X80143779Y-50956856D01*
X80120500Y-50958000D01*
X79645500Y-50958000D01*
X79622221Y-50956856D01*
X79599166Y-50953437D01*
X79576557Y-50947773D01*
X79554613Y-50939921D01*
X79533543Y-50929956D01*
X79513552Y-50917974D01*
X79494832Y-50904090D01*
X79477562Y-50888438D01*
X79461910Y-50871168D01*
X79448026Y-50852448D01*
X79436044Y-50832457D01*
X79426079Y-50811387D01*
X79418227Y-50789443D01*
X79412563Y-50766834D01*
X79409144Y-50743779D01*
X79408000Y-50720500D01*
X79408000Y-50145500D01*
X79409144Y-50122221D01*
X79412563Y-50099166D01*
X79418227Y-50076557D01*
X79426079Y-50054613D01*
X79436044Y-50033543D01*
X79448026Y-50013552D01*
X79461910Y-49994832D01*
X79477562Y-49977562D01*
X79494832Y-49961910D01*
X79513552Y-49948026D01*
X79533543Y-49936044D01*
X79554613Y-49926079D01*
X79576557Y-49918227D01*
X79599166Y-49912563D01*
X79622221Y-49909144D01*
X79645500Y-49908000D01*
X80120500Y-49908000D01*
X80143779Y-49909144D01*
G37*
G04 #@! TD.AperFunction*
G04 #@! TA.AperFunction,SMDPad,CuDef*
G36*
X62363779Y-61692144D02*
G01*
X62386834Y-61695563D01*
X62409443Y-61701227D01*
X62431387Y-61709079D01*
X62452457Y-61719044D01*
X62472448Y-61731026D01*
X62491168Y-61744910D01*
X62508438Y-61760562D01*
X62524090Y-61777832D01*
X62537974Y-61796552D01*
X62549956Y-61816543D01*
X62559921Y-61837613D01*
X62567773Y-61859557D01*
X62573437Y-61882166D01*
X62576856Y-61905221D01*
X62578000Y-61928500D01*
X62578000Y-62503500D01*
X62576856Y-62526779D01*
X62573437Y-62549834D01*
X62567773Y-62572443D01*
X62559921Y-62594387D01*
X62549956Y-62615457D01*
X62537974Y-62635448D01*
X62524090Y-62654168D01*
X62508438Y-62671438D01*
X62491168Y-62687090D01*
X62472448Y-62700974D01*
X62452457Y-62712956D01*
X62431387Y-62722921D01*
X62409443Y-62730773D01*
X62386834Y-62736437D01*
X62363779Y-62739856D01*
X62340500Y-62741000D01*
X61865500Y-62741000D01*
X61842221Y-62739856D01*
X61819166Y-62736437D01*
X61796557Y-62730773D01*
X61774613Y-62722921D01*
X61753543Y-62712956D01*
X61733552Y-62700974D01*
X61714832Y-62687090D01*
X61697562Y-62671438D01*
X61681910Y-62654168D01*
X61668026Y-62635448D01*
X61656044Y-62615457D01*
X61646079Y-62594387D01*
X61638227Y-62572443D01*
X61632563Y-62549834D01*
X61629144Y-62526779D01*
X61628000Y-62503500D01*
X61628000Y-61928500D01*
X61629144Y-61905221D01*
X61632563Y-61882166D01*
X61638227Y-61859557D01*
X61646079Y-61837613D01*
X61656044Y-61816543D01*
X61668026Y-61796552D01*
X61681910Y-61777832D01*
X61697562Y-61760562D01*
X61714832Y-61744910D01*
X61733552Y-61731026D01*
X61753543Y-61719044D01*
X61774613Y-61709079D01*
X61796557Y-61701227D01*
X61819166Y-61695563D01*
X61842221Y-61692144D01*
X61865500Y-61691000D01*
X62340500Y-61691000D01*
X62363779Y-61692144D01*
G37*
G04 #@! TD.AperFunction*
G04 #@! TA.AperFunction,SMDPad,CuDef*
G36*
X62363779Y-59942144D02*
G01*
X62386834Y-59945563D01*
X62409443Y-59951227D01*
X62431387Y-59959079D01*
X62452457Y-59969044D01*
X62472448Y-59981026D01*
X62491168Y-59994910D01*
X62508438Y-60010562D01*
X62524090Y-60027832D01*
X62537974Y-60046552D01*
X62549956Y-60066543D01*
X62559921Y-60087613D01*
X62567773Y-60109557D01*
X62573437Y-60132166D01*
X62576856Y-60155221D01*
X62578000Y-60178500D01*
X62578000Y-60753500D01*
X62576856Y-60776779D01*
X62573437Y-60799834D01*
X62567773Y-60822443D01*
X62559921Y-60844387D01*
X62549956Y-60865457D01*
X62537974Y-60885448D01*
X62524090Y-60904168D01*
X62508438Y-60921438D01*
X62491168Y-60937090D01*
X62472448Y-60950974D01*
X62452457Y-60962956D01*
X62431387Y-60972921D01*
X62409443Y-60980773D01*
X62386834Y-60986437D01*
X62363779Y-60989856D01*
X62340500Y-60991000D01*
X61865500Y-60991000D01*
X61842221Y-60989856D01*
X61819166Y-60986437D01*
X61796557Y-60980773D01*
X61774613Y-60972921D01*
X61753543Y-60962956D01*
X61733552Y-60950974D01*
X61714832Y-60937090D01*
X61697562Y-60921438D01*
X61681910Y-60904168D01*
X61668026Y-60885448D01*
X61656044Y-60865457D01*
X61646079Y-60844387D01*
X61638227Y-60822443D01*
X61632563Y-60799834D01*
X61629144Y-60776779D01*
X61628000Y-60753500D01*
X61628000Y-60178500D01*
X61629144Y-60155221D01*
X61632563Y-60132166D01*
X61638227Y-60109557D01*
X61646079Y-60087613D01*
X61656044Y-60066543D01*
X61668026Y-60046552D01*
X61681910Y-60027832D01*
X61697562Y-60010562D01*
X61714832Y-59994910D01*
X61733552Y-59981026D01*
X61753543Y-59969044D01*
X61774613Y-59959079D01*
X61796557Y-59951227D01*
X61819166Y-59945563D01*
X61842221Y-59942144D01*
X61865500Y-59941000D01*
X62340500Y-59941000D01*
X62363779Y-59942144D01*
G37*
G04 #@! TD.AperFunction*
G04 #@! TA.AperFunction,SMDPad,CuDef*
G36*
X57791779Y-52195144D02*
G01*
X57814834Y-52198563D01*
X57837443Y-52204227D01*
X57859387Y-52212079D01*
X57880457Y-52222044D01*
X57900448Y-52234026D01*
X57919168Y-52247910D01*
X57936438Y-52263562D01*
X57952090Y-52280832D01*
X57965974Y-52299552D01*
X57977956Y-52319543D01*
X57987921Y-52340613D01*
X57995773Y-52362557D01*
X58001437Y-52385166D01*
X58004856Y-52408221D01*
X58006000Y-52431500D01*
X58006000Y-53006500D01*
X58004856Y-53029779D01*
X58001437Y-53052834D01*
X57995773Y-53075443D01*
X57987921Y-53097387D01*
X57977956Y-53118457D01*
X57965974Y-53138448D01*
X57952090Y-53157168D01*
X57936438Y-53174438D01*
X57919168Y-53190090D01*
X57900448Y-53203974D01*
X57880457Y-53215956D01*
X57859387Y-53225921D01*
X57837443Y-53233773D01*
X57814834Y-53239437D01*
X57791779Y-53242856D01*
X57768500Y-53244000D01*
X57293500Y-53244000D01*
X57270221Y-53242856D01*
X57247166Y-53239437D01*
X57224557Y-53233773D01*
X57202613Y-53225921D01*
X57181543Y-53215956D01*
X57161552Y-53203974D01*
X57142832Y-53190090D01*
X57125562Y-53174438D01*
X57109910Y-53157168D01*
X57096026Y-53138448D01*
X57084044Y-53118457D01*
X57074079Y-53097387D01*
X57066227Y-53075443D01*
X57060563Y-53052834D01*
X57057144Y-53029779D01*
X57056000Y-53006500D01*
X57056000Y-52431500D01*
X57057144Y-52408221D01*
X57060563Y-52385166D01*
X57066227Y-52362557D01*
X57074079Y-52340613D01*
X57084044Y-52319543D01*
X57096026Y-52299552D01*
X57109910Y-52280832D01*
X57125562Y-52263562D01*
X57142832Y-52247910D01*
X57161552Y-52234026D01*
X57181543Y-52222044D01*
X57202613Y-52212079D01*
X57224557Y-52204227D01*
X57247166Y-52198563D01*
X57270221Y-52195144D01*
X57293500Y-52194000D01*
X57768500Y-52194000D01*
X57791779Y-52195144D01*
G37*
G04 #@! TD.AperFunction*
G04 #@! TA.AperFunction,SMDPad,CuDef*
G36*
X57791779Y-53945144D02*
G01*
X57814834Y-53948563D01*
X57837443Y-53954227D01*
X57859387Y-53962079D01*
X57880457Y-53972044D01*
X57900448Y-53984026D01*
X57919168Y-53997910D01*
X57936438Y-54013562D01*
X57952090Y-54030832D01*
X57965974Y-54049552D01*
X57977956Y-54069543D01*
X57987921Y-54090613D01*
X57995773Y-54112557D01*
X58001437Y-54135166D01*
X58004856Y-54158221D01*
X58006000Y-54181500D01*
X58006000Y-54756500D01*
X58004856Y-54779779D01*
X58001437Y-54802834D01*
X57995773Y-54825443D01*
X57987921Y-54847387D01*
X57977956Y-54868457D01*
X57965974Y-54888448D01*
X57952090Y-54907168D01*
X57936438Y-54924438D01*
X57919168Y-54940090D01*
X57900448Y-54953974D01*
X57880457Y-54965956D01*
X57859387Y-54975921D01*
X57837443Y-54983773D01*
X57814834Y-54989437D01*
X57791779Y-54992856D01*
X57768500Y-54994000D01*
X57293500Y-54994000D01*
X57270221Y-54992856D01*
X57247166Y-54989437D01*
X57224557Y-54983773D01*
X57202613Y-54975921D01*
X57181543Y-54965956D01*
X57161552Y-54953974D01*
X57142832Y-54940090D01*
X57125562Y-54924438D01*
X57109910Y-54907168D01*
X57096026Y-54888448D01*
X57084044Y-54868457D01*
X57074079Y-54847387D01*
X57066227Y-54825443D01*
X57060563Y-54802834D01*
X57057144Y-54779779D01*
X57056000Y-54756500D01*
X57056000Y-54181500D01*
X57057144Y-54158221D01*
X57060563Y-54135166D01*
X57066227Y-54112557D01*
X57074079Y-54090613D01*
X57084044Y-54069543D01*
X57096026Y-54049552D01*
X57109910Y-54030832D01*
X57125562Y-54013562D01*
X57142832Y-53997910D01*
X57161552Y-53984026D01*
X57181543Y-53972044D01*
X57202613Y-53962079D01*
X57224557Y-53954227D01*
X57247166Y-53948563D01*
X57270221Y-53945144D01*
X57293500Y-53944000D01*
X57768500Y-53944000D01*
X57791779Y-53945144D01*
G37*
G04 #@! TD.AperFunction*
G04 #@! TA.AperFunction,SMDPad,CuDef*
G36*
X80016779Y-48103144D02*
G01*
X80039834Y-48106563D01*
X80062443Y-48112227D01*
X80084387Y-48120079D01*
X80105457Y-48130044D01*
X80125448Y-48142026D01*
X80144168Y-48155910D01*
X80161438Y-48171562D01*
X80177090Y-48188832D01*
X80190974Y-48207552D01*
X80202956Y-48227543D01*
X80212921Y-48248613D01*
X80220773Y-48270557D01*
X80226437Y-48293166D01*
X80229856Y-48316221D01*
X80231000Y-48339500D01*
X80231000Y-48914500D01*
X80229856Y-48937779D01*
X80226437Y-48960834D01*
X80220773Y-48983443D01*
X80212921Y-49005387D01*
X80202956Y-49026457D01*
X80190974Y-49046448D01*
X80177090Y-49065168D01*
X80161438Y-49082438D01*
X80144168Y-49098090D01*
X80125448Y-49111974D01*
X80105457Y-49123956D01*
X80084387Y-49133921D01*
X80062443Y-49141773D01*
X80039834Y-49147437D01*
X80016779Y-49150856D01*
X79993500Y-49152000D01*
X79518500Y-49152000D01*
X79495221Y-49150856D01*
X79472166Y-49147437D01*
X79449557Y-49141773D01*
X79427613Y-49133921D01*
X79406543Y-49123956D01*
X79386552Y-49111974D01*
X79367832Y-49098090D01*
X79350562Y-49082438D01*
X79334910Y-49065168D01*
X79321026Y-49046448D01*
X79309044Y-49026457D01*
X79299079Y-49005387D01*
X79291227Y-48983443D01*
X79285563Y-48960834D01*
X79282144Y-48937779D01*
X79281000Y-48914500D01*
X79281000Y-48339500D01*
X79282144Y-48316221D01*
X79285563Y-48293166D01*
X79291227Y-48270557D01*
X79299079Y-48248613D01*
X79309044Y-48227543D01*
X79321026Y-48207552D01*
X79334910Y-48188832D01*
X79350562Y-48171562D01*
X79367832Y-48155910D01*
X79386552Y-48142026D01*
X79406543Y-48130044D01*
X79427613Y-48120079D01*
X79449557Y-48112227D01*
X79472166Y-48106563D01*
X79495221Y-48103144D01*
X79518500Y-48102000D01*
X79993500Y-48102000D01*
X80016779Y-48103144D01*
G37*
G04 #@! TD.AperFunction*
G04 #@! TA.AperFunction,SMDPad,CuDef*
G36*
X80016779Y-46353144D02*
G01*
X80039834Y-46356563D01*
X80062443Y-46362227D01*
X80084387Y-46370079D01*
X80105457Y-46380044D01*
X80125448Y-46392026D01*
X80144168Y-46405910D01*
X80161438Y-46421562D01*
X80177090Y-46438832D01*
X80190974Y-46457552D01*
X80202956Y-46477543D01*
X80212921Y-46498613D01*
X80220773Y-46520557D01*
X80226437Y-46543166D01*
X80229856Y-46566221D01*
X80231000Y-46589500D01*
X80231000Y-47164500D01*
X80229856Y-47187779D01*
X80226437Y-47210834D01*
X80220773Y-47233443D01*
X80212921Y-47255387D01*
X80202956Y-47276457D01*
X80190974Y-47296448D01*
X80177090Y-47315168D01*
X80161438Y-47332438D01*
X80144168Y-47348090D01*
X80125448Y-47361974D01*
X80105457Y-47373956D01*
X80084387Y-47383921D01*
X80062443Y-47391773D01*
X80039834Y-47397437D01*
X80016779Y-47400856D01*
X79993500Y-47402000D01*
X79518500Y-47402000D01*
X79495221Y-47400856D01*
X79472166Y-47397437D01*
X79449557Y-47391773D01*
X79427613Y-47383921D01*
X79406543Y-47373956D01*
X79386552Y-47361974D01*
X79367832Y-47348090D01*
X79350562Y-47332438D01*
X79334910Y-47315168D01*
X79321026Y-47296448D01*
X79309044Y-47276457D01*
X79299079Y-47255387D01*
X79291227Y-47233443D01*
X79285563Y-47210834D01*
X79282144Y-47187779D01*
X79281000Y-47164500D01*
X79281000Y-46589500D01*
X79282144Y-46566221D01*
X79285563Y-46543166D01*
X79291227Y-46520557D01*
X79299079Y-46498613D01*
X79309044Y-46477543D01*
X79321026Y-46457552D01*
X79334910Y-46438832D01*
X79350562Y-46421562D01*
X79367832Y-46405910D01*
X79386552Y-46392026D01*
X79406543Y-46380044D01*
X79427613Y-46370079D01*
X79449557Y-46362227D01*
X79472166Y-46356563D01*
X79495221Y-46353144D01*
X79518500Y-46352000D01*
X79993500Y-46352000D01*
X80016779Y-46353144D01*
G37*
G04 #@! TD.AperFunction*
G04 #@! TA.AperFunction,SMDPad,CuDef*
G36*
X79889779Y-42515144D02*
G01*
X79912834Y-42518563D01*
X79935443Y-42524227D01*
X79957387Y-42532079D01*
X79978457Y-42542044D01*
X79998448Y-42554026D01*
X80017168Y-42567910D01*
X80034438Y-42583562D01*
X80050090Y-42600832D01*
X80063974Y-42619552D01*
X80075956Y-42639543D01*
X80085921Y-42660613D01*
X80093773Y-42682557D01*
X80099437Y-42705166D01*
X80102856Y-42728221D01*
X80104000Y-42751500D01*
X80104000Y-43326500D01*
X80102856Y-43349779D01*
X80099437Y-43372834D01*
X80093773Y-43395443D01*
X80085921Y-43417387D01*
X80075956Y-43438457D01*
X80063974Y-43458448D01*
X80050090Y-43477168D01*
X80034438Y-43494438D01*
X80017168Y-43510090D01*
X79998448Y-43523974D01*
X79978457Y-43535956D01*
X79957387Y-43545921D01*
X79935443Y-43553773D01*
X79912834Y-43559437D01*
X79889779Y-43562856D01*
X79866500Y-43564000D01*
X79391500Y-43564000D01*
X79368221Y-43562856D01*
X79345166Y-43559437D01*
X79322557Y-43553773D01*
X79300613Y-43545921D01*
X79279543Y-43535956D01*
X79259552Y-43523974D01*
X79240832Y-43510090D01*
X79223562Y-43494438D01*
X79207910Y-43477168D01*
X79194026Y-43458448D01*
X79182044Y-43438457D01*
X79172079Y-43417387D01*
X79164227Y-43395443D01*
X79158563Y-43372834D01*
X79155144Y-43349779D01*
X79154000Y-43326500D01*
X79154000Y-42751500D01*
X79155144Y-42728221D01*
X79158563Y-42705166D01*
X79164227Y-42682557D01*
X79172079Y-42660613D01*
X79182044Y-42639543D01*
X79194026Y-42619552D01*
X79207910Y-42600832D01*
X79223562Y-42583562D01*
X79240832Y-42567910D01*
X79259552Y-42554026D01*
X79279543Y-42542044D01*
X79300613Y-42532079D01*
X79322557Y-42524227D01*
X79345166Y-42518563D01*
X79368221Y-42515144D01*
X79391500Y-42514000D01*
X79866500Y-42514000D01*
X79889779Y-42515144D01*
G37*
G04 #@! TD.AperFunction*
G04 #@! TA.AperFunction,SMDPad,CuDef*
G36*
X79889779Y-40765144D02*
G01*
X79912834Y-40768563D01*
X79935443Y-40774227D01*
X79957387Y-40782079D01*
X79978457Y-40792044D01*
X79998448Y-40804026D01*
X80017168Y-40817910D01*
X80034438Y-40833562D01*
X80050090Y-40850832D01*
X80063974Y-40869552D01*
X80075956Y-40889543D01*
X80085921Y-40910613D01*
X80093773Y-40932557D01*
X80099437Y-40955166D01*
X80102856Y-40978221D01*
X80104000Y-41001500D01*
X80104000Y-41576500D01*
X80102856Y-41599779D01*
X80099437Y-41622834D01*
X80093773Y-41645443D01*
X80085921Y-41667387D01*
X80075956Y-41688457D01*
X80063974Y-41708448D01*
X80050090Y-41727168D01*
X80034438Y-41744438D01*
X80017168Y-41760090D01*
X79998448Y-41773974D01*
X79978457Y-41785956D01*
X79957387Y-41795921D01*
X79935443Y-41803773D01*
X79912834Y-41809437D01*
X79889779Y-41812856D01*
X79866500Y-41814000D01*
X79391500Y-41814000D01*
X79368221Y-41812856D01*
X79345166Y-41809437D01*
X79322557Y-41803773D01*
X79300613Y-41795921D01*
X79279543Y-41785956D01*
X79259552Y-41773974D01*
X79240832Y-41760090D01*
X79223562Y-41744438D01*
X79207910Y-41727168D01*
X79194026Y-41708448D01*
X79182044Y-41688457D01*
X79172079Y-41667387D01*
X79164227Y-41645443D01*
X79158563Y-41622834D01*
X79155144Y-41599779D01*
X79154000Y-41576500D01*
X79154000Y-41001500D01*
X79155144Y-40978221D01*
X79158563Y-40955166D01*
X79164227Y-40932557D01*
X79172079Y-40910613D01*
X79182044Y-40889543D01*
X79194026Y-40869552D01*
X79207910Y-40850832D01*
X79223562Y-40833562D01*
X79240832Y-40817910D01*
X79259552Y-40804026D01*
X79279543Y-40792044D01*
X79300613Y-40782079D01*
X79322557Y-40774227D01*
X79345166Y-40768563D01*
X79368221Y-40765144D01*
X79391500Y-40764000D01*
X79866500Y-40764000D01*
X79889779Y-40765144D01*
G37*
G04 #@! TD.AperFunction*
D19*
X53721000Y-47810000D03*
D20*
X53721000Y-44000000D03*
G04 #@! TA.AperFunction,SMDPad,CuDef*
D10*
G36*
X58553779Y-40003144D02*
G01*
X58576834Y-40006563D01*
X58599443Y-40012227D01*
X58621387Y-40020079D01*
X58642457Y-40030044D01*
X58662448Y-40042026D01*
X58681168Y-40055910D01*
X58698438Y-40071562D01*
X58714090Y-40088832D01*
X58727974Y-40107552D01*
X58739956Y-40127543D01*
X58749921Y-40148613D01*
X58757773Y-40170557D01*
X58763437Y-40193166D01*
X58766856Y-40216221D01*
X58768000Y-40239500D01*
X58768000Y-40814500D01*
X58766856Y-40837779D01*
X58763437Y-40860834D01*
X58757773Y-40883443D01*
X58749921Y-40905387D01*
X58739956Y-40926457D01*
X58727974Y-40946448D01*
X58714090Y-40965168D01*
X58698438Y-40982438D01*
X58681168Y-40998090D01*
X58662448Y-41011974D01*
X58642457Y-41023956D01*
X58621387Y-41033921D01*
X58599443Y-41041773D01*
X58576834Y-41047437D01*
X58553779Y-41050856D01*
X58530500Y-41052000D01*
X58055500Y-41052000D01*
X58032221Y-41050856D01*
X58009166Y-41047437D01*
X57986557Y-41041773D01*
X57964613Y-41033921D01*
X57943543Y-41023956D01*
X57923552Y-41011974D01*
X57904832Y-40998090D01*
X57887562Y-40982438D01*
X57871910Y-40965168D01*
X57858026Y-40946448D01*
X57846044Y-40926457D01*
X57836079Y-40905387D01*
X57828227Y-40883443D01*
X57822563Y-40860834D01*
X57819144Y-40837779D01*
X57818000Y-40814500D01*
X57818000Y-40239500D01*
X57819144Y-40216221D01*
X57822563Y-40193166D01*
X57828227Y-40170557D01*
X57836079Y-40148613D01*
X57846044Y-40127543D01*
X57858026Y-40107552D01*
X57871910Y-40088832D01*
X57887562Y-40071562D01*
X57904832Y-40055910D01*
X57923552Y-40042026D01*
X57943543Y-40030044D01*
X57964613Y-40020079D01*
X57986557Y-40012227D01*
X58009166Y-40006563D01*
X58032221Y-40003144D01*
X58055500Y-40002000D01*
X58530500Y-40002000D01*
X58553779Y-40003144D01*
G37*
G04 #@! TD.AperFunction*
G04 #@! TA.AperFunction,SMDPad,CuDef*
G36*
X58553779Y-41753144D02*
G01*
X58576834Y-41756563D01*
X58599443Y-41762227D01*
X58621387Y-41770079D01*
X58642457Y-41780044D01*
X58662448Y-41792026D01*
X58681168Y-41805910D01*
X58698438Y-41821562D01*
X58714090Y-41838832D01*
X58727974Y-41857552D01*
X58739956Y-41877543D01*
X58749921Y-41898613D01*
X58757773Y-41920557D01*
X58763437Y-41943166D01*
X58766856Y-41966221D01*
X58768000Y-41989500D01*
X58768000Y-42564500D01*
X58766856Y-42587779D01*
X58763437Y-42610834D01*
X58757773Y-42633443D01*
X58749921Y-42655387D01*
X58739956Y-42676457D01*
X58727974Y-42696448D01*
X58714090Y-42715168D01*
X58698438Y-42732438D01*
X58681168Y-42748090D01*
X58662448Y-42761974D01*
X58642457Y-42773956D01*
X58621387Y-42783921D01*
X58599443Y-42791773D01*
X58576834Y-42797437D01*
X58553779Y-42800856D01*
X58530500Y-42802000D01*
X58055500Y-42802000D01*
X58032221Y-42800856D01*
X58009166Y-42797437D01*
X57986557Y-42791773D01*
X57964613Y-42783921D01*
X57943543Y-42773956D01*
X57923552Y-42761974D01*
X57904832Y-42748090D01*
X57887562Y-42732438D01*
X57871910Y-42715168D01*
X57858026Y-42696448D01*
X57846044Y-42676457D01*
X57836079Y-42655387D01*
X57828227Y-42633443D01*
X57822563Y-42610834D01*
X57819144Y-42587779D01*
X57818000Y-42564500D01*
X57818000Y-41989500D01*
X57819144Y-41966221D01*
X57822563Y-41943166D01*
X57828227Y-41920557D01*
X57836079Y-41898613D01*
X57846044Y-41877543D01*
X57858026Y-41857552D01*
X57871910Y-41838832D01*
X57887562Y-41821562D01*
X57904832Y-41805910D01*
X57923552Y-41792026D01*
X57943543Y-41780044D01*
X57964613Y-41770079D01*
X57986557Y-41762227D01*
X58009166Y-41756563D01*
X58032221Y-41753144D01*
X58055500Y-41752000D01*
X58530500Y-41752000D01*
X58553779Y-41753144D01*
G37*
G04 #@! TD.AperFunction*
G04 #@! TA.AperFunction,SMDPad,CuDef*
G36*
X57029779Y-40003144D02*
G01*
X57052834Y-40006563D01*
X57075443Y-40012227D01*
X57097387Y-40020079D01*
X57118457Y-40030044D01*
X57138448Y-40042026D01*
X57157168Y-40055910D01*
X57174438Y-40071562D01*
X57190090Y-40088832D01*
X57203974Y-40107552D01*
X57215956Y-40127543D01*
X57225921Y-40148613D01*
X57233773Y-40170557D01*
X57239437Y-40193166D01*
X57242856Y-40216221D01*
X57244000Y-40239500D01*
X57244000Y-40814500D01*
X57242856Y-40837779D01*
X57239437Y-40860834D01*
X57233773Y-40883443D01*
X57225921Y-40905387D01*
X57215956Y-40926457D01*
X57203974Y-40946448D01*
X57190090Y-40965168D01*
X57174438Y-40982438D01*
X57157168Y-40998090D01*
X57138448Y-41011974D01*
X57118457Y-41023956D01*
X57097387Y-41033921D01*
X57075443Y-41041773D01*
X57052834Y-41047437D01*
X57029779Y-41050856D01*
X57006500Y-41052000D01*
X56531500Y-41052000D01*
X56508221Y-41050856D01*
X56485166Y-41047437D01*
X56462557Y-41041773D01*
X56440613Y-41033921D01*
X56419543Y-41023956D01*
X56399552Y-41011974D01*
X56380832Y-40998090D01*
X56363562Y-40982438D01*
X56347910Y-40965168D01*
X56334026Y-40946448D01*
X56322044Y-40926457D01*
X56312079Y-40905387D01*
X56304227Y-40883443D01*
X56298563Y-40860834D01*
X56295144Y-40837779D01*
X56294000Y-40814500D01*
X56294000Y-40239500D01*
X56295144Y-40216221D01*
X56298563Y-40193166D01*
X56304227Y-40170557D01*
X56312079Y-40148613D01*
X56322044Y-40127543D01*
X56334026Y-40107552D01*
X56347910Y-40088832D01*
X56363562Y-40071562D01*
X56380832Y-40055910D01*
X56399552Y-40042026D01*
X56419543Y-40030044D01*
X56440613Y-40020079D01*
X56462557Y-40012227D01*
X56485166Y-40006563D01*
X56508221Y-40003144D01*
X56531500Y-40002000D01*
X57006500Y-40002000D01*
X57029779Y-40003144D01*
G37*
G04 #@! TD.AperFunction*
G04 #@! TA.AperFunction,SMDPad,CuDef*
G36*
X57029779Y-41753144D02*
G01*
X57052834Y-41756563D01*
X57075443Y-41762227D01*
X57097387Y-41770079D01*
X57118457Y-41780044D01*
X57138448Y-41792026D01*
X57157168Y-41805910D01*
X57174438Y-41821562D01*
X57190090Y-41838832D01*
X57203974Y-41857552D01*
X57215956Y-41877543D01*
X57225921Y-41898613D01*
X57233773Y-41920557D01*
X57239437Y-41943166D01*
X57242856Y-41966221D01*
X57244000Y-41989500D01*
X57244000Y-42564500D01*
X57242856Y-42587779D01*
X57239437Y-42610834D01*
X57233773Y-42633443D01*
X57225921Y-42655387D01*
X57215956Y-42676457D01*
X57203974Y-42696448D01*
X57190090Y-42715168D01*
X57174438Y-42732438D01*
X57157168Y-42748090D01*
X57138448Y-42761974D01*
X57118457Y-42773956D01*
X57097387Y-42783921D01*
X57075443Y-42791773D01*
X57052834Y-42797437D01*
X57029779Y-42800856D01*
X57006500Y-42802000D01*
X56531500Y-42802000D01*
X56508221Y-42800856D01*
X56485166Y-42797437D01*
X56462557Y-42791773D01*
X56440613Y-42783921D01*
X56419543Y-42773956D01*
X56399552Y-42761974D01*
X56380832Y-42748090D01*
X56363562Y-42732438D01*
X56347910Y-42715168D01*
X56334026Y-42696448D01*
X56322044Y-42676457D01*
X56312079Y-42655387D01*
X56304227Y-42633443D01*
X56298563Y-42610834D01*
X56295144Y-42587779D01*
X56294000Y-42564500D01*
X56294000Y-41989500D01*
X56295144Y-41966221D01*
X56298563Y-41943166D01*
X56304227Y-41920557D01*
X56312079Y-41898613D01*
X56322044Y-41877543D01*
X56334026Y-41857552D01*
X56347910Y-41838832D01*
X56363562Y-41821562D01*
X56380832Y-41805910D01*
X56399552Y-41792026D01*
X56419543Y-41780044D01*
X56440613Y-41770079D01*
X56462557Y-41762227D01*
X56485166Y-41756563D01*
X56508221Y-41753144D01*
X56531500Y-41752000D01*
X57006500Y-41752000D01*
X57029779Y-41753144D01*
G37*
G04 #@! TD.AperFunction*
G04 #@! TA.AperFunction,SMDPad,CuDef*
G36*
X74682779Y-62736144D02*
G01*
X74705834Y-62739563D01*
X74728443Y-62745227D01*
X74750387Y-62753079D01*
X74771457Y-62763044D01*
X74791448Y-62775026D01*
X74810168Y-62788910D01*
X74827438Y-62804562D01*
X74843090Y-62821832D01*
X74856974Y-62840552D01*
X74868956Y-62860543D01*
X74878921Y-62881613D01*
X74886773Y-62903557D01*
X74892437Y-62926166D01*
X74895856Y-62949221D01*
X74897000Y-62972500D01*
X74897000Y-63547500D01*
X74895856Y-63570779D01*
X74892437Y-63593834D01*
X74886773Y-63616443D01*
X74878921Y-63638387D01*
X74868956Y-63659457D01*
X74856974Y-63679448D01*
X74843090Y-63698168D01*
X74827438Y-63715438D01*
X74810168Y-63731090D01*
X74791448Y-63744974D01*
X74771457Y-63756956D01*
X74750387Y-63766921D01*
X74728443Y-63774773D01*
X74705834Y-63780437D01*
X74682779Y-63783856D01*
X74659500Y-63785000D01*
X74184500Y-63785000D01*
X74161221Y-63783856D01*
X74138166Y-63780437D01*
X74115557Y-63774773D01*
X74093613Y-63766921D01*
X74072543Y-63756956D01*
X74052552Y-63744974D01*
X74033832Y-63731090D01*
X74016562Y-63715438D01*
X74000910Y-63698168D01*
X73987026Y-63679448D01*
X73975044Y-63659457D01*
X73965079Y-63638387D01*
X73957227Y-63616443D01*
X73951563Y-63593834D01*
X73948144Y-63570779D01*
X73947000Y-63547500D01*
X73947000Y-62972500D01*
X73948144Y-62949221D01*
X73951563Y-62926166D01*
X73957227Y-62903557D01*
X73965079Y-62881613D01*
X73975044Y-62860543D01*
X73987026Y-62840552D01*
X74000910Y-62821832D01*
X74016562Y-62804562D01*
X74033832Y-62788910D01*
X74052552Y-62775026D01*
X74072543Y-62763044D01*
X74093613Y-62753079D01*
X74115557Y-62745227D01*
X74138166Y-62739563D01*
X74161221Y-62736144D01*
X74184500Y-62735000D01*
X74659500Y-62735000D01*
X74682779Y-62736144D01*
G37*
G04 #@! TD.AperFunction*
G04 #@! TA.AperFunction,SMDPad,CuDef*
G36*
X74682779Y-64486144D02*
G01*
X74705834Y-64489563D01*
X74728443Y-64495227D01*
X74750387Y-64503079D01*
X74771457Y-64513044D01*
X74791448Y-64525026D01*
X74810168Y-64538910D01*
X74827438Y-64554562D01*
X74843090Y-64571832D01*
X74856974Y-64590552D01*
X74868956Y-64610543D01*
X74878921Y-64631613D01*
X74886773Y-64653557D01*
X74892437Y-64676166D01*
X74895856Y-64699221D01*
X74897000Y-64722500D01*
X74897000Y-65297500D01*
X74895856Y-65320779D01*
X74892437Y-65343834D01*
X74886773Y-65366443D01*
X74878921Y-65388387D01*
X74868956Y-65409457D01*
X74856974Y-65429448D01*
X74843090Y-65448168D01*
X74827438Y-65465438D01*
X74810168Y-65481090D01*
X74791448Y-65494974D01*
X74771457Y-65506956D01*
X74750387Y-65516921D01*
X74728443Y-65524773D01*
X74705834Y-65530437D01*
X74682779Y-65533856D01*
X74659500Y-65535000D01*
X74184500Y-65535000D01*
X74161221Y-65533856D01*
X74138166Y-65530437D01*
X74115557Y-65524773D01*
X74093613Y-65516921D01*
X74072543Y-65506956D01*
X74052552Y-65494974D01*
X74033832Y-65481090D01*
X74016562Y-65465438D01*
X74000910Y-65448168D01*
X73987026Y-65429448D01*
X73975044Y-65409457D01*
X73965079Y-65388387D01*
X73957227Y-65366443D01*
X73951563Y-65343834D01*
X73948144Y-65320779D01*
X73947000Y-65297500D01*
X73947000Y-64722500D01*
X73948144Y-64699221D01*
X73951563Y-64676166D01*
X73957227Y-64653557D01*
X73965079Y-64631613D01*
X73975044Y-64610543D01*
X73987026Y-64590552D01*
X74000910Y-64571832D01*
X74016562Y-64554562D01*
X74033832Y-64538910D01*
X74052552Y-64525026D01*
X74072543Y-64513044D01*
X74093613Y-64503079D01*
X74115557Y-64495227D01*
X74138166Y-64489563D01*
X74161221Y-64486144D01*
X74184500Y-64485000D01*
X74659500Y-64485000D01*
X74682779Y-64486144D01*
G37*
G04 #@! TD.AperFunction*
G04 #@! TA.AperFunction,SMDPad,CuDef*
G36*
X67443779Y-64260144D02*
G01*
X67466834Y-64263563D01*
X67489443Y-64269227D01*
X67511387Y-64277079D01*
X67532457Y-64287044D01*
X67552448Y-64299026D01*
X67571168Y-64312910D01*
X67588438Y-64328562D01*
X67604090Y-64345832D01*
X67617974Y-64364552D01*
X67629956Y-64384543D01*
X67639921Y-64405613D01*
X67647773Y-64427557D01*
X67653437Y-64450166D01*
X67656856Y-64473221D01*
X67658000Y-64496500D01*
X67658000Y-65071500D01*
X67656856Y-65094779D01*
X67653437Y-65117834D01*
X67647773Y-65140443D01*
X67639921Y-65162387D01*
X67629956Y-65183457D01*
X67617974Y-65203448D01*
X67604090Y-65222168D01*
X67588438Y-65239438D01*
X67571168Y-65255090D01*
X67552448Y-65268974D01*
X67532457Y-65280956D01*
X67511387Y-65290921D01*
X67489443Y-65298773D01*
X67466834Y-65304437D01*
X67443779Y-65307856D01*
X67420500Y-65309000D01*
X66945500Y-65309000D01*
X66922221Y-65307856D01*
X66899166Y-65304437D01*
X66876557Y-65298773D01*
X66854613Y-65290921D01*
X66833543Y-65280956D01*
X66813552Y-65268974D01*
X66794832Y-65255090D01*
X66777562Y-65239438D01*
X66761910Y-65222168D01*
X66748026Y-65203448D01*
X66736044Y-65183457D01*
X66726079Y-65162387D01*
X66718227Y-65140443D01*
X66712563Y-65117834D01*
X66709144Y-65094779D01*
X66708000Y-65071500D01*
X66708000Y-64496500D01*
X66709144Y-64473221D01*
X66712563Y-64450166D01*
X66718227Y-64427557D01*
X66726079Y-64405613D01*
X66736044Y-64384543D01*
X66748026Y-64364552D01*
X66761910Y-64345832D01*
X66777562Y-64328562D01*
X66794832Y-64312910D01*
X66813552Y-64299026D01*
X66833543Y-64287044D01*
X66854613Y-64277079D01*
X66876557Y-64269227D01*
X66899166Y-64263563D01*
X66922221Y-64260144D01*
X66945500Y-64259000D01*
X67420500Y-64259000D01*
X67443779Y-64260144D01*
G37*
G04 #@! TD.AperFunction*
G04 #@! TA.AperFunction,SMDPad,CuDef*
G36*
X67443779Y-66010144D02*
G01*
X67466834Y-66013563D01*
X67489443Y-66019227D01*
X67511387Y-66027079D01*
X67532457Y-66037044D01*
X67552448Y-66049026D01*
X67571168Y-66062910D01*
X67588438Y-66078562D01*
X67604090Y-66095832D01*
X67617974Y-66114552D01*
X67629956Y-66134543D01*
X67639921Y-66155613D01*
X67647773Y-66177557D01*
X67653437Y-66200166D01*
X67656856Y-66223221D01*
X67658000Y-66246500D01*
X67658000Y-66821500D01*
X67656856Y-66844779D01*
X67653437Y-66867834D01*
X67647773Y-66890443D01*
X67639921Y-66912387D01*
X67629956Y-66933457D01*
X67617974Y-66953448D01*
X67604090Y-66972168D01*
X67588438Y-66989438D01*
X67571168Y-67005090D01*
X67552448Y-67018974D01*
X67532457Y-67030956D01*
X67511387Y-67040921D01*
X67489443Y-67048773D01*
X67466834Y-67054437D01*
X67443779Y-67057856D01*
X67420500Y-67059000D01*
X66945500Y-67059000D01*
X66922221Y-67057856D01*
X66899166Y-67054437D01*
X66876557Y-67048773D01*
X66854613Y-67040921D01*
X66833543Y-67030956D01*
X66813552Y-67018974D01*
X66794832Y-67005090D01*
X66777562Y-66989438D01*
X66761910Y-66972168D01*
X66748026Y-66953448D01*
X66736044Y-66933457D01*
X66726079Y-66912387D01*
X66718227Y-66890443D01*
X66712563Y-66867834D01*
X66709144Y-66844779D01*
X66708000Y-66821500D01*
X66708000Y-66246500D01*
X66709144Y-66223221D01*
X66712563Y-66200166D01*
X66718227Y-66177557D01*
X66726079Y-66155613D01*
X66736044Y-66134543D01*
X66748026Y-66114552D01*
X66761910Y-66095832D01*
X66777562Y-66078562D01*
X66794832Y-66062910D01*
X66813552Y-66049026D01*
X66833543Y-66037044D01*
X66854613Y-66027079D01*
X66876557Y-66019227D01*
X66899166Y-66013563D01*
X66922221Y-66010144D01*
X66945500Y-66009000D01*
X67420500Y-66009000D01*
X67443779Y-66010144D01*
G37*
G04 #@! TD.AperFunction*
G04 #@! TA.AperFunction,SMDPad,CuDef*
G36*
X73031779Y-62736144D02*
G01*
X73054834Y-62739563D01*
X73077443Y-62745227D01*
X73099387Y-62753079D01*
X73120457Y-62763044D01*
X73140448Y-62775026D01*
X73159168Y-62788910D01*
X73176438Y-62804562D01*
X73192090Y-62821832D01*
X73205974Y-62840552D01*
X73217956Y-62860543D01*
X73227921Y-62881613D01*
X73235773Y-62903557D01*
X73241437Y-62926166D01*
X73244856Y-62949221D01*
X73246000Y-62972500D01*
X73246000Y-63547500D01*
X73244856Y-63570779D01*
X73241437Y-63593834D01*
X73235773Y-63616443D01*
X73227921Y-63638387D01*
X73217956Y-63659457D01*
X73205974Y-63679448D01*
X73192090Y-63698168D01*
X73176438Y-63715438D01*
X73159168Y-63731090D01*
X73140448Y-63744974D01*
X73120457Y-63756956D01*
X73099387Y-63766921D01*
X73077443Y-63774773D01*
X73054834Y-63780437D01*
X73031779Y-63783856D01*
X73008500Y-63785000D01*
X72533500Y-63785000D01*
X72510221Y-63783856D01*
X72487166Y-63780437D01*
X72464557Y-63774773D01*
X72442613Y-63766921D01*
X72421543Y-63756956D01*
X72401552Y-63744974D01*
X72382832Y-63731090D01*
X72365562Y-63715438D01*
X72349910Y-63698168D01*
X72336026Y-63679448D01*
X72324044Y-63659457D01*
X72314079Y-63638387D01*
X72306227Y-63616443D01*
X72300563Y-63593834D01*
X72297144Y-63570779D01*
X72296000Y-63547500D01*
X72296000Y-62972500D01*
X72297144Y-62949221D01*
X72300563Y-62926166D01*
X72306227Y-62903557D01*
X72314079Y-62881613D01*
X72324044Y-62860543D01*
X72336026Y-62840552D01*
X72349910Y-62821832D01*
X72365562Y-62804562D01*
X72382832Y-62788910D01*
X72401552Y-62775026D01*
X72421543Y-62763044D01*
X72442613Y-62753079D01*
X72464557Y-62745227D01*
X72487166Y-62739563D01*
X72510221Y-62736144D01*
X72533500Y-62735000D01*
X73008500Y-62735000D01*
X73031779Y-62736144D01*
G37*
G04 #@! TD.AperFunction*
G04 #@! TA.AperFunction,SMDPad,CuDef*
G36*
X73031779Y-64486144D02*
G01*
X73054834Y-64489563D01*
X73077443Y-64495227D01*
X73099387Y-64503079D01*
X73120457Y-64513044D01*
X73140448Y-64525026D01*
X73159168Y-64538910D01*
X73176438Y-64554562D01*
X73192090Y-64571832D01*
X73205974Y-64590552D01*
X73217956Y-64610543D01*
X73227921Y-64631613D01*
X73235773Y-64653557D01*
X73241437Y-64676166D01*
X73244856Y-64699221D01*
X73246000Y-64722500D01*
X73246000Y-65297500D01*
X73244856Y-65320779D01*
X73241437Y-65343834D01*
X73235773Y-65366443D01*
X73227921Y-65388387D01*
X73217956Y-65409457D01*
X73205974Y-65429448D01*
X73192090Y-65448168D01*
X73176438Y-65465438D01*
X73159168Y-65481090D01*
X73140448Y-65494974D01*
X73120457Y-65506956D01*
X73099387Y-65516921D01*
X73077443Y-65524773D01*
X73054834Y-65530437D01*
X73031779Y-65533856D01*
X73008500Y-65535000D01*
X72533500Y-65535000D01*
X72510221Y-65533856D01*
X72487166Y-65530437D01*
X72464557Y-65524773D01*
X72442613Y-65516921D01*
X72421543Y-65506956D01*
X72401552Y-65494974D01*
X72382832Y-65481090D01*
X72365562Y-65465438D01*
X72349910Y-65448168D01*
X72336026Y-65429448D01*
X72324044Y-65409457D01*
X72314079Y-65388387D01*
X72306227Y-65366443D01*
X72300563Y-65343834D01*
X72297144Y-65320779D01*
X72296000Y-65297500D01*
X72296000Y-64722500D01*
X72297144Y-64699221D01*
X72300563Y-64676166D01*
X72306227Y-64653557D01*
X72314079Y-64631613D01*
X72324044Y-64610543D01*
X72336026Y-64590552D01*
X72349910Y-64571832D01*
X72365562Y-64554562D01*
X72382832Y-64538910D01*
X72401552Y-64525026D01*
X72421543Y-64513044D01*
X72442613Y-64503079D01*
X72464557Y-64495227D01*
X72487166Y-64489563D01*
X72510221Y-64486144D01*
X72533500Y-64485000D01*
X73008500Y-64485000D01*
X73031779Y-64486144D01*
G37*
G04 #@! TD.AperFunction*
D20*
X82677000Y-43561000D03*
D19*
X82677000Y-47371000D03*
D20*
X54483000Y-69000000D03*
D19*
X54483000Y-65190000D03*
D20*
X82550000Y-69000000D03*
D19*
X82550000Y-65190000D03*
D21*
X69002000Y-63586000D03*
X69652000Y-63586000D03*
X70302000Y-63586000D03*
X70952000Y-63586000D03*
X70952000Y-67986000D03*
X70302000Y-67986000D03*
X69652000Y-67986000D03*
X69002000Y-67986000D03*
D22*
X77445000Y-40506000D03*
X77445000Y-41776000D03*
X77445000Y-43046000D03*
X77445000Y-44316000D03*
X77445000Y-45586000D03*
X77445000Y-46856000D03*
X77445000Y-48126000D03*
X77445000Y-49396000D03*
X77445000Y-50666000D03*
X77445000Y-51936000D03*
X77445000Y-53206000D03*
X77445000Y-54476000D03*
X77445000Y-55746000D03*
X77445000Y-57016000D03*
D23*
X74660000Y-58016000D03*
X73390000Y-58016000D03*
X72120000Y-58016000D03*
X70850000Y-58016000D03*
X69580000Y-58016000D03*
X68310000Y-58016000D03*
X67040000Y-58016000D03*
X65770000Y-58016000D03*
X64500000Y-58016000D03*
X63230000Y-58016000D03*
D22*
X60445000Y-57016000D03*
X60445000Y-55746000D03*
X60445000Y-54476000D03*
X60445000Y-53206000D03*
X60445000Y-51936000D03*
X60445000Y-50666000D03*
X60445000Y-49396000D03*
X60445000Y-48126000D03*
X60445000Y-46856000D03*
X60445000Y-45586000D03*
X60445000Y-44316000D03*
X60445000Y-43046000D03*
X60445000Y-41776000D03*
X60445000Y-40506000D03*
D24*
X67945000Y-48006000D03*
G04 #@! TA.AperFunction,SMDPad,CuDef*
D10*
G36*
X57791779Y-50516144D02*
G01*
X57814834Y-50519563D01*
X57837443Y-50525227D01*
X57859387Y-50533079D01*
X57880457Y-50543044D01*
X57900448Y-50555026D01*
X57919168Y-50568910D01*
X57936438Y-50584562D01*
X57952090Y-50601832D01*
X57965974Y-50620552D01*
X57977956Y-50640543D01*
X57987921Y-50661613D01*
X57995773Y-50683557D01*
X58001437Y-50706166D01*
X58004856Y-50729221D01*
X58006000Y-50752500D01*
X58006000Y-51327500D01*
X58004856Y-51350779D01*
X58001437Y-51373834D01*
X57995773Y-51396443D01*
X57987921Y-51418387D01*
X57977956Y-51439457D01*
X57965974Y-51459448D01*
X57952090Y-51478168D01*
X57936438Y-51495438D01*
X57919168Y-51511090D01*
X57900448Y-51524974D01*
X57880457Y-51536956D01*
X57859387Y-51546921D01*
X57837443Y-51554773D01*
X57814834Y-51560437D01*
X57791779Y-51563856D01*
X57768500Y-51565000D01*
X57293500Y-51565000D01*
X57270221Y-51563856D01*
X57247166Y-51560437D01*
X57224557Y-51554773D01*
X57202613Y-51546921D01*
X57181543Y-51536956D01*
X57161552Y-51524974D01*
X57142832Y-51511090D01*
X57125562Y-51495438D01*
X57109910Y-51478168D01*
X57096026Y-51459448D01*
X57084044Y-51439457D01*
X57074079Y-51418387D01*
X57066227Y-51396443D01*
X57060563Y-51373834D01*
X57057144Y-51350779D01*
X57056000Y-51327500D01*
X57056000Y-50752500D01*
X57057144Y-50729221D01*
X57060563Y-50706166D01*
X57066227Y-50683557D01*
X57074079Y-50661613D01*
X57084044Y-50640543D01*
X57096026Y-50620552D01*
X57109910Y-50601832D01*
X57125562Y-50584562D01*
X57142832Y-50568910D01*
X57161552Y-50555026D01*
X57181543Y-50543044D01*
X57202613Y-50533079D01*
X57224557Y-50525227D01*
X57247166Y-50519563D01*
X57270221Y-50516144D01*
X57293500Y-50515000D01*
X57768500Y-50515000D01*
X57791779Y-50516144D01*
G37*
G04 #@! TD.AperFunction*
G04 #@! TA.AperFunction,SMDPad,CuDef*
G36*
X57791779Y-48766144D02*
G01*
X57814834Y-48769563D01*
X57837443Y-48775227D01*
X57859387Y-48783079D01*
X57880457Y-48793044D01*
X57900448Y-48805026D01*
X57919168Y-48818910D01*
X57936438Y-48834562D01*
X57952090Y-48851832D01*
X57965974Y-48870552D01*
X57977956Y-48890543D01*
X57987921Y-48911613D01*
X57995773Y-48933557D01*
X58001437Y-48956166D01*
X58004856Y-48979221D01*
X58006000Y-49002500D01*
X58006000Y-49577500D01*
X58004856Y-49600779D01*
X58001437Y-49623834D01*
X57995773Y-49646443D01*
X57987921Y-49668387D01*
X57977956Y-49689457D01*
X57965974Y-49709448D01*
X57952090Y-49728168D01*
X57936438Y-49745438D01*
X57919168Y-49761090D01*
X57900448Y-49774974D01*
X57880457Y-49786956D01*
X57859387Y-49796921D01*
X57837443Y-49804773D01*
X57814834Y-49810437D01*
X57791779Y-49813856D01*
X57768500Y-49815000D01*
X57293500Y-49815000D01*
X57270221Y-49813856D01*
X57247166Y-49810437D01*
X57224557Y-49804773D01*
X57202613Y-49796921D01*
X57181543Y-49786956D01*
X57161552Y-49774974D01*
X57142832Y-49761090D01*
X57125562Y-49745438D01*
X57109910Y-49728168D01*
X57096026Y-49709448D01*
X57084044Y-49689457D01*
X57074079Y-49668387D01*
X57066227Y-49646443D01*
X57060563Y-49623834D01*
X57057144Y-49600779D01*
X57056000Y-49577500D01*
X57056000Y-49002500D01*
X57057144Y-48979221D01*
X57060563Y-48956166D01*
X57066227Y-48933557D01*
X57074079Y-48911613D01*
X57084044Y-48890543D01*
X57096026Y-48870552D01*
X57109910Y-48851832D01*
X57125562Y-48834562D01*
X57142832Y-48818910D01*
X57161552Y-48805026D01*
X57181543Y-48793044D01*
X57202613Y-48783079D01*
X57224557Y-48775227D01*
X57247166Y-48769563D01*
X57270221Y-48766144D01*
X57293500Y-48765000D01*
X57768500Y-48765000D01*
X57791779Y-48766144D01*
G37*
G04 #@! TD.AperFunction*
G04 #@! TA.AperFunction,SMDPad,CuDef*
G36*
X57791779Y-46960144D02*
G01*
X57814834Y-46963563D01*
X57837443Y-46969227D01*
X57859387Y-46977079D01*
X57880457Y-46987044D01*
X57900448Y-46999026D01*
X57919168Y-47012910D01*
X57936438Y-47028562D01*
X57952090Y-47045832D01*
X57965974Y-47064552D01*
X57977956Y-47084543D01*
X57987921Y-47105613D01*
X57995773Y-47127557D01*
X58001437Y-47150166D01*
X58004856Y-47173221D01*
X58006000Y-47196500D01*
X58006000Y-47771500D01*
X58004856Y-47794779D01*
X58001437Y-47817834D01*
X57995773Y-47840443D01*
X57987921Y-47862387D01*
X57977956Y-47883457D01*
X57965974Y-47903448D01*
X57952090Y-47922168D01*
X57936438Y-47939438D01*
X57919168Y-47955090D01*
X57900448Y-47968974D01*
X57880457Y-47980956D01*
X57859387Y-47990921D01*
X57837443Y-47998773D01*
X57814834Y-48004437D01*
X57791779Y-48007856D01*
X57768500Y-48009000D01*
X57293500Y-48009000D01*
X57270221Y-48007856D01*
X57247166Y-48004437D01*
X57224557Y-47998773D01*
X57202613Y-47990921D01*
X57181543Y-47980956D01*
X57161552Y-47968974D01*
X57142832Y-47955090D01*
X57125562Y-47939438D01*
X57109910Y-47922168D01*
X57096026Y-47903448D01*
X57084044Y-47883457D01*
X57074079Y-47862387D01*
X57066227Y-47840443D01*
X57060563Y-47817834D01*
X57057144Y-47794779D01*
X57056000Y-47771500D01*
X57056000Y-47196500D01*
X57057144Y-47173221D01*
X57060563Y-47150166D01*
X57066227Y-47127557D01*
X57074079Y-47105613D01*
X57084044Y-47084543D01*
X57096026Y-47064552D01*
X57109910Y-47045832D01*
X57125562Y-47028562D01*
X57142832Y-47012910D01*
X57161552Y-46999026D01*
X57181543Y-46987044D01*
X57202613Y-46977079D01*
X57224557Y-46969227D01*
X57247166Y-46963563D01*
X57270221Y-46960144D01*
X57293500Y-46959000D01*
X57768500Y-46959000D01*
X57791779Y-46960144D01*
G37*
G04 #@! TD.AperFunction*
G04 #@! TA.AperFunction,SMDPad,CuDef*
G36*
X57791779Y-45210144D02*
G01*
X57814834Y-45213563D01*
X57837443Y-45219227D01*
X57859387Y-45227079D01*
X57880457Y-45237044D01*
X57900448Y-45249026D01*
X57919168Y-45262910D01*
X57936438Y-45278562D01*
X57952090Y-45295832D01*
X57965974Y-45314552D01*
X57977956Y-45334543D01*
X57987921Y-45355613D01*
X57995773Y-45377557D01*
X58001437Y-45400166D01*
X58004856Y-45423221D01*
X58006000Y-45446500D01*
X58006000Y-46021500D01*
X58004856Y-46044779D01*
X58001437Y-46067834D01*
X57995773Y-46090443D01*
X57987921Y-46112387D01*
X57977956Y-46133457D01*
X57965974Y-46153448D01*
X57952090Y-46172168D01*
X57936438Y-46189438D01*
X57919168Y-46205090D01*
X57900448Y-46218974D01*
X57880457Y-46230956D01*
X57859387Y-46240921D01*
X57837443Y-46248773D01*
X57814834Y-46254437D01*
X57791779Y-46257856D01*
X57768500Y-46259000D01*
X57293500Y-46259000D01*
X57270221Y-46257856D01*
X57247166Y-46254437D01*
X57224557Y-46248773D01*
X57202613Y-46240921D01*
X57181543Y-46230956D01*
X57161552Y-46218974D01*
X57142832Y-46205090D01*
X57125562Y-46189438D01*
X57109910Y-46172168D01*
X57096026Y-46153448D01*
X57084044Y-46133457D01*
X57074079Y-46112387D01*
X57066227Y-46090443D01*
X57060563Y-46067834D01*
X57057144Y-46044779D01*
X57056000Y-46021500D01*
X57056000Y-45446500D01*
X57057144Y-45423221D01*
X57060563Y-45400166D01*
X57066227Y-45377557D01*
X57074079Y-45355613D01*
X57084044Y-45334543D01*
X57096026Y-45314552D01*
X57109910Y-45295832D01*
X57125562Y-45278562D01*
X57142832Y-45262910D01*
X57161552Y-45249026D01*
X57181543Y-45237044D01*
X57202613Y-45227079D01*
X57224557Y-45219227D01*
X57247166Y-45213563D01*
X57270221Y-45210144D01*
X57293500Y-45209000D01*
X57768500Y-45209000D01*
X57791779Y-45210144D01*
G37*
G04 #@! TD.AperFunction*
G04 #@! TA.AperFunction,SMDPad,CuDef*
G36*
X58589779Y-43468144D02*
G01*
X58612834Y-43471563D01*
X58635443Y-43477227D01*
X58657387Y-43485079D01*
X58678457Y-43495044D01*
X58698448Y-43507026D01*
X58717168Y-43520910D01*
X58734438Y-43536562D01*
X58750090Y-43553832D01*
X58763974Y-43572552D01*
X58775956Y-43592543D01*
X58785921Y-43613613D01*
X58793773Y-43635557D01*
X58799437Y-43658166D01*
X58802856Y-43681221D01*
X58804000Y-43704500D01*
X58804000Y-44179500D01*
X58802856Y-44202779D01*
X58799437Y-44225834D01*
X58793773Y-44248443D01*
X58785921Y-44270387D01*
X58775956Y-44291457D01*
X58763974Y-44311448D01*
X58750090Y-44330168D01*
X58734438Y-44347438D01*
X58717168Y-44363090D01*
X58698448Y-44376974D01*
X58678457Y-44388956D01*
X58657387Y-44398921D01*
X58635443Y-44406773D01*
X58612834Y-44412437D01*
X58589779Y-44415856D01*
X58566500Y-44417000D01*
X57991500Y-44417000D01*
X57968221Y-44415856D01*
X57945166Y-44412437D01*
X57922557Y-44406773D01*
X57900613Y-44398921D01*
X57879543Y-44388956D01*
X57859552Y-44376974D01*
X57840832Y-44363090D01*
X57823562Y-44347438D01*
X57807910Y-44330168D01*
X57794026Y-44311448D01*
X57782044Y-44291457D01*
X57772079Y-44270387D01*
X57764227Y-44248443D01*
X57758563Y-44225834D01*
X57755144Y-44202779D01*
X57754000Y-44179500D01*
X57754000Y-43704500D01*
X57755144Y-43681221D01*
X57758563Y-43658166D01*
X57764227Y-43635557D01*
X57772079Y-43613613D01*
X57782044Y-43592543D01*
X57794026Y-43572552D01*
X57807910Y-43553832D01*
X57823562Y-43536562D01*
X57840832Y-43520910D01*
X57859552Y-43507026D01*
X57879543Y-43495044D01*
X57900613Y-43485079D01*
X57922557Y-43477227D01*
X57945166Y-43471563D01*
X57968221Y-43468144D01*
X57991500Y-43467000D01*
X58566500Y-43467000D01*
X58589779Y-43468144D01*
G37*
G04 #@! TD.AperFunction*
G04 #@! TA.AperFunction,SMDPad,CuDef*
G36*
X56839779Y-43468144D02*
G01*
X56862834Y-43471563D01*
X56885443Y-43477227D01*
X56907387Y-43485079D01*
X56928457Y-43495044D01*
X56948448Y-43507026D01*
X56967168Y-43520910D01*
X56984438Y-43536562D01*
X57000090Y-43553832D01*
X57013974Y-43572552D01*
X57025956Y-43592543D01*
X57035921Y-43613613D01*
X57043773Y-43635557D01*
X57049437Y-43658166D01*
X57052856Y-43681221D01*
X57054000Y-43704500D01*
X57054000Y-44179500D01*
X57052856Y-44202779D01*
X57049437Y-44225834D01*
X57043773Y-44248443D01*
X57035921Y-44270387D01*
X57025956Y-44291457D01*
X57013974Y-44311448D01*
X57000090Y-44330168D01*
X56984438Y-44347438D01*
X56967168Y-44363090D01*
X56948448Y-44376974D01*
X56928457Y-44388956D01*
X56907387Y-44398921D01*
X56885443Y-44406773D01*
X56862834Y-44412437D01*
X56839779Y-44415856D01*
X56816500Y-44417000D01*
X56241500Y-44417000D01*
X56218221Y-44415856D01*
X56195166Y-44412437D01*
X56172557Y-44406773D01*
X56150613Y-44398921D01*
X56129543Y-44388956D01*
X56109552Y-44376974D01*
X56090832Y-44363090D01*
X56073562Y-44347438D01*
X56057910Y-44330168D01*
X56044026Y-44311448D01*
X56032044Y-44291457D01*
X56022079Y-44270387D01*
X56014227Y-44248443D01*
X56008563Y-44225834D01*
X56005144Y-44202779D01*
X56004000Y-44179500D01*
X56004000Y-43704500D01*
X56005144Y-43681221D01*
X56008563Y-43658166D01*
X56014227Y-43635557D01*
X56022079Y-43613613D01*
X56032044Y-43592543D01*
X56044026Y-43572552D01*
X56057910Y-43553832D01*
X56073562Y-43536562D01*
X56090832Y-43520910D01*
X56109552Y-43507026D01*
X56129543Y-43495044D01*
X56150613Y-43485079D01*
X56172557Y-43477227D01*
X56195166Y-43471563D01*
X56218221Y-43468144D01*
X56241500Y-43467000D01*
X56816500Y-43467000D01*
X56839779Y-43468144D01*
G37*
G04 #@! TD.AperFunction*
D25*
X77978000Y-68707000D03*
X62484000Y-43053000D03*
X58928000Y-67056000D03*
X64897000Y-68199000D03*
X63246000Y-56261000D03*
X75120500Y-54800500D03*
X74930000Y-40386000D03*
X62357000Y-40386000D03*
X73914000Y-67818000D03*
X66167000Y-51943000D03*
X57404000Y-61341000D03*
X58674000Y-51054000D03*
X65786000Y-62103000D03*
X68834000Y-66192400D03*
X81550000Y-53406800D03*
X73914000Y-43180000D03*
X79502000Y-44323000D03*
X79502000Y-45593000D03*
X74168000Y-46736000D03*
X81280000Y-41148000D03*
X63627000Y-41783000D03*
X62484000Y-53213000D03*
X69723000Y-66660978D03*
X72390000Y-61738021D03*
X72184883Y-60288010D03*
X68122800Y-69621400D03*
X71853631Y-67983244D03*
X72880745Y-67985827D03*
X73213808Y-55563010D03*
X79854002Y-53565002D03*
D26*
X77445000Y-57716000D02*
X77978000Y-58249000D01*
X77445000Y-57016000D02*
X77445000Y-57716000D01*
X77978000Y-58249000D02*
X77978000Y-68707000D01*
X77978000Y-68707000D02*
X77978000Y-68707000D01*
X59195000Y-43046000D02*
X60445000Y-43046000D01*
X59055000Y-43186000D02*
X59195000Y-43046000D01*
X59055000Y-43815000D02*
X59055000Y-43186000D01*
X58279000Y-43942000D02*
X58928000Y-43942000D01*
X58928000Y-43942000D02*
X59055000Y-43815000D01*
X60452000Y-43053000D02*
X60445000Y-43046000D01*
X62484000Y-43053000D02*
X60452000Y-43053000D01*
X62865000Y-68199000D02*
X64897000Y-68199000D01*
X58928000Y-67056000D02*
X59327999Y-67455999D01*
X62121999Y-67455999D02*
X62865000Y-68199000D01*
X59327999Y-67455999D02*
X62121999Y-67455999D01*
X64897000Y-68199000D02*
X64897000Y-68199000D01*
X81475000Y-52183000D02*
X81550000Y-52258000D01*
X79883000Y-52183000D02*
X81475000Y-52183000D01*
X57531000Y-51040000D02*
X57531000Y-52719000D01*
X55991000Y-51374000D02*
X56068000Y-51374000D01*
X56402000Y-51040000D02*
X57531000Y-51040000D01*
X56068000Y-51374000D02*
X56402000Y-51040000D01*
X61200000Y-62216000D02*
X62103000Y-62216000D01*
X60325000Y-61341000D02*
X61200000Y-62216000D01*
X58786000Y-61341000D02*
X60325000Y-61341000D01*
X58613000Y-60468000D02*
X58613000Y-61168000D01*
X58613000Y-61168000D02*
X58786000Y-61341000D01*
X62103000Y-73660000D02*
X66824000Y-73660000D01*
X61214000Y-72771000D02*
X62103000Y-73660000D01*
X66824000Y-73660000D02*
X72644000Y-73660000D01*
X67271500Y-73212500D02*
X66824000Y-73660000D01*
X67271500Y-71360000D02*
X67271500Y-73212500D01*
X72196500Y-73212500D02*
X72644000Y-73660000D01*
X72196500Y-71360000D02*
X72196500Y-73212500D01*
X71394000Y-71360000D02*
X71034000Y-71000000D01*
X72196500Y-71360000D02*
X71394000Y-71360000D01*
X56769000Y-40527000D02*
X58293000Y-40527000D01*
X60424000Y-40527000D02*
X60445000Y-40506000D01*
X58293000Y-40527000D02*
X60424000Y-40527000D01*
X74422000Y-63260000D02*
X72771000Y-63260000D01*
X70952000Y-63586000D02*
X69002000Y-63586000D01*
X67351000Y-63586000D02*
X68527000Y-63586000D01*
X68527000Y-63586000D02*
X69002000Y-63586000D01*
X67183000Y-64784000D02*
X67183000Y-63754000D01*
X67183000Y-63754000D02*
X67351000Y-63586000D01*
X71427000Y-63586000D02*
X71767000Y-63246000D01*
X70952000Y-63586000D02*
X71427000Y-63586000D01*
X71781000Y-63260000D02*
X72771000Y-63260000D01*
X71767000Y-63246000D02*
X71781000Y-63260000D01*
X63246000Y-56261000D02*
X63246000Y-56261000D01*
X63230000Y-56277000D02*
X63246000Y-56261000D01*
X63230000Y-58016000D02*
X63230000Y-56277000D01*
X74422000Y-56388000D02*
X63373000Y-56388000D01*
X63373000Y-56388000D02*
X63246000Y-56261000D01*
X75120500Y-54800500D02*
X75120500Y-55689500D01*
X75120500Y-55689500D02*
X74422000Y-56388000D01*
X77325000Y-40386000D02*
X77445000Y-40506000D01*
X74930000Y-40386000D02*
X77325000Y-40386000D01*
X62237000Y-40506000D02*
X62357000Y-40386000D01*
X60445000Y-40506000D02*
X62237000Y-40506000D01*
X73184000Y-71360000D02*
X73914000Y-70630000D01*
X72196500Y-71360000D02*
X73184000Y-71360000D01*
X73914000Y-70630000D02*
X73914000Y-67818000D01*
X73914000Y-67818000D02*
X73914000Y-67818000D01*
X63246000Y-56261000D02*
X63246000Y-52705000D01*
X63246000Y-52705000D02*
X64008000Y-51943000D01*
X64008000Y-51943000D02*
X66167000Y-51943000D01*
X66167000Y-51943000D02*
X66167000Y-51943000D01*
X58660000Y-51040000D02*
X58674000Y-51054000D01*
X57531000Y-51040000D02*
X58660000Y-51040000D01*
X67183000Y-63754000D02*
X67183000Y-63500000D01*
X67183000Y-63500000D02*
X65786000Y-62103000D01*
X65786000Y-62103000D02*
X65786000Y-62103000D01*
X68834000Y-66192400D02*
X68834000Y-65074800D01*
X69002000Y-64906800D02*
X69002000Y-63586000D01*
X68834000Y-65074800D02*
X69002000Y-64906800D01*
X81550000Y-52258000D02*
X81550000Y-53406800D01*
X81550000Y-53406800D02*
X81550000Y-53406800D01*
X57404000Y-60731400D02*
X57404000Y-61341000D01*
X58613000Y-60468000D02*
X58597000Y-60452000D01*
X57683400Y-60452000D02*
X57404000Y-60731400D01*
X58597000Y-60452000D02*
X57683400Y-60452000D01*
X77452000Y-43039000D02*
X77445000Y-43046000D01*
X79629000Y-43039000D02*
X77452000Y-43039000D01*
X77311000Y-43180000D02*
X77445000Y-43046000D01*
X73914000Y-43180000D02*
X77311000Y-43180000D01*
X77452000Y-44323000D02*
X77445000Y-44316000D01*
X79502000Y-44323000D02*
X77452000Y-44323000D01*
X77452000Y-45593000D02*
X77445000Y-45586000D01*
X79502000Y-45593000D02*
X77452000Y-45593000D01*
X77466000Y-46877000D02*
X77445000Y-46856000D01*
X79756000Y-46877000D02*
X77466000Y-46877000D01*
X77325000Y-46736000D02*
X77445000Y-46856000D01*
X74168000Y-46736000D02*
X77325000Y-46736000D01*
X57531000Y-47484000D02*
X57531000Y-49290000D01*
X59175000Y-48126000D02*
X60445000Y-48126000D01*
X57531000Y-47484000D02*
X58533000Y-47484000D01*
X58533000Y-47484000D02*
X59175000Y-48126000D01*
X59195000Y-41776000D02*
X59055000Y-41916000D01*
X60445000Y-41776000D02*
X59195000Y-41776000D01*
X58768000Y-42277000D02*
X58293000Y-42277000D01*
X59055000Y-41990000D02*
X58768000Y-42277000D01*
X59055000Y-41916000D02*
X59055000Y-41990000D01*
X58293000Y-42277000D02*
X56769000Y-42277000D01*
X56529000Y-42517000D02*
X56769000Y-42277000D01*
X56529000Y-43942000D02*
X56529000Y-42517000D01*
X79770000Y-41148000D02*
X79629000Y-41289000D01*
X81280000Y-41148000D02*
X79770000Y-41148000D01*
X72771000Y-65010000D02*
X74422000Y-65010000D01*
X79756000Y-48627000D02*
X80532000Y-48627000D01*
X80852129Y-48306871D02*
X80852129Y-44657129D01*
X80532000Y-48627000D02*
X80852129Y-48306871D01*
X80852129Y-44657129D02*
X80772000Y-44577000D01*
X80772000Y-41656000D02*
X81280000Y-41148000D01*
X80772000Y-44577000D02*
X80772000Y-41656000D01*
X60452000Y-41783000D02*
X60445000Y-41776000D01*
X63627000Y-41783000D02*
X60452000Y-41783000D01*
X63627000Y-41783000D02*
X63627000Y-41148000D01*
X63627000Y-41148000D02*
X65151000Y-39624000D01*
X65151000Y-39624000D02*
X80645000Y-39624000D01*
X81280000Y-40259000D02*
X81280000Y-41148000D01*
X80645000Y-39624000D02*
X81280000Y-40259000D01*
X62454999Y-59279999D02*
X62454999Y-53115001D01*
X62738000Y-59563000D02*
X62454999Y-59279999D01*
X75184000Y-59563000D02*
X62738000Y-59563000D01*
X75946000Y-60325000D02*
X75184000Y-59563000D01*
X74897000Y-65010000D02*
X75038000Y-65151000D01*
X74422000Y-65010000D02*
X74897000Y-65010000D01*
X75438000Y-65151000D02*
X75946000Y-64643000D01*
X75038000Y-65151000D02*
X75438000Y-65151000D01*
X75946000Y-64643000D02*
X75946000Y-60325000D01*
X71373978Y-65010000D02*
X69723000Y-66660978D01*
X72771000Y-65010000D02*
X71373978Y-65010000D01*
X70302000Y-67011000D02*
X69951978Y-66660978D01*
X70302000Y-67986000D02*
X70302000Y-67011000D01*
X69951978Y-66660978D02*
X69723000Y-66660978D01*
X72390000Y-61341000D02*
X72390000Y-61341000D01*
X72184883Y-60288010D02*
X72184883Y-61532904D01*
X72184883Y-61532904D02*
X72390000Y-61738021D01*
X68434000Y-69932600D02*
X68122800Y-69621400D01*
X68434000Y-71000000D02*
X68434000Y-69932600D01*
D27*
X71911000Y-67945000D02*
X71911000Y-67945000D01*
X69084000Y-69535800D02*
X69502800Y-69117000D01*
X69084000Y-71000000D02*
X69084000Y-69535800D01*
X71853631Y-68548929D02*
X71853631Y-67983244D01*
X69502800Y-69117000D02*
X71285560Y-69117000D01*
X71285560Y-69117000D02*
X71853631Y-68548929D01*
X69734000Y-70110000D02*
X69879001Y-69964999D01*
X69734000Y-71000000D02*
X69734000Y-70110000D01*
X69879001Y-69964999D02*
X71467258Y-69964999D01*
X71467258Y-69964999D02*
X72880745Y-68551512D01*
X72880745Y-68551512D02*
X72880745Y-67985827D01*
D28*
X84952000Y-44058000D02*
X84952000Y-55499000D01*
X82677000Y-43561000D02*
X84455000Y-43561000D01*
X84455000Y-43561000D02*
X84952000Y-44058000D01*
X53663000Y-43942000D02*
X53721000Y-44000000D01*
X51521129Y-56844129D02*
X51521129Y-46754061D01*
X51521129Y-46754061D02*
X51562000Y-46713190D01*
X52208000Y-57531000D02*
X51521129Y-56844129D01*
X51562000Y-43942000D02*
X53663000Y-43942000D01*
X51562000Y-46713190D02*
X51562000Y-43942000D01*
D26*
X57531000Y-45734000D02*
X56275000Y-45734000D01*
X54541000Y-44000000D02*
X53721000Y-44000000D01*
X56275000Y-45734000D02*
X54541000Y-44000000D01*
X58674000Y-69458000D02*
X58928000Y-69204000D01*
D28*
X66167000Y-69342000D02*
X67183000Y-68326000D01*
X58928000Y-69204000D02*
X59066000Y-69342000D01*
X67183000Y-68326000D02*
X67183000Y-66534000D01*
X59066000Y-69342000D02*
X66167000Y-69342000D01*
D26*
X69002000Y-67986000D02*
X69652000Y-67986000D01*
D29*
X67523000Y-67986000D02*
X67183000Y-68326000D01*
X69002000Y-67986000D02*
X67523000Y-67986000D01*
D28*
X52070000Y-57669000D02*
X52208000Y-57531000D01*
X52070000Y-68834000D02*
X52070000Y-57669000D01*
X53848000Y-69000000D02*
X52236000Y-69000000D01*
X52236000Y-69000000D02*
X52070000Y-68834000D01*
X58674000Y-73329800D02*
X55295800Y-73329800D01*
X58674000Y-69458000D02*
X58674000Y-73329800D01*
X55295800Y-73329800D02*
X54483000Y-72517000D01*
X54483000Y-72517000D02*
X54483000Y-69635000D01*
X54483000Y-69635000D02*
X53848000Y-69000000D01*
X53975000Y-52308000D02*
X53991000Y-52324000D01*
X53721000Y-47810000D02*
X53975000Y-48064000D01*
X53975000Y-48064000D02*
X53975000Y-52308000D01*
X54483000Y-52816000D02*
X53991000Y-52324000D01*
X54483000Y-56896000D02*
X54483000Y-52816000D01*
X56758000Y-57531000D02*
X55118000Y-57531000D01*
X55118000Y-57531000D02*
X54483000Y-56896000D01*
X83566000Y-49022000D02*
X83550000Y-49038000D01*
X83550000Y-49038000D02*
X83550000Y-51308000D01*
X82677000Y-47371000D02*
X82677000Y-48133000D01*
X82677000Y-48133000D02*
X83566000Y-49022000D01*
X82931000Y-51927000D02*
X83550000Y-51308000D01*
X80402000Y-55499000D02*
X82296000Y-55499000D01*
X82931000Y-54864000D02*
X82931000Y-51927000D01*
X82296000Y-55499000D02*
X82931000Y-54864000D01*
D26*
X59563000Y-64019000D02*
X58928000Y-64654000D01*
D28*
X59563000Y-62468000D02*
X59563000Y-64019000D01*
X58917000Y-64643000D02*
X58928000Y-64654000D01*
X54483000Y-65190000D02*
X55030000Y-64643000D01*
X55030000Y-64643000D02*
X58917000Y-64643000D01*
D26*
X63899999Y-44939001D02*
X70650686Y-44939001D01*
X73213808Y-47502123D02*
X73213808Y-54997325D01*
X70650686Y-44939001D02*
X73213808Y-47502123D01*
X61983000Y-46856000D02*
X63899999Y-44939001D01*
X60445000Y-46856000D02*
X61983000Y-46856000D01*
X73213808Y-54997325D02*
X73213808Y-55563010D01*
X56536000Y-54469000D02*
X57531000Y-54469000D01*
X55991000Y-53274000D02*
X55991000Y-53924000D01*
X55991000Y-53924000D02*
X56536000Y-54469000D01*
X58674000Y-54610000D02*
X58674000Y-55225000D01*
X59195000Y-55746000D02*
X60445000Y-55746000D01*
X57531000Y-54469000D02*
X58533000Y-54469000D01*
X58674000Y-55225000D02*
X59195000Y-55746000D01*
X58533000Y-54469000D02*
X58674000Y-54610000D01*
X78210002Y-54476000D02*
X79121000Y-53565002D01*
X77445000Y-54476000D02*
X78210002Y-54476000D01*
X79121000Y-53565002D02*
X79854002Y-53565002D01*
X79854002Y-53565002D02*
X79854002Y-53565002D01*
X60515000Y-60466000D02*
X60513000Y-60468000D01*
X62103000Y-60466000D02*
X60515000Y-60466000D01*
X60513000Y-57084000D02*
X60445000Y-57016000D01*
X60513000Y-60468000D02*
X60513000Y-57084000D01*
X79958000Y-50358000D02*
X79883000Y-50433000D01*
X81550000Y-50358000D02*
X79958000Y-50358000D01*
X78695000Y-50666000D02*
X78942000Y-50419000D01*
X77445000Y-50666000D02*
X78695000Y-50666000D01*
X78956000Y-50433000D02*
X79883000Y-50433000D01*
X78942000Y-50419000D02*
X78956000Y-50433000D01*
D30*
G36*
X55803488Y-39753058D02*
G01*
X55722577Y-39904433D01*
X55672752Y-40068684D01*
X55655928Y-40239500D01*
X55655928Y-40814500D01*
X55672752Y-40985316D01*
X55722577Y-41149567D01*
X55803488Y-41300942D01*
X55886425Y-41402000D01*
X55803488Y-41503058D01*
X55722577Y-41654433D01*
X55672752Y-41818684D01*
X55655928Y-41989500D01*
X55655928Y-42035710D01*
X55575364Y-41969593D01*
X55465050Y-41910628D01*
X55345352Y-41874318D01*
X55220870Y-41862058D01*
X54006750Y-41865130D01*
X53848000Y-42023880D01*
X53848000Y-43873000D01*
X53868000Y-43873000D01*
X53868000Y-44127000D01*
X53848000Y-44127000D01*
X53848000Y-44147000D01*
X53594000Y-44147000D01*
X53594000Y-44127000D01*
X51744880Y-44127000D01*
X51586130Y-44285750D01*
X51583058Y-45499870D01*
X51595318Y-45624352D01*
X51631628Y-45744050D01*
X51690593Y-45854364D01*
X51769945Y-45951055D01*
X51866636Y-46030407D01*
X51976950Y-46089372D01*
X52096648Y-46125682D01*
X52221130Y-46137942D01*
X52381354Y-46137537D01*
X52360100Y-46151738D01*
X52062738Y-46449100D01*
X51829103Y-46798760D01*
X51668172Y-47187281D01*
X51586130Y-47599734D01*
X51586130Y-48020266D01*
X51668172Y-48432719D01*
X51829103Y-48821240D01*
X52062738Y-49170900D01*
X52360100Y-49468262D01*
X52709760Y-49701897D01*
X52840000Y-49755844D01*
X52840001Y-52252239D01*
X52834509Y-52308000D01*
X52856423Y-52530498D01*
X52902928Y-52683803D01*
X52902928Y-52724000D01*
X52915188Y-52848482D01*
X52951498Y-52968180D01*
X53010463Y-53078494D01*
X53089815Y-53175185D01*
X53186506Y-53254537D01*
X53296820Y-53313502D01*
X53348001Y-53329028D01*
X53348000Y-55057646D01*
X53257482Y-55030188D01*
X53133000Y-55017928D01*
X52493750Y-55021000D01*
X52335000Y-55179750D01*
X52335000Y-57404000D01*
X52355000Y-57404000D01*
X52355000Y-57658000D01*
X52335000Y-57658000D01*
X52335000Y-59882250D01*
X52493750Y-60041000D01*
X53133000Y-60044072D01*
X53257482Y-60031812D01*
X53377180Y-59995502D01*
X53487494Y-59936537D01*
X53584185Y-59857185D01*
X53663537Y-59760494D01*
X53722502Y-59650180D01*
X53758812Y-59530482D01*
X53771072Y-59406000D01*
X53768000Y-57816750D01*
X53609252Y-57658002D01*
X53640074Y-57658002D01*
X53676551Y-57702449D01*
X53719864Y-57737995D01*
X54276008Y-58294140D01*
X54311551Y-58337449D01*
X54414023Y-58421546D01*
X54484377Y-58479284D01*
X54681553Y-58584676D01*
X54895501Y-58649577D01*
X55118000Y-58671491D01*
X55173752Y-58666000D01*
X55194928Y-58666000D01*
X55194928Y-59156001D01*
X55211992Y-59329255D01*
X55262528Y-59495851D01*
X55344595Y-59649387D01*
X55455038Y-59783962D01*
X55589613Y-59894405D01*
X55743149Y-59976472D01*
X55909745Y-60027008D01*
X56082999Y-60044072D01*
X57016527Y-60044072D01*
X56893003Y-60167596D01*
X56863999Y-60191399D01*
X56808871Y-60258574D01*
X56769026Y-60307124D01*
X56748367Y-60345774D01*
X56698454Y-60439154D01*
X56654997Y-60582415D01*
X56650203Y-60631086D01*
X56600063Y-60681226D01*
X56486795Y-60850744D01*
X56408774Y-61039102D01*
X56369000Y-61239061D01*
X56369000Y-61442939D01*
X56408774Y-61642898D01*
X56486795Y-61831256D01*
X56600063Y-62000774D01*
X56744226Y-62144937D01*
X56913744Y-62258205D01*
X57102102Y-62336226D01*
X57302061Y-62376000D01*
X57505939Y-62376000D01*
X57705898Y-62336226D01*
X57894256Y-62258205D01*
X58063774Y-62144937D01*
X58207937Y-62000774D01*
X58273104Y-61903245D01*
X58361724Y-61975974D01*
X58493753Y-62046546D01*
X58503847Y-62049608D01*
X58444423Y-62245502D01*
X58428000Y-62412249D01*
X58428000Y-63090928D01*
X57302999Y-63090928D01*
X57129745Y-63107992D01*
X56963149Y-63158528D01*
X56809613Y-63240595D01*
X56675038Y-63351038D01*
X56564595Y-63485613D01*
X56552629Y-63508000D01*
X55808374Y-63508000D01*
X55494240Y-63298103D01*
X55105719Y-63137172D01*
X54693266Y-63055130D01*
X54272734Y-63055130D01*
X53860281Y-63137172D01*
X53471760Y-63298103D01*
X53122100Y-63531738D01*
X52824738Y-63829100D01*
X52591103Y-64178760D01*
X52430172Y-64567281D01*
X52348130Y-64979734D01*
X52348130Y-65400266D01*
X52430172Y-65812719D01*
X52591103Y-66201240D01*
X52824738Y-66550900D01*
X53122100Y-66848262D01*
X53143354Y-66862463D01*
X52983130Y-66862058D01*
X52858648Y-66874318D01*
X52738950Y-66910628D01*
X52628636Y-66969593D01*
X52531945Y-67048945D01*
X52452593Y-67145636D01*
X52393628Y-67255950D01*
X52357318Y-67375648D01*
X52345058Y-67500130D01*
X52348130Y-68714250D01*
X52506880Y-68873000D01*
X54356000Y-68873000D01*
X54356000Y-68853000D01*
X54610000Y-68853000D01*
X54610000Y-68873000D01*
X54630000Y-68873000D01*
X54630000Y-69127000D01*
X54610000Y-69127000D01*
X54610000Y-70976120D01*
X54768750Y-71134870D01*
X55982870Y-71137942D01*
X56107352Y-71125682D01*
X56227050Y-71089372D01*
X56337364Y-71030407D01*
X56434055Y-70951055D01*
X56513407Y-70854364D01*
X56572372Y-70744050D01*
X56608682Y-70624352D01*
X56612193Y-70588702D01*
X56698506Y-70659537D01*
X56808820Y-70718502D01*
X56928518Y-70754812D01*
X57053000Y-70767072D01*
X58642250Y-70764000D01*
X58801000Y-70605250D01*
X58801000Y-69331000D01*
X59055000Y-69331000D01*
X59055000Y-70605250D01*
X59213750Y-70764000D01*
X60803000Y-70767072D01*
X60927482Y-70754812D01*
X61047180Y-70718502D01*
X61157494Y-70659537D01*
X61254185Y-70580185D01*
X61333537Y-70483494D01*
X61392502Y-70373180D01*
X61428812Y-70253482D01*
X61441072Y-70129000D01*
X61438000Y-69489750D01*
X61279250Y-69331000D01*
X59055000Y-69331000D01*
X58801000Y-69331000D01*
X58781000Y-69331000D01*
X58781000Y-69077000D01*
X58801000Y-69077000D01*
X58801000Y-69057000D01*
X59055000Y-69057000D01*
X59055000Y-69077000D01*
X61279250Y-69077000D01*
X61438000Y-68918250D01*
X61441072Y-68279000D01*
X61434867Y-68215999D01*
X61807198Y-68215999D01*
X62301201Y-68710002D01*
X62324999Y-68739001D01*
X62353997Y-68762799D01*
X62440723Y-68833974D01*
X62512609Y-68872398D01*
X62572753Y-68904546D01*
X62716014Y-68948003D01*
X62827667Y-68959000D01*
X62827676Y-68959000D01*
X62864999Y-68962676D01*
X62902322Y-68959000D01*
X64193289Y-68959000D01*
X64237226Y-69002937D01*
X64406744Y-69116205D01*
X64595102Y-69194226D01*
X64795061Y-69234000D01*
X64998939Y-69234000D01*
X65198898Y-69194226D01*
X65387256Y-69116205D01*
X65556774Y-69002937D01*
X65700937Y-68858774D01*
X65814205Y-68689256D01*
X65892226Y-68500898D01*
X65932000Y-68300939D01*
X65932000Y-68097061D01*
X65892226Y-67897102D01*
X65814205Y-67708744D01*
X65700937Y-67539226D01*
X65556774Y-67395063D01*
X65387256Y-67281795D01*
X65198898Y-67203774D01*
X64998939Y-67164000D01*
X64795061Y-67164000D01*
X64595102Y-67203774D01*
X64406744Y-67281795D01*
X64237226Y-67395063D01*
X64193289Y-67439000D01*
X63179802Y-67439000D01*
X62799802Y-67059000D01*
X66069928Y-67059000D01*
X66082188Y-67183482D01*
X66118498Y-67303180D01*
X66177463Y-67413494D01*
X66256815Y-67510185D01*
X66353506Y-67589537D01*
X66463820Y-67648502D01*
X66583518Y-67684812D01*
X66708000Y-67697072D01*
X66897250Y-67694000D01*
X67056000Y-67535250D01*
X67056000Y-66661000D01*
X66231750Y-66661000D01*
X66073000Y-66819750D01*
X66069928Y-67059000D01*
X62799802Y-67059000D01*
X62685802Y-66945001D01*
X62662000Y-66915998D01*
X62546275Y-66821025D01*
X62414246Y-66750453D01*
X62270985Y-66706996D01*
X62159332Y-66695999D01*
X62159321Y-66695999D01*
X62121999Y-66692323D01*
X62084677Y-66695999D01*
X59899159Y-66695999D01*
X59845205Y-66565744D01*
X59731937Y-66396226D01*
X59587774Y-66252063D01*
X59535406Y-66217072D01*
X60553001Y-66217072D01*
X60726255Y-66200008D01*
X60892851Y-66149472D01*
X61046387Y-66067405D01*
X61180962Y-65956962D01*
X61291405Y-65822387D01*
X61373472Y-65668851D01*
X61424008Y-65502255D01*
X61441072Y-65329001D01*
X61441072Y-63978999D01*
X61424008Y-63805745D01*
X61373472Y-63639149D01*
X61291405Y-63485613D01*
X61180962Y-63351038D01*
X61046387Y-63240595D01*
X60892851Y-63158528D01*
X60726255Y-63107992D01*
X60698000Y-63105209D01*
X60698000Y-62787188D01*
X60775724Y-62850974D01*
X60907753Y-62921546D01*
X61051014Y-62965003D01*
X61128223Y-62972607D01*
X61137488Y-62989942D01*
X61246377Y-63122623D01*
X61379058Y-63231512D01*
X61530433Y-63312423D01*
X61694684Y-63362248D01*
X61865500Y-63379072D01*
X62340500Y-63379072D01*
X62511316Y-63362248D01*
X62675567Y-63312423D01*
X62826942Y-63231512D01*
X62959623Y-63122623D01*
X63068512Y-62989942D01*
X63149423Y-62838567D01*
X63199248Y-62674316D01*
X63216072Y-62503500D01*
X63216072Y-61928500D01*
X63199248Y-61757684D01*
X63149423Y-61593433D01*
X63068512Y-61442058D01*
X62985575Y-61341000D01*
X63068512Y-61239942D01*
X63149423Y-61088567D01*
X63199248Y-60924316D01*
X63216072Y-60753500D01*
X63216072Y-60323000D01*
X71149883Y-60323000D01*
X71149883Y-60389949D01*
X71189657Y-60589908D01*
X71267678Y-60778266D01*
X71380946Y-60947784D01*
X71424884Y-60991722D01*
X71424884Y-61363432D01*
X71394774Y-61436123D01*
X71355000Y-61636082D01*
X71355000Y-61839960D01*
X71394774Y-62039919D01*
X71472795Y-62228277D01*
X71552704Y-62347869D01*
X71531494Y-62330463D01*
X71421180Y-62271498D01*
X71301482Y-62235188D01*
X71177000Y-62222928D01*
X70727000Y-62222928D01*
X70627000Y-62232777D01*
X70527000Y-62222928D01*
X70077000Y-62222928D01*
X69977000Y-62232777D01*
X69877000Y-62222928D01*
X69427000Y-62222928D01*
X69327000Y-62232777D01*
X69227000Y-62222928D01*
X68777000Y-62222928D01*
X68652518Y-62235188D01*
X68532820Y-62271498D01*
X68422506Y-62330463D01*
X68325815Y-62409815D01*
X68246463Y-62506506D01*
X68187498Y-62616820D01*
X68151188Y-62736518D01*
X68142375Y-62826000D01*
X67583802Y-62826000D01*
X66821000Y-62063199D01*
X66821000Y-62001061D01*
X66781226Y-61801102D01*
X66703205Y-61612744D01*
X66589937Y-61443226D01*
X66445774Y-61299063D01*
X66276256Y-61185795D01*
X66087898Y-61107774D01*
X65887939Y-61068000D01*
X65684061Y-61068000D01*
X65484102Y-61107774D01*
X65295744Y-61185795D01*
X65126226Y-61299063D01*
X64982063Y-61443226D01*
X64868795Y-61612744D01*
X64790774Y-61801102D01*
X64751000Y-62001061D01*
X64751000Y-62204939D01*
X64790774Y-62404898D01*
X64868795Y-62593256D01*
X64982063Y-62762774D01*
X65126226Y-62906937D01*
X65295744Y-63020205D01*
X65484102Y-63098226D01*
X65684061Y-63138000D01*
X65746199Y-63138000D01*
X66413816Y-63805618D01*
X66326377Y-63877377D01*
X66217488Y-64010058D01*
X66136577Y-64161433D01*
X66086752Y-64325684D01*
X66069928Y-64496500D01*
X66069928Y-65071500D01*
X66086752Y-65242316D01*
X66136577Y-65406567D01*
X66217488Y-65557942D01*
X66237099Y-65581839D01*
X66177463Y-65654506D01*
X66118498Y-65764820D01*
X66082188Y-65884518D01*
X66069928Y-66009000D01*
X66073000Y-66248250D01*
X66231750Y-66407000D01*
X67056000Y-66407000D01*
X67056000Y-66387000D01*
X67310000Y-66387000D01*
X67310000Y-66407000D01*
X67330000Y-66407000D01*
X67330000Y-66661000D01*
X67310000Y-66661000D01*
X67310000Y-67535250D01*
X67468750Y-67694000D01*
X67658000Y-67697072D01*
X67782482Y-67684812D01*
X67902180Y-67648502D01*
X68012494Y-67589537D01*
X68109185Y-67510185D01*
X68140408Y-67472140D01*
X68142000Y-67700250D01*
X68300750Y-67859000D01*
X68904000Y-67859000D01*
X68904000Y-67839000D01*
X68930750Y-67839000D01*
X68950750Y-67859000D01*
X69149000Y-67859000D01*
X69149000Y-68113000D01*
X68950750Y-68113000D01*
X68930750Y-68133000D01*
X68904000Y-68133000D01*
X68904000Y-68113000D01*
X68300750Y-68113000D01*
X68142000Y-68271750D01*
X68139804Y-68586400D01*
X68020861Y-68586400D01*
X67820902Y-68626174D01*
X67632544Y-68704195D01*
X67463026Y-68817463D01*
X67318863Y-68961626D01*
X67205595Y-69131144D01*
X67127574Y-69319502D01*
X67087800Y-69519461D01*
X67087800Y-69671928D01*
X66534000Y-69671928D01*
X66409518Y-69684188D01*
X66289820Y-69720498D01*
X66179506Y-69779463D01*
X66082815Y-69858815D01*
X66003463Y-69955506D01*
X65944498Y-70065820D01*
X65908188Y-70185518D01*
X65895928Y-70310000D01*
X65895928Y-72071928D01*
X65636500Y-72071928D01*
X65512018Y-72084188D01*
X65392320Y-72120498D01*
X65282006Y-72179463D01*
X65185315Y-72258815D01*
X65105963Y-72355506D01*
X65046998Y-72465820D01*
X65010688Y-72585518D01*
X64998428Y-72710000D01*
X64998428Y-72900000D01*
X62617200Y-72900000D01*
X62616532Y-72896642D01*
X62504590Y-72626389D01*
X62342075Y-72383168D01*
X62135232Y-72176325D01*
X61892011Y-72013810D01*
X61621758Y-71901868D01*
X61334860Y-71844800D01*
X61042340Y-71844800D01*
X60755442Y-71901868D01*
X60485189Y-72013810D01*
X60241968Y-72176325D01*
X60110113Y-72308180D01*
X60088102Y-72235620D01*
X60029137Y-72125306D01*
X59949785Y-72028615D01*
X59853094Y-71949263D01*
X59742780Y-71890298D01*
X59623082Y-71853988D01*
X59498600Y-71841728D01*
X58934350Y-71844800D01*
X58775600Y-72003550D01*
X58775600Y-73202800D01*
X58795600Y-73202800D01*
X58795600Y-73456800D01*
X58775600Y-73456800D01*
X58775600Y-73476800D01*
X58521600Y-73476800D01*
X58521600Y-73456800D01*
X57322350Y-73456800D01*
X57163600Y-73615550D01*
X57160528Y-74179800D01*
X57172788Y-74304282D01*
X57209098Y-74423980D01*
X57265233Y-74529000D01*
X52096450Y-74529000D01*
X52039228Y-74390853D01*
X51854825Y-74114875D01*
X51620125Y-73880175D01*
X51344147Y-73695772D01*
X51206000Y-73638550D01*
X51206000Y-72479800D01*
X57160528Y-72479800D01*
X57163600Y-73044050D01*
X57322350Y-73202800D01*
X58521600Y-73202800D01*
X58521600Y-72003550D01*
X58362850Y-71844800D01*
X57798600Y-71841728D01*
X57674118Y-71853988D01*
X57554420Y-71890298D01*
X57444106Y-71949263D01*
X57347415Y-72028615D01*
X57268063Y-72125306D01*
X57209098Y-72235620D01*
X57172788Y-72355318D01*
X57160528Y-72479800D01*
X51206000Y-72479800D01*
X51206000Y-70499870D01*
X52345058Y-70499870D01*
X52357318Y-70624352D01*
X52393628Y-70744050D01*
X52452593Y-70854364D01*
X52531945Y-70951055D01*
X52628636Y-71030407D01*
X52738950Y-71089372D01*
X52858648Y-71125682D01*
X52983130Y-71137942D01*
X54197250Y-71134870D01*
X54356000Y-70976120D01*
X54356000Y-69127000D01*
X52506880Y-69127000D01*
X52348130Y-69285750D01*
X52345058Y-70499870D01*
X51206000Y-70499870D01*
X51206000Y-60036488D01*
X51283000Y-60044072D01*
X51922250Y-60041000D01*
X52081000Y-59882250D01*
X52081000Y-57658000D01*
X52061000Y-57658000D01*
X52061000Y-57404000D01*
X52081000Y-57404000D01*
X52081000Y-55179750D01*
X51922250Y-55021000D01*
X51283000Y-55017928D01*
X51206000Y-55025512D01*
X51206000Y-42500130D01*
X51583058Y-42500130D01*
X51586130Y-43714250D01*
X51744880Y-43873000D01*
X53594000Y-43873000D01*
X53594000Y-42023880D01*
X53435250Y-41865130D01*
X52221130Y-41862058D01*
X52096648Y-41874318D01*
X51976950Y-41910628D01*
X51866636Y-41969593D01*
X51769945Y-42048945D01*
X51690593Y-42145636D01*
X51631628Y-42255950D01*
X51595318Y-42375648D01*
X51583058Y-42500130D01*
X51206000Y-42500130D01*
X51206000Y-40539450D01*
X51344147Y-40482228D01*
X51620125Y-40297825D01*
X51854825Y-40063125D01*
X52039228Y-39787147D01*
X52096450Y-39649000D01*
X55888887Y-39649000D01*
X55803488Y-39753058D01*
G37*
X55803488Y-39753058D02*
X55722577Y-39904433D01*
X55672752Y-40068684D01*
X55655928Y-40239500D01*
X55655928Y-40814500D01*
X55672752Y-40985316D01*
X55722577Y-41149567D01*
X55803488Y-41300942D01*
X55886425Y-41402000D01*
X55803488Y-41503058D01*
X55722577Y-41654433D01*
X55672752Y-41818684D01*
X55655928Y-41989500D01*
X55655928Y-42035710D01*
X55575364Y-41969593D01*
X55465050Y-41910628D01*
X55345352Y-41874318D01*
X55220870Y-41862058D01*
X54006750Y-41865130D01*
X53848000Y-42023880D01*
X53848000Y-43873000D01*
X53868000Y-43873000D01*
X53868000Y-44127000D01*
X53848000Y-44127000D01*
X53848000Y-44147000D01*
X53594000Y-44147000D01*
X53594000Y-44127000D01*
X51744880Y-44127000D01*
X51586130Y-44285750D01*
X51583058Y-45499870D01*
X51595318Y-45624352D01*
X51631628Y-45744050D01*
X51690593Y-45854364D01*
X51769945Y-45951055D01*
X51866636Y-46030407D01*
X51976950Y-46089372D01*
X52096648Y-46125682D01*
X52221130Y-46137942D01*
X52381354Y-46137537D01*
X52360100Y-46151738D01*
X52062738Y-46449100D01*
X51829103Y-46798760D01*
X51668172Y-47187281D01*
X51586130Y-47599734D01*
X51586130Y-48020266D01*
X51668172Y-48432719D01*
X51829103Y-48821240D01*
X52062738Y-49170900D01*
X52360100Y-49468262D01*
X52709760Y-49701897D01*
X52840000Y-49755844D01*
X52840001Y-52252239D01*
X52834509Y-52308000D01*
X52856423Y-52530498D01*
X52902928Y-52683803D01*
X52902928Y-52724000D01*
X52915188Y-52848482D01*
X52951498Y-52968180D01*
X53010463Y-53078494D01*
X53089815Y-53175185D01*
X53186506Y-53254537D01*
X53296820Y-53313502D01*
X53348001Y-53329028D01*
X53348000Y-55057646D01*
X53257482Y-55030188D01*
X53133000Y-55017928D01*
X52493750Y-55021000D01*
X52335000Y-55179750D01*
X52335000Y-57404000D01*
X52355000Y-57404000D01*
X52355000Y-57658000D01*
X52335000Y-57658000D01*
X52335000Y-59882250D01*
X52493750Y-60041000D01*
X53133000Y-60044072D01*
X53257482Y-60031812D01*
X53377180Y-59995502D01*
X53487494Y-59936537D01*
X53584185Y-59857185D01*
X53663537Y-59760494D01*
X53722502Y-59650180D01*
X53758812Y-59530482D01*
X53771072Y-59406000D01*
X53768000Y-57816750D01*
X53609252Y-57658002D01*
X53640074Y-57658002D01*
X53676551Y-57702449D01*
X53719864Y-57737995D01*
X54276008Y-58294140D01*
X54311551Y-58337449D01*
X54414023Y-58421546D01*
X54484377Y-58479284D01*
X54681553Y-58584676D01*
X54895501Y-58649577D01*
X55118000Y-58671491D01*
X55173752Y-58666000D01*
X55194928Y-58666000D01*
X55194928Y-59156001D01*
X55211992Y-59329255D01*
X55262528Y-59495851D01*
X55344595Y-59649387D01*
X55455038Y-59783962D01*
X55589613Y-59894405D01*
X55743149Y-59976472D01*
X55909745Y-60027008D01*
X56082999Y-60044072D01*
X57016527Y-60044072D01*
X56893003Y-60167596D01*
X56863999Y-60191399D01*
X56808871Y-60258574D01*
X56769026Y-60307124D01*
X56748367Y-60345774D01*
X56698454Y-60439154D01*
X56654997Y-60582415D01*
X56650203Y-60631086D01*
X56600063Y-60681226D01*
X56486795Y-60850744D01*
X56408774Y-61039102D01*
X56369000Y-61239061D01*
X56369000Y-61442939D01*
X56408774Y-61642898D01*
X56486795Y-61831256D01*
X56600063Y-62000774D01*
X56744226Y-62144937D01*
X56913744Y-62258205D01*
X57102102Y-62336226D01*
X57302061Y-62376000D01*
X57505939Y-62376000D01*
X57705898Y-62336226D01*
X57894256Y-62258205D01*
X58063774Y-62144937D01*
X58207937Y-62000774D01*
X58273104Y-61903245D01*
X58361724Y-61975974D01*
X58493753Y-62046546D01*
X58503847Y-62049608D01*
X58444423Y-62245502D01*
X58428000Y-62412249D01*
X58428000Y-63090928D01*
X57302999Y-63090928D01*
X57129745Y-63107992D01*
X56963149Y-63158528D01*
X56809613Y-63240595D01*
X56675038Y-63351038D01*
X56564595Y-63485613D01*
X56552629Y-63508000D01*
X55808374Y-63508000D01*
X55494240Y-63298103D01*
X55105719Y-63137172D01*
X54693266Y-63055130D01*
X54272734Y-63055130D01*
X53860281Y-63137172D01*
X53471760Y-63298103D01*
X53122100Y-63531738D01*
X52824738Y-63829100D01*
X52591103Y-64178760D01*
X52430172Y-64567281D01*
X52348130Y-64979734D01*
X52348130Y-65400266D01*
X52430172Y-65812719D01*
X52591103Y-66201240D01*
X52824738Y-66550900D01*
X53122100Y-66848262D01*
X53143354Y-66862463D01*
X52983130Y-66862058D01*
X52858648Y-66874318D01*
X52738950Y-66910628D01*
X52628636Y-66969593D01*
X52531945Y-67048945D01*
X52452593Y-67145636D01*
X52393628Y-67255950D01*
X52357318Y-67375648D01*
X52345058Y-67500130D01*
X52348130Y-68714250D01*
X52506880Y-68873000D01*
X54356000Y-68873000D01*
X54356000Y-68853000D01*
X54610000Y-68853000D01*
X54610000Y-68873000D01*
X54630000Y-68873000D01*
X54630000Y-69127000D01*
X54610000Y-69127000D01*
X54610000Y-70976120D01*
X54768750Y-71134870D01*
X55982870Y-71137942D01*
X56107352Y-71125682D01*
X56227050Y-71089372D01*
X56337364Y-71030407D01*
X56434055Y-70951055D01*
X56513407Y-70854364D01*
X56572372Y-70744050D01*
X56608682Y-70624352D01*
X56612193Y-70588702D01*
X56698506Y-70659537D01*
X56808820Y-70718502D01*
X56928518Y-70754812D01*
X57053000Y-70767072D01*
X58642250Y-70764000D01*
X58801000Y-70605250D01*
X58801000Y-69331000D01*
X59055000Y-69331000D01*
X59055000Y-70605250D01*
X59213750Y-70764000D01*
X60803000Y-70767072D01*
X60927482Y-70754812D01*
X61047180Y-70718502D01*
X61157494Y-70659537D01*
X61254185Y-70580185D01*
X61333537Y-70483494D01*
X61392502Y-70373180D01*
X61428812Y-70253482D01*
X61441072Y-70129000D01*
X61438000Y-69489750D01*
X61279250Y-69331000D01*
X59055000Y-69331000D01*
X58801000Y-69331000D01*
X58781000Y-69331000D01*
X58781000Y-69077000D01*
X58801000Y-69077000D01*
X58801000Y-69057000D01*
X59055000Y-69057000D01*
X59055000Y-69077000D01*
X61279250Y-69077000D01*
X61438000Y-68918250D01*
X61441072Y-68279000D01*
X61434867Y-68215999D01*
X61807198Y-68215999D01*
X62301201Y-68710002D01*
X62324999Y-68739001D01*
X62353997Y-68762799D01*
X62440723Y-68833974D01*
X62512609Y-68872398D01*
X62572753Y-68904546D01*
X62716014Y-68948003D01*
X62827667Y-68959000D01*
X62827676Y-68959000D01*
X62864999Y-68962676D01*
X62902322Y-68959000D01*
X64193289Y-68959000D01*
X64237226Y-69002937D01*
X64406744Y-69116205D01*
X64595102Y-69194226D01*
X64795061Y-69234000D01*
X64998939Y-69234000D01*
X65198898Y-69194226D01*
X65387256Y-69116205D01*
X65556774Y-69002937D01*
X65700937Y-68858774D01*
X65814205Y-68689256D01*
X65892226Y-68500898D01*
X65932000Y-68300939D01*
X65932000Y-68097061D01*
X65892226Y-67897102D01*
X65814205Y-67708744D01*
X65700937Y-67539226D01*
X65556774Y-67395063D01*
X65387256Y-67281795D01*
X65198898Y-67203774D01*
X64998939Y-67164000D01*
X64795061Y-67164000D01*
X64595102Y-67203774D01*
X64406744Y-67281795D01*
X64237226Y-67395063D01*
X64193289Y-67439000D01*
X63179802Y-67439000D01*
X62799802Y-67059000D01*
X66069928Y-67059000D01*
X66082188Y-67183482D01*
X66118498Y-67303180D01*
X66177463Y-67413494D01*
X66256815Y-67510185D01*
X66353506Y-67589537D01*
X66463820Y-67648502D01*
X66583518Y-67684812D01*
X66708000Y-67697072D01*
X66897250Y-67694000D01*
X67056000Y-67535250D01*
X67056000Y-66661000D01*
X66231750Y-66661000D01*
X66073000Y-66819750D01*
X66069928Y-67059000D01*
X62799802Y-67059000D01*
X62685802Y-66945001D01*
X62662000Y-66915998D01*
X62546275Y-66821025D01*
X62414246Y-66750453D01*
X62270985Y-66706996D01*
X62159332Y-66695999D01*
X62159321Y-66695999D01*
X62121999Y-66692323D01*
X62084677Y-66695999D01*
X59899159Y-66695999D01*
X59845205Y-66565744D01*
X59731937Y-66396226D01*
X59587774Y-66252063D01*
X59535406Y-66217072D01*
X60553001Y-66217072D01*
X60726255Y-66200008D01*
X60892851Y-66149472D01*
X61046387Y-66067405D01*
X61180962Y-65956962D01*
X61291405Y-65822387D01*
X61373472Y-65668851D01*
X61424008Y-65502255D01*
X61441072Y-65329001D01*
X61441072Y-63978999D01*
X61424008Y-63805745D01*
X61373472Y-63639149D01*
X61291405Y-63485613D01*
X61180962Y-63351038D01*
X61046387Y-63240595D01*
X60892851Y-63158528D01*
X60726255Y-63107992D01*
X60698000Y-63105209D01*
X60698000Y-62787188D01*
X60775724Y-62850974D01*
X60907753Y-62921546D01*
X61051014Y-62965003D01*
X61128223Y-62972607D01*
X61137488Y-62989942D01*
X61246377Y-63122623D01*
X61379058Y-63231512D01*
X61530433Y-63312423D01*
X61694684Y-63362248D01*
X61865500Y-63379072D01*
X62340500Y-63379072D01*
X62511316Y-63362248D01*
X62675567Y-63312423D01*
X62826942Y-63231512D01*
X62959623Y-63122623D01*
X63068512Y-62989942D01*
X63149423Y-62838567D01*
X63199248Y-62674316D01*
X63216072Y-62503500D01*
X63216072Y-61928500D01*
X63199248Y-61757684D01*
X63149423Y-61593433D01*
X63068512Y-61442058D01*
X62985575Y-61341000D01*
X63068512Y-61239942D01*
X63149423Y-61088567D01*
X63199248Y-60924316D01*
X63216072Y-60753500D01*
X63216072Y-60323000D01*
X71149883Y-60323000D01*
X71149883Y-60389949D01*
X71189657Y-60589908D01*
X71267678Y-60778266D01*
X71380946Y-60947784D01*
X71424884Y-60991722D01*
X71424884Y-61363432D01*
X71394774Y-61436123D01*
X71355000Y-61636082D01*
X71355000Y-61839960D01*
X71394774Y-62039919D01*
X71472795Y-62228277D01*
X71552704Y-62347869D01*
X71531494Y-62330463D01*
X71421180Y-62271498D01*
X71301482Y-62235188D01*
X71177000Y-62222928D01*
X70727000Y-62222928D01*
X70627000Y-62232777D01*
X70527000Y-62222928D01*
X70077000Y-62222928D01*
X69977000Y-62232777D01*
X69877000Y-62222928D01*
X69427000Y-62222928D01*
X69327000Y-62232777D01*
X69227000Y-62222928D01*
X68777000Y-62222928D01*
X68652518Y-62235188D01*
X68532820Y-62271498D01*
X68422506Y-62330463D01*
X68325815Y-62409815D01*
X68246463Y-62506506D01*
X68187498Y-62616820D01*
X68151188Y-62736518D01*
X68142375Y-62826000D01*
X67583802Y-62826000D01*
X66821000Y-62063199D01*
X66821000Y-62001061D01*
X66781226Y-61801102D01*
X66703205Y-61612744D01*
X66589937Y-61443226D01*
X66445774Y-61299063D01*
X66276256Y-61185795D01*
X66087898Y-61107774D01*
X65887939Y-61068000D01*
X65684061Y-61068000D01*
X65484102Y-61107774D01*
X65295744Y-61185795D01*
X65126226Y-61299063D01*
X64982063Y-61443226D01*
X64868795Y-61612744D01*
X64790774Y-61801102D01*
X64751000Y-62001061D01*
X64751000Y-62204939D01*
X64790774Y-62404898D01*
X64868795Y-62593256D01*
X64982063Y-62762774D01*
X65126226Y-62906937D01*
X65295744Y-63020205D01*
X65484102Y-63098226D01*
X65684061Y-63138000D01*
X65746199Y-63138000D01*
X66413816Y-63805618D01*
X66326377Y-63877377D01*
X66217488Y-64010058D01*
X66136577Y-64161433D01*
X66086752Y-64325684D01*
X66069928Y-64496500D01*
X66069928Y-65071500D01*
X66086752Y-65242316D01*
X66136577Y-65406567D01*
X66217488Y-65557942D01*
X66237099Y-65581839D01*
X66177463Y-65654506D01*
X66118498Y-65764820D01*
X66082188Y-65884518D01*
X66069928Y-66009000D01*
X66073000Y-66248250D01*
X66231750Y-66407000D01*
X67056000Y-66407000D01*
X67056000Y-66387000D01*
X67310000Y-66387000D01*
X67310000Y-66407000D01*
X67330000Y-66407000D01*
X67330000Y-66661000D01*
X67310000Y-66661000D01*
X67310000Y-67535250D01*
X67468750Y-67694000D01*
X67658000Y-67697072D01*
X67782482Y-67684812D01*
X67902180Y-67648502D01*
X68012494Y-67589537D01*
X68109185Y-67510185D01*
X68140408Y-67472140D01*
X68142000Y-67700250D01*
X68300750Y-67859000D01*
X68904000Y-67859000D01*
X68904000Y-67839000D01*
X68930750Y-67839000D01*
X68950750Y-67859000D01*
X69149000Y-67859000D01*
X69149000Y-68113000D01*
X68950750Y-68113000D01*
X68930750Y-68133000D01*
X68904000Y-68133000D01*
X68904000Y-68113000D01*
X68300750Y-68113000D01*
X68142000Y-68271750D01*
X68139804Y-68586400D01*
X68020861Y-68586400D01*
X67820902Y-68626174D01*
X67632544Y-68704195D01*
X67463026Y-68817463D01*
X67318863Y-68961626D01*
X67205595Y-69131144D01*
X67127574Y-69319502D01*
X67087800Y-69519461D01*
X67087800Y-69671928D01*
X66534000Y-69671928D01*
X66409518Y-69684188D01*
X66289820Y-69720498D01*
X66179506Y-69779463D01*
X66082815Y-69858815D01*
X66003463Y-69955506D01*
X65944498Y-70065820D01*
X65908188Y-70185518D01*
X65895928Y-70310000D01*
X65895928Y-72071928D01*
X65636500Y-72071928D01*
X65512018Y-72084188D01*
X65392320Y-72120498D01*
X65282006Y-72179463D01*
X65185315Y-72258815D01*
X65105963Y-72355506D01*
X65046998Y-72465820D01*
X65010688Y-72585518D01*
X64998428Y-72710000D01*
X64998428Y-72900000D01*
X62617200Y-72900000D01*
X62616532Y-72896642D01*
X62504590Y-72626389D01*
X62342075Y-72383168D01*
X62135232Y-72176325D01*
X61892011Y-72013810D01*
X61621758Y-71901868D01*
X61334860Y-71844800D01*
X61042340Y-71844800D01*
X60755442Y-71901868D01*
X60485189Y-72013810D01*
X60241968Y-72176325D01*
X60110113Y-72308180D01*
X60088102Y-72235620D01*
X60029137Y-72125306D01*
X59949785Y-72028615D01*
X59853094Y-71949263D01*
X59742780Y-71890298D01*
X59623082Y-71853988D01*
X59498600Y-71841728D01*
X58934350Y-71844800D01*
X58775600Y-72003550D01*
X58775600Y-73202800D01*
X58795600Y-73202800D01*
X58795600Y-73456800D01*
X58775600Y-73456800D01*
X58775600Y-73476800D01*
X58521600Y-73476800D01*
X58521600Y-73456800D01*
X57322350Y-73456800D01*
X57163600Y-73615550D01*
X57160528Y-74179800D01*
X57172788Y-74304282D01*
X57209098Y-74423980D01*
X57265233Y-74529000D01*
X52096450Y-74529000D01*
X52039228Y-74390853D01*
X51854825Y-74114875D01*
X51620125Y-73880175D01*
X51344147Y-73695772D01*
X51206000Y-73638550D01*
X51206000Y-72479800D01*
X57160528Y-72479800D01*
X57163600Y-73044050D01*
X57322350Y-73202800D01*
X58521600Y-73202800D01*
X58521600Y-72003550D01*
X58362850Y-71844800D01*
X57798600Y-71841728D01*
X57674118Y-71853988D01*
X57554420Y-71890298D01*
X57444106Y-71949263D01*
X57347415Y-72028615D01*
X57268063Y-72125306D01*
X57209098Y-72235620D01*
X57172788Y-72355318D01*
X57160528Y-72479800D01*
X51206000Y-72479800D01*
X51206000Y-70499870D01*
X52345058Y-70499870D01*
X52357318Y-70624352D01*
X52393628Y-70744050D01*
X52452593Y-70854364D01*
X52531945Y-70951055D01*
X52628636Y-71030407D01*
X52738950Y-71089372D01*
X52858648Y-71125682D01*
X52983130Y-71137942D01*
X54197250Y-71134870D01*
X54356000Y-70976120D01*
X54356000Y-69127000D01*
X52506880Y-69127000D01*
X52348130Y-69285750D01*
X52345058Y-70499870D01*
X51206000Y-70499870D01*
X51206000Y-60036488D01*
X51283000Y-60044072D01*
X51922250Y-60041000D01*
X52081000Y-59882250D01*
X52081000Y-57658000D01*
X52061000Y-57658000D01*
X52061000Y-57404000D01*
X52081000Y-57404000D01*
X52081000Y-55179750D01*
X51922250Y-55021000D01*
X51283000Y-55017928D01*
X51206000Y-55025512D01*
X51206000Y-42500130D01*
X51583058Y-42500130D01*
X51586130Y-43714250D01*
X51744880Y-43873000D01*
X53594000Y-43873000D01*
X53594000Y-42023880D01*
X53435250Y-41865130D01*
X52221130Y-41862058D01*
X52096648Y-41874318D01*
X51976950Y-41910628D01*
X51866636Y-41969593D01*
X51769945Y-42048945D01*
X51690593Y-42145636D01*
X51631628Y-42255950D01*
X51595318Y-42375648D01*
X51583058Y-42500130D01*
X51206000Y-42500130D01*
X51206000Y-40539450D01*
X51344147Y-40482228D01*
X51620125Y-40297825D01*
X51854825Y-40063125D01*
X52039228Y-39787147D01*
X52096450Y-39649000D01*
X55888887Y-39649000D01*
X55803488Y-39753058D01*
G36*
X85374772Y-39787147D02*
G01*
X85559175Y-40063125D01*
X85793875Y-40297825D01*
X86069853Y-40482228D01*
X86086001Y-40488917D01*
X86086001Y-53658826D01*
X86001482Y-53633188D01*
X85877000Y-53620928D01*
X85237750Y-53624000D01*
X85079000Y-53782750D01*
X85079000Y-56007000D01*
X85099000Y-56007000D01*
X85099000Y-56261000D01*
X85079000Y-56261000D01*
X85079000Y-58485250D01*
X85237750Y-58644000D01*
X85877000Y-58647072D01*
X86001482Y-58634812D01*
X86086000Y-58609174D01*
X86086000Y-73758479D01*
X85942853Y-73817772D01*
X85666875Y-74002175D01*
X85432175Y-74236875D01*
X85247772Y-74512853D01*
X85241084Y-74529000D01*
X74469572Y-74529000D01*
X74469572Y-72710000D01*
X74457312Y-72585518D01*
X74421002Y-72465820D01*
X74362037Y-72355506D01*
X74282685Y-72258815D01*
X74185994Y-72179463D01*
X74075680Y-72120498D01*
X73955982Y-72084188D01*
X73831500Y-72071928D01*
X73572072Y-72071928D01*
X73572072Y-72014326D01*
X73608276Y-71994974D01*
X73724001Y-71900001D01*
X73747803Y-71870998D01*
X74425004Y-71193798D01*
X74454001Y-71170001D01*
X74490373Y-71125682D01*
X74548974Y-71054277D01*
X74619546Y-70922247D01*
X74619546Y-70922246D01*
X74663003Y-70778986D01*
X74674000Y-70667333D01*
X74674000Y-70667323D01*
X74677676Y-70630000D01*
X74674000Y-70592677D01*
X74674000Y-70499870D01*
X80412058Y-70499870D01*
X80424318Y-70624352D01*
X80460628Y-70744050D01*
X80519593Y-70854364D01*
X80598945Y-70951055D01*
X80695636Y-71030407D01*
X80805950Y-71089372D01*
X80925648Y-71125682D01*
X81050130Y-71137942D01*
X82264250Y-71134870D01*
X82423000Y-70976120D01*
X82423000Y-69127000D01*
X82677000Y-69127000D01*
X82677000Y-70976120D01*
X82835750Y-71134870D01*
X84049870Y-71137942D01*
X84174352Y-71125682D01*
X84294050Y-71089372D01*
X84404364Y-71030407D01*
X84501055Y-70951055D01*
X84580407Y-70854364D01*
X84639372Y-70744050D01*
X84675682Y-70624352D01*
X84687942Y-70499870D01*
X84684870Y-69285750D01*
X84526120Y-69127000D01*
X82677000Y-69127000D01*
X82423000Y-69127000D01*
X80573880Y-69127000D01*
X80415130Y-69285750D01*
X80412058Y-70499870D01*
X74674000Y-70499870D01*
X74674000Y-68521711D01*
X74717937Y-68477774D01*
X74831205Y-68308256D01*
X74909226Y-68119898D01*
X74949000Y-67919939D01*
X74949000Y-67716061D01*
X74909226Y-67516102D01*
X74831205Y-67327744D01*
X74717937Y-67158226D01*
X74573774Y-67014063D01*
X74404256Y-66900795D01*
X74215898Y-66822774D01*
X74015939Y-66783000D01*
X73812061Y-66783000D01*
X73612102Y-66822774D01*
X73423744Y-66900795D01*
X73254226Y-67014063D01*
X73249850Y-67018439D01*
X73182643Y-66990601D01*
X72982684Y-66950827D01*
X72778806Y-66950827D01*
X72578847Y-66990601D01*
X72390489Y-67068622D01*
X72369121Y-67082900D01*
X72343887Y-67066039D01*
X72155529Y-66988018D01*
X71955570Y-66948244D01*
X71751692Y-66948244D01*
X71731946Y-66952172D01*
X71707537Y-66906506D01*
X71628185Y-66809815D01*
X71531494Y-66730463D01*
X71421180Y-66671498D01*
X71301482Y-66635188D01*
X71177000Y-66622928D01*
X70956326Y-66622928D01*
X70936974Y-66586724D01*
X70907712Y-66551068D01*
X71688781Y-65770000D01*
X71798036Y-65770000D01*
X71805488Y-65783942D01*
X71914377Y-65916623D01*
X72047058Y-66025512D01*
X72198433Y-66106423D01*
X72362684Y-66156248D01*
X72533500Y-66173072D01*
X73008500Y-66173072D01*
X73179316Y-66156248D01*
X73343567Y-66106423D01*
X73494942Y-66025512D01*
X73596500Y-65942165D01*
X73698058Y-66025512D01*
X73849433Y-66106423D01*
X74013684Y-66156248D01*
X74184500Y-66173072D01*
X74659500Y-66173072D01*
X74830316Y-66156248D01*
X74994567Y-66106423D01*
X75145942Y-66025512D01*
X75278623Y-65916623D01*
X75283238Y-65911000D01*
X75400678Y-65911000D01*
X75438000Y-65914676D01*
X75475322Y-65911000D01*
X75475333Y-65911000D01*
X75586986Y-65900003D01*
X75730247Y-65856546D01*
X75862276Y-65785974D01*
X75978001Y-65691001D01*
X76001803Y-65661998D01*
X76457003Y-65206798D01*
X76486001Y-65183001D01*
X76580974Y-65067276D01*
X76651546Y-64935247D01*
X76695003Y-64791986D01*
X76706000Y-64680333D01*
X76706000Y-64680324D01*
X76709676Y-64643001D01*
X76706000Y-64605678D01*
X76706000Y-60362325D01*
X76709676Y-60325000D01*
X76706000Y-60287675D01*
X76706000Y-60287667D01*
X76695003Y-60176014D01*
X76651546Y-60032753D01*
X76580974Y-59900724D01*
X76486001Y-59784999D01*
X76457002Y-59761201D01*
X75747803Y-59052002D01*
X75744877Y-59048437D01*
X75748072Y-59016000D01*
X75748072Y-57016000D01*
X75735812Y-56891518D01*
X75699502Y-56771820D01*
X75640537Y-56661506D01*
X75561185Y-56564815D01*
X75464494Y-56485463D01*
X75422034Y-56462767D01*
X75631502Y-56253299D01*
X75660501Y-56229501D01*
X75755474Y-56113776D01*
X75806928Y-56017514D01*
X75806928Y-56196000D01*
X75819188Y-56320482D01*
X75837546Y-56381000D01*
X75819188Y-56441518D01*
X75806928Y-56566000D01*
X75806928Y-57466000D01*
X75819188Y-57590482D01*
X75855498Y-57710180D01*
X75914463Y-57820494D01*
X75993815Y-57917185D01*
X76090506Y-57996537D01*
X76200820Y-58055502D01*
X76320518Y-58091812D01*
X76445000Y-58104072D01*
X76790674Y-58104072D01*
X76810026Y-58140276D01*
X76868616Y-58211667D01*
X76905000Y-58256001D01*
X76933998Y-58279799D01*
X77218000Y-58563802D01*
X77218001Y-68003288D01*
X77174063Y-68047226D01*
X77060795Y-68216744D01*
X76982774Y-68405102D01*
X76943000Y-68605061D01*
X76943000Y-68808939D01*
X76982774Y-69008898D01*
X77060795Y-69197256D01*
X77174063Y-69366774D01*
X77318226Y-69510937D01*
X77487744Y-69624205D01*
X77676102Y-69702226D01*
X77876061Y-69742000D01*
X78079939Y-69742000D01*
X78279898Y-69702226D01*
X78468256Y-69624205D01*
X78637774Y-69510937D01*
X78781937Y-69366774D01*
X78895205Y-69197256D01*
X78973226Y-69008898D01*
X79013000Y-68808939D01*
X79013000Y-68605061D01*
X78973226Y-68405102D01*
X78895205Y-68216744D01*
X78781937Y-68047226D01*
X78738000Y-68003289D01*
X78738000Y-67500130D01*
X80412058Y-67500130D01*
X80415130Y-68714250D01*
X80573880Y-68873000D01*
X82423000Y-68873000D01*
X82423000Y-68853000D01*
X82677000Y-68853000D01*
X82677000Y-68873000D01*
X84526120Y-68873000D01*
X84684870Y-68714250D01*
X84687942Y-67500130D01*
X84675682Y-67375648D01*
X84639372Y-67255950D01*
X84580407Y-67145636D01*
X84501055Y-67048945D01*
X84404364Y-66969593D01*
X84294050Y-66910628D01*
X84174352Y-66874318D01*
X84049870Y-66862058D01*
X83889646Y-66862463D01*
X83910900Y-66848262D01*
X84208262Y-66550900D01*
X84441897Y-66201240D01*
X84602828Y-65812719D01*
X84684870Y-65400266D01*
X84684870Y-64979734D01*
X84602828Y-64567281D01*
X84441897Y-64178760D01*
X84208262Y-63829100D01*
X83910900Y-63531738D01*
X83561240Y-63298103D01*
X83172719Y-63137172D01*
X82760266Y-63055130D01*
X82339734Y-63055130D01*
X81927281Y-63137172D01*
X81538760Y-63298103D01*
X81189100Y-63531738D01*
X80891738Y-63829100D01*
X80658103Y-64178760D01*
X80497172Y-64567281D01*
X80415130Y-64979734D01*
X80415130Y-65400266D01*
X80497172Y-65812719D01*
X80658103Y-66201240D01*
X80891738Y-66550900D01*
X81189100Y-66848262D01*
X81210354Y-66862463D01*
X81050130Y-66862058D01*
X80925648Y-66874318D01*
X80805950Y-66910628D01*
X80695636Y-66969593D01*
X80598945Y-67048945D01*
X80519593Y-67145636D01*
X80460628Y-67255950D01*
X80424318Y-67375648D01*
X80412058Y-67500130D01*
X78738000Y-67500130D01*
X78738000Y-58286323D01*
X78741676Y-58249000D01*
X78738000Y-58211677D01*
X78738000Y-58211667D01*
X78727003Y-58100014D01*
X78710107Y-58044316D01*
X78799494Y-57996537D01*
X78860343Y-57946599D01*
X78906528Y-58098851D01*
X78988595Y-58252387D01*
X79099038Y-58386962D01*
X79233613Y-58497405D01*
X79387149Y-58579472D01*
X79553745Y-58630008D01*
X79726999Y-58647072D01*
X81077001Y-58647072D01*
X81250255Y-58630008D01*
X81416851Y-58579472D01*
X81570387Y-58497405D01*
X81704962Y-58386962D01*
X81815405Y-58252387D01*
X81897472Y-58098851D01*
X81924727Y-58009000D01*
X83388928Y-58009000D01*
X83401188Y-58133482D01*
X83437498Y-58253180D01*
X83496463Y-58363494D01*
X83575815Y-58460185D01*
X83672506Y-58539537D01*
X83782820Y-58598502D01*
X83902518Y-58634812D01*
X84027000Y-58647072D01*
X84666250Y-58644000D01*
X84825000Y-58485250D01*
X84825000Y-56261000D01*
X83550750Y-56261000D01*
X83392000Y-56419750D01*
X83388928Y-58009000D01*
X81924727Y-58009000D01*
X81948008Y-57932255D01*
X81965072Y-57759001D01*
X81965072Y-56634000D01*
X82240249Y-56634000D01*
X82296000Y-56639491D01*
X82351751Y-56634000D01*
X82351752Y-56634000D01*
X82518499Y-56617577D01*
X82732447Y-56552676D01*
X82929623Y-56447284D01*
X83102449Y-56305449D01*
X83137995Y-56262136D01*
X83471941Y-55928191D01*
X83550750Y-56007000D01*
X84825000Y-56007000D01*
X84825000Y-53782750D01*
X84666250Y-53624000D01*
X84066000Y-53621115D01*
X84066000Y-52397131D01*
X84131425Y-52331706D01*
X84244180Y-52297502D01*
X84354494Y-52238537D01*
X84451185Y-52159185D01*
X84530537Y-52062494D01*
X84589502Y-51952180D01*
X84625812Y-51832482D01*
X84638072Y-51708000D01*
X84638072Y-51631060D01*
X84661917Y-51552454D01*
X84668577Y-51530500D01*
X84672960Y-51486000D01*
X84685000Y-51363752D01*
X84685000Y-51363745D01*
X84690490Y-51308001D01*
X84685000Y-51252257D01*
X84685000Y-49240204D01*
X84706491Y-49022000D01*
X84684577Y-48799501D01*
X84619676Y-48585553D01*
X84536733Y-48430377D01*
X84568897Y-48382240D01*
X84729828Y-47993719D01*
X84811870Y-47581266D01*
X84811870Y-47160734D01*
X84729828Y-46748281D01*
X84568897Y-46359760D01*
X84335262Y-46010100D01*
X84037900Y-45712738D01*
X84016646Y-45698537D01*
X84176870Y-45698942D01*
X84301352Y-45686682D01*
X84421050Y-45650372D01*
X84531364Y-45591407D01*
X84628055Y-45512055D01*
X84707407Y-45415364D01*
X84766372Y-45305050D01*
X84802682Y-45185352D01*
X84814942Y-45060870D01*
X84811870Y-43846750D01*
X84653120Y-43688000D01*
X82804000Y-43688000D01*
X82804000Y-43708000D01*
X82550000Y-43708000D01*
X82550000Y-43688000D01*
X82530000Y-43688000D01*
X82530000Y-43434000D01*
X82550000Y-43434000D01*
X82550000Y-41584880D01*
X82804000Y-41584880D01*
X82804000Y-43434000D01*
X84653120Y-43434000D01*
X84811870Y-43275250D01*
X84814942Y-42061130D01*
X84802682Y-41936648D01*
X84766372Y-41816950D01*
X84707407Y-41706636D01*
X84628055Y-41609945D01*
X84531364Y-41530593D01*
X84421050Y-41471628D01*
X84301352Y-41435318D01*
X84176870Y-41423058D01*
X82962750Y-41426130D01*
X82804000Y-41584880D01*
X82550000Y-41584880D01*
X82391250Y-41426130D01*
X82280010Y-41425849D01*
X82315000Y-41249939D01*
X82315000Y-41046061D01*
X82275226Y-40846102D01*
X82197205Y-40657744D01*
X82083937Y-40488226D01*
X82040000Y-40444289D01*
X82040000Y-40296333D01*
X82043677Y-40259000D01*
X82029003Y-40110014D01*
X81985546Y-39966753D01*
X81914974Y-39834724D01*
X81843799Y-39747997D01*
X81820001Y-39718999D01*
X81791004Y-39695202D01*
X81744802Y-39649000D01*
X85317550Y-39649000D01*
X85374772Y-39787147D01*
G37*
X85374772Y-39787147D02*
X85559175Y-40063125D01*
X85793875Y-40297825D01*
X86069853Y-40482228D01*
X86086001Y-40488917D01*
X86086001Y-53658826D01*
X86001482Y-53633188D01*
X85877000Y-53620928D01*
X85237750Y-53624000D01*
X85079000Y-53782750D01*
X85079000Y-56007000D01*
X85099000Y-56007000D01*
X85099000Y-56261000D01*
X85079000Y-56261000D01*
X85079000Y-58485250D01*
X85237750Y-58644000D01*
X85877000Y-58647072D01*
X86001482Y-58634812D01*
X86086000Y-58609174D01*
X86086000Y-73758479D01*
X85942853Y-73817772D01*
X85666875Y-74002175D01*
X85432175Y-74236875D01*
X85247772Y-74512853D01*
X85241084Y-74529000D01*
X74469572Y-74529000D01*
X74469572Y-72710000D01*
X74457312Y-72585518D01*
X74421002Y-72465820D01*
X74362037Y-72355506D01*
X74282685Y-72258815D01*
X74185994Y-72179463D01*
X74075680Y-72120498D01*
X73955982Y-72084188D01*
X73831500Y-72071928D01*
X73572072Y-72071928D01*
X73572072Y-72014326D01*
X73608276Y-71994974D01*
X73724001Y-71900001D01*
X73747803Y-71870998D01*
X74425004Y-71193798D01*
X74454001Y-71170001D01*
X74490373Y-71125682D01*
X74548974Y-71054277D01*
X74619546Y-70922247D01*
X74619546Y-70922246D01*
X74663003Y-70778986D01*
X74674000Y-70667333D01*
X74674000Y-70667323D01*
X74677676Y-70630000D01*
X74674000Y-70592677D01*
X74674000Y-70499870D01*
X80412058Y-70499870D01*
X80424318Y-70624352D01*
X80460628Y-70744050D01*
X80519593Y-70854364D01*
X80598945Y-70951055D01*
X80695636Y-71030407D01*
X80805950Y-71089372D01*
X80925648Y-71125682D01*
X81050130Y-71137942D01*
X82264250Y-71134870D01*
X82423000Y-70976120D01*
X82423000Y-69127000D01*
X82677000Y-69127000D01*
X82677000Y-70976120D01*
X82835750Y-71134870D01*
X84049870Y-71137942D01*
X84174352Y-71125682D01*
X84294050Y-71089372D01*
X84404364Y-71030407D01*
X84501055Y-70951055D01*
X84580407Y-70854364D01*
X84639372Y-70744050D01*
X84675682Y-70624352D01*
X84687942Y-70499870D01*
X84684870Y-69285750D01*
X84526120Y-69127000D01*
X82677000Y-69127000D01*
X82423000Y-69127000D01*
X80573880Y-69127000D01*
X80415130Y-69285750D01*
X80412058Y-70499870D01*
X74674000Y-70499870D01*
X74674000Y-68521711D01*
X74717937Y-68477774D01*
X74831205Y-68308256D01*
X74909226Y-68119898D01*
X74949000Y-67919939D01*
X74949000Y-67716061D01*
X74909226Y-67516102D01*
X74831205Y-67327744D01*
X74717937Y-67158226D01*
X74573774Y-67014063D01*
X74404256Y-66900795D01*
X74215898Y-66822774D01*
X74015939Y-66783000D01*
X73812061Y-66783000D01*
X73612102Y-66822774D01*
X73423744Y-66900795D01*
X73254226Y-67014063D01*
X73249850Y-67018439D01*
X73182643Y-66990601D01*
X72982684Y-66950827D01*
X72778806Y-66950827D01*
X72578847Y-66990601D01*
X72390489Y-67068622D01*
X72369121Y-67082900D01*
X72343887Y-67066039D01*
X72155529Y-66988018D01*
X71955570Y-66948244D01*
X71751692Y-66948244D01*
X71731946Y-66952172D01*
X71707537Y-66906506D01*
X71628185Y-66809815D01*
X71531494Y-66730463D01*
X71421180Y-66671498D01*
X71301482Y-66635188D01*
X71177000Y-66622928D01*
X70956326Y-66622928D01*
X70936974Y-66586724D01*
X70907712Y-66551068D01*
X71688781Y-65770000D01*
X71798036Y-65770000D01*
X71805488Y-65783942D01*
X71914377Y-65916623D01*
X72047058Y-66025512D01*
X72198433Y-66106423D01*
X72362684Y-66156248D01*
X72533500Y-66173072D01*
X73008500Y-66173072D01*
X73179316Y-66156248D01*
X73343567Y-66106423D01*
X73494942Y-66025512D01*
X73596500Y-65942165D01*
X73698058Y-66025512D01*
X73849433Y-66106423D01*
X74013684Y-66156248D01*
X74184500Y-66173072D01*
X74659500Y-66173072D01*
X74830316Y-66156248D01*
X74994567Y-66106423D01*
X75145942Y-66025512D01*
X75278623Y-65916623D01*
X75283238Y-65911000D01*
X75400678Y-65911000D01*
X75438000Y-65914676D01*
X75475322Y-65911000D01*
X75475333Y-65911000D01*
X75586986Y-65900003D01*
X75730247Y-65856546D01*
X75862276Y-65785974D01*
X75978001Y-65691001D01*
X76001803Y-65661998D01*
X76457003Y-65206798D01*
X76486001Y-65183001D01*
X76580974Y-65067276D01*
X76651546Y-64935247D01*
X76695003Y-64791986D01*
X76706000Y-64680333D01*
X76706000Y-64680324D01*
X76709676Y-64643001D01*
X76706000Y-64605678D01*
X76706000Y-60362325D01*
X76709676Y-60325000D01*
X76706000Y-60287675D01*
X76706000Y-60287667D01*
X76695003Y-60176014D01*
X76651546Y-60032753D01*
X76580974Y-59900724D01*
X76486001Y-59784999D01*
X76457002Y-59761201D01*
X75747803Y-59052002D01*
X75744877Y-59048437D01*
X75748072Y-59016000D01*
X75748072Y-57016000D01*
X75735812Y-56891518D01*
X75699502Y-56771820D01*
X75640537Y-56661506D01*
X75561185Y-56564815D01*
X75464494Y-56485463D01*
X75422034Y-56462767D01*
X75631502Y-56253299D01*
X75660501Y-56229501D01*
X75755474Y-56113776D01*
X75806928Y-56017514D01*
X75806928Y-56196000D01*
X75819188Y-56320482D01*
X75837546Y-56381000D01*
X75819188Y-56441518D01*
X75806928Y-56566000D01*
X75806928Y-57466000D01*
X75819188Y-57590482D01*
X75855498Y-57710180D01*
X75914463Y-57820494D01*
X75993815Y-57917185D01*
X76090506Y-57996537D01*
X76200820Y-58055502D01*
X76320518Y-58091812D01*
X76445000Y-58104072D01*
X76790674Y-58104072D01*
X76810026Y-58140276D01*
X76868616Y-58211667D01*
X76905000Y-58256001D01*
X76933998Y-58279799D01*
X77218000Y-58563802D01*
X77218001Y-68003288D01*
X77174063Y-68047226D01*
X77060795Y-68216744D01*
X76982774Y-68405102D01*
X76943000Y-68605061D01*
X76943000Y-68808939D01*
X76982774Y-69008898D01*
X77060795Y-69197256D01*
X77174063Y-69366774D01*
X77318226Y-69510937D01*
X77487744Y-69624205D01*
X77676102Y-69702226D01*
X77876061Y-69742000D01*
X78079939Y-69742000D01*
X78279898Y-69702226D01*
X78468256Y-69624205D01*
X78637774Y-69510937D01*
X78781937Y-69366774D01*
X78895205Y-69197256D01*
X78973226Y-69008898D01*
X79013000Y-68808939D01*
X79013000Y-68605061D01*
X78973226Y-68405102D01*
X78895205Y-68216744D01*
X78781937Y-68047226D01*
X78738000Y-68003289D01*
X78738000Y-67500130D01*
X80412058Y-67500130D01*
X80415130Y-68714250D01*
X80573880Y-68873000D01*
X82423000Y-68873000D01*
X82423000Y-68853000D01*
X82677000Y-68853000D01*
X82677000Y-68873000D01*
X84526120Y-68873000D01*
X84684870Y-68714250D01*
X84687942Y-67500130D01*
X84675682Y-67375648D01*
X84639372Y-67255950D01*
X84580407Y-67145636D01*
X84501055Y-67048945D01*
X84404364Y-66969593D01*
X84294050Y-66910628D01*
X84174352Y-66874318D01*
X84049870Y-66862058D01*
X83889646Y-66862463D01*
X83910900Y-66848262D01*
X84208262Y-66550900D01*
X84441897Y-66201240D01*
X84602828Y-65812719D01*
X84684870Y-65400266D01*
X84684870Y-64979734D01*
X84602828Y-64567281D01*
X84441897Y-64178760D01*
X84208262Y-63829100D01*
X83910900Y-63531738D01*
X83561240Y-63298103D01*
X83172719Y-63137172D01*
X82760266Y-63055130D01*
X82339734Y-63055130D01*
X81927281Y-63137172D01*
X81538760Y-63298103D01*
X81189100Y-63531738D01*
X80891738Y-63829100D01*
X80658103Y-64178760D01*
X80497172Y-64567281D01*
X80415130Y-64979734D01*
X80415130Y-65400266D01*
X80497172Y-65812719D01*
X80658103Y-66201240D01*
X80891738Y-66550900D01*
X81189100Y-66848262D01*
X81210354Y-66862463D01*
X81050130Y-66862058D01*
X80925648Y-66874318D01*
X80805950Y-66910628D01*
X80695636Y-66969593D01*
X80598945Y-67048945D01*
X80519593Y-67145636D01*
X80460628Y-67255950D01*
X80424318Y-67375648D01*
X80412058Y-67500130D01*
X78738000Y-67500130D01*
X78738000Y-58286323D01*
X78741676Y-58249000D01*
X78738000Y-58211677D01*
X78738000Y-58211667D01*
X78727003Y-58100014D01*
X78710107Y-58044316D01*
X78799494Y-57996537D01*
X78860343Y-57946599D01*
X78906528Y-58098851D01*
X78988595Y-58252387D01*
X79099038Y-58386962D01*
X79233613Y-58497405D01*
X79387149Y-58579472D01*
X79553745Y-58630008D01*
X79726999Y-58647072D01*
X81077001Y-58647072D01*
X81250255Y-58630008D01*
X81416851Y-58579472D01*
X81570387Y-58497405D01*
X81704962Y-58386962D01*
X81815405Y-58252387D01*
X81897472Y-58098851D01*
X81924727Y-58009000D01*
X83388928Y-58009000D01*
X83401188Y-58133482D01*
X83437498Y-58253180D01*
X83496463Y-58363494D01*
X83575815Y-58460185D01*
X83672506Y-58539537D01*
X83782820Y-58598502D01*
X83902518Y-58634812D01*
X84027000Y-58647072D01*
X84666250Y-58644000D01*
X84825000Y-58485250D01*
X84825000Y-56261000D01*
X83550750Y-56261000D01*
X83392000Y-56419750D01*
X83388928Y-58009000D01*
X81924727Y-58009000D01*
X81948008Y-57932255D01*
X81965072Y-57759001D01*
X81965072Y-56634000D01*
X82240249Y-56634000D01*
X82296000Y-56639491D01*
X82351751Y-56634000D01*
X82351752Y-56634000D01*
X82518499Y-56617577D01*
X82732447Y-56552676D01*
X82929623Y-56447284D01*
X83102449Y-56305449D01*
X83137995Y-56262136D01*
X83471941Y-55928191D01*
X83550750Y-56007000D01*
X84825000Y-56007000D01*
X84825000Y-53782750D01*
X84666250Y-53624000D01*
X84066000Y-53621115D01*
X84066000Y-52397131D01*
X84131425Y-52331706D01*
X84244180Y-52297502D01*
X84354494Y-52238537D01*
X84451185Y-52159185D01*
X84530537Y-52062494D01*
X84589502Y-51952180D01*
X84625812Y-51832482D01*
X84638072Y-51708000D01*
X84638072Y-51631060D01*
X84661917Y-51552454D01*
X84668577Y-51530500D01*
X84672960Y-51486000D01*
X84685000Y-51363752D01*
X84685000Y-51363745D01*
X84690490Y-51308001D01*
X84685000Y-51252257D01*
X84685000Y-49240204D01*
X84706491Y-49022000D01*
X84684577Y-48799501D01*
X84619676Y-48585553D01*
X84536733Y-48430377D01*
X84568897Y-48382240D01*
X84729828Y-47993719D01*
X84811870Y-47581266D01*
X84811870Y-47160734D01*
X84729828Y-46748281D01*
X84568897Y-46359760D01*
X84335262Y-46010100D01*
X84037900Y-45712738D01*
X84016646Y-45698537D01*
X84176870Y-45698942D01*
X84301352Y-45686682D01*
X84421050Y-45650372D01*
X84531364Y-45591407D01*
X84628055Y-45512055D01*
X84707407Y-45415364D01*
X84766372Y-45305050D01*
X84802682Y-45185352D01*
X84814942Y-45060870D01*
X84811870Y-43846750D01*
X84653120Y-43688000D01*
X82804000Y-43688000D01*
X82804000Y-43708000D01*
X82550000Y-43708000D01*
X82550000Y-43688000D01*
X82530000Y-43688000D01*
X82530000Y-43434000D01*
X82550000Y-43434000D01*
X82550000Y-41584880D01*
X82804000Y-41584880D01*
X82804000Y-43434000D01*
X84653120Y-43434000D01*
X84811870Y-43275250D01*
X84814942Y-42061130D01*
X84802682Y-41936648D01*
X84766372Y-41816950D01*
X84707407Y-41706636D01*
X84628055Y-41609945D01*
X84531364Y-41530593D01*
X84421050Y-41471628D01*
X84301352Y-41435318D01*
X84176870Y-41423058D01*
X82962750Y-41426130D01*
X82804000Y-41584880D01*
X82550000Y-41584880D01*
X82391250Y-41426130D01*
X82280010Y-41425849D01*
X82315000Y-41249939D01*
X82315000Y-41046061D01*
X82275226Y-40846102D01*
X82197205Y-40657744D01*
X82083937Y-40488226D01*
X82040000Y-40444289D01*
X82040000Y-40296333D01*
X82043677Y-40259000D01*
X82029003Y-40110014D01*
X81985546Y-39966753D01*
X81914974Y-39834724D01*
X81843799Y-39747997D01*
X81820001Y-39718999D01*
X81791004Y-39695202D01*
X81744802Y-39649000D01*
X85317550Y-39649000D01*
X85374772Y-39787147D01*
G36*
X55906433Y-44988423D02*
G01*
X56070684Y-45038248D01*
X56241500Y-45055072D01*
X56439120Y-45055072D01*
X56430188Y-45084518D01*
X56417928Y-45209000D01*
X56421000Y-45448250D01*
X56579750Y-45607000D01*
X57404000Y-45607000D01*
X57404000Y-45587000D01*
X57658000Y-45587000D01*
X57658000Y-45607000D01*
X58482250Y-45607000D01*
X58641000Y-45448250D01*
X58644072Y-45209000D01*
X58631812Y-45084518D01*
X58621244Y-45049680D01*
X58737316Y-45038248D01*
X58818996Y-45013471D01*
X58806928Y-45136000D01*
X58806928Y-46036000D01*
X58819188Y-46160482D01*
X58837546Y-46221000D01*
X58819188Y-46281518D01*
X58806928Y-46406000D01*
X58806928Y-46772897D01*
X58681986Y-46734997D01*
X58570333Y-46724000D01*
X58570322Y-46724000D01*
X58533000Y-46720324D01*
X58503550Y-46723225D01*
X58496512Y-46710058D01*
X58476901Y-46686161D01*
X58536537Y-46613494D01*
X58595502Y-46503180D01*
X58631812Y-46383482D01*
X58644072Y-46259000D01*
X58641000Y-46019750D01*
X58482250Y-45861000D01*
X57658000Y-45861000D01*
X57658000Y-45881000D01*
X57404000Y-45881000D01*
X57404000Y-45861000D01*
X56579750Y-45861000D01*
X56421000Y-46019750D01*
X56417928Y-46259000D01*
X56430188Y-46383482D01*
X56466498Y-46503180D01*
X56525463Y-46613494D01*
X56585099Y-46686161D01*
X56565488Y-46710058D01*
X56484577Y-46861433D01*
X56434752Y-47025684D01*
X56417928Y-47196500D01*
X56417928Y-47771500D01*
X56434752Y-47942316D01*
X56484577Y-48106567D01*
X56565488Y-48257942D01*
X56671404Y-48387000D01*
X56565488Y-48516058D01*
X56484577Y-48667433D01*
X56434752Y-48831684D01*
X56417928Y-49002500D01*
X56417928Y-49577500D01*
X56434752Y-49748316D01*
X56484577Y-49912567D01*
X56565488Y-50063942D01*
X56648425Y-50165000D01*
X56565488Y-50266058D01*
X56558036Y-50280000D01*
X56439322Y-50280000D01*
X56401999Y-50276324D01*
X56364676Y-50280000D01*
X56364667Y-50280000D01*
X56253014Y-50290997D01*
X56109753Y-50334454D01*
X56106995Y-50335928D01*
X55541000Y-50335928D01*
X55416518Y-50348188D01*
X55296820Y-50384498D01*
X55186506Y-50443463D01*
X55110000Y-50506250D01*
X55110000Y-49440162D01*
X55379262Y-49170900D01*
X55612897Y-48821240D01*
X55773828Y-48432719D01*
X55855870Y-48020266D01*
X55855870Y-47599734D01*
X55773828Y-47187281D01*
X55612897Y-46798760D01*
X55379262Y-46449100D01*
X55081900Y-46151738D01*
X55060646Y-46137537D01*
X55220870Y-46137942D01*
X55345352Y-46125682D01*
X55465050Y-46089372D01*
X55575364Y-46030407D01*
X55672055Y-45951055D01*
X55751407Y-45854364D01*
X55810372Y-45744050D01*
X55846682Y-45624352D01*
X55858942Y-45499870D01*
X55857582Y-44962312D01*
X55906433Y-44988423D01*
G37*
X55906433Y-44988423D02*
X56070684Y-45038248D01*
X56241500Y-45055072D01*
X56439120Y-45055072D01*
X56430188Y-45084518D01*
X56417928Y-45209000D01*
X56421000Y-45448250D01*
X56579750Y-45607000D01*
X57404000Y-45607000D01*
X57404000Y-45587000D01*
X57658000Y-45587000D01*
X57658000Y-45607000D01*
X58482250Y-45607000D01*
X58641000Y-45448250D01*
X58644072Y-45209000D01*
X58631812Y-45084518D01*
X58621244Y-45049680D01*
X58737316Y-45038248D01*
X58818996Y-45013471D01*
X58806928Y-45136000D01*
X58806928Y-46036000D01*
X58819188Y-46160482D01*
X58837546Y-46221000D01*
X58819188Y-46281518D01*
X58806928Y-46406000D01*
X58806928Y-46772897D01*
X58681986Y-46734997D01*
X58570333Y-46724000D01*
X58570322Y-46724000D01*
X58533000Y-46720324D01*
X58503550Y-46723225D01*
X58496512Y-46710058D01*
X58476901Y-46686161D01*
X58536537Y-46613494D01*
X58595502Y-46503180D01*
X58631812Y-46383482D01*
X58644072Y-46259000D01*
X58641000Y-46019750D01*
X58482250Y-45861000D01*
X57658000Y-45861000D01*
X57658000Y-45881000D01*
X57404000Y-45881000D01*
X57404000Y-45861000D01*
X56579750Y-45861000D01*
X56421000Y-46019750D01*
X56417928Y-46259000D01*
X56430188Y-46383482D01*
X56466498Y-46503180D01*
X56525463Y-46613494D01*
X56585099Y-46686161D01*
X56565488Y-46710058D01*
X56484577Y-46861433D01*
X56434752Y-47025684D01*
X56417928Y-47196500D01*
X56417928Y-47771500D01*
X56434752Y-47942316D01*
X56484577Y-48106567D01*
X56565488Y-48257942D01*
X56671404Y-48387000D01*
X56565488Y-48516058D01*
X56484577Y-48667433D01*
X56434752Y-48831684D01*
X56417928Y-49002500D01*
X56417928Y-49577500D01*
X56434752Y-49748316D01*
X56484577Y-49912567D01*
X56565488Y-50063942D01*
X56648425Y-50165000D01*
X56565488Y-50266058D01*
X56558036Y-50280000D01*
X56439322Y-50280000D01*
X56401999Y-50276324D01*
X56364676Y-50280000D01*
X56364667Y-50280000D01*
X56253014Y-50290997D01*
X56109753Y-50334454D01*
X56106995Y-50335928D01*
X55541000Y-50335928D01*
X55416518Y-50348188D01*
X55296820Y-50384498D01*
X55186506Y-50443463D01*
X55110000Y-50506250D01*
X55110000Y-49440162D01*
X55379262Y-49170900D01*
X55612897Y-48821240D01*
X55773828Y-48432719D01*
X55855870Y-48020266D01*
X55855870Y-47599734D01*
X55773828Y-47187281D01*
X55612897Y-46798760D01*
X55379262Y-46449100D01*
X55081900Y-46151738D01*
X55060646Y-46137537D01*
X55220870Y-46137942D01*
X55345352Y-46125682D01*
X55465050Y-46089372D01*
X55575364Y-46030407D01*
X55672055Y-45951055D01*
X55751407Y-45854364D01*
X55810372Y-45744050D01*
X55846682Y-45624352D01*
X55858942Y-45499870D01*
X55857582Y-44962312D01*
X55906433Y-44988423D01*
M02*
