G04 #@! TF.GenerationSoftware,KiCad,Pcbnew,(5.1.5)-3*
G04 #@! TF.CreationDate,2020-08-30T19:55:31+02:00*
G04 #@! TF.ProjectId,Drone_PCB,44726f6e-655f-4504-9342-2e6b69636164,rev?*
G04 #@! TF.SameCoordinates,Original*
G04 #@! TF.FileFunction,Legend,Top*
G04 #@! TF.FilePolarity,Positive*
%FSLAX46Y46*%
G04 Gerber Fmt 4.6, Leading zero omitted, Abs format (unit mm)*
G04 Created by KiCad (PCBNEW (5.1.5)-3) date 2020-08-30 19:55:31*
%MOMM*%
%LPD*%
G04 APERTURE LIST*
%ADD10C,0.150000*%
%ADD11C,0.040000*%
%ADD12C,0.120000*%
G04 APERTURE END LIST*
D10*
X76214647Y-72766180D02*
X76214647Y-71766180D01*
X76547980Y-72480466D01*
X76881314Y-71766180D01*
X76881314Y-72766180D01*
X77786076Y-72766180D02*
X77786076Y-72242371D01*
X77738457Y-72147133D01*
X77643219Y-72099514D01*
X77452742Y-72099514D01*
X77357504Y-72147133D01*
X77786076Y-72718561D02*
X77690838Y-72766180D01*
X77452742Y-72766180D01*
X77357504Y-72718561D01*
X77309885Y-72623323D01*
X77309885Y-72528085D01*
X77357504Y-72432847D01*
X77452742Y-72385228D01*
X77690838Y-72385228D01*
X77786076Y-72337609D01*
X78690838Y-72766180D02*
X78690838Y-71766180D01*
X78690838Y-72718561D02*
X78595600Y-72766180D01*
X78405123Y-72766180D01*
X78309885Y-72718561D01*
X78262266Y-72670942D01*
X78214647Y-72575704D01*
X78214647Y-72289990D01*
X78262266Y-72194752D01*
X78309885Y-72147133D01*
X78405123Y-72099514D01*
X78595600Y-72099514D01*
X78690838Y-72147133D01*
X79547980Y-72718561D02*
X79452742Y-72766180D01*
X79262266Y-72766180D01*
X79167028Y-72718561D01*
X79119409Y-72623323D01*
X79119409Y-72242371D01*
X79167028Y-72147133D01*
X79262266Y-72099514D01*
X79452742Y-72099514D01*
X79547980Y-72147133D01*
X79595600Y-72242371D01*
X79595600Y-72337609D01*
X79119409Y-72432847D01*
X80786076Y-72766180D02*
X80786076Y-71766180D01*
X80786076Y-72147133D02*
X80881314Y-72099514D01*
X81071790Y-72099514D01*
X81167028Y-72147133D01*
X81214647Y-72194752D01*
X81262266Y-72289990D01*
X81262266Y-72575704D01*
X81214647Y-72670942D01*
X81167028Y-72718561D01*
X81071790Y-72766180D01*
X80881314Y-72766180D01*
X80786076Y-72718561D01*
X81595600Y-72099514D02*
X81833695Y-72766180D01*
X82071790Y-72099514D02*
X81833695Y-72766180D01*
X81738457Y-73004276D01*
X81690838Y-73051895D01*
X81595600Y-73099514D01*
D11*
X78705464Y-74403828D02*
G75*
G02X78636179Y-74431901I-103732J156479D01*
G01*
X79034674Y-74200428D02*
G75*
G02X79041416Y-74303834I-789675J-103406D01*
G01*
X78746568Y-74357090D02*
G75*
G02X78705464Y-74403828I-106987J52647D01*
G01*
X78759374Y-74265717D02*
G75*
G02X78761416Y-74293289I-185094J-27572D01*
G01*
X78744274Y-74209711D02*
G75*
G02X78753243Y-74236401I-218237J-88193D01*
G01*
X78733596Y-74190518D02*
G75*
G02X78744274Y-74209711I-71869J-52552D01*
G01*
X78421416Y-73811861D02*
X78421416Y-73682803D01*
X79039391Y-74379864D02*
G75*
G02X79031992Y-74425737I-217941J11617D01*
G01*
X79031992Y-74425737D02*
G75*
G02X79016244Y-74462072I-134570J36745D01*
G01*
X78987242Y-74502230D02*
G75*
G02X78907116Y-74574557I-302362J254421D01*
G01*
X78677308Y-73880236D02*
G75*
G02X78646498Y-73915918I-100689J55798D01*
G01*
X78446416Y-73485164D02*
X78121416Y-73476222D01*
X78614587Y-73712609D02*
G75*
G02X78645126Y-73727613I-60305J-161327D01*
G01*
X78526416Y-73693982D02*
G75*
G02X78575375Y-73701451I-57867J-543510D01*
G01*
X78896220Y-74040820D02*
G75*
G02X78969014Y-74083163I-162778J-363579D01*
G01*
X78667646Y-73746775D02*
G75*
G02X78688972Y-73786683I-76286J-66418D01*
G01*
X78927845Y-73919384D02*
G75*
G02X78859941Y-73981708I-155396J101156D01*
G01*
X79012350Y-74132451D02*
G75*
G02X79034674Y-74200429I-168373J-92949D01*
G01*
X78907117Y-74574557D02*
G75*
G02X78816362Y-74615497I-162170J238434D01*
G01*
X78816361Y-74615497D02*
G75*
G02X78683693Y-74635137I-161061J630069D01*
G01*
X79016244Y-74462072D02*
G75*
G02X78987243Y-74502230I-285153J175380D01*
G01*
X78421416Y-73682803D02*
X78526416Y-73693982D01*
X78692322Y-73834192D02*
G75*
G02X78677308Y-73880236I-126685J15839D01*
G01*
X78890075Y-73556911D02*
G75*
G02X78948459Y-73621299I-127243J-174040D01*
G01*
X78688972Y-73786683D02*
G75*
G02X78692322Y-73834192I-118731J-32245D01*
G01*
X78627592Y-73925572D02*
G75*
G02X78595132Y-73933575I-95943J319330D01*
G01*
X78421416Y-73940918D02*
X78421416Y-73811861D01*
X79039391Y-74379864D02*
X79041416Y-74303834D01*
X78575374Y-73701451D02*
G75*
G02X78614587Y-73712609I-49539J-248585D01*
G01*
X78761415Y-74293289D02*
G75*
G02X78746568Y-74357089I-144501J0D01*
G01*
X78948459Y-73621298D02*
G75*
G02X78978280Y-73714097I-190048J-112264D01*
G01*
X78835527Y-73996886D02*
G75*
G02X78859941Y-73981708I129101J-180432D01*
G01*
X78645126Y-73727612D02*
G75*
G02X78667646Y-73746775I-52386J-84379D01*
G01*
X78556813Y-73939078D02*
G75*
G02X78517593Y-73940918I-39220J417102D01*
G01*
X78121416Y-74640918D02*
X78446416Y-74640479D01*
X78595132Y-73933575D02*
G75*
G02X78556813Y-73939079I-75386J388709D01*
G01*
X78646498Y-73915918D02*
G75*
G02X78627592Y-73925572I-35945J47056D01*
G01*
X78679613Y-73496230D02*
X78446416Y-73485164D01*
X78896221Y-74040820D02*
X78845097Y-74017191D01*
X78978280Y-73714098D02*
G75*
G02X78970031Y-73822041I-329119J-29136D01*
G01*
X78808917Y-73517902D02*
G75*
G02X78890075Y-73556911I-64659J-238454D01*
G01*
X78970031Y-73822041D02*
G75*
G02X78927845Y-73919384I-307888J75619D01*
G01*
X78121416Y-74058570D02*
X78121416Y-74640918D01*
X78446416Y-74640479D02*
X78683693Y-74635137D01*
X78517593Y-73940918D02*
X78421416Y-73940918D01*
X78636179Y-74431900D02*
G75*
G02X78538718Y-74440918I-97461J522151D01*
G01*
X78679613Y-73496231D02*
G75*
G02X78808917Y-73517902I-44740J-663520D01*
G01*
X78121416Y-73476222D02*
X78121416Y-74058570D01*
X78845097Y-74017192D02*
G75*
G02X78833525Y-74006781I11805J24759D01*
G01*
X78969014Y-74083163D02*
G75*
G02X79012350Y-74132451I-90205J-123008D01*
G01*
X78563596Y-74144439D02*
X78636068Y-74150207D01*
X78421416Y-74136405D02*
X78563596Y-74144439D01*
X78421416Y-74288662D02*
X78421416Y-74136405D01*
X78421416Y-74440918D02*
X78421416Y-74288662D01*
X78538718Y-74440918D02*
X78421416Y-74440918D01*
X78753244Y-74236401D02*
G75*
G02X78759373Y-74265718I-248327J-67221D01*
G01*
X78833526Y-74006781D02*
G75*
G02X78835527Y-73996886I6310J3874D01*
G01*
X80451446Y-74364606D02*
X80497657Y-74184818D01*
X79951365Y-74215622D02*
X79971161Y-74290918D01*
X79773152Y-74294653D02*
X79806176Y-74164980D01*
X80399517Y-74565918D02*
X80412603Y-74515531D01*
X80090029Y-73769175D02*
X80060345Y-73645563D01*
X80189585Y-74163585D02*
X80160517Y-74060107D01*
X80211826Y-74229052D02*
X80189585Y-74163585D01*
X80040759Y-74555918D02*
X80062957Y-74640918D01*
X79913050Y-74069246D02*
X79931079Y-74138232D01*
X79901274Y-74023900D02*
X79913050Y-74069246D01*
X79882233Y-73965601D02*
G75*
G02X79891879Y-73991273I-243702J-106219D01*
G01*
X80221633Y-74228956D02*
G75*
G02X80211826Y-74229052I-4921J1726D01*
G01*
X80253473Y-74097811D02*
X80229546Y-74201736D01*
X80221416Y-74640918D02*
X80379874Y-74640918D01*
X79178034Y-73909096D02*
X79218762Y-74067977D01*
X80011158Y-74443012D02*
X80029107Y-74511397D01*
X78681951Y-74158726D02*
G75*
G02X78712512Y-74171512I-33033J-121866D01*
G01*
X80532922Y-73480918D02*
X80387582Y-73480918D01*
X79971161Y-74290918D02*
X79990937Y-74366067D01*
X79891879Y-73991273D02*
X79901274Y-74023900D01*
X79873490Y-73948343D02*
G75*
G02X79882233Y-73965601I-144518J-84058D01*
G01*
X79868033Y-73947634D02*
G75*
G02X79873491Y-73948344I2456J-2456D01*
G01*
X79143861Y-73775142D02*
X79178034Y-73909096D01*
X80379874Y-74640918D02*
X80399517Y-74565918D01*
X79218762Y-74067977D02*
X79259393Y-74225904D01*
X79541441Y-74244039D02*
G75*
G02X79536608Y-74252393I-18056J4870D01*
G01*
X79639686Y-73867167D02*
X79602965Y-74012050D01*
X80229545Y-74201736D02*
G75*
G02X80221632Y-74228957I-253105J58817D01*
G01*
X80281078Y-73974690D02*
X80253473Y-74097811D01*
X80678262Y-73480918D02*
X80532922Y-73480918D01*
X79931079Y-74138232D02*
X79951365Y-74215622D01*
X79994830Y-73486601D02*
G75*
G02X80016261Y-73496710I-9394J-47683D01*
G01*
X78636068Y-74150207D02*
G75*
G02X78681951Y-74158725I-29431J-286372D01*
G01*
X80016261Y-73496710D02*
G75*
G02X80028266Y-73515075I-23186J-28263D01*
G01*
X80123316Y-73908957D02*
X80090029Y-73769175D01*
X80412603Y-74515531D02*
X80451446Y-74364606D01*
X80160517Y-74060107D02*
X80123316Y-73908957D01*
X79835726Y-74054007D02*
X79862300Y-73957467D01*
X80548711Y-73985918D02*
X80678262Y-73480918D01*
X80497657Y-74184818D02*
X80548711Y-73985918D01*
X80062957Y-74640918D02*
X80221416Y-74640918D01*
X80029107Y-74511397D02*
X80040759Y-74555918D01*
X79259393Y-74225904D02*
X79293205Y-74356680D01*
X79689024Y-74630918D02*
X79773152Y-74294653D01*
X79293205Y-74356680D02*
X79367320Y-74642441D01*
X79806176Y-74164980D02*
X79835726Y-74054007D01*
X79862300Y-73957467D02*
G75*
G02X79868033Y-73947634I21533J-5967D01*
G01*
X79536609Y-74252392D02*
G75*
G02X79531925Y-74251069I-1972J1971D01*
G01*
X79602965Y-74012050D02*
X79570590Y-74135530D01*
X79570590Y-74135530D02*
X79541440Y-74244039D01*
X79733787Y-73490918D02*
X79639686Y-73867167D01*
X80311281Y-73835918D02*
X80281078Y-73974690D01*
X79528172Y-74636680D02*
X79689024Y-74630918D01*
X79990937Y-74366067D02*
X80011158Y-74443012D01*
X80387582Y-73480918D02*
X80311281Y-73835918D01*
X78712512Y-74171511D02*
G75*
G02X78733596Y-74190518I-34982J-60003D01*
G01*
X79367320Y-74642441D02*
X79528172Y-74636680D01*
X79875986Y-73485075D02*
X79733787Y-73490918D01*
X79955718Y-73483001D02*
X79875986Y-73485075D01*
X79955718Y-73483000D02*
G75*
G02X79994830Y-73486600I2097J-191490D01*
G01*
X80034995Y-73540780D02*
X80028266Y-73515075D01*
X80060345Y-73645563D02*
X80034995Y-73540780D01*
X81971927Y-74869634D02*
X81979338Y-74850516D01*
X81961479Y-74890957D02*
X81971927Y-74869634D01*
X81949115Y-74911622D02*
X81961479Y-74890957D01*
X81949115Y-74911622D02*
G75*
G02X81925745Y-74938632I-112449J73679D01*
G01*
X81985943Y-74812106D02*
X82103883Y-74486881D01*
X82228208Y-74148052D02*
X82356249Y-73805918D01*
X82560745Y-74202032D02*
G75*
G02X82534543Y-74216401I-44827J50670D01*
G01*
X82103883Y-74486881D02*
X82228208Y-74148052D01*
X81981416Y-74837908D02*
G75*
G02X81985943Y-74812106I75788J1D01*
G01*
X81981416Y-74837908D02*
G75*
G02X81979338Y-74850516I-39299J1D01*
G01*
X82228270Y-73780918D02*
X82090845Y-73780918D01*
X81824206Y-74055918D02*
X81732486Y-73780918D01*
X82294534Y-73782081D02*
X82228270Y-73780918D01*
X81915925Y-74330918D02*
X81824206Y-74055918D01*
X82003385Y-74055918D02*
X81915925Y-74330918D01*
X81446563Y-73780918D02*
X81603989Y-74193922D01*
X81732486Y-73780918D02*
X81589525Y-73780918D01*
X82090845Y-73780918D02*
X82003385Y-74055918D01*
X81589525Y-73780918D02*
X81446563Y-73780918D01*
X82294534Y-73782080D02*
G75*
G02X82332996Y-73786484I-8611J-245377D01*
G01*
X82352405Y-73794286D02*
G75*
G02X82356249Y-73805918I-5265J-8191D01*
G01*
X82332996Y-73786484D02*
G75*
G02X82352406Y-73794286I-10659J-54568D01*
G01*
X77663157Y-73707404D02*
G75*
G02X77779308Y-73740493I-56799J-419782D01*
G01*
X80911415Y-73749670D02*
G75*
G02X80964981Y-73741416I44248J-109218D01*
G01*
X81020966Y-74480918D02*
G75*
G02X80963852Y-74474818I-1J270419D01*
G01*
X81093651Y-74472001D02*
G75*
G02X81020965Y-74480918I-72686J291780D01*
G01*
X81171794Y-74398075D02*
G75*
G02X81143215Y-74444936I-99728J28674D01*
G01*
X80907841Y-74420755D02*
G75*
G02X80901416Y-74365953I230488J54802D01*
G01*
X80927751Y-74455593D02*
G75*
G02X80907841Y-74420755I49334J51302D01*
G01*
X80963851Y-74474818D02*
G75*
G02X80927750Y-74455593I15821J73217D01*
G01*
X81143215Y-74444936D02*
G75*
G02X81093652Y-74472001I-76551J81269D01*
G01*
X81089825Y-73754523D02*
X80964981Y-73741416D01*
X81181416Y-74329785D02*
G75*
G02X81171793Y-74398075I-247137J1D01*
G01*
X80723311Y-74609445D02*
G75*
G02X80655386Y-74520811I166666J198071D01*
G01*
X81181415Y-74038507D02*
G75*
G02X81174539Y-74057742I-30340J-1D01*
G01*
X80898718Y-73753499D02*
X80869384Y-73759152D01*
X80626694Y-74407173D02*
G75*
G02X80642123Y-74292232I303993J17698D01*
G01*
X81089513Y-74610918D02*
G75*
G02X81002006Y-74651013I-162974J240155D01*
G01*
X80642123Y-74292232D02*
G75*
G02X80699462Y-74199795I225903J-76127D01*
G01*
X80825609Y-74126769D02*
G75*
G02X80919137Y-74104288I194688J-604161D01*
G01*
X81048941Y-73944544D02*
G75*
G02X81147448Y-73980116I-54041J-303832D01*
G01*
X80917083Y-73938995D02*
G75*
G02X81048941Y-73944544I45340J-491970D01*
G01*
X80701416Y-73999144D02*
X80786416Y-73968250D01*
X77779308Y-73740493D02*
G75*
G02X77874692Y-73803997I-140886J-315003D01*
G01*
X80699462Y-74199795D02*
G75*
G02X80754933Y-74157691I181405J-181404D01*
G01*
X77914926Y-73600703D02*
G75*
G02X77988338Y-73648201I-491433J-840041D01*
G01*
X81119633Y-74079723D02*
X81046416Y-74087991D01*
X78061415Y-73719563D02*
G75*
G02X78057936Y-73728740I-13844J0D01*
G01*
X81174539Y-74057742D02*
G75*
G02X81156259Y-74070730I-32938J27001D01*
G01*
X80786415Y-73968250D02*
G75*
G02X80917083Y-73938995I178668J-491573D01*
G01*
X77874692Y-73803997D02*
X77918515Y-73845166D01*
X80701416Y-73891257D02*
X80701416Y-73999144D01*
X80701416Y-73783369D02*
X80701416Y-73891257D01*
X78049777Y-73695059D02*
X77988338Y-73648201D01*
X78017335Y-73768583D02*
X78040427Y-73747301D01*
X77840847Y-73562364D02*
G75*
G02X77914926Y-73600703I-333157J-734457D01*
G01*
X81374606Y-73853241D02*
G75*
G02X81418088Y-73923253I-105970J-114322D01*
G01*
X81441416Y-74640918D02*
X81441416Y-74299925D01*
X81187256Y-74622239D02*
G75*
G02X81181416Y-74600918I35998J21320D01*
G01*
X81168785Y-74564320D02*
G75*
G02X81178636Y-74571604I977J-8982D01*
G01*
X81002006Y-74651012D02*
G75*
G02X80899066Y-74664419I-101371J376444D01*
G01*
X81147449Y-73980117D02*
G75*
G02X81181416Y-74038508I-33205J-58391D01*
G01*
X78040427Y-73747301D02*
X78057936Y-73728740D01*
X77918515Y-73845166D02*
X77989965Y-73790669D01*
X77989965Y-73790669D02*
X78017335Y-73768583D01*
X80655385Y-74520811D02*
G75*
G02X80626693Y-74407173I282421J131750D01*
G01*
X81311416Y-74640918D02*
X81441416Y-74640918D01*
X80899066Y-74664419D02*
G75*
G02X80799837Y-74650235I1466J364439D01*
G01*
X80834256Y-73765077D02*
X80796416Y-73770571D01*
X80799837Y-74650236D02*
G75*
G02X80723311Y-74609445I57528J200105D01*
G01*
X81046416Y-74087991D02*
X80919137Y-74104288D01*
X77731016Y-73529400D02*
G75*
G02X77840847Y-73562364I-67090J-422992D01*
G01*
X80911415Y-73749669D02*
G75*
G02X80898718Y-73753499I-27104J66902D01*
G01*
X80754933Y-74157691D02*
G75*
G02X80825609Y-74126769I188379J-334336D01*
G01*
X77597134Y-73519633D02*
G75*
G02X77731015Y-73529400I9269J-795440D01*
G01*
X80869384Y-73759152D02*
X80834256Y-73765077D01*
X80796416Y-73770571D02*
X80701416Y-73783369D01*
X81215010Y-73774992D02*
X81089825Y-73754523D01*
X81215011Y-73774991D02*
G75*
G02X81293074Y-73799591I-71126J-361866D01*
G01*
X81293073Y-73799592D02*
G75*
G02X81374605Y-73853240I-119819J-270871D01*
G01*
X81418088Y-73923253D02*
G75*
G02X81437211Y-74041463I-450227J-133485D01*
G01*
X81149315Y-74571247D02*
G75*
G02X81168785Y-74564320I24302J-37482D01*
G01*
X77350996Y-73568072D02*
G75*
G02X77462679Y-73532556I193906J-416401D01*
G01*
X81156259Y-74070729D02*
G75*
G02X81119633Y-74079723I-58822J160477D01*
G01*
X81089513Y-74610918D02*
X81149315Y-74571247D01*
X78049777Y-73695058D02*
G75*
G02X78061416Y-73719563I-19976J-24505D01*
G01*
X77462679Y-73532556D02*
G75*
G02X77597134Y-73519634I143816J-790437D01*
G01*
X81441416Y-74299925D02*
X81437211Y-74041463D01*
X81235345Y-74639791D02*
X81311416Y-74640918D01*
X81235345Y-74639791D02*
G75*
G02X81202666Y-74634380I3663J123525D01*
G01*
X81202666Y-74634380D02*
G75*
G02X81187256Y-74622239I8002J26007D01*
G01*
X81178636Y-74571604D02*
G75*
G02X81181416Y-74600918I-153202J-29315D01*
G01*
X79531925Y-74251069D02*
X79506932Y-74145572D01*
X76966934Y-73924344D02*
G75*
G02X76921658Y-74050526I-319995J43604D01*
G01*
X76824286Y-73556233D02*
G75*
G02X76912084Y-73646104I-139146J-223759D01*
G01*
X76921658Y-74050526D02*
G75*
G02X76860265Y-74121712I-253962J156957D01*
G01*
X76101416Y-74640918D02*
X76211416Y-74640918D01*
X79479300Y-74023241D02*
X79448188Y-73876144D01*
X79506932Y-74145572D02*
X79479300Y-74023241D01*
X76781571Y-74167580D02*
G75*
G02X76672904Y-74192606I-151510J409453D01*
G01*
X76321416Y-74420918D02*
X76321416Y-74200918D01*
X79218688Y-73485142D02*
X79068632Y-73479366D01*
X76860265Y-74121712D02*
G75*
G02X76781571Y-74167580I-170343J201812D01*
G01*
X79368745Y-73490918D02*
X79218688Y-73485142D01*
X76962637Y-73778894D02*
G75*
G02X76966934Y-73924343I-434695J-85631D01*
G01*
X76672904Y-74192605D02*
G75*
G02X76516416Y-74200479I-160165J1624261D01*
G01*
X76912084Y-73646104D02*
G75*
G02X76962636Y-73778894I-363259J-214308D01*
G01*
X76426416Y-73503863D02*
X76101416Y-73496808D01*
X76711481Y-73516978D02*
G75*
G02X76771158Y-73530997I-40125J-304838D01*
G01*
X76321416Y-74200918D02*
X76516416Y-74200479D01*
X76321416Y-74640918D02*
X76321416Y-74420918D01*
X76211416Y-74640918D02*
X76321416Y-74640918D01*
X79448188Y-73876144D02*
X79368745Y-73490918D01*
X76101416Y-74068863D02*
X76101416Y-74640918D01*
X76101416Y-73496808D02*
X76101416Y-74068863D01*
X76619293Y-73509321D02*
X76426416Y-73503863D01*
X79068632Y-73479366D02*
X79143861Y-73775142D01*
X76619293Y-73509320D02*
G75*
G02X76711481Y-73516978I-33609J-963373D01*
G01*
X76771158Y-73530997D02*
G75*
G02X76824286Y-73556234I-84748J-246953D01*
G01*
X76321416Y-74020918D02*
X76321416Y-73848349D01*
X76738771Y-73848920D02*
G75*
G02X76735775Y-73900156I-154009J-16701D01*
G01*
X77234497Y-73992386D02*
G75*
G02X77301321Y-73845091I347951J-69050D01*
G01*
X77315516Y-74302146D02*
G75*
G02X77239548Y-74155731I288035J242365D01*
G01*
X77427219Y-74391606D02*
G75*
G02X77315517Y-74302145I169434J326022D01*
G01*
X77563685Y-74430641D02*
G75*
G02X77427218Y-74391607I27702J354922D01*
G01*
X77710877Y-74414102D02*
G75*
G02X77563685Y-74430640I-116643J374865D01*
G01*
X77852960Y-74344092D02*
G75*
G02X77710878Y-74414102I-293377J416217D01*
G01*
X77937228Y-74284694D02*
X77852960Y-74344092D01*
X77999476Y-74348917D02*
X77937228Y-74284694D01*
X78061723Y-74413140D02*
X77999476Y-74348917D01*
X77461113Y-74600479D02*
G75*
G02X77350075Y-74570393I62329J449980D01*
G01*
X78006569Y-74464829D02*
X78061723Y-74413140D01*
X77064665Y-74254981D02*
G75*
G02X77041821Y-74151638I521232J169418D01*
G01*
X78006569Y-74464829D02*
G75*
G02X77920241Y-74532493I-425783J454325D01*
G01*
X77920242Y-74532493D02*
G75*
G02X77830750Y-74576859I-234540J360658D01*
G01*
X77830750Y-74576859D02*
G75*
G02X77728072Y-74601571I-165618J462466D01*
G01*
X77728073Y-74601570D02*
G75*
G02X77601416Y-74609923I-129917J1005596D01*
G01*
X77164296Y-74429445D02*
G75*
G02X77105457Y-74347121I375738J330738D01*
G01*
X76626126Y-74003505D02*
G75*
G02X76557901Y-74016831I-96115J310754D01*
G01*
X76580180Y-73692391D02*
G75*
G02X76629151Y-73701971I-22646J-245736D01*
G01*
X77350075Y-74570394D02*
G75*
G02X77255161Y-74515124I154866J375085D01*
G01*
X77121909Y-73757740D02*
G75*
G02X77220070Y-73650122I411225J-276509D01*
G01*
X77255161Y-74515123D02*
G75*
G02X77164296Y-74429444I413994J530072D01*
G01*
X76557901Y-74016831D02*
X76462730Y-74020918D01*
X76715779Y-73942652D02*
G75*
G02X76676558Y-73979434I-131656J101083D01*
G01*
X76724559Y-73796041D02*
G75*
G02X76738771Y-73848920I-162608J-72054D01*
G01*
X77220069Y-73650122D02*
G75*
G02X77350996Y-73568071I394598J-484168D01*
G01*
X76694770Y-73748920D02*
G75*
G02X76724558Y-73796041I-144637J-124412D01*
G01*
X76484770Y-73685236D02*
X76580180Y-73692391D01*
X77601416Y-74609923D02*
G75*
G02X77461113Y-74600479I-3213J999162D01*
G01*
X77041822Y-74151638D02*
G75*
G02X77036397Y-74035948I777587J94434D01*
G01*
X77060276Y-73887877D02*
G75*
G02X77121909Y-73757741I462356J-139310D01*
G01*
X76662624Y-73718900D02*
G75*
G02X76694770Y-73748921I-120836J-161610D01*
G01*
X76629151Y-73701971D02*
G75*
G02X76662624Y-73718900I-31477J-103796D01*
G01*
X76462730Y-74020918D02*
X76321416Y-74020918D01*
X76735775Y-73900156D02*
G75*
G02X76715779Y-73942652I-107307J24540D01*
G01*
X77105457Y-74347120D02*
G75*
G02X77064666Y-74254980I427432J244329D01*
G01*
X77036397Y-74035948D02*
G75*
G02X77060276Y-73887877I566338J-15374D01*
G01*
X76321416Y-73848349D02*
X76321416Y-73675779D01*
X77540557Y-73708168D02*
G75*
G02X77663157Y-73707404I63999J-432333D01*
G01*
X77426410Y-73743341D02*
G75*
G02X77540557Y-73708169I171929J-355157D01*
G01*
X76676559Y-73979434D02*
G75*
G02X76626126Y-74003504I-107442J160246D01*
G01*
X77301320Y-73845091D02*
G75*
G02X77426410Y-73743341I277860J-213831D01*
G01*
X77239549Y-74155731D02*
G75*
G02X77234497Y-73992386I351356J92617D01*
G01*
X76321416Y-73675779D02*
X76484770Y-73685236D01*
X81748751Y-74678553D02*
X81734812Y-74715394D01*
X80901416Y-74365953D02*
G75*
G02X80904198Y-74329403I241461J0D01*
G01*
X81759132Y-74647293D02*
X81748751Y-74678553D01*
X81761415Y-74632264D02*
G75*
G02X81759132Y-74647293I-50600J0D01*
G01*
X81758201Y-74613585D02*
G75*
G02X81761416Y-74632264I-52644J-18679D01*
G01*
X81715172Y-74493049D02*
X81758200Y-74613586D01*
X81603989Y-74193922D02*
X81664326Y-74354046D01*
X81181416Y-74240918D02*
X81181416Y-74329784D01*
X81072970Y-74244045D02*
G75*
G02X81106416Y-74241701I36388J-279512D01*
G01*
X80996727Y-74259846D02*
X81034353Y-74250553D01*
X80931986Y-74288513D02*
G75*
G02X80966416Y-74270736I150417J-249080D01*
G01*
X81664326Y-74354046D02*
X81715172Y-74493049D01*
X81106416Y-74241701D02*
X81181416Y-74240918D01*
X81034353Y-74250553D02*
X81072970Y-74244045D01*
X80966415Y-74270736D02*
G75*
G02X80996727Y-74259846I98663J-226997D01*
G01*
X80913379Y-74306113D02*
G75*
G02X80931986Y-74288514I49740J-33955D01*
G01*
X80904197Y-74329402D02*
G75*
G02X80913378Y-74306112I55820J-8549D01*
G01*
X81734812Y-74715394D02*
X81718304Y-74754260D01*
X82534543Y-74216401D02*
G75*
G02X82494168Y-74222821I-46534J162495D01*
G01*
X82329934Y-74223387D02*
G75*
G02X82297414Y-74218570I3007J132480D01*
G01*
X81670236Y-74870918D02*
X81667384Y-74880969D01*
X81670236Y-74870918D02*
G75*
G02X81674239Y-74858449I93945J-23279D01*
G01*
X82411976Y-74224318D02*
X82494168Y-74222821D01*
X82329934Y-74223387D02*
X82411976Y-74224318D01*
X81656959Y-74911052D02*
X81651208Y-74925918D01*
X81701431Y-74792738D02*
X81686400Y-74828400D01*
X82297414Y-74218571D02*
G75*
G02X82285723Y-74207535I4621J16606D01*
G01*
X81662602Y-74895325D02*
X81656959Y-74911052D01*
X81718304Y-74754260D02*
X81701431Y-74792738D01*
X81667384Y-74880969D02*
X81662602Y-74895325D01*
X82285723Y-74207535D02*
G75*
G02X82286208Y-74189318I24762J8456D01*
G01*
X81686400Y-74828400D02*
X81674239Y-74858449D01*
D10*
X85348771Y-47320247D02*
X85348771Y-48082152D01*
X85297971Y-42824447D02*
X85297971Y-43586352D01*
X84917019Y-43205400D02*
X85678923Y-43205400D01*
X84891619Y-44631076D02*
X85891619Y-44631076D01*
X85177333Y-44964409D01*
X85891619Y-45297742D01*
X84891619Y-45297742D01*
X85558285Y-46202504D02*
X84891619Y-46202504D01*
X85939238Y-45964409D02*
X85224952Y-45726314D01*
X85224952Y-46345361D01*
X51227028Y-44145152D02*
X51227028Y-43383247D01*
X51607980Y-43764200D02*
X50846076Y-43764200D01*
X51277828Y-48640952D02*
X51277828Y-47879047D01*
X51684180Y-46834323D02*
X50684180Y-46834323D01*
X51398466Y-46500990D01*
X50684180Y-46167657D01*
X51684180Y-46167657D01*
X51684180Y-45167657D02*
X51684180Y-45739085D01*
X51684180Y-45453371D02*
X50684180Y-45453371D01*
X50827038Y-45548609D01*
X50922276Y-45643847D01*
X50969895Y-45739085D01*
X51785828Y-65354152D02*
X51785828Y-64592247D01*
X51836628Y-69849952D02*
X51836628Y-69088047D01*
X52217580Y-69469000D02*
X51455676Y-69469000D01*
X52242980Y-68043323D02*
X51242980Y-68043323D01*
X51957266Y-67709990D01*
X51242980Y-67376657D01*
X52242980Y-67376657D01*
X51242980Y-66995704D02*
X51242980Y-66376657D01*
X51623933Y-66709990D01*
X51623933Y-66567133D01*
X51671552Y-66471895D01*
X51719171Y-66424276D01*
X51814409Y-66376657D01*
X52052504Y-66376657D01*
X52147742Y-66424276D01*
X52195361Y-66471895D01*
X52242980Y-66567133D01*
X52242980Y-66852847D01*
X52195361Y-66948085D01*
X52147742Y-66995704D01*
X85221771Y-64262047D02*
X85221771Y-65023952D01*
X85323371Y-68656247D02*
X85323371Y-69418152D01*
X84942419Y-69037200D02*
X85704323Y-69037200D01*
X84790019Y-66246476D02*
X85790019Y-66246476D01*
X85075733Y-66579809D01*
X85790019Y-66913142D01*
X84790019Y-66913142D01*
X85694780Y-67341714D02*
X85742400Y-67389333D01*
X85790019Y-67484571D01*
X85790019Y-67722666D01*
X85742400Y-67817904D01*
X85694780Y-67865523D01*
X85599542Y-67913142D01*
X85504304Y-67913142D01*
X85361447Y-67865523D01*
X84790019Y-67294095D01*
X84790019Y-67913142D01*
D12*
X56793000Y-64329000D02*
X56793000Y-70389000D01*
X56793000Y-70389000D02*
X61063000Y-70389000D01*
X61063000Y-70389000D02*
X61063000Y-64329000D01*
X65924000Y-75060000D02*
X65924000Y-74800000D01*
X65924000Y-72520000D02*
X65924000Y-70750000D01*
X65924000Y-70750000D02*
X66304000Y-70750000D01*
X73544000Y-70750000D02*
X73544000Y-72520000D01*
X73544000Y-74800000D02*
X73544000Y-75060000D01*
X73544000Y-70750000D02*
X73164000Y-70750000D01*
X57318600Y-74659800D02*
X57318600Y-73329800D01*
X58648600Y-74659800D02*
X57318600Y-74659800D01*
X59918600Y-74659800D02*
X59918600Y-71999800D01*
X59918600Y-71999800D02*
X62518600Y-71999800D01*
X59918600Y-74659800D02*
X62518600Y-74659800D01*
X62518600Y-74659800D02*
X62518600Y-71999800D01*
X80077000Y-58269000D02*
X86137000Y-58269000D01*
X86137000Y-58269000D02*
X86137000Y-53999000D01*
X86137000Y-53999000D02*
X80077000Y-53999000D01*
X51023000Y-59666000D02*
X57083000Y-59666000D01*
X51023000Y-55396000D02*
X51023000Y-59666000D01*
X57083000Y-55396000D02*
X51023000Y-55396000D01*
X83310000Y-52888000D02*
X81850000Y-52888000D01*
X83310000Y-49728000D02*
X81150000Y-49728000D01*
X83310000Y-49728000D02*
X83310000Y-50658000D01*
X83310000Y-52888000D02*
X83310000Y-51958000D01*
X57983000Y-62228000D02*
X57983000Y-60768000D01*
X61143000Y-62228000D02*
X61143000Y-60068000D01*
X61143000Y-62228000D02*
X60213000Y-62228000D01*
X57983000Y-62228000D02*
X58913000Y-62228000D01*
X54231000Y-50744000D02*
X55691000Y-50744000D01*
X54231000Y-53904000D02*
X56391000Y-53904000D01*
X54231000Y-53904000D02*
X54231000Y-52974000D01*
X54231000Y-50744000D02*
X54231000Y-51674000D01*
X79373000Y-51136733D02*
X79373000Y-51479267D01*
X80393000Y-51136733D02*
X80393000Y-51479267D01*
X61593000Y-61169733D02*
X61593000Y-61512267D01*
X62613000Y-61169733D02*
X62613000Y-61512267D01*
X58041000Y-53765267D02*
X58041000Y-53422733D01*
X57021000Y-53765267D02*
X57021000Y-53422733D01*
X79246000Y-47580733D02*
X79246000Y-47923267D01*
X80266000Y-47580733D02*
X80266000Y-47923267D01*
X79119000Y-41992733D02*
X79119000Y-42335267D01*
X80139000Y-41992733D02*
X80139000Y-42335267D01*
X58803000Y-41573267D02*
X58803000Y-41230733D01*
X57783000Y-41573267D02*
X57783000Y-41230733D01*
X57279000Y-41573267D02*
X57279000Y-41230733D01*
X56259000Y-41573267D02*
X56259000Y-41230733D01*
X74932000Y-64306267D02*
X74932000Y-63963733D01*
X73912000Y-64306267D02*
X73912000Y-63963733D01*
X67693000Y-65830267D02*
X67693000Y-65487733D01*
X66673000Y-65830267D02*
X66673000Y-65487733D01*
X73281000Y-64306267D02*
X73281000Y-63963733D01*
X72261000Y-64306267D02*
X72261000Y-63963733D01*
D10*
X68477000Y-67461000D02*
X68477000Y-68711000D01*
X71652000Y-67461000D02*
X71652000Y-64111000D01*
X68302000Y-67461000D02*
X68302000Y-64111000D01*
X71652000Y-67461000D02*
X71402000Y-67461000D01*
X71652000Y-64111000D02*
X71402000Y-64111000D01*
X68302000Y-64111000D02*
X68552000Y-64111000D01*
X68302000Y-67461000D02*
X68477000Y-67461000D01*
D12*
X59825000Y-39316000D02*
X59445000Y-39316000D01*
X59825000Y-32896000D02*
X59825000Y-39316000D01*
X78065000Y-32896000D02*
X78065000Y-39316000D01*
X59825000Y-32896000D02*
X78065000Y-32896000D01*
X78065000Y-58641000D02*
X77065000Y-58641000D01*
X78065000Y-57861000D02*
X78065000Y-58641000D01*
X59825000Y-58641000D02*
X60825000Y-58641000D01*
X59825000Y-57861000D02*
X59825000Y-58641000D01*
X57021000Y-49993733D02*
X57021000Y-50336267D01*
X58041000Y-49993733D02*
X58041000Y-50336267D01*
X57021000Y-46437733D02*
X57021000Y-46780267D01*
X58041000Y-46437733D02*
X58041000Y-46780267D01*
X57232733Y-44452000D02*
X57575267Y-44452000D01*
X57232733Y-43432000D02*
X57575267Y-43432000D01*
D10*
X62326780Y-67260695D02*
X61326780Y-67260695D01*
X61326780Y-67022600D01*
X61374400Y-66879742D01*
X61469638Y-66784504D01*
X61564876Y-66736885D01*
X61755352Y-66689266D01*
X61898209Y-66689266D01*
X62088685Y-66736885D01*
X62183923Y-66784504D01*
X62279161Y-66879742D01*
X62326780Y-67022600D01*
X62326780Y-67260695D01*
X61660114Y-65832123D02*
X62326780Y-65832123D01*
X61279161Y-66070219D02*
X61993447Y-66308314D01*
X61993447Y-65689266D01*
X69400666Y-68612380D02*
X69400666Y-69326666D01*
X69353047Y-69469523D01*
X69257809Y-69564761D01*
X69114952Y-69612380D01*
X69019714Y-69612380D01*
X70353047Y-68612380D02*
X69876857Y-68612380D01*
X69829238Y-69088571D01*
X69876857Y-69040952D01*
X69972095Y-68993333D01*
X70210190Y-68993333D01*
X70305428Y-69040952D01*
X70353047Y-69088571D01*
X70400666Y-69183809D01*
X70400666Y-69421904D01*
X70353047Y-69517142D01*
X70305428Y-69564761D01*
X70210190Y-69612380D01*
X69972095Y-69612380D01*
X69876857Y-69564761D01*
X69829238Y-69517142D01*
X55770980Y-73663133D02*
X56485266Y-73663133D01*
X56628123Y-73710752D01*
X56723361Y-73805990D01*
X56770980Y-73948847D01*
X56770980Y-74044085D01*
X56770980Y-73139323D02*
X56770980Y-72948847D01*
X56723361Y-72853609D01*
X56675742Y-72805990D01*
X56532885Y-72710752D01*
X56342409Y-72663133D01*
X55961457Y-72663133D01*
X55866219Y-72710752D01*
X55818600Y-72758371D01*
X55770980Y-72853609D01*
X55770980Y-73044085D01*
X55818600Y-73139323D01*
X55866219Y-73186942D01*
X55961457Y-73234561D01*
X56199552Y-73234561D01*
X56294790Y-73186942D01*
X56342409Y-73139323D01*
X56390028Y-73044085D01*
X56390028Y-72853609D01*
X56342409Y-72758371D01*
X56294790Y-72710752D01*
X56199552Y-72663133D01*
X81938904Y-59406380D02*
X81938904Y-58406380D01*
X82177000Y-58406380D01*
X82319857Y-58454000D01*
X82415095Y-58549238D01*
X82462714Y-58644476D01*
X82510333Y-58834952D01*
X82510333Y-58977809D01*
X82462714Y-59168285D01*
X82415095Y-59263523D01*
X82319857Y-59358761D01*
X82177000Y-59406380D01*
X81938904Y-59406380D01*
X83415095Y-58406380D02*
X82938904Y-58406380D01*
X82891285Y-58882571D01*
X82938904Y-58834952D01*
X83034142Y-58787333D01*
X83272238Y-58787333D01*
X83367476Y-58834952D01*
X83415095Y-58882571D01*
X83462714Y-58977809D01*
X83462714Y-59215904D01*
X83415095Y-59311142D01*
X83367476Y-59358761D01*
X83272238Y-59406380D01*
X83034142Y-59406380D01*
X82938904Y-59358761D01*
X82891285Y-59311142D01*
X53998904Y-55163980D02*
X53998904Y-54163980D01*
X54237000Y-54163980D01*
X54379857Y-54211600D01*
X54475095Y-54306838D01*
X54522714Y-54402076D01*
X54570333Y-54592552D01*
X54570333Y-54735409D01*
X54522714Y-54925885D01*
X54475095Y-55021123D01*
X54379857Y-55116361D01*
X54237000Y-55163980D01*
X53998904Y-55163980D01*
X54951285Y-54259219D02*
X54998904Y-54211600D01*
X55094142Y-54163980D01*
X55332238Y-54163980D01*
X55427476Y-54211600D01*
X55475095Y-54259219D01*
X55522714Y-54354457D01*
X55522714Y-54449695D01*
X55475095Y-54592552D01*
X54903666Y-55163980D01*
X55522714Y-55163980D01*
X85558380Y-52146104D02*
X86367904Y-52146104D01*
X86463142Y-52098485D01*
X86510761Y-52050866D01*
X86558380Y-51955628D01*
X86558380Y-51765152D01*
X86510761Y-51669914D01*
X86463142Y-51622295D01*
X86367904Y-51574676D01*
X85558380Y-51574676D01*
X86558380Y-51050866D02*
X86558380Y-50860390D01*
X86510761Y-50765152D01*
X86463142Y-50717533D01*
X86320285Y-50622295D01*
X86129809Y-50574676D01*
X85748857Y-50574676D01*
X85653619Y-50622295D01*
X85606000Y-50669914D01*
X85558380Y-50765152D01*
X85558380Y-50955628D01*
X85606000Y-51050866D01*
X85653619Y-51098485D01*
X85748857Y-51146104D01*
X85986952Y-51146104D01*
X86082190Y-51098485D01*
X86129809Y-51050866D01*
X86177428Y-50955628D01*
X86177428Y-50765152D01*
X86129809Y-50669914D01*
X86082190Y-50622295D01*
X85986952Y-50574676D01*
X56083295Y-62037980D02*
X56083295Y-62847504D01*
X56130914Y-62942742D01*
X56178533Y-62990361D01*
X56273771Y-63037980D01*
X56464247Y-63037980D01*
X56559485Y-62990361D01*
X56607104Y-62942742D01*
X56654723Y-62847504D01*
X56654723Y-62037980D01*
X57273771Y-62466552D02*
X57178533Y-62418933D01*
X57130914Y-62371314D01*
X57083295Y-62276076D01*
X57083295Y-62228457D01*
X57130914Y-62133219D01*
X57178533Y-62085600D01*
X57273771Y-62037980D01*
X57464247Y-62037980D01*
X57559485Y-62085600D01*
X57607104Y-62133219D01*
X57654723Y-62228457D01*
X57654723Y-62276076D01*
X57607104Y-62371314D01*
X57559485Y-62418933D01*
X57464247Y-62466552D01*
X57273771Y-62466552D01*
X57178533Y-62514171D01*
X57130914Y-62561790D01*
X57083295Y-62657028D01*
X57083295Y-62847504D01*
X57130914Y-62942742D01*
X57178533Y-62990361D01*
X57273771Y-63037980D01*
X57464247Y-63037980D01*
X57559485Y-62990361D01*
X57607104Y-62942742D01*
X57654723Y-62847504D01*
X57654723Y-62657028D01*
X57607104Y-62561790D01*
X57559485Y-62514171D01*
X57464247Y-62466552D01*
X52131980Y-54051104D02*
X52941504Y-54051104D01*
X53036742Y-54003485D01*
X53084361Y-53955866D01*
X53131980Y-53860628D01*
X53131980Y-53670152D01*
X53084361Y-53574914D01*
X53036742Y-53527295D01*
X52941504Y-53479676D01*
X52131980Y-53479676D01*
X52131980Y-53098723D02*
X52131980Y-52479676D01*
X52512933Y-52813009D01*
X52512933Y-52670152D01*
X52560552Y-52574914D01*
X52608171Y-52527295D01*
X52703409Y-52479676D01*
X52941504Y-52479676D01*
X53036742Y-52527295D01*
X53084361Y-52574914D01*
X53131980Y-52670152D01*
X53131980Y-52955866D01*
X53084361Y-53051104D01*
X53036742Y-53098723D01*
X85389980Y-52001657D02*
X84913790Y-52334990D01*
X85389980Y-52573085D02*
X84389980Y-52573085D01*
X84389980Y-52192133D01*
X84437600Y-52096895D01*
X84485219Y-52049276D01*
X84580457Y-52001657D01*
X84723314Y-52001657D01*
X84818552Y-52049276D01*
X84866171Y-52096895D01*
X84913790Y-52192133D01*
X84913790Y-52573085D01*
X85389980Y-51049276D02*
X85389980Y-51620704D01*
X85389980Y-51334990D02*
X84389980Y-51334990D01*
X84532838Y-51430228D01*
X84628076Y-51525466D01*
X84675695Y-51620704D01*
X84389980Y-50144514D02*
X84389980Y-50620704D01*
X84866171Y-50668323D01*
X84818552Y-50620704D01*
X84770933Y-50525466D01*
X84770933Y-50287371D01*
X84818552Y-50192133D01*
X84866171Y-50144514D01*
X84961409Y-50096895D01*
X85199504Y-50096895D01*
X85294742Y-50144514D01*
X85342361Y-50192133D01*
X85389980Y-50287371D01*
X85389980Y-50525466D01*
X85342361Y-50620704D01*
X85294742Y-50668323D01*
X64079380Y-61907657D02*
X63603190Y-62240990D01*
X64079380Y-62479085D02*
X63079380Y-62479085D01*
X63079380Y-62098133D01*
X63127000Y-62002895D01*
X63174619Y-61955276D01*
X63269857Y-61907657D01*
X63412714Y-61907657D01*
X63507952Y-61955276D01*
X63555571Y-62002895D01*
X63603190Y-62098133D01*
X63603190Y-62479085D01*
X64079380Y-60955276D02*
X64079380Y-61526704D01*
X64079380Y-61240990D02*
X63079380Y-61240990D01*
X63222238Y-61336228D01*
X63317476Y-61431466D01*
X63365095Y-61526704D01*
X63412714Y-60098133D02*
X64079380Y-60098133D01*
X63031761Y-60336228D02*
X63746047Y-60574323D01*
X63746047Y-59955276D01*
X59177180Y-53957457D02*
X58700990Y-54290790D01*
X59177180Y-54528885D02*
X58177180Y-54528885D01*
X58177180Y-54147933D01*
X58224800Y-54052695D01*
X58272419Y-54005076D01*
X58367657Y-53957457D01*
X58510514Y-53957457D01*
X58605752Y-54005076D01*
X58653371Y-54052695D01*
X58700990Y-54147933D01*
X58700990Y-54528885D01*
X59177180Y-53005076D02*
X59177180Y-53576504D01*
X59177180Y-53290790D02*
X58177180Y-53290790D01*
X58320038Y-53386028D01*
X58415276Y-53481266D01*
X58462895Y-53576504D01*
X58272419Y-52624123D02*
X58224800Y-52576504D01*
X58177180Y-52481266D01*
X58177180Y-52243171D01*
X58224800Y-52147933D01*
X58272419Y-52100314D01*
X58367657Y-52052695D01*
X58462895Y-52052695D01*
X58605752Y-52100314D01*
X59177180Y-52671742D01*
X59177180Y-52052695D01*
X80535542Y-46019980D02*
X80202209Y-45543790D01*
X79964114Y-46019980D02*
X79964114Y-45019980D01*
X80345066Y-45019980D01*
X80440304Y-45067600D01*
X80487923Y-45115219D01*
X80535542Y-45210457D01*
X80535542Y-45353314D01*
X80487923Y-45448552D01*
X80440304Y-45496171D01*
X80345066Y-45543790D01*
X79964114Y-45543790D01*
X81487923Y-46019980D02*
X80916495Y-46019980D01*
X81202209Y-46019980D02*
X81202209Y-45019980D01*
X81106971Y-45162838D01*
X81011733Y-45258076D01*
X80916495Y-45305695D01*
X82440304Y-46019980D02*
X81868876Y-46019980D01*
X82154590Y-46019980D02*
X82154590Y-45019980D01*
X82059352Y-45162838D01*
X81964114Y-45258076D01*
X81868876Y-45305695D01*
X79417942Y-40050980D02*
X79084609Y-39574790D01*
X78846514Y-40050980D02*
X78846514Y-39050980D01*
X79227466Y-39050980D01*
X79322704Y-39098600D01*
X79370323Y-39146219D01*
X79417942Y-39241457D01*
X79417942Y-39384314D01*
X79370323Y-39479552D01*
X79322704Y-39527171D01*
X79227466Y-39574790D01*
X78846514Y-39574790D01*
X80370323Y-40050980D02*
X79798895Y-40050980D01*
X80084609Y-40050980D02*
X80084609Y-39050980D01*
X79989371Y-39193838D01*
X79894133Y-39289076D01*
X79798895Y-39336695D01*
X80989371Y-39050980D02*
X81084609Y-39050980D01*
X81179847Y-39098600D01*
X81227466Y-39146219D01*
X81275085Y-39241457D01*
X81322704Y-39431933D01*
X81322704Y-39670028D01*
X81275085Y-39860504D01*
X81227466Y-39955742D01*
X81179847Y-40003361D01*
X81084609Y-40050980D01*
X80989371Y-40050980D01*
X80894133Y-40003361D01*
X80846514Y-39955742D01*
X80798895Y-39860504D01*
X80751276Y-39670028D01*
X80751276Y-39431933D01*
X80798895Y-39241457D01*
X80846514Y-39146219D01*
X80894133Y-39098600D01*
X80989371Y-39050980D01*
X52106580Y-50955533D02*
X52820866Y-50955533D01*
X52963723Y-51003152D01*
X53058961Y-51098390D01*
X53106580Y-51241247D01*
X53106580Y-51336485D01*
X53106580Y-49955533D02*
X53106580Y-50526961D01*
X53106580Y-50241247D02*
X52106580Y-50241247D01*
X52249438Y-50336485D01*
X52344676Y-50431723D01*
X52392295Y-50526961D01*
X55652942Y-41105057D02*
X55700561Y-41152676D01*
X55748180Y-41295533D01*
X55748180Y-41390771D01*
X55700561Y-41533628D01*
X55605323Y-41628866D01*
X55510085Y-41676485D01*
X55319609Y-41724104D01*
X55176752Y-41724104D01*
X54986276Y-41676485D01*
X54891038Y-41628866D01*
X54795800Y-41533628D01*
X54748180Y-41390771D01*
X54748180Y-41295533D01*
X54795800Y-41152676D01*
X54843419Y-41105057D01*
X55748180Y-40152676D02*
X55748180Y-40724104D01*
X55748180Y-40438390D02*
X54748180Y-40438390D01*
X54891038Y-40533628D01*
X54986276Y-40628866D01*
X55033895Y-40724104D01*
X55748180Y-39200295D02*
X55748180Y-39771723D01*
X55748180Y-39486009D02*
X54748180Y-39486009D01*
X54891038Y-39581247D01*
X54986276Y-39676485D01*
X55033895Y-39771723D01*
X54281342Y-41155857D02*
X54328961Y-41203476D01*
X54376580Y-41346333D01*
X54376580Y-41441571D01*
X54328961Y-41584428D01*
X54233723Y-41679666D01*
X54138485Y-41727285D01*
X53948009Y-41774904D01*
X53805152Y-41774904D01*
X53614676Y-41727285D01*
X53519438Y-41679666D01*
X53424200Y-41584428D01*
X53376580Y-41441571D01*
X53376580Y-41346333D01*
X53424200Y-41203476D01*
X53471819Y-41155857D01*
X54376580Y-40203476D02*
X54376580Y-40774904D01*
X54376580Y-40489190D02*
X53376580Y-40489190D01*
X53519438Y-40584428D01*
X53614676Y-40679666D01*
X53662295Y-40774904D01*
X53376580Y-39584428D02*
X53376580Y-39489190D01*
X53424200Y-39393952D01*
X53471819Y-39346333D01*
X53567057Y-39298714D01*
X53757533Y-39251095D01*
X53995628Y-39251095D01*
X54186104Y-39298714D01*
X54281342Y-39346333D01*
X54328961Y-39393952D01*
X54376580Y-39489190D01*
X54376580Y-39584428D01*
X54328961Y-39679666D01*
X54281342Y-39727285D01*
X54186104Y-39774904D01*
X53995628Y-39822523D01*
X53757533Y-39822523D01*
X53567057Y-39774904D01*
X53471819Y-39727285D01*
X53424200Y-39679666D01*
X53376580Y-39584428D01*
X74779142Y-67222666D02*
X74826761Y-67270285D01*
X74874380Y-67413142D01*
X74874380Y-67508380D01*
X74826761Y-67651238D01*
X74731523Y-67746476D01*
X74636285Y-67794095D01*
X74445809Y-67841714D01*
X74302952Y-67841714D01*
X74112476Y-67794095D01*
X74017238Y-67746476D01*
X73922000Y-67651238D01*
X73874380Y-67508380D01*
X73874380Y-67413142D01*
X73922000Y-67270285D01*
X73969619Y-67222666D01*
X73969619Y-66841714D02*
X73922000Y-66794095D01*
X73874380Y-66698857D01*
X73874380Y-66460761D01*
X73922000Y-66365523D01*
X73969619Y-66317904D01*
X74064857Y-66270285D01*
X74160095Y-66270285D01*
X74302952Y-66317904D01*
X74874380Y-66889333D01*
X74874380Y-66270285D01*
X67540142Y-62777666D02*
X67587761Y-62825285D01*
X67635380Y-62968142D01*
X67635380Y-63063380D01*
X67587761Y-63206238D01*
X67492523Y-63301476D01*
X67397285Y-63349095D01*
X67206809Y-63396714D01*
X67063952Y-63396714D01*
X66873476Y-63349095D01*
X66778238Y-63301476D01*
X66683000Y-63206238D01*
X66635380Y-63063380D01*
X66635380Y-62968142D01*
X66683000Y-62825285D01*
X66730619Y-62777666D01*
X67635380Y-61825285D02*
X67635380Y-62396714D01*
X67635380Y-62111000D02*
X66635380Y-62111000D01*
X66778238Y-62206238D01*
X66873476Y-62301476D01*
X66921095Y-62396714D01*
X73128142Y-67095666D02*
X73175761Y-67143285D01*
X73223380Y-67286142D01*
X73223380Y-67381380D01*
X73175761Y-67524238D01*
X73080523Y-67619476D01*
X72985285Y-67667095D01*
X72794809Y-67714714D01*
X72651952Y-67714714D01*
X72461476Y-67667095D01*
X72366238Y-67619476D01*
X72271000Y-67524238D01*
X72223380Y-67381380D01*
X72223380Y-67286142D01*
X72271000Y-67143285D01*
X72318619Y-67095666D01*
X72223380Y-66762333D02*
X72223380Y-66143285D01*
X72604333Y-66476619D01*
X72604333Y-66333761D01*
X72651952Y-66238523D01*
X72699571Y-66190904D01*
X72794809Y-66143285D01*
X73032904Y-66143285D01*
X73128142Y-66190904D01*
X73175761Y-66238523D01*
X73223380Y-66333761D01*
X73223380Y-66619476D01*
X73175761Y-66714714D01*
X73128142Y-66762333D01*
X82623066Y-40295580D02*
X82623066Y-41009866D01*
X82575447Y-41152723D01*
X82480209Y-41247961D01*
X82337352Y-41295580D01*
X82242114Y-41295580D01*
X83527828Y-40628914D02*
X83527828Y-41295580D01*
X83289733Y-40247961D02*
X83051638Y-40962247D01*
X83670685Y-40962247D01*
X53808380Y-72508333D02*
X54522666Y-72508333D01*
X54665523Y-72555952D01*
X54760761Y-72651190D01*
X54808380Y-72794047D01*
X54808380Y-72889285D01*
X53808380Y-72127380D02*
X53808380Y-71508333D01*
X54189333Y-71841666D01*
X54189333Y-71698809D01*
X54236952Y-71603571D01*
X54284571Y-71555952D01*
X54379809Y-71508333D01*
X54617904Y-71508333D01*
X54713142Y-71555952D01*
X54760761Y-71603571D01*
X54808380Y-71698809D01*
X54808380Y-71984523D01*
X54760761Y-72079761D01*
X54713142Y-72127380D01*
X82002380Y-62348333D02*
X82716666Y-62348333D01*
X82859523Y-62395952D01*
X82954761Y-62491190D01*
X83002380Y-62634047D01*
X83002380Y-62729285D01*
X82097619Y-61919761D02*
X82050000Y-61872142D01*
X82002380Y-61776904D01*
X82002380Y-61538809D01*
X82050000Y-61443571D01*
X82097619Y-61395952D01*
X82192857Y-61348333D01*
X82288095Y-61348333D01*
X82430952Y-61395952D01*
X83002380Y-61967380D01*
X83002380Y-61348333D01*
X66421095Y-67651380D02*
X66421095Y-68460904D01*
X66468714Y-68556142D01*
X66516333Y-68603761D01*
X66611571Y-68651380D01*
X66802047Y-68651380D01*
X66897285Y-68603761D01*
X66944904Y-68556142D01*
X66992523Y-68460904D01*
X66992523Y-67651380D01*
X67897285Y-67984714D02*
X67897285Y-68651380D01*
X67659190Y-67603761D02*
X67421095Y-68318047D01*
X68040142Y-68318047D01*
X57973980Y-58242104D02*
X58783504Y-58242104D01*
X58878742Y-58194485D01*
X58926361Y-58146866D01*
X58973980Y-58051628D01*
X58973980Y-57861152D01*
X58926361Y-57765914D01*
X58878742Y-57718295D01*
X58783504Y-57670676D01*
X57973980Y-57670676D01*
X58973980Y-56670676D02*
X58973980Y-57242104D01*
X58973980Y-56956390D02*
X57973980Y-56956390D01*
X58116838Y-57051628D01*
X58212076Y-57146866D01*
X58259695Y-57242104D01*
X56637180Y-49620466D02*
X56160990Y-49953800D01*
X56637180Y-50191895D02*
X55637180Y-50191895D01*
X55637180Y-49810942D01*
X55684800Y-49715704D01*
X55732419Y-49668085D01*
X55827657Y-49620466D01*
X55970514Y-49620466D01*
X56065752Y-49668085D01*
X56113371Y-49715704D01*
X56160990Y-49810942D01*
X56160990Y-50191895D01*
X56637180Y-49144276D02*
X56637180Y-48953800D01*
X56589561Y-48858561D01*
X56541942Y-48810942D01*
X56399085Y-48715704D01*
X56208609Y-48668085D01*
X55827657Y-48668085D01*
X55732419Y-48715704D01*
X55684800Y-48763323D01*
X55637180Y-48858561D01*
X55637180Y-49049038D01*
X55684800Y-49144276D01*
X55732419Y-49191895D01*
X55827657Y-49239514D01*
X56065752Y-49239514D01*
X56160990Y-49191895D01*
X56208609Y-49144276D01*
X56256228Y-49049038D01*
X56256228Y-48858561D01*
X56208609Y-48763323D01*
X56160990Y-48715704D01*
X56065752Y-48668085D01*
X56611780Y-46699466D02*
X56135590Y-47032800D01*
X56611780Y-47270895D02*
X55611780Y-47270895D01*
X55611780Y-46889942D01*
X55659400Y-46794704D01*
X55707019Y-46747085D01*
X55802257Y-46699466D01*
X55945114Y-46699466D01*
X56040352Y-46747085D01*
X56087971Y-46794704D01*
X56135590Y-46889942D01*
X56135590Y-47270895D01*
X56040352Y-46128038D02*
X55992733Y-46223276D01*
X55945114Y-46270895D01*
X55849876Y-46318514D01*
X55802257Y-46318514D01*
X55707019Y-46270895D01*
X55659400Y-46223276D01*
X55611780Y-46128038D01*
X55611780Y-45937561D01*
X55659400Y-45842323D01*
X55707019Y-45794704D01*
X55802257Y-45747085D01*
X55849876Y-45747085D01*
X55945114Y-45794704D01*
X55992733Y-45842323D01*
X56040352Y-45937561D01*
X56040352Y-46128038D01*
X56087971Y-46223276D01*
X56135590Y-46270895D01*
X56230828Y-46318514D01*
X56421304Y-46318514D01*
X56516542Y-46270895D01*
X56564161Y-46223276D01*
X56611780Y-46128038D01*
X56611780Y-45937561D01*
X56564161Y-45842323D01*
X56516542Y-45794704D01*
X56421304Y-45747085D01*
X56230828Y-45747085D01*
X56135590Y-45794704D01*
X56087971Y-45842323D01*
X56040352Y-45937561D01*
X52081133Y-42184580D02*
X51747800Y-41708390D01*
X51509704Y-42184580D02*
X51509704Y-41184580D01*
X51890657Y-41184580D01*
X51985895Y-41232200D01*
X52033514Y-41279819D01*
X52081133Y-41375057D01*
X52081133Y-41517914D01*
X52033514Y-41613152D01*
X51985895Y-41660771D01*
X51890657Y-41708390D01*
X51509704Y-41708390D01*
X52414466Y-41184580D02*
X53081133Y-41184580D01*
X52652561Y-42184580D01*
M02*
