G04 #@! TF.GenerationSoftware,KiCad,Pcbnew,(5.1.5)-3*
G04 #@! TF.CreationDate,2020-08-30T19:55:31+02:00*
G04 #@! TF.ProjectId,Drone_PCB,44726f6e-655f-4504-9342-2e6b69636164,rev?*
G04 #@! TF.SameCoordinates,Original*
G04 #@! TF.FileFunction,Soldermask,Bot*
G04 #@! TF.FilePolarity,Negative*
%FSLAX46Y46*%
G04 Gerber Fmt 4.6, Leading zero omitted, Abs format (unit mm)*
G04 Created by KiCad (PCBNEW (5.1.5)-3) date 2020-08-30 19:55:31*
%MOMM*%
%LPD*%
G04 APERTURE LIST*
%ADD10C,0.100000*%
G04 APERTURE END LIST*
D10*
G36*
X86954007Y-74230800D02*
G01*
X87062150Y-74252311D01*
X87262520Y-74335307D01*
X87442844Y-74455795D01*
X87596205Y-74609156D01*
X87716693Y-74789480D01*
X87799689Y-74989851D01*
X87842000Y-75202560D01*
X87842000Y-75419440D01*
X87799689Y-75632149D01*
X87716693Y-75832520D01*
X87596205Y-76012844D01*
X87442844Y-76166205D01*
X87262520Y-76286693D01*
X87162334Y-76328191D01*
X87062150Y-76369689D01*
X86955795Y-76390844D01*
X86849440Y-76412000D01*
X86632560Y-76412000D01*
X86526205Y-76390844D01*
X86419850Y-76369689D01*
X86219480Y-76286693D01*
X86039156Y-76166205D01*
X85885795Y-76012844D01*
X85765307Y-75832520D01*
X85682311Y-75632149D01*
X85640000Y-75419440D01*
X85640000Y-75202560D01*
X85682311Y-74989851D01*
X85765307Y-74789480D01*
X85885795Y-74609156D01*
X86039156Y-74455795D01*
X86219480Y-74335307D01*
X86419850Y-74252311D01*
X86527993Y-74230800D01*
X86632560Y-74210000D01*
X86849440Y-74210000D01*
X86954007Y-74230800D01*
G37*
G36*
X50760795Y-74109156D02*
G01*
X50867150Y-74130311D01*
X51067520Y-74213307D01*
X51247844Y-74333795D01*
X51401205Y-74487156D01*
X51521693Y-74667480D01*
X51604689Y-74867851D01*
X51647000Y-75080560D01*
X51647000Y-75297440D01*
X51604689Y-75510149D01*
X51521693Y-75710520D01*
X51401205Y-75890844D01*
X51247844Y-76044205D01*
X51067520Y-76164693D01*
X50967334Y-76206191D01*
X50867150Y-76247689D01*
X50760795Y-76268844D01*
X50654440Y-76290000D01*
X50437560Y-76290000D01*
X50331205Y-76268844D01*
X50224850Y-76247689D01*
X50124666Y-76206191D01*
X50024480Y-76164693D01*
X49844156Y-76044205D01*
X49690795Y-75890844D01*
X49570307Y-75710520D01*
X49487311Y-75510149D01*
X49445000Y-75297440D01*
X49445000Y-75080560D01*
X49487311Y-74867851D01*
X49570307Y-74667480D01*
X49690795Y-74487156D01*
X49844156Y-74333795D01*
X50024480Y-74213307D01*
X50224850Y-74130311D01*
X50331205Y-74109156D01*
X50437560Y-74088000D01*
X50654440Y-74088000D01*
X50760795Y-74109156D01*
G37*
G36*
X61302112Y-72433727D02*
G01*
X61451412Y-72463424D01*
X61615384Y-72531344D01*
X61762954Y-72629947D01*
X61888453Y-72755446D01*
X61987056Y-72903016D01*
X62054976Y-73066988D01*
X62089600Y-73241059D01*
X62089600Y-73418541D01*
X62054976Y-73592612D01*
X61987056Y-73756584D01*
X61888453Y-73904154D01*
X61762954Y-74029653D01*
X61615384Y-74128256D01*
X61451412Y-74196176D01*
X61302112Y-74225873D01*
X61277342Y-74230800D01*
X61099858Y-74230800D01*
X61075088Y-74225873D01*
X60925788Y-74196176D01*
X60761816Y-74128256D01*
X60614246Y-74029653D01*
X60488747Y-73904154D01*
X60390144Y-73756584D01*
X60322224Y-73592612D01*
X60287600Y-73418541D01*
X60287600Y-73241059D01*
X60322224Y-73066988D01*
X60390144Y-72903016D01*
X60488747Y-72755446D01*
X60614246Y-72629947D01*
X60761816Y-72531344D01*
X60925788Y-72463424D01*
X61075088Y-72433727D01*
X61099858Y-72428800D01*
X61277342Y-72428800D01*
X61302112Y-72433727D01*
G37*
G36*
X59549600Y-74230800D02*
G01*
X57747600Y-74230800D01*
X57747600Y-72428800D01*
X59549600Y-72428800D01*
X59549600Y-74230800D01*
G37*
G36*
X84100870Y-70550870D02*
G01*
X80999130Y-70550870D01*
X80999130Y-67449130D01*
X84100870Y-67449130D01*
X84100870Y-70550870D01*
G37*
G36*
X56033870Y-70550870D02*
G01*
X52932130Y-70550870D01*
X52932130Y-67449130D01*
X56033870Y-67449130D01*
X56033870Y-70550870D01*
G37*
G36*
X66794380Y-68453000D02*
G01*
X65793620Y-68453000D01*
X65793620Y-67350640D01*
X66794380Y-67350640D01*
X66794380Y-68453000D01*
G37*
G36*
X63111380Y-68453000D02*
G01*
X62110620Y-68453000D01*
X62110620Y-67350640D01*
X63111380Y-67350640D01*
X63111380Y-68453000D01*
G37*
G36*
X71041355Y-62243083D02*
G01*
X71046029Y-62244501D01*
X71050330Y-62246800D01*
X71056702Y-62252029D01*
X71077076Y-62265643D01*
X71099715Y-62275020D01*
X71123749Y-62279800D01*
X71148253Y-62279800D01*
X71172286Y-62275019D01*
X71194925Y-62265642D01*
X71215298Y-62252029D01*
X71221670Y-62246800D01*
X71225971Y-62244501D01*
X71230645Y-62243083D01*
X71241641Y-62242000D01*
X71530359Y-62242000D01*
X71541355Y-62243083D01*
X71546029Y-62244501D01*
X71550330Y-62246800D01*
X71556702Y-62252029D01*
X71577076Y-62265643D01*
X71599715Y-62275020D01*
X71623749Y-62279800D01*
X71648253Y-62279800D01*
X71672286Y-62275019D01*
X71694925Y-62265642D01*
X71715298Y-62252029D01*
X71721670Y-62246800D01*
X71725971Y-62244501D01*
X71730645Y-62243083D01*
X71741641Y-62242000D01*
X72030359Y-62242000D01*
X72041355Y-62243083D01*
X72046029Y-62244501D01*
X72050330Y-62246800D01*
X72056702Y-62252029D01*
X72077076Y-62265643D01*
X72099715Y-62275020D01*
X72123749Y-62279800D01*
X72148253Y-62279800D01*
X72172286Y-62275019D01*
X72194925Y-62265642D01*
X72215298Y-62252029D01*
X72221670Y-62246800D01*
X72225971Y-62244501D01*
X72230645Y-62243083D01*
X72241641Y-62242000D01*
X72530359Y-62242000D01*
X72541355Y-62243083D01*
X72546029Y-62244501D01*
X72550330Y-62246800D01*
X72556702Y-62252029D01*
X72577076Y-62265643D01*
X72599715Y-62275020D01*
X72623749Y-62279800D01*
X72648253Y-62279800D01*
X72672286Y-62275019D01*
X72694925Y-62265642D01*
X72715298Y-62252029D01*
X72721670Y-62246800D01*
X72725971Y-62244501D01*
X72730645Y-62243083D01*
X72741641Y-62242000D01*
X73030359Y-62242000D01*
X73041355Y-62243083D01*
X73046029Y-62244501D01*
X73050330Y-62246800D01*
X73056702Y-62252029D01*
X73077076Y-62265643D01*
X73099715Y-62275020D01*
X73123749Y-62279800D01*
X73148253Y-62279800D01*
X73172286Y-62275019D01*
X73194925Y-62265642D01*
X73215298Y-62252029D01*
X73221670Y-62246800D01*
X73225971Y-62244501D01*
X73230645Y-62243083D01*
X73241641Y-62242000D01*
X73530359Y-62242000D01*
X73541355Y-62243083D01*
X73546029Y-62244501D01*
X73550331Y-62246800D01*
X73554104Y-62249896D01*
X73557200Y-62253669D01*
X73559499Y-62257971D01*
X73560917Y-62262645D01*
X73562000Y-62273641D01*
X73562000Y-63092001D01*
X73564402Y-63116387D01*
X73571515Y-63139836D01*
X73583066Y-63161447D01*
X73598611Y-63180389D01*
X73617553Y-63195934D01*
X73639164Y-63207485D01*
X73662613Y-63214598D01*
X73686999Y-63217000D01*
X74505359Y-63217000D01*
X74516355Y-63218083D01*
X74521029Y-63219501D01*
X74525331Y-63221800D01*
X74529104Y-63224896D01*
X74532200Y-63228669D01*
X74534499Y-63232971D01*
X74535917Y-63237645D01*
X74537000Y-63248641D01*
X74537000Y-63537359D01*
X74535917Y-63548355D01*
X74534499Y-63553029D01*
X74532200Y-63557330D01*
X74526971Y-63563702D01*
X74513357Y-63584076D01*
X74503980Y-63606715D01*
X74499200Y-63630749D01*
X74499200Y-63655253D01*
X74503981Y-63679286D01*
X74513358Y-63701925D01*
X74526971Y-63722298D01*
X74532200Y-63728670D01*
X74534499Y-63732971D01*
X74535917Y-63737645D01*
X74537000Y-63748641D01*
X74537000Y-64037359D01*
X74535917Y-64048355D01*
X74534499Y-64053029D01*
X74532200Y-64057330D01*
X74526971Y-64063702D01*
X74513357Y-64084076D01*
X74503980Y-64106715D01*
X74499200Y-64130749D01*
X74499200Y-64155253D01*
X74503981Y-64179286D01*
X74513358Y-64201925D01*
X74526971Y-64222298D01*
X74532200Y-64228670D01*
X74534499Y-64232971D01*
X74535917Y-64237645D01*
X74537000Y-64248641D01*
X74537000Y-64537359D01*
X74535917Y-64548355D01*
X74534499Y-64553029D01*
X74532200Y-64557330D01*
X74526971Y-64563702D01*
X74513357Y-64584076D01*
X74503980Y-64606715D01*
X74499200Y-64630749D01*
X74499200Y-64655253D01*
X74503981Y-64679286D01*
X74513358Y-64701925D01*
X74526971Y-64722298D01*
X74532200Y-64728670D01*
X74534499Y-64732971D01*
X74535917Y-64737645D01*
X74537000Y-64748641D01*
X74537000Y-65037359D01*
X74535917Y-65048355D01*
X74534499Y-65053029D01*
X74532200Y-65057330D01*
X74526971Y-65063702D01*
X74513357Y-65084076D01*
X74503980Y-65106715D01*
X74499200Y-65130749D01*
X74499200Y-65155253D01*
X74503981Y-65179286D01*
X74513358Y-65201925D01*
X74526971Y-65222298D01*
X74532200Y-65228670D01*
X74534499Y-65232971D01*
X74535917Y-65237645D01*
X74537000Y-65248641D01*
X74537000Y-65537359D01*
X74535917Y-65548355D01*
X74534499Y-65553029D01*
X74532200Y-65557330D01*
X74526971Y-65563702D01*
X74513357Y-65584076D01*
X74503980Y-65606715D01*
X74499200Y-65630749D01*
X74499200Y-65655253D01*
X74503981Y-65679286D01*
X74513358Y-65701925D01*
X74526971Y-65722298D01*
X74532200Y-65728670D01*
X74534499Y-65732971D01*
X74535917Y-65737645D01*
X74537000Y-65748641D01*
X74537000Y-66037359D01*
X74535917Y-66048355D01*
X74534499Y-66053029D01*
X74532200Y-66057331D01*
X74529104Y-66061104D01*
X74525331Y-66064200D01*
X74521029Y-66066499D01*
X74516355Y-66067917D01*
X74505359Y-66069000D01*
X73686999Y-66069000D01*
X73662613Y-66071402D01*
X73639164Y-66078515D01*
X73617553Y-66090066D01*
X73598611Y-66105611D01*
X73583066Y-66124553D01*
X73571515Y-66146164D01*
X73564402Y-66169613D01*
X73562000Y-66193999D01*
X73562000Y-67012359D01*
X73560917Y-67023355D01*
X73559499Y-67028029D01*
X73557200Y-67032331D01*
X73554104Y-67036104D01*
X73550331Y-67039200D01*
X73546029Y-67041499D01*
X73541355Y-67042917D01*
X73530359Y-67044000D01*
X73241641Y-67044000D01*
X73230645Y-67042917D01*
X73225971Y-67041499D01*
X73221670Y-67039200D01*
X73215298Y-67033971D01*
X73194924Y-67020357D01*
X73172285Y-67010980D01*
X73148251Y-67006200D01*
X73123747Y-67006200D01*
X73099714Y-67010981D01*
X73077075Y-67020358D01*
X73056702Y-67033971D01*
X73050330Y-67039200D01*
X73046029Y-67041499D01*
X73041355Y-67042917D01*
X73030359Y-67044000D01*
X72741641Y-67044000D01*
X72730645Y-67042917D01*
X72725971Y-67041499D01*
X72721670Y-67039200D01*
X72715298Y-67033971D01*
X72694924Y-67020357D01*
X72672285Y-67010980D01*
X72648251Y-67006200D01*
X72623747Y-67006200D01*
X72599714Y-67010981D01*
X72577075Y-67020358D01*
X72556702Y-67033971D01*
X72550330Y-67039200D01*
X72546029Y-67041499D01*
X72541355Y-67042917D01*
X72530359Y-67044000D01*
X72241641Y-67044000D01*
X72230645Y-67042917D01*
X72225971Y-67041499D01*
X72221670Y-67039200D01*
X72215298Y-67033971D01*
X72194924Y-67020357D01*
X72172285Y-67010980D01*
X72148251Y-67006200D01*
X72123747Y-67006200D01*
X72099714Y-67010981D01*
X72077075Y-67020358D01*
X72056702Y-67033971D01*
X72050330Y-67039200D01*
X72046029Y-67041499D01*
X72041355Y-67042917D01*
X72030359Y-67044000D01*
X71741641Y-67044000D01*
X71730645Y-67042917D01*
X71725971Y-67041499D01*
X71721670Y-67039200D01*
X71715298Y-67033971D01*
X71694924Y-67020357D01*
X71672285Y-67010980D01*
X71648251Y-67006200D01*
X71623747Y-67006200D01*
X71599714Y-67010981D01*
X71577075Y-67020358D01*
X71556702Y-67033971D01*
X71550330Y-67039200D01*
X71546029Y-67041499D01*
X71541355Y-67042917D01*
X71530359Y-67044000D01*
X71241641Y-67044000D01*
X71230645Y-67042917D01*
X71225971Y-67041499D01*
X71221670Y-67039200D01*
X71215298Y-67033971D01*
X71194924Y-67020357D01*
X71172285Y-67010980D01*
X71148251Y-67006200D01*
X71123747Y-67006200D01*
X71099714Y-67010981D01*
X71077075Y-67020358D01*
X71056702Y-67033971D01*
X71050330Y-67039200D01*
X71046029Y-67041499D01*
X71041355Y-67042917D01*
X71030359Y-67044000D01*
X70741641Y-67044000D01*
X70730645Y-67042917D01*
X70725971Y-67041499D01*
X70721669Y-67039200D01*
X70717896Y-67036104D01*
X70714800Y-67032331D01*
X70712501Y-67028029D01*
X70711083Y-67023355D01*
X70710000Y-67012359D01*
X70710000Y-66193999D01*
X70707598Y-66169613D01*
X70700485Y-66146164D01*
X70688934Y-66124553D01*
X70673389Y-66105611D01*
X70654447Y-66090066D01*
X70632836Y-66078515D01*
X70609387Y-66071402D01*
X70585001Y-66069000D01*
X69766641Y-66069000D01*
X69755645Y-66067917D01*
X69750971Y-66066499D01*
X69746669Y-66064200D01*
X69742896Y-66061104D01*
X69739800Y-66057331D01*
X69737501Y-66053029D01*
X69736083Y-66048355D01*
X69735000Y-66037359D01*
X69735000Y-65748641D01*
X69736083Y-65737645D01*
X69737501Y-65732971D01*
X69739800Y-65728670D01*
X69745029Y-65722298D01*
X69758643Y-65701924D01*
X69768020Y-65679285D01*
X69772800Y-65655251D01*
X69772800Y-65630747D01*
X69768019Y-65606714D01*
X69758642Y-65584075D01*
X69745029Y-65563702D01*
X69739800Y-65557330D01*
X69737501Y-65553029D01*
X69736083Y-65548355D01*
X69735000Y-65537359D01*
X69735000Y-65248641D01*
X69736083Y-65237645D01*
X69737501Y-65232971D01*
X69739800Y-65228670D01*
X69745029Y-65222298D01*
X69758643Y-65201924D01*
X69768020Y-65179285D01*
X69772800Y-65155251D01*
X69772800Y-65130747D01*
X69768019Y-65106714D01*
X69758642Y-65084075D01*
X69745029Y-65063702D01*
X69739800Y-65057330D01*
X69737501Y-65053029D01*
X69736083Y-65048355D01*
X69735000Y-65037359D01*
X69735000Y-64748641D01*
X69736083Y-64737645D01*
X69737501Y-64732971D01*
X69739800Y-64728670D01*
X69745029Y-64722298D01*
X69758643Y-64701924D01*
X69768020Y-64679285D01*
X69772800Y-64655251D01*
X69772800Y-64630747D01*
X69768019Y-64606714D01*
X69758642Y-64584075D01*
X69745029Y-64563702D01*
X69739800Y-64557330D01*
X69737501Y-64553029D01*
X69736083Y-64548355D01*
X69735000Y-64537359D01*
X69735000Y-64248641D01*
X69736083Y-64237645D01*
X69737501Y-64232971D01*
X69739800Y-64228670D01*
X69745029Y-64222298D01*
X69758643Y-64201924D01*
X69768020Y-64179285D01*
X69772800Y-64155251D01*
X69772800Y-64130747D01*
X69768019Y-64106714D01*
X69758642Y-64084075D01*
X69745029Y-64063702D01*
X69739800Y-64057330D01*
X69737501Y-64053029D01*
X69736083Y-64048355D01*
X69735000Y-64037359D01*
X69735000Y-63748641D01*
X69736083Y-63737645D01*
X69737501Y-63732971D01*
X69739800Y-63728670D01*
X69745029Y-63722298D01*
X69758643Y-63701924D01*
X69768020Y-63679285D01*
X69772800Y-63655251D01*
X69772800Y-63630747D01*
X69768019Y-63606714D01*
X69758642Y-63584075D01*
X69745029Y-63563702D01*
X69739800Y-63557330D01*
X69737501Y-63553029D01*
X69736083Y-63548355D01*
X69735000Y-63537359D01*
X69735000Y-63248641D01*
X69736083Y-63237645D01*
X69737501Y-63232971D01*
X69739800Y-63228669D01*
X69742896Y-63224896D01*
X69746669Y-63221800D01*
X69750971Y-63219501D01*
X69755645Y-63218083D01*
X69766641Y-63217000D01*
X70585001Y-63217000D01*
X70609387Y-63214598D01*
X70632836Y-63207485D01*
X70654447Y-63195934D01*
X70673389Y-63180389D01*
X70688934Y-63161447D01*
X70700485Y-63139836D01*
X70707598Y-63116387D01*
X70710000Y-63092001D01*
X70710000Y-62273641D01*
X70711083Y-62262645D01*
X70712501Y-62257971D01*
X70714800Y-62253669D01*
X70717896Y-62249896D01*
X70721669Y-62246800D01*
X70725971Y-62244501D01*
X70730645Y-62243083D01*
X70741641Y-62242000D01*
X71030359Y-62242000D01*
X71041355Y-62243083D01*
G37*
G36*
X54781656Y-63668153D02*
G01*
X54935372Y-63698729D01*
X55015287Y-63731831D01*
X55217611Y-63815636D01*
X55471621Y-63985360D01*
X55687640Y-64201379D01*
X55857364Y-64455389D01*
X55920045Y-64606715D01*
X55974271Y-64737628D01*
X55984257Y-64787832D01*
X56032406Y-65029890D01*
X56033870Y-65037253D01*
X56033870Y-65342747D01*
X55974271Y-65642372D01*
X55932683Y-65742775D01*
X55857364Y-65924611D01*
X55687640Y-66178621D01*
X55471621Y-66394640D01*
X55217611Y-66564364D01*
X55052279Y-66632846D01*
X54935372Y-66681271D01*
X54835497Y-66701137D01*
X54635749Y-66740870D01*
X54330251Y-66740870D01*
X54130503Y-66701137D01*
X54030628Y-66681271D01*
X53913721Y-66632846D01*
X53748389Y-66564364D01*
X53494379Y-66394640D01*
X53278360Y-66178621D01*
X53108636Y-65924611D01*
X53033317Y-65742775D01*
X52991729Y-65642372D01*
X52932130Y-65342747D01*
X52932130Y-65037253D01*
X52933595Y-65029890D01*
X52981743Y-64787832D01*
X52991729Y-64737628D01*
X53045955Y-64606715D01*
X53108636Y-64455389D01*
X53278360Y-64201379D01*
X53494379Y-63985360D01*
X53748389Y-63815636D01*
X53950713Y-63731831D01*
X54030628Y-63698729D01*
X54184344Y-63668153D01*
X54330251Y-63639130D01*
X54635749Y-63639130D01*
X54781656Y-63668153D01*
G37*
G36*
X82848656Y-63668153D02*
G01*
X83002372Y-63698729D01*
X83082287Y-63731831D01*
X83284611Y-63815636D01*
X83538621Y-63985360D01*
X83754640Y-64201379D01*
X83924364Y-64455389D01*
X83987045Y-64606715D01*
X84041271Y-64737628D01*
X84051257Y-64787832D01*
X84099406Y-65029890D01*
X84100870Y-65037253D01*
X84100870Y-65342747D01*
X84041271Y-65642372D01*
X83999683Y-65742775D01*
X83924364Y-65924611D01*
X83754640Y-66178621D01*
X83538621Y-66394640D01*
X83284611Y-66564364D01*
X83119279Y-66632846D01*
X83002372Y-66681271D01*
X82902497Y-66701137D01*
X82702749Y-66740870D01*
X82397251Y-66740870D01*
X82197503Y-66701137D01*
X82097628Y-66681271D01*
X81980721Y-66632846D01*
X81815389Y-66564364D01*
X81561379Y-66394640D01*
X81345360Y-66178621D01*
X81175636Y-65924611D01*
X81100317Y-65742775D01*
X81058729Y-65642372D01*
X80999130Y-65342747D01*
X80999130Y-65037253D01*
X81000595Y-65029890D01*
X81048743Y-64787832D01*
X81058729Y-64737628D01*
X81112955Y-64606715D01*
X81175636Y-64455389D01*
X81345360Y-64201379D01*
X81561379Y-63985360D01*
X81815389Y-63815636D01*
X82017713Y-63731831D01*
X82097628Y-63698729D01*
X82251344Y-63668153D01*
X82397251Y-63639130D01*
X82702749Y-63639130D01*
X82848656Y-63668153D01*
G37*
G36*
X65844420Y-66354960D02*
G01*
X64843660Y-66354960D01*
X64843660Y-65252600D01*
X65844420Y-65252600D01*
X65844420Y-66354960D01*
G37*
G36*
X62161420Y-66354960D02*
G01*
X61160660Y-66354960D01*
X61160660Y-65252600D01*
X62161420Y-65252600D01*
X62161420Y-66354960D01*
G37*
G36*
X67744340Y-66354960D02*
G01*
X66743580Y-66354960D01*
X66743580Y-65252600D01*
X67744340Y-65252600D01*
X67744340Y-66354960D01*
G37*
G36*
X64061340Y-66354960D02*
G01*
X63060580Y-66354960D01*
X63060580Y-65252600D01*
X64061340Y-65252600D01*
X64061340Y-66354960D01*
G37*
G36*
X65960499Y-63613445D02*
G01*
X65997995Y-63624820D01*
X66032554Y-63643292D01*
X66062847Y-63668153D01*
X66087708Y-63698446D01*
X66106180Y-63733005D01*
X66117555Y-63770501D01*
X66122000Y-63815638D01*
X66122000Y-64454362D01*
X66117555Y-64499499D01*
X66106180Y-64536995D01*
X66087708Y-64571554D01*
X66062847Y-64601847D01*
X66032554Y-64626708D01*
X65997995Y-64645180D01*
X65960499Y-64656555D01*
X65915362Y-64661000D01*
X65176638Y-64661000D01*
X65131501Y-64656555D01*
X65094005Y-64645180D01*
X65059446Y-64626708D01*
X65029153Y-64601847D01*
X65004292Y-64571554D01*
X64985820Y-64536995D01*
X64974445Y-64499499D01*
X64970000Y-64454362D01*
X64970000Y-63815638D01*
X64974445Y-63770501D01*
X64985820Y-63733005D01*
X65004292Y-63698446D01*
X65029153Y-63668153D01*
X65059446Y-63643292D01*
X65094005Y-63624820D01*
X65131501Y-63613445D01*
X65176638Y-63609000D01*
X65915362Y-63609000D01*
X65960499Y-63613445D01*
G37*
G36*
X67710499Y-63613445D02*
G01*
X67747995Y-63624820D01*
X67782554Y-63643292D01*
X67812847Y-63668153D01*
X67837708Y-63698446D01*
X67856180Y-63733005D01*
X67867555Y-63770501D01*
X67872000Y-63815638D01*
X67872000Y-64454362D01*
X67867555Y-64499499D01*
X67856180Y-64536995D01*
X67837708Y-64571554D01*
X67812847Y-64601847D01*
X67782554Y-64626708D01*
X67747995Y-64645180D01*
X67710499Y-64656555D01*
X67665362Y-64661000D01*
X66926638Y-64661000D01*
X66881501Y-64656555D01*
X66844005Y-64645180D01*
X66809446Y-64626708D01*
X66779153Y-64601847D01*
X66754292Y-64571554D01*
X66735820Y-64536995D01*
X66724445Y-64499499D01*
X66720000Y-64454362D01*
X66720000Y-63815638D01*
X66724445Y-63770501D01*
X66735820Y-63733005D01*
X66754292Y-63698446D01*
X66779153Y-63668153D01*
X66809446Y-63643292D01*
X66844005Y-63624820D01*
X66881501Y-63613445D01*
X66926638Y-63609000D01*
X67665362Y-63609000D01*
X67710499Y-63613445D01*
G37*
G36*
X64027499Y-63613445D02*
G01*
X64064995Y-63624820D01*
X64099554Y-63643292D01*
X64129847Y-63668153D01*
X64154708Y-63698446D01*
X64173180Y-63733005D01*
X64184555Y-63770501D01*
X64189000Y-63815638D01*
X64189000Y-64454362D01*
X64184555Y-64499499D01*
X64173180Y-64536995D01*
X64154708Y-64571554D01*
X64129847Y-64601847D01*
X64099554Y-64626708D01*
X64064995Y-64645180D01*
X64027499Y-64656555D01*
X63982362Y-64661000D01*
X63243638Y-64661000D01*
X63198501Y-64656555D01*
X63161005Y-64645180D01*
X63126446Y-64626708D01*
X63096153Y-64601847D01*
X63071292Y-64571554D01*
X63052820Y-64536995D01*
X63041445Y-64499499D01*
X63037000Y-64454362D01*
X63037000Y-63815638D01*
X63041445Y-63770501D01*
X63052820Y-63733005D01*
X63071292Y-63698446D01*
X63096153Y-63668153D01*
X63126446Y-63643292D01*
X63161005Y-63624820D01*
X63198501Y-63613445D01*
X63243638Y-63609000D01*
X63982362Y-63609000D01*
X64027499Y-63613445D01*
G37*
G36*
X62277499Y-63613445D02*
G01*
X62314995Y-63624820D01*
X62349554Y-63643292D01*
X62379847Y-63668153D01*
X62404708Y-63698446D01*
X62423180Y-63733005D01*
X62434555Y-63770501D01*
X62439000Y-63815638D01*
X62439000Y-64454362D01*
X62434555Y-64499499D01*
X62423180Y-64536995D01*
X62404708Y-64571554D01*
X62379847Y-64601847D01*
X62349554Y-64626708D01*
X62314995Y-64645180D01*
X62277499Y-64656555D01*
X62232362Y-64661000D01*
X61493638Y-64661000D01*
X61448501Y-64656555D01*
X61411005Y-64645180D01*
X61376446Y-64626708D01*
X61346153Y-64601847D01*
X61321292Y-64571554D01*
X61302820Y-64536995D01*
X61291445Y-64499499D01*
X61287000Y-64454362D01*
X61287000Y-63815638D01*
X61291445Y-63770501D01*
X61302820Y-63733005D01*
X61321292Y-63698446D01*
X61346153Y-63668153D01*
X61376446Y-63643292D01*
X61411005Y-63624820D01*
X61448501Y-63613445D01*
X61493638Y-63609000D01*
X62232362Y-63609000D01*
X62277499Y-63613445D01*
G37*
G36*
X62467499Y-61009445D02*
G01*
X62504995Y-61020820D01*
X62539554Y-61039292D01*
X62569847Y-61064153D01*
X62594708Y-61094446D01*
X62613180Y-61129005D01*
X62624555Y-61166501D01*
X62629000Y-61211638D01*
X62629000Y-61950362D01*
X62624555Y-61995499D01*
X62613180Y-62032995D01*
X62594708Y-62067554D01*
X62569847Y-62097847D01*
X62539554Y-62122708D01*
X62504995Y-62141180D01*
X62467499Y-62152555D01*
X62422362Y-62157000D01*
X61783638Y-62157000D01*
X61738501Y-62152555D01*
X61701005Y-62141180D01*
X61666446Y-62122708D01*
X61636153Y-62097847D01*
X61611292Y-62067554D01*
X61592820Y-62032995D01*
X61581445Y-61995499D01*
X61577000Y-61950362D01*
X61577000Y-61211638D01*
X61581445Y-61166501D01*
X61592820Y-61129005D01*
X61611292Y-61094446D01*
X61636153Y-61064153D01*
X61666446Y-61039292D01*
X61701005Y-61020820D01*
X61738501Y-61009445D01*
X61783638Y-61005000D01*
X62422362Y-61005000D01*
X62467499Y-61009445D01*
G37*
G36*
X63991499Y-61009445D02*
G01*
X64028995Y-61020820D01*
X64063554Y-61039292D01*
X64093847Y-61064153D01*
X64118708Y-61094446D01*
X64137180Y-61129005D01*
X64148555Y-61166501D01*
X64153000Y-61211638D01*
X64153000Y-61950362D01*
X64148555Y-61995499D01*
X64137180Y-62032995D01*
X64118708Y-62067554D01*
X64093847Y-62097847D01*
X64063554Y-62122708D01*
X64028995Y-62141180D01*
X63991499Y-62152555D01*
X63946362Y-62157000D01*
X63307638Y-62157000D01*
X63262501Y-62152555D01*
X63225005Y-62141180D01*
X63190446Y-62122708D01*
X63160153Y-62097847D01*
X63135292Y-62067554D01*
X63116820Y-62032995D01*
X63105445Y-61995499D01*
X63101000Y-61950362D01*
X63101000Y-61211638D01*
X63105445Y-61166501D01*
X63116820Y-61129005D01*
X63135292Y-61094446D01*
X63160153Y-61064153D01*
X63190446Y-61039292D01*
X63225005Y-61020820D01*
X63262501Y-61009445D01*
X63307638Y-61005000D01*
X63946362Y-61005000D01*
X63991499Y-61009445D01*
G37*
G36*
X76183499Y-60755445D02*
G01*
X76220995Y-60766820D01*
X76255554Y-60785292D01*
X76285847Y-60810153D01*
X76310708Y-60840446D01*
X76329180Y-60875005D01*
X76340555Y-60912501D01*
X76345000Y-60957638D01*
X76345000Y-61696362D01*
X76340555Y-61741499D01*
X76329180Y-61778995D01*
X76310708Y-61813554D01*
X76285847Y-61843847D01*
X76255554Y-61868708D01*
X76220995Y-61887180D01*
X76183499Y-61898555D01*
X76138362Y-61903000D01*
X75499638Y-61903000D01*
X75454501Y-61898555D01*
X75417005Y-61887180D01*
X75382446Y-61868708D01*
X75352153Y-61843847D01*
X75327292Y-61813554D01*
X75308820Y-61778995D01*
X75297445Y-61741499D01*
X75293000Y-61696362D01*
X75293000Y-60957638D01*
X75297445Y-60912501D01*
X75308820Y-60875005D01*
X75327292Y-60840446D01*
X75352153Y-60810153D01*
X75382446Y-60785292D01*
X75417005Y-60766820D01*
X75454501Y-60755445D01*
X75499638Y-60751000D01*
X76138362Y-60751000D01*
X76183499Y-60755445D01*
G37*
G36*
X77707499Y-60755445D02*
G01*
X77744995Y-60766820D01*
X77779554Y-60785292D01*
X77809847Y-60810153D01*
X77834708Y-60840446D01*
X77853180Y-60875005D01*
X77864555Y-60912501D01*
X77869000Y-60957638D01*
X77869000Y-61696362D01*
X77864555Y-61741499D01*
X77853180Y-61778995D01*
X77834708Y-61813554D01*
X77809847Y-61843847D01*
X77779554Y-61868708D01*
X77744995Y-61887180D01*
X77707499Y-61898555D01*
X77662362Y-61903000D01*
X77023638Y-61903000D01*
X76978501Y-61898555D01*
X76941005Y-61887180D01*
X76906446Y-61868708D01*
X76876153Y-61843847D01*
X76851292Y-61813554D01*
X76832820Y-61778995D01*
X76821445Y-61741499D01*
X76817000Y-61696362D01*
X76817000Y-60957638D01*
X76821445Y-60912501D01*
X76832820Y-60875005D01*
X76851292Y-60840446D01*
X76876153Y-60810153D01*
X76906446Y-60785292D01*
X76941005Y-60766820D01*
X76978501Y-60755445D01*
X77023638Y-60751000D01*
X77662362Y-60751000D01*
X77707499Y-60755445D01*
G37*
G36*
X65706499Y-59930445D02*
G01*
X65743995Y-59941820D01*
X65778554Y-59960292D01*
X65808847Y-59985153D01*
X65833708Y-60015446D01*
X65852180Y-60050005D01*
X65863555Y-60087501D01*
X65868000Y-60132638D01*
X65868000Y-60771362D01*
X65863555Y-60816499D01*
X65852180Y-60853995D01*
X65833708Y-60888554D01*
X65808847Y-60918847D01*
X65778554Y-60943708D01*
X65743995Y-60962180D01*
X65706499Y-60973555D01*
X65661362Y-60978000D01*
X64922638Y-60978000D01*
X64877501Y-60973555D01*
X64840005Y-60962180D01*
X64805446Y-60943708D01*
X64775153Y-60918847D01*
X64750292Y-60888554D01*
X64731820Y-60853995D01*
X64720445Y-60816499D01*
X64716000Y-60771362D01*
X64716000Y-60132638D01*
X64720445Y-60087501D01*
X64731820Y-60050005D01*
X64750292Y-60015446D01*
X64775153Y-59985153D01*
X64805446Y-59960292D01*
X64840005Y-59941820D01*
X64877501Y-59930445D01*
X64922638Y-59926000D01*
X65661362Y-59926000D01*
X65706499Y-59930445D01*
G37*
G36*
X67456499Y-59930445D02*
G01*
X67493995Y-59941820D01*
X67528554Y-59960292D01*
X67558847Y-59985153D01*
X67583708Y-60015446D01*
X67602180Y-60050005D01*
X67613555Y-60087501D01*
X67618000Y-60132638D01*
X67618000Y-60771362D01*
X67613555Y-60816499D01*
X67602180Y-60853995D01*
X67583708Y-60888554D01*
X67558847Y-60918847D01*
X67528554Y-60943708D01*
X67493995Y-60962180D01*
X67456499Y-60973555D01*
X67411362Y-60978000D01*
X66672638Y-60978000D01*
X66627501Y-60973555D01*
X66590005Y-60962180D01*
X66555446Y-60943708D01*
X66525153Y-60918847D01*
X66500292Y-60888554D01*
X66481820Y-60853995D01*
X66470445Y-60816499D01*
X66466000Y-60771362D01*
X66466000Y-60132638D01*
X66470445Y-60087501D01*
X66481820Y-60050005D01*
X66500292Y-60015446D01*
X66525153Y-59985153D01*
X66555446Y-59960292D01*
X66590005Y-59941820D01*
X66627501Y-59930445D01*
X66672638Y-59926000D01*
X67411362Y-59926000D01*
X67456499Y-59930445D01*
G37*
G36*
X62467499Y-59259445D02*
G01*
X62504995Y-59270820D01*
X62539554Y-59289292D01*
X62569847Y-59314153D01*
X62594708Y-59344446D01*
X62613180Y-59379005D01*
X62624555Y-59416501D01*
X62629000Y-59461638D01*
X62629000Y-60200362D01*
X62624555Y-60245499D01*
X62613180Y-60282995D01*
X62594708Y-60317554D01*
X62569847Y-60347847D01*
X62539554Y-60372708D01*
X62504995Y-60391180D01*
X62467499Y-60402555D01*
X62422362Y-60407000D01*
X61783638Y-60407000D01*
X61738501Y-60402555D01*
X61701005Y-60391180D01*
X61666446Y-60372708D01*
X61636153Y-60347847D01*
X61611292Y-60317554D01*
X61592820Y-60282995D01*
X61581445Y-60245499D01*
X61577000Y-60200362D01*
X61577000Y-59461638D01*
X61581445Y-59416501D01*
X61592820Y-59379005D01*
X61611292Y-59344446D01*
X61636153Y-59314153D01*
X61666446Y-59289292D01*
X61701005Y-59270820D01*
X61738501Y-59259445D01*
X61783638Y-59255000D01*
X62422362Y-59255000D01*
X62467499Y-59259445D01*
G37*
G36*
X63991499Y-59259445D02*
G01*
X64028995Y-59270820D01*
X64063554Y-59289292D01*
X64093847Y-59314153D01*
X64118708Y-59344446D01*
X64137180Y-59379005D01*
X64148555Y-59416501D01*
X64153000Y-59461638D01*
X64153000Y-60200362D01*
X64148555Y-60245499D01*
X64137180Y-60282995D01*
X64118708Y-60317554D01*
X64093847Y-60347847D01*
X64063554Y-60372708D01*
X64028995Y-60391180D01*
X63991499Y-60402555D01*
X63946362Y-60407000D01*
X63307638Y-60407000D01*
X63262501Y-60402555D01*
X63225005Y-60391180D01*
X63190446Y-60372708D01*
X63160153Y-60347847D01*
X63135292Y-60317554D01*
X63116820Y-60282995D01*
X63105445Y-60245499D01*
X63101000Y-60200362D01*
X63101000Y-59461638D01*
X63105445Y-59416501D01*
X63116820Y-59379005D01*
X63135292Y-59344446D01*
X63160153Y-59314153D01*
X63190446Y-59289292D01*
X63225005Y-59270820D01*
X63262501Y-59259445D01*
X63307638Y-59255000D01*
X63946362Y-59255000D01*
X63991499Y-59259445D01*
G37*
G36*
X76183499Y-59005445D02*
G01*
X76220995Y-59016820D01*
X76255554Y-59035292D01*
X76285847Y-59060153D01*
X76310708Y-59090446D01*
X76329180Y-59125005D01*
X76340555Y-59162501D01*
X76345000Y-59207638D01*
X76345000Y-59946362D01*
X76340555Y-59991499D01*
X76329180Y-60028995D01*
X76310708Y-60063554D01*
X76285847Y-60093847D01*
X76255554Y-60118708D01*
X76220995Y-60137180D01*
X76183499Y-60148555D01*
X76138362Y-60153000D01*
X75499638Y-60153000D01*
X75454501Y-60148555D01*
X75417005Y-60137180D01*
X75382446Y-60118708D01*
X75352153Y-60093847D01*
X75327292Y-60063554D01*
X75308820Y-60028995D01*
X75297445Y-59991499D01*
X75293000Y-59946362D01*
X75293000Y-59207638D01*
X75297445Y-59162501D01*
X75308820Y-59125005D01*
X75327292Y-59090446D01*
X75352153Y-59060153D01*
X75382446Y-59035292D01*
X75417005Y-59016820D01*
X75454501Y-59005445D01*
X75499638Y-59001000D01*
X76138362Y-59001000D01*
X76183499Y-59005445D01*
G37*
G36*
X77707499Y-59005445D02*
G01*
X77744995Y-59016820D01*
X77779554Y-59035292D01*
X77809847Y-59060153D01*
X77834708Y-59090446D01*
X77853180Y-59125005D01*
X77864555Y-59162501D01*
X77869000Y-59207638D01*
X77869000Y-59946362D01*
X77864555Y-59991499D01*
X77853180Y-60028995D01*
X77834708Y-60063554D01*
X77809847Y-60093847D01*
X77779554Y-60118708D01*
X77744995Y-60137180D01*
X77707499Y-60148555D01*
X77662362Y-60153000D01*
X77023638Y-60153000D01*
X76978501Y-60148555D01*
X76941005Y-60137180D01*
X76906446Y-60118708D01*
X76876153Y-60093847D01*
X76851292Y-60063554D01*
X76832820Y-60028995D01*
X76821445Y-59991499D01*
X76817000Y-59946362D01*
X76817000Y-59207638D01*
X76821445Y-59162501D01*
X76832820Y-59125005D01*
X76851292Y-59090446D01*
X76876153Y-59060153D01*
X76906446Y-59035292D01*
X76941005Y-59016820D01*
X76978501Y-59005445D01*
X77023638Y-59001000D01*
X77662362Y-59001000D01*
X77707499Y-59005445D01*
G37*
G36*
X85788981Y-54211909D02*
G01*
X85821242Y-54221695D01*
X85850969Y-54237585D01*
X85877029Y-54258971D01*
X85898415Y-54285031D01*
X85914305Y-54314758D01*
X85924091Y-54347019D01*
X85928000Y-54386708D01*
X85928000Y-57881292D01*
X85924091Y-57920981D01*
X85914305Y-57953242D01*
X85898415Y-57982969D01*
X85877029Y-58009029D01*
X85850969Y-58030415D01*
X85821242Y-58046305D01*
X85788981Y-58056091D01*
X85749292Y-58060000D01*
X84154708Y-58060000D01*
X84115019Y-58056091D01*
X84082758Y-58046305D01*
X84053031Y-58030415D01*
X84026971Y-58009029D01*
X84005585Y-57982969D01*
X83989695Y-57953242D01*
X83979909Y-57920981D01*
X83976000Y-57881292D01*
X83976000Y-54386708D01*
X83979909Y-54347019D01*
X83989695Y-54314758D01*
X84005585Y-54285031D01*
X84026971Y-54258971D01*
X84053031Y-54237585D01*
X84082758Y-54221695D01*
X84115019Y-54211909D01*
X84154708Y-54208000D01*
X85749292Y-54208000D01*
X85788981Y-54211909D01*
G37*
G36*
X81238981Y-54211909D02*
G01*
X81271242Y-54221695D01*
X81300969Y-54237585D01*
X81327029Y-54258971D01*
X81348415Y-54285031D01*
X81364305Y-54314758D01*
X81374091Y-54347019D01*
X81378000Y-54386708D01*
X81378000Y-57881292D01*
X81374091Y-57920981D01*
X81364305Y-57953242D01*
X81348415Y-57982969D01*
X81327029Y-58009029D01*
X81300969Y-58030415D01*
X81271242Y-58046305D01*
X81238981Y-58056091D01*
X81199292Y-58060000D01*
X79604708Y-58060000D01*
X79565019Y-58056091D01*
X79532758Y-58046305D01*
X79503031Y-58030415D01*
X79476971Y-58009029D01*
X79455585Y-57982969D01*
X79439695Y-57953242D01*
X79429909Y-57920981D01*
X79426000Y-57881292D01*
X79426000Y-54386708D01*
X79429909Y-54347019D01*
X79439695Y-54314758D01*
X79455585Y-54285031D01*
X79476971Y-54258971D01*
X79503031Y-54237585D01*
X79532758Y-54221695D01*
X79565019Y-54211909D01*
X79604708Y-54208000D01*
X81199292Y-54208000D01*
X81238981Y-54211909D01*
G37*
G36*
X65769499Y-55675445D02*
G01*
X65806995Y-55686820D01*
X65841554Y-55705292D01*
X65871847Y-55730153D01*
X65896708Y-55760446D01*
X65915180Y-55795005D01*
X65926555Y-55832501D01*
X65931000Y-55877638D01*
X65931000Y-56616362D01*
X65926555Y-56661499D01*
X65915180Y-56698995D01*
X65896708Y-56733554D01*
X65871847Y-56763847D01*
X65841554Y-56788708D01*
X65806995Y-56807180D01*
X65769499Y-56818555D01*
X65724362Y-56823000D01*
X65085638Y-56823000D01*
X65040501Y-56818555D01*
X65003005Y-56807180D01*
X64968446Y-56788708D01*
X64938153Y-56763847D01*
X64913292Y-56733554D01*
X64894820Y-56698995D01*
X64883445Y-56661499D01*
X64879000Y-56616362D01*
X64879000Y-55877638D01*
X64883445Y-55832501D01*
X64894820Y-55795005D01*
X64913292Y-55760446D01*
X64938153Y-55730153D01*
X64968446Y-55705292D01*
X65003005Y-55686820D01*
X65040501Y-55675445D01*
X65085638Y-55671000D01*
X65724362Y-55671000D01*
X65769499Y-55675445D01*
G37*
G36*
X68276295Y-51663323D02*
G01*
X68283309Y-51665451D01*
X68297077Y-51672810D01*
X68319716Y-51682187D01*
X68343749Y-51686967D01*
X68368253Y-51686967D01*
X68392286Y-51682186D01*
X68414923Y-51672810D01*
X68428691Y-51665451D01*
X68435705Y-51663323D01*
X68449140Y-51662000D01*
X68762860Y-51662000D01*
X68776295Y-51663323D01*
X68783309Y-51665451D01*
X68797077Y-51672810D01*
X68819716Y-51682187D01*
X68843749Y-51686967D01*
X68868253Y-51686967D01*
X68892286Y-51682186D01*
X68914923Y-51672810D01*
X68928691Y-51665451D01*
X68935705Y-51663323D01*
X68949140Y-51662000D01*
X69262860Y-51662000D01*
X69276295Y-51663323D01*
X69283309Y-51665451D01*
X69297077Y-51672810D01*
X69319716Y-51682187D01*
X69343749Y-51686967D01*
X69368253Y-51686967D01*
X69392286Y-51682186D01*
X69414923Y-51672810D01*
X69428691Y-51665451D01*
X69435705Y-51663323D01*
X69449140Y-51662000D01*
X69762860Y-51662000D01*
X69776295Y-51663323D01*
X69783309Y-51665451D01*
X69797077Y-51672810D01*
X69819716Y-51682187D01*
X69843749Y-51686967D01*
X69868253Y-51686967D01*
X69892286Y-51682186D01*
X69914923Y-51672810D01*
X69928691Y-51665451D01*
X69935705Y-51663323D01*
X69949140Y-51662000D01*
X70262860Y-51662000D01*
X70276295Y-51663323D01*
X70283309Y-51665451D01*
X70297077Y-51672810D01*
X70319716Y-51682187D01*
X70343749Y-51686967D01*
X70368253Y-51686967D01*
X70392286Y-51682186D01*
X70414923Y-51672810D01*
X70428691Y-51665451D01*
X70435705Y-51663323D01*
X70449140Y-51662000D01*
X70762860Y-51662000D01*
X70776295Y-51663323D01*
X70783310Y-51665451D01*
X70789776Y-51668908D01*
X70795442Y-51673558D01*
X70800092Y-51679224D01*
X70803549Y-51685690D01*
X70805677Y-51692705D01*
X70807000Y-51706140D01*
X70807000Y-52512001D01*
X70809402Y-52536387D01*
X70816515Y-52559836D01*
X70828066Y-52581447D01*
X70843611Y-52600389D01*
X70862553Y-52615934D01*
X70884164Y-52627485D01*
X70907613Y-52634598D01*
X70931999Y-52637000D01*
X71737860Y-52637000D01*
X71751295Y-52638323D01*
X71758310Y-52640451D01*
X71764776Y-52643908D01*
X71770442Y-52648558D01*
X71775092Y-52654224D01*
X71778549Y-52660690D01*
X71780677Y-52667705D01*
X71782000Y-52681140D01*
X71782000Y-52994860D01*
X71780677Y-53008295D01*
X71778549Y-53015309D01*
X71771190Y-53029077D01*
X71761813Y-53051716D01*
X71757033Y-53075749D01*
X71757033Y-53100253D01*
X71761814Y-53124286D01*
X71771190Y-53146923D01*
X71778549Y-53160691D01*
X71780677Y-53167705D01*
X71782000Y-53181140D01*
X71782000Y-53494860D01*
X71780677Y-53508295D01*
X71778549Y-53515309D01*
X71771190Y-53529077D01*
X71761813Y-53551716D01*
X71757033Y-53575749D01*
X71757033Y-53600253D01*
X71761814Y-53624286D01*
X71771190Y-53646923D01*
X71778549Y-53660691D01*
X71780677Y-53667705D01*
X71782000Y-53681140D01*
X71782000Y-53994860D01*
X71780677Y-54008295D01*
X71778549Y-54015309D01*
X71771190Y-54029077D01*
X71761813Y-54051716D01*
X71757033Y-54075749D01*
X71757033Y-54100253D01*
X71761814Y-54124286D01*
X71771190Y-54146923D01*
X71778549Y-54160691D01*
X71780677Y-54167705D01*
X71782000Y-54181140D01*
X71782000Y-54494860D01*
X71780677Y-54508295D01*
X71778549Y-54515309D01*
X71771190Y-54529077D01*
X71761813Y-54551716D01*
X71757033Y-54575749D01*
X71757033Y-54600253D01*
X71761814Y-54624286D01*
X71771190Y-54646923D01*
X71778549Y-54660691D01*
X71780677Y-54667705D01*
X71782000Y-54681140D01*
X71782000Y-54994860D01*
X71780677Y-55008295D01*
X71778549Y-55015309D01*
X71771190Y-55029077D01*
X71761813Y-55051716D01*
X71757033Y-55075749D01*
X71757033Y-55100253D01*
X71761814Y-55124286D01*
X71771190Y-55146923D01*
X71778549Y-55160691D01*
X71780677Y-55167705D01*
X71782000Y-55181140D01*
X71782000Y-55494860D01*
X71780677Y-55508295D01*
X71778549Y-55515310D01*
X71775092Y-55521776D01*
X71770442Y-55527442D01*
X71764776Y-55532092D01*
X71758310Y-55535549D01*
X71751295Y-55537677D01*
X71737860Y-55539000D01*
X70931999Y-55539000D01*
X70907613Y-55541402D01*
X70884164Y-55548515D01*
X70862553Y-55560066D01*
X70843611Y-55575611D01*
X70828066Y-55594553D01*
X70816515Y-55616164D01*
X70809402Y-55639613D01*
X70807000Y-55663999D01*
X70807000Y-56469860D01*
X70805677Y-56483295D01*
X70803549Y-56490310D01*
X70800092Y-56496776D01*
X70795442Y-56502442D01*
X70789776Y-56507092D01*
X70783310Y-56510549D01*
X70776295Y-56512677D01*
X70762860Y-56514000D01*
X70449140Y-56514000D01*
X70435705Y-56512677D01*
X70428691Y-56510549D01*
X70414923Y-56503190D01*
X70392284Y-56493813D01*
X70368251Y-56489033D01*
X70343747Y-56489033D01*
X70319714Y-56493814D01*
X70297077Y-56503190D01*
X70283309Y-56510549D01*
X70276295Y-56512677D01*
X70262860Y-56514000D01*
X69949140Y-56514000D01*
X69935705Y-56512677D01*
X69928691Y-56510549D01*
X69914923Y-56503190D01*
X69892284Y-56493813D01*
X69868251Y-56489033D01*
X69843747Y-56489033D01*
X69819714Y-56493814D01*
X69797077Y-56503190D01*
X69783309Y-56510549D01*
X69776295Y-56512677D01*
X69762860Y-56514000D01*
X69449140Y-56514000D01*
X69435705Y-56512677D01*
X69428691Y-56510549D01*
X69414923Y-56503190D01*
X69392284Y-56493813D01*
X69368251Y-56489033D01*
X69343747Y-56489033D01*
X69319714Y-56493814D01*
X69297077Y-56503190D01*
X69283309Y-56510549D01*
X69276295Y-56512677D01*
X69262860Y-56514000D01*
X68949140Y-56514000D01*
X68935705Y-56512677D01*
X68928691Y-56510549D01*
X68914923Y-56503190D01*
X68892284Y-56493813D01*
X68868251Y-56489033D01*
X68843747Y-56489033D01*
X68819714Y-56493814D01*
X68797077Y-56503190D01*
X68783309Y-56510549D01*
X68776295Y-56512677D01*
X68762860Y-56514000D01*
X68449140Y-56514000D01*
X68435705Y-56512677D01*
X68428691Y-56510549D01*
X68414923Y-56503190D01*
X68392284Y-56493813D01*
X68368251Y-56489033D01*
X68343747Y-56489033D01*
X68319714Y-56493814D01*
X68297077Y-56503190D01*
X68283309Y-56510549D01*
X68276295Y-56512677D01*
X68262860Y-56514000D01*
X67949140Y-56514000D01*
X67935705Y-56512677D01*
X67928690Y-56510549D01*
X67922224Y-56507092D01*
X67916558Y-56502442D01*
X67911908Y-56496776D01*
X67908451Y-56490310D01*
X67906323Y-56483295D01*
X67905000Y-56469860D01*
X67905000Y-55663999D01*
X67902598Y-55639613D01*
X67895485Y-55616164D01*
X67883934Y-55594553D01*
X67868389Y-55575611D01*
X67849447Y-55560066D01*
X67827836Y-55548515D01*
X67804387Y-55541402D01*
X67780001Y-55539000D01*
X66974140Y-55539000D01*
X66960705Y-55537677D01*
X66953690Y-55535549D01*
X66947224Y-55532092D01*
X66941558Y-55527442D01*
X66936908Y-55521776D01*
X66933451Y-55515310D01*
X66931323Y-55508295D01*
X66930000Y-55494860D01*
X66930000Y-55181140D01*
X66931323Y-55167705D01*
X66933451Y-55160691D01*
X66940810Y-55146923D01*
X66950187Y-55124284D01*
X66954967Y-55100251D01*
X66954967Y-55075747D01*
X66950186Y-55051714D01*
X66940810Y-55029077D01*
X66933451Y-55015309D01*
X66931323Y-55008295D01*
X66930000Y-54994860D01*
X66930000Y-54681140D01*
X66931323Y-54667705D01*
X66933451Y-54660691D01*
X66940810Y-54646923D01*
X66950187Y-54624284D01*
X66954967Y-54600251D01*
X66954967Y-54575747D01*
X66950186Y-54551714D01*
X66940810Y-54529077D01*
X66933451Y-54515309D01*
X66931323Y-54508295D01*
X66930000Y-54494860D01*
X66930000Y-54181140D01*
X66931323Y-54167705D01*
X66933451Y-54160691D01*
X66940810Y-54146923D01*
X66950187Y-54124284D01*
X66954967Y-54100251D01*
X66954967Y-54075747D01*
X66950186Y-54051714D01*
X66940810Y-54029077D01*
X66933451Y-54015309D01*
X66931323Y-54008295D01*
X66930000Y-53994860D01*
X66930000Y-53681140D01*
X66931323Y-53667705D01*
X66933451Y-53660691D01*
X66940810Y-53646923D01*
X66950187Y-53624284D01*
X66954967Y-53600251D01*
X66954967Y-53575747D01*
X66950186Y-53551714D01*
X66940810Y-53529077D01*
X66933451Y-53515309D01*
X66931323Y-53508295D01*
X66930000Y-53494860D01*
X66930000Y-53181140D01*
X66931323Y-53167705D01*
X66933451Y-53160691D01*
X66940810Y-53146923D01*
X66950187Y-53124284D01*
X66954967Y-53100251D01*
X66954967Y-53075749D01*
X67857033Y-53075749D01*
X67857033Y-53100253D01*
X67861814Y-53124286D01*
X67871190Y-53146923D01*
X67878549Y-53160691D01*
X67880677Y-53167705D01*
X67882000Y-53181140D01*
X67882000Y-53494860D01*
X67880677Y-53508295D01*
X67878549Y-53515309D01*
X67871190Y-53529077D01*
X67861813Y-53551716D01*
X67857033Y-53575749D01*
X67857033Y-53600253D01*
X67861814Y-53624286D01*
X67871190Y-53646923D01*
X67878549Y-53660691D01*
X67880677Y-53667705D01*
X67882000Y-53681140D01*
X67882000Y-53994860D01*
X67880677Y-54008295D01*
X67878549Y-54015309D01*
X67871190Y-54029077D01*
X67861813Y-54051716D01*
X67857033Y-54075749D01*
X67857033Y-54100253D01*
X67861814Y-54124286D01*
X67871190Y-54146923D01*
X67878549Y-54160691D01*
X67880677Y-54167705D01*
X67882000Y-54181140D01*
X67882000Y-54494860D01*
X67880677Y-54508295D01*
X67878549Y-54515309D01*
X67871190Y-54529077D01*
X67861813Y-54551716D01*
X67857033Y-54575749D01*
X67857033Y-54600253D01*
X67861814Y-54624286D01*
X67871190Y-54646923D01*
X67878549Y-54660691D01*
X67880677Y-54667705D01*
X67882000Y-54681140D01*
X67882000Y-54994860D01*
X67880677Y-55008295D01*
X67878549Y-55015309D01*
X67871190Y-55029077D01*
X67861813Y-55051716D01*
X67857033Y-55075749D01*
X67857033Y-55100253D01*
X67861814Y-55124286D01*
X67871190Y-55146923D01*
X67878549Y-55160691D01*
X67880677Y-55167705D01*
X67882000Y-55181140D01*
X67882000Y-55437001D01*
X67884402Y-55461387D01*
X67891515Y-55484836D01*
X67903066Y-55506447D01*
X67918611Y-55525389D01*
X67937553Y-55540934D01*
X67959164Y-55552485D01*
X67982613Y-55559598D01*
X68006999Y-55562000D01*
X68262860Y-55562000D01*
X68276295Y-55563323D01*
X68283309Y-55565451D01*
X68297077Y-55572810D01*
X68319716Y-55582187D01*
X68343749Y-55586967D01*
X68368253Y-55586967D01*
X68392286Y-55582186D01*
X68414923Y-55572810D01*
X68428691Y-55565451D01*
X68435705Y-55563323D01*
X68449140Y-55562000D01*
X68762860Y-55562000D01*
X68776295Y-55563323D01*
X68783309Y-55565451D01*
X68797077Y-55572810D01*
X68819716Y-55582187D01*
X68843749Y-55586967D01*
X68868253Y-55586967D01*
X68892286Y-55582186D01*
X68914923Y-55572810D01*
X68928691Y-55565451D01*
X68935705Y-55563323D01*
X68949140Y-55562000D01*
X69262860Y-55562000D01*
X69276295Y-55563323D01*
X69283309Y-55565451D01*
X69297077Y-55572810D01*
X69319716Y-55582187D01*
X69343749Y-55586967D01*
X69368253Y-55586967D01*
X69392286Y-55582186D01*
X69414923Y-55572810D01*
X69428691Y-55565451D01*
X69435705Y-55563323D01*
X69449140Y-55562000D01*
X69762860Y-55562000D01*
X69776295Y-55563323D01*
X69783309Y-55565451D01*
X69797077Y-55572810D01*
X69819716Y-55582187D01*
X69843749Y-55586967D01*
X69868253Y-55586967D01*
X69892286Y-55582186D01*
X69914923Y-55572810D01*
X69928691Y-55565451D01*
X69935705Y-55563323D01*
X69949140Y-55562000D01*
X70262860Y-55562000D01*
X70276295Y-55563323D01*
X70283309Y-55565451D01*
X70297077Y-55572810D01*
X70319716Y-55582187D01*
X70343749Y-55586967D01*
X70368253Y-55586967D01*
X70392286Y-55582186D01*
X70414923Y-55572810D01*
X70428691Y-55565451D01*
X70435705Y-55563323D01*
X70449140Y-55562000D01*
X70705001Y-55562000D01*
X70729387Y-55559598D01*
X70752836Y-55552485D01*
X70774447Y-55540934D01*
X70793389Y-55525389D01*
X70808934Y-55506447D01*
X70820485Y-55484836D01*
X70827598Y-55461387D01*
X70830000Y-55437001D01*
X70830000Y-55181140D01*
X70831323Y-55167705D01*
X70833451Y-55160691D01*
X70840810Y-55146923D01*
X70850187Y-55124284D01*
X70854967Y-55100251D01*
X70854967Y-55075747D01*
X70850186Y-55051714D01*
X70840810Y-55029077D01*
X70833451Y-55015309D01*
X70831323Y-55008295D01*
X70830000Y-54994860D01*
X70830000Y-54681140D01*
X70831323Y-54667705D01*
X70833451Y-54660691D01*
X70840810Y-54646923D01*
X70850187Y-54624284D01*
X70854967Y-54600251D01*
X70854967Y-54575747D01*
X70850186Y-54551714D01*
X70840810Y-54529077D01*
X70833451Y-54515309D01*
X70831323Y-54508295D01*
X70830000Y-54494860D01*
X70830000Y-54181140D01*
X70831323Y-54167705D01*
X70833451Y-54160691D01*
X70840810Y-54146923D01*
X70850187Y-54124284D01*
X70854967Y-54100251D01*
X70854967Y-54075747D01*
X70850186Y-54051714D01*
X70840810Y-54029077D01*
X70833451Y-54015309D01*
X70831323Y-54008295D01*
X70830000Y-53994860D01*
X70830000Y-53681140D01*
X70831323Y-53667705D01*
X70833451Y-53660691D01*
X70840810Y-53646923D01*
X70850187Y-53624284D01*
X70854967Y-53600251D01*
X70854967Y-53575747D01*
X70850186Y-53551714D01*
X70840810Y-53529077D01*
X70833451Y-53515309D01*
X70831323Y-53508295D01*
X70830000Y-53494860D01*
X70830000Y-53181140D01*
X70831323Y-53167705D01*
X70833451Y-53160691D01*
X70840810Y-53146923D01*
X70850187Y-53124284D01*
X70854967Y-53100251D01*
X70854967Y-53075747D01*
X70850186Y-53051714D01*
X70840810Y-53029077D01*
X70833451Y-53015309D01*
X70831323Y-53008295D01*
X70830000Y-52994860D01*
X70830000Y-52738999D01*
X70827598Y-52714613D01*
X70820485Y-52691164D01*
X70808934Y-52669553D01*
X70793389Y-52650611D01*
X70774447Y-52635066D01*
X70752836Y-52623515D01*
X70729387Y-52616402D01*
X70705001Y-52614000D01*
X70449140Y-52614000D01*
X70435705Y-52612677D01*
X70428691Y-52610549D01*
X70414923Y-52603190D01*
X70392284Y-52593813D01*
X70368251Y-52589033D01*
X70343747Y-52589033D01*
X70319714Y-52593814D01*
X70297077Y-52603190D01*
X70283309Y-52610549D01*
X70276295Y-52612677D01*
X70262860Y-52614000D01*
X69949140Y-52614000D01*
X69935705Y-52612677D01*
X69928691Y-52610549D01*
X69914923Y-52603190D01*
X69892284Y-52593813D01*
X69868251Y-52589033D01*
X69843747Y-52589033D01*
X69819714Y-52593814D01*
X69797077Y-52603190D01*
X69783309Y-52610549D01*
X69776295Y-52612677D01*
X69762860Y-52614000D01*
X69449140Y-52614000D01*
X69435705Y-52612677D01*
X69428691Y-52610549D01*
X69414923Y-52603190D01*
X69392284Y-52593813D01*
X69368251Y-52589033D01*
X69343747Y-52589033D01*
X69319714Y-52593814D01*
X69297077Y-52603190D01*
X69283309Y-52610549D01*
X69276295Y-52612677D01*
X69262860Y-52614000D01*
X68949140Y-52614000D01*
X68935705Y-52612677D01*
X68928691Y-52610549D01*
X68914923Y-52603190D01*
X68892284Y-52593813D01*
X68868251Y-52589033D01*
X68843747Y-52589033D01*
X68819714Y-52593814D01*
X68797077Y-52603190D01*
X68783309Y-52610549D01*
X68776295Y-52612677D01*
X68762860Y-52614000D01*
X68449140Y-52614000D01*
X68435705Y-52612677D01*
X68428691Y-52610549D01*
X68414923Y-52603190D01*
X68392284Y-52593813D01*
X68368251Y-52589033D01*
X68343747Y-52589033D01*
X68319714Y-52593814D01*
X68297077Y-52603190D01*
X68283309Y-52610549D01*
X68276295Y-52612677D01*
X68262860Y-52614000D01*
X68006999Y-52614000D01*
X67982613Y-52616402D01*
X67959164Y-52623515D01*
X67937553Y-52635066D01*
X67918611Y-52650611D01*
X67903066Y-52669553D01*
X67891515Y-52691164D01*
X67884402Y-52714613D01*
X67882000Y-52738999D01*
X67882000Y-52994860D01*
X67880677Y-53008295D01*
X67878549Y-53015309D01*
X67871190Y-53029077D01*
X67861813Y-53051716D01*
X67857033Y-53075749D01*
X66954967Y-53075749D01*
X66954967Y-53075747D01*
X66950186Y-53051714D01*
X66940810Y-53029077D01*
X66933451Y-53015309D01*
X66931323Y-53008295D01*
X66930000Y-52994860D01*
X66930000Y-52681140D01*
X66931323Y-52667705D01*
X66933451Y-52660690D01*
X66936908Y-52654224D01*
X66941558Y-52648558D01*
X66947224Y-52643908D01*
X66953690Y-52640451D01*
X66960705Y-52638323D01*
X66974140Y-52637000D01*
X67780001Y-52637000D01*
X67804387Y-52634598D01*
X67827836Y-52627485D01*
X67849447Y-52615934D01*
X67868389Y-52600389D01*
X67883934Y-52581447D01*
X67895485Y-52559836D01*
X67902598Y-52536387D01*
X67905000Y-52512001D01*
X67905000Y-51706140D01*
X67906323Y-51692705D01*
X67908451Y-51685690D01*
X67911908Y-51679224D01*
X67916558Y-51673558D01*
X67922224Y-51668908D01*
X67928690Y-51665451D01*
X67935705Y-51663323D01*
X67949140Y-51662000D01*
X68262860Y-51662000D01*
X68276295Y-51663323D01*
G37*
G36*
X65769499Y-53925445D02*
G01*
X65806995Y-53936820D01*
X65841554Y-53955292D01*
X65871847Y-53980153D01*
X65896708Y-54010446D01*
X65915180Y-54045005D01*
X65926555Y-54082501D01*
X65931000Y-54127638D01*
X65931000Y-54866362D01*
X65926555Y-54911499D01*
X65915180Y-54948995D01*
X65896708Y-54983554D01*
X65871847Y-55013847D01*
X65841554Y-55038708D01*
X65806995Y-55057180D01*
X65769499Y-55068555D01*
X65724362Y-55073000D01*
X65085638Y-55073000D01*
X65040501Y-55068555D01*
X65003005Y-55057180D01*
X64968446Y-55038708D01*
X64938153Y-55013847D01*
X64913292Y-54983554D01*
X64894820Y-54948995D01*
X64883445Y-54911499D01*
X64879000Y-54866362D01*
X64879000Y-54127638D01*
X64883445Y-54082501D01*
X64894820Y-54045005D01*
X64913292Y-54010446D01*
X64938153Y-53980153D01*
X64968446Y-53955292D01*
X65003005Y-53936820D01*
X65040501Y-53925445D01*
X65085638Y-53921000D01*
X65724362Y-53921000D01*
X65769499Y-53925445D01*
G37*
G36*
X74088499Y-53072445D02*
G01*
X74125995Y-53083820D01*
X74160554Y-53102292D01*
X74190847Y-53127153D01*
X74215708Y-53157446D01*
X74234180Y-53192005D01*
X74245555Y-53229501D01*
X74250000Y-53274638D01*
X74250000Y-53913362D01*
X74245555Y-53958499D01*
X74234180Y-53995995D01*
X74215708Y-54030554D01*
X74190847Y-54060847D01*
X74160554Y-54085708D01*
X74125995Y-54104180D01*
X74088499Y-54115555D01*
X74043362Y-54120000D01*
X73304638Y-54120000D01*
X73259501Y-54115555D01*
X73222005Y-54104180D01*
X73187446Y-54085708D01*
X73157153Y-54060847D01*
X73132292Y-54030554D01*
X73113820Y-53995995D01*
X73102445Y-53958499D01*
X73098000Y-53913362D01*
X73098000Y-53274638D01*
X73102445Y-53229501D01*
X73113820Y-53192005D01*
X73132292Y-53157446D01*
X73157153Y-53127153D01*
X73187446Y-53102292D01*
X73222005Y-53083820D01*
X73259501Y-53072445D01*
X73304638Y-53068000D01*
X74043362Y-53068000D01*
X74088499Y-53072445D01*
G37*
G36*
X75838499Y-53072445D02*
G01*
X75875995Y-53083820D01*
X75910554Y-53102292D01*
X75940847Y-53127153D01*
X75965708Y-53157446D01*
X75984180Y-53192005D01*
X75995555Y-53229501D01*
X76000000Y-53274638D01*
X76000000Y-53913362D01*
X75995555Y-53958499D01*
X75984180Y-53995995D01*
X75965708Y-54030554D01*
X75940847Y-54060847D01*
X75910554Y-54085708D01*
X75875995Y-54104180D01*
X75838499Y-54115555D01*
X75793362Y-54120000D01*
X75054638Y-54120000D01*
X75009501Y-54115555D01*
X74972005Y-54104180D01*
X74937446Y-54085708D01*
X74907153Y-54060847D01*
X74882292Y-54030554D01*
X74863820Y-53995995D01*
X74852445Y-53958499D01*
X74848000Y-53913362D01*
X74848000Y-53274638D01*
X74852445Y-53229501D01*
X74863820Y-53192005D01*
X74882292Y-53157446D01*
X74907153Y-53127153D01*
X74937446Y-53102292D01*
X74972005Y-53083820D01*
X75009501Y-53072445D01*
X75054638Y-53068000D01*
X75793362Y-53068000D01*
X75838499Y-53072445D01*
G37*
G36*
X80247499Y-51611445D02*
G01*
X80284995Y-51622820D01*
X80319554Y-51641292D01*
X80349847Y-51666153D01*
X80374708Y-51696446D01*
X80393180Y-51731005D01*
X80404555Y-51768501D01*
X80409000Y-51813638D01*
X80409000Y-52552362D01*
X80404555Y-52597499D01*
X80393180Y-52634995D01*
X80374709Y-52669553D01*
X80349847Y-52699847D01*
X80319554Y-52724708D01*
X80284995Y-52743180D01*
X80247499Y-52754555D01*
X80202362Y-52759000D01*
X79563638Y-52759000D01*
X79518501Y-52754555D01*
X79481005Y-52743180D01*
X79446446Y-52724708D01*
X79416153Y-52699847D01*
X79391291Y-52669553D01*
X79372820Y-52634995D01*
X79361445Y-52597499D01*
X79357000Y-52552362D01*
X79357000Y-51813638D01*
X79361445Y-51768501D01*
X79372820Y-51731005D01*
X79391292Y-51696446D01*
X79416153Y-51666153D01*
X79446446Y-51641292D01*
X79481005Y-51622820D01*
X79518501Y-51611445D01*
X79563638Y-51607000D01*
X80202362Y-51607000D01*
X80247499Y-51611445D01*
G37*
G36*
X82051000Y-52709000D02*
G01*
X81049000Y-52709000D01*
X81049000Y-51807000D01*
X82051000Y-51807000D01*
X82051000Y-52709000D01*
G37*
G36*
X75838499Y-51548445D02*
G01*
X75875995Y-51559820D01*
X75910554Y-51578292D01*
X75940847Y-51603153D01*
X75965708Y-51633446D01*
X75984180Y-51668005D01*
X75995555Y-51705501D01*
X76000000Y-51750638D01*
X76000000Y-52389362D01*
X75995555Y-52434499D01*
X75984180Y-52471995D01*
X75965708Y-52506554D01*
X75940847Y-52536847D01*
X75910554Y-52561708D01*
X75875995Y-52580180D01*
X75838499Y-52591555D01*
X75793362Y-52596000D01*
X75054638Y-52596000D01*
X75009501Y-52591555D01*
X74972005Y-52580180D01*
X74937446Y-52561708D01*
X74907153Y-52536847D01*
X74882292Y-52506554D01*
X74863820Y-52471995D01*
X74852445Y-52434499D01*
X74848000Y-52389362D01*
X74848000Y-51750638D01*
X74852445Y-51705501D01*
X74863820Y-51668005D01*
X74882292Y-51633446D01*
X74907153Y-51603153D01*
X74937446Y-51578292D01*
X74972005Y-51559820D01*
X75009501Y-51548445D01*
X75054638Y-51544000D01*
X75793362Y-51544000D01*
X75838499Y-51548445D01*
G37*
G36*
X74088499Y-51548445D02*
G01*
X74125995Y-51559820D01*
X74160554Y-51578292D01*
X74190847Y-51603153D01*
X74215708Y-51633446D01*
X74234180Y-51668005D01*
X74245555Y-51705501D01*
X74250000Y-51750638D01*
X74250000Y-52389362D01*
X74245555Y-52434499D01*
X74234180Y-52471995D01*
X74215708Y-52506554D01*
X74190847Y-52536847D01*
X74160554Y-52561708D01*
X74125995Y-52580180D01*
X74088499Y-52591555D01*
X74043362Y-52596000D01*
X73304638Y-52596000D01*
X73259501Y-52591555D01*
X73222005Y-52580180D01*
X73187446Y-52561708D01*
X73157153Y-52536847D01*
X73132292Y-52506554D01*
X73113820Y-52471995D01*
X73102445Y-52434499D01*
X73098000Y-52389362D01*
X73098000Y-51750638D01*
X73102445Y-51705501D01*
X73113820Y-51668005D01*
X73132292Y-51633446D01*
X73157153Y-51603153D01*
X73187446Y-51578292D01*
X73222005Y-51559820D01*
X73259501Y-51548445D01*
X73304638Y-51544000D01*
X74043362Y-51544000D01*
X74088499Y-51548445D01*
G37*
G36*
X84051000Y-51759000D02*
G01*
X83049000Y-51759000D01*
X83049000Y-50857000D01*
X84051000Y-50857000D01*
X84051000Y-51759000D01*
G37*
G36*
X80247499Y-49861445D02*
G01*
X80284995Y-49872820D01*
X80319554Y-49891292D01*
X80349847Y-49916153D01*
X80374708Y-49946446D01*
X80393180Y-49981005D01*
X80404555Y-50018501D01*
X80409000Y-50063638D01*
X80409000Y-50802362D01*
X80404555Y-50847499D01*
X80393180Y-50884995D01*
X80374708Y-50919554D01*
X80349847Y-50949847D01*
X80319554Y-50974708D01*
X80284995Y-50993180D01*
X80247499Y-51004555D01*
X80202362Y-51009000D01*
X79563638Y-51009000D01*
X79518501Y-51004555D01*
X79481005Y-50993180D01*
X79446446Y-50974708D01*
X79416153Y-50949847D01*
X79391292Y-50919554D01*
X79372820Y-50884995D01*
X79361445Y-50847499D01*
X79357000Y-50802362D01*
X79357000Y-50063638D01*
X79361445Y-50018501D01*
X79372820Y-49981005D01*
X79391292Y-49946446D01*
X79416153Y-49916153D01*
X79446446Y-49891292D01*
X79481005Y-49872820D01*
X79518501Y-49861445D01*
X79563638Y-49857000D01*
X80202362Y-49857000D01*
X80247499Y-49861445D01*
G37*
G36*
X75838499Y-49897445D02*
G01*
X75875995Y-49908820D01*
X75910554Y-49927292D01*
X75940847Y-49952153D01*
X75965708Y-49982446D01*
X75984180Y-50017005D01*
X75995555Y-50054501D01*
X76000000Y-50099638D01*
X76000000Y-50738362D01*
X75995555Y-50783499D01*
X75984180Y-50820995D01*
X75965708Y-50855554D01*
X75940847Y-50885847D01*
X75910554Y-50910708D01*
X75875995Y-50929180D01*
X75838499Y-50940555D01*
X75793362Y-50945000D01*
X75054638Y-50945000D01*
X75009501Y-50940555D01*
X74972005Y-50929180D01*
X74937446Y-50910708D01*
X74907153Y-50885847D01*
X74882292Y-50855554D01*
X74863820Y-50820995D01*
X74852445Y-50783499D01*
X74848000Y-50738362D01*
X74848000Y-50099638D01*
X74852445Y-50054501D01*
X74863820Y-50017005D01*
X74882292Y-49982446D01*
X74907153Y-49952153D01*
X74937446Y-49927292D01*
X74972005Y-49908820D01*
X75009501Y-49897445D01*
X75054638Y-49893000D01*
X75793362Y-49893000D01*
X75838499Y-49897445D01*
G37*
G36*
X74088499Y-49897445D02*
G01*
X74125995Y-49908820D01*
X74160554Y-49927292D01*
X74190847Y-49952153D01*
X74215708Y-49982446D01*
X74234180Y-50017005D01*
X74245555Y-50054501D01*
X74250000Y-50099638D01*
X74250000Y-50738362D01*
X74245555Y-50783499D01*
X74234180Y-50820995D01*
X74215708Y-50855554D01*
X74190847Y-50885847D01*
X74160554Y-50910708D01*
X74125995Y-50929180D01*
X74088499Y-50940555D01*
X74043362Y-50945000D01*
X73304638Y-50945000D01*
X73259501Y-50940555D01*
X73222005Y-50929180D01*
X73187446Y-50910708D01*
X73157153Y-50885847D01*
X73132292Y-50855554D01*
X73113820Y-50820995D01*
X73102445Y-50783499D01*
X73098000Y-50738362D01*
X73098000Y-50099638D01*
X73102445Y-50054501D01*
X73113820Y-50017005D01*
X73132292Y-49982446D01*
X73157153Y-49952153D01*
X73187446Y-49927292D01*
X73222005Y-49908820D01*
X73259501Y-49897445D01*
X73304638Y-49893000D01*
X74043362Y-49893000D01*
X74088499Y-49897445D01*
G37*
G36*
X82051000Y-50809000D02*
G01*
X81049000Y-50809000D01*
X81049000Y-49907000D01*
X82051000Y-49907000D01*
X82051000Y-50809000D01*
G37*
G36*
X58802270Y-49844960D02*
G01*
X57600850Y-49844960D01*
X57600850Y-48742600D01*
X58802270Y-48742600D01*
X58802270Y-49844960D01*
G37*
G36*
X57207150Y-49844960D02*
G01*
X56005730Y-49844960D01*
X56005730Y-48742600D01*
X57207150Y-48742600D01*
X57207150Y-49844960D01*
G37*
G36*
X54073497Y-46298863D02*
G01*
X54173372Y-46318729D01*
X54290279Y-46367154D01*
X54455611Y-46435636D01*
X54709621Y-46605360D01*
X54925640Y-46821379D01*
X55095364Y-47075389D01*
X55212271Y-47357629D01*
X55271870Y-47657251D01*
X55271870Y-47962749D01*
X55212271Y-48262371D01*
X55095364Y-48544611D01*
X54925640Y-48798621D01*
X54709621Y-49014640D01*
X54455611Y-49184364D01*
X54290279Y-49252846D01*
X54173372Y-49301271D01*
X54073497Y-49321137D01*
X53873749Y-49360870D01*
X53568251Y-49360870D01*
X53368503Y-49321137D01*
X53268628Y-49301271D01*
X53151721Y-49252846D01*
X52986389Y-49184364D01*
X52732379Y-49014640D01*
X52516360Y-48798621D01*
X52346636Y-48544611D01*
X52229729Y-48262371D01*
X52170130Y-47962749D01*
X52170130Y-47657251D01*
X52229729Y-47357629D01*
X52346636Y-47075389D01*
X52516360Y-46821379D01*
X52732379Y-46605360D01*
X52986389Y-46435636D01*
X53151721Y-46367154D01*
X53268628Y-46318729D01*
X53368503Y-46298863D01*
X53568251Y-46259130D01*
X53873749Y-46259130D01*
X54073497Y-46298863D01*
G37*
G36*
X83029497Y-45859863D02*
G01*
X83129372Y-45879729D01*
X83246279Y-45928154D01*
X83411611Y-45996636D01*
X83665621Y-46166360D01*
X83881640Y-46382379D01*
X84051364Y-46636389D01*
X84168271Y-46918629D01*
X84227870Y-47218251D01*
X84227870Y-47523749D01*
X84168271Y-47823371D01*
X84051364Y-48105611D01*
X83881640Y-48359621D01*
X83665621Y-48575640D01*
X83411611Y-48745364D01*
X83283034Y-48798622D01*
X83129372Y-48862271D01*
X83029497Y-48882137D01*
X82829749Y-48921870D01*
X82524251Y-48921870D01*
X82324503Y-48882137D01*
X82224628Y-48862271D01*
X82070966Y-48798622D01*
X81942389Y-48745364D01*
X81688379Y-48575640D01*
X81472360Y-48359621D01*
X81302636Y-48105611D01*
X81185729Y-47823371D01*
X81126130Y-47523749D01*
X81126130Y-47218251D01*
X81185729Y-46918629D01*
X81302636Y-46636389D01*
X81472360Y-46382379D01*
X81688379Y-46166360D01*
X81942389Y-45996636D01*
X82107721Y-45928154D01*
X82224628Y-45879729D01*
X82324503Y-45859863D01*
X82524251Y-45820130D01*
X82829749Y-45820130D01*
X83029497Y-45859863D01*
G37*
G36*
X58802270Y-45745400D02*
G01*
X57600850Y-45745400D01*
X57600850Y-44643040D01*
X58802270Y-44643040D01*
X58802270Y-45745400D01*
G37*
G36*
X57207150Y-45745400D02*
G01*
X56005730Y-45745400D01*
X56005730Y-44643040D01*
X57207150Y-44643040D01*
X57207150Y-45745400D01*
G37*
G36*
X55271870Y-45550870D02*
G01*
X52170130Y-45550870D01*
X52170130Y-42449130D01*
X55271870Y-42449130D01*
X55271870Y-45550870D01*
G37*
G36*
X84227870Y-45111870D02*
G01*
X81126130Y-45111870D01*
X81126130Y-42010130D01*
X84227870Y-42010130D01*
X84227870Y-45111870D01*
G37*
G36*
X50760794Y-37909155D02*
G01*
X50867150Y-37930311D01*
X51067520Y-38013307D01*
X51247844Y-38133795D01*
X51401205Y-38287156D01*
X51521693Y-38467480D01*
X51604689Y-38667851D01*
X51647000Y-38880560D01*
X51647000Y-39097440D01*
X51604689Y-39310149D01*
X51521693Y-39510520D01*
X51401205Y-39690844D01*
X51247844Y-39844205D01*
X51067520Y-39964693D01*
X50867150Y-40047689D01*
X50760795Y-40068844D01*
X50654440Y-40090000D01*
X50437560Y-40090000D01*
X50331205Y-40068844D01*
X50224850Y-40047689D01*
X50024480Y-39964693D01*
X49844156Y-39844205D01*
X49690795Y-39690844D01*
X49570307Y-39510520D01*
X49487311Y-39310149D01*
X49445000Y-39097440D01*
X49445000Y-38880560D01*
X49487311Y-38667851D01*
X49570307Y-38467480D01*
X49690795Y-38287156D01*
X49844156Y-38133795D01*
X50024480Y-38013307D01*
X50224850Y-37930311D01*
X50331206Y-37909155D01*
X50437560Y-37888000D01*
X50654440Y-37888000D01*
X50760794Y-37909155D01*
G37*
G36*
X87082794Y-37909155D02*
G01*
X87189150Y-37930311D01*
X87389520Y-38013307D01*
X87569844Y-38133795D01*
X87723205Y-38287156D01*
X87843693Y-38467480D01*
X87926689Y-38667851D01*
X87969000Y-38880560D01*
X87969000Y-39097440D01*
X87926689Y-39310149D01*
X87843693Y-39510520D01*
X87723205Y-39690844D01*
X87569844Y-39844205D01*
X87389520Y-39964693D01*
X87189150Y-40047689D01*
X87082794Y-40068845D01*
X86976440Y-40090000D01*
X86759560Y-40090000D01*
X86653205Y-40068844D01*
X86546850Y-40047689D01*
X86346480Y-39964693D01*
X86166156Y-39844205D01*
X86012795Y-39690844D01*
X85892307Y-39510520D01*
X85809311Y-39310149D01*
X85767000Y-39097440D01*
X85767000Y-38880560D01*
X85809311Y-38667851D01*
X85892307Y-38467480D01*
X86012795Y-38287156D01*
X86166156Y-38133795D01*
X86346480Y-38013307D01*
X86546850Y-37930311D01*
X86653205Y-37909156D01*
X86759560Y-37888000D01*
X86976440Y-37888000D01*
X87082794Y-37909155D01*
G37*
M02*
