G04 #@! TF.GenerationSoftware,KiCad,Pcbnew,(5.1.5)-3*
G04 #@! TF.CreationDate,2020-11-15T11:03:40+01:00*
G04 #@! TF.ProjectId,Battery Charger,42617474-6572-4792-9043-686172676572,rev?*
G04 #@! TF.SameCoordinates,Original*
G04 #@! TF.FileFunction,Soldermask,Bot*
G04 #@! TF.FilePolarity,Negative*
%FSLAX46Y46*%
G04 Gerber Fmt 4.6, Leading zero omitted, Abs format (unit mm)*
G04 Created by KiCad (PCBNEW (5.1.5)-3) date 2020-11-15 11:03:40*
%MOMM*%
%LPD*%
G04 APERTURE LIST*
%ADD10C,0.100000*%
G04 APERTURE END LIST*
D10*
G36*
X78164348Y-81361320D02*
G01*
X78164350Y-81361321D01*
X78164351Y-81361321D01*
X78305574Y-81419817D01*
X78305577Y-81419819D01*
X78432669Y-81504739D01*
X78540761Y-81612831D01*
X78625681Y-81739923D01*
X78625683Y-81739926D01*
X78684179Y-81881149D01*
X78714000Y-82031071D01*
X78714000Y-82183929D01*
X78684179Y-82333851D01*
X78625683Y-82475074D01*
X78625681Y-82475077D01*
X78540761Y-82602169D01*
X78432669Y-82710261D01*
X78305577Y-82795181D01*
X78305574Y-82795183D01*
X78164351Y-82853679D01*
X78164350Y-82853679D01*
X78164348Y-82853680D01*
X78014431Y-82883500D01*
X77861569Y-82883500D01*
X77711652Y-82853680D01*
X77711650Y-82853679D01*
X77711649Y-82853679D01*
X77570426Y-82795183D01*
X77570423Y-82795181D01*
X77443331Y-82710261D01*
X77335239Y-82602169D01*
X77250319Y-82475077D01*
X77250317Y-82475074D01*
X77191821Y-82333851D01*
X77162000Y-82183929D01*
X77162000Y-82031071D01*
X77191821Y-81881149D01*
X77250317Y-81739926D01*
X77250319Y-81739923D01*
X77335239Y-81612831D01*
X77443331Y-81504739D01*
X77570423Y-81419819D01*
X77570426Y-81419817D01*
X77711649Y-81361321D01*
X77711650Y-81361321D01*
X77711652Y-81361320D01*
X77861569Y-81331500D01*
X78014431Y-81331500D01*
X78164348Y-81361320D01*
G37*
G36*
X73164348Y-81361320D02*
G01*
X73164350Y-81361321D01*
X73164351Y-81361321D01*
X73305574Y-81419817D01*
X73305577Y-81419819D01*
X73432669Y-81504739D01*
X73540761Y-81612831D01*
X73625681Y-81739923D01*
X73625683Y-81739926D01*
X73684179Y-81881149D01*
X73714000Y-82031071D01*
X73714000Y-82183929D01*
X73684179Y-82333851D01*
X73625683Y-82475074D01*
X73625681Y-82475077D01*
X73540761Y-82602169D01*
X73432669Y-82710261D01*
X73305577Y-82795181D01*
X73305574Y-82795183D01*
X73164351Y-82853679D01*
X73164350Y-82853679D01*
X73164348Y-82853680D01*
X73014431Y-82883500D01*
X72861569Y-82883500D01*
X72711652Y-82853680D01*
X72711650Y-82853679D01*
X72711649Y-82853679D01*
X72570426Y-82795183D01*
X72570423Y-82795181D01*
X72443331Y-82710261D01*
X72335239Y-82602169D01*
X72250319Y-82475077D01*
X72250317Y-82475074D01*
X72191821Y-82333851D01*
X72162000Y-82183929D01*
X72162000Y-82031071D01*
X72191821Y-81881149D01*
X72250317Y-81739926D01*
X72250319Y-81739923D01*
X72335239Y-81612831D01*
X72443331Y-81504739D01*
X72570423Y-81419819D01*
X72570426Y-81419817D01*
X72711649Y-81361321D01*
X72711650Y-81361321D01*
X72711652Y-81361320D01*
X72861569Y-81331500D01*
X73014431Y-81331500D01*
X73164348Y-81361320D01*
G37*
G36*
X72065618Y-78415920D02*
G01*
X72156404Y-78443460D01*
X72188336Y-78453146D01*
X72301425Y-78513594D01*
X72400554Y-78594946D01*
X72481906Y-78694075D01*
X72542354Y-78807164D01*
X72552040Y-78839096D01*
X72579580Y-78929882D01*
X72589000Y-79025527D01*
X72589000Y-79789473D01*
X72579580Y-79885118D01*
X72552040Y-79975904D01*
X72542354Y-80007836D01*
X72481906Y-80120925D01*
X72400554Y-80220053D01*
X72301424Y-80301406D01*
X72188335Y-80361854D01*
X72156403Y-80371540D01*
X72065617Y-80399080D01*
X71938000Y-80411649D01*
X71810382Y-80399080D01*
X71719596Y-80371540D01*
X71687664Y-80361854D01*
X71574575Y-80301406D01*
X71475447Y-80220054D01*
X71394094Y-80120924D01*
X71333646Y-80007835D01*
X71323960Y-79975903D01*
X71296420Y-79885117D01*
X71287000Y-79789472D01*
X71287000Y-79025527D01*
X71296420Y-78929882D01*
X71333645Y-78807168D01*
X71358608Y-78760466D01*
X71394095Y-78694075D01*
X71475447Y-78594946D01*
X71574576Y-78513594D01*
X71687665Y-78453146D01*
X71719597Y-78443460D01*
X71810383Y-78415920D01*
X71938000Y-78403351D01*
X72065618Y-78415920D01*
G37*
G36*
X79065617Y-78415920D02*
G01*
X79156403Y-78443460D01*
X79188335Y-78453146D01*
X79301424Y-78513594D01*
X79400554Y-78594947D01*
X79481906Y-78694075D01*
X79542354Y-78807164D01*
X79552040Y-78839096D01*
X79579580Y-78929882D01*
X79589000Y-79025527D01*
X79589000Y-79789473D01*
X79579580Y-79885118D01*
X79552040Y-79975904D01*
X79542354Y-80007836D01*
X79481906Y-80120925D01*
X79400554Y-80220054D01*
X79301425Y-80301406D01*
X79188336Y-80361854D01*
X79156404Y-80371540D01*
X79065618Y-80399080D01*
X78938000Y-80411649D01*
X78810383Y-80399080D01*
X78719597Y-80371540D01*
X78687665Y-80361854D01*
X78574576Y-80301406D01*
X78475447Y-80220054D01*
X78394095Y-80120925D01*
X78333648Y-80007837D01*
X78333645Y-80007832D01*
X78296420Y-79885118D01*
X78287000Y-79789473D01*
X78287000Y-79025528D01*
X78296420Y-78929883D01*
X78333645Y-78807169D01*
X78333646Y-78807165D01*
X78394094Y-78694076D01*
X78475447Y-78594946D01*
X78574575Y-78513594D01*
X78687664Y-78453146D01*
X78719596Y-78443460D01*
X78810382Y-78415920D01*
X78938000Y-78403351D01*
X79065617Y-78415920D01*
G37*
M02*
