G04 #@! TF.GenerationSoftware,KiCad,Pcbnew,(5.1.5)-3*
G04 #@! TF.CreationDate,2020-10-18T16:52:25+02:00*
G04 #@! TF.ProjectId,Battery Charger,42617474-6572-4792-9043-686172676572,rev?*
G04 #@! TF.SameCoordinates,Original*
G04 #@! TF.FileFunction,Legend,Top*
G04 #@! TF.FilePolarity,Positive*
%FSLAX46Y46*%
G04 Gerber Fmt 4.6, Leading zero omitted, Abs format (unit mm)*
G04 Created by KiCad (PCBNEW (5.1.5)-3) date 2020-10-18 16:52:25*
%MOMM*%
%LPD*%
G04 APERTURE LIST*
%ADD10C,0.150000*%
%ADD11C,0.120000*%
G04 APERTURE END LIST*
D10*
X67064380Y-92153761D02*
X67064380Y-92629952D01*
X66064380Y-92629952D01*
X67064380Y-91820428D02*
X66397714Y-91820428D01*
X66064380Y-91820428D02*
X66112000Y-91868047D01*
X66159619Y-91820428D01*
X66112000Y-91772809D01*
X66064380Y-91820428D01*
X66159619Y-91820428D01*
X66683428Y-91344238D02*
X66683428Y-90582333D01*
X67064380Y-90106142D02*
X66064380Y-90106142D01*
X66064380Y-89725190D01*
X66112000Y-89629952D01*
X66159619Y-89582333D01*
X66254857Y-89534714D01*
X66397714Y-89534714D01*
X66492952Y-89582333D01*
X66540571Y-89629952D01*
X66588190Y-89725190D01*
X66588190Y-90106142D01*
X67064380Y-88963285D02*
X67016761Y-89058523D01*
X66969142Y-89106142D01*
X66873904Y-89153761D01*
X66588190Y-89153761D01*
X66492952Y-89106142D01*
X66445333Y-89058523D01*
X66397714Y-88963285D01*
X66397714Y-88820428D01*
X66445333Y-88725190D01*
X66492952Y-88677571D01*
X66588190Y-88629952D01*
X66873904Y-88629952D01*
X66969142Y-88677571D01*
X67016761Y-88725190D01*
X67064380Y-88820428D01*
X67064380Y-88963285D01*
X66540571Y-87106142D02*
X66588190Y-86963285D01*
X66635809Y-86915666D01*
X66731047Y-86868047D01*
X66873904Y-86868047D01*
X66969142Y-86915666D01*
X67016761Y-86963285D01*
X67064380Y-87058523D01*
X67064380Y-87439476D01*
X66064380Y-87439476D01*
X66064380Y-87106142D01*
X66112000Y-87010904D01*
X66159619Y-86963285D01*
X66254857Y-86915666D01*
X66350095Y-86915666D01*
X66445333Y-86963285D01*
X66492952Y-87010904D01*
X66540571Y-87106142D01*
X66540571Y-87439476D01*
X67064380Y-86010904D02*
X66540571Y-86010904D01*
X66445333Y-86058523D01*
X66397714Y-86153761D01*
X66397714Y-86344238D01*
X66445333Y-86439476D01*
X67016761Y-86010904D02*
X67064380Y-86106142D01*
X67064380Y-86344238D01*
X67016761Y-86439476D01*
X66921523Y-86487095D01*
X66826285Y-86487095D01*
X66731047Y-86439476D01*
X66683428Y-86344238D01*
X66683428Y-86106142D01*
X66635809Y-86010904D01*
X66397714Y-85677571D02*
X66397714Y-85296619D01*
X66064380Y-85534714D02*
X66921523Y-85534714D01*
X67016761Y-85487095D01*
X67064380Y-85391857D01*
X67064380Y-85296619D01*
X66397714Y-85106142D02*
X66397714Y-84725190D01*
X66064380Y-84963285D02*
X66921523Y-84963285D01*
X67016761Y-84915666D01*
X67064380Y-84820428D01*
X67064380Y-84725190D01*
X67016761Y-84010904D02*
X67064380Y-84106142D01*
X67064380Y-84296619D01*
X67016761Y-84391857D01*
X66921523Y-84439476D01*
X66540571Y-84439476D01*
X66445333Y-84391857D01*
X66397714Y-84296619D01*
X66397714Y-84106142D01*
X66445333Y-84010904D01*
X66540571Y-83963285D01*
X66635809Y-83963285D01*
X66731047Y-84439476D01*
X67064380Y-83534714D02*
X66397714Y-83534714D01*
X66588190Y-83534714D02*
X66492952Y-83487095D01*
X66445333Y-83439476D01*
X66397714Y-83344238D01*
X66397714Y-83249000D01*
X66397714Y-83010904D02*
X67064380Y-82772809D01*
X66397714Y-82534714D02*
X67064380Y-82772809D01*
X67302476Y-82868047D01*
X67350095Y-82915666D01*
X67397714Y-83010904D01*
X68619142Y-92582333D02*
X68666761Y-92629952D01*
X68714380Y-92772809D01*
X68714380Y-92868047D01*
X68666761Y-93010904D01*
X68571523Y-93106142D01*
X68476285Y-93153761D01*
X68285809Y-93201380D01*
X68142952Y-93201380D01*
X67952476Y-93153761D01*
X67857238Y-93106142D01*
X67762000Y-93010904D01*
X67714380Y-92868047D01*
X67714380Y-92772809D01*
X67762000Y-92629952D01*
X67809619Y-92582333D01*
X68714380Y-92153761D02*
X67714380Y-92153761D01*
X68714380Y-91725190D02*
X68190571Y-91725190D01*
X68095333Y-91772809D01*
X68047714Y-91868047D01*
X68047714Y-92010904D01*
X68095333Y-92106142D01*
X68142952Y-92153761D01*
X68714380Y-90820428D02*
X68190571Y-90820428D01*
X68095333Y-90868047D01*
X68047714Y-90963285D01*
X68047714Y-91153761D01*
X68095333Y-91249000D01*
X68666761Y-90820428D02*
X68714380Y-90915666D01*
X68714380Y-91153761D01*
X68666761Y-91249000D01*
X68571523Y-91296619D01*
X68476285Y-91296619D01*
X68381047Y-91249000D01*
X68333428Y-91153761D01*
X68333428Y-90915666D01*
X68285809Y-90820428D01*
X68714380Y-90344238D02*
X68047714Y-90344238D01*
X68238190Y-90344238D02*
X68142952Y-90296619D01*
X68095333Y-90249000D01*
X68047714Y-90153761D01*
X68047714Y-90058523D01*
X68047714Y-89296619D02*
X68857238Y-89296619D01*
X68952476Y-89344238D01*
X69000095Y-89391857D01*
X69047714Y-89487095D01*
X69047714Y-89629952D01*
X69000095Y-89725190D01*
X68666761Y-89296619D02*
X68714380Y-89391857D01*
X68714380Y-89582333D01*
X68666761Y-89677571D01*
X68619142Y-89725190D01*
X68523904Y-89772809D01*
X68238190Y-89772809D01*
X68142952Y-89725190D01*
X68095333Y-89677571D01*
X68047714Y-89582333D01*
X68047714Y-89391857D01*
X68095333Y-89296619D01*
X68714380Y-88820428D02*
X68047714Y-88820428D01*
X67714380Y-88820428D02*
X67762000Y-88868047D01*
X67809619Y-88820428D01*
X67762000Y-88772809D01*
X67714380Y-88820428D01*
X67809619Y-88820428D01*
X68047714Y-88344238D02*
X68714380Y-88344238D01*
X68142952Y-88344238D02*
X68095333Y-88296619D01*
X68047714Y-88201380D01*
X68047714Y-88058523D01*
X68095333Y-87963285D01*
X68190571Y-87915666D01*
X68714380Y-87915666D01*
X68047714Y-87010904D02*
X68857238Y-87010904D01*
X68952476Y-87058523D01*
X69000095Y-87106142D01*
X69047714Y-87201380D01*
X69047714Y-87344238D01*
X69000095Y-87439476D01*
X68666761Y-87010904D02*
X68714380Y-87106142D01*
X68714380Y-87296619D01*
X68666761Y-87391857D01*
X68619142Y-87439476D01*
X68523904Y-87487095D01*
X68238190Y-87487095D01*
X68142952Y-87439476D01*
X68095333Y-87391857D01*
X68047714Y-87296619D01*
X68047714Y-87106142D01*
X68095333Y-87010904D01*
X68619142Y-85201380D02*
X68666761Y-85249000D01*
X68714380Y-85391857D01*
X68714380Y-85487095D01*
X68666761Y-85629952D01*
X68571523Y-85725190D01*
X68476285Y-85772809D01*
X68285809Y-85820428D01*
X68142952Y-85820428D01*
X67952476Y-85772809D01*
X67857238Y-85725190D01*
X67762000Y-85629952D01*
X67714380Y-85487095D01*
X67714380Y-85391857D01*
X67762000Y-85249000D01*
X67809619Y-85201380D01*
X68714380Y-84772809D02*
X68047714Y-84772809D01*
X67714380Y-84772809D02*
X67762000Y-84820428D01*
X67809619Y-84772809D01*
X67762000Y-84725190D01*
X67714380Y-84772809D01*
X67809619Y-84772809D01*
X68714380Y-84296619D02*
X68047714Y-84296619D01*
X68238190Y-84296619D02*
X68142952Y-84249000D01*
X68095333Y-84201380D01*
X68047714Y-84106142D01*
X68047714Y-84010904D01*
X68666761Y-83249000D02*
X68714380Y-83344238D01*
X68714380Y-83534714D01*
X68666761Y-83629952D01*
X68619142Y-83677571D01*
X68523904Y-83725190D01*
X68238190Y-83725190D01*
X68142952Y-83677571D01*
X68095333Y-83629952D01*
X68047714Y-83534714D01*
X68047714Y-83344238D01*
X68095333Y-83249000D01*
X68047714Y-82391857D02*
X68714380Y-82391857D01*
X68047714Y-82820428D02*
X68571523Y-82820428D01*
X68666761Y-82772809D01*
X68714380Y-82677571D01*
X68714380Y-82534714D01*
X68666761Y-82439476D01*
X68619142Y-82391857D01*
X68714380Y-81915666D02*
X68047714Y-81915666D01*
X67714380Y-81915666D02*
X67762000Y-81963285D01*
X67809619Y-81915666D01*
X67762000Y-81868047D01*
X67714380Y-81915666D01*
X67809619Y-81915666D01*
X68047714Y-81582333D02*
X68047714Y-81201380D01*
X67714380Y-81439476D02*
X68571523Y-81439476D01*
X68666761Y-81391857D01*
X68714380Y-81296619D01*
X68714380Y-81201380D01*
X80530142Y-78553571D02*
X80530142Y-79767857D01*
X80601571Y-79910714D01*
X80673000Y-79982142D01*
X80815857Y-80053571D01*
X81101571Y-80053571D01*
X81244428Y-79982142D01*
X81315857Y-79910714D01*
X81387285Y-79767857D01*
X81387285Y-78553571D01*
X82030142Y-79982142D02*
X82244428Y-80053571D01*
X82601571Y-80053571D01*
X82744428Y-79982142D01*
X82815857Y-79910714D01*
X82887285Y-79767857D01*
X82887285Y-79625000D01*
X82815857Y-79482142D01*
X82744428Y-79410714D01*
X82601571Y-79339285D01*
X82315857Y-79267857D01*
X82173000Y-79196428D01*
X82101571Y-79125000D01*
X82030142Y-78982142D01*
X82030142Y-78839285D01*
X82101571Y-78696428D01*
X82173000Y-78625000D01*
X82315857Y-78553571D01*
X82673000Y-78553571D01*
X82887285Y-78625000D01*
X84030142Y-79267857D02*
X84244428Y-79339285D01*
X84315857Y-79410714D01*
X84387285Y-79553571D01*
X84387285Y-79767857D01*
X84315857Y-79910714D01*
X84244428Y-79982142D01*
X84101571Y-80053571D01*
X83530142Y-80053571D01*
X83530142Y-78553571D01*
X84030142Y-78553571D01*
X84173000Y-78625000D01*
X84244428Y-78696428D01*
X84315857Y-78839285D01*
X84315857Y-78982142D01*
X84244428Y-79125000D01*
X84173000Y-79196428D01*
X84030142Y-79267857D01*
X83530142Y-79267857D01*
X79930809Y-95488142D02*
X80216523Y-95583380D01*
X80311761Y-95678619D01*
X80407000Y-95869095D01*
X80407000Y-96154809D01*
X80311761Y-96345285D01*
X80216523Y-96440523D01*
X80026047Y-96535761D01*
X79264142Y-96535761D01*
X79264142Y-94535761D01*
X79930809Y-94535761D01*
X80121285Y-94631000D01*
X80216523Y-94726238D01*
X80311761Y-94916714D01*
X80311761Y-95107190D01*
X80216523Y-95297666D01*
X80121285Y-95392904D01*
X79930809Y-95488142D01*
X79264142Y-95488142D01*
X81168904Y-95964333D02*
X82121285Y-95964333D01*
X80978428Y-96535761D02*
X81645095Y-94535761D01*
X82311761Y-96535761D01*
X82692714Y-94535761D02*
X83835571Y-94535761D01*
X83264142Y-96535761D02*
X83264142Y-94535761D01*
D11*
X77138000Y-82957500D02*
X77138000Y-82507500D01*
X77138000Y-82957500D02*
X76688000Y-82957500D01*
X71538000Y-82407500D02*
X71988000Y-82407500D01*
X71538000Y-80557500D02*
X71538000Y-82407500D01*
X79338000Y-78007500D02*
X79338000Y-78257500D01*
X71538000Y-78007500D02*
X71538000Y-78257500D01*
X79338000Y-80557500D02*
X79338000Y-82407500D01*
X79338000Y-82407500D02*
X78888000Y-82407500D01*
X76211000Y-85131000D02*
X73761000Y-85131000D01*
X74411000Y-88351000D02*
X76211000Y-88351000D01*
X71099000Y-85757936D02*
X71099000Y-86962064D01*
X72919000Y-85757936D02*
X72919000Y-86962064D01*
X82698000Y-85057064D02*
X82698000Y-83852936D01*
X80878000Y-85057064D02*
X80878000Y-83852936D01*
X73596000Y-97429000D02*
X77026000Y-97429000D01*
X78296000Y-93159000D02*
X76496000Y-93159000D01*
X78296000Y-94609000D02*
X78296000Y-93159000D01*
X74126000Y-93159000D02*
X74126000Y-92169000D01*
X72326000Y-93159000D02*
X74126000Y-93159000D01*
X72326000Y-94609000D02*
X72326000Y-93159000D01*
X80653000Y-87075000D02*
X80653000Y-91135000D01*
X82923000Y-87075000D02*
X80653000Y-87075000D01*
X82923000Y-91135000D02*
X82923000Y-87075000D01*
X74835936Y-91080000D02*
X76040064Y-91080000D01*
X74835936Y-89260000D02*
X76040064Y-89260000D01*
X79523000Y-86835064D02*
X79523000Y-85630936D01*
X77703000Y-86835064D02*
X77703000Y-85630936D01*
D10*
X67048166Y-94131071D02*
X66714833Y-94131071D01*
X66714833Y-94654880D02*
X66714833Y-93654880D01*
X67191023Y-93654880D01*
X67571976Y-94654880D02*
X67571976Y-93654880D01*
X67810071Y-93654880D01*
X67952928Y-93702500D01*
X68048166Y-93797738D01*
X68095785Y-93892976D01*
X68143404Y-94083452D01*
X68143404Y-94226309D01*
X68095785Y-94416785D01*
X68048166Y-94512023D01*
X67952928Y-94607261D01*
X67810071Y-94654880D01*
X67571976Y-94654880D01*
X69095785Y-94654880D02*
X68524357Y-94654880D01*
X68810071Y-94654880D02*
X68810071Y-93654880D01*
X68714833Y-93797738D01*
X68619595Y-93892976D01*
X68524357Y-93940595D01*
X81907166Y-77367071D02*
X81573833Y-77367071D01*
X81573833Y-77890880D02*
X81573833Y-76890880D01*
X82050023Y-76890880D01*
X82430976Y-77890880D02*
X82430976Y-76890880D01*
X82669071Y-76890880D01*
X82811928Y-76938500D01*
X82907166Y-77033738D01*
X82954785Y-77128976D01*
X83002404Y-77319452D01*
X83002404Y-77462309D01*
X82954785Y-77652785D01*
X82907166Y-77748023D01*
X82811928Y-77843261D01*
X82669071Y-77890880D01*
X82430976Y-77890880D01*
X83383357Y-76986119D02*
X83430976Y-76938500D01*
X83526214Y-76890880D01*
X83764309Y-76890880D01*
X83859547Y-76938500D01*
X83907166Y-76986119D01*
X83954785Y-77081357D01*
X83954785Y-77176595D01*
X83907166Y-77319452D01*
X83335738Y-77890880D01*
X83954785Y-77890880D01*
X69937380Y-82629333D02*
X70651666Y-82629333D01*
X70794523Y-82676952D01*
X70889761Y-82772190D01*
X70937380Y-82915047D01*
X70937380Y-83010285D01*
X70937380Y-81629333D02*
X70937380Y-82200761D01*
X70937380Y-81915047D02*
X69937380Y-81915047D01*
X70080238Y-82010285D01*
X70175476Y-82105523D01*
X70223095Y-82200761D01*
X73279095Y-83780380D02*
X73279095Y-84589904D01*
X73326714Y-84685142D01*
X73374333Y-84732761D01*
X73469571Y-84780380D01*
X73660047Y-84780380D01*
X73755285Y-84732761D01*
X73802904Y-84685142D01*
X73850523Y-84589904D01*
X73850523Y-83780380D01*
X74850523Y-84780380D02*
X74279095Y-84780380D01*
X74564809Y-84780380D02*
X74564809Y-83780380D01*
X74469571Y-83923238D01*
X74374333Y-84018476D01*
X74279095Y-84066095D01*
X70810380Y-86526666D02*
X70334190Y-86860000D01*
X70810380Y-87098095D02*
X69810380Y-87098095D01*
X69810380Y-86717142D01*
X69858000Y-86621904D01*
X69905619Y-86574285D01*
X70000857Y-86526666D01*
X70143714Y-86526666D01*
X70238952Y-86574285D01*
X70286571Y-86621904D01*
X70334190Y-86717142D01*
X70334190Y-87098095D01*
X69905619Y-86145714D02*
X69858000Y-86098095D01*
X69810380Y-86002857D01*
X69810380Y-85764761D01*
X69858000Y-85669523D01*
X69905619Y-85621904D01*
X70000857Y-85574285D01*
X70096095Y-85574285D01*
X70238952Y-85621904D01*
X70810380Y-86193333D01*
X70810380Y-85574285D01*
X84272380Y-84621666D02*
X83796190Y-84955000D01*
X84272380Y-85193095D02*
X83272380Y-85193095D01*
X83272380Y-84812142D01*
X83320000Y-84716904D01*
X83367619Y-84669285D01*
X83462857Y-84621666D01*
X83605714Y-84621666D01*
X83700952Y-84669285D01*
X83748571Y-84716904D01*
X83796190Y-84812142D01*
X83796190Y-85193095D01*
X84272380Y-83669285D02*
X84272380Y-84240714D01*
X84272380Y-83955000D02*
X83272380Y-83955000D01*
X83415238Y-84050238D01*
X83510476Y-84145476D01*
X83558095Y-84240714D01*
X70405666Y-91781380D02*
X70405666Y-92495666D01*
X70358047Y-92638523D01*
X70262809Y-92733761D01*
X70119952Y-92781380D01*
X70024714Y-92781380D01*
X70834238Y-91876619D02*
X70881857Y-91829000D01*
X70977095Y-91781380D01*
X71215190Y-91781380D01*
X71310428Y-91829000D01*
X71358047Y-91876619D01*
X71405666Y-91971857D01*
X71405666Y-92067095D01*
X71358047Y-92209952D01*
X70786619Y-92781380D01*
X71405666Y-92781380D01*
X84145380Y-90146095D02*
X83145380Y-90146095D01*
X83145380Y-89908000D01*
X83193000Y-89765142D01*
X83288238Y-89669904D01*
X83383476Y-89622285D01*
X83573952Y-89574666D01*
X83716809Y-89574666D01*
X83907285Y-89622285D01*
X84002523Y-89669904D01*
X84097761Y-89765142D01*
X84145380Y-89908000D01*
X84145380Y-90146095D01*
X84145380Y-88622285D02*
X84145380Y-89193714D01*
X84145380Y-88908000D02*
X83145380Y-88908000D01*
X83288238Y-89003238D01*
X83383476Y-89098476D01*
X83431095Y-89193714D01*
X72620142Y-90336666D02*
X72667761Y-90384285D01*
X72715380Y-90527142D01*
X72715380Y-90622380D01*
X72667761Y-90765238D01*
X72572523Y-90860476D01*
X72477285Y-90908095D01*
X72286809Y-90955714D01*
X72143952Y-90955714D01*
X71953476Y-90908095D01*
X71858238Y-90860476D01*
X71763000Y-90765238D01*
X71715380Y-90622380D01*
X71715380Y-90527142D01*
X71763000Y-90384285D01*
X71810619Y-90336666D01*
X71810619Y-89955714D02*
X71763000Y-89908095D01*
X71715380Y-89812857D01*
X71715380Y-89574761D01*
X71763000Y-89479523D01*
X71810619Y-89431904D01*
X71905857Y-89384285D01*
X72001095Y-89384285D01*
X72143952Y-89431904D01*
X72715380Y-90003333D01*
X72715380Y-89384285D01*
X78827333Y-90273142D02*
X78779714Y-90320761D01*
X78636857Y-90368380D01*
X78541619Y-90368380D01*
X78398761Y-90320761D01*
X78303523Y-90225523D01*
X78255904Y-90130285D01*
X78208285Y-89939809D01*
X78208285Y-89796952D01*
X78255904Y-89606476D01*
X78303523Y-89511238D01*
X78398761Y-89416000D01*
X78541619Y-89368380D01*
X78636857Y-89368380D01*
X78779714Y-89416000D01*
X78827333Y-89463619D01*
X79779714Y-90368380D02*
X79208285Y-90368380D01*
X79494000Y-90368380D02*
X79494000Y-89368380D01*
X79398761Y-89511238D01*
X79303523Y-89606476D01*
X79208285Y-89654095D01*
M02*
