G04 #@! TF.GenerationSoftware,KiCad,Pcbnew,(5.1.5)-3*
G04 #@! TF.CreationDate,2020-10-18T16:52:25+02:00*
G04 #@! TF.ProjectId,Battery Charger,42617474-6572-4792-9043-686172676572,rev?*
G04 #@! TF.SameCoordinates,Original*
G04 #@! TF.FileFunction,Copper,L1,Top*
G04 #@! TF.FilePolarity,Positive*
%FSLAX46Y46*%
G04 Gerber Fmt 4.6, Leading zero omitted, Abs format (unit mm)*
G04 Created by KiCad (PCBNEW (5.1.5)-3) date 2020-10-18 16:52:25*
%MOMM*%
%LPD*%
G04 APERTURE LIST*
%ADD10C,0.750000*%
%ADD11R,1.200000X1.900000*%
%ADD12O,1.200000X1.900000*%
%ADD13R,1.500000X1.900000*%
%ADD14C,1.450000*%
%ADD15R,0.400000X1.350000*%
%ADD16R,1.060000X0.650000*%
%ADD17C,0.100000*%
%ADD18C,0.800000*%
%ADD19C,0.250000*%
%ADD20C,0.254000*%
G04 APERTURE END LIST*
D10*
X67881500Y-96202500D03*
X82740500Y-79438500D03*
D11*
X78338000Y-79407500D03*
X72538000Y-79407500D03*
D12*
X71938000Y-79407500D03*
X78938000Y-79407500D03*
D13*
X76438000Y-79407500D03*
D14*
X72938000Y-82107500D03*
D15*
X75438000Y-82107500D03*
X74788000Y-82107500D03*
X74138000Y-82107500D03*
X76738000Y-82107500D03*
X76088000Y-82107500D03*
D14*
X77938000Y-82107500D03*
D13*
X74438000Y-79407500D03*
D16*
X76411000Y-85791000D03*
X76411000Y-87691000D03*
X74211000Y-87691000D03*
X74211000Y-86741000D03*
X74211000Y-85791000D03*
G04 #@! TA.AperFunction,SMDPad,CuDef*
D17*
G36*
X72658504Y-87136204D02*
G01*
X72682773Y-87139804D01*
X72706571Y-87145765D01*
X72729671Y-87154030D01*
X72751849Y-87164520D01*
X72772893Y-87177133D01*
X72792598Y-87191747D01*
X72810777Y-87208223D01*
X72827253Y-87226402D01*
X72841867Y-87246107D01*
X72854480Y-87267151D01*
X72864970Y-87289329D01*
X72873235Y-87312429D01*
X72879196Y-87336227D01*
X72882796Y-87360496D01*
X72884000Y-87385000D01*
X72884000Y-88310000D01*
X72882796Y-88334504D01*
X72879196Y-88358773D01*
X72873235Y-88382571D01*
X72864970Y-88405671D01*
X72854480Y-88427849D01*
X72841867Y-88448893D01*
X72827253Y-88468598D01*
X72810777Y-88486777D01*
X72792598Y-88503253D01*
X72772893Y-88517867D01*
X72751849Y-88530480D01*
X72729671Y-88540970D01*
X72706571Y-88549235D01*
X72682773Y-88555196D01*
X72658504Y-88558796D01*
X72634000Y-88560000D01*
X71384000Y-88560000D01*
X71359496Y-88558796D01*
X71335227Y-88555196D01*
X71311429Y-88549235D01*
X71288329Y-88540970D01*
X71266151Y-88530480D01*
X71245107Y-88517867D01*
X71225402Y-88503253D01*
X71207223Y-88486777D01*
X71190747Y-88468598D01*
X71176133Y-88448893D01*
X71163520Y-88427849D01*
X71153030Y-88405671D01*
X71144765Y-88382571D01*
X71138804Y-88358773D01*
X71135204Y-88334504D01*
X71134000Y-88310000D01*
X71134000Y-87385000D01*
X71135204Y-87360496D01*
X71138804Y-87336227D01*
X71144765Y-87312429D01*
X71153030Y-87289329D01*
X71163520Y-87267151D01*
X71176133Y-87246107D01*
X71190747Y-87226402D01*
X71207223Y-87208223D01*
X71225402Y-87191747D01*
X71245107Y-87177133D01*
X71266151Y-87164520D01*
X71288329Y-87154030D01*
X71311429Y-87145765D01*
X71335227Y-87139804D01*
X71359496Y-87136204D01*
X71384000Y-87135000D01*
X72634000Y-87135000D01*
X72658504Y-87136204D01*
G37*
G04 #@! TD.AperFunction*
G04 #@! TA.AperFunction,SMDPad,CuDef*
G36*
X72658504Y-84161204D02*
G01*
X72682773Y-84164804D01*
X72706571Y-84170765D01*
X72729671Y-84179030D01*
X72751849Y-84189520D01*
X72772893Y-84202133D01*
X72792598Y-84216747D01*
X72810777Y-84233223D01*
X72827253Y-84251402D01*
X72841867Y-84271107D01*
X72854480Y-84292151D01*
X72864970Y-84314329D01*
X72873235Y-84337429D01*
X72879196Y-84361227D01*
X72882796Y-84385496D01*
X72884000Y-84410000D01*
X72884000Y-85335000D01*
X72882796Y-85359504D01*
X72879196Y-85383773D01*
X72873235Y-85407571D01*
X72864970Y-85430671D01*
X72854480Y-85452849D01*
X72841867Y-85473893D01*
X72827253Y-85493598D01*
X72810777Y-85511777D01*
X72792598Y-85528253D01*
X72772893Y-85542867D01*
X72751849Y-85555480D01*
X72729671Y-85565970D01*
X72706571Y-85574235D01*
X72682773Y-85580196D01*
X72658504Y-85583796D01*
X72634000Y-85585000D01*
X71384000Y-85585000D01*
X71359496Y-85583796D01*
X71335227Y-85580196D01*
X71311429Y-85574235D01*
X71288329Y-85565970D01*
X71266151Y-85555480D01*
X71245107Y-85542867D01*
X71225402Y-85528253D01*
X71207223Y-85511777D01*
X71190747Y-85493598D01*
X71176133Y-85473893D01*
X71163520Y-85452849D01*
X71153030Y-85430671D01*
X71144765Y-85407571D01*
X71138804Y-85383773D01*
X71135204Y-85359504D01*
X71134000Y-85335000D01*
X71134000Y-84410000D01*
X71135204Y-84385496D01*
X71138804Y-84361227D01*
X71144765Y-84337429D01*
X71153030Y-84314329D01*
X71163520Y-84292151D01*
X71176133Y-84271107D01*
X71190747Y-84251402D01*
X71207223Y-84233223D01*
X71225402Y-84216747D01*
X71245107Y-84202133D01*
X71266151Y-84189520D01*
X71288329Y-84179030D01*
X71311429Y-84170765D01*
X71335227Y-84164804D01*
X71359496Y-84161204D01*
X71384000Y-84160000D01*
X72634000Y-84160000D01*
X72658504Y-84161204D01*
G37*
G04 #@! TD.AperFunction*
G04 #@! TA.AperFunction,SMDPad,CuDef*
G36*
X82437504Y-82256204D02*
G01*
X82461773Y-82259804D01*
X82485571Y-82265765D01*
X82508671Y-82274030D01*
X82530849Y-82284520D01*
X82551893Y-82297133D01*
X82571598Y-82311747D01*
X82589777Y-82328223D01*
X82606253Y-82346402D01*
X82620867Y-82366107D01*
X82633480Y-82387151D01*
X82643970Y-82409329D01*
X82652235Y-82432429D01*
X82658196Y-82456227D01*
X82661796Y-82480496D01*
X82663000Y-82505000D01*
X82663000Y-83430000D01*
X82661796Y-83454504D01*
X82658196Y-83478773D01*
X82652235Y-83502571D01*
X82643970Y-83525671D01*
X82633480Y-83547849D01*
X82620867Y-83568893D01*
X82606253Y-83588598D01*
X82589777Y-83606777D01*
X82571598Y-83623253D01*
X82551893Y-83637867D01*
X82530849Y-83650480D01*
X82508671Y-83660970D01*
X82485571Y-83669235D01*
X82461773Y-83675196D01*
X82437504Y-83678796D01*
X82413000Y-83680000D01*
X81163000Y-83680000D01*
X81138496Y-83678796D01*
X81114227Y-83675196D01*
X81090429Y-83669235D01*
X81067329Y-83660970D01*
X81045151Y-83650480D01*
X81024107Y-83637867D01*
X81004402Y-83623253D01*
X80986223Y-83606777D01*
X80969747Y-83588598D01*
X80955133Y-83568893D01*
X80942520Y-83547849D01*
X80932030Y-83525671D01*
X80923765Y-83502571D01*
X80917804Y-83478773D01*
X80914204Y-83454504D01*
X80913000Y-83430000D01*
X80913000Y-82505000D01*
X80914204Y-82480496D01*
X80917804Y-82456227D01*
X80923765Y-82432429D01*
X80932030Y-82409329D01*
X80942520Y-82387151D01*
X80955133Y-82366107D01*
X80969747Y-82346402D01*
X80986223Y-82328223D01*
X81004402Y-82311747D01*
X81024107Y-82297133D01*
X81045151Y-82284520D01*
X81067329Y-82274030D01*
X81090429Y-82265765D01*
X81114227Y-82259804D01*
X81138496Y-82256204D01*
X81163000Y-82255000D01*
X82413000Y-82255000D01*
X82437504Y-82256204D01*
G37*
G04 #@! TD.AperFunction*
G04 #@! TA.AperFunction,SMDPad,CuDef*
G36*
X82437504Y-85231204D02*
G01*
X82461773Y-85234804D01*
X82485571Y-85240765D01*
X82508671Y-85249030D01*
X82530849Y-85259520D01*
X82551893Y-85272133D01*
X82571598Y-85286747D01*
X82589777Y-85303223D01*
X82606253Y-85321402D01*
X82620867Y-85341107D01*
X82633480Y-85362151D01*
X82643970Y-85384329D01*
X82652235Y-85407429D01*
X82658196Y-85431227D01*
X82661796Y-85455496D01*
X82663000Y-85480000D01*
X82663000Y-86405000D01*
X82661796Y-86429504D01*
X82658196Y-86453773D01*
X82652235Y-86477571D01*
X82643970Y-86500671D01*
X82633480Y-86522849D01*
X82620867Y-86543893D01*
X82606253Y-86563598D01*
X82589777Y-86581777D01*
X82571598Y-86598253D01*
X82551893Y-86612867D01*
X82530849Y-86625480D01*
X82508671Y-86635970D01*
X82485571Y-86644235D01*
X82461773Y-86650196D01*
X82437504Y-86653796D01*
X82413000Y-86655000D01*
X81163000Y-86655000D01*
X81138496Y-86653796D01*
X81114227Y-86650196D01*
X81090429Y-86644235D01*
X81067329Y-86635970D01*
X81045151Y-86625480D01*
X81024107Y-86612867D01*
X81004402Y-86598253D01*
X80986223Y-86581777D01*
X80969747Y-86563598D01*
X80955133Y-86543893D01*
X80942520Y-86522849D01*
X80932030Y-86500671D01*
X80923765Y-86477571D01*
X80917804Y-86453773D01*
X80914204Y-86429504D01*
X80913000Y-86405000D01*
X80913000Y-85480000D01*
X80914204Y-85455496D01*
X80917804Y-85431227D01*
X80923765Y-85407429D01*
X80932030Y-85384329D01*
X80942520Y-85362151D01*
X80955133Y-85341107D01*
X80969747Y-85321402D01*
X80986223Y-85303223D01*
X81004402Y-85286747D01*
X81024107Y-85272133D01*
X81045151Y-85259520D01*
X81067329Y-85249030D01*
X81090429Y-85240765D01*
X81114227Y-85234804D01*
X81138496Y-85231204D01*
X81163000Y-85230000D01*
X82413000Y-85230000D01*
X82437504Y-85231204D01*
G37*
G04 #@! TD.AperFunction*
G04 #@! TA.AperFunction,SMDPad,CuDef*
G36*
X78060504Y-94870204D02*
G01*
X78084773Y-94873804D01*
X78108571Y-94879765D01*
X78131671Y-94888030D01*
X78153849Y-94898520D01*
X78174893Y-94911133D01*
X78194598Y-94925747D01*
X78212777Y-94942223D01*
X78229253Y-94960402D01*
X78243867Y-94980107D01*
X78256480Y-95001151D01*
X78266970Y-95023329D01*
X78275235Y-95046429D01*
X78281196Y-95070227D01*
X78284796Y-95094496D01*
X78286000Y-95119000D01*
X78286000Y-97319000D01*
X78284796Y-97343504D01*
X78281196Y-97367773D01*
X78275235Y-97391571D01*
X78266970Y-97414671D01*
X78256480Y-97436849D01*
X78243867Y-97457893D01*
X78229253Y-97477598D01*
X78212777Y-97495777D01*
X78194598Y-97512253D01*
X78174893Y-97526867D01*
X78153849Y-97539480D01*
X78131671Y-97549970D01*
X78108571Y-97558235D01*
X78084773Y-97564196D01*
X78060504Y-97567796D01*
X78036000Y-97569000D01*
X77536000Y-97569000D01*
X77511496Y-97567796D01*
X77487227Y-97564196D01*
X77463429Y-97558235D01*
X77440329Y-97549970D01*
X77418151Y-97539480D01*
X77397107Y-97526867D01*
X77377402Y-97512253D01*
X77359223Y-97495777D01*
X77342747Y-97477598D01*
X77328133Y-97457893D01*
X77315520Y-97436849D01*
X77305030Y-97414671D01*
X77296765Y-97391571D01*
X77290804Y-97367773D01*
X77287204Y-97343504D01*
X77286000Y-97319000D01*
X77286000Y-95119000D01*
X77287204Y-95094496D01*
X77290804Y-95070227D01*
X77296765Y-95046429D01*
X77305030Y-95023329D01*
X77315520Y-95001151D01*
X77328133Y-94980107D01*
X77342747Y-94960402D01*
X77359223Y-94942223D01*
X77377402Y-94925747D01*
X77397107Y-94911133D01*
X77418151Y-94898520D01*
X77440329Y-94888030D01*
X77463429Y-94879765D01*
X77487227Y-94873804D01*
X77511496Y-94870204D01*
X77536000Y-94869000D01*
X78036000Y-94869000D01*
X78060504Y-94870204D01*
G37*
G04 #@! TD.AperFunction*
G04 #@! TA.AperFunction,SMDPad,CuDef*
G36*
X73110504Y-94870204D02*
G01*
X73134773Y-94873804D01*
X73158571Y-94879765D01*
X73181671Y-94888030D01*
X73203849Y-94898520D01*
X73224893Y-94911133D01*
X73244598Y-94925747D01*
X73262777Y-94942223D01*
X73279253Y-94960402D01*
X73293867Y-94980107D01*
X73306480Y-95001151D01*
X73316970Y-95023329D01*
X73325235Y-95046429D01*
X73331196Y-95070227D01*
X73334796Y-95094496D01*
X73336000Y-95119000D01*
X73336000Y-97319000D01*
X73334796Y-97343504D01*
X73331196Y-97367773D01*
X73325235Y-97391571D01*
X73316970Y-97414671D01*
X73306480Y-97436849D01*
X73293867Y-97457893D01*
X73279253Y-97477598D01*
X73262777Y-97495777D01*
X73244598Y-97512253D01*
X73224893Y-97526867D01*
X73203849Y-97539480D01*
X73181671Y-97549970D01*
X73158571Y-97558235D01*
X73134773Y-97564196D01*
X73110504Y-97567796D01*
X73086000Y-97569000D01*
X72586000Y-97569000D01*
X72561496Y-97567796D01*
X72537227Y-97564196D01*
X72513429Y-97558235D01*
X72490329Y-97549970D01*
X72468151Y-97539480D01*
X72447107Y-97526867D01*
X72427402Y-97512253D01*
X72409223Y-97495777D01*
X72392747Y-97477598D01*
X72378133Y-97457893D01*
X72365520Y-97436849D01*
X72355030Y-97414671D01*
X72346765Y-97391571D01*
X72340804Y-97367773D01*
X72337204Y-97343504D01*
X72336000Y-97319000D01*
X72336000Y-95119000D01*
X72337204Y-95094496D01*
X72340804Y-95070227D01*
X72346765Y-95046429D01*
X72355030Y-95023329D01*
X72365520Y-95001151D01*
X72378133Y-94980107D01*
X72392747Y-94960402D01*
X72409223Y-94942223D01*
X72427402Y-94925747D01*
X72447107Y-94911133D01*
X72468151Y-94898520D01*
X72490329Y-94888030D01*
X72513429Y-94879765D01*
X72537227Y-94873804D01*
X72561496Y-94870204D01*
X72586000Y-94869000D01*
X73086000Y-94869000D01*
X73110504Y-94870204D01*
G37*
G04 #@! TD.AperFunction*
G04 #@! TA.AperFunction,SMDPad,CuDef*
G36*
X76100703Y-92169722D02*
G01*
X76115264Y-92171882D01*
X76129543Y-92175459D01*
X76143403Y-92180418D01*
X76156710Y-92186712D01*
X76169336Y-92194280D01*
X76181159Y-92203048D01*
X76192066Y-92212934D01*
X76201952Y-92223841D01*
X76210720Y-92235664D01*
X76218288Y-92248290D01*
X76224582Y-92261597D01*
X76229541Y-92275457D01*
X76233118Y-92289736D01*
X76235278Y-92304297D01*
X76236000Y-92319000D01*
X76236000Y-93719000D01*
X76235278Y-93733703D01*
X76233118Y-93748264D01*
X76229541Y-93762543D01*
X76224582Y-93776403D01*
X76218288Y-93789710D01*
X76210720Y-93802336D01*
X76201952Y-93814159D01*
X76192066Y-93825066D01*
X76181159Y-93834952D01*
X76169336Y-93843720D01*
X76156710Y-93851288D01*
X76143403Y-93857582D01*
X76129543Y-93862541D01*
X76115264Y-93866118D01*
X76100703Y-93868278D01*
X76086000Y-93869000D01*
X75786000Y-93869000D01*
X75771297Y-93868278D01*
X75756736Y-93866118D01*
X75742457Y-93862541D01*
X75728597Y-93857582D01*
X75715290Y-93851288D01*
X75702664Y-93843720D01*
X75690841Y-93834952D01*
X75679934Y-93825066D01*
X75670048Y-93814159D01*
X75661280Y-93802336D01*
X75653712Y-93789710D01*
X75647418Y-93776403D01*
X75642459Y-93762543D01*
X75638882Y-93748264D01*
X75636722Y-93733703D01*
X75636000Y-93719000D01*
X75636000Y-92319000D01*
X75636722Y-92304297D01*
X75638882Y-92289736D01*
X75642459Y-92275457D01*
X75647418Y-92261597D01*
X75653712Y-92248290D01*
X75661280Y-92235664D01*
X75670048Y-92223841D01*
X75679934Y-92212934D01*
X75690841Y-92203048D01*
X75702664Y-92194280D01*
X75715290Y-92186712D01*
X75728597Y-92180418D01*
X75742457Y-92175459D01*
X75756736Y-92171882D01*
X75771297Y-92169722D01*
X75786000Y-92169000D01*
X76086000Y-92169000D01*
X76100703Y-92169722D01*
G37*
G04 #@! TD.AperFunction*
G04 #@! TA.AperFunction,SMDPad,CuDef*
G36*
X74850703Y-92169722D02*
G01*
X74865264Y-92171882D01*
X74879543Y-92175459D01*
X74893403Y-92180418D01*
X74906710Y-92186712D01*
X74919336Y-92194280D01*
X74931159Y-92203048D01*
X74942066Y-92212934D01*
X74951952Y-92223841D01*
X74960720Y-92235664D01*
X74968288Y-92248290D01*
X74974582Y-92261597D01*
X74979541Y-92275457D01*
X74983118Y-92289736D01*
X74985278Y-92304297D01*
X74986000Y-92319000D01*
X74986000Y-93719000D01*
X74985278Y-93733703D01*
X74983118Y-93748264D01*
X74979541Y-93762543D01*
X74974582Y-93776403D01*
X74968288Y-93789710D01*
X74960720Y-93802336D01*
X74951952Y-93814159D01*
X74942066Y-93825066D01*
X74931159Y-93834952D01*
X74919336Y-93843720D01*
X74906710Y-93851288D01*
X74893403Y-93857582D01*
X74879543Y-93862541D01*
X74865264Y-93866118D01*
X74850703Y-93868278D01*
X74836000Y-93869000D01*
X74536000Y-93869000D01*
X74521297Y-93868278D01*
X74506736Y-93866118D01*
X74492457Y-93862541D01*
X74478597Y-93857582D01*
X74465290Y-93851288D01*
X74452664Y-93843720D01*
X74440841Y-93834952D01*
X74429934Y-93825066D01*
X74420048Y-93814159D01*
X74411280Y-93802336D01*
X74403712Y-93789710D01*
X74397418Y-93776403D01*
X74392459Y-93762543D01*
X74388882Y-93748264D01*
X74386722Y-93733703D01*
X74386000Y-93719000D01*
X74386000Y-92319000D01*
X74386722Y-92304297D01*
X74388882Y-92289736D01*
X74392459Y-92275457D01*
X74397418Y-92261597D01*
X74403712Y-92248290D01*
X74411280Y-92235664D01*
X74420048Y-92223841D01*
X74429934Y-92212934D01*
X74440841Y-92203048D01*
X74452664Y-92194280D01*
X74465290Y-92186712D01*
X74478597Y-92180418D01*
X74492457Y-92175459D01*
X74506736Y-92171882D01*
X74521297Y-92169722D01*
X74536000Y-92169000D01*
X74836000Y-92169000D01*
X74850703Y-92169722D01*
G37*
G04 #@! TD.AperFunction*
G04 #@! TA.AperFunction,SMDPad,CuDef*
G36*
X82437504Y-90311204D02*
G01*
X82461773Y-90314804D01*
X82485571Y-90320765D01*
X82508671Y-90329030D01*
X82530849Y-90339520D01*
X82551893Y-90352133D01*
X82571598Y-90366747D01*
X82589777Y-90383223D01*
X82606253Y-90401402D01*
X82620867Y-90421107D01*
X82633480Y-90442151D01*
X82643970Y-90464329D01*
X82652235Y-90487429D01*
X82658196Y-90511227D01*
X82661796Y-90535496D01*
X82663000Y-90560000D01*
X82663000Y-91485000D01*
X82661796Y-91509504D01*
X82658196Y-91533773D01*
X82652235Y-91557571D01*
X82643970Y-91580671D01*
X82633480Y-91602849D01*
X82620867Y-91623893D01*
X82606253Y-91643598D01*
X82589777Y-91661777D01*
X82571598Y-91678253D01*
X82551893Y-91692867D01*
X82530849Y-91705480D01*
X82508671Y-91715970D01*
X82485571Y-91724235D01*
X82461773Y-91730196D01*
X82437504Y-91733796D01*
X82413000Y-91735000D01*
X81163000Y-91735000D01*
X81138496Y-91733796D01*
X81114227Y-91730196D01*
X81090429Y-91724235D01*
X81067329Y-91715970D01*
X81045151Y-91705480D01*
X81024107Y-91692867D01*
X81004402Y-91678253D01*
X80986223Y-91661777D01*
X80969747Y-91643598D01*
X80955133Y-91623893D01*
X80942520Y-91602849D01*
X80932030Y-91580671D01*
X80923765Y-91557571D01*
X80917804Y-91533773D01*
X80914204Y-91509504D01*
X80913000Y-91485000D01*
X80913000Y-90560000D01*
X80914204Y-90535496D01*
X80917804Y-90511227D01*
X80923765Y-90487429D01*
X80932030Y-90464329D01*
X80942520Y-90442151D01*
X80955133Y-90421107D01*
X80969747Y-90401402D01*
X80986223Y-90383223D01*
X81004402Y-90366747D01*
X81024107Y-90352133D01*
X81045151Y-90339520D01*
X81067329Y-90329030D01*
X81090429Y-90320765D01*
X81114227Y-90314804D01*
X81138496Y-90311204D01*
X81163000Y-90310000D01*
X82413000Y-90310000D01*
X82437504Y-90311204D01*
G37*
G04 #@! TD.AperFunction*
G04 #@! TA.AperFunction,SMDPad,CuDef*
G36*
X82437504Y-87336204D02*
G01*
X82461773Y-87339804D01*
X82485571Y-87345765D01*
X82508671Y-87354030D01*
X82530849Y-87364520D01*
X82551893Y-87377133D01*
X82571598Y-87391747D01*
X82589777Y-87408223D01*
X82606253Y-87426402D01*
X82620867Y-87446107D01*
X82633480Y-87467151D01*
X82643970Y-87489329D01*
X82652235Y-87512429D01*
X82658196Y-87536227D01*
X82661796Y-87560496D01*
X82663000Y-87585000D01*
X82663000Y-88510000D01*
X82661796Y-88534504D01*
X82658196Y-88558773D01*
X82652235Y-88582571D01*
X82643970Y-88605671D01*
X82633480Y-88627849D01*
X82620867Y-88648893D01*
X82606253Y-88668598D01*
X82589777Y-88686777D01*
X82571598Y-88703253D01*
X82551893Y-88717867D01*
X82530849Y-88730480D01*
X82508671Y-88740970D01*
X82485571Y-88749235D01*
X82461773Y-88755196D01*
X82437504Y-88758796D01*
X82413000Y-88760000D01*
X81163000Y-88760000D01*
X81138496Y-88758796D01*
X81114227Y-88755196D01*
X81090429Y-88749235D01*
X81067329Y-88740970D01*
X81045151Y-88730480D01*
X81024107Y-88717867D01*
X81004402Y-88703253D01*
X80986223Y-88686777D01*
X80969747Y-88668598D01*
X80955133Y-88648893D01*
X80942520Y-88627849D01*
X80932030Y-88605671D01*
X80923765Y-88582571D01*
X80917804Y-88558773D01*
X80914204Y-88534504D01*
X80913000Y-88510000D01*
X80913000Y-87585000D01*
X80914204Y-87560496D01*
X80917804Y-87536227D01*
X80923765Y-87512429D01*
X80932030Y-87489329D01*
X80942520Y-87467151D01*
X80955133Y-87446107D01*
X80969747Y-87426402D01*
X80986223Y-87408223D01*
X81004402Y-87391747D01*
X81024107Y-87377133D01*
X81045151Y-87364520D01*
X81067329Y-87354030D01*
X81090429Y-87345765D01*
X81114227Y-87339804D01*
X81138496Y-87336204D01*
X81163000Y-87335000D01*
X82413000Y-87335000D01*
X82437504Y-87336204D01*
G37*
G04 #@! TD.AperFunction*
G04 #@! TA.AperFunction,SMDPad,CuDef*
G36*
X77412504Y-89296204D02*
G01*
X77436773Y-89299804D01*
X77460571Y-89305765D01*
X77483671Y-89314030D01*
X77505849Y-89324520D01*
X77526893Y-89337133D01*
X77546598Y-89351747D01*
X77564777Y-89368223D01*
X77581253Y-89386402D01*
X77595867Y-89406107D01*
X77608480Y-89427151D01*
X77618970Y-89449329D01*
X77627235Y-89472429D01*
X77633196Y-89496227D01*
X77636796Y-89520496D01*
X77638000Y-89545000D01*
X77638000Y-90795000D01*
X77636796Y-90819504D01*
X77633196Y-90843773D01*
X77627235Y-90867571D01*
X77618970Y-90890671D01*
X77608480Y-90912849D01*
X77595867Y-90933893D01*
X77581253Y-90953598D01*
X77564777Y-90971777D01*
X77546598Y-90988253D01*
X77526893Y-91002867D01*
X77505849Y-91015480D01*
X77483671Y-91025970D01*
X77460571Y-91034235D01*
X77436773Y-91040196D01*
X77412504Y-91043796D01*
X77388000Y-91045000D01*
X76463000Y-91045000D01*
X76438496Y-91043796D01*
X76414227Y-91040196D01*
X76390429Y-91034235D01*
X76367329Y-91025970D01*
X76345151Y-91015480D01*
X76324107Y-91002867D01*
X76304402Y-90988253D01*
X76286223Y-90971777D01*
X76269747Y-90953598D01*
X76255133Y-90933893D01*
X76242520Y-90912849D01*
X76232030Y-90890671D01*
X76223765Y-90867571D01*
X76217804Y-90843773D01*
X76214204Y-90819504D01*
X76213000Y-90795000D01*
X76213000Y-89545000D01*
X76214204Y-89520496D01*
X76217804Y-89496227D01*
X76223765Y-89472429D01*
X76232030Y-89449329D01*
X76242520Y-89427151D01*
X76255133Y-89406107D01*
X76269747Y-89386402D01*
X76286223Y-89368223D01*
X76304402Y-89351747D01*
X76324107Y-89337133D01*
X76345151Y-89324520D01*
X76367329Y-89314030D01*
X76390429Y-89305765D01*
X76414227Y-89299804D01*
X76438496Y-89296204D01*
X76463000Y-89295000D01*
X77388000Y-89295000D01*
X77412504Y-89296204D01*
G37*
G04 #@! TD.AperFunction*
G04 #@! TA.AperFunction,SMDPad,CuDef*
G36*
X74437504Y-89296204D02*
G01*
X74461773Y-89299804D01*
X74485571Y-89305765D01*
X74508671Y-89314030D01*
X74530849Y-89324520D01*
X74551893Y-89337133D01*
X74571598Y-89351747D01*
X74589777Y-89368223D01*
X74606253Y-89386402D01*
X74620867Y-89406107D01*
X74633480Y-89427151D01*
X74643970Y-89449329D01*
X74652235Y-89472429D01*
X74658196Y-89496227D01*
X74661796Y-89520496D01*
X74663000Y-89545000D01*
X74663000Y-90795000D01*
X74661796Y-90819504D01*
X74658196Y-90843773D01*
X74652235Y-90867571D01*
X74643970Y-90890671D01*
X74633480Y-90912849D01*
X74620867Y-90933893D01*
X74606253Y-90953598D01*
X74589777Y-90971777D01*
X74571598Y-90988253D01*
X74551893Y-91002867D01*
X74530849Y-91015480D01*
X74508671Y-91025970D01*
X74485571Y-91034235D01*
X74461773Y-91040196D01*
X74437504Y-91043796D01*
X74413000Y-91045000D01*
X73488000Y-91045000D01*
X73463496Y-91043796D01*
X73439227Y-91040196D01*
X73415429Y-91034235D01*
X73392329Y-91025970D01*
X73370151Y-91015480D01*
X73349107Y-91002867D01*
X73329402Y-90988253D01*
X73311223Y-90971777D01*
X73294747Y-90953598D01*
X73280133Y-90933893D01*
X73267520Y-90912849D01*
X73257030Y-90890671D01*
X73248765Y-90867571D01*
X73242804Y-90843773D01*
X73239204Y-90819504D01*
X73238000Y-90795000D01*
X73238000Y-89545000D01*
X73239204Y-89520496D01*
X73242804Y-89496227D01*
X73248765Y-89472429D01*
X73257030Y-89449329D01*
X73267520Y-89427151D01*
X73280133Y-89406107D01*
X73294747Y-89386402D01*
X73311223Y-89368223D01*
X73329402Y-89351747D01*
X73349107Y-89337133D01*
X73370151Y-89324520D01*
X73392329Y-89314030D01*
X73415429Y-89305765D01*
X73439227Y-89299804D01*
X73463496Y-89296204D01*
X73488000Y-89295000D01*
X74413000Y-89295000D01*
X74437504Y-89296204D01*
G37*
G04 #@! TD.AperFunction*
G04 #@! TA.AperFunction,SMDPad,CuDef*
G36*
X79262504Y-84034204D02*
G01*
X79286773Y-84037804D01*
X79310571Y-84043765D01*
X79333671Y-84052030D01*
X79355849Y-84062520D01*
X79376893Y-84075133D01*
X79396598Y-84089747D01*
X79414777Y-84106223D01*
X79431253Y-84124402D01*
X79445867Y-84144107D01*
X79458480Y-84165151D01*
X79468970Y-84187329D01*
X79477235Y-84210429D01*
X79483196Y-84234227D01*
X79486796Y-84258496D01*
X79488000Y-84283000D01*
X79488000Y-85208000D01*
X79486796Y-85232504D01*
X79483196Y-85256773D01*
X79477235Y-85280571D01*
X79468970Y-85303671D01*
X79458480Y-85325849D01*
X79445867Y-85346893D01*
X79431253Y-85366598D01*
X79414777Y-85384777D01*
X79396598Y-85401253D01*
X79376893Y-85415867D01*
X79355849Y-85428480D01*
X79333671Y-85438970D01*
X79310571Y-85447235D01*
X79286773Y-85453196D01*
X79262504Y-85456796D01*
X79238000Y-85458000D01*
X77988000Y-85458000D01*
X77963496Y-85456796D01*
X77939227Y-85453196D01*
X77915429Y-85447235D01*
X77892329Y-85438970D01*
X77870151Y-85428480D01*
X77849107Y-85415867D01*
X77829402Y-85401253D01*
X77811223Y-85384777D01*
X77794747Y-85366598D01*
X77780133Y-85346893D01*
X77767520Y-85325849D01*
X77757030Y-85303671D01*
X77748765Y-85280571D01*
X77742804Y-85256773D01*
X77739204Y-85232504D01*
X77738000Y-85208000D01*
X77738000Y-84283000D01*
X77739204Y-84258496D01*
X77742804Y-84234227D01*
X77748765Y-84210429D01*
X77757030Y-84187329D01*
X77767520Y-84165151D01*
X77780133Y-84144107D01*
X77794747Y-84124402D01*
X77811223Y-84106223D01*
X77829402Y-84089747D01*
X77849107Y-84075133D01*
X77870151Y-84062520D01*
X77892329Y-84052030D01*
X77915429Y-84043765D01*
X77939227Y-84037804D01*
X77963496Y-84034204D01*
X77988000Y-84033000D01*
X79238000Y-84033000D01*
X79262504Y-84034204D01*
G37*
G04 #@! TD.AperFunction*
G04 #@! TA.AperFunction,SMDPad,CuDef*
G36*
X79262504Y-87009204D02*
G01*
X79286773Y-87012804D01*
X79310571Y-87018765D01*
X79333671Y-87027030D01*
X79355849Y-87037520D01*
X79376893Y-87050133D01*
X79396598Y-87064747D01*
X79414777Y-87081223D01*
X79431253Y-87099402D01*
X79445867Y-87119107D01*
X79458480Y-87140151D01*
X79468970Y-87162329D01*
X79477235Y-87185429D01*
X79483196Y-87209227D01*
X79486796Y-87233496D01*
X79488000Y-87258000D01*
X79488000Y-88183000D01*
X79486796Y-88207504D01*
X79483196Y-88231773D01*
X79477235Y-88255571D01*
X79468970Y-88278671D01*
X79458480Y-88300849D01*
X79445867Y-88321893D01*
X79431253Y-88341598D01*
X79414777Y-88359777D01*
X79396598Y-88376253D01*
X79376893Y-88390867D01*
X79355849Y-88403480D01*
X79333671Y-88413970D01*
X79310571Y-88422235D01*
X79286773Y-88428196D01*
X79262504Y-88431796D01*
X79238000Y-88433000D01*
X77988000Y-88433000D01*
X77963496Y-88431796D01*
X77939227Y-88428196D01*
X77915429Y-88422235D01*
X77892329Y-88413970D01*
X77870151Y-88403480D01*
X77849107Y-88390867D01*
X77829402Y-88376253D01*
X77811223Y-88359777D01*
X77794747Y-88341598D01*
X77780133Y-88321893D01*
X77767520Y-88300849D01*
X77757030Y-88278671D01*
X77748765Y-88255571D01*
X77742804Y-88231773D01*
X77739204Y-88207504D01*
X77738000Y-88183000D01*
X77738000Y-87258000D01*
X77739204Y-87233496D01*
X77742804Y-87209227D01*
X77748765Y-87185429D01*
X77757030Y-87162329D01*
X77767520Y-87140151D01*
X77780133Y-87119107D01*
X77794747Y-87099402D01*
X77811223Y-87081223D01*
X77829402Y-87064747D01*
X77849107Y-87050133D01*
X77870151Y-87037520D01*
X77892329Y-87027030D01*
X77915429Y-87018765D01*
X77939227Y-87012804D01*
X77963496Y-87009204D01*
X77988000Y-87008000D01*
X79238000Y-87008000D01*
X79262504Y-87009204D01*
G37*
G04 #@! TD.AperFunction*
D18*
X76925500Y-92029500D03*
X76045841Y-83974153D03*
D19*
X76925500Y-92029500D02*
X76925500Y-92029500D01*
X76925500Y-92029500D02*
X76925500Y-90170000D01*
X73431000Y-86741000D02*
X74211000Y-86741000D01*
X72136000Y-86741000D02*
X72136000Y-86741000D01*
X71882000Y-87593500D02*
X71882000Y-86995000D01*
X71882000Y-86995000D02*
X72136000Y-86741000D01*
X72136000Y-86741000D02*
X73431000Y-86741000D01*
X72538000Y-79407500D02*
X78938000Y-79407500D01*
X71938000Y-81107500D02*
X71938000Y-79407500D01*
X72938000Y-82107500D02*
X71938000Y-81107500D01*
X69817500Y-79407500D02*
X71938000Y-79407500D01*
X69596000Y-79629000D02*
X69817500Y-79407500D01*
X69596000Y-87630000D02*
X69596000Y-79629000D01*
X72009000Y-87847500D02*
X69813500Y-87847500D01*
X69813500Y-87847500D02*
X69596000Y-87630000D01*
X78938000Y-80701000D02*
X78938000Y-79407500D01*
X77938000Y-82107500D02*
X78938000Y-81107500D01*
X78938000Y-81107500D02*
X78938000Y-80701000D01*
X75480156Y-83974153D02*
X76045841Y-83974153D01*
X75079653Y-83974153D02*
X75480156Y-83974153D01*
X74138000Y-83032500D02*
X75079653Y-83974153D01*
X74138000Y-82107500D02*
X74138000Y-83032500D01*
X76045853Y-83974153D02*
X76045841Y-83974153D01*
X76862153Y-83974153D02*
X76045853Y-83974153D01*
X78613000Y-84745500D02*
X77633500Y-84745500D01*
X77633500Y-84745500D02*
X76862153Y-83974153D01*
X76925500Y-92619500D02*
X76925500Y-92029500D01*
X75936000Y-93019000D02*
X76526000Y-93019000D01*
X76526000Y-93019000D02*
X76925500Y-92619500D01*
X78583500Y-87691000D02*
X78613000Y-87720500D01*
X76411000Y-87691000D02*
X78583500Y-87691000D01*
X78613000Y-90551000D02*
X78613000Y-87720500D01*
X81788000Y-91022500D02*
X79084500Y-91022500D01*
X79084500Y-91022500D02*
X78613000Y-90551000D01*
X83221500Y-91022500D02*
X81788000Y-91022500D01*
X83693000Y-90551000D02*
X83221500Y-91022500D01*
X83693000Y-82423000D02*
X83693000Y-90551000D01*
X76738000Y-83032500D02*
X76890500Y-83185000D01*
X76738000Y-82107500D02*
X76738000Y-83032500D01*
X76890500Y-83185000D02*
X79248000Y-83185000D01*
X79248000Y-83185000D02*
X80899000Y-81534000D01*
X80899000Y-81534000D02*
X82804000Y-81534000D01*
X82804000Y-81534000D02*
X83693000Y-82423000D01*
X74041000Y-90079500D02*
X73950500Y-90170000D01*
X74211000Y-87691000D02*
X74041000Y-87861000D01*
X74041000Y-87861000D02*
X74041000Y-90079500D01*
X73950500Y-92746500D02*
X73950500Y-90170000D01*
X74686000Y-93019000D02*
X74223000Y-93019000D01*
X74223000Y-93019000D02*
X73950500Y-92746500D01*
X81788000Y-85942500D02*
X81788000Y-88047500D01*
X76206000Y-85791000D02*
X75033500Y-84618500D01*
X75033500Y-84618500D02*
X71882000Y-84618500D01*
X76411000Y-85791000D02*
X76206000Y-85791000D01*
X80813000Y-82967500D02*
X81788000Y-82967500D01*
X80214500Y-83566000D02*
X80813000Y-82967500D01*
X74991000Y-85791000D02*
X75311000Y-86111000D01*
X74211000Y-85791000D02*
X74991000Y-85791000D01*
X75311000Y-86111000D02*
X75316000Y-86111000D01*
X75316000Y-86111000D02*
X75946000Y-86741000D01*
X75946000Y-86741000D02*
X77343000Y-86741000D01*
X77343000Y-86741000D02*
X77978000Y-86106000D01*
X77978000Y-86106000D02*
X79883000Y-86106000D01*
X80214500Y-85774500D02*
X80214500Y-83566000D01*
X79883000Y-86106000D02*
X80214500Y-85774500D01*
D20*
G36*
X70791489Y-78582599D02*
G01*
X70771801Y-78647500D01*
X69854822Y-78647500D01*
X69817499Y-78643824D01*
X69780176Y-78647500D01*
X69780167Y-78647500D01*
X69668514Y-78658497D01*
X69525253Y-78701954D01*
X69393224Y-78772526D01*
X69277499Y-78867499D01*
X69253696Y-78896503D01*
X69084998Y-79065201D01*
X69056000Y-79088999D01*
X69032202Y-79117997D01*
X69032201Y-79117998D01*
X68961026Y-79204724D01*
X68890454Y-79336754D01*
X68846998Y-79480015D01*
X68832324Y-79629000D01*
X68836001Y-79666332D01*
X68836000Y-87592678D01*
X68832324Y-87630000D01*
X68836000Y-87667322D01*
X68836000Y-87667332D01*
X68846997Y-87778985D01*
X68890454Y-87922246D01*
X68961026Y-88054276D01*
X68986104Y-88084833D01*
X69055999Y-88170001D01*
X69085002Y-88193803D01*
X69249700Y-88358502D01*
X69273499Y-88387501D01*
X69389224Y-88482474D01*
X69521253Y-88553046D01*
X69664514Y-88596503D01*
X69776167Y-88607500D01*
X69776176Y-88607500D01*
X69813499Y-88611176D01*
X69850822Y-88607500D01*
X70550681Y-88607500D01*
X70563528Y-88649850D01*
X70645595Y-88803386D01*
X70756038Y-88937962D01*
X70890614Y-89048405D01*
X71044150Y-89130472D01*
X71210746Y-89181008D01*
X71384000Y-89198072D01*
X72634000Y-89198072D01*
X72673385Y-89194193D01*
X72667528Y-89205150D01*
X72616992Y-89371746D01*
X72599928Y-89545000D01*
X72599928Y-90795000D01*
X72616992Y-90968254D01*
X72667528Y-91134850D01*
X72749595Y-91288386D01*
X72860038Y-91422962D01*
X72994614Y-91533405D01*
X73148150Y-91615472D01*
X73190500Y-91628319D01*
X73190500Y-92709177D01*
X73186824Y-92746500D01*
X73190500Y-92783822D01*
X73190500Y-92783832D01*
X73201497Y-92895485D01*
X73238964Y-93018999D01*
X73244954Y-93038746D01*
X73315526Y-93170776D01*
X73355371Y-93219326D01*
X73410499Y-93286501D01*
X73439503Y-93310304D01*
X73659196Y-93529997D01*
X73682999Y-93559001D01*
X73747928Y-93612287D01*
X73747928Y-93719000D01*
X73763071Y-93872745D01*
X73807916Y-94020582D01*
X73880742Y-94156829D01*
X73978749Y-94276251D01*
X74098171Y-94374258D01*
X74234418Y-94447084D01*
X74382255Y-94491929D01*
X74536000Y-94507072D01*
X74836000Y-94507072D01*
X74989745Y-94491929D01*
X75137582Y-94447084D01*
X75273829Y-94374258D01*
X75311000Y-94343753D01*
X75348171Y-94374258D01*
X75484418Y-94447084D01*
X75632255Y-94491929D01*
X75786000Y-94507072D01*
X76086000Y-94507072D01*
X76239745Y-94491929D01*
X76387582Y-94447084D01*
X76523829Y-94374258D01*
X76643251Y-94276251D01*
X76741258Y-94156829D01*
X76814084Y-94020582D01*
X76858929Y-93872745D01*
X76874072Y-93719000D01*
X76874072Y-93694706D01*
X76950276Y-93653974D01*
X77066001Y-93559001D01*
X77089804Y-93529997D01*
X77436498Y-93183303D01*
X77465501Y-93159501D01*
X77560474Y-93043776D01*
X77631046Y-92911747D01*
X77674503Y-92768486D01*
X77677155Y-92741556D01*
X77729437Y-92689274D01*
X77842705Y-92519756D01*
X77920726Y-92331398D01*
X77960500Y-92131439D01*
X77960500Y-91927561D01*
X77922198Y-91735000D01*
X80274928Y-91735000D01*
X80287188Y-91859482D01*
X80323498Y-91979180D01*
X80382463Y-92089494D01*
X80461815Y-92186185D01*
X80558506Y-92265537D01*
X80668820Y-92324502D01*
X80788518Y-92360812D01*
X80913000Y-92373072D01*
X81502250Y-92370000D01*
X81661000Y-92211250D01*
X81661000Y-91149500D01*
X81915000Y-91149500D01*
X81915000Y-92211250D01*
X82073750Y-92370000D01*
X82663000Y-92373072D01*
X82787482Y-92360812D01*
X82907180Y-92324502D01*
X83017494Y-92265537D01*
X83114185Y-92186185D01*
X83193537Y-92089494D01*
X83252502Y-91979180D01*
X83288812Y-91859482D01*
X83301072Y-91735000D01*
X83298000Y-91308250D01*
X83139250Y-91149500D01*
X81915000Y-91149500D01*
X81661000Y-91149500D01*
X80436750Y-91149500D01*
X80278000Y-91308250D01*
X80274928Y-91735000D01*
X77922198Y-91735000D01*
X77920726Y-91727602D01*
X77847737Y-91551391D01*
X77881386Y-91533405D01*
X78015962Y-91422962D01*
X78126405Y-91288386D01*
X78208472Y-91134850D01*
X78259008Y-90968254D01*
X78276072Y-90795000D01*
X78276072Y-90310000D01*
X80274928Y-90310000D01*
X80278000Y-90736750D01*
X80436750Y-90895500D01*
X81661000Y-90895500D01*
X81661000Y-89833750D01*
X81915000Y-89833750D01*
X81915000Y-90895500D01*
X83139250Y-90895500D01*
X83298000Y-90736750D01*
X83301072Y-90310000D01*
X83288812Y-90185518D01*
X83252502Y-90065820D01*
X83193537Y-89955506D01*
X83114185Y-89858815D01*
X83017494Y-89779463D01*
X82907180Y-89720498D01*
X82787482Y-89684188D01*
X82663000Y-89671928D01*
X82073750Y-89675000D01*
X81915000Y-89833750D01*
X81661000Y-89833750D01*
X81502250Y-89675000D01*
X80913000Y-89671928D01*
X80788518Y-89684188D01*
X80668820Y-89720498D01*
X80558506Y-89779463D01*
X80461815Y-89858815D01*
X80382463Y-89955506D01*
X80323498Y-90065820D01*
X80287188Y-90185518D01*
X80274928Y-90310000D01*
X78276072Y-90310000D01*
X78276072Y-89545000D01*
X78259008Y-89371746D01*
X78208472Y-89205150D01*
X78135697Y-89068999D01*
X78327250Y-89068000D01*
X78486000Y-88909250D01*
X78486000Y-87847500D01*
X78740000Y-87847500D01*
X78740000Y-88909250D01*
X78898750Y-89068000D01*
X79488000Y-89071072D01*
X79612482Y-89058812D01*
X79732180Y-89022502D01*
X79842494Y-88963537D01*
X79939185Y-88884185D01*
X80018537Y-88787494D01*
X80077502Y-88677180D01*
X80113812Y-88557482D01*
X80126072Y-88433000D01*
X80123000Y-88006250D01*
X79964250Y-87847500D01*
X78740000Y-87847500D01*
X78486000Y-87847500D01*
X77446750Y-87847500D01*
X77417250Y-87818000D01*
X76538000Y-87818000D01*
X76538000Y-88492250D01*
X76696750Y-88651000D01*
X76941000Y-88654072D01*
X77065482Y-88641812D01*
X77131678Y-88621732D01*
X77142355Y-88656928D01*
X76463000Y-88656928D01*
X76289746Y-88673992D01*
X76123150Y-88724528D01*
X75969614Y-88806595D01*
X75835038Y-88917038D01*
X75724595Y-89051614D01*
X75642528Y-89205150D01*
X75591992Y-89371746D01*
X75574928Y-89545000D01*
X75574928Y-90795000D01*
X75591992Y-90968254D01*
X75642528Y-91134850D01*
X75724595Y-91288386D01*
X75835038Y-91422962D01*
X75966596Y-91530928D01*
X75786000Y-91530928D01*
X75632255Y-91546071D01*
X75484418Y-91590916D01*
X75348171Y-91663742D01*
X75311000Y-91694247D01*
X75273829Y-91663742D01*
X75137582Y-91590916D01*
X74989745Y-91546071D01*
X74899347Y-91537167D01*
X74906386Y-91533405D01*
X75040962Y-91422962D01*
X75151405Y-91288386D01*
X75233472Y-91134850D01*
X75284008Y-90968254D01*
X75301072Y-90795000D01*
X75301072Y-89545000D01*
X75284008Y-89371746D01*
X75233472Y-89205150D01*
X75151405Y-89051614D01*
X75040962Y-88917038D01*
X74906386Y-88806595D01*
X74801000Y-88750265D01*
X74801000Y-88648163D01*
X74865482Y-88641812D01*
X74985180Y-88605502D01*
X75095494Y-88546537D01*
X75192185Y-88467185D01*
X75271537Y-88370494D01*
X75311000Y-88296665D01*
X75350463Y-88370494D01*
X75429815Y-88467185D01*
X75526506Y-88546537D01*
X75636820Y-88605502D01*
X75756518Y-88641812D01*
X75881000Y-88654072D01*
X76125250Y-88651000D01*
X76284000Y-88492250D01*
X76284000Y-87818000D01*
X76264000Y-87818000D01*
X76264000Y-87564000D01*
X76284000Y-87564000D01*
X76284000Y-87544000D01*
X76538000Y-87544000D01*
X76538000Y-87564000D01*
X77232250Y-87564000D01*
X77261750Y-87593500D01*
X78486000Y-87593500D01*
X78486000Y-87573500D01*
X78740000Y-87573500D01*
X78740000Y-87593500D01*
X79964250Y-87593500D01*
X80123000Y-87434750D01*
X80126072Y-87008000D01*
X80113812Y-86883518D01*
X80098996Y-86834676D01*
X80175247Y-86811546D01*
X80307276Y-86740974D01*
X80334560Y-86718583D01*
X80342528Y-86744850D01*
X80424595Y-86898386D01*
X80503884Y-86995000D01*
X80424595Y-87091614D01*
X80342528Y-87245150D01*
X80291992Y-87411746D01*
X80274928Y-87585000D01*
X80274928Y-88510000D01*
X80291992Y-88683254D01*
X80342528Y-88849850D01*
X80424595Y-89003386D01*
X80535038Y-89137962D01*
X80669614Y-89248405D01*
X80823150Y-89330472D01*
X80989746Y-89381008D01*
X81163000Y-89398072D01*
X82413000Y-89398072D01*
X82586254Y-89381008D01*
X82752850Y-89330472D01*
X82906386Y-89248405D01*
X83040962Y-89137962D01*
X83151405Y-89003386D01*
X83233472Y-88849850D01*
X83284008Y-88683254D01*
X83301072Y-88510000D01*
X83301072Y-87585000D01*
X83284008Y-87411746D01*
X83233472Y-87245150D01*
X83151405Y-87091614D01*
X83072116Y-86995000D01*
X83151405Y-86898386D01*
X83233472Y-86744850D01*
X83284008Y-86578254D01*
X83301072Y-86405000D01*
X83301072Y-85480000D01*
X83284008Y-85306746D01*
X83233472Y-85140150D01*
X83151405Y-84986614D01*
X83040962Y-84852038D01*
X82906386Y-84741595D01*
X82752850Y-84659528D01*
X82586254Y-84608992D01*
X82413000Y-84591928D01*
X81163000Y-84591928D01*
X80989746Y-84608992D01*
X80974500Y-84613617D01*
X80974500Y-84296383D01*
X80989746Y-84301008D01*
X81163000Y-84318072D01*
X82413000Y-84318072D01*
X82586254Y-84301008D01*
X82752850Y-84250472D01*
X82906386Y-84168405D01*
X83040962Y-84057962D01*
X83151405Y-83923386D01*
X83233472Y-83769850D01*
X83284008Y-83603254D01*
X83301072Y-83430000D01*
X83301072Y-82505000D01*
X83284008Y-82331746D01*
X83233472Y-82165150D01*
X83151405Y-82011614D01*
X83040962Y-81877038D01*
X82906386Y-81766595D01*
X82752850Y-81684528D01*
X82586254Y-81633992D01*
X82413000Y-81616928D01*
X81163000Y-81616928D01*
X80989746Y-81633992D01*
X80823150Y-81684528D01*
X80669614Y-81766595D01*
X80535038Y-81877038D01*
X80424595Y-82011614D01*
X80342528Y-82165150D01*
X80291992Y-82331746D01*
X80283402Y-82418961D01*
X80272999Y-82427499D01*
X80249200Y-82456498D01*
X79703498Y-83002201D01*
X79674500Y-83025999D01*
X79650702Y-83054997D01*
X79650701Y-83054998D01*
X79579526Y-83141724D01*
X79508954Y-83273754D01*
X79480360Y-83368021D01*
X79466038Y-83415236D01*
X79465498Y-83417015D01*
X79464405Y-83428115D01*
X79411254Y-83411992D01*
X79238000Y-83394928D01*
X78383725Y-83394928D01*
X78582201Y-83312716D01*
X78804949Y-83163881D01*
X78994381Y-82974449D01*
X79143216Y-82751701D01*
X79245736Y-82504197D01*
X79298000Y-82241448D01*
X79298000Y-81973552D01*
X79272906Y-81847396D01*
X79449004Y-81671298D01*
X79478001Y-81647501D01*
X79572974Y-81531776D01*
X79643546Y-81399747D01*
X79687003Y-81256486D01*
X79698000Y-81144833D01*
X79698000Y-81144832D01*
X79701677Y-81107500D01*
X79698000Y-81070167D01*
X79698000Y-80731433D01*
X79815502Y-80635002D01*
X79969833Y-80446949D01*
X80084511Y-80232401D01*
X80155130Y-79999601D01*
X80173000Y-79818164D01*
X80173000Y-78996835D01*
X80155130Y-78815398D01*
X80084511Y-78582599D01*
X80081518Y-78577000D01*
X82211875Y-78577000D01*
X82096663Y-78653982D01*
X81955982Y-78794663D01*
X81845450Y-78960086D01*
X81769314Y-79143894D01*
X81730500Y-79339024D01*
X81730500Y-79537976D01*
X81769314Y-79733106D01*
X81845450Y-79916914D01*
X81955982Y-80082337D01*
X82096663Y-80223018D01*
X82262086Y-80333550D01*
X82445894Y-80409686D01*
X82641024Y-80448500D01*
X82839976Y-80448500D01*
X83035106Y-80409686D01*
X83218914Y-80333550D01*
X83384337Y-80223018D01*
X83525018Y-80082337D01*
X83635550Y-79916914D01*
X83711686Y-79733106D01*
X83750500Y-79537976D01*
X83750500Y-79339024D01*
X83711686Y-79143894D01*
X83635550Y-78960086D01*
X83525018Y-78794663D01*
X83384337Y-78653982D01*
X83269125Y-78577000D01*
X84491001Y-78577000D01*
X84491000Y-97257000D01*
X78924072Y-97257000D01*
X78924072Y-95119000D01*
X78907008Y-94945746D01*
X78856472Y-94779150D01*
X78774405Y-94625614D01*
X78663962Y-94491038D01*
X78529386Y-94380595D01*
X78375850Y-94298528D01*
X78209254Y-94247992D01*
X78036000Y-94230928D01*
X77536000Y-94230928D01*
X77362746Y-94247992D01*
X77196150Y-94298528D01*
X77042614Y-94380595D01*
X76908038Y-94491038D01*
X76797595Y-94625614D01*
X76715528Y-94779150D01*
X76664992Y-94945746D01*
X76647928Y-95119000D01*
X76647928Y-97257000D01*
X73974072Y-97257000D01*
X73974072Y-95119000D01*
X73957008Y-94945746D01*
X73906472Y-94779150D01*
X73824405Y-94625614D01*
X73713962Y-94491038D01*
X73579386Y-94380595D01*
X73425850Y-94298528D01*
X73259254Y-94247992D01*
X73086000Y-94230928D01*
X72586000Y-94230928D01*
X72412746Y-94247992D01*
X72246150Y-94298528D01*
X72092614Y-94380595D01*
X71958038Y-94491038D01*
X71847595Y-94625614D01*
X71765528Y-94779150D01*
X71714992Y-94945746D01*
X71697928Y-95119000D01*
X71697928Y-97257000D01*
X65811000Y-97257000D01*
X65811000Y-96103024D01*
X66871500Y-96103024D01*
X66871500Y-96301976D01*
X66910314Y-96497106D01*
X66986450Y-96680914D01*
X67096982Y-96846337D01*
X67237663Y-96987018D01*
X67403086Y-97097550D01*
X67586894Y-97173686D01*
X67782024Y-97212500D01*
X67980976Y-97212500D01*
X68176106Y-97173686D01*
X68359914Y-97097550D01*
X68525337Y-96987018D01*
X68666018Y-96846337D01*
X68776550Y-96680914D01*
X68852686Y-96497106D01*
X68891500Y-96301976D01*
X68891500Y-96103024D01*
X68852686Y-95907894D01*
X68776550Y-95724086D01*
X68666018Y-95558663D01*
X68525337Y-95417982D01*
X68359914Y-95307450D01*
X68176106Y-95231314D01*
X67980976Y-95192500D01*
X67782024Y-95192500D01*
X67586894Y-95231314D01*
X67403086Y-95307450D01*
X67237663Y-95417982D01*
X67096982Y-95558663D01*
X66986450Y-95724086D01*
X66910314Y-95907894D01*
X66871500Y-96103024D01*
X65811000Y-96103024D01*
X65811000Y-78577000D01*
X70794482Y-78577000D01*
X70791489Y-78582599D01*
G37*
X70791489Y-78582599D02*
X70771801Y-78647500D01*
X69854822Y-78647500D01*
X69817499Y-78643824D01*
X69780176Y-78647500D01*
X69780167Y-78647500D01*
X69668514Y-78658497D01*
X69525253Y-78701954D01*
X69393224Y-78772526D01*
X69277499Y-78867499D01*
X69253696Y-78896503D01*
X69084998Y-79065201D01*
X69056000Y-79088999D01*
X69032202Y-79117997D01*
X69032201Y-79117998D01*
X68961026Y-79204724D01*
X68890454Y-79336754D01*
X68846998Y-79480015D01*
X68832324Y-79629000D01*
X68836001Y-79666332D01*
X68836000Y-87592678D01*
X68832324Y-87630000D01*
X68836000Y-87667322D01*
X68836000Y-87667332D01*
X68846997Y-87778985D01*
X68890454Y-87922246D01*
X68961026Y-88054276D01*
X68986104Y-88084833D01*
X69055999Y-88170001D01*
X69085002Y-88193803D01*
X69249700Y-88358502D01*
X69273499Y-88387501D01*
X69389224Y-88482474D01*
X69521253Y-88553046D01*
X69664514Y-88596503D01*
X69776167Y-88607500D01*
X69776176Y-88607500D01*
X69813499Y-88611176D01*
X69850822Y-88607500D01*
X70550681Y-88607500D01*
X70563528Y-88649850D01*
X70645595Y-88803386D01*
X70756038Y-88937962D01*
X70890614Y-89048405D01*
X71044150Y-89130472D01*
X71210746Y-89181008D01*
X71384000Y-89198072D01*
X72634000Y-89198072D01*
X72673385Y-89194193D01*
X72667528Y-89205150D01*
X72616992Y-89371746D01*
X72599928Y-89545000D01*
X72599928Y-90795000D01*
X72616992Y-90968254D01*
X72667528Y-91134850D01*
X72749595Y-91288386D01*
X72860038Y-91422962D01*
X72994614Y-91533405D01*
X73148150Y-91615472D01*
X73190500Y-91628319D01*
X73190500Y-92709177D01*
X73186824Y-92746500D01*
X73190500Y-92783822D01*
X73190500Y-92783832D01*
X73201497Y-92895485D01*
X73238964Y-93018999D01*
X73244954Y-93038746D01*
X73315526Y-93170776D01*
X73355371Y-93219326D01*
X73410499Y-93286501D01*
X73439503Y-93310304D01*
X73659196Y-93529997D01*
X73682999Y-93559001D01*
X73747928Y-93612287D01*
X73747928Y-93719000D01*
X73763071Y-93872745D01*
X73807916Y-94020582D01*
X73880742Y-94156829D01*
X73978749Y-94276251D01*
X74098171Y-94374258D01*
X74234418Y-94447084D01*
X74382255Y-94491929D01*
X74536000Y-94507072D01*
X74836000Y-94507072D01*
X74989745Y-94491929D01*
X75137582Y-94447084D01*
X75273829Y-94374258D01*
X75311000Y-94343753D01*
X75348171Y-94374258D01*
X75484418Y-94447084D01*
X75632255Y-94491929D01*
X75786000Y-94507072D01*
X76086000Y-94507072D01*
X76239745Y-94491929D01*
X76387582Y-94447084D01*
X76523829Y-94374258D01*
X76643251Y-94276251D01*
X76741258Y-94156829D01*
X76814084Y-94020582D01*
X76858929Y-93872745D01*
X76874072Y-93719000D01*
X76874072Y-93694706D01*
X76950276Y-93653974D01*
X77066001Y-93559001D01*
X77089804Y-93529997D01*
X77436498Y-93183303D01*
X77465501Y-93159501D01*
X77560474Y-93043776D01*
X77631046Y-92911747D01*
X77674503Y-92768486D01*
X77677155Y-92741556D01*
X77729437Y-92689274D01*
X77842705Y-92519756D01*
X77920726Y-92331398D01*
X77960500Y-92131439D01*
X77960500Y-91927561D01*
X77922198Y-91735000D01*
X80274928Y-91735000D01*
X80287188Y-91859482D01*
X80323498Y-91979180D01*
X80382463Y-92089494D01*
X80461815Y-92186185D01*
X80558506Y-92265537D01*
X80668820Y-92324502D01*
X80788518Y-92360812D01*
X80913000Y-92373072D01*
X81502250Y-92370000D01*
X81661000Y-92211250D01*
X81661000Y-91149500D01*
X81915000Y-91149500D01*
X81915000Y-92211250D01*
X82073750Y-92370000D01*
X82663000Y-92373072D01*
X82787482Y-92360812D01*
X82907180Y-92324502D01*
X83017494Y-92265537D01*
X83114185Y-92186185D01*
X83193537Y-92089494D01*
X83252502Y-91979180D01*
X83288812Y-91859482D01*
X83301072Y-91735000D01*
X83298000Y-91308250D01*
X83139250Y-91149500D01*
X81915000Y-91149500D01*
X81661000Y-91149500D01*
X80436750Y-91149500D01*
X80278000Y-91308250D01*
X80274928Y-91735000D01*
X77922198Y-91735000D01*
X77920726Y-91727602D01*
X77847737Y-91551391D01*
X77881386Y-91533405D01*
X78015962Y-91422962D01*
X78126405Y-91288386D01*
X78208472Y-91134850D01*
X78259008Y-90968254D01*
X78276072Y-90795000D01*
X78276072Y-90310000D01*
X80274928Y-90310000D01*
X80278000Y-90736750D01*
X80436750Y-90895500D01*
X81661000Y-90895500D01*
X81661000Y-89833750D01*
X81915000Y-89833750D01*
X81915000Y-90895500D01*
X83139250Y-90895500D01*
X83298000Y-90736750D01*
X83301072Y-90310000D01*
X83288812Y-90185518D01*
X83252502Y-90065820D01*
X83193537Y-89955506D01*
X83114185Y-89858815D01*
X83017494Y-89779463D01*
X82907180Y-89720498D01*
X82787482Y-89684188D01*
X82663000Y-89671928D01*
X82073750Y-89675000D01*
X81915000Y-89833750D01*
X81661000Y-89833750D01*
X81502250Y-89675000D01*
X80913000Y-89671928D01*
X80788518Y-89684188D01*
X80668820Y-89720498D01*
X80558506Y-89779463D01*
X80461815Y-89858815D01*
X80382463Y-89955506D01*
X80323498Y-90065820D01*
X80287188Y-90185518D01*
X80274928Y-90310000D01*
X78276072Y-90310000D01*
X78276072Y-89545000D01*
X78259008Y-89371746D01*
X78208472Y-89205150D01*
X78135697Y-89068999D01*
X78327250Y-89068000D01*
X78486000Y-88909250D01*
X78486000Y-87847500D01*
X78740000Y-87847500D01*
X78740000Y-88909250D01*
X78898750Y-89068000D01*
X79488000Y-89071072D01*
X79612482Y-89058812D01*
X79732180Y-89022502D01*
X79842494Y-88963537D01*
X79939185Y-88884185D01*
X80018537Y-88787494D01*
X80077502Y-88677180D01*
X80113812Y-88557482D01*
X80126072Y-88433000D01*
X80123000Y-88006250D01*
X79964250Y-87847500D01*
X78740000Y-87847500D01*
X78486000Y-87847500D01*
X77446750Y-87847500D01*
X77417250Y-87818000D01*
X76538000Y-87818000D01*
X76538000Y-88492250D01*
X76696750Y-88651000D01*
X76941000Y-88654072D01*
X77065482Y-88641812D01*
X77131678Y-88621732D01*
X77142355Y-88656928D01*
X76463000Y-88656928D01*
X76289746Y-88673992D01*
X76123150Y-88724528D01*
X75969614Y-88806595D01*
X75835038Y-88917038D01*
X75724595Y-89051614D01*
X75642528Y-89205150D01*
X75591992Y-89371746D01*
X75574928Y-89545000D01*
X75574928Y-90795000D01*
X75591992Y-90968254D01*
X75642528Y-91134850D01*
X75724595Y-91288386D01*
X75835038Y-91422962D01*
X75966596Y-91530928D01*
X75786000Y-91530928D01*
X75632255Y-91546071D01*
X75484418Y-91590916D01*
X75348171Y-91663742D01*
X75311000Y-91694247D01*
X75273829Y-91663742D01*
X75137582Y-91590916D01*
X74989745Y-91546071D01*
X74899347Y-91537167D01*
X74906386Y-91533405D01*
X75040962Y-91422962D01*
X75151405Y-91288386D01*
X75233472Y-91134850D01*
X75284008Y-90968254D01*
X75301072Y-90795000D01*
X75301072Y-89545000D01*
X75284008Y-89371746D01*
X75233472Y-89205150D01*
X75151405Y-89051614D01*
X75040962Y-88917038D01*
X74906386Y-88806595D01*
X74801000Y-88750265D01*
X74801000Y-88648163D01*
X74865482Y-88641812D01*
X74985180Y-88605502D01*
X75095494Y-88546537D01*
X75192185Y-88467185D01*
X75271537Y-88370494D01*
X75311000Y-88296665D01*
X75350463Y-88370494D01*
X75429815Y-88467185D01*
X75526506Y-88546537D01*
X75636820Y-88605502D01*
X75756518Y-88641812D01*
X75881000Y-88654072D01*
X76125250Y-88651000D01*
X76284000Y-88492250D01*
X76284000Y-87818000D01*
X76264000Y-87818000D01*
X76264000Y-87564000D01*
X76284000Y-87564000D01*
X76284000Y-87544000D01*
X76538000Y-87544000D01*
X76538000Y-87564000D01*
X77232250Y-87564000D01*
X77261750Y-87593500D01*
X78486000Y-87593500D01*
X78486000Y-87573500D01*
X78740000Y-87573500D01*
X78740000Y-87593500D01*
X79964250Y-87593500D01*
X80123000Y-87434750D01*
X80126072Y-87008000D01*
X80113812Y-86883518D01*
X80098996Y-86834676D01*
X80175247Y-86811546D01*
X80307276Y-86740974D01*
X80334560Y-86718583D01*
X80342528Y-86744850D01*
X80424595Y-86898386D01*
X80503884Y-86995000D01*
X80424595Y-87091614D01*
X80342528Y-87245150D01*
X80291992Y-87411746D01*
X80274928Y-87585000D01*
X80274928Y-88510000D01*
X80291992Y-88683254D01*
X80342528Y-88849850D01*
X80424595Y-89003386D01*
X80535038Y-89137962D01*
X80669614Y-89248405D01*
X80823150Y-89330472D01*
X80989746Y-89381008D01*
X81163000Y-89398072D01*
X82413000Y-89398072D01*
X82586254Y-89381008D01*
X82752850Y-89330472D01*
X82906386Y-89248405D01*
X83040962Y-89137962D01*
X83151405Y-89003386D01*
X83233472Y-88849850D01*
X83284008Y-88683254D01*
X83301072Y-88510000D01*
X83301072Y-87585000D01*
X83284008Y-87411746D01*
X83233472Y-87245150D01*
X83151405Y-87091614D01*
X83072116Y-86995000D01*
X83151405Y-86898386D01*
X83233472Y-86744850D01*
X83284008Y-86578254D01*
X83301072Y-86405000D01*
X83301072Y-85480000D01*
X83284008Y-85306746D01*
X83233472Y-85140150D01*
X83151405Y-84986614D01*
X83040962Y-84852038D01*
X82906386Y-84741595D01*
X82752850Y-84659528D01*
X82586254Y-84608992D01*
X82413000Y-84591928D01*
X81163000Y-84591928D01*
X80989746Y-84608992D01*
X80974500Y-84613617D01*
X80974500Y-84296383D01*
X80989746Y-84301008D01*
X81163000Y-84318072D01*
X82413000Y-84318072D01*
X82586254Y-84301008D01*
X82752850Y-84250472D01*
X82906386Y-84168405D01*
X83040962Y-84057962D01*
X83151405Y-83923386D01*
X83233472Y-83769850D01*
X83284008Y-83603254D01*
X83301072Y-83430000D01*
X83301072Y-82505000D01*
X83284008Y-82331746D01*
X83233472Y-82165150D01*
X83151405Y-82011614D01*
X83040962Y-81877038D01*
X82906386Y-81766595D01*
X82752850Y-81684528D01*
X82586254Y-81633992D01*
X82413000Y-81616928D01*
X81163000Y-81616928D01*
X80989746Y-81633992D01*
X80823150Y-81684528D01*
X80669614Y-81766595D01*
X80535038Y-81877038D01*
X80424595Y-82011614D01*
X80342528Y-82165150D01*
X80291992Y-82331746D01*
X80283402Y-82418961D01*
X80272999Y-82427499D01*
X80249200Y-82456498D01*
X79703498Y-83002201D01*
X79674500Y-83025999D01*
X79650702Y-83054997D01*
X79650701Y-83054998D01*
X79579526Y-83141724D01*
X79508954Y-83273754D01*
X79480360Y-83368021D01*
X79466038Y-83415236D01*
X79465498Y-83417015D01*
X79464405Y-83428115D01*
X79411254Y-83411992D01*
X79238000Y-83394928D01*
X78383725Y-83394928D01*
X78582201Y-83312716D01*
X78804949Y-83163881D01*
X78994381Y-82974449D01*
X79143216Y-82751701D01*
X79245736Y-82504197D01*
X79298000Y-82241448D01*
X79298000Y-81973552D01*
X79272906Y-81847396D01*
X79449004Y-81671298D01*
X79478001Y-81647501D01*
X79572974Y-81531776D01*
X79643546Y-81399747D01*
X79687003Y-81256486D01*
X79698000Y-81144833D01*
X79698000Y-81144832D01*
X79701677Y-81107500D01*
X79698000Y-81070167D01*
X79698000Y-80731433D01*
X79815502Y-80635002D01*
X79969833Y-80446949D01*
X80084511Y-80232401D01*
X80155130Y-79999601D01*
X80173000Y-79818164D01*
X80173000Y-78996835D01*
X80155130Y-78815398D01*
X80084511Y-78582599D01*
X80081518Y-78577000D01*
X82211875Y-78577000D01*
X82096663Y-78653982D01*
X81955982Y-78794663D01*
X81845450Y-78960086D01*
X81769314Y-79143894D01*
X81730500Y-79339024D01*
X81730500Y-79537976D01*
X81769314Y-79733106D01*
X81845450Y-79916914D01*
X81955982Y-80082337D01*
X82096663Y-80223018D01*
X82262086Y-80333550D01*
X82445894Y-80409686D01*
X82641024Y-80448500D01*
X82839976Y-80448500D01*
X83035106Y-80409686D01*
X83218914Y-80333550D01*
X83384337Y-80223018D01*
X83525018Y-80082337D01*
X83635550Y-79916914D01*
X83711686Y-79733106D01*
X83750500Y-79537976D01*
X83750500Y-79339024D01*
X83711686Y-79143894D01*
X83635550Y-78960086D01*
X83525018Y-78794663D01*
X83384337Y-78653982D01*
X83269125Y-78577000D01*
X84491001Y-78577000D01*
X84491000Y-97257000D01*
X78924072Y-97257000D01*
X78924072Y-95119000D01*
X78907008Y-94945746D01*
X78856472Y-94779150D01*
X78774405Y-94625614D01*
X78663962Y-94491038D01*
X78529386Y-94380595D01*
X78375850Y-94298528D01*
X78209254Y-94247992D01*
X78036000Y-94230928D01*
X77536000Y-94230928D01*
X77362746Y-94247992D01*
X77196150Y-94298528D01*
X77042614Y-94380595D01*
X76908038Y-94491038D01*
X76797595Y-94625614D01*
X76715528Y-94779150D01*
X76664992Y-94945746D01*
X76647928Y-95119000D01*
X76647928Y-97257000D01*
X73974072Y-97257000D01*
X73974072Y-95119000D01*
X73957008Y-94945746D01*
X73906472Y-94779150D01*
X73824405Y-94625614D01*
X73713962Y-94491038D01*
X73579386Y-94380595D01*
X73425850Y-94298528D01*
X73259254Y-94247992D01*
X73086000Y-94230928D01*
X72586000Y-94230928D01*
X72412746Y-94247992D01*
X72246150Y-94298528D01*
X72092614Y-94380595D01*
X71958038Y-94491038D01*
X71847595Y-94625614D01*
X71765528Y-94779150D01*
X71714992Y-94945746D01*
X71697928Y-95119000D01*
X71697928Y-97257000D01*
X65811000Y-97257000D01*
X65811000Y-96103024D01*
X66871500Y-96103024D01*
X66871500Y-96301976D01*
X66910314Y-96497106D01*
X66986450Y-96680914D01*
X67096982Y-96846337D01*
X67237663Y-96987018D01*
X67403086Y-97097550D01*
X67586894Y-97173686D01*
X67782024Y-97212500D01*
X67980976Y-97212500D01*
X68176106Y-97173686D01*
X68359914Y-97097550D01*
X68525337Y-96987018D01*
X68666018Y-96846337D01*
X68776550Y-96680914D01*
X68852686Y-96497106D01*
X68891500Y-96301976D01*
X68891500Y-96103024D01*
X68852686Y-95907894D01*
X68776550Y-95724086D01*
X68666018Y-95558663D01*
X68525337Y-95417982D01*
X68359914Y-95307450D01*
X68176106Y-95231314D01*
X67980976Y-95192500D01*
X67782024Y-95192500D01*
X67586894Y-95231314D01*
X67403086Y-95307450D01*
X67237663Y-95417982D01*
X67096982Y-95558663D01*
X66986450Y-95724086D01*
X66910314Y-95907894D01*
X66871500Y-96103024D01*
X65811000Y-96103024D01*
X65811000Y-78577000D01*
X70794482Y-78577000D01*
X70791489Y-78582599D01*
M02*
