G04 #@! TF.GenerationSoftware,KiCad,Pcbnew,(5.1.5)-3*
G04 #@! TF.CreationDate,2020-11-15T11:03:40+01:00*
G04 #@! TF.ProjectId,Battery Charger,42617474-6572-4792-9043-686172676572,rev?*
G04 #@! TF.SameCoordinates,Original*
G04 #@! TF.FileFunction,Copper,L2,Bot*
G04 #@! TF.FilePolarity,Positive*
%FSLAX46Y46*%
G04 Gerber Fmt 4.6, Leading zero omitted, Abs format (unit mm)*
G04 Created by KiCad (PCBNEW (5.1.5)-3) date 2020-11-15 11:03:40*
%MOMM*%
%LPD*%
G04 APERTURE LIST*
%ADD10O,1.200000X1.900000*%
%ADD11C,1.450000*%
%ADD12C,0.254000*%
G04 APERTURE END LIST*
D10*
X71938000Y-79407500D03*
X78938000Y-79407500D03*
D11*
X72938000Y-82107500D03*
X77938000Y-82107500D03*
D12*
G36*
X70751507Y-78692004D02*
G01*
X70703000Y-78930500D01*
X70703000Y-79280500D01*
X71811000Y-79280500D01*
X71811000Y-79260500D01*
X72065000Y-79260500D01*
X72065000Y-79280500D01*
X73173000Y-79280500D01*
X73173000Y-78930500D01*
X73124493Y-78692004D01*
X73048605Y-78511000D01*
X77827395Y-78511000D01*
X77751507Y-78692004D01*
X77703000Y-78930500D01*
X77703000Y-79280500D01*
X78811000Y-79280500D01*
X78811000Y-79260500D01*
X79065000Y-79260500D01*
X79065000Y-79280500D01*
X80173000Y-79280500D01*
X80173000Y-78930500D01*
X80124493Y-78692004D01*
X80048605Y-78511000D01*
X84557000Y-78511000D01*
X84557001Y-97384000D01*
X65938000Y-97384000D01*
X65938000Y-83046633D01*
X72178472Y-83046633D01*
X72240965Y-83282950D01*
X72483678Y-83396350D01*
X72743849Y-83460219D01*
X73011482Y-83472104D01*
X73276291Y-83431548D01*
X73528100Y-83340109D01*
X73635035Y-83282950D01*
X73697528Y-83046633D01*
X77178472Y-83046633D01*
X77240965Y-83282950D01*
X77483678Y-83396350D01*
X77743849Y-83460219D01*
X78011482Y-83472104D01*
X78276291Y-83431548D01*
X78528100Y-83340109D01*
X78635035Y-83282950D01*
X78697528Y-83046633D01*
X77938000Y-82287105D01*
X77178472Y-83046633D01*
X73697528Y-83046633D01*
X72938000Y-82287105D01*
X72178472Y-83046633D01*
X65938000Y-83046633D01*
X65938000Y-82180982D01*
X71573396Y-82180982D01*
X71613952Y-82445791D01*
X71705391Y-82697600D01*
X71762550Y-82804535D01*
X71998867Y-82867028D01*
X72758395Y-82107500D01*
X73117605Y-82107500D01*
X73877133Y-82867028D01*
X74113450Y-82804535D01*
X74226850Y-82561822D01*
X74290719Y-82301651D01*
X74296077Y-82180982D01*
X76573396Y-82180982D01*
X76613952Y-82445791D01*
X76705391Y-82697600D01*
X76762550Y-82804535D01*
X76998867Y-82867028D01*
X77758395Y-82107500D01*
X78117605Y-82107500D01*
X78877133Y-82867028D01*
X79113450Y-82804535D01*
X79226850Y-82561822D01*
X79290719Y-82301651D01*
X79302604Y-82034018D01*
X79262048Y-81769209D01*
X79170609Y-81517400D01*
X79113450Y-81410465D01*
X78877133Y-81347972D01*
X78117605Y-82107500D01*
X77758395Y-82107500D01*
X76998867Y-81347972D01*
X76762550Y-81410465D01*
X76649150Y-81653178D01*
X76585281Y-81913349D01*
X76573396Y-82180982D01*
X74296077Y-82180982D01*
X74302604Y-82034018D01*
X74262048Y-81769209D01*
X74170609Y-81517400D01*
X74113450Y-81410465D01*
X73877133Y-81347972D01*
X73117605Y-82107500D01*
X72758395Y-82107500D01*
X71998867Y-81347972D01*
X71762550Y-81410465D01*
X71649150Y-81653178D01*
X71585281Y-81913349D01*
X71573396Y-82180982D01*
X65938000Y-82180982D01*
X65938000Y-79534500D01*
X70703000Y-79534500D01*
X70703000Y-79884500D01*
X70751507Y-80122996D01*
X70845610Y-80347446D01*
X70981693Y-80549225D01*
X71154526Y-80720578D01*
X71357467Y-80854921D01*
X71582718Y-80947091D01*
X71620391Y-80950962D01*
X71811000Y-80826231D01*
X71811000Y-79534500D01*
X72065000Y-79534500D01*
X72065000Y-80826231D01*
X72238862Y-80940003D01*
X72178472Y-81168367D01*
X72938000Y-81927895D01*
X73697528Y-81168367D01*
X77178472Y-81168367D01*
X77938000Y-81927895D01*
X78697528Y-81168367D01*
X78637138Y-80940003D01*
X78811000Y-80826231D01*
X78811000Y-79534500D01*
X79065000Y-79534500D01*
X79065000Y-80826231D01*
X79255609Y-80950962D01*
X79293282Y-80947091D01*
X79518533Y-80854921D01*
X79721474Y-80720578D01*
X79894307Y-80549225D01*
X80030390Y-80347446D01*
X80124493Y-80122996D01*
X80173000Y-79884500D01*
X80173000Y-79534500D01*
X79065000Y-79534500D01*
X78811000Y-79534500D01*
X77703000Y-79534500D01*
X77703000Y-79884500D01*
X77751507Y-80122996D01*
X77845610Y-80347446D01*
X77981693Y-80549225D01*
X78154526Y-80720578D01*
X78249836Y-80783671D01*
X78132151Y-80754781D01*
X77864518Y-80742896D01*
X77599709Y-80783452D01*
X77347900Y-80874891D01*
X77240965Y-80932050D01*
X77178472Y-81168367D01*
X73697528Y-81168367D01*
X73635035Y-80932050D01*
X73392322Y-80818650D01*
X73132151Y-80754781D01*
X72864518Y-80742896D01*
X72634558Y-80778115D01*
X72721474Y-80720578D01*
X72894307Y-80549225D01*
X73030390Y-80347446D01*
X73124493Y-80122996D01*
X73173000Y-79884500D01*
X73173000Y-79534500D01*
X72065000Y-79534500D01*
X71811000Y-79534500D01*
X70703000Y-79534500D01*
X65938000Y-79534500D01*
X65938000Y-78511000D01*
X70827395Y-78511000D01*
X70751507Y-78692004D01*
G37*
X70751507Y-78692004D02*
X70703000Y-78930500D01*
X70703000Y-79280500D01*
X71811000Y-79280500D01*
X71811000Y-79260500D01*
X72065000Y-79260500D01*
X72065000Y-79280500D01*
X73173000Y-79280500D01*
X73173000Y-78930500D01*
X73124493Y-78692004D01*
X73048605Y-78511000D01*
X77827395Y-78511000D01*
X77751507Y-78692004D01*
X77703000Y-78930500D01*
X77703000Y-79280500D01*
X78811000Y-79280500D01*
X78811000Y-79260500D01*
X79065000Y-79260500D01*
X79065000Y-79280500D01*
X80173000Y-79280500D01*
X80173000Y-78930500D01*
X80124493Y-78692004D01*
X80048605Y-78511000D01*
X84557000Y-78511000D01*
X84557001Y-97384000D01*
X65938000Y-97384000D01*
X65938000Y-83046633D01*
X72178472Y-83046633D01*
X72240965Y-83282950D01*
X72483678Y-83396350D01*
X72743849Y-83460219D01*
X73011482Y-83472104D01*
X73276291Y-83431548D01*
X73528100Y-83340109D01*
X73635035Y-83282950D01*
X73697528Y-83046633D01*
X77178472Y-83046633D01*
X77240965Y-83282950D01*
X77483678Y-83396350D01*
X77743849Y-83460219D01*
X78011482Y-83472104D01*
X78276291Y-83431548D01*
X78528100Y-83340109D01*
X78635035Y-83282950D01*
X78697528Y-83046633D01*
X77938000Y-82287105D01*
X77178472Y-83046633D01*
X73697528Y-83046633D01*
X72938000Y-82287105D01*
X72178472Y-83046633D01*
X65938000Y-83046633D01*
X65938000Y-82180982D01*
X71573396Y-82180982D01*
X71613952Y-82445791D01*
X71705391Y-82697600D01*
X71762550Y-82804535D01*
X71998867Y-82867028D01*
X72758395Y-82107500D01*
X73117605Y-82107500D01*
X73877133Y-82867028D01*
X74113450Y-82804535D01*
X74226850Y-82561822D01*
X74290719Y-82301651D01*
X74296077Y-82180982D01*
X76573396Y-82180982D01*
X76613952Y-82445791D01*
X76705391Y-82697600D01*
X76762550Y-82804535D01*
X76998867Y-82867028D01*
X77758395Y-82107500D01*
X78117605Y-82107500D01*
X78877133Y-82867028D01*
X79113450Y-82804535D01*
X79226850Y-82561822D01*
X79290719Y-82301651D01*
X79302604Y-82034018D01*
X79262048Y-81769209D01*
X79170609Y-81517400D01*
X79113450Y-81410465D01*
X78877133Y-81347972D01*
X78117605Y-82107500D01*
X77758395Y-82107500D01*
X76998867Y-81347972D01*
X76762550Y-81410465D01*
X76649150Y-81653178D01*
X76585281Y-81913349D01*
X76573396Y-82180982D01*
X74296077Y-82180982D01*
X74302604Y-82034018D01*
X74262048Y-81769209D01*
X74170609Y-81517400D01*
X74113450Y-81410465D01*
X73877133Y-81347972D01*
X73117605Y-82107500D01*
X72758395Y-82107500D01*
X71998867Y-81347972D01*
X71762550Y-81410465D01*
X71649150Y-81653178D01*
X71585281Y-81913349D01*
X71573396Y-82180982D01*
X65938000Y-82180982D01*
X65938000Y-79534500D01*
X70703000Y-79534500D01*
X70703000Y-79884500D01*
X70751507Y-80122996D01*
X70845610Y-80347446D01*
X70981693Y-80549225D01*
X71154526Y-80720578D01*
X71357467Y-80854921D01*
X71582718Y-80947091D01*
X71620391Y-80950962D01*
X71811000Y-80826231D01*
X71811000Y-79534500D01*
X72065000Y-79534500D01*
X72065000Y-80826231D01*
X72238862Y-80940003D01*
X72178472Y-81168367D01*
X72938000Y-81927895D01*
X73697528Y-81168367D01*
X77178472Y-81168367D01*
X77938000Y-81927895D01*
X78697528Y-81168367D01*
X78637138Y-80940003D01*
X78811000Y-80826231D01*
X78811000Y-79534500D01*
X79065000Y-79534500D01*
X79065000Y-80826231D01*
X79255609Y-80950962D01*
X79293282Y-80947091D01*
X79518533Y-80854921D01*
X79721474Y-80720578D01*
X79894307Y-80549225D01*
X80030390Y-80347446D01*
X80124493Y-80122996D01*
X80173000Y-79884500D01*
X80173000Y-79534500D01*
X79065000Y-79534500D01*
X78811000Y-79534500D01*
X77703000Y-79534500D01*
X77703000Y-79884500D01*
X77751507Y-80122996D01*
X77845610Y-80347446D01*
X77981693Y-80549225D01*
X78154526Y-80720578D01*
X78249836Y-80783671D01*
X78132151Y-80754781D01*
X77864518Y-80742896D01*
X77599709Y-80783452D01*
X77347900Y-80874891D01*
X77240965Y-80932050D01*
X77178472Y-81168367D01*
X73697528Y-81168367D01*
X73635035Y-80932050D01*
X73392322Y-80818650D01*
X73132151Y-80754781D01*
X72864518Y-80742896D01*
X72634558Y-80778115D01*
X72721474Y-80720578D01*
X72894307Y-80549225D01*
X73030390Y-80347446D01*
X73124493Y-80122996D01*
X73173000Y-79884500D01*
X73173000Y-79534500D01*
X72065000Y-79534500D01*
X71811000Y-79534500D01*
X70703000Y-79534500D01*
X65938000Y-79534500D01*
X65938000Y-78511000D01*
X70827395Y-78511000D01*
X70751507Y-78692004D01*
M02*
