G04 #@! TF.GenerationSoftware,KiCad,Pcbnew,(5.1.4)-1*
G04 #@! TF.CreationDate,2020-08-30T13:55:43+02:00*
G04 #@! TF.ProjectId,Battery Charger,42617474-6572-4792-9043-686172676572,rev?*
G04 #@! TF.SameCoordinates,Original*
G04 #@! TF.FileFunction,Legend,Top*
G04 #@! TF.FilePolarity,Positive*
%FSLAX46Y46*%
G04 Gerber Fmt 4.6, Leading zero omitted, Abs format (unit mm)*
G04 Created by KiCad (PCBNEW (5.1.4)-1) date 2020-08-30 13:55:43*
%MOMM*%
%LPD*%
G04 APERTURE LIST*
%ADD10C,0.150000*%
%ADD11C,0.120000*%
G04 APERTURE END LIST*
D10*
X66683380Y-92407761D02*
X66683380Y-92883952D01*
X65683380Y-92883952D01*
X66683380Y-92074428D02*
X66016714Y-92074428D01*
X65683380Y-92074428D02*
X65731000Y-92122047D01*
X65778619Y-92074428D01*
X65731000Y-92026809D01*
X65683380Y-92074428D01*
X65778619Y-92074428D01*
X66302428Y-91598238D02*
X66302428Y-90836333D01*
X66683380Y-90360142D02*
X65683380Y-90360142D01*
X65683380Y-89979190D01*
X65731000Y-89883952D01*
X65778619Y-89836333D01*
X65873857Y-89788714D01*
X66016714Y-89788714D01*
X66111952Y-89836333D01*
X66159571Y-89883952D01*
X66207190Y-89979190D01*
X66207190Y-90360142D01*
X66683380Y-89217285D02*
X66635761Y-89312523D01*
X66588142Y-89360142D01*
X66492904Y-89407761D01*
X66207190Y-89407761D01*
X66111952Y-89360142D01*
X66064333Y-89312523D01*
X66016714Y-89217285D01*
X66016714Y-89074428D01*
X66064333Y-88979190D01*
X66111952Y-88931571D01*
X66207190Y-88883952D01*
X66492904Y-88883952D01*
X66588142Y-88931571D01*
X66635761Y-88979190D01*
X66683380Y-89074428D01*
X66683380Y-89217285D01*
X66159571Y-87360142D02*
X66207190Y-87217285D01*
X66254809Y-87169666D01*
X66350047Y-87122047D01*
X66492904Y-87122047D01*
X66588142Y-87169666D01*
X66635761Y-87217285D01*
X66683380Y-87312523D01*
X66683380Y-87693476D01*
X65683380Y-87693476D01*
X65683380Y-87360142D01*
X65731000Y-87264904D01*
X65778619Y-87217285D01*
X65873857Y-87169666D01*
X65969095Y-87169666D01*
X66064333Y-87217285D01*
X66111952Y-87264904D01*
X66159571Y-87360142D01*
X66159571Y-87693476D01*
X66683380Y-86264904D02*
X66159571Y-86264904D01*
X66064333Y-86312523D01*
X66016714Y-86407761D01*
X66016714Y-86598238D01*
X66064333Y-86693476D01*
X66635761Y-86264904D02*
X66683380Y-86360142D01*
X66683380Y-86598238D01*
X66635761Y-86693476D01*
X66540523Y-86741095D01*
X66445285Y-86741095D01*
X66350047Y-86693476D01*
X66302428Y-86598238D01*
X66302428Y-86360142D01*
X66254809Y-86264904D01*
X66016714Y-85931571D02*
X66016714Y-85550619D01*
X65683380Y-85788714D02*
X66540523Y-85788714D01*
X66635761Y-85741095D01*
X66683380Y-85645857D01*
X66683380Y-85550619D01*
X66016714Y-85360142D02*
X66016714Y-84979190D01*
X65683380Y-85217285D02*
X66540523Y-85217285D01*
X66635761Y-85169666D01*
X66683380Y-85074428D01*
X66683380Y-84979190D01*
X66635761Y-84264904D02*
X66683380Y-84360142D01*
X66683380Y-84550619D01*
X66635761Y-84645857D01*
X66540523Y-84693476D01*
X66159571Y-84693476D01*
X66064333Y-84645857D01*
X66016714Y-84550619D01*
X66016714Y-84360142D01*
X66064333Y-84264904D01*
X66159571Y-84217285D01*
X66254809Y-84217285D01*
X66350047Y-84693476D01*
X66683380Y-83788714D02*
X66016714Y-83788714D01*
X66207190Y-83788714D02*
X66111952Y-83741095D01*
X66064333Y-83693476D01*
X66016714Y-83598238D01*
X66016714Y-83503000D01*
X66016714Y-83264904D02*
X66683380Y-83026809D01*
X66016714Y-82788714D02*
X66683380Y-83026809D01*
X66921476Y-83122047D01*
X66969095Y-83169666D01*
X67016714Y-83264904D01*
X68238142Y-92836333D02*
X68285761Y-92883952D01*
X68333380Y-93026809D01*
X68333380Y-93122047D01*
X68285761Y-93264904D01*
X68190523Y-93360142D01*
X68095285Y-93407761D01*
X67904809Y-93455380D01*
X67761952Y-93455380D01*
X67571476Y-93407761D01*
X67476238Y-93360142D01*
X67381000Y-93264904D01*
X67333380Y-93122047D01*
X67333380Y-93026809D01*
X67381000Y-92883952D01*
X67428619Y-92836333D01*
X68333380Y-92407761D02*
X67333380Y-92407761D01*
X68333380Y-91979190D02*
X67809571Y-91979190D01*
X67714333Y-92026809D01*
X67666714Y-92122047D01*
X67666714Y-92264904D01*
X67714333Y-92360142D01*
X67761952Y-92407761D01*
X68333380Y-91074428D02*
X67809571Y-91074428D01*
X67714333Y-91122047D01*
X67666714Y-91217285D01*
X67666714Y-91407761D01*
X67714333Y-91503000D01*
X68285761Y-91074428D02*
X68333380Y-91169666D01*
X68333380Y-91407761D01*
X68285761Y-91503000D01*
X68190523Y-91550619D01*
X68095285Y-91550619D01*
X68000047Y-91503000D01*
X67952428Y-91407761D01*
X67952428Y-91169666D01*
X67904809Y-91074428D01*
X68333380Y-90598238D02*
X67666714Y-90598238D01*
X67857190Y-90598238D02*
X67761952Y-90550619D01*
X67714333Y-90503000D01*
X67666714Y-90407761D01*
X67666714Y-90312523D01*
X67666714Y-89550619D02*
X68476238Y-89550619D01*
X68571476Y-89598238D01*
X68619095Y-89645857D01*
X68666714Y-89741095D01*
X68666714Y-89883952D01*
X68619095Y-89979190D01*
X68285761Y-89550619D02*
X68333380Y-89645857D01*
X68333380Y-89836333D01*
X68285761Y-89931571D01*
X68238142Y-89979190D01*
X68142904Y-90026809D01*
X67857190Y-90026809D01*
X67761952Y-89979190D01*
X67714333Y-89931571D01*
X67666714Y-89836333D01*
X67666714Y-89645857D01*
X67714333Y-89550619D01*
X68333380Y-89074428D02*
X67666714Y-89074428D01*
X67333380Y-89074428D02*
X67381000Y-89122047D01*
X67428619Y-89074428D01*
X67381000Y-89026809D01*
X67333380Y-89074428D01*
X67428619Y-89074428D01*
X67666714Y-88598238D02*
X68333380Y-88598238D01*
X67761952Y-88598238D02*
X67714333Y-88550619D01*
X67666714Y-88455380D01*
X67666714Y-88312523D01*
X67714333Y-88217285D01*
X67809571Y-88169666D01*
X68333380Y-88169666D01*
X67666714Y-87264904D02*
X68476238Y-87264904D01*
X68571476Y-87312523D01*
X68619095Y-87360142D01*
X68666714Y-87455380D01*
X68666714Y-87598238D01*
X68619095Y-87693476D01*
X68285761Y-87264904D02*
X68333380Y-87360142D01*
X68333380Y-87550619D01*
X68285761Y-87645857D01*
X68238142Y-87693476D01*
X68142904Y-87741095D01*
X67857190Y-87741095D01*
X67761952Y-87693476D01*
X67714333Y-87645857D01*
X67666714Y-87550619D01*
X67666714Y-87360142D01*
X67714333Y-87264904D01*
X68238142Y-85455380D02*
X68285761Y-85503000D01*
X68333380Y-85645857D01*
X68333380Y-85741095D01*
X68285761Y-85883952D01*
X68190523Y-85979190D01*
X68095285Y-86026809D01*
X67904809Y-86074428D01*
X67761952Y-86074428D01*
X67571476Y-86026809D01*
X67476238Y-85979190D01*
X67381000Y-85883952D01*
X67333380Y-85741095D01*
X67333380Y-85645857D01*
X67381000Y-85503000D01*
X67428619Y-85455380D01*
X68333380Y-85026809D02*
X67666714Y-85026809D01*
X67333380Y-85026809D02*
X67381000Y-85074428D01*
X67428619Y-85026809D01*
X67381000Y-84979190D01*
X67333380Y-85026809D01*
X67428619Y-85026809D01*
X68333380Y-84550619D02*
X67666714Y-84550619D01*
X67857190Y-84550619D02*
X67761952Y-84503000D01*
X67714333Y-84455380D01*
X67666714Y-84360142D01*
X67666714Y-84264904D01*
X68285761Y-83503000D02*
X68333380Y-83598238D01*
X68333380Y-83788714D01*
X68285761Y-83883952D01*
X68238142Y-83931571D01*
X68142904Y-83979190D01*
X67857190Y-83979190D01*
X67761952Y-83931571D01*
X67714333Y-83883952D01*
X67666714Y-83788714D01*
X67666714Y-83598238D01*
X67714333Y-83503000D01*
X67666714Y-82645857D02*
X68333380Y-82645857D01*
X67666714Y-83074428D02*
X68190523Y-83074428D01*
X68285761Y-83026809D01*
X68333380Y-82931571D01*
X68333380Y-82788714D01*
X68285761Y-82693476D01*
X68238142Y-82645857D01*
X68333380Y-82169666D02*
X67666714Y-82169666D01*
X67333380Y-82169666D02*
X67381000Y-82217285D01*
X67428619Y-82169666D01*
X67381000Y-82122047D01*
X67333380Y-82169666D01*
X67428619Y-82169666D01*
X67666714Y-81836333D02*
X67666714Y-81455380D01*
X67333380Y-81693476D02*
X68190523Y-81693476D01*
X68285761Y-81645857D01*
X68333380Y-81550619D01*
X68333380Y-81455380D01*
X80530142Y-78553571D02*
X80530142Y-79767857D01*
X80601571Y-79910714D01*
X80673000Y-79982142D01*
X80815857Y-80053571D01*
X81101571Y-80053571D01*
X81244428Y-79982142D01*
X81315857Y-79910714D01*
X81387285Y-79767857D01*
X81387285Y-78553571D01*
X82030142Y-79982142D02*
X82244428Y-80053571D01*
X82601571Y-80053571D01*
X82744428Y-79982142D01*
X82815857Y-79910714D01*
X82887285Y-79767857D01*
X82887285Y-79625000D01*
X82815857Y-79482142D01*
X82744428Y-79410714D01*
X82601571Y-79339285D01*
X82315857Y-79267857D01*
X82173000Y-79196428D01*
X82101571Y-79125000D01*
X82030142Y-78982142D01*
X82030142Y-78839285D01*
X82101571Y-78696428D01*
X82173000Y-78625000D01*
X82315857Y-78553571D01*
X82673000Y-78553571D01*
X82887285Y-78625000D01*
X84030142Y-79267857D02*
X84244428Y-79339285D01*
X84315857Y-79410714D01*
X84387285Y-79553571D01*
X84387285Y-79767857D01*
X84315857Y-79910714D01*
X84244428Y-79982142D01*
X84101571Y-80053571D01*
X83530142Y-80053571D01*
X83530142Y-78553571D01*
X84030142Y-78553571D01*
X84173000Y-78625000D01*
X84244428Y-78696428D01*
X84315857Y-78839285D01*
X84315857Y-78982142D01*
X84244428Y-79125000D01*
X84173000Y-79196428D01*
X84030142Y-79267857D01*
X83530142Y-79267857D01*
X79930809Y-95488142D02*
X80216523Y-95583380D01*
X80311761Y-95678619D01*
X80407000Y-95869095D01*
X80407000Y-96154809D01*
X80311761Y-96345285D01*
X80216523Y-96440523D01*
X80026047Y-96535761D01*
X79264142Y-96535761D01*
X79264142Y-94535761D01*
X79930809Y-94535761D01*
X80121285Y-94631000D01*
X80216523Y-94726238D01*
X80311761Y-94916714D01*
X80311761Y-95107190D01*
X80216523Y-95297666D01*
X80121285Y-95392904D01*
X79930809Y-95488142D01*
X79264142Y-95488142D01*
X81168904Y-95964333D02*
X82121285Y-95964333D01*
X80978428Y-96535761D02*
X81645095Y-94535761D01*
X82311761Y-96535761D01*
X82692714Y-94535761D02*
X83835571Y-94535761D01*
X83264142Y-96535761D02*
X83264142Y-94535761D01*
D11*
X77138000Y-82957500D02*
X77138000Y-82507500D01*
X77138000Y-82957500D02*
X76688000Y-82957500D01*
X71538000Y-82407500D02*
X71988000Y-82407500D01*
X71538000Y-80557500D02*
X71538000Y-82407500D01*
X79338000Y-78007500D02*
X79338000Y-78257500D01*
X71538000Y-78007500D02*
X71538000Y-78257500D01*
X79338000Y-80557500D02*
X79338000Y-82407500D01*
X79338000Y-82407500D02*
X78888000Y-82407500D01*
X76211000Y-85131000D02*
X73761000Y-85131000D01*
X74411000Y-88351000D02*
X76211000Y-88351000D01*
X71099000Y-85757936D02*
X71099000Y-86962064D01*
X72919000Y-85757936D02*
X72919000Y-86962064D01*
X82698000Y-85057064D02*
X82698000Y-83852936D01*
X80878000Y-85057064D02*
X80878000Y-83852936D01*
X73596000Y-97429000D02*
X77026000Y-97429000D01*
X78296000Y-93159000D02*
X76496000Y-93159000D01*
X78296000Y-94609000D02*
X78296000Y-93159000D01*
X74126000Y-93159000D02*
X74126000Y-92169000D01*
X72326000Y-93159000D02*
X74126000Y-93159000D01*
X72326000Y-94609000D02*
X72326000Y-93159000D01*
X80653000Y-87075000D02*
X80653000Y-91135000D01*
X82923000Y-87075000D02*
X80653000Y-87075000D01*
X82923000Y-91135000D02*
X82923000Y-87075000D01*
X74835936Y-91080000D02*
X76040064Y-91080000D01*
X74835936Y-89260000D02*
X76040064Y-89260000D01*
X79523000Y-86835064D02*
X79523000Y-85630936D01*
X77703000Y-86835064D02*
X77703000Y-85630936D01*
D10*
X69937380Y-82629333D02*
X70651666Y-82629333D01*
X70794523Y-82676952D01*
X70889761Y-82772190D01*
X70937380Y-82915047D01*
X70937380Y-83010285D01*
X70937380Y-81629333D02*
X70937380Y-82200761D01*
X70937380Y-81915047D02*
X69937380Y-81915047D01*
X70080238Y-82010285D01*
X70175476Y-82105523D01*
X70223095Y-82200761D01*
X73279095Y-83780380D02*
X73279095Y-84589904D01*
X73326714Y-84685142D01*
X73374333Y-84732761D01*
X73469571Y-84780380D01*
X73660047Y-84780380D01*
X73755285Y-84732761D01*
X73802904Y-84685142D01*
X73850523Y-84589904D01*
X73850523Y-83780380D01*
X74850523Y-84780380D02*
X74279095Y-84780380D01*
X74564809Y-84780380D02*
X74564809Y-83780380D01*
X74469571Y-83923238D01*
X74374333Y-84018476D01*
X74279095Y-84066095D01*
X70810380Y-86526666D02*
X70334190Y-86860000D01*
X70810380Y-87098095D02*
X69810380Y-87098095D01*
X69810380Y-86717142D01*
X69858000Y-86621904D01*
X69905619Y-86574285D01*
X70000857Y-86526666D01*
X70143714Y-86526666D01*
X70238952Y-86574285D01*
X70286571Y-86621904D01*
X70334190Y-86717142D01*
X70334190Y-87098095D01*
X69905619Y-86145714D02*
X69858000Y-86098095D01*
X69810380Y-86002857D01*
X69810380Y-85764761D01*
X69858000Y-85669523D01*
X69905619Y-85621904D01*
X70000857Y-85574285D01*
X70096095Y-85574285D01*
X70238952Y-85621904D01*
X70810380Y-86193333D01*
X70810380Y-85574285D01*
X84272380Y-84621666D02*
X83796190Y-84955000D01*
X84272380Y-85193095D02*
X83272380Y-85193095D01*
X83272380Y-84812142D01*
X83320000Y-84716904D01*
X83367619Y-84669285D01*
X83462857Y-84621666D01*
X83605714Y-84621666D01*
X83700952Y-84669285D01*
X83748571Y-84716904D01*
X83796190Y-84812142D01*
X83796190Y-85193095D01*
X84272380Y-83669285D02*
X84272380Y-84240714D01*
X84272380Y-83955000D02*
X83272380Y-83955000D01*
X83415238Y-84050238D01*
X83510476Y-84145476D01*
X83558095Y-84240714D01*
X70405666Y-91781380D02*
X70405666Y-92495666D01*
X70358047Y-92638523D01*
X70262809Y-92733761D01*
X70119952Y-92781380D01*
X70024714Y-92781380D01*
X70834238Y-91876619D02*
X70881857Y-91829000D01*
X70977095Y-91781380D01*
X71215190Y-91781380D01*
X71310428Y-91829000D01*
X71358047Y-91876619D01*
X71405666Y-91971857D01*
X71405666Y-92067095D01*
X71358047Y-92209952D01*
X70786619Y-92781380D01*
X71405666Y-92781380D01*
X84145380Y-90146095D02*
X83145380Y-90146095D01*
X83145380Y-89908000D01*
X83193000Y-89765142D01*
X83288238Y-89669904D01*
X83383476Y-89622285D01*
X83573952Y-89574666D01*
X83716809Y-89574666D01*
X83907285Y-89622285D01*
X84002523Y-89669904D01*
X84097761Y-89765142D01*
X84145380Y-89908000D01*
X84145380Y-90146095D01*
X84145380Y-88622285D02*
X84145380Y-89193714D01*
X84145380Y-88908000D02*
X83145380Y-88908000D01*
X83288238Y-89003238D01*
X83383476Y-89098476D01*
X83431095Y-89193714D01*
X72620142Y-90336666D02*
X72667761Y-90384285D01*
X72715380Y-90527142D01*
X72715380Y-90622380D01*
X72667761Y-90765238D01*
X72572523Y-90860476D01*
X72477285Y-90908095D01*
X72286809Y-90955714D01*
X72143952Y-90955714D01*
X71953476Y-90908095D01*
X71858238Y-90860476D01*
X71763000Y-90765238D01*
X71715380Y-90622380D01*
X71715380Y-90527142D01*
X71763000Y-90384285D01*
X71810619Y-90336666D01*
X71810619Y-89955714D02*
X71763000Y-89908095D01*
X71715380Y-89812857D01*
X71715380Y-89574761D01*
X71763000Y-89479523D01*
X71810619Y-89431904D01*
X71905857Y-89384285D01*
X72001095Y-89384285D01*
X72143952Y-89431904D01*
X72715380Y-90003333D01*
X72715380Y-89384285D01*
X78827333Y-90273142D02*
X78779714Y-90320761D01*
X78636857Y-90368380D01*
X78541619Y-90368380D01*
X78398761Y-90320761D01*
X78303523Y-90225523D01*
X78255904Y-90130285D01*
X78208285Y-89939809D01*
X78208285Y-89796952D01*
X78255904Y-89606476D01*
X78303523Y-89511238D01*
X78398761Y-89416000D01*
X78541619Y-89368380D01*
X78636857Y-89368380D01*
X78779714Y-89416000D01*
X78827333Y-89463619D01*
X79779714Y-90368380D02*
X79208285Y-90368380D01*
X79494000Y-90368380D02*
X79494000Y-89368380D01*
X79398761Y-89511238D01*
X79303523Y-89606476D01*
X79208285Y-89654095D01*
M02*
